<svg width="16px" height="17px" viewBox="0 0 1600 1700" version="1.1" xmlns="http://www.w3.org/2000/svg" xmlns:xlink="http://www.w3.org/1999/xlink">
<path style="fill:#000000;fill-opacity:1.00;fill-rule:nonzero;stroke:none"  d="M 1175,376 L 1096,1240 C 1092,1280 1090,1307 1090,1320 C 1090,1340 1094,1356 1101,1366 C 1111,1381 1124,1392 1141,1399 C 1158,1407 1186,1410 1225,1410 L 1216,1438 L 807,1438 L 816,1410 L 833,1410 C 867,1410 894,1403 915,1389 C 929,1379 941,1363 949,1340 C 955,1325 960,1287 965,1229 L 977,1097 L 680,1097 L 574,1240 C 550,1272 535,1295 529,1309 C 523,1323 520,1337 520,1349 C 520,1365 527,1379 540,1391 C 553,1403 575,1409 606,1410 L 597,1438 L 290,1438 L 298,1410 C 336,1409 370,1396 398,1372 C 427,1348 470,1298 528,1220 L 1148,376 L 1175,376 Z M 1023,631 L 722,1041 L 983,1041 L 1023,631 Z "  />
</svg>