<svg width="19px" height="24px" viewBox="0 0 1900 2400" version="1.1" xmlns="http://www.w3.org/2000/svg" xmlns:xlink="http://www.w3.org/1999/xlink">
<path style="fill:#000000;fill-opacity:1.00;fill-rule:nonzero;stroke:none"  d="M 1317,1588 L 1257,1795 C 1313,1710 1357,1654 1387,1628 C 1417,1601 1446,1588 1474,1588 C 1490,1588 1502,1593 1512,1603 C 1522,1613 1527,1626 1527,1642 C 1527,1660 1522,1684 1514,1715 L 1458,1907 C 1452,1929 1448,1942 1448,1947 C 1448,1951 1450,1955 1452,1958 C 1455,1961 1457,1962 1460,1962 C 1463,1962 1468,1960 1473,1956 C 1489,1943 1507,1924 1526,1898 L 1540,1907 C 1512,1947 1485,1976 1460,1993 C 1442,2005 1426,2011 1412,2011 C 1401,2011 1392,2008 1386,2001 C 1379,1994 1376,1985 1376,1973 C 1376,1959 1381,1933 1391,1898 L 1444,1715 C 1451,1692 1454,1674 1454,1661 C 1454,1655 1452,1650 1448,1647 C 1444,1643 1439,1641 1433,1641 C 1425,1641 1415,1644 1403,1652 C 1380,1665 1357,1688 1333,1719 C 1308,1751 1283,1791 1256,1840 C 1241,1866 1230,1894 1220,1925 L 1197,2000 L 1129,2000 L 1212,1715 C 1222,1680 1226,1660 1226,1653 C 1226,1646 1224,1640 1218,1635 C 1213,1630 1207,1628 1199,1628 C 1195,1628 1189,1628 1180,1629 L 1162,1632 L 1159,1616 L 1317,1588 Z "  />
<path style="fill:#000000;fill-opacity:1.00;fill-rule:nonzero;stroke:none"  d="M 336,1624 L 424,742 C 428,697 430,667 430,652 C 430,628 421,609 404,593 C 386,577 359,570 321,570 L 293,570 L 301,541 L 719,541 L 710,570 C 665,570 634,575 617,584 C 600,592 587,608 577,629 C 572,640 566,673 560,727 L 498,1359 L 911,795 C 956,734 984,691 996,667 C 1003,651 1007,637 1007,625 C 1007,611 1001,599 989,588 C 977,578 955,572 922,570 L 932,541 L 1250,541 L 1242,570 C 1217,572 1197,577 1182,584 C 1153,598 1124,619 1096,646 C 1068,674 1023,729 961,813 L 364,1624 L 336,1624 Z "  />
</svg>