<svg width="55px" height="25px" viewBox="0 0 5500 2500" version="1.1" xmlns="http://www.w3.org/2000/svg" xmlns:xlink="http://www.w3.org/1999/xlink">
<path style="fill:#000000;fill-opacity:1.00;fill-rule:nonzero;stroke:none"  d="M 4895,453 L 5044,381 L 5059,381 L 5059,896 C 5059,930 5060,951 5063,960 C 5066,968 5072,975 5081,979 C 5090,984 5108,986 5135,987 L 5135,1003 L 4906,1003 L 4906,987 C 4935,986 4953,984 4962,979 C 4970,975 4976,969 4979,962 C 4983,954 4984,932 4984,896 L 4984,567 C 4984,522 4983,494 4980,481 C 4978,472 4974,465 4968,460 C 4963,456 4956,453 4948,453 C 4937,453 4922,458 4902,467 L 4895,453 Z "  />
<path style="fill:#000000;fill-opacity:1.00;fill-rule:nonzero;stroke:none"  d="M 1990,453 L 2139,381 L 2153,381 L 2153,896 C 2153,930 2155,951 2158,960 C 2161,968 2166,975 2175,979 C 2184,984 2203,986 2230,987 L 2230,1003 L 2001,1003 L 2001,987 C 2030,986 2048,984 2057,979 C 2065,975 2071,969 2074,962 C 2078,954 2079,932 2079,896 L 2079,567 C 2079,522 2078,494 2075,481 C 2073,472 2069,465 2063,460 C 2058,456 2051,453 2043,453 C 2032,453 2017,458 1997,467 L 1990,453 Z "  />
<path style="fill:#000000;fill-opacity:1.00;fill-rule:nonzero;stroke:none"  d="M 2571,1973 L 2571,1940 C 2624,1922 2665,1895 2694,1858 C 2723,1821 2737,1782 2737,1741 C 2737,1732 2735,1723 2730,1717 C 2727,1712 2723,1710 2720,1710 C 2714,1710 2702,1715 2683,1725 C 2673,1730 2663,1732 2653,1732 C 2628,1732 2608,1725 2593,1710 C 2578,1695 2571,1674 2571,1648 C 2571,1623 2580,1601 2600,1583 C 2619,1565 2642,1556 2670,1556 C 2704,1556 2734,1571 2761,1601 C 2787,1630 2800,1669 2800,1718 C 2800,1771 2782,1820 2745,1866 C 2709,1911 2650,1947 2571,1973 "  />
<path style="fill:#000000;fill-opacity:1.00;fill-rule:nonzero;stroke:none"  d="M 4515,596 C 4525,614 4532,630 4536,645 C 4540,660 4544,690 4548,734 L 4568,956 C 4586,934 4612,900 4646,853 C 4663,830 4683,799 4707,760 C 4722,736 4731,719 4734,710 C 4736,705 4737,700 4737,695 C 4737,691 4736,689 4734,687 C 4732,685 4726,682 4717,679 C 4709,676 4701,671 4695,664 C 4689,656 4687,647 4687,637 C 4687,625 4690,615 4697,608 C 4705,600 4714,596 4724,596 C 4738,596 4749,602 4758,613 C 4767,624 4772,639 4772,658 C 4772,682 4764,709 4748,739 C 4732,770 4700,816 4654,879 C 4608,942 4552,1011 4486,1085 C 4441,1136 4408,1169 4386,1182 C 4364,1195 4345,1202 4329,1202 C 4320,1202 4312,1199 4305,1191 C 4298,1184 4294,1176 4294,1167 C 4294,1155 4299,1145 4309,1135 C 4319,1125 4329,1121 4341,1121 C 4347,1121 4352,1122 4356,1125 C 4358,1126 4361,1130 4363,1138 C 4366,1145 4369,1149 4371,1152 C 4373,1153 4375,1154 4377,1154 C 4378,1154 4382,1152 4386,1149 C 4403,1139 4422,1123 4444,1101 C 4472,1071 4494,1048 4508,1029 L 4482,744 C 4478,697 4472,668 4463,658 C 4455,648 4441,643 4421,643 C 4415,643 4404,644 4387,645 L 4383,629 L 4515,596 Z "  />
<path style="fill:#000000;fill-opacity:1.00;fill-rule:nonzero;stroke:none"  d="M 4208,1466 L 4081,1908 L 4132,1864 C 4188,1817 4224,1782 4241,1759 C 4246,1751 4249,1746 4249,1742 C 4249,1739 4248,1737 4246,1734 C 4245,1732 4241,1730 4236,1728 C 4231,1727 4221,1726 4208,1726 L 4193,1726 L 4197,1709 L 4394,1709 L 4390,1726 C 4367,1727 4348,1731 4331,1737 C 4315,1743 4299,1751 4284,1763 C 4254,1785 4234,1801 4224,1809 L 4185,1844 C 4192,1865 4200,1895 4210,1934 C 4226,1998 4237,2036 4242,2048 C 4248,2060 4254,2066 4260,2066 C 4265,2066 4271,2064 4278,2058 C 4294,2047 4310,2029 4328,2004 L 4344,2015 C 4311,2056 4286,2083 4269,2096 C 4251,2110 4235,2116 4221,2116 C 4208,2116 4199,2111 4192,2101 C 4180,2084 4160,2014 4132,1892 L 4070,1946 L 4024,2105 L 3954,2105 L 4103,1592 L 4116,1549 C 4117,1541 4118,1534 4118,1529 C 4118,1522 4115,1516 4110,1511 C 4104,1506 4096,1504 4086,1504 C 4079,1504 4068,1505 4053,1508 L 4053,1492 L 4208,1466 Z "  />
<path style="fill:#000000;fill-opacity:1.00;fill-rule:nonzero;stroke:none"  d="M 1639,596 C 1654,612 1665,627 1673,643 C 1678,654 1687,682 1699,728 L 1739,669 C 1749,654 1762,641 1777,628 C 1792,615 1805,606 1817,601 C 1824,598 1832,596 1840,596 C 1853,596 1864,600 1871,607 C 1879,614 1883,622 1883,632 C 1883,643 1880,651 1876,655 C 1868,663 1858,666 1847,666 C 1841,666 1834,665 1827,662 C 1813,658 1803,655 1799,655 C 1791,655 1783,659 1773,668 C 1754,683 1732,714 1706,758 L 1743,913 C 1749,937 1754,951 1758,955 C 1762,960 1766,962 1769,962 C 1776,962 1783,959 1791,952 C 1808,938 1822,920 1834,898 L 1849,906 C 1831,942 1807,971 1778,994 C 1761,1007 1747,1014 1736,1014 C 1719,1014 1706,1005 1696,986 C 1689,974 1676,924 1657,835 C 1610,916 1572,968 1544,992 C 1526,1007 1508,1014 1491,1014 C 1479,1014 1468,1010 1458,1001 C 1451,994 1447,986 1447,975 C 1447,965 1451,956 1457,950 C 1464,943 1472,940 1482,940 C 1491,940 1501,945 1512,954 C 1520,961 1526,965 1530,965 C 1534,965 1538,962 1544,957 C 1558,946 1577,921 1602,884 C 1626,846 1642,819 1649,802 C 1631,729 1621,690 1619,686 C 1612,667 1603,653 1592,645 C 1581,637 1565,633 1543,633 C 1536,633 1528,633 1519,634 L 1519,617 L 1639,596 Z "  />
<path style="fill:#000000;fill-opacity:1.00;fill-rule:nonzero;stroke:none"  d="M 1362,1466 L 1234,1908 L 1285,1864 C 1341,1817 1378,1782 1395,1759 C 1400,1751 1403,1746 1403,1742 C 1403,1739 1402,1737 1400,1734 C 1398,1732 1395,1730 1390,1728 C 1384,1727 1375,1726 1362,1726 L 1346,1726 L 1351,1709 L 1548,1709 L 1543,1726 C 1521,1727 1501,1731 1485,1737 C 1469,1743 1453,1751 1437,1763 C 1407,1785 1387,1801 1378,1809 L 1339,1844 C 1346,1865 1354,1895 1363,1934 C 1379,1998 1390,2036 1396,2048 C 1402,2060 1408,2066 1414,2066 C 1419,2066 1425,2064 1432,2058 C 1447,2047 1464,2029 1481,2004 L 1497,2015 C 1465,2056 1440,2083 1422,2096 C 1405,2110 1389,2116 1374,2116 C 1362,2116 1352,2111 1345,2101 C 1333,2084 1313,2014 1285,1892 L 1224,1946 L 1177,2105 L 1107,2105 L 1257,1592 L 1269,1549 C 1271,1541 1271,1534 1271,1529 C 1271,1522 1269,1516 1263,1511 C 1258,1506 1250,1504 1239,1504 C 1232,1504 1221,1505 1206,1508 L 1206,1492 L 1362,1466 Z "  />
<path style="fill:#000000;fill-opacity:1.00;fill-rule:nonzero;stroke:none"  d="M 3178,1734 L 3265,864 C 3269,820 3271,790 3271,775 C 3271,751 3262,732 3245,717 C 3228,701 3201,694 3164,694 L 3136,694 L 3144,665 L 3556,665 L 3548,694 C 3503,694 3472,699 3456,707 C 3439,716 3426,731 3416,752 C 3411,763 3405,796 3400,849 L 3338,1472 L 3746,916 C 3790,855 3818,814 3829,790 C 3837,774 3841,760 3841,748 C 3841,734 3835,722 3823,712 C 3811,702 3789,696 3757,694 L 3766,665 L 4081,665 L 4073,694 C 4048,696 4028,700 4013,708 C 3984,722 3956,742 3928,769 C 3900,796 3856,851 3795,934 L 3206,1734 L 3178,1734 Z "  />
<path style="fill:#000000;fill-opacity:1.00;fill-rule:nonzero;stroke:none"  d="M 332,1734 L 418,864 C 422,820 425,790 425,775 C 425,751 416,732 399,717 C 381,701 354,694 317,694 L 290,694 L 297,665 L 710,665 L 701,694 C 657,694 626,699 609,707 C 592,716 579,731 569,752 C 564,763 559,796 553,849 L 492,1472 L 899,916 C 944,855 971,814 983,790 C 990,774 994,760 994,748 C 994,734 988,722 977,712 C 965,702 943,696 910,694 L 920,665 L 1234,665 L 1226,694 C 1201,696 1181,700 1166,708 C 1138,722 1110,742 1082,769 C 1054,796 1009,851 949,934 L 360,1734 L 332,1734 Z "  />
</svg>