<svg width="19px" height="25px" viewBox="0 0 1900 2500" version="1.1" xmlns="http://www.w3.org/2000/svg" xmlns:xlink="http://www.w3.org/1999/xlink">
<path style="fill:#000000;fill-opacity:1.00;fill-rule:nonzero;stroke:none"  d="M 1064,1876 C 1033,1913 1001,1941 970,1958 C 938,1976 904,1984 869,1984 C 826,1984 793,1972 769,1949 C 745,1925 733,1892 733,1852 C 733,1806 746,1761 772,1716 C 798,1672 832,1636 875,1608 C 919,1581 961,1567 1003,1567 C 1036,1567 1060,1574 1076,1587 C 1092,1601 1100,1618 1100,1637 C 1100,1656 1095,1672 1083,1685 C 1075,1695 1065,1700 1052,1700 C 1043,1700 1035,1697 1029,1691 C 1023,1685 1020,1678 1020,1669 C 1020,1663 1021,1658 1023,1653 C 1026,1648 1030,1642 1037,1636 C 1044,1629 1049,1624 1050,1621 C 1052,1618 1052,1615 1052,1612 C 1052,1605 1049,1600 1044,1596 C 1035,1590 1023,1587 1007,1587 C 977,1587 948,1597 920,1618 C 891,1639 866,1668 846,1706 C 821,1752 809,1798 809,1845 C 809,1875 818,1899 835,1917 C 852,1935 876,1944 906,1944 C 929,1944 952,1938 975,1927 C 997,1915 1023,1894 1051,1864 L 1064,1876 Z M 1321,1567 L 1290,1670 C 1322,1632 1352,1605 1377,1590 C 1403,1574 1429,1567 1456,1567 C 1482,1567 1505,1577 1524,1598 C 1543,1620 1552,1647 1552,1681 C 1552,1747 1526,1814 1472,1882 C 1418,1950 1356,1984 1284,1984 C 1269,1984 1256,1983 1245,1980 C 1233,1976 1220,1970 1206,1962 L 1173,2078 C 1166,2101 1163,2116 1163,2123 C 1163,2129 1165,2135 1168,2139 C 1172,2144 1177,2148 1185,2150 C 1193,2153 1208,2154 1231,2154 L 1227,2171 L 1015,2171 L 1020,2154 C 1048,2153 1067,2148 1076,2140 C 1086,2131 1096,2108 1107,2070 L 1221,1676 C 1228,1651 1231,1636 1231,1630 C 1231,1622 1229,1615 1224,1611 C 1220,1606 1213,1604 1203,1604 C 1194,1604 1182,1605 1167,1607 L 1167,1590 L 1321,1567 Z M 1216,1926 C 1235,1949 1260,1960 1291,1960 C 1307,1960 1323,1955 1339,1947 C 1355,1938 1371,1925 1386,1908 C 1402,1891 1416,1871 1428,1849 C 1440,1827 1451,1800 1461,1770 C 1471,1740 1475,1710 1475,1680 C 1475,1656 1470,1638 1459,1625 C 1448,1612 1435,1606 1421,1606 C 1388,1606 1356,1624 1325,1662 C 1293,1699 1270,1742 1255,1792 L 1216,1926 Z "  />
<path style="fill:#000000;fill-opacity:1.00;fill-rule:nonzero;stroke:none"  d="M 665,483 L 401,1400 C 388,1446 382,1474 382,1484 C 382,1492 384,1498 389,1503 C 394,1509 400,1511 407,1511 C 417,1511 427,1507 439,1498 C 465,1477 493,1444 523,1400 L 546,1424 C 497,1493 452,1541 411,1568 C 381,1588 352,1597 325,1597 C 305,1597 289,1591 276,1577 C 263,1564 256,1549 256,1531 C 256,1513 264,1475 281,1417 L 490,694 C 507,635 515,601 515,592 C 515,580 510,570 500,562 C 491,554 475,550 455,550 C 443,550 425,551 401,555 L 401,527 L 665,483 Z "  />
</svg>