<svg width="29px" height="23px" viewBox="0 0 2900 2300" version="1.1" xmlns="http://www.w3.org/2000/svg" xmlns:xlink="http://www.w3.org/1999/xlink">
<path style="fill:#000000;fill-opacity:1.00;fill-rule:nonzero;stroke:none"  d="M 2327,1464 L 2480,1389 L 2495,1389 L 2495,1919 C 2495,1954 2496,1976 2499,1985 C 2502,1993 2508,2000 2518,2004 C 2527,2009 2546,2012 2574,2012 L 2574,2029 L 2338,2029 L 2338,2012 C 2368,2012 2387,2009 2396,2005 C 2404,2000 2410,1994 2414,1987 C 2417,1979 2419,1957 2419,1919 L 2419,1580 C 2419,1535 2417,1506 2414,1493 C 2412,1483 2408,1475 2402,1471 C 2397,1466 2390,1464 2382,1464 C 2370,1464 2354,1469 2334,1478 L 2327,1464 Z "  />
<path style="fill:#000000;fill-opacity:1.00;fill-rule:nonzero;stroke:none"  d="M 1776,1763 L 2262,1763 L 2262,1809 L 1776,1809 L 1776,1763 Z "  />
<path style="fill:#000000;fill-opacity:1.00;fill-rule:nonzero;stroke:none"  d="M 1347,1637 L 1507,1611 L 1440,1836 C 1494,1744 1543,1679 1587,1642 C 1612,1621 1632,1611 1648,1611 C 1658,1611 1666,1614 1672,1620 C 1678,1626 1681,1635 1681,1646 C 1681,1666 1676,1686 1665,1704 C 1658,1718 1647,1725 1633,1725 C 1626,1725 1620,1723 1615,1718 C 1610,1714 1607,1707 1606,1697 C 1605,1691 1604,1687 1601,1685 C 1599,1683 1596,1682 1593,1682 C 1587,1682 1582,1683 1578,1685 C 1570,1690 1558,1702 1541,1721 C 1516,1752 1488,1791 1458,1839 C 1445,1859 1434,1882 1425,1908 C 1412,1943 1404,1964 1403,1971 L 1388,2029 L 1317,2029 L 1403,1742 C 1412,1709 1417,1685 1417,1671 C 1417,1666 1415,1661 1410,1657 C 1404,1652 1396,1650 1386,1650 C 1379,1650 1368,1651 1350,1654 L 1347,1637 Z "  />
<path style="fill:#000000;fill-opacity:1.00;fill-rule:nonzero;stroke:none"  d="M 796,906 L 741,1088 C 799,1021 850,974 895,947 C 940,920 987,906 1034,906 C 1081,906 1121,925 1154,962 C 1187,999 1204,1048 1204,1107 C 1204,1224 1157,1342 1062,1462 C 968,1582 857,1643 732,1643 C 705,1643 682,1640 661,1634 C 641,1628 618,1618 593,1603 L 535,1807 C 523,1848 518,1874 518,1886 C 518,1898 521,1907 527,1916 C 533,1924 543,1930 556,1935 C 570,1939 597,1941 638,1941 L 631,1971 L 257,1971 L 265,1941 C 315,1939 348,1931 365,1916 C 382,1901 400,1860 419,1793 L 620,1099 C 632,1055 638,1028 638,1017 C 638,1003 634,992 626,984 C 618,976 605,972 588,972 C 573,972 551,974 524,977 L 524,947 L 796,906 Z M 611,1540 C 644,1579 688,1599 743,1599 C 771,1599 799,1591 827,1576 C 856,1561 884,1538 911,1508 C 938,1478 963,1443 984,1404 C 1006,1364 1026,1318 1043,1264 C 1060,1211 1068,1158 1068,1106 C 1068,1064 1059,1031 1040,1009 C 1020,986 998,975 972,975 C 915,975 858,1008 802,1073 C 747,1139 706,1216 680,1303 L 611,1540 Z "  />
</svg>