<svg width="24px" height="20px" viewBox="0 0 2400 2000" version="1.1" xmlns="http://www.w3.org/2000/svg" xmlns:xlink="http://www.w3.org/1999/xlink">
<path style="fill:#000000;fill-opacity:1.00;fill-rule:nonzero;stroke:none"  d="M 1933,317 C 1955,317 1974,325 1989,340 C 2004,355 2012,374 2012,396 C 2012,418 2004,436 1989,452 C 1974,467 1955,475 1933,475 C 1911,475 1893,467 1877,452 C 1862,436 1854,418 1854,396 C 1854,374 1862,355 1877,340 C 1893,325 1911,317 1933,317 M 1946,626 L 1743,1326 C 1707,1451 1658,1541 1595,1596 C 1532,1651 1465,1679 1392,1679 C 1359,1679 1334,1671 1317,1656 C 1300,1641 1292,1623 1292,1602 C 1292,1586 1298,1572 1311,1559 C 1324,1547 1338,1541 1355,1541 C 1370,1541 1383,1546 1395,1556 C 1404,1564 1409,1573 1409,1583 C 1409,1596 1402,1608 1389,1618 C 1382,1623 1378,1628 1378,1632 L 1380,1636 C 1382,1638 1384,1639 1387,1640 C 1390,1641 1395,1642 1401,1642 C 1443,1642 1479,1629 1509,1602 C 1539,1575 1566,1521 1589,1441 L 1764,841 C 1782,782 1790,750 1790,744 C 1790,731 1784,720 1773,710 C 1762,700 1748,695 1731,695 C 1724,695 1716,696 1707,697 C 1701,698 1691,700 1678,702 L 1678,675 L 1946,626 Z "  />
<path style="fill:#000000;fill-opacity:1.00;fill-rule:nonzero;stroke:none"  d="M 549,316 C 571,316 590,324 605,339 C 620,354 628,372 628,394 C 628,416 620,434 605,449 C 589,465 571,472 549,472 C 528,472 510,465 494,449 C 479,434 471,416 471,394 C 471,372 479,354 494,339 C 509,324 528,316 549,316 M 560,626 L 405,1174 C 395,1211 389,1233 389,1240 C 389,1249 392,1255 397,1261 C 402,1266 408,1268 414,1268 C 422,1268 432,1264 442,1256 C 472,1233 502,1199 532,1156 L 560,1174 C 524,1228 483,1274 435,1311 C 399,1338 365,1352 333,1352 C 312,1352 294,1346 281,1333 C 267,1320 260,1304 260,1285 C 260,1266 267,1234 280,1189 L 382,839 C 398,782 407,746 407,731 C 407,720 402,710 394,703 C 386,696 375,692 361,692 C 350,692 326,695 290,701 L 290,670 L 560,626 Z "  />
<path style="fill:#000000;fill-opacity:1.00;fill-rule:nonzero;stroke:none"  d="M 753,1600 L 753,1565 C 806,1548 848,1520 877,1483 C 907,1446 921,1406 921,1365 C 921,1355 919,1346 914,1340 C 911,1335 907,1333 903,1333 C 898,1333 885,1338 866,1348 C 857,1353 847,1355 836,1355 C 811,1355 790,1348 775,1333 C 760,1317 753,1297 753,1270 C 753,1245 762,1223 782,1204 C 801,1186 825,1177 853,1177 C 888,1177 918,1192 945,1222 C 972,1252 985,1292 985,1341 C 985,1395 967,1445 930,1491 C 892,1537 833,1573 753,1600 "  />
</svg>