<svg width="572px" height="59px" viewBox="0 0 57200 5900" version="1.1" xmlns="http://www.w3.org/2000/svg" xmlns:xlink="http://www.w3.org/1999/xlink">
<path style="fill:none;stroke:#000000;stroke-width:70px;stroke-opacity:1.00;"  d="M 9739,2248 L 10760,2248 "  />
<path style="fill:#000000;fill-opacity:1.00;fill-rule:nonzero;stroke:none"  d="M 14569,3094 L 14569,3141 C 14379,3046 14232,2908 14127,2726 C 14021,2544 13969,2344 13969,2128 C 13969,1902 14024,1697 14135,1512 C 14246,1327 14390,1195 14569,1115 L 14569,1161 C 14479,1210 14406,1277 14349,1363 C 14292,1448 14249,1557 14221,1688 C 14193,1820 14178,1957 14178,2099 C 14178,2261 14191,2407 14217,2537 C 14244,2668 14283,2776 14337,2862 C 14391,2948 14468,3025 14569,3094 "  />
<path style="fill:#000000;fill-opacity:1.00;fill-rule:nonzero;stroke:none"  d="M 33175,1161 L 33175,1115 C 33364,1208 33511,1346 33617,1528 C 33722,1711 33775,1910 33775,2127 C 33775,2352 33719,2557 33609,2743 C 33498,2928 33353,3061 33175,3141 L 33175,3094 C 33265,3045 33338,2977 33395,2892 C 33453,2806 33495,2698 33523,2567 C 33551,2436 33565,2298 33565,2155 C 33565,1994 33552,1848 33526,1718 C 33501,1587 33461,1478 33407,1393 C 33353,1307 33276,1229 33175,1161 "  />
<path style="fill:#000000;fill-opacity:1.00;fill-rule:nonzero;stroke:none"  d="M 36830,3158 L 36830,3213 C 36606,3101 36431,2937 36306,2721 C 36181,2504 36118,2268 36118,2010 C 36118,1743 36184,1499 36316,1279 C 36447,1060 36619,902 36830,808 L 36830,862 C 36725,921 36638,1001 36570,1102 C 36502,1204 36451,1332 36418,1488 C 36384,1645 36367,1807 36367,1977 C 36367,2169 36383,2342 36414,2497 C 36445,2652 36492,2780 36556,2882 C 36619,2984 36711,3076 36830,3158 "  />
<path style="fill:#000000;fill-opacity:1.00;fill-rule:nonzero;stroke:none"  d="M 55369,862 L 55369,808 C 55594,919 55769,1082 55894,1299 C 56019,1515 56082,1752 56082,2009 C 56082,2277 56016,2521 55884,2741 C 55753,2961 55581,3118 55369,3213 L 55369,3158 C 55476,3099 55563,3019 55631,2918 C 55699,2816 55750,2687 55783,2532 C 55816,2376 55833,2213 55833,2043 C 55833,1852 55817,1679 55787,1523 C 55756,1368 55709,1239 55645,1138 C 55581,1036 55489,944 55369,862 "  />
<path style="fill:#000000;fill-opacity:1.00;fill-rule:nonzero;stroke:none"  d="M 14442,3266 L 13780,3266 L 13780,572 L 14442,572 L 14442,701 L 14021,701 L 14021,3137 L 14442,3137 L 14442,3266 Z "  />
<path style="fill:#000000;fill-opacity:1.00;fill-rule:nonzero;stroke:none"  d="M 56686,572 L 57347,572 L 57347,3266 L 56686,3266 L 56686,3137 L 57108,3137 L 57108,701 L 56686,701 L 56686,572 Z "  />
<path style="fill:#000000;fill-opacity:1.00;fill-rule:nonzero;stroke:none"  d="M 13214,3312 L 11593,3312 L 11593,3267 L 12419,2241 L 11593,1232 L 11593,1187 L 13171,1187 L 13204,1603 L 13154,1603 C 13141,1489 13109,1408 13059,1360 C 13008,1311 12938,1287 12847,1287 L 11933,1287 L 12627,2135 L 11851,3094 L 12861,3094 C 12918,3094 12981,3083 13050,3061 C 13096,3045 13135,3018 13166,2978 C 13197,2938 13223,2875 13243,2791 L 13293,2799 L 13214,3312 Z "  />
<path style="fill:#000000;fill-opacity:1.00;fill-rule:nonzero;stroke:none"  d="M 12231,4987 L 12735,4987 L 12735,5034 L 12231,5034 L 12231,4987 Z "  />
<path style="fill:#000000;fill-opacity:1.00;fill-rule:nonzero;stroke:none"  d="M 11632,4899 L 12136,4899 L 12136,4946 L 11632,4946 L 11632,4899 Z M 11632,5078 L 12136,5078 L 12136,5126 L 11632,5126 L 11632,5078 Z "  />
<path style="fill:#000000;fill-opacity:1.00;fill-rule:nonzero;stroke:none"  d="M 12002,4004 L 12506,4004 L 12506,4051 L 12002,4051 L 12002,4004 Z "  />
<path style="fill:#000000;fill-opacity:1.00;fill-rule:nonzero;stroke:none"  d="M 11403,3916 L 11907,3916 L 11907,3962 L 11403,3962 L 11403,3916 Z M 11403,4095 L 11907,4095 L 11907,4142 L 11403,4142 L 11403,4095 Z "  />
<path style="fill:#000000;fill-opacity:1.00;fill-rule:nonzero;stroke:none"  d="M 45167,2195 L 46031,2195 L 46031,2276 L 45167,2276 L 45167,2195 Z "  />
<path style="fill:#000000;fill-opacity:1.00;fill-rule:nonzero;stroke:none"  d="M 35160,1805 L 35241,1805 L 35241,2198 L 35632,2198 L 35632,2278 L 35241,2278 L 35241,2669 L 35160,2669 L 35160,2278 L 34768,2278 L 34768,2198 L 35160,2198 L 35160,1805 Z "  />
<path style="fill:#000000;fill-opacity:1.00;fill-rule:nonzero;stroke:none"  d="M 23043,2195 L 23908,2195 L 23908,2276 L 23043,2276 L 23043,2195 Z "  />
<path style="fill:#000000;fill-opacity:1.00;fill-rule:nonzero;stroke:none"  d="M 8369,2044 L 9233,2044 L 9233,2124 L 8369,2124 L 8369,2044 Z M 8369,2351 L 9233,2351 L 9233,2433 L 8369,2433 L 8369,2351 Z "  />
<path style="fill:#000000;fill-opacity:1.00;fill-rule:nonzero;stroke:none"  d="M 13530,4676 L 13689,4599 L 13705,4599 L 13705,5149 C 13705,5185 13706,5208 13709,5217 C 13712,5226 13719,5233 13728,5238 C 13738,5242 13757,5245 13787,5246 L 13787,5263 L 13542,5263 L 13542,5246 C 13573,5245 13592,5242 13601,5238 C 13610,5233 13617,5227 13620,5219 C 13624,5211 13625,5188 13625,5149 L 13625,4797 C 13625,4750 13624,4719 13621,4706 C 13618,4696 13614,4688 13608,4683 C 13602,4679 13595,4676 13587,4676 C 13575,4676 13559,4681 13538,4691 L 13530,4676 Z "  />
<path style="fill:#000000;fill-opacity:1.00;fill-rule:nonzero;stroke:none"  d="M 13261,5427 L 13261,5406 C 13294,5395 13319,5378 13338,5355 C 13356,5333 13365,5308 13365,5283 C 13365,5277 13363,5271 13360,5267 C 13358,5264 13356,5263 13354,5263 C 13350,5263 13342,5266 13331,5273 C 13325,5275 13319,5277 13312,5277 C 13297,5277 13284,5272 13275,5263 C 13266,5254 13261,5241 13261,5225 C 13261,5209 13267,5195 13279,5184 C 13291,5173 13306,5167 13323,5167 C 13344,5167 13363,5177 13379,5195 C 13396,5213 13404,5238 13404,5268 C 13404,5301 13393,5332 13370,5360 C 13347,5389 13311,5411 13261,5427 "  />
<path style="fill:#000000;fill-opacity:1.00;fill-rule:nonzero;stroke:none"  d="M 12865,4676 L 13024,4599 L 13040,4599 L 13040,5149 C 13040,5185 13041,5208 13044,5217 C 13047,5226 13054,5233 13063,5238 C 13073,5242 13092,5245 13122,5246 L 13122,5263 L 12877,5263 L 12877,5246 C 12908,5245 12928,5242 12937,5238 C 12946,5233 12952,5227 12955,5219 C 12959,5211 12961,5188 12961,5149 L 12961,4797 C 12961,4750 12959,4719 12956,4706 C 12954,4696 12949,4688 12944,4683 C 12938,4679 12930,4676 12922,4676 C 12910,4676 12894,4681 12873,4691 L 12865,4676 Z "  />
<path style="fill:#000000;fill-opacity:1.00;fill-rule:nonzero;stroke:none"  d="M 13301,3693 L 13460,3616 L 13476,3616 L 13476,4165 C 13476,4202 13477,4225 13480,4234 C 13483,4243 13490,4249 13499,4254 C 13509,4259 13528,4262 13558,4262 L 13558,4280 L 13313,4280 L 13313,4262 C 13344,4262 13363,4259 13372,4254 C 13381,4250 13388,4244 13391,4236 C 13395,4228 13396,4204 13396,4165 L 13396,3814 C 13396,3766 13395,3736 13392,3723 C 13389,3712 13385,3705 13379,3700 C 13373,3695 13366,3693 13358,3693 C 13346,3693 13330,3698 13309,3708 L 13301,3693 Z "  />
<path style="fill:#000000;fill-opacity:1.00;fill-rule:nonzero;stroke:none"  d="M 13032,4444 L 13032,4423 C 13065,4412 13091,4395 13109,4372 C 13127,4349 13136,4325 13136,4299 C 13136,4293 13134,4288 13131,4284 C 13129,4281 13127,4280 13125,4280 C 13121,4280 13113,4283 13102,4289 C 13096,4292 13090,4294 13083,4294 C 13068,4294 13055,4289 13046,4280 C 13037,4270 13032,4258 13032,4241 C 13032,4226 13038,4212 13050,4201 C 13062,4190 13077,4184 13094,4184 C 13115,4184 13134,4193 13150,4212 C 13167,4230 13175,4255 13175,4285 C 13175,4318 13164,4349 13141,4377 C 13118,4405 13082,4428 13032,4444 "  />
<path style="fill:#000000;fill-opacity:1.00;fill-rule:nonzero;stroke:none"  d="M 12637,3693 L 12795,3616 L 12811,3616 L 12811,4165 C 12811,4202 12812,4225 12815,4234 C 12818,4243 12825,4249 12834,4254 C 12844,4259 12864,4262 12893,4262 L 12893,4280 L 12648,4280 L 12648,4262 C 12679,4262 12699,4259 12708,4254 C 12717,4250 12723,4244 12726,4236 C 12730,4228 12732,4204 12732,4165 L 12732,3814 C 12732,3766 12730,3736 12727,3723 C 12725,3712 12721,3705 12715,3700 C 12709,3695 12702,3693 12693,3693 C 12681,3693 12665,3698 12644,3708 L 12637,3693 Z "  />
<path style="fill:#000000;fill-opacity:1.00;fill-rule:nonzero;stroke:none"  d="M 56264,1666 L 56218,1791 L 55834,1791 L 55834,1773 C 55947,1670 56027,1586 56073,1521 C 56119,1455 56142,1396 56142,1342 C 56142,1300 56129,1266 56104,1240 C 56079,1213 56049,1200 56013,1200 C 55981,1200 55953,1209 55927,1228 C 55902,1247 55883,1274 55871,1310 L 55853,1310 C 55861,1251 55882,1206 55915,1174 C 55948,1142 55989,1126 56039,1126 C 56092,1126 56136,1143 56171,1177 C 56207,1211 56224,1251 56224,1297 C 56224,1330 56217,1363 56201,1396 C 56177,1448 56139,1503 56086,1561 C 56006,1648 55956,1701 55937,1719 L 56107,1719 C 56141,1719 56165,1717 56179,1715 C 56193,1712 56206,1707 56217,1699 C 56228,1691 56238,1680 56246,1666 L 56264,1666 Z "  />
<path style="fill:#000000;fill-opacity:1.00;fill-rule:nonzero;stroke:none"  d="M 34136,1666 L 34090,1791 L 33706,1791 L 33706,1773 C 33819,1670 33899,1586 33945,1521 C 33991,1455 34014,1396 34014,1342 C 34014,1300 34001,1266 33976,1240 C 33951,1213 33921,1200 33885,1200 C 33853,1200 33825,1209 33799,1228 C 33774,1247 33755,1274 33743,1310 L 33725,1310 C 33733,1251 33754,1206 33787,1174 C 33820,1142 33861,1126 33911,1126 C 33964,1126 34008,1143 34043,1177 C 34078,1211 34096,1251 34096,1297 C 34096,1330 34088,1363 34073,1396 C 34049,1448 34011,1503 33958,1561 C 33878,1648 33828,1701 33809,1719 L 33979,1719 C 34013,1719 34037,1717 34051,1715 C 34065,1712 34078,1707 34089,1699 C 34100,1691 34110,1680 34118,1666 L 34136,1666 Z "  />
<path style="fill:#000000;fill-opacity:1.00;fill-rule:nonzero;stroke:none"  d="M 53786,1533 L 53786,1499 C 53870,1540 53939,1588 53994,1644 C 54073,1724 54133,1818 54176,1926 C 54219,2034 54240,2146 54240,2263 C 54240,2433 54199,2589 54115,2729 C 54031,2869 53922,2969 53786,3030 L 53786,2999 C 53854,2961 53909,2910 53953,2846 C 53996,2781 54029,2699 54050,2599 C 54071,2500 54082,2396 54082,2288 C 54082,2171 54073,2064 54054,1968 C 54041,1892 54024,1831 54003,1786 C 53982,1740 53955,1696 53921,1654 C 53887,1612 53842,1572 53786,1533 "  />
<path style="fill:#000000;fill-opacity:1.00;fill-rule:nonzero;stroke:none"  d="M 52227,2950 L 52227,2914 C 52284,2895 52328,2866 52359,2827 C 52390,2787 52405,2746 52405,2702 C 52405,2692 52403,2683 52398,2676 C 52394,2671 52390,2668 52386,2668 C 52380,2668 52367,2674 52347,2685 C 52337,2690 52326,2692 52315,2692 C 52289,2692 52267,2684 52251,2668 C 52235,2652 52227,2630 52227,2602 C 52227,2575 52238,2552 52258,2533 C 52279,2514 52304,2504 52334,2504 C 52370,2504 52402,2520 52430,2552 C 52459,2583 52473,2625 52473,2677 C 52473,2734 52453,2786 52414,2835 C 52375,2883 52312,2922 52227,2950 "  />
<path style="fill:#000000;fill-opacity:1.00;fill-rule:nonzero;stroke:none"  d="M 51207,2999 L 51207,3030 C 51125,2988 51055,2939 51000,2883 C 50921,2803 50860,2710 50817,2602 C 50775,2493 50753,2381 50753,2265 C 50753,2095 50795,1940 50879,1799 C 50963,1659 51072,1559 51207,1499 L 51207,1533 C 51140,1571 51085,1622 51041,1686 C 50998,1751 50965,1833 50944,1932 C 50923,2032 50912,2135 50912,2244 C 50912,2361 50921,2468 50939,2564 C 50953,2639 50971,2700 50991,2746 C 51011,2792 51039,2836 51073,2878 C 51107,2920 51152,2961 51207,2999 "  />
<path style="fill:#000000;fill-opacity:1.00;fill-rule:nonzero;stroke:none"  d="M 43347,1533 L 43347,1499 C 43431,1540 43500,1588 43556,1644 C 43634,1724 43695,1818 43737,1926 C 43780,2034 43802,2146 43802,2263 C 43802,2433 43760,2589 43676,2729 C 43592,2869 43483,2969 43347,3030 L 43347,2999 C 43415,2961 43470,2910 43514,2846 C 43558,2781 43590,2699 43611,2599 C 43632,2500 43643,2396 43643,2288 C 43643,2171 43634,2064 43616,1968 C 43602,1892 43585,1831 43564,1786 C 43544,1740 43516,1696 43482,1654 C 43448,1612 43403,1572 43347,1533 "  />
<path style="fill:#000000;fill-opacity:1.00;fill-rule:nonzero;stroke:none"  d="M 41894,2950 L 41894,2914 C 41951,2895 41995,2866 42026,2827 C 42057,2787 42072,2746 42072,2702 C 42072,2692 42070,2683 42065,2676 C 42061,2671 42057,2668 42053,2668 C 42047,2668 42034,2674 42014,2685 C 42004,2690 41993,2692 41982,2692 C 41955,2692 41934,2684 41918,2668 C 41902,2652 41894,2630 41894,2602 C 41894,2575 41905,2552 41925,2533 C 41946,2514 41971,2504 42000,2504 C 42037,2504 42069,2520 42097,2552 C 42125,2583 42140,2625 42140,2677 C 42140,2734 42120,2786 42081,2835 C 42041,2883 41979,2922 41894,2950 "  />
<path style="fill:#000000;fill-opacity:1.00;fill-rule:nonzero;stroke:none"  d="M 41271,2999 L 41271,3030 C 41188,2988 41119,2939 41063,2883 C 40984,2803 40923,2710 40880,2602 C 40838,2493 40816,2381 40816,2265 C 40816,2095 40858,1940 40942,1799 C 41026,1659 41136,1559 41271,1499 L 41271,1533 C 41203,1571 41148,1622 41104,1686 C 41061,1751 41029,1833 41007,1932 C 40986,2032 40975,2135 40975,2244 C 40975,2361 40984,2468 41002,2564 C 41016,2639 41034,2700 41054,2746 C 41074,2792 41102,2836 41136,2878 C 41170,2920 41215,2961 41271,2999 "  />
<path style="fill:#000000;fill-opacity:1.00;fill-rule:nonzero;stroke:none"  d="M 31663,1533 L 31663,1499 C 31746,1540 31815,1588 31871,1644 C 31949,1724 32010,1818 32053,1926 C 32095,2034 32117,2146 32117,2263 C 32117,2433 32075,2589 31991,2729 C 31908,2869 31798,2969 31663,3030 L 31663,2999 C 31730,2961 31786,2910 31829,2846 C 31873,2781 31905,2699 31926,2599 C 31947,2500 31958,2396 31958,2288 C 31958,2171 31949,2064 31931,1968 C 31917,1892 31900,1831 31879,1786 C 31859,1740 31832,1696 31798,1654 C 31763,1612 31718,1572 31663,1533 "  />
<path style="fill:#000000;fill-opacity:1.00;fill-rule:nonzero;stroke:none"  d="M 30104,2950 L 30104,2914 C 30160,2895 30204,2866 30235,2827 C 30266,2787 30282,2746 30282,2702 C 30282,2692 30279,2683 30274,2676 C 30270,2671 30267,2668 30263,2668 C 30257,2668 30243,2674 30223,2685 C 30213,2690 30203,2692 30192,2692 C 30165,2692 30144,2684 30128,2668 C 30112,2652 30104,2630 30104,2602 C 30104,2575 30114,2552 30135,2533 C 30155,2514 30180,2504 30210,2504 C 30246,2504 30278,2520 30307,2552 C 30335,2583 30349,2625 30349,2677 C 30349,2734 30329,2786 30290,2835 C 30251,2883 30189,2922 30104,2950 "  />
<path style="fill:#000000;fill-opacity:1.00;fill-rule:nonzero;stroke:none"  d="M 29084,2999 L 29084,3030 C 29001,2988 28932,2939 28876,2883 C 28797,2803 28737,2710 28694,2602 C 28651,2493 28630,2381 28630,2265 C 28630,2095 28671,1940 28755,1799 C 28839,1659 28949,1559 29084,1499 L 29084,1533 C 29016,1571 28961,1622 28918,1686 C 28874,1751 28842,1833 28820,1932 C 28799,2032 28788,2135 28788,2244 C 28788,2361 28797,2468 28816,2564 C 28830,2639 28847,2700 28867,2746 C 28888,2792 28915,2836 28949,2878 C 28984,2920 29028,2961 29084,2999 "  />
<path style="fill:#000000;fill-opacity:1.00;fill-rule:nonzero;stroke:none"  d="M 21285,1533 L 21285,1499 C 21369,1540 21438,1588 21494,1644 C 21572,1724 21633,1818 21675,1926 C 21718,2034 21740,2146 21740,2263 C 21740,2433 21698,2589 21614,2729 C 21530,2869 21421,2969 21285,3030 L 21285,2999 C 21353,2961 21408,2910 21452,2846 C 21496,2781 21528,2699 21549,2599 C 21570,2500 21581,2396 21581,2288 C 21581,2171 21572,2064 21554,1968 C 21540,1892 21523,1831 21502,1786 C 21482,1740 21454,1696 21420,1654 C 21386,1612 21341,1572 21285,1533 "  />
<path style="fill:#000000;fill-opacity:1.00;fill-rule:nonzero;stroke:none"  d="M 19832,2950 L 19832,2914 C 19889,2895 19933,2866 19964,2827 C 19995,2787 20010,2746 20010,2702 C 20010,2692 20008,2683 20003,2676 C 19999,2671 19995,2668 19991,2668 C 19985,2668 19972,2674 19952,2685 C 19942,2690 19931,2692 19920,2692 C 19893,2692 19872,2684 19856,2668 C 19840,2652 19832,2630 19832,2602 C 19832,2575 19843,2552 19863,2533 C 19884,2514 19909,2504 19938,2504 C 19975,2504 20007,2520 20035,2552 C 20063,2583 20078,2625 20078,2677 C 20078,2734 20058,2786 20019,2835 C 19979,2883 19917,2922 19832,2950 "  />
<path style="fill:#000000;fill-opacity:1.00;fill-rule:nonzero;stroke:none"  d="M 19209,2999 L 19209,3030 C 19126,2988 19057,2939 19001,2883 C 18922,2803 18861,2710 18818,2602 C 18776,2493 18754,2381 18754,2265 C 18754,2095 18796,1940 18880,1799 C 18964,1659 19074,1559 19209,1499 L 19209,1533 C 19141,1571 19086,1622 19042,1686 C 18999,1751 18967,1833 18945,1932 C 18924,2032 18913,2135 18913,2244 C 18913,2361 18922,2468 18940,2564 C 18955,2639 18972,2700 18992,2746 C 19012,2792 19040,2836 19074,2878 C 19108,2920 19153,2961 19209,2999 "  />
<path style="fill:#000000;fill-opacity:1.00;fill-rule:nonzero;stroke:none"  d="M 10638,3574 L 10638,3691 L 10488,3691 L 10488,3986 L 10352,3986 L 10352,3691 L 9880,3691 L 9880,3586 L 10397,2847 L 10488,2847 L 10488,3574 L 10638,3574 Z M 10352,3574 L 10352,3021 L 9960,3574 L 10352,3574 Z "  />
<path style="fill:#000000;fill-opacity:1.00;fill-rule:nonzero;stroke:none"  d="M 10024,600 L 10296,468 L 10323,468 L 10323,1410 C 10323,1473 10326,1511 10331,1527 C 10336,1542 10347,1554 10363,1562 C 10380,1570 10413,1575 10464,1576 L 10464,1607 L 10044,1607 L 10044,1576 C 10097,1575 10131,1571 10146,1563 C 10162,1555 10172,1544 10178,1531 C 10184,1517 10187,1477 10187,1410 L 10187,807 C 10187,726 10185,674 10179,651 C 10175,634 10168,621 10158,612 C 10148,604 10136,600 10122,600 C 10101,600 10073,609 10037,626 L 10024,600 Z "  />
<path style="fill:#000000;fill-opacity:1.00;fill-rule:nonzero;stroke:none"  d="M 7373,1533 L 7373,1499 C 7456,1540 7526,1588 7581,1644 C 7659,1724 7720,1818 7763,1926 C 7806,2034 7827,2146 7827,2263 C 7827,2433 7785,2589 7702,2729 C 7618,2869 7508,2969 7373,3030 L 7373,2999 C 7440,2961 7496,2910 7539,2846 C 7583,2781 7615,2699 7637,2599 C 7658,2500 7668,2396 7668,2288 C 7668,2171 7659,2064 7641,1968 C 7627,1892 7610,1831 7590,1786 C 7569,1740 7542,1696 7508,1654 C 7474,1612 7429,1572 7373,1533 "  />
<path style="fill:#000000;fill-opacity:1.00;fill-rule:nonzero;stroke:none"  d="M 5814,2950 L 5814,2914 C 5871,2895 5914,2866 5945,2827 C 5976,2787 5992,2746 5992,2702 C 5992,2692 5989,2683 5984,2676 C 5981,2671 5977,2668 5973,2668 C 5967,2668 5954,2674 5933,2685 C 5924,2690 5913,2692 5902,2692 C 5875,2692 5854,2684 5838,2668 C 5822,2652 5814,2630 5814,2602 C 5814,2575 5824,2552 5845,2533 C 5866,2514 5891,2504 5920,2504 C 5956,2504 5989,2520 6017,2552 C 6045,2583 6059,2625 6059,2677 C 6059,2734 6040,2786 6000,2835 C 5961,2883 5899,2922 5814,2950 "  />
<path style="fill:#000000;fill-opacity:1.00;fill-rule:nonzero;stroke:none"  d="M 4794,2999 L 4794,3030 C 4711,2988 4642,2939 4587,2883 C 4508,2803 4447,2710 4404,2602 C 4361,2493 4340,2381 4340,2265 C 4340,2095 4382,1940 4466,1799 C 4550,1659 4659,1559 4794,1499 L 4794,1533 C 4727,1571 4671,1622 4628,1686 C 4584,1751 4552,1833 4531,1932 C 4509,2032 4499,2135 4499,2244 C 4499,2361 4508,2468 4526,2564 C 4540,2639 4557,2700 4578,2746 C 4598,2792 4625,2836 4660,2878 C 4694,2920 4739,2961 4794,2999 "  />
<path style="fill:#000000;fill-opacity:1.00;fill-rule:nonzero;stroke:none"  d="M 11470,4639 C 11483,4639 11495,4643 11504,4653 C 11514,4662 11518,4674 11518,4687 C 11518,4701 11514,4712 11504,4722 C 11495,4731 11483,4736 11470,4736 C 11456,4736 11445,4731 11435,4722 C 11426,4712 11421,4701 11421,4687 C 11421,4674 11426,4662 11435,4653 C 11445,4643 11456,4639 11470,4639 M 11477,4829 L 11353,5259 C 11331,5335 11301,5391 11262,5425 C 11223,5459 11182,5476 11137,5476 C 11117,5476 11101,5471 11091,5462 C 11081,5453 11075,5441 11075,5429 C 11075,5419 11079,5410 11087,5402 C 11095,5395 11104,5391 11114,5391 C 11124,5391 11132,5394 11139,5400 C 11145,5405 11148,5411 11148,5417 C 11148,5425 11144,5432 11136,5438 C 11131,5442 11129,5445 11129,5447 L 11130,5449 C 11131,5451 11132,5452 11134,5452 C 11136,5453 11139,5453 11143,5453 C 11169,5453 11191,5445 11209,5428 C 11228,5412 11244,5379 11258,5330 L 11366,4961 C 11377,4925 11382,4905 11382,4901 C 11382,4893 11378,4886 11372,4880 C 11365,4874 11356,4871 11345,4871 C 11341,4871 11336,4872 11331,4873 C 11327,4873 11321,4874 11313,4875 L 11313,4859 L 11477,4829 Z "  />
<path style="fill:#000000;fill-opacity:1.00;fill-rule:nonzero;stroke:none"  d="M 11253,3655 C 11267,3655 11278,3660 11287,3669 C 11296,3678 11301,3689 11301,3703 C 11301,3716 11296,3727 11287,3737 C 11278,3746 11266,3751 11253,3751 C 11240,3751 11229,3746 11219,3737 C 11210,3727 11205,3716 11205,3703 C 11205,3689 11210,3678 11219,3669 C 11228,3660 11240,3655 11253,3655 M 11259,3846 L 11164,4182 C 11158,4205 11155,4219 11155,4223 C 11155,4228 11156,4232 11159,4235 C 11162,4239 11166,4240 11170,4240 C 11175,4240 11181,4238 11187,4233 C 11206,4218 11224,4198 11243,4171 L 11259,4182 C 11238,4215 11212,4243 11183,4266 C 11161,4283 11140,4292 11120,4292 C 11107,4292 11096,4288 11088,4280 C 11080,4272 11075,4262 11075,4250 C 11075,4239 11079,4219 11087,4191 L 11150,3976 C 11160,3941 11165,3919 11165,3910 C 11165,3903 11163,3897 11158,3893 C 11153,3888 11146,3886 11137,3886 C 11130,3886 11116,3888 11094,3891 L 11094,3872 L 11259,3846 Z "  />
<path style="fill:#000000;fill-opacity:1.00;fill-rule:nonzero;stroke:none"  d="M 54693,2656 C 54704,2674 54712,2692 54716,2708 C 54720,2724 54724,2756 54728,2803 L 54750,3040 C 54769,3017 54797,2980 54833,2930 C 54851,2906 54873,2873 54898,2831 C 54914,2805 54924,2787 54927,2777 C 54929,2772 54930,2766 54930,2761 C 54930,2758 54929,2755 54927,2752 C 54925,2750 54919,2748 54909,2744 C 54900,2741 54892,2736 54886,2728 C 54879,2720 54876,2710 54876,2700 C 54876,2686 54880,2676 54888,2668 C 54896,2660 54905,2656 54917,2656 C 54931,2656 54943,2662 54953,2673 C 54963,2685 54968,2701 54968,2722 C 54968,2747 54959,2776 54942,2808 C 54924,2841 54891,2891 54842,2958 C 54792,3025 54733,3098 54663,3178 C 54614,3233 54578,3267 54555,3281 C 54532,3296 54512,3303 54495,3303 C 54485,3303 54476,3299 54469,3291 C 54461,3284 54458,3275 54458,3265 C 54458,3253 54463,3241 54473,3231 C 54484,3221 54495,3216 54507,3216 C 54513,3216 54519,3217 54523,3220 C 54525,3222 54528,3226 54531,3234 C 54534,3241 54537,3246 54540,3249 C 54541,3251 54543,3251 54545,3251 C 54547,3251 54551,3250 54556,3247 C 54573,3236 54594,3218 54617,3195 C 54648,3163 54670,3138 54685,3118 L 54658,2813 C 54654,2763 54647,2733 54638,2722 C 54629,2711 54614,2705 54593,2705 C 54586,2705 54574,2706 54557,2708 L 54553,2690 L 54693,2656 Z "  />
<path style="fill:#000000;fill-opacity:1.00;fill-rule:nonzero;stroke:none"  d="M 44255,2656 C 44265,2674 44273,2692 44277,2708 C 44281,2724 44285,2756 44290,2803 L 44311,3040 C 44330,3017 44358,2980 44394,2930 C 44412,2906 44434,2873 44460,2831 C 44475,2805 44485,2787 44488,2777 C 44490,2772 44491,2766 44491,2761 C 44491,2758 44490,2755 44488,2752 C 44486,2750 44480,2748 44470,2744 C 44461,2741 44453,2736 44447,2728 C 44441,2720 44438,2710 44438,2700 C 44438,2686 44441,2676 44449,2668 C 44457,2660 44466,2656 44478,2656 C 44492,2656 44504,2662 44514,2673 C 44524,2685 44529,2701 44529,2722 C 44529,2747 44520,2776 44503,2808 C 44486,2841 44452,2891 44403,2958 C 44354,3025 44294,3098 44224,3178 C 44175,3233 44140,3267 44116,3281 C 44093,3296 44073,3303 44056,3303 C 44046,3303 44038,3299 44030,3291 C 44023,3284 44019,3275 44019,3265 C 44019,3253 44024,3241 44034,3231 C 44045,3221 44056,3216 44068,3216 C 44075,3216 44080,3217 44084,3220 C 44087,3222 44089,3226 44092,3234 C 44096,3241 44098,3246 44101,3249 C 44102,3251 44104,3251 44107,3251 C 44109,3251 44112,3250 44117,3247 C 44134,3236 44155,3218 44178,3195 C 44209,3163 44232,3138 44246,3118 L 44220,2813 C 44215,2763 44208,2733 44199,2722 C 44190,2711 44175,2705 44154,2705 C 44147,2705 44135,2706 44118,2708 L 44114,2690 L 44255,2656 Z "  />
<path style="fill:#000000;fill-opacity:1.00;fill-rule:nonzero;stroke:none"  d="M 32539,2656 C 32555,2673 32567,2689 32575,2706 C 32580,2717 32590,2748 32603,2797 L 32645,2733 C 32657,2718 32670,2703 32686,2689 C 32702,2675 32716,2666 32728,2661 C 32736,2657 32745,2656 32754,2656 C 32768,2656 32779,2660 32787,2667 C 32795,2674 32799,2683 32799,2694 C 32799,2706 32797,2714 32792,2719 C 32783,2727 32773,2731 32761,2731 C 32754,2731 32747,2729 32739,2726 C 32724,2721 32714,2719 32709,2719 C 32701,2719 32692,2723 32682,2732 C 32662,2749 32638,2781 32611,2829 L 32650,2994 C 32656,3019 32661,3034 32665,3039 C 32670,3044 32674,3047 32678,3047 C 32685,3047 32693,3043 32701,3036 C 32719,3021 32734,3002 32747,2978 L 32763,2987 C 32743,3025 32718,3056 32687,3081 C 32669,3095 32654,3102 32642,3102 C 32624,3102 32610,3092 32599,3072 C 32592,3059 32579,3005 32557,2910 C 32507,2997 32467,3053 32437,3078 C 32418,3094 32399,3102 32381,3102 C 32368,3102 32356,3097 32346,3088 C 32338,3081 32334,3072 32334,3060 C 32334,3049 32338,3040 32345,3033 C 32352,3026 32360,3023 32371,3023 C 32381,3023 32392,3028 32403,3038 C 32412,3045 32418,3049 32422,3049 C 32426,3049 32431,3047 32437,3041 C 32452,3029 32473,3003 32499,2963 C 32525,2922 32542,2893 32550,2875 C 32530,2798 32519,2756 32518,2752 C 32510,2731 32501,2716 32489,2708 C 32477,2699 32459,2695 32436,2695 C 32429,2695 32421,2695 32411,2696 L 32411,2678 L 32539,2656 Z "  />
<path style="fill:#000000;fill-opacity:1.00;fill-rule:nonzero;stroke:none"  d="M 22162,2656 C 22178,2673 22190,2689 22198,2706 C 22203,2717 22213,2748 22226,2797 L 22268,2733 C 22279,2718 22293,2703 22309,2689 C 22325,2675 22339,2666 22351,2661 C 22359,2657 22367,2656 22377,2656 C 22390,2656 22401,2660 22410,2667 C 22418,2674 22422,2683 22422,2694 C 22422,2706 22419,2714 22415,2719 C 22406,2727 22395,2731 22384,2731 C 22377,2731 22370,2729 22362,2726 C 22347,2721 22337,2719 22332,2719 C 22324,2719 22315,2723 22305,2732 C 22285,2749 22261,2781 22234,2829 L 22273,2994 C 22279,3019 22284,3034 22288,3039 C 22292,3044 22297,3047 22301,3047 C 22308,3047 22315,3043 22324,3036 C 22342,3021 22357,3002 22369,2978 L 22386,2987 C 22366,3025 22340,3056 22309,3081 C 22292,3095 22277,3102 22265,3102 C 22247,3102 22233,3092 22222,3072 C 22215,3059 22201,3005 22180,2910 C 22130,2997 22090,3053 22060,3078 C 22041,3094 22022,3102 22004,3102 C 21991,3102 21979,3097 21968,3088 C 21961,3081 21957,3072 21957,3060 C 21957,3049 21960,3040 21968,3033 C 21975,3026 21983,3023 21993,3023 C 22004,3023 22015,3028 22026,3038 C 22034,3045 22041,3049 22045,3049 C 22049,3049 22054,3047 22060,3041 C 22075,3029 22096,3003 22122,2963 C 22148,2922 22165,2893 22173,2875 C 22153,2798 22142,2756 22140,2752 C 22133,2731 22123,2716 22112,2708 C 22100,2699 22082,2695 22059,2695 C 22052,2695 22043,2695 22034,2696 L 22034,2678 L 22162,2656 Z "  />
<path style="fill:#000000;fill-opacity:1.00;fill-rule:nonzero;stroke:none"  d="M 53199,1924 C 53217,1956 53230,1986 53237,2013 C 53244,2041 53251,2096 53259,2177 L 53295,2582 C 53328,2542 53375,2480 53438,2394 C 53468,2352 53506,2296 53550,2224 C 53577,2180 53593,2149 53599,2132 C 53603,2123 53604,2114 53604,2104 C 53604,2098 53602,2093 53599,2090 C 53595,2086 53585,2081 53568,2076 C 53552,2071 53539,2061 53528,2047 C 53517,2033 53512,2017 53512,1999 C 53512,1977 53519,1958 53532,1945 C 53545,1931 53561,1924 53581,1924 C 53605,1924 53626,1934 53643,1954 C 53660,1974 53668,2002 53668,2037 C 53668,2080 53654,2130 53624,2185 C 53594,2241 53537,2327 53453,2442 C 53368,2557 53266,2683 53146,2819 C 53063,2913 53002,2972 52961,2996 C 52921,3021 52887,3033 52859,3033 C 52842,3033 52827,3026 52814,3014 C 52801,3001 52794,2986 52794,2969 C 52794,2947 52803,2928 52821,2910 C 52839,2893 52858,2884 52879,2884 C 52890,2884 52899,2886 52906,2891 C 52911,2894 52916,2902 52921,2915 C 52926,2928 52931,2936 52935,2941 C 52938,2943 52941,2945 52945,2945 C 52948,2945 52954,2942 52962,2937 C 52992,2918 53028,2888 53068,2848 C 53120,2794 53159,2750 53185,2716 L 53138,2194 C 53131,2108 53119,2056 53104,2037 C 53089,2018 53063,2009 53026,2009 C 53015,2009 52994,2011 52965,2014 L 52957,1983 L 53199,1924 Z "  />
<path style="fill:#000000;fill-opacity:1.00;fill-rule:nonzero;stroke:none"  d="M 51663,1924 C 51690,1953 51710,1981 51724,2010 C 51734,2030 51750,2081 51772,2165 L 51845,2057 C 51864,2030 51887,2005 51915,1981 C 51942,1958 51966,1941 51987,1932 C 52000,1927 52015,1924 52031,1924 C 52055,1924 52073,1930 52087,1943 C 52101,1956 52108,1971 52108,1989 C 52108,2010 52104,2024 52096,2032 C 52081,2046 52063,2053 52043,2053 C 52032,2053 52019,2050 52006,2045 C 51980,2036 51963,2032 51954,2032 C 51941,2032 51926,2040 51907,2055 C 51873,2084 51833,2139 51786,2220 L 51853,2504 C 51864,2547 51872,2573 51879,2581 C 51887,2590 51894,2594 51901,2594 C 51912,2594 51926,2588 51941,2575 C 51971,2550 51997,2517 52019,2476 L 52047,2491 C 52013,2556 51969,2610 51916,2653 C 51886,2677 51860,2689 51839,2689 C 51808,2689 51784,2672 51766,2637 C 51754,2616 51730,2523 51694,2360 C 51609,2509 51540,2605 51489,2648 C 51455,2675 51423,2689 51391,2689 C 51369,2689 51349,2681 51331,2665 C 51318,2653 51312,2637 51312,2616 C 51312,2598 51318,2583 51330,2571 C 51342,2559 51357,2553 51374,2553 C 51392,2553 51410,2562 51430,2579 C 51444,2592 51455,2598 51463,2598 C 51470,2598 51478,2594 51489,2585 C 51514,2564 51549,2519 51594,2450 C 51638,2381 51667,2331 51681,2300 C 51647,2167 51629,2096 51626,2089 C 51613,2053 51597,2028 51577,2013 C 51556,1998 51526,1991 51487,1991 C 51474,1991 51460,1991 51443,1992 L 51443,1963 L 51663,1924 Z "  />
<path style="fill:#000000;fill-opacity:1.00;fill-rule:nonzero;stroke:none"  d="M 46414,1975 L 46652,1924 C 46669,1965 46683,2006 46693,2048 C 46708,2110 46720,2184 46730,2269 C 46734,2312 46740,2402 46748,2541 C 46816,2465 46857,2418 46870,2400 C 46943,2302 46984,2244 46995,2227 C 47014,2198 47026,2172 47033,2151 C 47039,2134 47042,2118 47042,2104 C 47042,2089 47030,2073 47004,2054 C 46979,2036 46966,2015 46966,1992 C 46966,1974 46973,1958 46987,1945 C 47001,1931 47017,1924 47037,1924 C 47060,1924 47080,1934 47098,1953 C 47115,1971 47124,1995 47124,2023 C 47124,2051 47119,2078 47111,2104 C 47096,2145 47070,2196 47031,2256 C 46992,2316 46929,2397 46842,2498 C 46831,2510 46770,2574 46660,2689 L 46629,2689 C 46616,2341 46589,2125 46547,2039 C 46533,2011 46510,1997 46479,1997 C 46465,1997 46445,1999 46420,2004 L 46414,1975 Z M 47327,2359 C 47323,2386 47321,2409 47321,2427 C 47321,2476 47339,2517 47373,2552 C 47408,2586 47450,2603 47499,2603 C 47539,2603 47577,2595 47613,2579 C 47650,2563 47704,2527 47776,2472 L 47793,2495 C 47663,2624 47539,2689 47421,2689 C 47341,2689 47281,2664 47240,2613 C 47199,2563 47179,2507 47179,2446 C 47179,2364 47204,2281 47255,2195 C 47305,2109 47369,2043 47445,1995 C 47521,1948 47600,1924 47680,1924 C 47738,1924 47782,1936 47809,1960 C 47837,1983 47851,2011 47851,2044 C 47851,2089 47833,2133 47797,2174 C 47749,2229 47679,2273 47586,2306 C 47525,2329 47439,2346 47327,2359 M 47333,2318 C 47414,2309 47480,2293 47531,2271 C 47599,2240 47649,2204 47683,2162 C 47717,2120 47734,2081 47734,2043 C 47734,2020 47727,2001 47712,1987 C 47697,1972 47677,1965 47650,1965 C 47594,1965 47534,1995 47472,2055 C 47409,2114 47363,2202 47333,2318 M 48526,2490 C 48469,2558 48411,2609 48353,2641 C 48295,2673 48233,2689 48168,2689 C 48090,2689 48030,2667 47986,2623 C 47942,2579 47921,2520 47921,2446 C 47921,2362 47944,2279 47991,2198 C 48038,2117 48101,2051 48180,2000 C 48260,1950 48337,1924 48414,1924 C 48473,1924 48518,1937 48548,1962 C 48577,1987 48592,2017 48592,2053 C 48592,2087 48582,2116 48561,2141 C 48546,2159 48527,2169 48504,2169 C 48487,2169 48473,2163 48462,2152 C 48451,2141 48445,2127 48445,2111 C 48445,2101 48447,2091 48451,2082 C 48455,2073 48464,2063 48477,2051 C 48490,2038 48497,2029 48500,2024 C 48503,2018 48504,2013 48504,2006 C 48504,1995 48499,1985 48489,1978 C 48473,1967 48450,1961 48421,1961 C 48367,1961 48314,1980 48261,2018 C 48209,2056 48164,2110 48126,2179 C 48081,2264 48059,2348 48059,2433 C 48059,2489 48075,2533 48107,2566 C 48138,2598 48182,2615 48237,2615 C 48279,2615 48321,2604 48362,2583 C 48404,2562 48450,2524 48502,2468 L 48526,2490 Z M 49061,1720 L 48996,1944 L 49126,1944 L 49112,1996 L 48983,1996 L 48842,2481 C 48826,2534 48819,2567 48819,2583 C 48819,2592 48821,2599 48825,2604 C 48830,2609 48835,2611 48841,2611 C 48855,2611 48873,2602 48895,2583 C 48908,2572 48938,2538 48983,2481 L 49010,2502 C 48960,2575 48912,2627 48867,2658 C 48836,2678 48805,2689 48774,2689 C 48750,2689 48730,2681 48715,2666 C 48700,2651 48692,2632 48692,2608 C 48692,2579 48701,2533 48718,2472 L 48856,1996 L 48731,1996 L 48740,1964 C 48800,1947 48850,1923 48890,1890 C 48930,1857 48975,1801 49024,1720 L 49061,1720 Z M 49871,2182 C 49871,2264 49849,2346 49805,2426 C 49761,2507 49701,2571 49623,2618 C 49545,2665 49469,2689 49396,2689 C 49320,2689 49259,2665 49212,2617 C 49164,2569 49140,2507 49140,2430 C 49140,2350 49164,2269 49210,2188 C 49256,2106 49318,2042 49396,1995 C 49474,1948 49549,1924 49621,1924 C 49694,1924 49753,1948 49800,1996 C 49847,2044 49871,2106 49871,2182 M 49734,2125 C 49734,2074 49721,2035 49696,2008 C 49671,1981 49639,1967 49600,1967 C 49519,1967 49445,2025 49377,2140 C 49309,2256 49275,2371 49275,2485 C 49275,2537 49289,2577 49315,2605 C 49341,2634 49375,2648 49415,2648 C 49492,2648 49564,2590 49632,2475 C 49700,2360 49734,2244 49734,2125 M 50022,1970 L 50306,1924 L 50187,2324 C 50283,2160 50371,2045 50449,1980 C 50494,1943 50530,1924 50558,1924 C 50576,1924 50590,1930 50601,1940 C 50611,1951 50616,1966 50616,1987 C 50616,2023 50607,2058 50588,2090 C 50575,2115 50556,2127 50531,2127 C 50519,2127 50508,2123 50499,2115 C 50490,2107 50484,2094 50482,2077 C 50481,2067 50479,2060 50475,2057 C 50470,2052 50465,2050 50459,2050 C 50450,2050 50441,2052 50433,2057 C 50418,2064 50397,2086 50368,2121 C 50322,2175 50273,2244 50220,2330 C 50197,2366 50177,2407 50160,2453 C 50137,2515 50124,2553 50121,2565 L 50094,2669 L 49969,2669 L 50121,2158 C 50138,2099 50147,2056 50147,2031 C 50147,2021 50143,2013 50135,2006 C 50124,1998 50109,1993 50091,1993 C 50080,1993 50059,1996 50028,2001 L 50022,1970 Z "  />
<path style="fill:#000000;fill-opacity:1.00;fill-rule:nonzero;stroke:none"  d="M 43141,1598 C 43164,1598 43183,1606 43200,1623 C 43216,1639 43224,1658 43224,1681 C 43224,1704 43216,1724 43200,1740 C 43183,1756 43164,1764 43141,1764 C 43118,1764 43098,1756 43082,1740 C 43066,1724 43058,1704 43058,1681 C 43058,1658 43066,1639 43082,1623 C 43098,1606 43118,1598 43141,1598 M 43154,1924 L 42941,2661 C 42903,2793 42851,2887 42785,2946 C 42719,3004 42647,3033 42570,3033 C 42536,3033 42510,3025 42492,3009 C 42474,2993 42465,2974 42465,2952 C 42465,2935 42472,2920 42485,2907 C 42499,2894 42514,2888 42532,2888 C 42548,2888 42562,2893 42574,2904 C 42584,2912 42588,2921 42588,2932 C 42588,2946 42582,2958 42568,2969 C 42560,2975 42556,2980 42556,2983 L 42558,2988 C 42560,2990 42562,2991 42565,2993 C 42569,2994 42574,2994 42580,2994 C 42625,2994 42663,2980 42694,2952 C 42726,2924 42754,2867 42779,2783 L 42963,2151 C 42981,2089 42990,2054 42990,2048 C 42990,2034 42984,2023 42972,2012 C 42961,2002 42946,1997 42928,1997 C 42920,1997 42912,1997 42903,1999 C 42896,2000 42885,2002 42872,2004 L 42872,1975 L 43154,1924 Z "  />
<path style="fill:#000000;fill-opacity:1.00;fill-rule:nonzero;stroke:none"  d="M 41679,1597 C 41702,1597 41721,1605 41737,1621 C 41753,1637 41761,1657 41761,1680 C 41761,1702 41753,1722 41737,1738 C 41721,1754 41701,1762 41679,1762 C 41656,1762 41637,1754 41621,1738 C 41605,1722 41596,1702 41596,1680 C 41596,1657 41604,1637 41620,1621 C 41636,1605 41656,1597 41679,1597 M 41689,1924 L 41527,2501 C 41516,2540 41510,2563 41510,2571 C 41510,2580 41513,2587 41518,2593 C 41523,2598 41529,2601 41536,2601 C 41545,2601 41555,2596 41566,2588 C 41597,2563 41629,2528 41661,2482 L 41689,2501 C 41652,2558 41608,2606 41558,2645 C 41520,2674 41485,2689 41451,2689 C 41428,2689 41410,2682 41396,2669 C 41381,2655 41374,2638 41374,2618 C 41374,2598 41381,2564 41395,2517 L 41502,2148 C 41519,2088 41528,2050 41528,2034 C 41528,2022 41524,2013 41515,2005 C 41507,1997 41495,1993 41480,1993 C 41468,1993 41443,1996 41406,2002 L 41406,1970 L 41689,1924 Z "  />
<path style="fill:#000000;fill-opacity:1.00;fill-rule:nonzero;stroke:none"  d="M 36477,1975 L 36715,1924 C 36732,1965 36746,2006 36756,2048 C 36771,2110 36783,2184 36793,2269 C 36797,2312 36803,2402 36811,2541 C 36879,2465 36920,2418 36933,2400 C 37006,2302 37048,2244 37059,2227 C 37077,2198 37089,2172 37096,2151 C 37102,2134 37105,2118 37105,2104 C 37105,2089 37093,2073 37067,2054 C 37042,2036 37029,2015 37029,1992 C 37029,1974 37036,1958 37050,1945 C 37064,1931 37080,1924 37100,1924 C 37123,1924 37143,1934 37161,1953 C 37178,1971 37187,1995 37187,2023 C 37187,2051 37183,2078 37174,2104 C 37159,2145 37133,2196 37094,2256 C 37055,2316 36992,2397 36905,2498 C 36894,2510 36834,2574 36723,2689 L 36692,2689 C 36679,2341 36652,2125 36610,2039 C 36596,2011 36573,1997 36542,1997 C 36528,1997 36508,1999 36483,2004 L 36477,1975 Z M 37390,2359 C 37386,2386 37384,2409 37384,2427 C 37384,2476 37402,2517 37436,2552 C 37471,2586 37513,2603 37562,2603 C 37602,2603 37640,2595 37676,2579 C 37713,2563 37767,2527 37839,2472 L 37856,2495 C 37726,2624 37602,2689 37484,2689 C 37404,2689 37344,2664 37303,2613 C 37262,2563 37242,2507 37242,2446 C 37242,2364 37267,2281 37318,2195 C 37368,2109 37432,2043 37508,1995 C 37584,1948 37663,1924 37743,1924 C 37802,1924 37845,1936 37873,1960 C 37901,1983 37915,2011 37915,2044 C 37915,2089 37896,2133 37860,2174 C 37812,2229 37742,2273 37650,2306 C 37588,2329 37502,2346 37390,2359 M 37396,2318 C 37477,2309 37543,2293 37594,2271 C 37662,2240 37712,2204 37746,2162 C 37780,2120 37797,2081 37797,2043 C 37797,2020 37790,2001 37775,1987 C 37761,1972 37740,1965 37713,1965 C 37657,1965 37598,1995 37535,2055 C 37472,2114 37426,2202 37396,2318 M 38589,2490 C 38532,2558 38474,2609 38416,2641 C 38358,2673 38296,2689 38231,2689 C 38154,2689 38093,2667 38049,2623 C 38006,2579 37984,2520 37984,2446 C 37984,2362 38007,2279 38054,2198 C 38101,2117 38164,2051 38243,2000 C 38323,1950 38400,1924 38477,1924 C 38537,1924 38581,1937 38611,1962 C 38641,1987 38655,2017 38655,2053 C 38655,2087 38645,2116 38624,2141 C 38609,2159 38590,2169 38567,2169 C 38550,2169 38536,2163 38525,2152 C 38514,2141 38508,2127 38508,2111 C 38508,2101 38510,2091 38514,2082 C 38518,2073 38527,2063 38540,2051 C 38553,2038 38560,2029 38563,2024 C 38566,2018 38567,2013 38567,2006 C 38567,1995 38562,1985 38552,1978 C 38536,1967 38513,1961 38484,1961 C 38430,1961 38377,1980 38324,2018 C 38272,2056 38227,2110 38189,2179 C 38144,2264 38122,2348 38122,2433 C 38122,2489 38138,2533 38170,2566 C 38202,2598 38245,2615 38300,2615 C 38342,2615 38384,2604 38425,2583 C 38467,2562 38513,2524 38565,2468 L 38589,2490 Z M 39124,1720 L 39060,1944 L 39189,1944 L 39175,1996 L 39046,1996 L 38905,2481 C 38889,2534 38882,2567 38882,2583 C 38882,2592 38884,2599 38888,2604 C 38893,2609 38898,2611 38904,2611 C 38918,2611 38936,2602 38958,2583 C 38971,2572 39001,2538 39046,2481 L 39073,2502 C 39023,2575 38975,2627 38930,2658 C 38900,2678 38869,2689 38837,2689 C 38813,2689 38793,2681 38778,2666 C 38763,2651 38755,2632 38755,2608 C 38755,2579 38764,2533 38781,2472 L 38919,1996 L 38794,1996 L 38803,1964 C 38863,1947 38913,1923 38953,1890 C 38993,1857 39038,1801 39087,1720 L 39124,1720 Z M 39934,2182 C 39934,2264 39912,2346 39868,2426 C 39825,2507 39764,2571 39686,2618 C 39608,2665 39532,2689 39459,2689 C 39384,2689 39322,2665 39275,2617 C 39227,2569 39204,2507 39204,2430 C 39204,2350 39227,2269 39273,2188 C 39319,2106 39381,2042 39459,1995 C 39537,1948 39612,1924 39684,1924 C 39757,1924 39816,1948 39863,1996 C 39910,2044 39934,2106 39934,2182 M 39797,2125 C 39797,2074 39785,2035 39760,2008 C 39735,1981 39702,1967 39663,1967 C 39582,1967 39508,2025 39440,2140 C 39372,2256 39339,2371 39339,2485 C 39339,2537 39352,2577 39378,2605 C 39404,2634 39438,2648 39478,2648 C 39555,2648 39628,2590 39695,2475 C 39763,2360 39797,2244 39797,2125 M 40085,1970 L 40369,1924 L 40251,2324 C 40347,2160 40434,2045 40512,1980 C 40557,1943 40593,1924 40621,1924 C 40639,1924 40653,1930 40664,1940 C 40674,1951 40679,1966 40679,1987 C 40679,2023 40670,2058 40651,2090 C 40638,2115 40619,2127 40595,2127 C 40582,2127 40571,2123 40562,2115 C 40553,2107 40547,2094 40545,2077 C 40544,2067 40542,2060 40538,2057 C 40533,2052 40528,2050 40522,2050 C 40513,2050 40504,2052 40496,2057 C 40482,2064 40460,2086 40431,2121 C 40385,2175 40336,2244 40283,2330 C 40260,2366 40240,2407 40223,2453 C 40200,2515 40187,2553 40184,2565 L 40158,2669 L 40032,2669 L 40184,2158 C 40201,2099 40210,2056 40210,2031 C 40210,2021 40206,2013 40198,2006 C 40187,1998 40172,1993 40154,1993 C 40143,1993 40122,1996 40091,2001 L 40085,1970 Z "  />
<path style="fill:#000000;fill-opacity:1.00;fill-rule:nonzero;stroke:none"  d="M 31075,1924 C 31094,1956 31106,1986 31114,2013 C 31121,2041 31128,2096 31135,2177 L 31171,2582 C 31204,2542 31252,2480 31314,2394 C 31345,2352 31382,2296 31426,2224 C 31453,2180 31470,2149 31476,2132 C 31479,2123 31481,2114 31481,2104 C 31481,2098 31479,2093 31475,2090 C 31471,2086 31461,2081 31445,2076 C 31429,2071 31415,2061 31405,2047 C 31394,2033 31388,2017 31388,1999 C 31388,1977 31395,1958 31408,1945 C 31421,1931 31438,1924 31458,1924 C 31482,1924 31502,1934 31519,1954 C 31536,1974 31545,2002 31545,2037 C 31545,2080 31530,2130 31500,2185 C 31471,2241 31414,2327 31329,2442 C 31245,2557 31142,2683 31022,2819 C 30939,2913 30878,2972 30838,2996 C 30798,3021 30764,3033 30735,3033 C 30718,3033 30703,3026 30690,3014 C 30677,3001 30671,2986 30671,2969 C 30671,2947 30680,2928 30698,2910 C 30715,2893 30735,2884 30756,2884 C 30767,2884 30776,2886 30783,2891 C 30787,2894 30792,2902 30797,2915 C 30802,2928 30807,2936 30812,2941 C 30814,2943 30818,2945 30821,2945 C 30825,2945 30830,2942 30839,2937 C 30869,2918 30904,2888 30944,2848 C 30997,2794 31036,2750 31061,2716 L 31015,2194 C 31007,2108 30996,2056 30980,2037 C 30965,2018 30939,2009 30903,2009 C 30891,2009 30871,2011 30841,2014 L 30834,1983 L 31075,1924 Z "  />
<path style="fill:#000000;fill-opacity:1.00;fill-rule:nonzero;stroke:none"  d="M 29539,1924 C 29566,1953 29587,1981 29600,2010 C 29610,2030 29626,2081 29649,2165 L 29721,2057 C 29740,2030 29764,2005 29791,1981 C 29819,1958 29843,1941 29864,1932 C 29877,1927 29891,1924 29907,1924 C 29931,1924 29950,1930 29964,1943 C 29978,1956 29985,1971 29985,1989 C 29985,2010 29981,2024 29972,2032 C 29957,2046 29939,2053 29920,2053 C 29908,2053 29896,2050 29883,2045 C 29857,2036 29840,2032 29831,2032 C 29818,2032 29802,2040 29784,2055 C 29750,2084 29709,2139 29662,2220 L 29730,2504 C 29740,2547 29749,2573 29756,2581 C 29763,2590 29770,2594 29777,2594 C 29789,2594 29802,2588 29818,2575 C 29848,2550 29874,2517 29895,2476 L 29924,2491 C 29889,2556 29845,2610 29792,2653 C 29762,2677 29736,2689 29716,2689 C 29685,2689 29660,2672 29642,2637 C 29631,2616 29607,2523 29571,2360 C 29485,2509 29416,2605 29365,2648 C 29331,2675 29299,2689 29268,2689 C 29246,2689 29226,2681 29208,2665 C 29195,2653 29188,2637 29188,2616 C 29188,2598 29194,2583 29206,2571 C 29218,2559 29233,2553 29250,2553 C 29268,2553 29287,2562 29306,2579 C 29321,2592 29332,2598 29339,2598 C 29346,2598 29354,2594 29365,2585 C 29391,2564 29426,2519 29470,2450 C 29515,2381 29544,2331 29558,2300 C 29523,2167 29505,2096 29502,2089 C 29490,2053 29473,2028 29453,2013 C 29433,1998 29403,1991 29363,1991 C 29351,1991 29336,1991 29320,1992 L 29320,1963 L 29539,1924 Z "  />
<path style="fill:#000000;fill-opacity:1.00;fill-rule:nonzero;stroke:none"  d="M 24291,1975 L 24529,1924 C 24546,1965 24559,2006 24570,2048 C 24585,2110 24597,2184 24606,2269 C 24610,2312 24616,2402 24624,2541 C 24693,2465 24734,2418 24747,2400 C 24819,2302 24861,2244 24872,2227 C 24890,2198 24903,2172 24910,2151 C 24916,2134 24919,2118 24919,2104 C 24919,2089 24906,2073 24880,2054 C 24855,2036 24842,2015 24842,1992 C 24842,1974 24849,1958 24863,1945 C 24877,1931 24894,1924 24913,1924 C 24936,1924 24956,1934 24974,1953 C 24991,1971 25000,1995 25000,2023 C 25000,2051 24996,2078 24987,2104 C 24973,2145 24946,2196 24907,2256 C 24868,2316 24805,2397 24719,2498 C 24708,2510 24647,2574 24536,2689 L 24506,2689 C 24492,2341 24465,2125 24423,2039 C 24410,2011 24387,1997 24355,1997 C 24341,1997 24322,1999 24297,2004 L 24291,1975 Z M 25204,2359 C 25200,2386 25198,2409 25198,2427 C 25198,2476 25215,2517 25250,2552 C 25284,2586 25326,2603 25376,2603 C 25415,2603 25453,2595 25490,2579 C 25526,2563 25580,2527 25652,2472 L 25669,2495 C 25539,2624 25415,2689 25297,2689 C 25217,2689 25157,2664 25116,2613 C 25076,2563 25055,2507 25055,2446 C 25055,2364 25081,2281 25131,2195 C 25182,2109 25245,2043 25321,1995 C 25398,1948 25476,1924 25557,1924 C 25615,1924 25658,1936 25686,1960 C 25714,1983 25728,2011 25728,2044 C 25728,2089 25710,2133 25674,2174 C 25626,2229 25556,2273 25463,2306 C 25401,2329 25315,2346 25204,2359 M 25209,2318 C 25291,2309 25357,2293 25408,2271 C 25475,2240 25526,2204 25560,2162 C 25593,2120 25610,2081 25610,2043 C 25610,2020 25603,2001 25588,1987 C 25574,1972 25553,1965 25526,1965 C 25470,1965 25411,1995 25348,2055 C 25285,2114 25239,2202 25209,2318 M 26402,2490 C 26345,2558 26287,2609 26229,2641 C 26171,2673 26110,2689 26045,2689 C 25967,2689 25906,2667 25862,2623 C 25819,2579 25797,2520 25797,2446 C 25797,2362 25820,2279 25867,2198 C 25914,2117 25977,2051 26057,2000 C 26136,1950 26214,1924 26290,1924 C 26350,1924 26395,1937 26424,1962 C 26454,1987 26469,2017 26469,2053 C 26469,2087 26458,2116 26437,2141 C 26422,2159 26403,2169 26381,2169 C 26364,2169 26349,2163 26338,2152 C 26327,2141 26321,2127 26321,2111 C 26321,2101 26323,2091 26327,2082 C 26332,2073 26340,2063 26353,2051 C 26366,2038 26374,2029 26376,2024 C 26379,2018 26381,2013 26381,2006 C 26381,1995 26375,1985 26365,1978 C 26349,1967 26327,1961 26297,1961 C 26244,1961 26190,1980 26138,2018 C 26085,2056 26040,2110 26003,2179 C 25958,2264 25935,2348 25935,2433 C 25935,2489 25951,2533 25983,2566 C 26015,2598 26058,2615 26113,2615 C 26155,2615 26197,2604 26239,2583 C 26280,2562 26327,2524 26378,2468 L 26402,2490 Z M 26937,1720 L 26873,1944 L 27002,1944 L 26988,1996 L 26860,1996 L 26718,2481 C 26703,2534 26695,2567 26695,2583 C 26695,2592 26697,2599 26702,2604 C 26706,2609 26711,2611 26717,2611 C 26731,2611 26749,2602 26772,2583 C 26785,2572 26814,2538 26860,2481 L 26887,2502 C 26836,2575 26789,2627 26744,2658 C 26713,2678 26682,2689 26651,2689 C 26626,2689 26607,2681 26591,2666 C 26576,2651 26568,2632 26568,2608 C 26568,2579 26577,2533 26595,2472 L 26732,1996 L 26608,1996 L 26616,1964 C 26676,1947 26727,1923 26767,1890 C 26807,1857 26851,1801 26901,1720 L 26937,1720 Z M 27747,2182 C 27747,2264 27725,2346 27681,2426 C 27638,2507 27577,2571 27499,2618 C 27421,2665 27346,2689 27272,2689 C 27197,2689 27136,2665 27088,2617 C 27041,2569 27017,2507 27017,2430 C 27017,2350 27040,2269 27086,2188 C 27133,2106 27195,2042 27272,1995 C 27350,1948 27425,1924 27498,1924 C 27570,1924 27630,1948 27677,1996 C 27723,2044 27747,2106 27747,2182 M 27610,2125 C 27610,2074 27598,2035 27573,2008 C 27548,1981 27516,1967 27476,1967 C 27395,1967 27321,2025 27253,2140 C 27186,2256 27152,2371 27152,2485 C 27152,2537 27165,2577 27191,2605 C 27218,2634 27251,2648 27291,2648 C 27368,2648 27441,2590 27509,2475 C 27576,2360 27610,2244 27610,2125 M 27898,1970 L 28182,1924 L 28064,2324 C 28160,2160 28247,2045 28326,1980 C 28370,1943 28406,1924 28434,1924 C 28452,1924 28467,1930 28477,1940 C 28487,1951 28493,1966 28493,1987 C 28493,2023 28483,2058 28465,2090 C 28452,2115 28433,2127 28408,2127 C 28395,2127 28384,2123 28375,2115 C 28366,2107 28361,2094 28358,2077 C 28357,2067 28355,2060 28351,2057 C 28347,2052 28341,2050 28335,2050 C 28326,2050 28317,2052 28309,2057 C 28295,2064 28273,2086 28244,2121 C 28199,2175 28149,2244 28096,2330 C 28073,2366 28053,2407 28037,2453 C 28014,2515 28000,2553 27997,2565 L 27971,2669 L 27845,2669 L 27997,2158 C 28015,2099 28024,2056 28024,2031 C 28024,2021 28019,2013 28011,2006 C 28000,1998 27986,1993 27968,1993 C 27956,1993 27935,1996 27904,2001 L 27898,1970 Z "  />
<path style="fill:#000000;fill-opacity:1.00;fill-rule:nonzero;stroke:none"  d="M 21079,1598 C 21102,1598 21121,1606 21138,1623 C 21154,1639 21162,1658 21162,1681 C 21162,1704 21154,1724 21138,1740 C 21121,1756 21102,1764 21079,1764 C 21056,1764 21036,1756 21020,1740 C 21004,1724 20996,1704 20996,1681 C 20996,1658 21004,1639 21020,1623 C 21036,1606 21056,1598 21079,1598 M 21092,1924 L 20879,2661 C 20841,2793 20789,2887 20723,2946 C 20657,3004 20585,3033 20508,3033 C 20474,3033 20448,3025 20430,3009 C 20412,2993 20403,2974 20403,2952 C 20403,2935 20410,2920 20423,2907 C 20437,2894 20452,2888 20470,2888 C 20486,2888 20500,2893 20512,2904 C 20522,2912 20526,2921 20526,2932 C 20526,2946 20520,2958 20506,2969 C 20498,2975 20494,2980 20494,2983 L 20496,2988 C 20498,2990 20500,2991 20503,2993 C 20507,2994 20512,2994 20518,2994 C 20563,2994 20601,2980 20632,2952 C 20664,2924 20692,2867 20717,2783 L 20901,2151 C 20919,2089 20928,2054 20928,2048 C 20928,2034 20922,2023 20910,2012 C 20899,2002 20884,1997 20866,1997 C 20858,1997 20850,1997 20841,1999 C 20834,2000 20823,2002 20810,2004 L 20810,1975 L 21092,1924 Z "  />
<path style="fill:#000000;fill-opacity:1.00;fill-rule:nonzero;stroke:none"  d="M 19617,1597 C 19640,1597 19659,1605 19675,1621 C 19691,1637 19699,1657 19699,1680 C 19699,1702 19691,1722 19675,1738 C 19659,1754 19639,1762 19617,1762 C 19594,1762 19575,1754 19559,1738 C 19543,1722 19535,1702 19535,1680 C 19535,1657 19542,1637 19558,1621 C 19574,1605 19594,1597 19617,1597 M 19628,1924 L 19465,2501 C 19454,2540 19448,2563 19448,2571 C 19448,2580 19451,2587 19456,2593 C 19461,2598 19467,2601 19474,2601 C 19483,2601 19493,2596 19504,2588 C 19535,2563 19567,2528 19599,2482 L 19628,2501 C 19590,2558 19546,2606 19496,2645 C 19459,2674 19423,2689 19389,2689 C 19366,2689 19348,2682 19334,2669 C 19319,2655 19312,2638 19312,2618 C 19312,2598 19319,2564 19333,2517 L 19440,2148 C 19457,2088 19466,2050 19466,2034 C 19466,2022 19462,2013 19453,2005 C 19445,1997 19433,1993 19418,1993 C 19406,1993 19381,1996 19344,2002 L 19344,1970 L 19628,1924 Z "  />
<path style="fill:#000000;fill-opacity:1.00;fill-rule:nonzero;stroke:none"  d="M 14415,1975 L 14653,1924 C 14670,1965 14684,2006 14694,2048 C 14709,2110 14721,2184 14731,2269 C 14735,2312 14741,2402 14749,2541 C 14817,2465 14858,2418 14871,2400 C 14944,2302 14986,2244 14997,2227 C 15015,2198 15027,2172 15034,2151 C 15040,2134 15043,2118 15043,2104 C 15043,2089 15031,2073 15005,2054 C 14980,2036 14967,2015 14967,1992 C 14967,1974 14974,1958 14988,1945 C 15002,1931 15019,1924 15038,1924 C 15061,1924 15081,1934 15099,1953 C 15116,1971 15125,1995 15125,2023 C 15125,2051 15121,2078 15112,2104 C 15098,2145 15071,2196 15032,2256 C 14993,2316 14930,2397 14843,2498 C 14832,2510 14772,2574 14661,2689 L 14630,2689 C 14617,2341 14590,2125 14548,2039 C 14534,2011 14511,1997 14480,1997 C 14466,1997 14446,1999 14421,2004 L 14415,1975 Z M 15328,2359 C 15324,2386 15323,2409 15323,2427 C 15323,2476 15340,2517 15374,2552 C 15409,2586 15451,2603 15500,2603 C 15540,2603 15578,2595 15614,2579 C 15651,2563 15705,2527 15777,2472 L 15794,2495 C 15664,2624 15540,2689 15422,2689 C 15342,2689 15282,2664 15241,2613 C 15200,2563 15180,2507 15180,2446 C 15180,2364 15205,2281 15256,2195 C 15306,2109 15370,2043 15446,1995 C 15522,1948 15601,1924 15681,1924 C 15740,1924 15783,1936 15811,1960 C 15839,1983 15853,2011 15853,2044 C 15853,2089 15834,2133 15798,2174 C 15751,2229 15680,2273 15588,2306 C 15526,2329 15440,2346 15328,2359 M 15334,2318 C 15415,2309 15481,2293 15532,2271 C 15600,2240 15651,2204 15684,2162 C 15718,2120 15735,2081 15735,2043 C 15735,2020 15728,2001 15713,1987 C 15699,1972 15678,1965 15651,1965 C 15595,1965 15536,1995 15473,2055 C 15410,2114 15364,2202 15334,2318 M 16527,2490 C 16470,2558 16412,2609 16354,2641 C 16296,2673 16234,2689 16169,2689 C 16092,2689 16031,2667 15987,2623 C 15944,2579 15922,2520 15922,2446 C 15922,2362 15945,2279 15992,2198 C 16039,2117 16102,2051 16181,2000 C 16261,1950 16338,1924 16415,1924 C 16475,1924 16519,1937 16549,1962 C 16579,1987 16593,2017 16593,2053 C 16593,2087 16583,2116 16562,2141 C 16547,2159 16528,2169 16505,2169 C 16488,2169 16474,2163 16463,2152 C 16452,2141 16446,2127 16446,2111 C 16446,2101 16448,2091 16452,2082 C 16456,2073 16465,2063 16478,2051 C 16491,2038 16498,2029 16501,2024 C 16504,2018 16505,2013 16505,2006 C 16505,1995 16500,1985 16490,1978 C 16474,1967 16451,1961 16422,1961 C 16368,1961 16315,1980 16262,2018 C 16210,2056 16165,2110 16128,2179 C 16083,2264 16060,2348 16060,2433 C 16060,2489 16076,2533 16108,2566 C 16140,2598 16183,2615 16238,2615 C 16280,2615 16322,2604 16363,2583 C 16405,2562 16451,2524 16503,2468 L 16527,2490 Z M 17062,1720 L 16998,1944 L 17127,1944 L 17113,1996 L 16984,1996 L 16843,2481 C 16827,2534 16820,2567 16820,2583 C 16820,2592 16822,2599 16826,2604 C 16831,2609 16836,2611 16842,2611 C 16856,2611 16874,2602 16896,2583 C 16909,2572 16939,2538 16984,2481 L 17012,2502 C 16961,2575 16913,2627 16868,2658 C 16838,2678 16807,2689 16775,2689 C 16751,2689 16731,2681 16716,2666 C 16701,2651 16693,2632 16693,2608 C 16693,2579 16702,2533 16719,2472 L 16857,1996 L 16732,1996 L 16741,1964 C 16801,1947 16851,1923 16891,1890 C 16931,1857 16976,1801 17026,1720 L 17062,1720 Z M 17872,2182 C 17872,2264 17850,2346 17806,2426 C 17763,2507 17702,2571 17624,2618 C 17546,2665 17470,2689 17397,2689 C 17322,2689 17260,2665 17213,2617 C 17165,2569 17142,2507 17142,2430 C 17142,2350 17165,2269 17211,2188 C 17257,2106 17320,2042 17397,1995 C 17475,1948 17550,1924 17622,1924 C 17695,1924 17754,1948 17801,1996 C 17848,2044 17872,2106 17872,2182 M 17735,2125 C 17735,2074 17723,2035 17698,2008 C 17673,1981 17640,1967 17601,1967 C 17520,1967 17446,2025 17378,2140 C 17310,2256 17277,2371 17277,2485 C 17277,2537 17290,2577 17316,2605 C 17342,2634 17376,2648 17416,2648 C 17493,2648 17566,2590 17633,2475 C 17701,2360 17735,2244 17735,2125 M 18023,1970 L 18307,1924 L 18189,2324 C 18285,2160 18372,2045 18450,1980 C 18495,1943 18531,1924 18559,1924 C 18577,1924 18591,1930 18602,1940 C 18612,1951 18617,1966 18617,1987 C 18617,2023 18608,2058 18589,2090 C 18576,2115 18557,2127 18533,2127 C 18520,2127 18509,2123 18500,2115 C 18491,2107 18485,2094 18483,2077 C 18482,2067 18480,2060 18476,2057 C 18471,2052 18466,2050 18460,2050 C 18451,2050 18442,2052 18434,2057 C 18420,2064 18398,2086 18369,2121 C 18323,2175 18274,2244 18221,2330 C 18198,2366 18178,2407 18161,2453 C 18138,2515 18125,2553 18122,2565 L 18096,2669 L 17970,2669 L 18122,2158 C 18139,2099 18148,2056 18148,2031 C 18148,2021 18144,2013 18136,2006 C 18125,1998 18110,1993 18092,1993 C 18081,1993 18060,1996 18029,2001 L 18023,1970 Z "  />
<path style="fill:#000000;fill-opacity:1.00;fill-rule:nonzero;stroke:none"  d="M 6785,1924 C 6804,1956 6817,1986 6824,2013 C 6831,2041 6838,2096 6845,2177 L 6881,2582 C 6914,2542 6962,2480 7025,2394 C 7055,2352 7092,2296 7137,2224 C 7163,2180 7180,2149 7186,2132 C 7189,2123 7191,2114 7191,2104 C 7191,2098 7189,2093 7185,2090 C 7181,2086 7171,2081 7155,2076 C 7139,2071 7125,2061 7115,2047 C 7104,2033 7099,2017 7099,1999 C 7099,1977 7105,1958 7119,1945 C 7132,1931 7148,1924 7168,1924 C 7192,1924 7213,1934 7230,1954 C 7247,1974 7255,2002 7255,2037 C 7255,2080 7240,2130 7211,2185 C 7181,2241 7124,2327 7039,2442 C 6955,2557 6853,2683 6732,2819 C 6650,2913 6588,2972 6548,2996 C 6508,3021 6474,3033 6445,3033 C 6428,3033 6413,3026 6400,3014 C 6387,3001 6381,2986 6381,2969 C 6381,2947 6390,2928 6408,2910 C 6426,2893 6445,2884 6466,2884 C 6477,2884 6486,2886 6493,2891 C 6497,2894 6502,2902 6507,2915 C 6513,2928 6517,2936 6522,2941 C 6525,2943 6528,2945 6532,2945 C 6535,2945 6541,2942 6549,2937 C 6579,2918 6614,2888 6654,2848 C 6707,2794 6746,2750 6771,2716 L 6725,2194 C 6717,2108 6706,2056 6691,2037 C 6675,2018 6649,2009 6613,2009 C 6602,2009 6581,2011 6551,2014 L 6544,1983 L 6785,1924 Z "  />
<path style="fill:#000000;fill-opacity:1.00;fill-rule:nonzero;stroke:none"  d="M 5250,1924 C 5277,1953 5297,1981 5311,2010 C 5320,2030 5337,2081 5359,2165 L 5432,2057 C 5451,2030 5474,2005 5502,1981 C 5529,1958 5553,1941 5574,1932 C 5587,1927 5602,1924 5618,1924 C 5641,1924 5660,1930 5674,1943 C 5688,1956 5695,1971 5695,1989 C 5695,2010 5691,2024 5683,2032 C 5667,2046 5650,2053 5630,2053 C 5618,2053 5606,2050 5593,2045 C 5567,2036 5550,2032 5541,2032 C 5528,2032 5512,2040 5494,2055 C 5460,2084 5419,2139 5372,2220 L 5440,2504 C 5450,2547 5459,2573 5466,2581 C 5473,2590 5480,2594 5488,2594 C 5499,2594 5512,2588 5528,2575 C 5558,2550 5584,2517 5605,2476 L 5634,2491 C 5599,2556 5556,2610 5502,2653 C 5472,2677 5447,2689 5426,2689 C 5395,2689 5371,2672 5353,2637 C 5341,2616 5317,2523 5281,2360 C 5195,2509 5127,2605 5075,2648 C 5042,2675 5009,2689 4978,2689 C 4956,2689 4936,2681 4918,2665 C 4905,2653 4898,2637 4898,2616 C 4898,2598 4904,2583 4916,2571 C 4928,2559 4943,2553 4961,2553 C 4978,2553 4997,2562 5017,2579 C 5031,2592 5042,2598 5050,2598 C 5056,2598 5065,2594 5075,2585 C 5101,2564 5136,2519 5181,2450 C 5225,2381 5254,2331 5268,2300 C 5234,2167 5215,2096 5213,2089 C 5200,2053 5184,2028 5163,2013 C 5143,1998 5113,1991 5074,1991 C 5061,1991 5046,1991 5030,1992 L 5030,1963 L 5250,1924 Z "  />
<path style="fill:#000000;fill-opacity:1.00;fill-rule:nonzero;stroke:none"  d="M 854,1613 L 726,2054 L 831,2054 C 905,2054 960,2043 993,2020 C 1026,1997 1055,1955 1079,1894 L 1110,1894 L 995,2299 L 963,2299 C 972,2265 977,2236 977,2211 C 977,2188 973,2169 963,2155 C 953,2140 940,2130 923,2123 C 907,2116 871,2113 818,2113 L 711,2113 L 604,2482 C 593,2518 588,2545 588,2564 C 588,2578 595,2591 609,2602 C 618,2609 641,2613 679,2613 L 777,2613 C 884,2613 970,2594 1035,2556 C 1099,2518 1157,2453 1208,2359 L 1238,2359 L 1133,2669 L 270,2669 L 281,2639 C 324,2637 353,2634 367,2627 C 389,2617 405,2605 415,2589 C 430,2567 448,2520 468,2448 L 664,1774 C 679,1720 687,1679 687,1650 C 687,1629 680,1613 665,1601 C 650,1589 622,1583 580,1583 L 563,1583 L 572,1553 L 1374,1553 L 1305,1822 L 1274,1822 C 1278,1797 1280,1776 1280,1759 C 1280,1730 1273,1705 1259,1685 C 1240,1660 1213,1641 1177,1628 C 1151,1618 1090,1613 995,1613 L 854,1613 Z M 1426,1970 L 1710,1924 L 1591,2324 C 1687,2160 1775,2045 1853,1980 C 1898,1943 1934,1924 1962,1924 C 1980,1924 1994,1930 2005,1940 C 2015,1951 2020,1966 2020,1987 C 2020,2023 2011,2058 1992,2090 C 1979,2115 1960,2127 1935,2127 C 1923,2127 1912,2123 1903,2115 C 1894,2107 1888,2094 1886,2077 C 1885,2067 1882,2060 1879,2057 C 1874,2052 1869,2050 1863,2050 C 1854,2050 1845,2052 1837,2057 C 1822,2064 1801,2086 1772,2121 C 1726,2175 1677,2244 1623,2330 C 1600,2366 1581,2407 1564,2453 C 1541,2515 1528,2553 1525,2565 L 1498,2669 L 1372,2669 L 1525,2158 C 1542,2099 1551,2056 1551,2031 C 1551,2021 1547,2013 1539,2006 C 1528,1998 1513,1993 1495,1993 C 1484,1993 1462,1996 1432,2001 L 1426,1970 Z M 2082,1970 L 2366,1924 L 2247,2324 C 2343,2160 2431,2045 2509,1980 C 2554,1943 2590,1924 2618,1924 C 2636,1924 2650,1930 2661,1940 C 2671,1951 2676,1966 2676,1987 C 2676,2023 2667,2058 2648,2090 C 2635,2115 2616,2127 2591,2127 C 2579,2127 2568,2123 2559,2115 C 2550,2107 2544,2094 2542,2077 C 2541,2067 2539,2060 2535,2057 C 2530,2052 2525,2050 2519,2050 C 2510,2050 2501,2052 2493,2057 C 2478,2064 2457,2086 2428,2121 C 2382,2175 2333,2244 2280,2330 C 2256,2366 2237,2407 2220,2453 C 2197,2515 2184,2553 2181,2565 L 2154,2669 L 2028,2669 L 2181,2158 C 2198,2099 2207,2056 2207,2031 C 2207,2021 2203,2013 2195,2006 C 2184,1998 2169,1993 2151,1993 C 2140,1993 2118,1996 2088,2001 L 2082,1970 Z M 3367,2182 C 3367,2264 3345,2346 3301,2426 C 3258,2507 3197,2571 3119,2618 C 3041,2665 2966,2689 2892,2689 C 2817,2689 2756,2665 2708,2617 C 2661,2569 2637,2507 2637,2430 C 2637,2350 2660,2269 2706,2188 C 2753,2106 2815,2042 2892,1995 C 2970,1948 3045,1924 3118,1924 C 3190,1924 3250,1948 3297,1996 C 3343,2044 3367,2106 3367,2182 M 3230,2125 C 3230,2074 3218,2035 3193,2008 C 3168,1981 3136,1967 3096,1967 C 3015,1967 2941,2025 2873,2140 C 2806,2256 2772,2371 2772,2485 C 2772,2537 2785,2577 2811,2605 C 2838,2634 2871,2648 2911,2648 C 2988,2648 3061,2590 3129,2475 C 3196,2360 3230,2244 3230,2125 M 3518,1970 L 3802,1924 L 3684,2324 C 3780,2160 3867,2045 3946,1980 C 3990,1943 4026,1924 4054,1924 C 4072,1924 4087,1930 4097,1940 C 4107,1951 4113,1966 4113,1987 C 4113,2023 4103,2058 4085,2090 C 4072,2115 4053,2127 4028,2127 C 4015,2127 4004,2123 3995,2115 C 3986,2107 3981,2094 3978,2077 C 3977,2067 3975,2060 3971,2057 C 3967,2052 3961,2050 3955,2050 C 3946,2050 3937,2052 3929,2057 C 3915,2064 3893,2086 3864,2121 C 3819,2175 3769,2244 3716,2330 C 3693,2366 3673,2407 3657,2453 C 3634,2515 3620,2553 3617,2565 L 3591,2669 L 3465,2669 L 3617,2158 C 3635,2099 3644,2056 3644,2031 C 3644,2021 3639,2013 3631,2006 C 3620,1998 3606,1993 3588,1993 C 3576,1993 3555,1996 3524,2001 L 3518,1970 Z "  />
</svg>