<svg width="469px" height="48px" viewBox="0 0 46900 4800" version="1.1" xmlns="http://www.w3.org/2000/svg" xmlns:xlink="http://www.w3.org/1999/xlink">
<path style="fill:#000000;fill-opacity:1.00;fill-rule:nonzero;stroke:none"  d="M 30381,2195 L 30381,2239 C 30201,2150 30061,2019 29961,1846 C 29861,1673 29811,1484 29811,1278 C 29811,1064 29864,869 29969,694 C 30074,518 30212,392 30381,317 L 30381,360 C 30296,407 30227,471 30172,552 C 30118,633 30077,736 30051,861 C 30024,985 30010,1116 30010,1251 C 30010,1404 30023,1543 30048,1667 C 30072,1791 30110,1893 30161,1975 C 30212,2056 30285,2130 30381,2195 "  />
<path style="fill:#000000;fill-opacity:1.00;fill-rule:nonzero;stroke:none"  d="M 45360,360 L 45360,317 C 45540,405 45679,536 45779,709 C 45879,882 45929,1071 45929,1277 C 45929,1491 45877,1686 45772,1862 C 45666,2038 45529,2164 45360,2239 L 45360,2195 C 45445,2148 45515,2084 45569,2003 C 45624,1922 45664,1819 45691,1695 C 45717,1570 45730,1440 45730,1304 C 45730,1151 45718,1013 45694,889 C 45669,764 45631,662 45580,580 C 45529,499 45456,425 45360,360 "  />
<path style="fill:#000000;fill-opacity:1.00;fill-rule:nonzero;stroke:none"  d="M 10120,4453 L 10120,4498 C 9941,4408 9801,4277 9701,4104 C 9601,3931 9551,3742 9551,3536 C 9551,3322 9603,3128 9709,2952 C 9814,2776 9951,2651 10120,2575 L 10120,2618 C 10036,2665 9966,2729 9912,2810 C 9857,2891 9817,2994 9790,3119 C 9763,3244 9750,3374 9750,3509 C 9750,3663 9762,3801 9787,3925 C 9812,4049 9850,4152 9900,4233 C 9951,4314 10025,4388 10120,4453 "  />
<path style="fill:#000000;fill-opacity:1.00;fill-rule:nonzero;stroke:none"  d="M 25124,2618 L 25124,2575 C 25304,2664 25444,2794 25544,2967 C 25644,3140 25694,3330 25694,3535 C 25694,3749 25641,3944 25536,4120 C 25431,4296 25294,4422 25124,4498 L 25124,4453 C 25210,4406 25279,4343 25334,4261 C 25388,4180 25429,4077 25455,3953 C 25481,3828 25495,3698 25495,3562 C 25495,3409 25483,3271 25458,3147 C 25434,3023 25396,2920 25345,2838 C 25293,2757 25220,2684 25124,2618 "  />
<path style="fill:none;stroke:#000000;stroke-width:66px;stroke-opacity:1.00;"  d="M 7212,2400 L 45788,2400 "  />
<path style="fill:#000000;fill-opacity:1.00;fill-rule:nonzero;stroke:none"  d="M 46537,3513 L 46461,3513 L 46461,1901 L 46537,1901 L 46537,3513 Z "  />
<path style="fill:#000000;fill-opacity:1.00;fill-rule:nonzero;stroke:none"  d="M 46537,2896 L 46461,2896 L 46461,1285 L 46537,1285 L 46537,2896 Z "  />
<path style="fill:#000000;fill-opacity:1.00;fill-rule:nonzero;stroke:none"  d="M 46537,2926 L 46537,3338 C 46537,3498 46518,3656 46479,3810 C 46445,3943 46398,4060 46338,4161 C 46277,4261 46206,4346 46124,4415 C 46065,4465 45998,4506 45921,4538 L 45903,4522 C 46050,4421 46167,4303 46253,4167 C 46322,4058 46374,3928 46408,3776 C 46443,3623 46461,3483 46461,3354 L 46461,2926 L 46537,2926 Z "  />
<path style="fill:#000000;fill-opacity:1.00;fill-rule:nonzero;stroke:none"  d="M 46537,1871 L 46461,1871 L 46461,1445 C 46461,1280 46439,1120 46395,964 C 46351,809 46286,672 46198,554 C 46123,452 46024,359 45903,276 L 45921,260 C 46046,312 46158,399 46256,519 C 46353,639 46425,785 46470,956 C 46515,1127 46537,1295 46537,1460 L 46537,1871 Z "  />
<path style="fill:#000000;fill-opacity:1.00;fill-rule:nonzero;stroke:none"  d="M 6528,3513 L 6452,3513 L 6452,1901 L 6528,1901 L 6528,3513 Z "  />
<path style="fill:#000000;fill-opacity:1.00;fill-rule:nonzero;stroke:none"  d="M 6528,2896 L 6452,2896 L 6452,1285 L 6528,1285 L 6528,2896 Z "  />
<path style="fill:#000000;fill-opacity:1.00;fill-rule:nonzero;stroke:none"  d="M 6452,2926 L 6528,2926 L 6528,3354 C 6528,3518 6550,3678 6594,3834 C 6638,3990 6704,4127 6791,4244 C 6867,4346 6965,4439 7086,4522 L 7068,4538 C 6943,4485 6831,4399 6734,4279 C 6636,4159 6565,4013 6520,3842 C 6474,3671 6452,3503 6452,3338 L 6452,2926 Z "  />
<path style="fill:#000000;fill-opacity:1.00;fill-rule:nonzero;stroke:none"  d="M 6452,1871 L 6452,1460 C 6452,1300 6471,1142 6511,988 C 6544,855 6591,738 6652,638 C 6712,537 6783,453 6864,384 C 6924,333 6992,292 7068,260 L 7086,276 C 6939,377 6823,496 6736,632 C 6668,740 6616,871 6580,1023 C 6545,1175 6528,1316 6528,1445 L 6528,1871 L 6452,1871 Z "  />
<path style="fill:#000000;fill-opacity:1.00;fill-rule:nonzero;stroke:none"  d="M 41294,3641 C 41294,3665 41286,3685 41269,3702 C 41252,3719 41232,3727 41208,3727 C 41184,3727 41164,3719 41147,3702 C 41130,3685 41122,3665 41122,3641 C 41122,3617 41130,3596 41147,3579 C 41164,3562 41184,3554 41208,3554 C 41232,3554 41252,3562 41269,3579 C 41286,3596 41294,3617 41294,3641 "  />
<path style="fill:#000000;fill-opacity:1.00;fill-rule:nonzero;stroke:none"  d="M 35841,3600 L 36661,3600 L 36661,3677 L 35841,3677 L 35841,3600 Z "  />
<path style="fill:#000000;fill-opacity:1.00;fill-rule:nonzero;stroke:none"  d="M 31176,3641 C 31176,3665 31168,3685 31151,3702 C 31134,3719 31114,3727 31091,3727 C 31067,3727 31046,3719 31029,3702 C 31012,3685 31004,3665 31004,3641 C 31004,3617 31012,3596 31029,3579 C 31046,3562 31067,3554 31091,3554 C 31114,3554 31134,3562 31151,3579 C 31168,3596 31176,3617 31176,3641 "  />
<path style="fill:#000000;fill-opacity:1.00;fill-rule:nonzero;stroke:none"  d="M 25823,3600 L 26643,3600 L 26643,3677 L 25823,3677 L 25823,3600 Z "  />
<path style="fill:#000000;fill-opacity:1.00;fill-rule:nonzero;stroke:none"  d="M 17335,3230 L 17412,3230 L 17412,3603 L 17783,3603 L 17783,3679 L 17412,3679 L 17412,4050 L 17335,4050 L 17335,3679 L 16963,3679 L 16963,3603 L 17335,3603 L 17335,3230 Z "  />
<path style="fill:#000000;fill-opacity:1.00;fill-rule:nonzero;stroke:none"  d="M 9130,3641 C 9130,3665 9121,3685 9104,3702 C 9087,3719 9067,3727 9044,3727 C 9020,3727 8999,3719 8982,3702 C 8965,3685 8957,3665 8957,3641 C 8957,3617 8965,3596 8982,3579 C 8999,3562 9020,3554 9044,3554 C 9067,3554 9087,3562 9104,3579 C 9121,3596 9130,3617 9130,3641 "  />
<path style="fill:#000000;fill-opacity:1.00;fill-rule:nonzero;stroke:none"  d="M 37323,1342 L 38144,1342 L 38144,1419 L 37323,1419 L 37323,1342 Z "  />
<path style="fill:#000000;fill-opacity:1.00;fill-rule:nonzero;stroke:none"  d="M 29390,1382 C 29390,1406 29382,1427 29365,1444 C 29348,1461 29328,1469 29304,1469 C 29280,1469 29260,1461 29243,1444 C 29226,1427 29218,1406 29218,1382 C 29218,1358 29226,1338 29243,1321 C 29260,1304 29280,1296 29304,1296 C 29328,1296 29348,1304 29365,1321 C 29382,1338 29390,1358 29390,1382 "  />
<path style="fill:#000000;fill-opacity:1.00;fill-rule:nonzero;stroke:none"  d="M 26758,971 L 26834,971 L 26834,1345 L 27205,1345 L 27205,1421 L 26834,1421 L 26834,1792 L 26758,1792 L 26758,1421 L 26385,1421 L 26385,1345 L 26758,1345 L 26758,971 Z "  />
<path style="fill:#000000;fill-opacity:1.00;fill-rule:nonzero;stroke:none"  d="M 22020,1382 C 22020,1406 22012,1427 21995,1444 C 21978,1461 21958,1469 21935,1469 C 21911,1469 21890,1461 21873,1444 C 21856,1427 21848,1406 21848,1382 C 21848,1358 21856,1338 21873,1321 C 21890,1304 21911,1296 21935,1296 C 21958,1296 21978,1304 21995,1321 C 22012,1338 22020,1358 22020,1382 "  />
<path style="fill:#000000;fill-opacity:1.00;fill-rule:nonzero;stroke:none"  d="M 16267,1342 L 17088,1342 L 17088,1419 L 16267,1419 L 16267,1342 Z "  />
<path style="fill:#000000;fill-opacity:1.00;fill-rule:nonzero;stroke:none"  d="M 11803,1382 C 11803,1406 11794,1427 11777,1444 C 11760,1461 11740,1469 11717,1469 C 11693,1469 11672,1461 11655,1444 C 11639,1427 11630,1406 11630,1382 C 11630,1358 11639,1338 11655,1321 C 11672,1304 11693,1296 11717,1296 C 11740,1296 11760,1304 11777,1321 C 11794,1338 11803,1358 11803,1382 "  />
<path style="fill:#000000;fill-opacity:1.00;fill-rule:nonzero;stroke:none"  d="M 1644,2207 L 2465,2207 L 2465,2283 L 1644,2283 L 1644,2207 Z M 1644,2498 L 2465,2498 L 2465,2576 L 1644,2576 L 1644,2498 Z "  />
<path style="fill:#000000;fill-opacity:1.00;fill-rule:nonzero;stroke:none"  d="M 45664,3846 L 45590,4050 L 44965,4050 L 44965,4021 C 45149,3853 45278,3716 45353,3610 C 45428,3504 45466,3407 45466,3319 C 45466,3252 45445,3196 45404,3153 C 45363,3110 45314,3088 45256,3088 C 45204,3088 45158,3104 45116,3134 C 45075,3164 45044,3209 45024,3268 L 44995,3268 C 45008,3172 45042,3098 45096,3046 C 45150,2995 45217,2969 45298,2969 C 45384,2969 45455,2996 45513,3052 C 45571,3107 45599,3172 45599,3247 C 45599,3301 45587,3354 45562,3408 C 45523,3492 45461,3582 45374,3676 C 45245,3817 45164,3903 45131,3932 L 45408,3932 C 45464,3932 45504,3930 45526,3926 C 45549,3922 45569,3913 45588,3900 C 45606,3888 45622,3870 45635,3846 L 45664,3846 Z "  />
<path style="fill:#000000;fill-opacity:1.00;fill-rule:nonzero;stroke:none"  d="M 43696,4395 L 42869,4395 L 42869,4330 L 43696,4330 L 43696,4395 Z "  />
<path style="fill:#000000;fill-opacity:1.00;fill-rule:nonzero;stroke:none"  d="M 40296,3095 L 40554,2969 L 40580,2969 L 40580,3863 C 40580,3923 40583,3960 40587,3974 C 40592,3989 40603,4000 40618,4008 C 40634,4016 40666,4020 40714,4021 L 40714,4050 L 40315,4050 L 40315,4021 C 40365,4020 40398,4016 40412,4008 C 40427,4001 40437,3990 40443,3978 C 40448,3965 40451,3927 40451,3863 L 40451,3291 C 40451,3214 40449,3165 40443,3143 C 40440,3126 40433,3114 40423,3106 C 40414,3098 40402,3095 40389,3095 C 40369,3095 40343,3103 40308,3119 L 40296,3095 Z "  />
<path style="fill:#000000;fill-opacity:1.00;fill-rule:nonzero;stroke:none"  d="M 39049,4395 L 38222,4395 L 38222,4330 L 39049,4330 L 39049,4395 Z "  />
<path style="fill:#000000;fill-opacity:1.00;fill-rule:nonzero;stroke:none"  d="M 35446,3846 L 35372,4050 L 34747,4050 L 34747,4021 C 34931,3853 35060,3716 35135,3610 C 35210,3504 35248,3407 35248,3319 C 35248,3252 35227,3196 35186,3153 C 35145,3110 35096,3088 35039,3088 C 34987,3088 34940,3104 34898,3134 C 34857,3164 34826,3209 34807,3268 L 34778,3268 C 34791,3172 34824,3098 34878,3046 C 34932,2995 34999,2969 35080,2969 C 35166,2969 35238,2996 35295,3052 C 35353,3107 35382,3172 35382,3247 C 35382,3301 35369,3354 35344,3408 C 35306,3492 35243,3582 35157,3676 C 35027,3817 34946,3903 34914,3932 L 35190,3932 C 35246,3932 35286,3930 35309,3926 C 35331,3922 35352,3913 35370,3900 C 35388,3888 35404,3870 35417,3846 L 35446,3846 Z "  />
<path style="fill:#000000;fill-opacity:1.00;fill-rule:nonzero;stroke:none"  d="M 33578,4395 L 32751,4395 L 32751,4330 L 33578,4330 L 33578,4395 Z "  />
<path style="fill:#000000;fill-opacity:1.00;fill-rule:nonzero;stroke:none"  d="M 30179,3095 L 30436,2969 L 30462,2969 L 30462,3863 C 30462,3923 30465,3960 30470,3974 C 30475,3989 30485,4000 30501,4008 C 30516,4016 30548,4020 30596,4021 L 30596,4050 L 30197,4050 L 30197,4021 C 30247,4020 30280,4016 30294,4008 C 30309,4001 30319,3990 30325,3978 C 30330,3965 30333,3927 30333,3863 L 30333,3291 C 30333,3214 30331,3165 30326,3143 C 30322,3126 30315,3114 30306,3106 C 30296,3098 30284,3095 30271,3095 C 30252,3095 30225,3103 30190,3119 L 30179,3095 Z "  />
<path style="fill:#000000;fill-opacity:1.00;fill-rule:nonzero;stroke:none"  d="M 29031,4395 L 28204,4395 L 28204,4330 L 29031,4330 L 29031,4395 Z "  />
<path style="fill:#000000;fill-opacity:1.00;fill-rule:nonzero;stroke:none"  d="M 24962,3846 L 24888,4050 L 24263,4050 L 24263,4021 C 24447,3853 24576,3716 24651,3610 C 24726,3504 24764,3407 24764,3319 C 24764,3252 24743,3196 24702,3153 C 24661,3110 24612,3088 24554,3088 C 24502,3088 24456,3104 24414,3134 C 24373,3164 24342,3209 24322,3268 L 24293,3268 C 24306,3172 24340,3098 24394,3046 C 24448,2995 24515,2969 24596,2969 C 24682,2969 24753,2996 24811,3052 C 24869,3107 24897,3172 24897,3247 C 24897,3301 24885,3354 24860,3408 C 24821,3492 24759,3582 24672,3676 C 24543,3817 24462,3903 24429,3932 L 24706,3932 C 24762,3932 24802,3930 24824,3926 C 24847,3922 24867,3913 24886,3900 C 24904,3888 24920,3870 24933,3846 L 24962,3846 Z "  />
<path style="fill:#000000;fill-opacity:1.00;fill-rule:nonzero;stroke:none"  d="M 22994,4395 L 22167,4395 L 22167,4330 L 22994,4330 L 22994,4395 Z "  />
<path style="fill:#000000;fill-opacity:1.00;fill-rule:nonzero;stroke:none"  d="M 21443,3095 L 21701,2969 L 21727,2969 L 21727,3863 C 21727,3923 21729,3960 21734,3974 C 21739,3989 21749,4000 21765,4008 C 21781,4016 21812,4020 21860,4021 L 21860,4050 L 21462,4050 L 21462,4021 C 21512,4020 21544,4016 21559,4008 C 21573,4001 21584,3990 21589,3978 C 21595,3965 21598,3927 21598,3863 L 21598,3291 C 21598,3214 21595,3165 21590,3143 C 21586,3126 21580,3114 21570,3106 C 21561,3098 21549,3095 21535,3095 C 21516,3095 21489,3103 21455,3119 L 21443,3095 Z "  />
<path style="fill:#000000;fill-opacity:1.00;fill-rule:nonzero;stroke:none"  d="M 20196,4395 L 19369,4395 L 19369,4330 L 20196,4330 L 20196,4395 Z "  />
<path style="fill:#000000;fill-opacity:1.00;fill-rule:nonzero;stroke:none"  d="M 16568,3846 L 16494,4050 L 15869,4050 L 15869,4021 C 16053,3853 16182,3716 16257,3610 C 16332,3504 16370,3407 16370,3319 C 16370,3252 16349,3196 16308,3153 C 16267,3110 16218,3088 16160,3088 C 16108,3088 16062,3104 16020,3134 C 15979,3164 15948,3209 15928,3268 L 15899,3268 C 15912,3172 15946,3098 16000,3046 C 16054,2995 16121,2969 16202,2969 C 16288,2969 16359,2996 16417,3052 C 16475,3107 16503,3172 16503,3247 C 16503,3301 16491,3354 16466,3408 C 16427,3492 16365,3582 16278,3676 C 16149,3817 16068,3903 16035,3932 L 16312,3932 C 16368,3932 16408,3930 16430,3926 C 16453,3922 16473,3913 16492,3900 C 16510,3888 16526,3870 16539,3846 L 16568,3846 Z "  />
<path style="fill:#000000;fill-opacity:1.00;fill-rule:nonzero;stroke:none"  d="M 14700,4395 L 13873,4395 L 13873,4330 L 14700,4330 L 14700,4395 Z "  />
<path style="fill:#000000;fill-opacity:1.00;fill-rule:nonzero;stroke:none"  d="M 13149,3095 L 13407,2969 L 13433,2969 L 13433,3863 C 13433,3923 13435,3960 13440,3974 C 13445,3989 13455,4000 13471,4008 C 13487,4016 13518,4020 13566,4021 L 13566,4050 L 13168,4050 L 13168,4021 C 13218,4020 13250,4016 13265,4008 C 13279,4001 13289,3990 13295,3978 C 13301,3965 13304,3927 13304,3863 L 13304,3291 C 13304,3214 13301,3165 13296,3143 C 13292,3126 13286,3114 13276,3106 C 13266,3098 13255,3095 13241,3095 C 13222,3095 13195,3103 13161,3119 L 13149,3095 Z "  />
<path style="fill:#000000;fill-opacity:1.00;fill-rule:nonzero;stroke:none"  d="M 12002,4395 L 11175,4395 L 11175,4330 L 12002,4330 L 12002,4395 Z "  />
<path style="fill:#000000;fill-opacity:1.00;fill-rule:nonzero;stroke:none"  d="M 44777,836 L 45034,710 L 45060,710 L 45060,1605 C 45060,1664 45063,1701 45068,1716 C 45073,1730 45083,1742 45098,1749 C 45114,1757 45146,1762 45194,1763 L 45194,1792 L 44795,1792 L 44795,1763 C 44845,1762 44878,1757 44892,1750 C 44907,1742 44917,1732 44923,1719 C 44928,1707 44931,1668 44931,1605 L 44931,1033 C 44931,956 44929,907 44924,885 C 44920,868 44913,856 44904,848 C 44894,840 44882,836 44869,836 C 44850,836 44823,844 44788,860 L 44777,836 Z "  />
<path style="fill:#000000;fill-opacity:1.00;fill-rule:nonzero;stroke:none"  d="M 43629,2137 L 42802,2137 L 42802,2071 L 43629,2071 L 43629,2137 Z "  />
<path style="fill:#000000;fill-opacity:1.00;fill-rule:nonzero;stroke:none"  d="M 42500,1588 L 42425,1792 L 41801,1792 L 41801,1763 C 41984,1595 42114,1458 42189,1352 C 42264,1246 42301,1148 42301,1060 C 42301,993 42281,938 42240,895 C 42198,852 42149,830 42092,830 C 42040,830 41993,845 41952,876 C 41910,906 41880,951 41860,1010 L 41831,1010 C 41844,913 41877,839 41931,788 C 41985,736 42053,710 42133,710 C 42219,710 42291,738 42349,793 C 42406,848 42435,914 42435,989 C 42435,1042 42422,1096 42397,1150 C 42359,1234 42296,1323 42210,1417 C 42080,1559 41999,1645 41967,1674 L 42243,1674 C 42300,1674 42339,1672 42362,1667 C 42384,1663 42405,1655 42423,1642 C 42441,1629 42457,1611 42471,1588 L 42500,1588 Z "  />
<path style="fill:#000000;fill-opacity:1.00;fill-rule:nonzero;stroke:none"  d="M 40532,2137 L 39704,2137 L 39704,2071 L 40532,2071 L 40532,2137 Z "  />
<path style="fill:#000000;fill-opacity:1.00;fill-rule:nonzero;stroke:none"  d="M 36929,1588 L 36854,1792 L 36229,1792 L 36229,1763 C 36413,1595 36543,1458 36618,1352 C 36693,1246 36730,1148 36730,1060 C 36730,993 36710,938 36669,895 C 36627,852 36578,830 36521,830 C 36469,830 36422,845 36381,876 C 36339,906 36309,951 36289,1010 L 36260,1010 C 36273,913 36306,839 36360,788 C 36414,736 36482,710 36562,710 C 36648,710 36720,738 36778,793 C 36835,848 36864,914 36864,989 C 36864,1042 36851,1096 36826,1150 C 36788,1234 36725,1323 36639,1417 C 36509,1559 36428,1645 36396,1674 L 36672,1674 C 36729,1674 36768,1672 36791,1667 C 36813,1663 36834,1655 36852,1642 C 36870,1629 36886,1611 36900,1588 L 36929,1588 Z "  />
<path style="fill:#000000;fill-opacity:1.00;fill-rule:nonzero;stroke:none"  d="M 34961,2137 L 34133,2137 L 34133,2071 L 34961,2071 L 34961,2137 Z "  />
<path style="fill:#000000;fill-opacity:1.00;fill-rule:nonzero;stroke:none"  d="M 33410,836 L 33668,710 L 33693,710 L 33693,1605 C 33693,1664 33696,1701 33701,1716 C 33706,1730 33716,1742 33732,1749 C 33747,1757 33779,1762 33827,1763 L 33827,1792 L 33428,1792 L 33428,1763 C 33478,1762 33511,1757 33525,1750 C 33540,1742 33550,1732 33556,1719 C 33562,1707 33564,1668 33564,1605 L 33564,1033 C 33564,956 33562,907 33557,885 C 33553,868 33546,856 33537,848 C 33527,840 33515,836 33502,836 C 33483,836 33456,844 33421,860 L 33410,836 Z "  />
<path style="fill:#000000;fill-opacity:1.00;fill-rule:nonzero;stroke:none"  d="M 32263,2137 L 31435,2137 L 31435,2071 L 32263,2071 L 32263,2137 Z "  />
<path style="fill:#000000;fill-opacity:1.00;fill-rule:nonzero;stroke:none"  d="M 25569,836 L 25827,710 L 25853,710 L 25853,1605 C 25853,1664 25856,1701 25860,1716 C 25865,1730 25876,1742 25891,1749 C 25907,1757 25939,1762 25987,1763 L 25987,1792 L 25588,1792 L 25588,1763 C 25638,1762 25670,1757 25685,1750 C 25700,1742 25710,1732 25716,1719 C 25721,1707 25724,1668 25724,1605 L 25724,1033 C 25724,956 25722,907 25716,885 C 25713,868 25706,856 25696,848 C 25687,840 25675,836 25662,836 C 25642,836 25616,844 25581,860 L 25569,836 Z "  />
<path style="fill:#000000;fill-opacity:1.00;fill-rule:nonzero;stroke:none"  d="M 24422,2137 L 23595,2137 L 23595,2071 L 24422,2071 L 24422,2137 Z "  />
<path style="fill:#000000;fill-opacity:1.00;fill-rule:nonzero;stroke:none"  d="M 21444,1588 L 21370,1792 L 20745,1792 L 20745,1763 C 20929,1595 21058,1458 21133,1352 C 21208,1246 21245,1148 21245,1060 C 21245,993 21225,938 21184,895 C 21143,852 21093,830 21036,830 C 20984,830 20937,845 20896,876 C 20854,906 20824,951 20804,1010 L 20775,1010 C 20788,913 20822,839 20876,788 C 20929,736 20997,710 21077,710 C 21163,710 21235,738 21293,793 C 21350,848 21379,914 21379,989 C 21379,1042 21367,1096 21342,1150 C 21303,1234 21240,1323 21154,1417 C 21024,1559 20943,1645 20911,1674 L 21188,1674 C 21244,1674 21283,1672 21306,1667 C 21329,1663 21349,1655 21367,1642 C 21386,1629 21401,1611 21415,1588 L 21444,1588 Z "  />
<path style="fill:#000000;fill-opacity:1.00;fill-rule:nonzero;stroke:none"  d="M 19476,2137 L 18648,2137 L 18648,2071 L 19476,2071 L 19476,2137 Z "  />
<path style="fill:#000000;fill-opacity:1.00;fill-rule:nonzero;stroke:none"  d="M 15452,836 L 15709,710 L 15735,710 L 15735,1605 C 15735,1664 15738,1701 15743,1716 C 15748,1730 15758,1742 15774,1749 C 15789,1757 15821,1762 15869,1763 L 15869,1792 L 15470,1792 L 15470,1763 C 15520,1762 15553,1757 15567,1750 C 15582,1742 15592,1732 15598,1719 C 15603,1707 15606,1668 15606,1605 L 15606,1033 C 15606,956 15604,907 15599,885 C 15595,868 15588,856 15579,848 C 15569,840 15557,836 15544,836 C 15525,836 15498,844 15463,860 L 15452,836 Z "  />
<path style="fill:#000000;fill-opacity:1.00;fill-rule:nonzero;stroke:none"  d="M 14205,2137 L 13377,2137 L 13377,2071 L 14205,2071 L 14205,2137 Z "  />
<path style="fill:#000000;fill-opacity:1.00;fill-rule:nonzero;stroke:none"  d="M 11226,1588 L 11152,1792 L 10527,1792 L 10527,1763 C 10711,1595 10840,1458 10915,1352 C 10990,1246 11028,1148 11028,1060 C 11028,993 11007,938 10966,895 C 10925,852 10876,830 10818,830 C 10766,830 10719,845 10678,876 C 10637,906 10606,951 10586,1010 L 10557,1010 C 10570,913 10604,839 10658,788 C 10712,736 10779,710 10860,710 C 10946,710 11017,738 11075,793 C 11132,848 11161,914 11161,989 C 11161,1042 11149,1096 11124,1150 C 11085,1234 11023,1323 10936,1417 C 10807,1559 10726,1645 10693,1674 L 10970,1674 C 11026,1674 11066,1672 11088,1667 C 11111,1663 11131,1655 11150,1642 C 11168,1629 11184,1611 11197,1588 L 11226,1588 Z "  />
<path style="fill:#000000;fill-opacity:1.00;fill-rule:nonzero;stroke:none"  d="M 9358,2137 L 8531,2137 L 8531,2071 L 9358,2071 L 9358,2137 Z "  />
<path style="fill:#000000;fill-opacity:1.00;fill-rule:nonzero;stroke:none"  d="M 44387,3343 C 44404,3373 44417,3401 44423,3428 C 44430,3454 44437,3506 44444,3583 L 44478,3967 C 44509,3930 44555,3870 44614,3789 C 44643,3749 44678,3696 44720,3627 C 44746,3586 44761,3557 44767,3540 C 44770,3532 44772,3523 44772,3514 C 44772,3508 44770,3504 44766,3500 C 44763,3496 44753,3492 44738,3487 C 44722,3482 44710,3473 44699,3460 C 44689,3447 44684,3431 44684,3414 C 44684,3393 44690,3376 44703,3363 C 44715,3350 44731,3343 44750,3343 C 44773,3343 44792,3353 44808,3372 C 44825,3391 44833,3417 44833,3450 C 44833,3491 44819,3538 44790,3591 C 44762,3644 44708,3725 44628,3834 C 44548,3944 44451,4063 44337,4192 C 44258,4281 44200,4337 44162,4361 C 44124,4384 44091,4395 44064,4395 C 44048,4395 44034,4389 44021,4377 C 44009,4365 44003,4351 44003,4334 C 44003,4314 44011,4296 44028,4279 C 44045,4262 44064,4254 44083,4254 C 44094,4254 44102,4256 44109,4261 C 44113,4264 44118,4271 44123,4283 C 44128,4295 44132,4304 44137,4308 C 44139,4310 44142,4312 44146,4312 C 44149,4312 44155,4309 44162,4304 C 44191,4286 44224,4258 44262,4220 C 44312,4168 44349,4127 44373,4095 L 44330,3599 C 44322,3517 44311,3468 44297,3450 C 44282,3432 44258,3423 44223,3423 C 44212,3423 44193,3425 44165,3428 L 44158,3399 L 44387,3343 Z "  />
<path style="fill:#000000;fill-opacity:1.00;fill-rule:nonzero;stroke:none"  d="M 42523,2939 L 42255,3861 C 42240,3911 42233,3944 42233,3959 C 42233,3965 42235,3970 42240,3974 C 42244,3979 42248,3981 42253,3981 C 42260,3981 42268,3978 42277,3971 C 42295,3959 42325,3927 42366,3877 L 42393,3894 C 42356,3946 42318,3988 42279,4020 C 42241,4053 42205,4069 42172,4069 C 42154,4069 42140,4062 42128,4050 C 42117,4038 42111,4020 42111,3997 C 42111,3967 42119,3927 42134,3877 L 42165,3780 C 42089,3897 42021,3978 41959,4023 C 41916,4053 41875,4069 41836,4069 C 41796,4069 41762,4051 41732,4016 C 41703,3981 41688,3933 41688,3873 C 41688,3795 41713,3712 41763,3624 C 41812,3536 41877,3465 41959,3409 C 42023,3365 42082,3343 42135,3343 C 42163,3343 42188,3349 42208,3360 C 42228,3372 42248,3391 42268,3417 L 42345,3145 C 42350,3126 42355,3111 42359,3099 C 42365,3078 42368,3061 42368,3048 C 42368,3037 42364,3028 42356,3020 C 42345,3012 42331,3007 42314,3007 C 42302,3007 42282,3009 42255,3013 L 42255,2984 L 42523,2939 Z M 42234,3494 C 42234,3460 42224,3434 42205,3413 C 42185,3393 42161,3383 42131,3383 C 42066,3383 41997,3437 41926,3545 C 41855,3654 41820,3757 41820,3856 C 41820,3895 41828,3925 41845,3946 C 41863,3966 41883,3977 41907,3977 C 41961,3977 42029,3918 42111,3801 C 42193,3684 42234,3581 42234,3494 "  />
<path style="fill:#000000;fill-opacity:1.00;fill-rule:nonzero;stroke:none"  d="M 39740,3343 C 39758,3373 39770,3401 39777,3428 C 39783,3454 39790,3506 39797,3583 L 39831,3967 C 39863,3930 39908,3870 39967,3789 C 39996,3749 40031,3696 40073,3627 C 40099,3586 40115,3557 40120,3540 C 40123,3532 40125,3523 40125,3514 C 40125,3508 40123,3504 40120,3500 C 40116,3496 40106,3492 40091,3487 C 40076,3482 40063,3473 40053,3460 C 40043,3447 40038,3431 40038,3414 C 40038,3393 40044,3376 40056,3363 C 40069,3350 40084,3343 40103,3343 C 40126,3343 40146,3353 40162,3372 C 40178,3391 40186,3417 40186,3450 C 40186,3491 40172,3538 40144,3591 C 40116,3644 40061,3725 39981,3834 C 39901,3944 39804,4063 39690,4192 C 39611,4281 39553,4337 39515,4361 C 39477,4384 39444,4395 39417,4395 C 39401,4395 39387,4389 39375,4377 C 39362,4365 39356,4351 39356,4334 C 39356,4314 39365,4296 39382,4279 C 39399,4262 39417,4254 39437,4254 C 39447,4254 39456,4256 39463,4261 C 39467,4264 39471,4271 39476,4283 C 39481,4295 39486,4304 39490,4308 C 39493,4310 39496,4312 39499,4312 C 39502,4312 39508,4309 39516,4304 C 39544,4286 39578,4258 39616,4220 C 39666,4168 39703,4127 39727,4095 L 39683,3599 C 39676,3517 39665,3468 39650,3450 C 39635,3432 39611,3423 39577,3423 C 39566,3423 39546,3425 39518,3428 L 39511,3399 L 39740,3343 Z "  />
<path style="fill:#000000;fill-opacity:1.00;fill-rule:nonzero;stroke:none"  d="M 37877,2939 L 37608,3861 C 37593,3911 37586,3944 37586,3959 C 37586,3965 37588,3970 37593,3974 C 37597,3979 37602,3981 37606,3981 C 37613,3981 37621,3978 37631,3971 C 37648,3959 37678,3927 37720,3877 L 37746,3894 C 37709,3946 37671,3988 37633,4020 C 37594,4053 37559,4069 37525,4069 C 37508,4069 37493,4062 37481,4050 C 37470,4038 37464,4020 37464,3997 C 37464,3967 37472,3927 37488,3877 L 37518,3780 C 37443,3897 37374,3978 37312,4023 C 37269,4053 37228,4069 37189,4069 C 37150,4069 37115,4051 37086,4016 C 37056,3981 37042,3933 37042,3873 C 37042,3795 37066,3712 37116,3624 C 37165,3536 37231,3465 37312,3409 C 37376,3365 37435,3343 37489,3343 C 37517,3343 37541,3349 37561,3360 C 37581,3372 37602,3391 37621,3417 L 37698,3145 C 37704,3126 37708,3111 37712,3099 C 37718,3078 37721,3061 37721,3048 C 37721,3037 37717,3028 37710,3020 C 37699,3012 37685,3007 37667,3007 C 37655,3007 37636,3009 37608,3013 L 37608,2984 L 37877,2939 Z M 37587,3494 C 37587,3460 37577,3434 37558,3413 C 37539,3393 37514,3383 37485,3383 C 37419,3383 37351,3437 37280,3545 C 37208,3654 37173,3757 37173,3856 C 37173,3895 37182,3925 37199,3946 C 37216,3966 37236,3977 37260,3977 C 37315,3977 37383,3918 37464,3801 C 37546,3684 37587,3581 37587,3494 "  />
<path style="fill:#000000;fill-opacity:1.00;fill-rule:nonzero;stroke:none"  d="M 34216,3343 C 34241,3370 34260,3397 34274,3424 C 34283,3443 34298,3492 34320,3572 L 34388,3469 C 34407,3444 34429,3420 34455,3397 C 34481,3375 34504,3359 34524,3351 C 34536,3346 34550,3343 34565,3343 C 34587,3343 34605,3349 34618,3361 C 34632,3373 34638,3388 34638,3405 C 34638,3425 34634,3438 34627,3445 C 34612,3458 34595,3465 34577,3465 C 34566,3465 34554,3463 34541,3458 C 34517,3450 34501,3445 34492,3445 C 34480,3445 34465,3453 34448,3467 C 34415,3494 34377,3547 34332,3624 L 34396,3893 C 34406,3934 34414,3959 34421,3967 C 34428,3975 34435,3979 34441,3979 C 34452,3979 34465,3973 34480,3961 C 34508,3937 34533,3906 34553,3867 L 34581,3881 C 34548,3943 34506,3994 34456,4034 C 34427,4057 34403,4069 34383,4069 C 34354,4069 34331,4052 34313,4020 C 34302,3999 34280,3912 34245,3757 C 34164,3898 34099,3989 34050,4030 C 34018,4056 33988,4069 33958,4069 C 33937,4069 33918,4061 33901,4046 C 33888,4035 33882,4019 33882,4000 C 33882,3983 33888,3968 33899,3957 C 33911,3946 33925,3940 33942,3940 C 33958,3940 33976,3948 33995,3965 C 34008,3977 34019,3983 34026,3983 C 34032,3983 34040,3979 34050,3970 C 34075,3951 34108,3908 34150,3842 C 34192,3777 34220,3729 34233,3700 C 34201,3573 34183,3507 34181,3499 C 34169,3465 34153,3441 34134,3427 C 34114,3413 34086,3406 34049,3406 C 34037,3406 34023,3407 34007,3408 L 34007,3380 L 34216,3343 Z "  />
<path style="fill:#000000;fill-opacity:1.00;fill-rule:nonzero;stroke:none"  d="M 32406,2939 L 32137,3861 C 32122,3911 32115,3944 32115,3959 C 32115,3965 32117,3970 32122,3974 C 32126,3979 32131,3981 32135,3981 C 32142,3981 32150,3978 32160,3971 C 32177,3959 32207,3927 32249,3877 L 32275,3894 C 32238,3946 32200,3988 32162,4020 C 32123,4053 32087,4069 32054,4069 C 32036,4069 32022,4062 32010,4050 C 31999,4038 31993,4020 31993,3997 C 31993,3967 32001,3927 32017,3877 L 32047,3780 C 31972,3897 31903,3978 31841,4023 C 31798,4053 31757,4069 31718,4069 C 31679,4069 31644,4051 31615,4016 C 31585,3981 31571,3933 31571,3873 C 31571,3795 31595,3712 31645,3624 C 31694,3536 31760,3465 31841,3409 C 31905,3365 31964,3343 32017,3343 C 32046,3343 32070,3349 32090,3360 C 32110,3372 32130,3391 32150,3417 L 32227,3145 C 32233,3126 32237,3111 32241,3099 C 32247,3078 32250,3061 32250,3048 C 32250,3037 32246,3028 32238,3020 C 32228,3012 32213,3007 32196,3007 C 32184,3007 32165,3009 32137,3013 L 32137,2984 L 32406,2939 Z M 32116,3494 C 32116,3460 32106,3434 32087,3413 C 32068,3393 32043,3383 32014,3383 C 31948,3383 31880,3437 31808,3545 C 31737,3654 31702,3757 31702,3856 C 31702,3895 31710,3925 31728,3946 C 31745,3966 31765,3977 31789,3977 C 31843,3977 31911,3918 31993,3801 C 32075,3684 32116,3581 32116,3494 "  />
<path style="fill:#000000;fill-opacity:1.00;fill-rule:nonzero;stroke:none"  d="M 29669,3343 C 29694,3370 29714,3397 29727,3424 C 29736,3443 29751,3492 29773,3572 L 29842,3469 C 29860,3444 29882,3420 29908,3397 C 29934,3375 29957,3359 29977,3351 C 29989,3346 30003,3343 30018,3343 C 30041,3343 30058,3349 30072,3361 C 30085,3373 30092,3388 30092,3405 C 30092,3425 30088,3438 30080,3445 C 30065,3458 30049,3465 30030,3465 C 30019,3465 30007,3463 29995,3458 C 29970,3450 29954,3445 29945,3445 C 29933,3445 29918,3453 29901,3467 C 29869,3494 29830,3547 29785,3624 L 29849,3893 C 29859,3934 29868,3959 29874,3967 C 29881,3975 29888,3979 29895,3979 C 29906,3979 29918,3973 29933,3961 C 29962,3937 29986,3906 30006,3867 L 30034,3881 C 30001,3943 29959,3994 29909,4034 C 29880,4057 29856,4069 29836,4069 C 29807,4069 29784,4052 29767,4020 C 29756,3999 29733,3912 29699,3757 C 29617,3898 29552,3989 29503,4030 C 29472,4056 29441,4069 29411,4069 C 29390,4069 29371,4061 29354,4046 C 29342,4035 29335,4019 29335,4000 C 29335,3983 29341,3968 29353,3957 C 29364,3946 29378,3940 29395,3940 C 29411,3940 29429,3948 29448,3965 C 29461,3977 29472,3983 29479,3983 C 29485,3983 29493,3979 29503,3970 C 29528,3951 29561,3908 29603,3842 C 29646,3777 29673,3729 29686,3700 C 29654,3573 29636,3507 29634,3499 C 29622,3465 29606,3441 29587,3427 C 29568,3413 29539,3406 29502,3406 C 29490,3406 29476,3407 29460,3408 L 29460,3380 L 29669,3343 Z "  />
<path style="fill:#000000;fill-opacity:1.00;fill-rule:nonzero;stroke:none"  d="M 27859,2939 L 27590,3861 C 27576,3911 27568,3944 27568,3959 C 27568,3965 27571,3970 27575,3974 C 27579,3979 27584,3981 27589,3981 C 27595,3981 27603,3978 27613,3971 C 27631,3959 27660,3927 27702,3877 L 27728,3894 C 27691,3946 27653,3988 27615,4020 C 27576,4053 27541,4069 27507,4069 C 27490,4069 27475,4062 27464,4050 C 27452,4038 27446,4020 27446,3997 C 27446,3967 27454,3927 27470,3877 L 27500,3780 C 27425,3897 27356,3978 27294,4023 C 27251,4053 27210,4069 27171,4069 C 27132,4069 27097,4051 27068,4016 C 27038,3981 27024,3933 27024,3873 C 27024,3795 27049,3712 27098,3624 C 27147,3536 27213,3465 27294,3409 C 27358,3365 27417,3343 27471,3343 C 27499,3343 27523,3349 27543,3360 C 27564,3372 27584,3391 27603,3417 L 27680,3145 C 27686,3126 27690,3111 27694,3099 C 27700,3078 27703,3061 27703,3048 C 27703,3037 27700,3028 27692,3020 C 27681,3012 27667,3007 27650,3007 C 27638,3007 27618,3009 27590,3013 L 27590,2984 L 27859,2939 Z M 27569,3494 C 27569,3460 27559,3434 27540,3413 C 27521,3393 27496,3383 27467,3383 C 27401,3383 27333,3437 27262,3545 C 27191,3654 27155,3757 27155,3856 C 27155,3895 27164,3925 27181,3946 C 27198,3966 27219,3977 27243,3977 C 27297,3977 27365,3918 27446,3801 C 27528,3684 27569,3581 27569,3494 "  />
<path style="fill:#000000;fill-opacity:1.00;fill-rule:nonzero;stroke:none"  d="M 23685,3343 C 23702,3373 23715,3401 23721,3428 C 23728,3454 23735,3506 23742,3583 L 23776,3967 C 23807,3930 23853,3870 23912,3789 C 23941,3749 23976,3696 24018,3627 C 24044,3586 24059,3557 24065,3540 C 24068,3532 24070,3523 24070,3514 C 24070,3508 24068,3504 24064,3500 C 24061,3496 24051,3492 24036,3487 C 24020,3482 24008,3473 23998,3460 C 23987,3447 23982,3431 23982,3414 C 23982,3393 23989,3376 24001,3363 C 24014,3350 24029,3343 24048,3343 C 24071,3343 24090,3353 24106,3372 C 24123,3391 24131,3417 24131,3450 C 24131,3491 24117,3538 24089,3591 C 24060,3644 24006,3725 23926,3834 C 23846,3944 23749,4063 23635,4192 C 23556,4281 23498,4337 23460,4361 C 23422,4384 23389,4395 23362,4395 C 23346,4395 23332,4389 23319,4377 C 23307,4365 23301,4351 23301,4334 C 23301,4314 23310,4296 23326,4279 C 23343,4262 23362,4254 23382,4254 C 23392,4254 23401,4256 23407,4261 C 23411,4264 23416,4271 23421,4283 C 23426,4295 23430,4304 23435,4308 C 23437,4310 23440,4312 23444,4312 C 23447,4312 23453,4309 23460,4304 C 23489,4286 23522,4258 23560,4220 C 23610,4168 23647,4127 23671,4095 L 23628,3599 C 23620,3517 23609,3468 23595,3450 C 23580,3432 23556,3423 23521,3423 C 23510,3423 23491,3425 23463,3428 L 23456,3399 L 23685,3343 Z "  />
<path style="fill:#000000;fill-opacity:1.00;fill-rule:nonzero;stroke:none"  d="M 20887,3343 C 20904,3373 20917,3401 20923,3428 C 20930,3454 20937,3506 20944,3583 L 20978,3967 C 21009,3930 21055,3870 21114,3789 C 21143,3749 21178,3696 21220,3627 C 21246,3586 21261,3557 21267,3540 C 21270,3532 21272,3523 21272,3514 C 21272,3508 21270,3504 21266,3500 C 21263,3496 21253,3492 21238,3487 C 21222,3482 21210,3473 21200,3460 C 21189,3447 21184,3431 21184,3414 C 21184,3393 21191,3376 21203,3363 C 21216,3350 21231,3343 21250,3343 C 21273,3343 21292,3353 21308,3372 C 21325,3391 21333,3417 21333,3450 C 21333,3491 21319,3538 21291,3591 C 21262,3644 21208,3725 21128,3834 C 21048,3944 20951,4063 20837,4192 C 20758,4281 20700,4337 20662,4361 C 20624,4384 20591,4395 20564,4395 C 20548,4395 20534,4389 20521,4377 C 20509,4365 20503,4351 20503,4334 C 20503,4314 20512,4296 20528,4279 C 20545,4262 20564,4254 20584,4254 C 20594,4254 20603,4256 20609,4261 C 20613,4264 20618,4271 20623,4283 C 20628,4295 20632,4304 20637,4308 C 20639,4310 20642,4312 20646,4312 C 20649,4312 20655,4309 20662,4304 C 20691,4286 20724,4258 20762,4220 C 20812,4168 20849,4127 20873,4095 L 20830,3599 C 20822,3517 20811,3468 20797,3450 C 20782,3432 20758,3423 20723,3423 C 20712,3423 20693,3425 20665,3428 L 20658,3399 L 20887,3343 Z "  />
<path style="fill:#000000;fill-opacity:1.00;fill-rule:nonzero;stroke:none"  d="M 19024,2939 L 18755,3861 C 18740,3911 18733,3944 18733,3959 C 18733,3965 18735,3970 18740,3974 C 18744,3979 18749,3981 18753,3981 C 18760,3981 18768,3978 18777,3971 C 18795,3959 18825,3927 18866,3877 L 18893,3894 C 18856,3946 18818,3988 18779,4020 C 18741,4053 18705,4069 18672,4069 C 18654,4069 18640,4062 18628,4050 C 18617,4038 18611,4020 18611,3997 C 18611,3967 18619,3927 18634,3877 L 18665,3780 C 18589,3897 18521,3978 18459,4023 C 18416,4053 18375,4069 18336,4069 C 18296,4069 18262,4051 18233,4016 C 18203,3981 18188,3933 18188,3873 C 18188,3795 18213,3712 18263,3624 C 18312,3536 18377,3465 18459,3409 C 18523,3365 18582,3343 18635,3343 C 18663,3343 18688,3349 18708,3360 C 18728,3372 18748,3391 18768,3417 L 18845,3145 C 18850,3126 18855,3111 18859,3099 C 18865,3078 18868,3061 18868,3048 C 18868,3037 18864,3028 18856,3020 C 18845,3012 18831,3007 18814,3007 C 18802,3007 18782,3009 18755,3013 L 18755,2984 L 19024,2939 Z M 18734,3494 C 18734,3460 18724,3434 18705,3413 C 18686,3393 18661,3383 18631,3383 C 18566,3383 18497,3437 18426,3545 C 18355,3654 18320,3757 18320,3856 C 18320,3895 18328,3925 18345,3946 C 18363,3966 18383,3977 18407,3977 C 18461,3977 18529,3918 18611,3801 C 18693,3684 18734,3581 18734,3494 "  />
<path style="fill:#000000;fill-opacity:1.00;fill-rule:nonzero;stroke:none"  d="M 15337,3343 C 15363,3370 15382,3397 15395,3424 C 15405,3443 15420,3492 15441,3572 L 15510,3469 C 15528,3444 15550,3420 15577,3397 C 15603,3375 15625,3359 15645,3351 C 15658,3346 15672,3343 15687,3343 C 15709,3343 15727,3349 15740,3361 C 15753,3373 15760,3388 15760,3405 C 15760,3425 15756,3438 15748,3445 C 15734,3458 15717,3465 15698,3465 C 15687,3465 15676,3463 15663,3458 C 15639,3450 15622,3445 15614,3445 C 15602,3445 15587,3453 15569,3467 C 15537,3494 15499,3547 15454,3624 L 15518,3893 C 15528,3934 15536,3959 15543,3967 C 15550,3975 15556,3979 15563,3979 C 15574,3979 15587,3973 15602,3961 C 15630,3937 15655,3906 15675,3867 L 15702,3881 C 15669,3943 15628,3994 15577,4034 C 15549,4057 15524,4069 15505,4069 C 15475,4069 15452,4052 15435,4020 C 15424,3999 15402,3912 15367,3757 C 15286,3898 15221,3989 15172,4030 C 15140,4056 15109,4069 15080,4069 C 15059,4069 15040,4061 15023,4046 C 15010,4035 15004,4019 15004,4000 C 15004,3983 15010,3968 15021,3957 C 15033,3946 15047,3940 15063,3940 C 15080,3940 15098,3948 15116,3965 C 15130,3977 15140,3983 15148,3983 C 15154,3983 15162,3979 15172,3970 C 15196,3951 15230,3908 15272,3842 C 15314,3777 15342,3729 15355,3700 C 15322,3573 15305,3507 15302,3499 C 15290,3465 15275,3441 15255,3427 C 15236,3413 15208,3406 15170,3406 C 15158,3406 15145,3407 15129,3408 L 15129,3380 L 15337,3343 Z "  />
<path style="fill:#000000;fill-opacity:1.00;fill-rule:nonzero;stroke:none"  d="M 12639,3343 C 12665,3370 12684,3397 12697,3424 C 12707,3443 12722,3492 12743,3572 L 12812,3469 C 12830,3444 12852,3420 12878,3397 C 12904,3375 12927,3359 12947,3351 C 12960,3346 12973,3343 12989,3343 C 13011,3343 13029,3349 13042,3361 C 13055,3373 13062,3388 13062,3405 C 13062,3425 13058,3438 13050,3445 C 13036,3458 13019,3465 13000,3465 C 12989,3465 12978,3463 12965,3458 C 12941,3450 12924,3445 12916,3445 C 12903,3445 12889,3453 12871,3467 C 12839,3494 12801,3547 12756,3624 L 12820,3893 C 12830,3934 12838,3959 12845,3967 C 12852,3975 12858,3979 12865,3979 C 12876,3979 12889,3973 12903,3961 C 12932,3937 12957,3906 12977,3867 L 13004,3881 C 12971,3943 12930,3994 12879,4034 C 12851,4057 12826,4069 12807,4069 C 12777,4069 12754,4052 12737,4020 C 12726,3999 12703,3912 12669,3757 C 12588,3898 12523,3989 12474,4030 C 12442,4056 12411,4069 12382,4069 C 12361,4069 12342,4061 12325,4046 C 12312,4035 12306,4019 12306,4000 C 12306,3983 12312,3968 12323,3957 C 12334,3946 12349,3940 12365,3940 C 12382,3940 12400,3948 12418,3965 C 12432,3977 12442,3983 12450,3983 C 12456,3983 12464,3979 12474,3970 C 12498,3951 12532,3908 12574,3842 C 12616,3777 12644,3729 12657,3700 C 12624,3573 12607,3507 12604,3499 C 12592,3465 12577,3441 12557,3427 C 12538,3413 12510,3406 12472,3406 C 12460,3406 12446,3407 12431,3408 L 12431,3380 L 12639,3343 Z "  />
<path style="fill:#000000;fill-opacity:1.00;fill-rule:nonzero;stroke:none"  d="M 10829,2939 L 10561,3861 C 10546,3911 10539,3944 10539,3959 C 10539,3965 10541,3970 10545,3974 C 10550,3979 10554,3981 10559,3981 C 10566,3981 10574,3978 10583,3971 C 10601,3959 10631,3927 10672,3877 L 10699,3894 C 10661,3946 10623,3988 10585,4020 C 10547,4053 10511,4069 10478,4069 C 10460,4069 10446,4062 10434,4050 C 10423,4038 10417,4020 10417,3997 C 10417,3967 10425,3927 10440,3877 L 10471,3780 C 10395,3897 10326,3978 10265,4023 C 10222,4053 10181,4069 10142,4069 C 10102,4069 10068,4051 10038,4016 C 10009,3981 9994,3933 9994,3873 C 9994,3795 10019,3712 10068,3624 C 10118,3536 10183,3465 10265,3409 C 10329,3365 10387,3343 10441,3343 C 10469,3343 10493,3349 10514,3360 C 10534,3372 10554,3391 10574,3417 L 10650,3145 C 10656,3126 10661,3111 10665,3099 C 10671,3078 10674,3061 10674,3048 C 10674,3037 10670,3028 10662,3020 C 10651,3012 10637,3007 10620,3007 C 10608,3007 10588,3009 10561,3013 L 10561,2984 L 10829,2939 Z M 10540,3494 C 10540,3460 10530,3434 10511,3413 C 10491,3393 10467,3383 10437,3383 C 10372,3383 10303,3437 10232,3545 C 10161,3654 10125,3757 10125,3856 C 10125,3895 10134,3925 10151,3946 C 10168,3966 10189,3977 10213,3977 C 10267,3977 10335,3918 10417,3801 C 10499,3684 10540,3581 10540,3494 "  />
<path style="fill:#000000;fill-opacity:1.00;fill-rule:nonzero;stroke:none"  d="M 7881,3448 L 8143,3853 C 8190,3925 8229,3971 8260,3991 C 8290,4011 8331,4021 8381,4021 L 8372,4050 L 7921,4050 L 7928,4021 C 7963,4017 7989,4009 8004,3995 C 8019,3982 8026,3966 8026,3949 C 8026,3934 8023,3918 8018,3904 C 8014,3893 7999,3868 7973,3827 L 7758,3491 L 7654,3841 C 7637,3898 7628,3935 7628,3955 C 7628,3974 7636,3990 7650,4000 C 7665,4010 7701,4017 7758,4021 L 7746,4050 L 7327,4050 L 7337,4021 C 7378,4020 7405,4016 7419,4010 C 7440,4001 7455,3989 7465,3974 C 7479,3953 7495,3909 7515,3841 L 7702,3202 C 7716,3153 7723,3113 7723,3084 C 7723,3063 7716,3047 7703,3036 C 7690,3025 7664,3020 7625,3020 L 7610,3020 L 7619,2991 L 8017,2991 L 8009,3020 C 7976,3019 7952,3023 7935,3031 C 7913,3041 7897,3056 7886,3073 C 7876,3090 7860,3133 7840,3202 L 7758,3473 L 8135,3190 C 8185,3152 8217,3123 8233,3101 C 8242,3087 8247,3075 8247,3064 C 8247,3055 8242,3046 8233,3037 C 8223,3028 8208,3022 8188,3020 L 8196,2991 L 8535,2991 L 8528,3020 C 8491,3026 8460,3034 8435,3044 C 8410,3054 8384,3068 8357,3086 C 8349,3091 8299,3130 8205,3202 L 7881,3448 Z "  />
<path style="fill:#000000;fill-opacity:1.00;fill-rule:nonzero;stroke:none"  d="M 44267,1085 C 44292,1112 44312,1139 44325,1166 C 44334,1185 44349,1234 44371,1314 L 44440,1210 C 44458,1185 44480,1162 44506,1139 C 44532,1116 44555,1101 44575,1092 C 44587,1087 44601,1085 44616,1085 C 44639,1085 44656,1091 44670,1103 C 44683,1115 44690,1129 44690,1146 C 44690,1166 44686,1180 44678,1187 C 44663,1200 44647,1207 44628,1207 C 44617,1207 44605,1204 44593,1200 C 44568,1191 44552,1187 44543,1187 C 44531,1187 44516,1194 44499,1209 C 44467,1236 44428,1288 44383,1366 L 44447,1635 C 44457,1676 44466,1700 44472,1708 C 44479,1717 44486,1721 44493,1721 C 44504,1721 44516,1715 44531,1703 C 44560,1679 44584,1647 44604,1609 L 44632,1623 C 44599,1684 44557,1735 44507,1776 C 44478,1799 44454,1810 44434,1810 C 44405,1810 44382,1794 44365,1761 C 44354,1741 44331,1653 44297,1499 C 44215,1640 44150,1731 44101,1771 C 44070,1797 44039,1810 44009,1810 C 43988,1810 43969,1803 43952,1788 C 43940,1776 43933,1761 43933,1742 C 43933,1724 43939,1710 43951,1699 C 43962,1687 43976,1682 43993,1682 C 44009,1682 44027,1690 44046,1707 C 44059,1718 44070,1724 44077,1724 C 44083,1724 44091,1720 44101,1712 C 44126,1692 44159,1649 44201,1584 C 44243,1518 44271,1471 44284,1442 C 44252,1315 44234,1248 44232,1241 C 44220,1207 44204,1183 44185,1169 C 44166,1155 44137,1148 44100,1148 C 44088,1148 44074,1148 44058,1150 L 44058,1121 L 44267,1085 Z "  />
<path style="fill:#000000;fill-opacity:1.00;fill-rule:nonzero;stroke:none"  d="M 41222,1085 C 41240,1115 41252,1143 41259,1169 C 41266,1196 41272,1247 41279,1324 L 41314,1709 C 41345,1671 41390,1612 41450,1531 C 41478,1491 41514,1437 41556,1369 C 41581,1327 41597,1298 41603,1282 C 41606,1273 41607,1265 41607,1256 C 41607,1250 41605,1245 41602,1242 C 41598,1238 41589,1234 41573,1229 C 41558,1224 41545,1215 41535,1201 C 41525,1188 41520,1173 41520,1156 C 41520,1134 41526,1117 41539,1104 C 41551,1091 41567,1085 41585,1085 C 41608,1085 41628,1094 41644,1113 C 41660,1132 41668,1158 41668,1192 C 41668,1233 41654,1280 41626,1333 C 41598,1386 41544,1467 41464,1576 C 41383,1685 41286,1805 41172,1934 C 41094,2023 41035,2079 40997,2102 C 40959,2125 40927,2137 40900,2137 C 40883,2137 40869,2131 40857,2119 C 40845,2106 40839,2092 40839,2076 C 40839,2056 40847,2037 40864,2021 C 40881,2004 40899,1996 40919,1996 C 40929,1996 40938,1998 40945,2003 C 40949,2005 40954,2013 40959,2025 C 40963,2037 40968,2045 40972,2049 C 40975,2052 40978,2053 40982,2053 C 40985,2053 40990,2051 40998,2046 C 41027,2028 41060,2000 41098,1961 C 41148,1910 41185,1868 41209,1836 L 41165,1341 C 41158,1259 41147,1209 41132,1192 C 41118,1174 41093,1165 41059,1165 C 41048,1165 41028,1167 41000,1170 L 40993,1141 L 41222,1085 Z "  />
<path style="fill:#000000;fill-opacity:1.00;fill-rule:nonzero;stroke:none"  d="M 39359,681 L 39090,1603 C 39076,1653 39068,1685 39068,1701 C 39068,1706 39071,1711 39075,1716 C 39080,1721 39084,1723 39089,1723 C 39096,1723 39104,1720 39113,1713 C 39131,1700 39160,1669 39202,1619 L 39229,1635 C 39191,1688 39153,1730 39115,1762 C 39077,1794 39041,1810 39008,1810 C 38990,1810 38975,1804 38964,1792 C 38952,1779 38947,1761 38947,1739 C 38947,1709 38954,1669 38970,1619 L 39000,1522 C 38925,1639 38856,1720 38794,1764 C 38752,1795 38711,1810 38672,1810 C 38632,1810 38598,1793 38568,1758 C 38539,1723 38524,1675 38524,1614 C 38524,1537 38549,1454 38598,1366 C 38648,1278 38713,1206 38794,1151 C 38858,1107 38917,1085 38971,1085 C 38999,1085 39023,1090 39043,1102 C 39064,1113 39084,1132 39104,1159 L 39180,887 C 39186,868 39191,852 39194,841 C 39200,820 39204,803 39204,789 C 39204,778 39200,769 39192,762 C 39181,753 39167,749 39150,749 C 39138,749 39118,751 39090,754 L 39090,725 L 39359,681 Z M 39069,1235 C 39069,1202 39060,1175 39040,1155 C 39021,1135 38997,1125 38967,1125 C 38901,1125 38833,1179 38762,1287 C 38691,1395 38655,1499 38655,1598 C 38655,1637 38664,1667 38681,1687 C 38698,1708 38719,1718 38743,1718 C 38797,1718 38865,1660 38947,1542 C 39028,1425 39069,1323 39069,1235 "  />
<path style="fill:#000000;fill-opacity:1.00;fill-rule:nonzero;stroke:none"  d="M 35651,1085 C 35669,1115 35681,1143 35688,1169 C 35695,1196 35701,1247 35708,1324 L 35743,1709 C 35774,1671 35819,1612 35878,1531 C 35907,1491 35943,1437 35985,1369 C 36010,1327 36026,1298 36032,1282 C 36035,1273 36036,1265 36036,1256 C 36036,1250 36034,1245 36031,1242 C 36027,1238 36018,1234 36002,1229 C 35987,1224 35974,1215 35964,1201 C 35954,1188 35949,1173 35949,1156 C 35949,1134 35955,1117 35968,1104 C 35980,1091 35996,1085 36014,1085 C 36037,1085 36057,1094 36073,1113 C 36089,1132 36097,1158 36097,1192 C 36097,1233 36083,1280 36055,1333 C 36027,1386 35973,1467 35893,1576 C 35812,1685 35715,1805 35601,1934 C 35522,2023 35464,2079 35426,2102 C 35388,2125 35356,2137 35328,2137 C 35312,2137 35298,2131 35286,2119 C 35274,2106 35268,2092 35268,2076 C 35268,2056 35276,2037 35293,2021 C 35310,2004 35328,1996 35348,1996 C 35358,1996 35367,1998 35374,2003 C 35378,2005 35383,2013 35387,2025 C 35392,2037 35397,2045 35401,2049 C 35404,2052 35407,2053 35411,2053 C 35414,2053 35419,2051 35427,2046 C 35456,2028 35489,2000 35527,1961 C 35577,1910 35614,1868 35638,1836 L 35594,1341 C 35587,1259 35576,1209 35561,1192 C 35547,1174 35522,1165 35488,1165 C 35477,1165 35457,1167 35429,1170 L 35422,1141 L 35651,1085 Z "  />
<path style="fill:#000000;fill-opacity:1.00;fill-rule:nonzero;stroke:none"  d="M 32900,1085 C 32925,1112 32945,1139 32958,1166 C 32967,1185 32983,1234 33004,1314 L 33073,1210 C 33091,1185 33113,1162 33139,1139 C 33165,1116 33188,1101 33208,1092 C 33220,1087 33234,1085 33249,1085 C 33272,1085 33289,1091 33303,1103 C 33316,1115 33323,1129 33323,1146 C 33323,1166 33319,1180 33311,1187 C 33296,1200 33280,1207 33261,1207 C 33250,1207 33238,1204 33226,1200 C 33201,1191 33185,1187 33177,1187 C 33164,1187 33149,1194 33132,1209 C 33100,1236 33061,1288 33016,1366 L 33080,1635 C 33090,1676 33099,1700 33105,1708 C 33112,1717 33119,1721 33126,1721 C 33137,1721 33149,1715 33164,1703 C 33193,1679 33217,1647 33237,1609 L 33265,1623 C 33232,1684 33190,1735 33140,1776 C 33111,1799 33087,1810 33067,1810 C 33038,1810 33015,1794 32998,1761 C 32987,1741 32964,1653 32930,1499 C 32848,1640 32783,1731 32734,1771 C 32703,1797 32672,1810 32642,1810 C 32621,1810 32602,1803 32585,1788 C 32573,1776 32566,1761 32566,1742 C 32566,1724 32572,1710 32584,1699 C 32595,1687 32609,1682 32626,1682 C 32642,1682 32660,1690 32679,1707 C 32692,1718 32703,1724 32710,1724 C 32716,1724 32724,1720 32734,1712 C 32759,1692 32792,1649 32834,1584 C 32877,1518 32904,1471 32917,1442 C 32885,1315 32867,1248 32865,1241 C 32853,1207 32837,1183 32818,1169 C 32799,1155 32770,1148 32733,1148 C 32721,1148 32707,1148 32691,1150 L 32691,1121 L 32900,1085 Z "  />
<path style="fill:#000000;fill-opacity:1.00;fill-rule:nonzero;stroke:none"  d="M 31090,681 L 30821,1603 C 30807,1653 30799,1685 30799,1701 C 30799,1706 30802,1711 30806,1716 C 30810,1721 30815,1723 30820,1723 C 30826,1723 30834,1720 30844,1713 C 30862,1700 30891,1669 30933,1619 L 30959,1635 C 30922,1688 30884,1730 30846,1762 C 30808,1794 30772,1810 30738,1810 C 30721,1810 30706,1804 30695,1792 C 30683,1779 30677,1761 30677,1739 C 30677,1709 30685,1669 30701,1619 L 30731,1522 C 30656,1639 30587,1720 30525,1764 C 30482,1795 30442,1810 30402,1810 C 30363,1810 30328,1793 30299,1758 C 30270,1723 30255,1675 30255,1614 C 30255,1537 30280,1454 30329,1366 C 30379,1278 30444,1206 30525,1151 C 30589,1107 30648,1085 30702,1085 C 30730,1085 30754,1090 30774,1102 C 30795,1113 30815,1132 30834,1159 L 30911,887 C 30917,868 30921,852 30925,841 C 30931,820 30934,803 30934,789 C 30934,778 30931,769 30923,762 C 30912,753 30898,749 30881,749 C 30869,749 30849,751 30821,754 L 30821,725 L 31090,681 Z M 30800,1235 C 30800,1202 30790,1175 30771,1155 C 30752,1135 30727,1125 30698,1125 C 30632,1125 30564,1179 30493,1287 C 30422,1395 30386,1499 30386,1598 C 30386,1637 30395,1667 30412,1687 C 30429,1708 30450,1718 30474,1718 C 30528,1718 30596,1660 30677,1542 C 30759,1425 30800,1323 30800,1235 "  />
<path style="fill:#000000;fill-opacity:1.00;fill-rule:nonzero;stroke:none"  d="M 28141,1189 L 28404,1595 C 28451,1667 28489,1713 28520,1733 C 28551,1753 28591,1763 28641,1763 L 28633,1792 L 28181,1792 L 28188,1763 C 28224,1759 28249,1751 28264,1737 C 28279,1723 28287,1708 28287,1691 C 28287,1675 28284,1660 28279,1646 C 28275,1635 28260,1610 28233,1569 L 28019,1232 L 27915,1583 C 27898,1639 27889,1677 27889,1696 C 27889,1716 27896,1731 27911,1742 C 27925,1752 27961,1759 28019,1763 L 28006,1792 L 27587,1792 L 27598,1763 C 27638,1762 27666,1758 27680,1752 C 27700,1742 27716,1730 27726,1716 C 27739,1695 27756,1650 27776,1583 L 27962,943 C 27976,894 27983,855 27983,825 C 27983,804 27977,789 27964,778 C 27950,767 27924,761 27886,761 L 27870,761 L 27880,732 L 28277,732 L 28269,761 C 28237,761 28212,764 28196,772 C 28174,783 28157,797 28147,814 C 28136,832 28121,875 28101,943 L 28019,1215 L 28395,932 C 28445,894 28478,864 28494,842 C 28503,829 28508,817 28508,806 C 28508,796 28503,787 28493,778 C 28484,770 28469,764 28449,761 L 28457,732 L 28796,732 L 28789,761 C 28752,767 28721,776 28696,786 C 28670,796 28644,810 28618,828 C 28610,833 28559,871 28465,943 L 28141,1189 Z "  />
<path style="fill:#000000;fill-opacity:1.00;fill-rule:nonzero;stroke:none"  d="M 25060,1085 C 25085,1112 25105,1139 25118,1166 C 25127,1185 25142,1234 25164,1314 L 25232,1210 C 25251,1185 25273,1162 25299,1139 C 25325,1116 25348,1101 25368,1092 C 25380,1087 25394,1085 25409,1085 C 25431,1085 25449,1091 25462,1103 C 25476,1115 25482,1129 25482,1146 C 25482,1166 25478,1180 25471,1187 C 25456,1200 25439,1207 25421,1207 C 25410,1207 25398,1204 25385,1200 C 25361,1191 25345,1187 25336,1187 C 25324,1187 25309,1194 25292,1209 C 25259,1236 25221,1288 25176,1366 L 25240,1635 C 25250,1676 25258,1700 25265,1708 C 25272,1717 25279,1721 25285,1721 C 25296,1721 25309,1715 25324,1703 C 25352,1679 25377,1647 25397,1609 L 25425,1623 C 25392,1684 25350,1735 25300,1776 C 25271,1799 25247,1810 25227,1810 C 25198,1810 25175,1794 25157,1761 C 25146,1741 25124,1653 25089,1499 C 25008,1640 24943,1731 24894,1771 C 24862,1797 24832,1810 24802,1810 C 24781,1810 24762,1803 24745,1788 C 24732,1776 24726,1761 24726,1742 C 24726,1724 24732,1710 24743,1699 C 24755,1687 24769,1682 24786,1682 C 24802,1682 24820,1690 24839,1707 C 24852,1718 24863,1724 24870,1724 C 24876,1724 24884,1720 24894,1712 C 24919,1692 24952,1649 24994,1584 C 25036,1518 25064,1471 25077,1442 C 25045,1315 25027,1248 25025,1241 C 25013,1207 24997,1183 24978,1169 C 24958,1155 24930,1148 24893,1148 C 24881,1148 24867,1148 24851,1150 L 24851,1121 L 25060,1085 Z "  />
<path style="fill:#000000;fill-opacity:1.00;fill-rule:nonzero;stroke:none"  d="M 23250,681 L 22981,1603 C 22966,1653 22959,1685 22959,1701 C 22959,1706 22961,1711 22966,1716 C 22970,1721 22975,1723 22979,1723 C 22986,1723 22994,1720 23004,1713 C 23021,1700 23051,1669 23093,1619 L 23119,1635 C 23082,1688 23044,1730 23006,1762 C 22967,1794 22931,1810 22898,1810 C 22880,1810 22866,1804 22854,1792 C 22843,1779 22837,1761 22837,1739 C 22837,1709 22845,1669 22861,1619 L 22891,1522 C 22816,1639 22747,1720 22685,1764 C 22642,1795 22601,1810 22562,1810 C 22523,1810 22488,1793 22459,1758 C 22429,1723 22415,1675 22415,1614 C 22415,1537 22439,1454 22489,1366 C 22538,1278 22604,1206 22685,1151 C 22749,1107 22808,1085 22861,1085 C 22890,1085 22914,1090 22934,1102 C 22954,1113 22974,1132 22994,1159 L 23071,887 C 23077,868 23081,852 23085,841 C 23091,820 23094,803 23094,789 C 23094,778 23090,769 23083,762 C 23072,753 23058,749 23040,749 C 23028,749 23009,751 22981,754 L 22981,725 L 23250,681 Z M 22960,1235 C 22960,1202 22950,1175 22931,1155 C 22912,1135 22887,1125 22858,1125 C 22792,1125 22724,1179 22652,1287 C 22581,1395 22546,1499 22546,1598 C 22546,1637 22554,1667 22572,1687 C 22589,1708 22609,1718 22633,1718 C 22687,1718 22755,1660 22837,1542 C 22919,1425 22960,1323 22960,1235 "  />
<path style="fill:#000000;fill-opacity:1.00;fill-rule:nonzero;stroke:none"  d="M 20166,1085 C 20184,1115 20196,1143 20203,1169 C 20210,1196 20217,1247 20223,1324 L 20258,1709 C 20289,1671 20334,1612 20394,1531 C 20422,1491 20458,1437 20500,1369 C 20525,1327 20541,1298 20547,1282 C 20550,1273 20551,1265 20551,1256 C 20551,1250 20550,1245 20546,1242 C 20542,1238 20533,1234 20517,1229 C 20502,1224 20489,1215 20479,1201 C 20469,1188 20464,1173 20464,1156 C 20464,1134 20470,1117 20483,1104 C 20495,1091 20511,1085 20530,1085 C 20552,1085 20572,1094 20588,1113 C 20604,1132 20612,1158 20612,1192 C 20612,1233 20598,1280 20570,1333 C 20542,1386 20488,1467 20408,1576 C 20327,1685 20230,1805 20116,1934 C 20038,2023 19979,2079 19941,2102 C 19903,2125 19871,2137 19844,2137 C 19828,2137 19813,2131 19801,2119 C 19789,2106 19783,2092 19783,2076 C 19783,2056 19791,2037 19808,2021 C 19825,2004 19843,1996 19863,1996 C 19874,1996 19882,1998 19889,2003 C 19893,2005 19898,2013 19903,2025 C 19908,2037 19912,2045 19916,2049 C 19919,2052 19922,2053 19926,2053 C 19929,2053 19934,2051 19942,2046 C 19971,2028 20004,2000 20042,1961 C 20092,1910 20129,1868 20153,1836 L 20109,1341 C 20102,1259 20091,1209 20076,1192 C 20062,1174 20037,1165 20003,1165 C 19992,1165 19973,1167 19944,1170 L 19937,1141 L 20166,1085 Z "  />
<path style="fill:#000000;fill-opacity:1.00;fill-rule:nonzero;stroke:none"  d="M 18303,681 L 18034,1603 C 18020,1653 18013,1685 18013,1701 C 18013,1706 18015,1711 18019,1716 C 18024,1721 18028,1723 18033,1723 C 18040,1723 18048,1720 18057,1713 C 18075,1700 18105,1669 18146,1619 L 18173,1635 C 18135,1688 18097,1730 18059,1762 C 18021,1794 17985,1810 17952,1810 C 17934,1810 17919,1804 17908,1792 C 17896,1779 17891,1761 17891,1739 C 17891,1709 17899,1669 17914,1619 L 17945,1522 C 17869,1639 17800,1720 17738,1764 C 17696,1795 17655,1810 17616,1810 C 17576,1810 17542,1793 17512,1758 C 17483,1723 17468,1675 17468,1614 C 17468,1537 17493,1454 17542,1366 C 17592,1278 17657,1206 17738,1151 C 17802,1107 17861,1085 17915,1085 C 17943,1085 17967,1090 17988,1102 C 18008,1113 18028,1132 18048,1159 L 18124,887 C 18130,868 18135,852 18138,841 C 18145,820 18148,803 18148,789 C 18148,778 18144,769 18136,762 C 18125,753 18111,749 18094,749 C 18082,749 18062,751 18034,754 L 18034,725 L 18303,681 Z M 18013,1235 C 18013,1202 18004,1175 17984,1155 C 17965,1135 17941,1125 17911,1125 C 17845,1125 17777,1179 17706,1287 C 17635,1395 17599,1499 17599,1598 C 17599,1637 17608,1667 17625,1687 C 17642,1708 17663,1718 17687,1718 C 17741,1718 17809,1660 17891,1542 C 17972,1425 18013,1323 18013,1235 "  />
<path style="fill:#000000;fill-opacity:1.00;fill-rule:nonzero;stroke:none"  d="M 14895,1085 C 14913,1115 14925,1143 14932,1169 C 14939,1196 14945,1247 14952,1324 L 14986,1709 C 15018,1671 15063,1612 15122,1531 C 15151,1491 15186,1437 15229,1369 C 15254,1327 15270,1298 15276,1282 C 15279,1273 15280,1265 15280,1256 C 15280,1250 15278,1245 15275,1242 C 15271,1238 15262,1234 15246,1229 C 15231,1224 15218,1215 15208,1201 C 15198,1188 15193,1173 15193,1156 C 15193,1134 15199,1117 15211,1104 C 15224,1091 15240,1085 15258,1085 C 15281,1085 15301,1094 15317,1113 C 15333,1132 15341,1158 15341,1192 C 15341,1233 15327,1280 15299,1333 C 15271,1386 15217,1467 15136,1576 C 15056,1685 14959,1805 14845,1934 C 14766,2023 14708,2079 14670,2102 C 14632,2125 14599,2137 14572,2137 C 14556,2137 14542,2131 14530,2119 C 14518,2106 14511,2092 14511,2076 C 14511,2056 14520,2037 14537,2021 C 14554,2004 14572,1996 14592,1996 C 14602,1996 14611,1998 14618,2003 C 14622,2005 14626,2013 14631,2025 C 14636,2037 14641,2045 14645,2049 C 14648,2052 14651,2053 14654,2053 C 14658,2053 14663,2051 14671,2046 C 14699,2028 14733,2000 14771,1961 C 14821,1910 14858,1868 14882,1836 L 14838,1341 C 14831,1259 14820,1209 14805,1192 C 14791,1174 14766,1165 14732,1165 C 14721,1165 14701,1167 14673,1170 L 14666,1141 L 14895,1085 Z "  />
<path style="fill:#000000;fill-opacity:1.00;fill-rule:nonzero;stroke:none"  d="M 13032,681 L 12763,1603 C 12749,1653 12741,1685 12741,1701 C 12741,1706 12744,1711 12748,1716 C 12752,1721 12757,1723 12762,1723 C 12768,1723 12776,1720 12786,1713 C 12804,1700 12833,1669 12875,1619 L 12901,1635 C 12864,1688 12826,1730 12788,1762 C 12750,1794 12714,1810 12680,1810 C 12663,1810 12648,1804 12637,1792 C 12625,1779 12619,1761 12619,1739 C 12619,1709 12627,1669 12643,1619 L 12673,1522 C 12598,1639 12529,1720 12467,1764 C 12424,1795 12384,1810 12344,1810 C 12305,1810 12270,1793 12241,1758 C 12212,1723 12197,1675 12197,1614 C 12197,1537 12222,1454 12271,1366 C 12321,1278 12386,1206 12467,1151 C 12531,1107 12590,1085 12644,1085 C 12672,1085 12696,1090 12716,1102 C 12737,1113 12757,1132 12776,1159 L 12853,887 C 12859,868 12863,852 12867,841 C 12873,820 12876,803 12876,789 C 12876,778 12873,769 12865,762 C 12854,753 12840,749 12823,749 C 12811,749 12791,751 12763,754 L 12763,725 L 13032,681 Z M 12742,1235 C 12742,1202 12732,1175 12713,1155 C 12694,1135 12669,1125 12640,1125 C 12574,1125 12506,1179 12435,1287 C 12364,1395 12328,1499 12328,1598 C 12328,1637 12337,1667 12354,1687 C 12371,1708 12392,1718 12416,1718 C 12470,1718 12538,1660 12619,1542 C 12701,1425 12742,1323 12742,1235 "  />
<path style="fill:#000000;fill-opacity:1.00;fill-rule:nonzero;stroke:none"  d="M 9995,1085 C 10021,1112 10040,1139 10053,1166 C 10063,1185 10078,1234 10099,1314 L 10168,1210 C 10186,1185 10208,1162 10234,1139 C 10261,1116 10283,1101 10303,1092 C 10316,1087 10330,1085 10345,1085 C 10367,1085 10385,1091 10398,1103 C 10411,1115 10418,1129 10418,1146 C 10418,1166 10414,1180 10406,1187 C 10392,1200 10375,1207 10356,1207 C 10345,1207 10334,1204 10321,1200 C 10297,1191 10280,1187 10272,1187 C 10259,1187 10245,1194 10227,1209 C 10195,1236 10157,1288 10112,1366 L 10176,1635 C 10186,1676 10194,1700 10201,1708 C 10208,1717 10214,1721 10221,1721 C 10232,1721 10245,1715 10259,1703 C 10288,1679 10313,1647 10333,1609 L 10360,1623 C 10327,1684 10286,1735 10235,1776 C 10207,1799 10182,1810 10163,1810 C 10133,1810 10110,1794 10093,1761 C 10082,1741 10059,1653 10025,1499 C 9944,1640 9879,1731 9830,1771 C 9798,1797 9767,1810 9738,1810 C 9717,1810 9698,1803 9681,1788 C 9668,1776 9662,1761 9662,1742 C 9662,1724 9668,1710 9679,1699 C 9690,1687 9705,1682 9721,1682 C 9738,1682 9756,1690 9774,1707 C 9788,1718 9798,1724 9806,1724 C 9812,1724 9820,1720 9830,1712 C 9854,1692 9888,1649 9930,1584 C 9972,1518 10000,1471 10013,1442 C 9980,1315 9963,1248 9960,1241 C 9948,1207 9933,1183 9913,1169 C 9894,1155 9866,1148 9828,1148 C 9816,1148 9802,1148 9787,1150 L 9787,1121 L 9995,1085 Z "  />
<path style="fill:#000000;fill-opacity:1.00;fill-rule:nonzero;stroke:none"  d="M 8185,681 L 7917,1603 C 7902,1653 7895,1685 7895,1701 C 7895,1706 7897,1711 7901,1716 C 7906,1721 7910,1723 7915,1723 C 7922,1723 7930,1720 7939,1713 C 7957,1700 7987,1669 8028,1619 L 8055,1635 C 8017,1688 7980,1730 7941,1762 C 7903,1794 7867,1810 7834,1810 C 7816,1810 7802,1804 7790,1792 C 7779,1779 7773,1761 7773,1739 C 7773,1709 7781,1669 7796,1619 L 7827,1522 C 7751,1639 7683,1720 7621,1764 C 7578,1795 7537,1810 7498,1810 C 7458,1810 7424,1793 7394,1758 C 7365,1723 7350,1675 7350,1614 C 7350,1537 7375,1454 7424,1366 C 7474,1278 7539,1206 7621,1151 C 7685,1107 7743,1085 7797,1085 C 7825,1085 7849,1090 7870,1102 C 7890,1113 7910,1132 7930,1159 L 8006,887 C 8012,868 8017,852 8021,841 C 8027,820 8030,803 8030,789 C 8030,778 8026,769 8018,762 C 8007,753 7993,749 7976,749 C 7964,749 7944,751 7917,754 L 7917,725 L 8185,681 Z M 7896,1235 C 7896,1202 7886,1175 7867,1155 C 7847,1135 7823,1125 7793,1125 C 7728,1125 7659,1179 7588,1287 C 7517,1395 7482,1499 7482,1598 C 7482,1637 7490,1667 7507,1687 C 7524,1708 7545,1718 7569,1718 C 7623,1718 7691,1660 7773,1542 C 7855,1425 7896,1323 7896,1235 "  />
<path style="fill:#000000;fill-opacity:1.00;fill-rule:nonzero;stroke:none"  d="M 3665,2093 L 3513,2623 L 3496,2694 C 3494,2701 3493,2706 3493,2711 C 3493,2719 3496,2727 3501,2733 C 3505,2738 3511,2740 3517,2740 C 3524,2740 3533,2736 3543,2727 C 3564,2712 3591,2681 3625,2634 L 3651,2652 C 3615,2707 3578,2748 3540,2776 C 3502,2805 3467,2819 3435,2819 C 3412,2819 3396,2813 3384,2802 C 3373,2791 3368,2774 3368,2753 C 3368,2728 3373,2694 3385,2652 L 3401,2594 C 3333,2683 3270,2745 3213,2780 C 3172,2806 3132,2819 3092,2819 C 3054,2819 3021,2803 2993,2771 C 2966,2740 2952,2697 2952,2641 C 2952,2559 2977,2471 3027,2379 C 3076,2287 3140,2214 3216,2159 C 3276,2115 3333,2093 3386,2093 C 3417,2093 3444,2101 3465,2118 C 3486,2135 3502,2162 3513,2201 L 3541,2112 L 3665,2093 Z M 3387,2134 C 3354,2134 3318,2149 3281,2180 C 3228,2225 3181,2290 3139,2377 C 3098,2464 3077,2543 3077,2613 C 3077,2649 3086,2677 3104,2697 C 3121,2718 3142,2728 3165,2728 C 3221,2728 3283,2686 3350,2602 C 3439,2491 3483,2377 3483,2259 C 3483,2215 3475,2183 3458,2163 C 3440,2144 3417,2134 3387,2134 M 3798,2137 L 4068,2093 L 3955,2473 C 4046,2317 4129,2208 4204,2146 C 4246,2111 4280,2093 4307,2093 C 4324,2093 4337,2098 4347,2108 C 4357,2118 4362,2133 4362,2152 C 4362,2187 4353,2220 4336,2251 C 4323,2274 4305,2286 4282,2286 C 4270,2286 4259,2282 4251,2274 C 4242,2266 4237,2254 4235,2238 C 4234,2228 4232,2222 4228,2219 C 4224,2215 4219,2213 4213,2213 C 4204,2213 4196,2215 4188,2219 C 4174,2226 4154,2246 4126,2280 C 4083,2331 4036,2397 3986,2478 C 3964,2513 3945,2551 3929,2595 C 3908,2654 3895,2690 3892,2702 L 3867,2800 L 3747,2800 L 3892,2315 C 3909,2259 3917,2219 3917,2195 C 3917,2185 3913,2177 3905,2171 C 3895,2163 3881,2159 3864,2159 C 3853,2159 3833,2161 3804,2166 L 3798,2137 Z M 4896,2630 C 4842,2695 4787,2743 4732,2773 C 4677,2804 4618,2819 4557,2819 C 4483,2819 4425,2798 4384,2756 C 4342,2715 4322,2659 4322,2588 C 4322,2509 4344,2430 4389,2353 C 4433,2276 4493,2213 4568,2165 C 4643,2117 4717,2093 4790,2093 C 4846,2093 4889,2105 4917,2129 C 4945,2152 4959,2181 4959,2216 C 4959,2248 4949,2276 4930,2298 C 4915,2316 4897,2325 4876,2325 C 4859,2325 4846,2320 4835,2309 C 4825,2299 4819,2286 4819,2270 C 4819,2260 4821,2251 4825,2243 C 4829,2235 4837,2225 4849,2213 C 4862,2201 4869,2193 4872,2188 C 4874,2182 4876,2177 4876,2171 C 4876,2160 4871,2151 4861,2144 C 4846,2133 4824,2128 4797,2128 C 4746,2128 4695,2146 4645,2182 C 4595,2218 4552,2269 4517,2335 C 4474,2415 4453,2496 4453,2576 C 4453,2629 4468,2671 4498,2702 C 4528,2733 4570,2748 4622,2748 C 4662,2748 4702,2738 4741,2718 C 4780,2698 4824,2662 4873,2609 L 4896,2630 Z M 5404,1899 L 5343,2112 L 5465,2112 L 5452,2161 L 5330,2161 L 5196,2622 C 5181,2671 5174,2703 5174,2718 C 5174,2727 5176,2734 5180,2738 C 5184,2743 5189,2745 5195,2745 C 5208,2745 5225,2736 5247,2718 C 5259,2708 5287,2676 5330,2622 L 5356,2641 C 5308,2711 5263,2760 5220,2789 C 5191,2809 5162,2819 5132,2819 C 5109,2819 5090,2812 5076,2797 C 5061,2783 5054,2765 5054,2742 C 5054,2714 5062,2671 5079,2613 L 5209,2161 L 5091,2161 L 5099,2130 C 5156,2115 5204,2092 5242,2061 C 5280,2030 5323,1976 5369,1899 L 5404,1899 Z M 6266,2141 L 6244,2223 L 6113,2223 C 6123,2251 6128,2277 6128,2302 C 6128,2370 6099,2432 6040,2485 C 5982,2539 5901,2568 5798,2574 C 5743,2591 5702,2611 5674,2634 C 5664,2642 5658,2651 5658,2659 C 5658,2670 5663,2679 5673,2688 C 5682,2696 5706,2705 5744,2714 L 5895,2749 C 5979,2769 6034,2792 6062,2820 C 6088,2847 6101,2879 6101,2915 C 6101,2958 6086,2997 6054,3032 C 6023,3067 5977,3095 5916,3115 C 5855,3135 5788,3145 5715,3145 C 5650,3145 5591,3138 5538,3122 C 5485,3107 5447,3086 5424,3060 C 5401,3034 5390,3007 5390,2980 C 5390,2957 5397,2934 5412,2910 C 5427,2886 5445,2866 5468,2850 C 5482,2840 5522,2817 5587,2780 C 5563,2761 5551,2740 5551,2718 C 5551,2697 5562,2675 5583,2652 C 5604,2628 5649,2602 5717,2574 C 5660,2563 5614,2539 5581,2502 C 5547,2465 5530,2424 5530,2379 C 5530,2305 5563,2239 5628,2180 C 5692,2122 5779,2093 5887,2093 C 5926,2093 5958,2097 5983,2105 C 6008,2113 6032,2125 6055,2141 L 6266,2141 Z M 5995,2264 C 5995,2222 5984,2190 5960,2166 C 5937,2142 5907,2130 5869,2130 C 5811,2130 5762,2159 5724,2218 C 5685,2277 5666,2339 5666,2403 C 5666,2443 5678,2476 5703,2502 C 5727,2527 5757,2540 5792,2540 C 5820,2540 5846,2532 5872,2517 C 5898,2502 5920,2481 5937,2455 C 5955,2428 5969,2394 5980,2353 C 5990,2312 5995,2282 5995,2264 M 5621,2800 C 5579,2819 5547,2844 5525,2874 C 5504,2904 5493,2934 5493,2963 C 5493,2998 5508,3026 5540,3048 C 5584,3081 5650,3097 5737,3097 C 5811,3097 5875,3084 5928,3059 C 5980,3034 6007,3001 6007,2961 C 6007,2941 5997,2921 5978,2903 C 5958,2885 5920,2870 5864,2859 C 5833,2852 5752,2833 5621,2800 "  />
<path style="fill:#000000;fill-opacity:1.00;fill-rule:nonzero;stroke:none"  d="M 558,2778 L 710,2284 C 735,2205 768,2148 809,2114 C 850,2080 897,2063 952,2063 C 1031,2063 1091,2098 1132,2166 C 1172,2235 1177,2320 1145,2422 C 1124,2490 1087,2557 1033,2621 C 979,2686 921,2734 858,2765 C 795,2796 718,2815 629,2822 L 529,3145 L 444,3145 L 544,2822 C 467,2815 406,2796 362,2765 C 318,2734 290,2686 276,2622 C 262,2558 266,2492 287,2423 C 305,2366 332,2312 370,2263 C 407,2213 446,2174 485,2145 C 525,2117 563,2096 599,2084 C 635,2072 678,2065 725,2063 L 716,2093 C 668,2097 619,2123 567,2173 C 516,2222 474,2301 440,2409 C 416,2488 408,2555 415,2611 C 422,2666 440,2708 469,2735 C 487,2753 517,2767 558,2778 M 643,2777 C 698,2771 744,2759 782,2740 C 835,2714 880,2677 919,2629 C 957,2581 986,2524 1007,2457 C 1036,2363 1036,2285 1008,2223 C 988,2178 955,2155 911,2155 C 889,2155 867,2165 847,2185 C 827,2204 807,2246 788,2309 L 643,2777 Z "  />
</svg>