<svg width="147px" height="33px" viewBox="0 0 14700 3300" version="1.1" xmlns="http://www.w3.org/2000/svg" xmlns:xlink="http://www.w3.org/1999/xlink">
<path style="fill:none;stroke:#000000;stroke-width:66px;stroke-opacity:1.00;"  d="M 9271,326 L 9271,2578 "  />
<path style="fill:none;stroke:#000000;stroke-width:66px;stroke-opacity:1.00;"  d="M 14366,326 L 14366,2578 "  />
<path style="fill:#000000;fill-opacity:1.00;fill-rule:nonzero;stroke:none"  d="M 13687,1657 C 13700,1657 13710,1661 13719,1670 C 13728,1678 13732,1689 13732,1702 C 13732,1714 13728,1725 13719,1734 C 13710,1742 13700,1747 13687,1747 C 13675,1747 13664,1742 13655,1734 C 13647,1725 13642,1714 13642,1702 C 13642,1689 13646,1678 13655,1670 C 13664,1661 13675,1657 13687,1657 M 13693,1836 L 13604,2152 C 13598,2173 13595,2186 13595,2190 C 13595,2195 13596,2199 13599,2202 C 13602,2205 13605,2207 13609,2207 C 13614,2207 13619,2204 13625,2199 C 13643,2186 13660,2167 13677,2142 L 13693,2152 C 13673,2183 13649,2210 13621,2231 C 13600,2247 13581,2255 13562,2255 C 13550,2255 13540,2251 13532,2244 C 13524,2236 13520,2227 13520,2216 C 13520,2205 13524,2186 13532,2161 L 13590,1958 C 13600,1925 13605,1905 13605,1896 C 13605,1890 13602,1884 13598,1880 C 13593,1876 13587,1874 13578,1874 C 13572,1874 13558,1875 13537,1879 L 13537,1861 L 13693,1836 Z M 13949,1657 C 13961,1657 13972,1662 13981,1670 C 13990,1679 13994,1690 13994,1703 C 13994,1715 13990,1726 13981,1735 C 13972,1744 13961,1748 13949,1748 C 13936,1748 13925,1744 13917,1735 C 13908,1726 13903,1715 13903,1703 C 13903,1690 13908,1679 13917,1670 C 13925,1662 13936,1657 13949,1657 M 13956,1836 L 13839,2239 C 13818,2312 13790,2364 13754,2396 C 13718,2427 13678,2443 13636,2443 C 13617,2443 13603,2439 13593,2430 C 13583,2422 13578,2411 13578,2399 C 13578,2390 13582,2382 13590,2375 C 13597,2368 13605,2364 13615,2364 C 13624,2364 13631,2367 13638,2373 C 13643,2377 13646,2382 13646,2388 C 13646,2396 13642,2402 13635,2408 C 13631,2412 13629,2414 13629,2416 L 13629,2419 C 13630,2420 13632,2421 13634,2421 C 13635,2422 13638,2422 13642,2422 C 13666,2422 13687,2414 13704,2399 C 13721,2383 13737,2353 13750,2306 L 13851,1960 C 13861,1926 13866,1907 13866,1903 C 13866,1896 13863,1890 13857,1884 C 13850,1878 13842,1875 13832,1875 C 13828,1875 13824,1876 13818,1877 C 13815,1877 13809,1878 13801,1879 L 13801,1864 L 13956,1836 Z "  />
<path style="fill:#000000;fill-opacity:1.00;fill-rule:nonzero;stroke:none"  d="M 10463,1657 C 10476,1657 10487,1661 10495,1670 C 10504,1678 10508,1689 10508,1702 C 10508,1714 10504,1725 10495,1734 C 10486,1742 10476,1747 10463,1747 C 10451,1747 10440,1742 10431,1734 C 10423,1725 10418,1714 10418,1702 C 10418,1689 10422,1678 10431,1670 C 10440,1661 10451,1657 10463,1657 M 10469,1836 L 10380,2152 C 10374,2173 10371,2186 10371,2190 C 10371,2195 10372,2199 10375,2202 C 10378,2205 10381,2207 10385,2207 C 10390,2207 10395,2204 10401,2199 C 10419,2186 10436,2167 10453,2142 L 10469,2152 C 10449,2183 10425,2210 10397,2231 C 10376,2247 10357,2255 10338,2255 C 10326,2255 10316,2251 10308,2244 C 10300,2236 10296,2227 10296,2216 C 10296,2205 10300,2186 10308,2161 L 10366,1958 C 10376,1925 10381,1905 10381,1896 C 10381,1890 10378,1884 10374,1880 C 10369,1876 10363,1874 10354,1874 C 10348,1874 10334,1875 10313,1879 L 10313,1861 L 10469,1836 Z M 10725,1657 C 10738,1657 10748,1662 10757,1670 C 10766,1679 10770,1690 10770,1703 C 10770,1715 10766,1726 10757,1735 C 10748,1744 10738,1748 10725,1748 C 10712,1748 10702,1744 10693,1735 C 10684,1726 10679,1715 10679,1703 C 10679,1690 10684,1679 10693,1670 C 10702,1662 10712,1657 10725,1657 M 10732,1836 L 10615,2239 C 10595,2312 10566,2364 10530,2396 C 10494,2427 10454,2443 10412,2443 C 10393,2443 10379,2439 10369,2430 C 10359,2422 10355,2411 10355,2399 C 10355,2390 10358,2382 10366,2375 C 10373,2368 10381,2364 10391,2364 C 10400,2364 10407,2367 10414,2373 C 10419,2377 10422,2382 10422,2388 C 10422,2396 10418,2402 10411,2408 C 10407,2412 10405,2414 10405,2416 L 10405,2419 C 10406,2420 10408,2421 10410,2421 C 10411,2422 10414,2422 10418,2422 C 10442,2422 10463,2414 10480,2399 C 10497,2383 10513,2353 10526,2306 L 10627,1960 C 10637,1926 10642,1907 10642,1903 C 10642,1896 10639,1890 10633,1884 C 10626,1878 10618,1875 10608,1875 C 10604,1875 10600,1876 10595,1877 C 10591,1877 10585,1878 10577,1879 L 10577,1864 L 10732,1836 Z "  />
<path style="fill:#000000;fill-opacity:1.00;fill-rule:nonzero;stroke:none"  d="M 8209,2210 C 8222,2210 8232,2214 8241,2223 C 8250,2232 8254,2243 8254,2255 C 8254,2268 8250,2279 8241,2288 C 8232,2297 8222,2301 8209,2301 C 8196,2301 8185,2297 8177,2288 C 8168,2279 8163,2268 8163,2255 C 8163,2243 8168,2232 8177,2223 C 8185,2214 8196,2210 8209,2210 M 8216,2388 L 8099,2792 C 8079,2864 8050,2916 8014,2948 C 7978,2980 7938,2996 7896,2996 C 7877,2996 7863,2992 7853,2983 C 7843,2974 7838,2964 7838,2952 C 7838,2943 7842,2934 7850,2927 C 7857,2920 7865,2917 7875,2917 C 7884,2917 7891,2920 7898,2925 C 7903,2930 7906,2935 7906,2941 C 7906,2948 7902,2955 7895,2961 C 7891,2964 7889,2967 7889,2969 L 7889,2971 C 7890,2973 7892,2973 7894,2974 C 7895,2975 7898,2975 7902,2975 C 7926,2975 7947,2967 7964,2952 C 7981,2936 7997,2905 8010,2859 L 8111,2513 C 8121,2479 8126,2460 8126,2456 C 8126,2449 8123,2442 8117,2437 C 8110,2431 8102,2428 8092,2428 C 8088,2428 8084,2429 8079,2430 C 8075,2430 8069,2431 8061,2432 L 8061,2416 L 8216,2388 Z "  />
<path style="fill:#000000;fill-opacity:1.00;fill-rule:nonzero;stroke:none"  d="M 7427,2209 C 7440,2209 7450,2214 7459,2222 C 7468,2231 7472,2242 7472,2254 C 7472,2267 7468,2277 7459,2286 C 7450,2295 7439,2300 7427,2300 C 7415,2300 7404,2295 7395,2286 C 7386,2277 7382,2267 7382,2254 C 7382,2242 7386,2231 7395,2222 C 7404,2214 7415,2209 7427,2209 M 7433,2388 L 7344,2705 C 7338,2726 7335,2739 7335,2743 C 7335,2748 7336,2752 7339,2755 C 7342,2758 7345,2759 7349,2759 C 7354,2759 7359,2757 7365,2752 C 7382,2739 7400,2719 7417,2694 L 7433,2705 C 7413,2736 7389,2762 7361,2784 C 7340,2800 7321,2808 7302,2808 C 7290,2808 7280,2804 7272,2797 C 7264,2789 7260,2780 7260,2769 C 7260,2758 7264,2739 7272,2713 L 7330,2511 C 7340,2478 7345,2457 7345,2449 C 7345,2442 7342,2437 7338,2433 C 7333,2428 7327,2426 7318,2426 C 7312,2426 7298,2428 7277,2431 L 7277,2414 L 7433,2388 Z "  />
<path style="fill:#000000;fill-opacity:1.00;fill-rule:nonzero;stroke:none"  d="M 12965,1148 C 12983,1178 12995,1206 13001,1232 C 13008,1258 13015,1309 13022,1385 L 13056,1766 C 13087,1729 13131,1670 13190,1590 C 13219,1550 13254,1497 13295,1430 C 13321,1388 13336,1359 13342,1343 C 13345,1335 13346,1326 13346,1317 C 13346,1312 13345,1307 13341,1303 C 13337,1300 13328,1296 13313,1291 C 13298,1286 13285,1277 13275,1264 C 13265,1250 13260,1235 13260,1218 C 13260,1197 13266,1180 13278,1167 C 13291,1154 13306,1148 13325,1148 C 13347,1148 13367,1157 13383,1176 C 13399,1195 13407,1221 13407,1254 C 13407,1295 13393,1341 13365,1394 C 13337,1446 13283,1526 13204,1635 C 13125,1743 13029,1861 12916,1989 C 12838,2077 12780,2133 12742,2155 C 12705,2178 12672,2190 12646,2190 C 12630,2190 12616,2184 12603,2172 C 12591,2160 12585,2146 12585,2130 C 12585,2109 12594,2091 12610,2075 C 12627,2058 12645,2050 12665,2050 C 12675,2050 12684,2052 12691,2057 C 12695,2059 12699,2067 12704,2079 C 12709,2091 12713,2099 12718,2103 C 12720,2106 12723,2107 12727,2107 C 12730,2107 12735,2105 12743,2099 C 12771,2082 12804,2054 12842,2016 C 12892,1965 12928,1924 12952,1892 L 12909,1402 C 12901,1321 12891,1272 12876,1254 C 12862,1236 12837,1228 12803,1228 C 12793,1228 12773,1229 12745,1232 L 12738,1204 L 12965,1148 Z "  />
<path style="fill:#000000;fill-opacity:1.00;fill-rule:nonzero;stroke:none"  d="M 9788,1148 C 9813,1175 9832,1202 9845,1228 C 9854,1247 9870,1296 9891,1375 L 9959,1273 C 9977,1248 9999,1224 10025,1202 C 10050,1179 10073,1164 10093,1156 C 10105,1151 10119,1148 10134,1148 C 10156,1148 10173,1154 10187,1166 C 10200,1178 10206,1192 10206,1209 C 10206,1229 10202,1242 10195,1249 C 10180,1262 10164,1269 10145,1269 C 10134,1269 10123,1266 10110,1262 C 10086,1253 10070,1249 10062,1249 C 10049,1249 10035,1257 10018,1271 C 9986,1298 9947,1350 9903,1426 L 9966,1693 C 9976,1733 9985,1758 9991,1766 C 9998,1774 10005,1778 10011,1778 C 10022,1778 10035,1772 10049,1760 C 10078,1736 10102,1705 10122,1667 L 10149,1681 C 10117,1742 10075,1792 10025,1833 C 9997,1855 9973,1867 9953,1867 C 9924,1867 9902,1850 9885,1818 C 9874,1798 9851,1711 9817,1558 C 9737,1698 9672,1788 9624,1828 C 9592,1854 9562,1867 9533,1867 C 9512,1867 9493,1859 9476,1844 C 9464,1833 9458,1818 9458,1798 C 9458,1781 9463,1767 9475,1756 C 9486,1745 9500,1739 9516,1739 C 9533,1739 9550,1747 9569,1764 C 9582,1776 9593,1781 9600,1781 C 9606,1781 9614,1777 9624,1769 C 9648,1750 9681,1707 9723,1642 C 9765,1577 9792,1530 9805,1501 C 9773,1376 9756,1310 9753,1303 C 9741,1269 9726,1245 9707,1232 C 9688,1218 9659,1211 9622,1211 C 9610,1211 9597,1211 9581,1212 L 9581,1184 L 9788,1148 Z "  />
<path style="fill:#000000;fill-opacity:1.00;fill-rule:nonzero;stroke:none"  d="M 3602,1148 C 3620,1178 3632,1206 3639,1232 C 3645,1258 3652,1309 3659,1385 L 3693,1766 C 3724,1729 3768,1670 3827,1590 C 3856,1550 3891,1497 3932,1430 C 3958,1388 3973,1359 3979,1343 C 3982,1335 3984,1326 3984,1317 C 3984,1312 3982,1307 3978,1303 C 3974,1300 3965,1296 3950,1291 C 3935,1286 3922,1277 3912,1264 C 3902,1250 3897,1235 3897,1218 C 3897,1197 3903,1180 3915,1167 C 3928,1154 3943,1148 3962,1148 C 3985,1148 4004,1157 4020,1176 C 4036,1195 4044,1221 4044,1254 C 4044,1295 4030,1341 4002,1394 C 3974,1446 3921,1526 3841,1635 C 3762,1743 3666,1861 3553,1989 C 3475,2077 3417,2133 3379,2155 C 3342,2178 3310,2190 3283,2190 C 3267,2190 3253,2184 3241,2172 C 3228,2160 3222,2146 3222,2130 C 3222,2109 3231,2091 3248,2075 C 3264,2058 3282,2050 3302,2050 C 3312,2050 3321,2052 3328,2057 C 3332,2059 3336,2067 3341,2079 C 3346,2091 3351,2099 3355,2103 C 3357,2106 3360,2107 3364,2107 C 3367,2107 3372,2105 3380,2099 C 3409,2082 3442,2054 3479,2016 C 3529,1965 3565,1924 3589,1892 L 3546,1402 C 3539,1321 3528,1272 3513,1254 C 3499,1236 3475,1228 3441,1228 C 3430,1228 3410,1229 3383,1232 L 3376,1204 L 3602,1148 Z "  />
<path style="fill:#000000;fill-opacity:1.00;fill-rule:nonzero;stroke:none"  d="M 2145,1148 C 2171,1175 2190,1202 2203,1228 C 2212,1247 2227,1296 2248,1375 L 2316,1273 C 2334,1248 2356,1224 2382,1202 C 2408,1179 2431,1164 2450,1156 C 2463,1151 2476,1148 2491,1148 C 2513,1148 2531,1154 2544,1166 C 2557,1178 2564,1192 2564,1209 C 2564,1229 2560,1242 2552,1249 C 2538,1262 2521,1269 2503,1269 C 2492,1269 2480,1266 2468,1262 C 2444,1253 2428,1249 2419,1249 C 2407,1249 2392,1257 2375,1271 C 2343,1298 2305,1350 2261,1426 L 2324,1693 C 2334,1733 2342,1758 2349,1766 C 2356,1774 2362,1778 2369,1778 C 2380,1778 2392,1772 2407,1760 C 2435,1736 2460,1705 2480,1667 L 2507,1681 C 2474,1742 2433,1792 2383,1833 C 2355,1855 2331,1867 2311,1867 C 2282,1867 2259,1850 2242,1818 C 2231,1798 2209,1711 2175,1558 C 2094,1698 2030,1788 1982,1828 C 1950,1854 1920,1867 1890,1867 C 1870,1867 1851,1859 1834,1844 C 1821,1833 1815,1818 1815,1798 C 1815,1781 1821,1767 1832,1756 C 1844,1745 1858,1739 1874,1739 C 1891,1739 1908,1747 1927,1764 C 1940,1776 1950,1781 1958,1781 C 1964,1781 1972,1777 1982,1769 C 2006,1750 2039,1707 2081,1642 C 2122,1577 2150,1530 2163,1501 C 2131,1376 2113,1310 2111,1303 C 2099,1269 2083,1245 2064,1232 C 2045,1218 2017,1211 1980,1211 C 1968,1211 1954,1211 1939,1212 L 1939,1184 L 2145,1148 Z "  />
<path style="fill:#000000;fill-opacity:1.00;fill-rule:nonzero;stroke:none"  d="M 1099,748 L 833,1661 C 819,1710 811,1743 811,1758 C 811,1763 814,1768 818,1773 C 822,1778 827,1780 832,1780 C 838,1780 846,1777 856,1770 C 873,1758 903,1727 944,1677 L 970,1693 C 933,1745 895,1787 858,1819 C 820,1851 784,1867 751,1867 C 734,1867 719,1860 708,1848 C 696,1836 691,1818 691,1795 C 691,1766 699,1727 714,1677 L 744,1581 C 669,1697 601,1777 540,1821 C 498,1851 457,1867 419,1867 C 379,1867 345,1849 316,1814 C 287,1780 272,1732 272,1672 C 272,1596 297,1514 346,1426 C 395,1339 460,1268 540,1214 C 603,1170 662,1148 715,1148 C 743,1148 767,1154 787,1165 C 807,1176 827,1195 846,1221 L 922,952 C 928,933 932,918 936,907 C 942,886 945,869 945,856 C 945,845 941,836 934,829 C 923,820 909,815 892,815 C 880,815 860,817 833,821 L 833,792 L 1099,748 Z M 812,1297 C 812,1264 803,1238 784,1218 C 765,1198 740,1187 711,1187 C 646,1187 578,1241 508,1348 C 438,1456 402,1558 402,1656 C 402,1695 411,1724 428,1745 C 445,1765 465,1775 489,1775 C 543,1775 610,1717 691,1601 C 772,1485 812,1384 812,1297 "  />
<path style="fill:#000000;fill-opacity:1.00;fill-rule:nonzero;stroke:none"  d="M 11388,1402 L 12200,1402 L 12200,1479 L 11388,1479 L 11388,1402 Z "  />
<path style="fill:#000000;fill-opacity:1.00;fill-rule:nonzero;stroke:none"  d="M 5107,1261 L 5919,1261 L 5919,1336 L 5107,1336 L 5107,1261 Z M 5107,1549 L 5919,1549 L 5919,1626 L 5107,1626 L 5107,1549 Z "  />
<path style="fill:#000000;fill-opacity:1.00;fill-rule:nonzero;stroke:none"  d="M 7600,2951 L 7600,2931 C 7631,2921 7655,2905 7672,2883 C 7689,2862 7698,2839 7698,2815 C 7698,2809 7696,2804 7693,2800 C 7691,2798 7689,2796 7687,2796 C 7684,2796 7677,2799 7665,2805 C 7660,2808 7654,2809 7648,2809 C 7634,2809 7622,2805 7613,2796 C 7604,2788 7600,2776 7600,2760 C 7600,2745 7606,2733 7617,2722 C 7628,2712 7642,2707 7658,2707 C 7678,2707 7696,2715 7711,2732 C 7727,2750 7735,2773 7735,2801 C 7735,2832 7724,2861 7702,2888 C 7681,2914 7647,2935 7600,2951 "  />
<path style="fill:#000000;fill-opacity:1.00;fill-rule:nonzero;stroke:none"  d="M 6641,1269 C 6693,1218 6723,1188 6732,1180 C 6755,1161 6781,1146 6807,1135 C 6834,1124 6861,1119 6887,1119 C 6931,1119 6969,1132 7001,1157 C 7033,1183 7055,1220 7066,1269 C 7119,1208 7164,1167 7200,1148 C 7237,1128 7274,1119 7313,1119 C 7351,1119 7384,1128 7413,1148 C 7442,1167 7466,1199 7483,1242 C 7494,1272 7500,1319 7500,1383 L 7500,1688 C 7500,1732 7503,1763 7510,1779 C 7515,1791 7524,1800 7538,1808 C 7552,1816 7575,1820 7606,1820 L 7606,1848 L 7257,1848 L 7257,1820 L 7271,1820 C 7302,1820 7326,1814 7343,1802 C 7354,1794 7363,1781 7368,1763 C 7370,1754 7371,1729 7371,1688 L 7371,1383 C 7371,1325 7364,1285 7350,1261 C 7330,1228 7298,1211 7254,1211 C 7226,1211 7199,1218 7171,1232 C 7144,1246 7110,1271 7071,1308 L 7070,1317 L 7071,1350 L 7071,1688 C 7071,1736 7074,1767 7079,1778 C 7085,1790 7095,1800 7110,1808 C 7125,1816 7150,1820 7186,1820 L 7186,1848 L 6828,1848 L 6828,1820 C 6867,1820 6894,1816 6909,1806 C 6924,1797 6934,1783 6940,1764 C 6942,1756 6943,1730 6943,1688 L 6943,1383 C 6943,1325 6935,1284 6918,1259 C 6895,1226 6864,1209 6823,1209 C 6795,1209 6767,1217 6740,1232 C 6697,1254 6664,1280 6641,1308 L 6641,1688 C 6641,1734 6644,1764 6651,1778 C 6657,1792 6667,1803 6679,1810 C 6692,1817 6718,1820 6756,1820 L 6756,1848 L 6406,1848 L 6406,1820 C 6438,1820 6461,1817 6474,1810 C 6487,1803 6497,1792 6503,1776 C 6510,1761 6513,1732 6513,1688 L 6513,1417 C 6513,1339 6511,1289 6506,1266 C 6503,1249 6497,1238 6489,1231 C 6482,1225 6471,1221 6458,1221 C 6443,1221 6426,1225 6406,1233 L 6394,1205 L 6608,1119 L 6641,1119 L 6641,1269 Z M 8064,1746 C 7991,1802 7946,1835 7927,1843 C 7899,1856 7870,1863 7838,1863 C 7789,1863 7749,1846 7717,1812 C 7686,1779 7670,1735 7670,1680 C 7670,1646 7677,1616 7693,1590 C 7714,1555 7751,1522 7803,1491 C 7855,1460 7942,1423 8064,1379 L 8064,1351 C 8064,1280 8053,1232 8031,1205 C 8008,1179 7975,1166 7933,1166 C 7900,1166 7874,1175 7855,1192 C 7836,1210 7826,1230 7826,1252 L 7827,1297 C 7827,1321 7821,1339 7809,1352 C 7797,1365 7781,1372 7762,1372 C 7743,1372 7727,1365 7715,1351 C 7703,1338 7697,1320 7697,1297 C 7697,1252 7719,1211 7765,1174 C 7810,1137 7874,1119 7956,1119 C 8019,1119 8070,1129 8111,1150 C 8141,1166 8163,1191 8178,1225 C 8187,1248 8192,1293 8192,1361 L 8192,1602 C 8192,1670 8193,1711 8196,1726 C 8198,1741 8202,1752 8208,1757 C 8214,1762 8221,1764 8229,1764 C 8237,1764 8244,1763 8251,1759 C 8261,1752 8282,1734 8313,1703 L 8313,1746 C 8255,1823 8200,1862 8148,1862 C 8122,1862 8102,1853 8087,1836 C 8072,1818 8065,1788 8064,1746 M 8064,1696 L 8064,1426 C 7986,1457 7936,1479 7913,1491 C 7873,1514 7843,1538 7826,1563 C 7808,1587 7800,1614 7800,1644 C 7800,1681 7811,1712 7833,1736 C 7855,1761 7881,1773 7909,1773 C 7949,1773 8000,1747 8064,1696 M 8337,1140 L 8671,1140 L 8671,1168 C 8649,1168 8635,1172 8626,1179 C 8618,1186 8613,1196 8613,1208 C 8613,1220 8622,1239 8640,1265 C 8646,1273 8655,1286 8666,1303 L 8716,1384 L 8774,1303 C 8811,1252 8830,1220 8830,1207 C 8830,1196 8825,1187 8817,1179 C 8808,1172 8794,1168 8774,1168 L 8774,1140 L 9014,1140 L 9014,1168 C 8989,1170 8967,1177 8948,1189 C 8923,1207 8888,1245 8845,1303 L 8748,1433 L 8924,1686 C 8968,1749 8998,1786 9017,1799 C 9036,1812 9060,1819 9089,1820 L 9089,1848 L 8755,1848 L 8755,1820 C 8778,1820 8796,1815 8809,1805 C 8819,1797 8824,1788 8824,1776 C 8824,1764 8807,1734 8774,1686 L 8671,1535 L 8557,1686 C 8522,1733 8504,1761 8504,1770 C 8504,1782 8510,1793 8522,1804 C 8533,1814 8551,1819 8574,1820 L 8574,1848 L 8343,1848 L 8343,1820 C 8361,1818 8377,1811 8391,1801 C 8411,1786 8444,1748 8490,1686 L 8639,1489 L 8504,1294 C 8466,1239 8437,1204 8416,1189 C 8395,1175 8369,1168 8337,1168 L 8337,1140 Z "  />
<path style="fill:#000000;fill-opacity:1.00;fill-rule:nonzero;stroke:none"  d="M 4162,781 L 4162,748 C 4240,787 4305,832 4357,885 C 4431,960 4488,1049 4528,1150 C 4568,1251 4589,1357 4589,1467 C 4589,1627 4549,1772 4471,1904 C 4392,2036 4289,2130 4162,2187 L 4162,2158 C 4225,2123 4277,2074 4318,2014 C 4359,1953 4390,1876 4409,1783 C 4429,1689 4439,1591 4439,1490 C 4439,1380 4431,1280 4414,1189 C 4401,1118 4385,1061 4365,1018 C 4346,975 4320,934 4288,894 C 4256,855 4214,817 4162,781 "  />
<path style="fill:#000000;fill-opacity:1.00;fill-rule:nonzero;stroke:none"  d="M 2683,2112 L 2683,2078 C 2736,2060 2777,2033 2806,1996 C 2835,1959 2850,1920 2850,1879 C 2850,1869 2847,1861 2843,1854 C 2839,1850 2836,1847 2832,1847 C 2826,1847 2814,1852 2795,1863 C 2786,1867 2776,1870 2765,1870 C 2740,1870 2720,1862 2705,1847 C 2690,1832 2683,1812 2683,1785 C 2683,1760 2692,1738 2712,1720 C 2731,1702 2755,1693 2782,1693 C 2816,1693 2847,1708 2873,1738 C 2900,1767 2913,1807 2913,1856 C 2913,1909 2895,1958 2858,2004 C 2821,2049 2763,2085 2683,2112 "  />
<path style="fill:#000000;fill-opacity:1.00;fill-rule:nonzero;stroke:none"  d="M 1711,2158 L 1711,2187 C 1633,2148 1569,2102 1516,2049 C 1442,1974 1385,1886 1345,1785 C 1305,1683 1284,1578 1284,1468 C 1284,1308 1324,1163 1403,1031 C 1482,899 1585,805 1711,748 L 1711,781 C 1648,816 1596,864 1555,924 C 1514,985 1484,1062 1464,1156 C 1444,1249 1434,1347 1434,1448 C 1434,1558 1442,1659 1459,1749 C 1473,1820 1489,1877 1508,1920 C 1527,1963 1553,2005 1585,2044 C 1617,2084 1659,2122 1711,2158 "  />
</svg>