<svg width="17px" height="25px" viewBox="0 0 1700 2500" version="1.1" xmlns="http://www.w3.org/2000/svg" xmlns:xlink="http://www.w3.org/1999/xlink">
<path style="fill:#000000;fill-opacity:1.00;fill-rule:nonzero;stroke:none"  d="M 1405,1567 L 1258,2075 C 1252,2098 1248,2113 1248,2120 C 1248,2127 1250,2133 1253,2138 C 1257,2143 1262,2146 1268,2149 C 1277,2152 1289,2154 1304,2154 L 1299,2171 L 1084,2171 L 1089,2154 C 1118,2152 1136,2149 1143,2146 C 1155,2142 1164,2135 1172,2124 C 1179,2114 1187,2093 1196,2060 L 1258,1838 C 1219,1896 1182,1937 1147,1960 C 1123,1977 1101,1985 1080,1985 C 1050,1985 1027,1973 1012,1948 C 996,1924 989,1897 989,1869 C 989,1824 1003,1776 1031,1726 C 1058,1677 1095,1636 1141,1604 C 1176,1579 1208,1567 1237,1567 C 1258,1567 1276,1572 1290,1582 C 1303,1593 1314,1609 1321,1632 L 1335,1582 L 1405,1567 Z M 1303,1654 C 1303,1635 1297,1619 1285,1607 C 1273,1595 1259,1589 1242,1589 C 1205,1589 1167,1620 1126,1683 C 1086,1746 1066,1805 1066,1861 C 1066,1884 1071,1901 1081,1913 C 1091,1924 1103,1930 1117,1930 C 1136,1930 1156,1920 1179,1899 C 1215,1869 1244,1829 1267,1781 C 1291,1732 1303,1690 1303,1654 "  />
<path style="fill:#000000;fill-opacity:1.00;fill-rule:nonzero;stroke:none"  d="M 644,483 L 492,1015 C 541,964 584,929 621,910 C 658,891 696,881 736,881 C 793,881 839,900 875,937 C 911,975 929,1026 929,1090 C 929,1173 905,1255 858,1337 C 811,1419 751,1483 680,1529 C 608,1575 538,1597 469,1597 C 391,1597 311,1568 230,1510 L 464,703 C 482,641 491,604 491,594 C 491,580 487,570 479,564 C 467,554 449,550 426,550 C 415,550 399,551 377,555 L 377,526 L 644,483 Z M 345,1519 C 397,1547 442,1561 481,1561 C 526,1561 573,1545 622,1511 C 670,1478 712,1422 748,1344 C 784,1265 802,1186 802,1106 C 802,1058 790,1021 767,995 C 743,968 716,954 684,954 C 636,954 589,974 543,1012 C 498,1050 465,1103 445,1172 L 345,1519 Z "  />
</svg>