<svg width="265px" height="41px" viewBox="0 0 26500 4100" version="1.1" xmlns="http://www.w3.org/2000/svg" xmlns:xlink="http://www.w3.org/1999/xlink">
<path style="fill:#000000;fill-opacity:1.00;fill-rule:nonzero;stroke:none"  d="M 8183,2075 L 8183,2119 C 8005,2030 7866,1900 7767,1729 C 7668,1557 7618,1369 7618,1165 C 7618,953 7670,760 7775,586 C 7879,411 8015,287 8183,212 L 8183,255 C 8099,301 8030,364 7976,445 C 7922,525 7882,628 7856,751 C 7829,875 7816,1004 7816,1139 C 7816,1291 7828,1428 7852,1551 C 7877,1674 7915,1776 7965,1856 C 8015,1937 8088,2010 8183,2075 "  />
<path style="fill:#000000;fill-opacity:1.00;fill-rule:nonzero;stroke:none"  d="M 25181,255 L 25181,212 C 25359,300 25498,429 25597,601 C 25696,773 25746,960 25746,1164 C 25746,1376 25694,1570 25589,1744 C 25485,1919 25349,2044 25181,2119 L 25181,2075 C 25266,2029 25335,1965 25389,1885 C 25443,1804 25483,1702 25509,1579 C 25535,1455 25548,1326 25548,1191 C 25548,1039 25536,902 25512,779 C 25488,656 25450,554 25400,473 C 25349,392 25276,319 25181,255 "  />
<path style="fill:#000000;fill-opacity:1.00;fill-rule:nonzero;stroke:none"  d="M 718,2101 L 252,2101 L 252,201 L 718,201 L 718,292 L 421,292 L 421,2010 L 718,2010 L 718,2101 Z "  />
<path style="fill:#000000;fill-opacity:1.00;fill-rule:nonzero;stroke:none"  d="M 25646,201 L 26112,201 L 26112,2101 L 25646,2101 L 25646,2010 L 25944,2010 L 25944,292 L 25646,292 L 25646,201 Z "  />
<path style="fill:none;stroke:#000000;stroke-width:66px;stroke-opacity:1.00;"  d="M 33,2278 L 25992,2278 "  />
<path style="fill:#000000;fill-opacity:1.00;fill-rule:nonzero;stroke:none"  d="M 12945,3318 L 13206,3720 C 13252,3791 13291,3837 13321,3857 C 13352,3876 13392,3886 13441,3886 L 13433,3915 L 12985,3915 L 12992,3886 C 13027,3883 13053,3874 13067,3861 C 13082,3847 13089,3832 13089,3815 C 13089,3800 13087,3785 13082,3770 C 13078,3760 13063,3734 13037,3694 L 12824,3360 L 12721,3708 C 12704,3764 12695,3801 12695,3821 C 12695,3840 12702,3855 12717,3865 C 12731,3876 12767,3883 12824,3886 L 12811,3915 L 12396,3915 L 12406,3886 C 12446,3885 12473,3882 12487,3876 C 12508,3866 12523,3854 12533,3840 C 12546,3819 12563,3775 12583,3708 L 12768,3074 C 12782,3025 12789,2986 12789,2957 C 12789,2936 12782,2920 12769,2909 C 12756,2898 12730,2893 12692,2893 L 12676,2893 L 12686,2864 L 13080,2864 L 13072,2893 C 13040,2892 13016,2896 13000,2904 C 12977,2915 12961,2929 12951,2946 C 12940,2963 12925,3005 12905,3074 L 12824,3343 L 13197,3062 C 13247,3025 13279,2995 13295,2974 C 13304,2960 13309,2948 13309,2937 C 13309,2928 13304,2919 13294,2910 C 13285,2901 13270,2896 13251,2893 L 13258,2864 L 13595,2864 L 13588,2893 C 13551,2899 13520,2907 13495,2917 C 13470,2927 13444,2941 13418,2959 C 13410,2964 13360,3002 13267,3074 L 12945,3318 Z "  />
<path style="fill:#000000;fill-opacity:1.00;fill-rule:nonzero;stroke:none"  d="M 20095,974 C 20113,1004 20125,1032 20132,1058 C 20138,1084 20145,1135 20152,1212 L 20186,1593 C 20217,1556 20262,1497 20321,1416 C 20349,1377 20384,1323 20426,1256 C 20451,1214 20467,1185 20472,1169 C 20476,1161 20477,1152 20477,1143 C 20477,1138 20475,1133 20472,1129 C 20468,1126 20459,1122 20443,1117 C 20428,1112 20416,1103 20405,1089 C 20395,1076 20390,1061 20390,1044 C 20390,1023 20397,1006 20409,993 C 20421,980 20437,974 20455,974 C 20478,974 20498,983 20514,1002 C 20530,1021 20538,1047 20538,1080 C 20538,1121 20524,1167 20496,1220 C 20468,1272 20414,1353 20335,1461 C 20255,1570 20159,1688 20046,1816 C 19967,1904 19910,1960 19872,1983 C 19834,2006 19802,2017 19775,2017 C 19759,2017 19745,2011 19733,1999 C 19721,1987 19715,1973 19715,1957 C 19715,1937 19723,1918 19740,1902 C 19757,1885 19775,1877 19794,1877 C 19805,1877 19813,1879 19820,1884 C 19824,1887 19829,1894 19834,1906 C 19838,1918 19843,1927 19847,1931 C 19850,1933 19853,1935 19856,1935 C 19860,1935 19865,1932 19873,1927 C 19901,1909 19934,1881 19972,1843 C 20021,1792 20058,1751 20082,1719 L 20039,1228 C 20031,1147 20020,1097 20006,1080 C 19992,1062 19967,1053 19933,1053 C 19922,1053 19903,1055 19875,1058 L 19868,1029 L 20095,974 Z "  />
<path style="fill:#000000;fill-opacity:1.00;fill-rule:nonzero;stroke:none"  d="M 18228,573 L 17962,1487 C 17947,1537 17940,1570 17940,1585 C 17940,1590 17942,1595 17947,1600 C 17951,1604 17956,1607 17960,1607 C 17967,1607 17975,1603 17984,1597 C 18002,1584 18031,1553 18073,1504 L 18099,1520 C 18062,1572 18024,1613 17986,1645 C 17948,1678 17913,1694 17880,1694 C 17862,1694 17848,1687 17836,1675 C 17825,1663 17819,1645 17819,1622 C 17819,1593 17827,1553 17843,1504 L 17873,1408 C 17798,1523 17730,1603 17668,1648 C 17626,1678 17585,1694 17546,1694 C 17507,1694 17473,1676 17444,1641 C 17415,1606 17400,1559 17400,1499 C 17400,1422 17425,1340 17474,1253 C 17523,1165 17588,1094 17668,1040 C 17732,996 17790,974 17843,974 C 17871,974 17895,979 17915,991 C 17935,1002 17955,1021 17975,1047 L 18051,778 C 18057,758 18061,743 18065,732 C 18071,711 18074,694 18074,681 C 18074,670 18070,661 18063,654 C 18052,645 18038,640 18021,640 C 18009,640 17989,642 17962,646 L 17962,617 L 18228,573 Z M 17941,1123 C 17941,1090 17931,1064 17912,1043 C 17893,1023 17869,1013 17839,1013 C 17774,1013 17707,1067 17636,1174 C 17565,1282 17530,1385 17530,1483 C 17530,1521 17539,1551 17556,1571 C 17573,1592 17593,1602 17617,1602 C 17671,1602 17738,1544 17819,1428 C 17900,1312 17941,1210 17941,1123 "  />
<path style="fill:#000000;fill-opacity:1.00;fill-rule:nonzero;stroke:none"  d="M 10704,974 C 10729,1001 10748,1027 10761,1054 C 10770,1073 10786,1122 10807,1201 L 10875,1098 C 10893,1074 10915,1050 10941,1028 C 10967,1005 10989,990 11009,981 C 11021,976 11035,974 11050,974 C 11072,974 11090,980 11103,991 C 11116,1003 11123,1018 11123,1035 C 11123,1054 11119,1068 11111,1075 C 11097,1088 11080,1095 11062,1095 C 11051,1095 11039,1092 11027,1088 C 11002,1079 10986,1075 10978,1075 C 10966,1075 10951,1082 10934,1097 C 10902,1124 10864,1176 10819,1253 L 10883,1519 C 10892,1560 10901,1584 10907,1592 C 10914,1600 10921,1604 10928,1604 C 10938,1604 10951,1598 10966,1587 C 10994,1563 11018,1532 11038,1494 L 11066,1508 C 11033,1569 10992,1619 10942,1659 C 10913,1682 10889,1694 10869,1694 C 10841,1694 10818,1677 10800,1645 C 10790,1625 10767,1538 10733,1384 C 10652,1524 10588,1614 10539,1655 C 10508,1681 10477,1694 10448,1694 C 10427,1694 10408,1686 10391,1671 C 10379,1660 10373,1644 10373,1625 C 10373,1608 10378,1594 10390,1583 C 10401,1571 10415,1566 10432,1566 C 10448,1566 10466,1574 10484,1590 C 10498,1602 10508,1608 10515,1608 C 10522,1608 10530,1604 10539,1596 C 10564,1576 10597,1534 10639,1469 C 10680,1404 10708,1357 10721,1328 C 10689,1202 10671,1136 10669,1129 C 10657,1095 10641,1071 10622,1057 C 10603,1043 10575,1036 10538,1036 C 10526,1036 10512,1037 10497,1038 L 10497,1010 L 10704,974 Z "  />
<path style="fill:#000000;fill-opacity:1.00;fill-rule:nonzero;stroke:none"  d="M 8890,573 L 8624,1487 C 8609,1537 8602,1570 8602,1585 C 8602,1590 8604,1595 8608,1600 C 8613,1604 8617,1607 8622,1607 C 8629,1607 8637,1603 8646,1597 C 8664,1584 8693,1553 8734,1504 L 8761,1520 C 8724,1572 8686,1613 8648,1645 C 8610,1678 8575,1694 8541,1694 C 8524,1694 8509,1687 8498,1675 C 8487,1663 8481,1645 8481,1622 C 8481,1593 8489,1553 8504,1504 L 8534,1408 C 8460,1523 8391,1603 8330,1648 C 8288,1678 8247,1694 8208,1694 C 8169,1694 8135,1676 8106,1641 C 8076,1606 8062,1559 8062,1499 C 8062,1422 8086,1340 8135,1253 C 8184,1165 8249,1094 8330,1040 C 8393,996 8452,974 8505,974 C 8533,974 8557,979 8577,991 C 8597,1002 8617,1021 8637,1047 L 8713,778 C 8718,758 8723,743 8727,732 C 8733,711 8736,694 8736,681 C 8736,670 8732,661 8724,654 C 8713,645 8700,640 8682,640 C 8671,640 8651,642 8624,646 L 8624,617 L 8890,573 Z M 8603,1123 C 8603,1090 8593,1064 8574,1043 C 8555,1023 8531,1013 8501,1013 C 8436,1013 8368,1067 8298,1174 C 8227,1282 8192,1385 8192,1483 C 8192,1521 8200,1551 8218,1571 C 8235,1592 8255,1602 8279,1602 C 8332,1602 8400,1544 8481,1428 C 8562,1312 8603,1210 8603,1123 "  />
<path style="fill:#000000;fill-opacity:1.00;fill-rule:nonzero;stroke:none"  d="M 6589,974 L 6542,1212 L 6513,1212 C 6510,1142 6496,1092 6469,1060 C 6442,1029 6409,1013 6369,1013 C 6337,1013 6311,1022 6293,1040 C 6274,1057 6264,1078 6264,1103 C 6264,1120 6268,1136 6276,1152 C 6283,1167 6299,1189 6325,1217 C 6392,1290 6435,1346 6455,1383 C 6475,1420 6484,1455 6484,1488 C 6484,1542 6462,1590 6417,1631 C 6373,1673 6316,1694 6248,1694 C 6211,1694 6168,1685 6119,1667 C 6102,1661 6089,1658 6080,1658 C 6057,1658 6039,1670 6027,1694 L 5999,1694 L 6046,1442 L 6074,1442 C 6078,1521 6094,1577 6123,1609 C 6153,1642 6193,1658 6244,1658 C 6283,1658 6315,1647 6338,1625 C 6361,1603 6372,1576 6372,1544 C 6372,1523 6368,1504 6360,1487 C 6345,1456 6315,1413 6269,1358 C 6222,1303 6193,1262 6179,1235 C 6166,1207 6160,1180 6160,1153 C 6160,1103 6178,1060 6214,1026 C 6251,991 6298,974 6355,974 C 6372,974 6387,975 6400,978 C 6407,979 6424,985 6451,995 C 6477,1005 6495,1010 6504,1010 C 6526,1010 6545,998 6560,974 L 6589,974 Z "  />
<path style="fill:#000000;fill-opacity:1.00;fill-rule:nonzero;stroke:none"  d="M 3192,974 C 3218,1001 3237,1027 3250,1054 C 3259,1073 3274,1122 3295,1201 L 3363,1098 C 3382,1074 3404,1050 3429,1028 C 3455,1005 3478,990 3498,981 C 3510,976 3524,974 3539,974 C 3561,974 3579,980 3592,991 C 3605,1003 3611,1018 3611,1035 C 3611,1054 3608,1068 3600,1075 C 3585,1088 3569,1095 3550,1095 C 3539,1095 3528,1092 3515,1088 C 3491,1079 3475,1075 3467,1075 C 3454,1075 3439,1082 3422,1097 C 3390,1124 3352,1176 3308,1253 L 3371,1519 C 3381,1560 3389,1584 3396,1592 C 3403,1600 3409,1604 3416,1604 C 3427,1604 3440,1598 3454,1587 C 3483,1563 3507,1532 3527,1494 L 3554,1508 C 3522,1569 3480,1619 3430,1659 C 3402,1682 3378,1694 3358,1694 C 3329,1694 3306,1677 3289,1645 C 3278,1625 3256,1538 3222,1384 C 3141,1524 3077,1614 3028,1655 C 2996,1681 2966,1694 2937,1694 C 2916,1694 2897,1686 2880,1671 C 2868,1660 2861,1644 2861,1625 C 2861,1608 2867,1594 2878,1583 C 2890,1571 2904,1566 2920,1566 C 2937,1566 2954,1574 2973,1590 C 2986,1602 2997,1608 3004,1608 C 3010,1608 3018,1604 3028,1596 C 3052,1576 3085,1534 3127,1469 C 3169,1404 3196,1357 3209,1328 C 3177,1202 3160,1136 3157,1129 C 3145,1095 3130,1071 3111,1057 C 3092,1043 3064,1036 3026,1036 C 3015,1036 3001,1037 2985,1038 L 2985,1010 L 3192,974 Z "  />
<path style="fill:#000000;fill-opacity:1.00;fill-rule:nonzero;stroke:none"  d="M 1379,573 L 1112,1487 C 1098,1537 1090,1570 1090,1585 C 1090,1590 1093,1595 1097,1600 C 1101,1604 1106,1607 1111,1607 C 1117,1607 1125,1603 1135,1597 C 1152,1584 1182,1553 1223,1504 L 1249,1520 C 1212,1572 1175,1613 1137,1645 C 1099,1678 1063,1694 1030,1694 C 1012,1694 998,1687 987,1675 C 975,1663 970,1645 970,1622 C 970,1593 977,1553 993,1504 L 1023,1408 C 948,1523 880,1603 819,1648 C 776,1678 736,1694 697,1694 C 658,1694 623,1676 594,1641 C 565,1606 550,1559 550,1499 C 550,1422 575,1340 624,1253 C 673,1165 738,1094 819,1040 C 882,996 940,974 994,974 C 1022,974 1046,979 1066,991 C 1086,1002 1106,1021 1125,1047 L 1201,778 C 1207,758 1212,743 1215,732 C 1221,711 1225,694 1225,681 C 1225,670 1221,661 1213,654 C 1202,645 1188,640 1171,640 C 1159,640 1140,642 1112,646 L 1112,617 L 1379,573 Z M 1091,1123 C 1091,1090 1082,1064 1063,1043 C 1043,1023 1019,1013 990,1013 C 925,1013 857,1067 786,1174 C 716,1282 681,1385 681,1483 C 681,1521 689,1551 706,1571 C 723,1592 744,1602 767,1602 C 821,1602 889,1544 970,1428 C 1051,1312 1091,1210 1091,1123 "  />
<path style="fill:#000000;fill-opacity:1.00;fill-rule:nonzero;stroke:none"  d="M 24424,1653 L 24575,1163 C 24600,1084 24632,1028 24673,995 C 24713,961 24761,944 24815,944 C 24894,944 24953,978 24993,1046 C 25033,1114 25038,1199 25007,1300 C 24986,1368 24949,1434 24896,1498 C 24842,1562 24784,1610 24722,1640 C 24659,1671 24583,1690 24495,1697 L 24396,2017 L 24311,2017 L 24411,1697 C 24334,1690 24273,1671 24230,1640 C 24187,1609 24158,1562 24145,1498 C 24131,1435 24134,1369 24155,1301 C 24173,1244 24201,1191 24238,1142 C 24275,1093 24313,1054 24352,1026 C 24391,997 24429,977 24465,965 C 24501,953 24543,946 24590,944 L 24581,974 C 24534,977 24485,1004 24434,1053 C 24383,1102 24341,1180 24308,1287 C 24284,1365 24275,1432 24282,1487 C 24290,1542 24307,1583 24336,1611 C 24354,1628 24383,1642 24424,1653 M 24509,1652 C 24563,1646 24609,1634 24647,1615 C 24699,1590 24744,1553 24782,1506 C 24820,1458 24849,1401 24870,1335 C 24898,1241 24899,1164 24871,1102 C 24851,1058 24818,1036 24774,1036 C 24752,1036 24731,1045 24711,1065 C 24691,1084 24672,1125 24652,1188 L 24509,1652 Z "  />
<path style="fill:#000000;fill-opacity:1.00;fill-rule:nonzero;stroke:none"  d="M 15211,1653 L 15362,1163 C 15386,1084 15419,1028 15459,995 C 15500,961 15548,944 15602,944 C 15680,944 15740,978 15780,1046 C 15820,1114 15825,1199 15793,1300 C 15772,1368 15735,1434 15682,1498 C 15629,1562 15571,1610 15508,1640 C 15446,1671 15370,1690 15282,1697 L 15183,2017 L 15098,2017 L 15197,1697 C 15120,1690 15060,1671 15017,1640 C 14973,1609 14945,1562 14931,1498 C 14917,1435 14921,1369 14942,1301 C 14960,1244 14987,1191 15024,1142 C 15061,1093 15100,1054 15139,1026 C 15178,997 15216,977 15252,965 C 15288,953 15330,946 15377,944 L 15368,974 C 15320,977 15271,1004 15220,1053 C 15169,1102 15127,1180 15094,1287 C 15070,1365 15062,1432 15069,1487 C 15076,1542 15094,1583 15122,1611 C 15141,1628 15170,1642 15211,1653 M 15296,1652 C 15350,1646 15395,1634 15433,1615 C 15485,1590 15531,1553 15569,1506 C 15607,1458 15636,1401 15656,1335 C 15685,1241 15686,1164 15658,1102 C 15637,1058 15605,1036 15561,1036 C 15539,1036 15518,1045 15498,1065 C 15478,1084 15458,1125 15439,1188 L 15296,1652 Z "  />
<path style="fill:#000000;fill-opacity:1.00;fill-rule:nonzero;stroke:none"  d="M 22472,944 L 22472,1186 L 22447,1186 C 22427,1110 22402,1058 22371,1031 C 22341,1004 22301,990 22254,990 C 22218,990 22188,999 22166,1019 C 22144,1038 22133,1059 22133,1082 C 22133,1111 22141,1136 22158,1157 C 22174,1178 22206,1200 22255,1224 L 22369,1279 C 22473,1330 22526,1398 22526,1481 C 22526,1546 22501,1598 22453,1637 C 22404,1677 22349,1697 22289,1697 C 22245,1697 22196,1689 22140,1673 C 22123,1668 22109,1666 22098,1666 C 22086,1666 22077,1672 22070,1686 L 22045,1686 L 22045,1432 L 22070,1432 C 22085,1505 22112,1559 22153,1596 C 22194,1633 22240,1651 22290,1651 C 22326,1651 22355,1640 22377,1620 C 22400,1599 22411,1573 22411,1544 C 22411,1508 22399,1478 22374,1454 C 22349,1430 22299,1399 22224,1362 C 22149,1325 22100,1291 22076,1261 C 22053,1232 22042,1194 22042,1150 C 22042,1091 22062,1042 22102,1003 C 22142,964 22193,944 22257,944 C 22285,944 22319,950 22358,962 C 22385,970 22402,974 22411,974 C 22419,974 22426,972 22431,968 C 22435,965 22441,957 22447,944 L 22472,944 Z M 22812,573 C 22834,573 22852,581 22867,596 C 22882,611 22890,630 22890,651 C 22890,673 22882,692 22867,707 C 22852,723 22834,730 22812,730 C 22790,730 22772,723 22756,707 C 22741,692 22733,673 22733,651 C 22733,630 22740,611 22756,596 C 22771,581 22790,573 22812,573 M 22876,944 L 22876,1515 C 22876,1559 22879,1589 22886,1603 C 22892,1618 22902,1629 22914,1636 C 22927,1643 22950,1647 22984,1647 L 22984,1675 L 22639,1675 L 22639,1647 C 22674,1647 22697,1644 22709,1637 C 22721,1630 22730,1619 22737,1604 C 22744,1588 22748,1558 22748,1515 L 22748,1241 C 22748,1164 22745,1114 22741,1091 C 22737,1075 22731,1063 22723,1057 C 22716,1050 22705,1047 22692,1047 C 22677,1047 22660,1051 22639,1059 L 22628,1031 L 22842,944 L 22876,944 Z M 23279,1095 C 23362,994 23442,944 23517,944 C 23556,944 23589,954 23617,973 C 23645,993 23667,1025 23684,1069 C 23695,1100 23701,1147 23701,1212 L 23701,1515 C 23701,1559 23704,1590 23711,1606 C 23717,1619 23726,1629 23739,1636 C 23752,1643 23775,1647 23809,1647 L 23809,1675 L 23458,1675 L 23458,1647 L 23473,1647 C 23506,1647 23529,1642 23542,1632 C 23555,1622 23565,1607 23570,1587 C 23572,1580 23573,1555 23573,1515 L 23573,1224 C 23573,1159 23564,1112 23548,1083 C 23531,1054 23503,1040 23463,1040 C 23401,1040 23340,1073 23279,1140 L 23279,1515 C 23279,1563 23282,1592 23288,1604 C 23295,1619 23305,1630 23317,1637 C 23330,1644 23356,1647 23395,1647 L 23395,1675 L 23044,1675 L 23044,1647 L 23059,1647 C 23095,1647 23120,1638 23132,1620 C 23145,1601 23151,1566 23151,1515 L 23151,1251 C 23151,1166 23149,1114 23145,1095 C 23142,1077 23136,1064 23128,1057 C 23120,1051 23109,1047 23095,1047 C 23081,1047 23064,1051 23044,1059 L 23032,1031 L 23246,944 L 23279,944 L 23279,1095 Z "  />
<path style="fill:#000000;fill-opacity:1.00;fill-rule:nonzero;stroke:none"  d="M 20652,727 L 20908,602 L 20933,602 L 20933,1490 C 20933,1549 20936,1585 20941,1600 C 20945,1614 20956,1625 20971,1633 C 20987,1641 21018,1645 21066,1646 L 21066,1675 L 20670,1675 L 20670,1646 C 20720,1645 20752,1641 20767,1633 C 20781,1626 20791,1616 20797,1603 C 20802,1591 20805,1553 20805,1490 L 20805,923 C 20805,846 20803,797 20798,775 C 20794,759 20787,747 20778,739 C 20768,731 20757,727 20743,727 C 20724,727 20698,735 20664,751 L 20652,727 Z "  />
<path style="fill:#000000;fill-opacity:1.00;fill-rule:nonzero;stroke:none"  d="M 19401,2017 L 18580,2017 L 18580,1952 L 19401,1952 L 19401,2017 Z "  />
<path style="fill:#000000;fill-opacity:1.00;fill-rule:nonzero;stroke:none"  d="M 13203,1405 C 13184,1499 13147,1571 13091,1621 C 13035,1671 12973,1697 12906,1697 C 12825,1697 12755,1663 12695,1595 C 12635,1527 12605,1436 12605,1321 C 12605,1209 12638,1119 12705,1049 C 12771,979 12851,944 12944,944 C 13013,944 13071,963 13116,1000 C 13161,1037 13183,1075 13183,1115 C 13183,1134 13177,1150 13164,1162 C 13152,1174 13134,1181 13111,1181 C 13081,1181 13058,1171 13042,1151 C 13033,1140 13028,1120 13025,1089 C 13022,1059 13011,1035 12993,1019 C 12975,1004 12950,996 12918,996 C 12867,996 12825,1015 12793,1053 C 12752,1104 12731,1171 12731,1254 C 12731,1339 12751,1414 12793,1478 C 12835,1543 12891,1576 12962,1576 C 13012,1576 13058,1558 13098,1524 C 13126,1500 13154,1457 13181,1394 L 13203,1405 Z M 13652,944 C 13760,944 13846,985 13911,1067 C 13966,1136 13994,1216 13994,1307 C 13994,1370 13979,1435 13948,1500 C 13918,1565 13876,1614 13822,1647 C 13769,1680 13709,1697 13644,1697 C 13537,1697 13452,1654 13389,1569 C 13335,1497 13309,1416 13309,1327 C 13309,1262 13325,1197 13357,1133 C 13389,1069 13432,1021 13485,990 C 13537,960 13593,944 13652,944 M 13628,995 C 13601,995 13573,1003 13546,1019 C 13518,1035 13496,1064 13478,1105 C 13461,1145 13453,1198 13453,1262 C 13453,1365 13473,1454 13515,1529 C 13556,1604 13610,1642 13677,1642 C 13727,1642 13768,1621 13801,1580 C 13833,1538 13850,1467 13850,1367 C 13850,1240 13823,1141 13768,1069 C 13732,1019 13685,995 13628,995 M 14557,944 L 14557,1186 L 14532,1186 C 14512,1110 14487,1058 14456,1031 C 14425,1004 14386,990 14339,990 C 14303,990 14273,999 14251,1019 C 14229,1038 14218,1059 14218,1082 C 14218,1111 14226,1136 14243,1157 C 14259,1178 14291,1200 14340,1224 L 14453,1279 C 14558,1330 14611,1398 14611,1481 C 14611,1546 14586,1598 14537,1637 C 14489,1677 14434,1697 14374,1697 C 14330,1697 14281,1689 14225,1673 C 14208,1668 14194,1666 14183,1666 C 14171,1666 14162,1672 14155,1686 L 14129,1686 L 14129,1432 L 14155,1432 C 14169,1505 14197,1559 14238,1596 C 14279,1633 14324,1651 14375,1651 C 14411,1651 14440,1640 14462,1620 C 14485,1599 14496,1573 14496,1544 C 14496,1508 14483,1478 14458,1454 C 14433,1430 14383,1399 14308,1362 C 14234,1325 14184,1291 14161,1261 C 14138,1232 14126,1194 14126,1150 C 14126,1091 14146,1042 14186,1003 C 14226,964 14278,944 14342,944 C 14370,944 14403,950 14443,962 C 14470,970 14487,974 14496,974 C 14504,974 14511,972 14515,968 C 14520,965 14525,957 14532,944 L 14557,944 Z "  />
<path style="fill:#000000;fill-opacity:1.00;fill-rule:nonzero;stroke:none"  d="M 11214,727 L 11469,602 L 11495,602 L 11495,1490 C 11495,1549 11498,1585 11502,1600 C 11507,1614 11518,1625 11533,1633 C 11549,1641 11580,1645 11628,1646 L 11628,1675 L 11232,1675 L 11232,1646 C 11282,1645 11314,1641 11328,1633 C 11343,1626 11353,1616 11359,1603 C 11364,1591 11367,1553 11367,1490 L 11367,923 C 11367,846 11365,797 11359,775 C 11356,759 11349,747 11340,739 C 11330,731 11319,727 11305,727 C 11286,727 11259,735 11225,751 L 11214,727 Z "  />
<path style="fill:#000000;fill-opacity:1.00;fill-rule:nonzero;stroke:none"  d="M 10062,2017 L 9242,2017 L 9242,1952 L 10062,1952 L 10062,2017 Z "  />
<path style="fill:#000000;fill-opacity:1.00;fill-rule:nonzero;stroke:none"  d="M 4419,1473 L 4345,1675 L 3725,1675 L 3725,1646 C 3908,1480 4036,1344 4110,1239 C 4185,1133 4222,1037 4222,950 C 4222,883 4202,828 4161,785 C 4120,742 4071,721 4014,721 C 3963,721 3916,736 3875,766 C 3834,797 3804,841 3784,899 L 3756,899 C 3768,804 3802,730 3855,679 C 3909,628 3975,602 4055,602 C 4141,602 4212,630 4269,685 C 4326,739 4354,804 4354,878 C 4354,932 4342,985 4317,1038 C 4279,1122 4217,1210 4131,1304 C 4003,1444 3922,1529 3890,1558 L 4165,1558 C 4220,1558 4260,1556 4282,1552 C 4305,1548 4325,1539 4343,1527 C 4361,1514 4377,1496 4390,1473 L 4419,1473 Z "  />
<path style="fill:#000000;fill-opacity:1.00;fill-rule:nonzero;stroke:none"  d="M 2551,2017 L 1730,2017 L 1730,1952 L 2551,1952 L 2551,2017 Z "  />
<path style="fill:#000000;fill-opacity:1.00;fill-rule:nonzero;stroke:none"  d="M 21648,1269 C 21648,1293 21640,1313 21623,1330 C 21606,1347 21586,1355 21563,1355 C 21539,1355 21519,1347 21502,1330 C 21486,1313 21477,1293 21477,1269 C 21477,1245 21486,1225 21502,1208 C 21519,1191 21539,1183 21563,1183 C 21586,1183 21606,1191 21623,1208 C 21640,1225 21648,1245 21648,1269 "  />
<path style="fill:#000000;fill-opacity:1.00;fill-rule:nonzero;stroke:none"  d="M 16200,1229 L 17014,1229 L 17014,1305 L 16200,1305 L 16200,1229 Z "  />
<path style="fill:#000000;fill-opacity:1.00;fill-rule:nonzero;stroke:none"  d="M 12210,1269 C 12210,1293 12202,1313 12185,1330 C 12168,1347 12148,1355 12125,1355 C 12101,1355 12081,1347 12064,1330 C 12047,1313 12039,1293 12039,1269 C 12039,1245 12047,1225 12064,1208 C 12081,1191 12101,1183 12125,1183 C 12148,1183 12168,1191 12185,1208 C 12202,1225 12210,1245 12210,1269 "  />
<path style="fill:#000000;fill-opacity:1.00;fill-rule:nonzero;stroke:none"  d="M 7196,1269 C 7196,1293 7187,1313 7171,1330 C 7154,1347 7134,1355 7111,1355 C 7087,1355 7066,1347 7050,1330 C 7033,1313 7024,1293 7024,1269 C 7024,1245 7033,1225 7050,1208 C 7066,1191 7087,1183 7111,1183 C 7134,1183 7154,1191 7171,1208 C 7187,1225 7196,1245 7196,1269 "  />
<path style="fill:#000000;fill-opacity:1.00;fill-rule:nonzero;stroke:none"  d="M 4818,1229 L 5632,1229 L 5632,1305 L 4818,1305 L 4818,1229 Z "  />
</svg>