<svg width="472px" height="80px" viewBox="0 0 47200 8000" version="1.1" xmlns="http://www.w3.org/2000/svg" xmlns:xlink="http://www.w3.org/1999/xlink">
<path style="fill:#000000;fill-opacity:1.00;fill-rule:nonzero;stroke:none"  d="M 15582,3364 L 15582,3431 C 15310,3295 15098,3096 14946,2834 C 14795,2572 14719,2285 14719,1973 C 14719,1649 14798,1354 14958,1087 C 15117,821 15325,630 15582,516 L 15582,581 C 15454,652 15348,749 15266,872 C 15184,995 15122,1151 15081,1341 C 15041,1530 15020,1727 15020,1933 C 15020,2165 15039,2375 15077,2563 C 15114,2751 15172,2906 15249,3030 C 15326,3153 15437,3265 15582,3364 "  />
<path style="fill:#000000;fill-opacity:1.00;fill-rule:nonzero;stroke:none"  d="M 43187,581 L 43187,516 C 43459,650 43671,848 43822,1111 C 43974,1373 44050,1660 44050,1972 C 44050,2296 43970,2592 43811,2858 C 43651,3125 43443,3316 43187,3431 L 43187,3364 C 43316,3293 43422,3196 43504,3073 C 43586,2950 43648,2794 43688,2605 C 43728,2416 43748,2219 43748,2012 C 43748,1781 43730,1571 43693,1383 C 43656,1195 43598,1039 43520,915 C 43443,792 43332,680 43187,581 "  />
<path style="fill:#000000;fill-opacity:1.00;fill-rule:nonzero;stroke:none"  d="M 15582,7306 L 15582,7374 C 15310,7238 15098,7039 14946,6777 C 14795,6515 14719,6228 14719,5916 C 14719,5592 14798,5296 14958,5030 C 15117,4764 15325,4573 15582,4458 L 15582,4524 C 15454,4595 15348,4692 15266,4815 C 15184,4938 15122,5094 15081,5283 C 15041,5473 15020,5670 15020,5875 C 15020,6108 15039,6318 15077,6506 C 15114,6693 15172,6849 15249,6972 C 15326,7096 15437,7207 15582,7306 "  />
<path style="fill:#000000;fill-opacity:1.00;fill-rule:nonzero;stroke:none"  d="M 43255,4524 L 43255,4458 C 43527,4593 43739,4791 43891,5053 C 44042,5316 44118,5603 44118,5914 C 44118,6239 44038,6534 43879,6801 C 43719,7068 43511,7259 43255,7374 L 43255,7306 C 43384,7235 43490,7138 43572,7015 C 43655,6892 43716,6737 43756,6548 C 43796,6359 43816,6161 43816,5955 C 43816,5724 43798,5514 43761,5326 C 43724,5137 43666,4981 43589,4858 C 43511,4734 43400,4623 43255,4524 "  />
<path style="fill:#000000;fill-opacity:1.00;fill-rule:nonzero;stroke:none"  d="M 13372,5257 L 11448,5257 L 11448,5204 L 12428,3987 L 11448,2790 L 11448,2736 L 13320,2736 L 13360,3230 L 13301,3230 C 13286,3095 13248,2999 13188,2941 C 13128,2884 13044,2855 12937,2855 L 11853,2855 L 12676,3861 L 11754,4999 L 12953,4999 C 13021,4999 13096,4986 13177,4960 C 13233,4941 13279,4908 13315,4861 C 13352,4814 13382,4740 13407,4639 L 13465,4649 L 13372,5257 Z "  />
<path style="fill:#000000;fill-opacity:1.00;fill-rule:nonzero;stroke:none"  d="M 46655,4215 L 46750,4215 L 46750,6230 L 46655,6230 L 46655,4215 Z "  />
<path style="fill:#000000;fill-opacity:1.00;fill-rule:nonzero;stroke:none"  d="M 46655,2299 L 46750,2299 L 46750,4313 L 46655,4313 L 46655,2299 Z "  />
<path style="fill:#000000;fill-opacity:1.00;fill-rule:nonzero;stroke:none"  d="M 46654,5601 L 46750,5601 L 46750,7615 L 46064,7615 L 46064,7521 L 46654,7521 L 46654,5601 Z "  />
<path style="fill:#000000;fill-opacity:1.00;fill-rule:nonzero;stroke:none"  d="M 46064,382 L 46750,382 L 46750,2396 L 46654,2396 L 46654,478 L 46064,478 L 46064,382 Z "  />
<path style="fill:#000000;fill-opacity:1.00;fill-rule:nonzero;stroke:none"  d="M 13889,6230 L 13795,6230 L 13795,4215 L 13889,4215 L 13889,6230 Z "  />
<path style="fill:#000000;fill-opacity:1.00;fill-rule:nonzero;stroke:none"  d="M 13889,4313 L 13795,4313 L 13795,2299 L 13889,2299 L 13889,4313 Z "  />
<path style="fill:#000000;fill-opacity:1.00;fill-rule:nonzero;stroke:none"  d="M 14481,7615 L 13795,7615 L 13795,5601 L 13889,5601 L 13889,7521 L 14481,7521 L 14481,7615 Z "  />
<path style="fill:#000000;fill-opacity:1.00;fill-rule:nonzero;stroke:none"  d="M 13889,2396 L 13795,2396 L 13795,382 L 14481,382 L 14481,478 L 13889,478 L 13889,2396 Z "  />
<path style="fill:#000000;fill-opacity:1.00;fill-rule:nonzero;stroke:none"  d="M 38979,6125 L 40005,6125 L 40005,6222 L 38979,6222 L 38979,6125 Z "  />
<path style="fill:#000000;fill-opacity:1.00;fill-rule:nonzero;stroke:none"  d="M 36674,5662 L 36769,5662 L 36769,6129 L 37233,6129 L 37233,6224 L 36769,6224 L 36769,6688 L 36674,6688 L 36674,6224 L 36208,6224 L 36208,6129 L 36674,6129 L 36674,5662 Z "  />
<path style="fill:#000000;fill-opacity:1.00;fill-rule:nonzero;stroke:none"  d="M 32729,6176 C 32729,6206 32718,6231 32697,6252 C 32676,6274 32651,6284 32621,6284 C 32591,6284 32566,6274 32545,6252 C 32523,6231 32513,6206 32513,6176 C 32513,6146 32523,6120 32545,6099 C 32566,6078 32591,6067 32621,6067 C 32651,6067 32676,6078 32697,6099 C 32718,6120 32729,6146 32729,6176 "  />
<path style="fill:#000000;fill-opacity:1.00;fill-rule:nonzero;stroke:none"  d="M 27648,6176 C 27648,6206 27637,6231 27616,6252 C 27595,6274 27569,6284 27540,6284 C 27510,6284 27485,6274 27463,6252 C 27442,6231 27432,6206 27432,6176 C 27432,6146 27442,6120 27463,6099 C 27485,6078 27510,6067 27540,6067 C 27569,6067 27595,6078 27616,6099 C 27637,6120 27648,6146 27648,6176 "  />
<path style="fill:#000000;fill-opacity:1.00;fill-rule:nonzero;stroke:none"  d="M 25210,5662 L 25305,5662 L 25305,6129 L 25769,6129 L 25769,6224 L 25305,6224 L 25305,6688 L 25210,6688 L 25210,6224 L 24744,6224 L 24744,6129 L 25210,6129 L 25210,5662 Z "  />
<path style="fill:#000000;fill-opacity:1.00;fill-rule:nonzero;stroke:none"  d="M 21391,6176 C 21391,6206 21380,6231 21359,6252 C 21338,6274 21312,6284 21283,6284 C 21253,6284 21228,6274 21207,6252 C 21185,6231 21175,6206 21175,6176 C 21175,6146 21185,6120 21207,6099 C 21228,6078 21253,6067 21283,6067 C 21312,6067 21338,6078 21359,6099 C 21380,6120 21391,6146 21391,6176 "  />
<path style="fill:#000000;fill-opacity:1.00;fill-rule:nonzero;stroke:none"  d="M 16588,6176 C 16588,6206 16577,6231 16556,6252 C 16535,6274 16510,6284 16480,6284 C 16450,6284 16425,6274 16404,6252 C 16382,6231 16372,6206 16372,6176 C 16372,6146 16382,6120 16404,6099 C 16425,6078 16450,6067 16480,6067 C 16510,6067 16535,6078 16556,6099 C 16577,6120 16588,6146 16588,6176 "  />
<path style="fill:#000000;fill-opacity:1.00;fill-rule:nonzero;stroke:none"  d="M 45335,1719 L 45430,1719 L 45430,2186 L 45894,2186 L 45894,2281 L 45430,2281 L 45430,2745 L 45335,2745 L 45335,2281 L 44869,2281 L 44869,2186 L 45335,2186 L 45335,1719 Z "  />
<path style="fill:#000000;fill-opacity:1.00;fill-rule:nonzero;stroke:none"  d="M 39037,2182 L 40062,2182 L 40062,2279 L 39037,2279 L 39037,2182 Z "  />
<path style="fill:#000000;fill-opacity:1.00;fill-rule:nonzero;stroke:none"  d="M 36642,1719 L 36738,1719 L 36738,2186 L 37202,2186 L 37202,2281 L 36738,2281 L 36738,2745 L 36642,2745 L 36642,2281 L 36176,2281 L 36176,2186 L 36642,2186 L 36642,1719 Z "  />
<path style="fill:#000000;fill-opacity:1.00;fill-rule:nonzero;stroke:none"  d="M 32697,2233 C 32697,2263 32687,2289 32665,2310 C 32644,2331 32619,2341 32590,2341 C 32560,2341 32534,2331 32513,2310 C 32492,2289 32481,2263 32481,2233 C 32481,2203 32492,2178 32513,2156 C 32534,2135 32560,2125 32590,2125 C 32619,2125 32644,2135 32665,2156 C 32687,2178 32697,2203 32697,2233 "  />
<path style="fill:#000000;fill-opacity:1.00;fill-rule:nonzero;stroke:none"  d="M 27894,2233 C 27894,2263 27884,2289 27863,2310 C 27841,2331 27816,2341 27787,2341 C 27757,2341 27731,2331 27710,2310 C 27689,2289 27678,2263 27678,2233 C 27678,2203 27689,2178 27710,2156 C 27731,2135 27757,2125 27787,2125 C 27816,2125 27841,2135 27863,2156 C 27884,2178 27894,2203 27894,2233 "  />
<path style="fill:#000000;fill-opacity:1.00;fill-rule:nonzero;stroke:none"  d="M 25022,2182 L 26047,2182 L 26047,2279 L 25022,2279 L 25022,2182 Z "  />
<path style="fill:#000000;fill-opacity:1.00;fill-rule:nonzero;stroke:none"  d="M 21669,2233 C 21669,2263 21658,2289 21637,2310 C 21616,2331 21591,2341 21561,2341 C 21531,2341 21506,2331 21485,2310 C 21464,2289 21453,2263 21453,2233 C 21453,2203 21464,2178 21485,2156 C 21506,2135 21531,2125 21561,2125 C 21591,2125 21616,2135 21637,2156 C 21658,2178 21669,2203 21669,2233 "  />
<path style="fill:#000000;fill-opacity:1.00;fill-rule:nonzero;stroke:none"  d="M 16588,2233 C 16588,2263 16577,2289 16556,2310 C 16535,2331 16510,2341 16480,2341 C 16450,2341 16425,2331 16404,2310 C 16382,2289 16372,2263 16372,2233 C 16372,2203 16382,2178 16404,2156 C 16425,2135 16450,2125 16480,2125 C 16510,2125 16535,2135 16556,2156 C 16577,2178 16588,2203 16588,2233 "  />
<path style="fill:#000000;fill-opacity:1.00;fill-rule:nonzero;stroke:none"  d="M 9878,3759 L 10904,3759 L 10904,3854 L 9878,3854 L 9878,3759 Z M 9878,4123 L 10904,4123 L 10904,4220 L 9878,4220 L 9878,4123 Z "  />
<path style="fill:#000000;fill-opacity:1.00;fill-rule:nonzero;stroke:none"  d="M 13001,5665 C 13017,5665 13031,5671 13042,5682 C 13053,5693 13059,5707 13059,5723 C 13059,5739 13053,5752 13042,5763 C 13031,5775 13017,5780 13001,5780 C 12986,5780 12972,5775 12961,5763 C 12950,5752 12944,5739 12944,5723 C 12944,5707 12950,5693 12961,5682 C 12972,5671 12986,5665 13001,5665 M 13011,5891 L 12863,6401 C 12837,6492 12801,6557 12755,6598 C 12709,6638 12660,6658 12607,6658 C 12583,6658 12565,6653 12552,6641 C 12540,6630 12534,6617 12534,6602 C 12534,6590 12538,6580 12548,6571 C 12557,6562 12568,6558 12580,6558 C 12591,6558 12601,6561 12609,6569 C 12616,6574 12619,6581 12619,6588 C 12619,6598 12615,6606 12605,6614 C 12600,6618 12597,6621 12597,6624 L 12598,6627 C 12599,6628 12601,6629 12603,6630 C 12606,6631 12609,6631 12614,6631 C 12644,6631 12671,6621 12692,6602 C 12714,6582 12734,6543 12751,6485 L 12878,6047 C 12891,6004 12897,5981 12897,5976 C 12897,5967 12893,5959 12885,5952 C 12877,5944 12866,5941 12854,5941 C 12849,5941 12843,5941 12837,5943 C 12832,5943 12825,5944 12815,5946 L 12815,5926 L 13011,5891 Z "  />
<path style="fill:#000000;fill-opacity:1.00;fill-rule:nonzero;stroke:none"  d="M 12035,5665 C 12051,5665 12064,5670 12075,5681 C 12086,5692 12092,5706 12092,5722 C 12092,5737 12086,5751 12075,5762 C 12064,5773 12050,5779 12035,5779 C 12019,5779 12006,5773 11994,5762 C 11983,5751 11978,5737 11978,5722 C 11978,5706 11983,5692 11994,5681 C 12005,5670 12019,5665 12035,5665 M 12042,5891 L 11929,6290 C 11922,6317 11918,6333 11918,6338 C 11918,6345 11920,6349 11923,6353 C 11927,6357 11931,6359 11936,6359 C 11942,6359 11949,6356 11957,6350 C 11978,6333 12000,6308 12022,6277 L 12042,6290 C 12016,6330 11986,6363 11951,6390 C 11925,6410 11900,6420 11877,6420 C 11861,6420 11849,6415 11839,6406 C 11829,6397 11824,6385 11824,6371 C 11824,6357 11829,6334 11838,6301 L 11912,6046 C 11924,6004 11930,5978 11930,5967 C 11930,5959 11927,5952 11922,5947 C 11916,5941 11908,5939 11897,5939 C 11889,5939 11872,5941 11846,5945 L 11846,5923 L 12042,5891 Z "  />
<path style="fill:#000000;fill-opacity:1.00;fill-rule:nonzero;stroke:none"  d="M 42743,6446 C 42759,6446 42772,6452 42784,6463 C 42795,6474 42800,6488 42800,6504 C 42800,6520 42795,6533 42784,6545 C 42772,6556 42759,6562 42743,6562 C 42727,6562 42713,6556 42702,6545 C 42691,6533 42685,6520 42685,6504 C 42685,6488 42691,6474 42702,6463 C 42713,6452 42727,6446 42743,6446 M 42752,6672 L 42605,7182 C 42578,7273 42542,7339 42497,7379 C 42451,7419 42401,7439 42348,7439 C 42324,7439 42306,7434 42294,7423 C 42281,7412 42275,7399 42275,7383 C 42275,7372 42280,7361 42289,7352 C 42299,7343 42309,7339 42321,7339 C 42332,7339 42342,7343 42350,7350 C 42357,7356 42361,7362 42361,7369 C 42361,7379 42356,7388 42347,7395 C 42341,7399 42339,7402 42339,7405 L 42340,7408 C 42341,7409 42343,7411 42345,7411 C 42347,7412 42350,7412 42355,7412 C 42386,7412 42412,7403 42434,7383 C 42456,7364 42475,7325 42492,7266 L 42620,6829 C 42632,6786 42639,6762 42639,6757 C 42639,6748 42635,6740 42626,6733 C 42618,6726 42608,6722 42595,6722 C 42590,6722 42585,6723 42578,6724 C 42573,6725 42566,6726 42557,6727 L 42557,6707 L 42752,6672 Z "  />
<path style="fill:#000000;fill-opacity:1.00;fill-rule:nonzero;stroke:none"  d="M 41776,6446 C 41792,6446 41806,6451 41817,6462 C 41828,6473 41833,6487 41833,6503 C 41833,6518 41827,6532 41816,6543 C 41805,6554 41792,6560 41776,6560 C 41761,6560 41747,6554 41736,6543 C 41725,6532 41719,6518 41719,6503 C 41719,6487 41725,6473 41736,6462 C 41747,6451 41760,6446 41776,6446 M 41783,6672 L 41671,7071 C 41663,7098 41659,7114 41659,7120 C 41659,7126 41661,7131 41665,7135 C 41668,7138 41673,7140 41678,7140 C 41683,7140 41690,7137 41698,7131 C 41720,7114 41742,7090 41764,7058 L 41783,7071 C 41758,7111 41727,7144 41692,7171 C 41667,7191 41642,7201 41618,7201 C 41603,7201 41590,7197 41580,7187 C 41570,7178 41565,7166 41565,7152 C 41565,7138 41570,7115 41580,7082 L 41654,6827 C 41666,6785 41672,6759 41672,6748 C 41672,6740 41669,6733 41663,6728 C 41657,6723 41649,6720 41639,6720 C 41630,6720 41613,6722 41587,6726 L 41587,6704 L 41783,6672 Z "  />
<path style="fill:#000000;fill-opacity:1.00;fill-rule:nonzero;stroke:none"  d="M 35478,6446 C 35494,6446 35508,6452 35519,6463 C 35530,6474 35536,6488 35536,6504 C 35536,6520 35530,6533 35519,6545 C 35508,6556 35494,6562 35478,6562 C 35462,6562 35449,6556 35437,6545 C 35426,6533 35421,6520 35421,6504 C 35421,6488 35426,6474 35437,6463 C 35449,6452 35462,6446 35478,6446 M 35487,6672 L 35340,7182 C 35314,7273 35278,7339 35232,7379 C 35186,7419 35137,7439 35083,7439 C 35060,7439 35041,7434 35029,7423 C 35017,7412 35011,7399 35011,7383 C 35011,7372 35015,7361 35024,7352 C 35034,7343 35045,7339 35057,7339 C 35068,7339 35077,7343 35086,7350 C 35093,7356 35096,7362 35096,7369 C 35096,7379 35091,7388 35082,7395 C 35076,7399 35074,7402 35074,7405 L 35075,7408 C 35076,7409 35078,7411 35080,7411 C 35082,7412 35086,7412 35090,7412 C 35121,7412 35147,7403 35169,7383 C 35191,7364 35210,7325 35228,7266 L 35355,6829 C 35368,6786 35374,6762 35374,6757 C 35374,6748 35370,6740 35362,6733 C 35354,6726 35343,6722 35331,6722 C 35326,6722 35320,6723 35314,6724 C 35309,6725 35301,6726 35292,6727 L 35292,6707 L 35487,6672 Z "  />
<path style="fill:#000000;fill-opacity:1.00;fill-rule:nonzero;stroke:none"  d="M 34511,6446 C 34527,6446 34541,6451 34552,6462 C 34563,6473 34568,6487 34568,6503 C 34568,6518 34563,6532 34551,6543 C 34540,6554 34527,6560 34511,6560 C 34496,6560 34482,6554 34471,6543 C 34460,6532 34454,6518 34454,6503 C 34454,6487 34460,6473 34471,6462 C 34482,6451 34495,6446 34511,6446 M 34519,6672 L 34406,7071 C 34398,7098 34395,7114 34395,7120 C 34395,7126 34396,7131 34400,7135 C 34404,7138 34408,7140 34413,7140 C 34418,7140 34425,7137 34433,7131 C 34455,7114 34477,7090 34499,7058 L 34519,7071 C 34493,7111 34463,7144 34428,7171 C 34402,7191 34377,7201 34354,7201 C 34338,7201 34325,7197 34315,7187 C 34306,7178 34301,7166 34301,7152 C 34301,7138 34305,7115 34315,7082 L 34389,6827 C 34401,6785 34407,6759 34407,6748 C 34407,6740 34404,6733 34398,6728 C 34392,6723 34384,6720 34374,6720 C 34366,6720 34348,6722 34322,6726 L 34322,6704 L 34519,6672 Z "  />
<path style="fill:#000000;fill-opacity:1.00;fill-rule:nonzero;stroke:none"  d="M 24014,6446 C 24030,6446 24044,6452 24055,6463 C 24066,6474 24072,6488 24072,6504 C 24072,6520 24066,6533 24055,6545 C 24044,6556 24030,6562 24014,6562 C 23998,6562 23985,6556 23973,6545 C 23962,6533 23957,6520 23957,6504 C 23957,6488 23962,6474 23973,6463 C 23985,6452 23998,6446 24014,6446 M 24023,6672 L 23876,7182 C 23850,7273 23814,7339 23768,7379 C 23722,7419 23673,7439 23619,7439 C 23595,7439 23577,7434 23565,7423 C 23553,7412 23546,7399 23546,7383 C 23546,7372 23551,7361 23560,7352 C 23570,7343 23580,7339 23593,7339 C 23604,7339 23613,7343 23622,7350 C 23628,7356 23632,7362 23632,7369 C 23632,7379 23627,7388 23618,7395 C 23612,7399 23610,7402 23610,7405 L 23611,7408 C 23612,7409 23614,7411 23616,7411 C 23618,7412 23622,7412 23626,7412 C 23657,7412 23683,7403 23705,7383 C 23727,7364 23746,7325 23763,7266 L 23891,6829 C 23904,6786 23910,6762 23910,6757 C 23910,6748 23906,6740 23898,6733 C 23889,6726 23879,6722 23867,6722 C 23862,6722 23856,6723 23850,6724 C 23845,6725 23837,6726 23828,6727 L 23828,6707 L 24023,6672 Z "  />
<path style="fill:#000000;fill-opacity:1.00;fill-rule:nonzero;stroke:none"  d="M 23047,6446 C 23063,6446 23077,6451 23088,6462 C 23099,6473 23104,6487 23104,6503 C 23104,6518 23099,6532 23087,6543 C 23076,6554 23063,6560 23047,6560 C 23032,6560 23018,6554 23007,6543 C 22996,6532 22990,6518 22990,6503 C 22990,6487 22996,6473 23007,6462 C 23018,6451 23031,6446 23047,6446 M 23055,6672 L 22942,7071 C 22934,7098 22930,7114 22930,7120 C 22930,7126 22932,7131 22936,7135 C 22940,7138 22944,7140 22949,7140 C 22954,7140 22961,7137 22969,7131 C 22991,7114 23013,7090 23035,7058 L 23055,7071 C 23029,7111 22998,7144 22964,7171 C 22938,7191 22913,7201 22889,7201 C 22874,7201 22861,7197 22851,7187 C 22841,7178 22837,7166 22837,7152 C 22837,7138 22841,7115 22851,7082 L 22925,6827 C 22937,6785 22943,6759 22943,6748 C 22943,6740 22940,6733 22934,6728 C 22928,6723 22920,6720 22910,6720 C 22902,6720 22884,6722 22858,6726 L 22858,6704 L 23055,6672 Z "  />
<path style="fill:#000000;fill-opacity:1.00;fill-rule:nonzero;stroke:none"  d="M 42675,2504 C 42691,2504 42704,2509 42715,2521 C 42727,2532 42732,2545 42732,2561 C 42732,2577 42727,2591 42715,2602 C 42704,2613 42691,2619 42675,2619 C 42659,2619 42645,2613 42634,2602 C 42623,2591 42617,2577 42617,2561 C 42617,2545 42623,2532 42634,2521 C 42645,2509 42659,2504 42675,2504 M 42684,2729 L 42536,3239 C 42510,3330 42474,3396 42428,3436 C 42383,3476 42333,3497 42280,3497 C 42256,3497 42238,3491 42226,3480 C 42213,3469 42207,3456 42207,3441 C 42207,3429 42212,3419 42221,3410 C 42230,3401 42241,3396 42253,3396 C 42264,3396 42274,3400 42282,3407 C 42289,3413 42293,3419 42293,3426 C 42293,3436 42288,3445 42278,3452 C 42273,3456 42270,3460 42270,3462 L 42271,3465 C 42273,3467 42274,3468 42277,3469 C 42279,3469 42282,3470 42287,3470 C 42318,3470 42344,3460 42366,3440 C 42388,3421 42407,3382 42424,3323 L 42552,2886 C 42564,2843 42570,2819 42570,2815 C 42570,2806 42566,2797 42558,2790 C 42550,2783 42540,2779 42527,2779 C 42522,2779 42517,2780 42510,2781 C 42505,2782 42498,2783 42488,2785 L 42488,2765 L 42684,2729 Z "  />
<path style="fill:#000000;fill-opacity:1.00;fill-rule:nonzero;stroke:none"  d="M 41708,2503 C 41724,2503 41737,2509 41748,2520 C 41759,2531 41765,2544 41765,2560 C 41765,2576 41759,2589 41748,2600 C 41737,2611 41723,2617 41708,2617 C 41692,2617 41679,2611 41668,2600 C 41656,2589 41651,2576 41651,2560 C 41651,2544 41656,2531 41667,2520 C 41678,2509 41692,2503 41708,2503 M 41715,2729 L 41602,3129 C 41595,3156 41591,3172 41591,3177 C 41591,3183 41593,3188 41596,3192 C 41600,3196 41604,3198 41609,3198 C 41615,3198 41622,3194 41630,3188 C 41651,3171 41673,3147 41695,3115 L 41715,3129 C 41689,3168 41659,3201 41624,3228 C 41598,3248 41574,3258 41550,3258 C 41535,3258 41522,3254 41512,3245 C 41502,3235 41497,3224 41497,3209 C 41497,3195 41502,3172 41511,3139 L 41585,2884 C 41598,2842 41604,2816 41604,2806 C 41604,2797 41601,2790 41595,2785 C 41589,2780 41581,2777 41571,2777 C 41562,2777 41545,2779 41519,2783 L 41519,2761 L 41715,2729 Z "  />
<path style="fill:#000000;fill-opacity:1.00;fill-rule:nonzero;stroke:none"  d="M 35447,2504 C 35463,2504 35476,2509 35487,2521 C 35499,2532 35504,2545 35504,2561 C 35504,2577 35499,2591 35487,2602 C 35476,2613 35463,2619 35447,2619 C 35431,2619 35417,2613 35406,2602 C 35395,2591 35389,2577 35389,2561 C 35389,2545 35395,2532 35406,2521 C 35417,2509 35431,2504 35447,2504 M 35456,2729 L 35308,3239 C 35282,3330 35246,3396 35200,3436 C 35155,3476 35105,3497 35052,3497 C 35028,3497 35010,3491 34998,3480 C 34985,3469 34979,3456 34979,3441 C 34979,3429 34984,3419 34993,3410 C 35002,3401 35013,3396 35025,3396 C 35036,3396 35046,3400 35054,3407 C 35061,3413 35064,3419 35064,3426 C 35064,3436 35060,3445 35050,3452 C 35045,3456 35042,3460 35042,3462 L 35043,3465 C 35045,3467 35046,3468 35049,3469 C 35051,3469 35054,3470 35059,3470 C 35090,3470 35116,3460 35138,3440 C 35160,3421 35179,3382 35196,3323 L 35324,2886 C 35336,2843 35342,2819 35342,2815 C 35342,2806 35338,2797 35330,2790 C 35322,2783 35312,2779 35299,2779 C 35294,2779 35289,2780 35282,2781 C 35277,2782 35270,2783 35260,2785 L 35260,2765 L 35456,2729 Z "  />
<path style="fill:#000000;fill-opacity:1.00;fill-rule:nonzero;stroke:none"  d="M 34480,2503 C 34496,2503 34509,2509 34520,2520 C 34531,2531 34537,2544 34537,2560 C 34537,2576 34531,2589 34520,2600 C 34509,2611 34495,2617 34480,2617 C 34464,2617 34451,2611 34440,2600 C 34428,2589 34423,2576 34423,2560 C 34423,2544 34428,2531 34439,2520 C 34450,2509 34464,2503 34480,2503 M 34487,2729 L 34374,3129 C 34367,3156 34363,3172 34363,3177 C 34363,3183 34365,3188 34368,3192 C 34372,3196 34376,3198 34381,3198 C 34387,3198 34394,3194 34402,3188 C 34423,3171 34445,3147 34467,3115 L 34487,3129 C 34461,3168 34431,3201 34396,3228 C 34370,3248 34346,3258 34322,3258 C 34306,3258 34294,3254 34284,3245 C 34274,3235 34269,3224 34269,3209 C 34269,3195 34274,3172 34283,3139 L 34357,2884 C 34370,2842 34376,2816 34376,2806 C 34376,2797 34373,2790 34367,2785 C 34361,2780 34353,2777 34343,2777 C 34334,2777 34317,2779 34291,2783 L 34291,2761 L 34487,2729 Z "  />
<path style="fill:#000000;fill-opacity:1.00;fill-rule:nonzero;stroke:none"  d="M 24292,2504 C 24308,2504 24322,2509 24333,2521 C 24344,2532 24350,2545 24350,2561 C 24350,2577 24344,2591 24333,2602 C 24322,2613 24308,2619 24292,2619 C 24276,2619 24263,2613 24252,2602 C 24240,2591 24235,2577 24235,2561 C 24235,2545 24240,2532 24252,2521 C 24263,2509 24276,2504 24292,2504 M 24301,2729 L 24154,3239 C 24128,3330 24092,3396 24046,3436 C 24000,3476 23951,3497 23898,3497 C 23874,3497 23856,3491 23843,3480 C 23831,3469 23825,3456 23825,3441 C 23825,3429 23829,3419 23839,3410 C 23848,3401 23859,3396 23871,3396 C 23882,3396 23892,3400 23900,3407 C 23907,3413 23910,3419 23910,3426 C 23910,3436 23905,3445 23896,3452 C 23891,3456 23888,3460 23888,3462 L 23889,3465 C 23890,3467 23892,3468 23894,3469 C 23896,3469 23900,3470 23904,3470 C 23935,3470 23961,3460 23983,3440 C 24005,3421 24025,3382 24042,3323 L 24169,2886 C 24182,2843 24188,2819 24188,2815 C 24188,2806 24184,2797 24176,2790 C 24168,2783 24157,2779 24145,2779 C 24140,2779 24134,2780 24128,2781 C 24123,2782 24116,2783 24106,2785 L 24106,2765 L 24301,2729 Z "  />
<path style="fill:#000000;fill-opacity:1.00;fill-rule:nonzero;stroke:none"  d="M 23325,2503 C 23341,2503 23355,2509 23366,2520 C 23377,2531 23382,2544 23382,2560 C 23382,2576 23377,2589 23366,2600 C 23354,2611 23341,2617 23325,2617 C 23310,2617 23297,2611 23285,2600 C 23274,2589 23269,2576 23269,2560 C 23269,2544 23274,2531 23285,2520 C 23296,2509 23310,2503 23325,2503 M 23333,2729 L 23220,3129 C 23212,3156 23209,3172 23209,3177 C 23209,3183 23211,3188 23214,3192 C 23218,3196 23222,3198 23227,3198 C 23233,3198 23239,3194 23247,3188 C 23269,3171 23291,3147 23313,3115 L 23333,3129 C 23307,3168 23277,3201 23242,3228 C 23216,3248 23191,3258 23168,3258 C 23152,3258 23139,3254 23130,3245 C 23120,3235 23115,3224 23115,3209 C 23115,3195 23119,3172 23129,3139 L 23203,2884 C 23215,2842 23221,2816 23221,2806 C 23221,2797 23218,2790 23212,2785 C 23207,2780 23198,2777 23188,2777 C 23180,2777 23163,2779 23136,2783 L 23136,2761 L 23333,2729 Z "  />
<path style="fill:#000000;fill-opacity:1.00;fill-rule:nonzero;stroke:none"  d="M 40900,5804 C 40922,5841 40938,5877 40946,5910 C 40955,5943 40963,6007 40971,6104 L 41014,6584 C 41054,6537 41110,6463 41184,6361 C 41220,6312 41264,6244 41317,6159 C 41349,6107 41369,6071 41376,6050 C 41380,6039 41382,6029 41382,6018 C 41382,6010 41379,6005 41375,6000 C 41370,5995 41358,5990 41339,5984 C 41320,5978 41304,5966 41291,5950 C 41279,5933 41272,5914 41272,5893 C 41272,5866 41280,5844 41296,5828 C 41311,5812 41331,5804 41354,5804 C 41383,5804 41407,5816 41428,5839 C 41448,5863 41458,5896 41458,5938 C 41458,5989 41440,6048 41405,6114 C 41370,6180 41302,6281 41202,6418 C 41102,6555 40980,6704 40838,6865 C 40739,6977 40666,7047 40619,7076 C 40571,7105 40531,7119 40497,7119 C 40477,7119 40459,7111 40444,7096 C 40428,7081 40421,7063 40421,7043 C 40421,7018 40431,6994 40452,6974 C 40474,6953 40497,6942 40521,6942 C 40534,6942 40545,6945 40554,6951 C 40559,6954 40564,6964 40571,6979 C 40577,6994 40582,7005 40588,7010 C 40591,7013 40595,7015 40599,7015 C 40603,7015 40610,7011 40620,7005 C 40656,6983 40697,6948 40745,6899 C 40807,6836 40854,6784 40884,6743 L 40829,6124 C 40820,6022 40806,5960 40788,5938 C 40770,5915 40739,5904 40696,5904 C 40682,5904 40658,5906 40623,5910 L 40614,5874 L 40900,5804 Z "  />
<path style="fill:#000000;fill-opacity:1.00;fill-rule:nonzero;stroke:none"  d="M 38166,5299 L 37974,5974 C 38036,5909 38091,5864 38137,5840 C 38184,5816 38232,5804 38283,5804 C 38355,5804 38413,5827 38459,5875 C 38505,5923 38527,5987 38527,6068 C 38527,6173 38497,6278 38438,6381 C 38378,6485 38302,6566 38212,6624 C 38121,6682 38032,6711 37944,6711 C 37846,6711 37745,6674 37642,6601 L 37938,5578 C 37961,5499 37973,5453 37973,5439 C 37973,5423 37967,5410 37957,5401 C 37942,5390 37920,5384 37891,5384 C 37877,5384 37856,5386 37828,5391 L 37828,5354 L 38166,5299 Z M 37788,6611 C 37853,6647 37910,6665 37960,6665 C 38017,6665 38077,6644 38138,6602 C 38200,6560 38253,6489 38298,6390 C 38344,6290 38366,6189 38366,6088 C 38366,6028 38351,5981 38322,5947 C 38292,5913 38257,5896 38217,5896 C 38156,5896 38097,5921 38039,5969 C 37981,6018 37940,6085 37915,6172 L 37788,6611 Z "  />
<path style="fill:#000000;fill-opacity:1.00;fill-rule:nonzero;stroke:none"  d="M 33635,5804 C 33658,5841 33673,5877 33681,5910 C 33690,5943 33698,6007 33707,6104 L 33750,6584 C 33789,6537 33845,6463 33920,6361 C 33955,6312 34000,6244 34052,6159 C 34084,6107 34104,6071 34111,6050 C 34115,6039 34117,6029 34117,6018 C 34117,6010 34115,6005 34110,6000 C 34105,5995 34094,5990 34074,5984 C 34055,5978 34039,5966 34027,5950 C 34014,5933 34008,5914 34008,5893 C 34008,5866 34015,5844 34031,5828 C 34047,5812 34066,5804 34090,5804 C 34118,5804 34143,5816 34163,5839 C 34183,5863 34193,5896 34193,5938 C 34193,5989 34175,6048 34140,6114 C 34105,6180 34037,6281 33937,6418 C 33837,6555 33716,6704 33573,6865 C 33475,6977 33402,7047 33354,7076 C 33307,7105 33266,7119 33232,7119 C 33212,7119 33194,7111 33179,7096 C 33164,7081 33156,7063 33156,7043 C 33156,7018 33167,6994 33188,6974 C 33209,6953 33232,6942 33257,6942 C 33270,6942 33280,6945 33289,6951 C 33294,6954 33300,6964 33306,6979 C 33312,6994 33318,7005 33323,7010 C 33326,7013 33330,7015 33335,7015 C 33339,7015 33345,7011 33355,7005 C 33391,6983 33433,6948 33480,6899 C 33543,6836 33589,6784 33619,6743 L 33564,6124 C 33555,6022 33541,5960 33523,5938 C 33505,5915 33474,5904 33431,5904 C 33418,5904 33393,5906 33358,5910 L 33349,5874 L 33635,5804 Z "  />
<path style="fill:#000000;fill-opacity:1.00;fill-rule:nonzero;stroke:none"  d="M 26945,5804 L 26885,6104 L 26849,6104 C 26846,6016 26827,5953 26794,5913 C 26760,5873 26718,5854 26668,5854 C 26627,5854 26595,5865 26571,5887 C 26548,5909 26536,5936 26536,5967 C 26536,5988 26540,6009 26550,6028 C 26559,6048 26580,6075 26612,6110 C 26697,6203 26751,6272 26776,6319 C 26801,6366 26813,6410 26813,6452 C 26813,6520 26785,6580 26729,6632 C 26672,6685 26601,6711 26515,6711 C 26468,6711 26414,6700 26353,6678 C 26332,6670 26315,6666 26303,6666 C 26274,6666 26252,6681 26237,6711 L 26201,6711 L 26260,6395 L 26296,6395 C 26300,6493 26321,6563 26358,6604 C 26395,6646 26446,6666 26510,6666 C 26560,6666 26599,6652 26628,6625 C 26657,6597 26671,6563 26671,6522 C 26671,6496 26666,6472 26656,6450 C 26638,6411 26599,6357 26541,6288 C 26483,6219 26445,6167 26429,6133 C 26412,6098 26404,6064 26404,6029 C 26404,5966 26427,5913 26473,5869 C 26519,5826 26578,5804 26650,5804 C 26671,5804 26690,5805 26707,5809 C 26716,5811 26737,5818 26771,5831 C 26804,5843 26826,5850 26837,5850 C 26865,5850 26889,5834 26908,5804 L 26945,5804 Z "  />
<path style="fill:#000000;fill-opacity:1.00;fill-rule:nonzero;stroke:none"  d="M 22230,5804 C 22262,5838 22286,5871 22302,5905 C 22314,5929 22333,5990 22360,6090 L 22446,5961 C 22469,5930 22496,5900 22529,5872 C 22562,5843 22590,5824 22615,5813 C 22631,5807 22648,5804 22667,5804 C 22695,5804 22717,5811 22734,5826 C 22750,5841 22759,5859 22759,5881 C 22759,5906 22754,5923 22744,5932 C 22726,5948 22705,5956 22681,5956 C 22668,5956 22653,5953 22637,5947 C 22607,5937 22586,5932 22576,5932 C 22560,5932 22542,5941 22520,5959 C 22480,5993 22432,6058 22376,6155 L 22456,6491 C 22468,6543 22479,6573 22487,6583 C 22496,6594 22504,6599 22512,6599 C 22526,6599 22542,6591 22560,6576 C 22596,6546 22627,6507 22652,6459 L 22686,6477 C 22645,6553 22593,6617 22530,6668 C 22494,6697 22464,6711 22439,6711 C 22403,6711 22374,6690 22352,6649 C 22339,6624 22310,6515 22267,6321 C 22166,6498 22084,6611 22023,6662 C 21983,6695 21945,6711 21908,6711 C 21882,6711 21858,6701 21837,6683 C 21821,6668 21813,6649 21813,6625 C 21813,6604 21820,6586 21835,6571 C 21849,6557 21867,6550 21887,6550 C 21908,6550 21930,6560 21954,6581 C 21971,6596 21984,6604 21993,6604 C 22001,6604 22011,6598 22023,6588 C 22054,6563 22095,6510 22148,6428 C 22201,6346 22235,6286 22252,6250 C 22211,6092 22190,6008 22186,5999 C 22171,5957 22152,5927 22128,5909 C 22104,5892 22068,5883 22021,5883 C 22006,5883 21989,5883 21969,5885 L 21969,5850 L 22230,5804 Z "  />
<path style="fill:#000000;fill-opacity:1.00;fill-rule:nonzero;stroke:none"  d="M 15885,5804 L 15825,6104 L 15789,6104 C 15786,6016 15767,5953 15734,5913 C 15700,5873 15658,5854 15608,5854 C 15567,5854 15535,5865 15511,5887 C 15488,5909 15476,5936 15476,5967 C 15476,5988 15481,6009 15490,6028 C 15499,6048 15520,6075 15552,6110 C 15637,6203 15691,6272 15716,6319 C 15741,6366 15753,6410 15753,6452 C 15753,6520 15725,6580 15669,6632 C 15612,6685 15541,6711 15455,6711 C 15408,6711 15354,6700 15293,6678 C 15272,6670 15255,6666 15243,6666 C 15214,6666 15192,6681 15177,6711 L 15141,6711 L 15200,6395 L 15237,6395 C 15240,6493 15261,6563 15298,6604 C 15335,6646 15386,6666 15450,6666 C 15500,6666 15539,6652 15568,6625 C 15597,6597 15612,6563 15612,6522 C 15612,6496 15606,6472 15596,6450 C 15578,6411 15539,6357 15481,6288 C 15423,6219 15386,6167 15369,6133 C 15352,6098 15344,6064 15344,6029 C 15344,5966 15367,5913 15413,5869 C 15459,5826 15518,5804 15590,5804 C 15611,5804 15630,5805 15647,5809 C 15656,5811 15677,5818 15711,5831 C 15744,5843 15767,5850 15778,5850 C 15806,5850 15829,5834 15848,5804 L 15885,5804 Z "  />
<path style="fill:#000000;fill-opacity:1.00;fill-rule:nonzero;stroke:none"  d="M 40891,1861 C 40923,1895 40947,1929 40963,1963 C 40975,1986 40994,2048 41021,2147 L 41107,2018 C 41129,1987 41157,1957 41190,1929 C 41222,1901 41251,1881 41276,1871 C 41291,1864 41308,1861 41327,1861 C 41355,1861 41378,1868 41394,1883 C 41411,1898 41419,1917 41419,1938 C 41419,1963 41414,1980 41404,1989 C 41386,2005 41365,2013 41342,2013 C 41328,2013 41314,2010 41298,2005 C 41267,1994 41247,1989 41237,1989 C 41221,1989 41202,1998 41181,2016 C 41140,2050 41092,2116 41036,2213 L 41116,2549 C 41129,2600 41139,2631 41148,2641 C 41156,2651 41165,2656 41173,2656 C 41187,2656 41203,2648 41221,2633 C 41257,2604 41287,2564 41313,2516 L 41347,2534 C 41306,2611 41254,2674 41191,2725 C 41155,2754 41125,2768 41100,2768 C 41063,2768 41034,2748 41013,2707 C 40999,2681 40971,2572 40928,2379 C 40826,2555 40745,2669 40684,2719 C 40644,2752 40606,2768 40569,2768 C 40543,2768 40519,2759 40497,2740 C 40482,2726 40474,2706 40474,2682 C 40474,2661 40481,2643 40495,2629 C 40510,2614 40527,2607 40548,2607 C 40569,2607 40591,2618 40614,2638 C 40631,2653 40644,2661 40654,2661 C 40661,2661 40671,2656 40684,2645 C 40714,2620 40756,2567 40809,2485 C 40862,2403 40896,2344 40912,2307 C 40872,2149 40850,2065 40847,2056 C 40832,2014 40812,1984 40788,1966 C 40764,1949 40729,1940 40682,1940 C 40667,1940 40650,1941 40630,1942 L 40630,1907 L 40891,1861 Z "  />
<path style="fill:#000000;fill-opacity:1.00;fill-rule:nonzero;stroke:none"  d="M 38559,1861 L 38368,2523 L 38347,2612 C 38345,2620 38344,2628 38344,2633 C 38344,2644 38347,2653 38354,2661 C 38359,2667 38365,2670 38373,2670 C 38382,2670 38393,2664 38407,2654 C 38432,2635 38466,2596 38508,2537 L 38541,2560 C 38496,2628 38450,2680 38403,2715 C 38355,2750 38311,2768 38271,2768 C 38243,2768 38222,2761 38208,2747 C 38194,2733 38187,2713 38187,2686 C 38187,2654 38194,2612 38208,2560 L 38229,2487 C 38143,2598 38065,2676 37993,2720 C 37942,2752 37892,2768 37842,2768 C 37795,2768 37754,2749 37719,2709 C 37685,2670 37667,2616 37667,2547 C 37667,2443 37698,2334 37761,2219 C 37823,2104 37902,2012 37997,1943 C 38072,1888 38143,1861 38209,1861 C 38249,1861 38282,1871 38308,1892 C 38335,1913 38355,1948 38368,1996 L 38404,1884 L 38559,1861 Z M 38211,1912 C 38170,1912 38125,1931 38078,1970 C 38012,2026 37953,2108 37901,2216 C 37849,2325 37824,2424 37824,2511 C 37824,2556 37835,2591 37857,2616 C 37879,2642 37904,2655 37933,2655 C 38004,2655 38081,2603 38164,2498 C 38276,2358 38331,2215 38331,2069 C 38331,2014 38321,1974 38299,1949 C 38278,1924 38248,1912 38211,1912 "  />
<path style="fill:#000000;fill-opacity:1.00;fill-rule:nonzero;stroke:none"  d="M 33604,1861 C 33626,1899 33641,1934 33650,1967 C 33658,2000 33667,2064 33675,2161 L 33718,2641 C 33757,2594 33814,2520 33888,2419 C 33924,2369 33968,2302 34021,2216 C 34053,2164 34072,2128 34080,2107 C 34083,2097 34085,2086 34085,2075 C 34085,2068 34083,2062 34079,2057 C 34074,2053 34062,2047 34043,2041 C 34024,2035 34008,2024 33995,2007 C 33982,1990 33976,1971 33976,1950 C 33976,1923 33984,1902 33999,1885 C 34015,1869 34035,1861 34058,1861 C 34087,1861 34111,1873 34131,1897 C 34151,1920 34162,1953 34162,1995 C 34162,2046 34144,2105 34109,2171 C 34074,2237 34006,2339 33906,2475 C 33805,2612 33684,2761 33541,2923 C 33443,3034 33370,3104 33323,3133 C 33275,3162 33234,3176 33201,3176 C 33180,3176 33163,3169 33147,3153 C 33132,3138 33124,3120 33124,3100 C 33124,3075 33135,3052 33156,3031 C 33177,3010 33200,3000 33225,3000 C 33238,3000 33249,3003 33257,3008 C 33262,3012 33268,3021 33274,3036 C 33281,3052 33286,3062 33291,3067 C 33295,3070 33299,3072 33303,3072 C 33307,3072 33314,3069 33324,3062 C 33359,3040 33401,3005 33449,2957 C 33511,2893 33557,2841 33587,2800 L 33533,2181 C 33524,2079 33510,2017 33492,1995 C 33473,1973 33443,1962 33400,1962 C 33386,1962 33362,1964 33327,1967 L 33318,1931 L 33604,1861 Z "  />
<path style="fill:#000000;fill-opacity:1.00;fill-rule:nonzero;stroke:none"  d="M 27192,1861 L 27132,2161 L 27096,2161 C 27093,2074 27074,2010 27040,1970 C 27006,1931 26964,1911 26914,1911 C 26874,1911 26842,1922 26818,1944 C 26794,1966 26782,1993 26782,2024 C 26782,2046 26787,2066 26797,2086 C 26806,2105 26827,2132 26859,2168 C 26943,2260 26998,2330 27023,2377 C 27047,2424 27060,2468 27060,2509 C 27060,2577 27032,2637 26975,2690 C 26919,2742 26848,2768 26762,2768 C 26715,2768 26661,2757 26600,2735 C 26578,2727 26562,2723 26550,2723 C 26521,2723 26499,2738 26484,2768 L 26447,2768 L 26507,2452 L 26543,2452 C 26547,2551 26568,2621 26605,2662 C 26642,2703 26693,2723 26757,2723 C 26807,2723 26846,2709 26875,2682 C 26904,2654 26918,2620 26918,2580 C 26918,2554 26913,2530 26903,2507 C 26884,2468 26846,2414 26788,2345 C 26730,2276 26692,2225 26675,2190 C 26659,2156 26651,2121 26651,2087 C 26651,2023 26674,1970 26719,1926 C 26765,1883 26824,1861 26897,1861 C 26918,1861 26936,1863 26953,1866 C 26962,1868 26984,1875 27017,1888 C 27051,1901 27073,1907 27084,1907 C 27112,1907 27136,1892 27154,1861 L 27192,1861 Z "  />
<path style="fill:#000000;fill-opacity:1.00;fill-rule:nonzero;stroke:none"  d="M 22508,1861 C 22540,1895 22564,1929 22581,1963 C 22592,1986 22612,2048 22638,2147 L 22724,2018 C 22747,1987 22775,1957 22807,1929 C 22840,1901 22868,1881 22893,1871 C 22909,1864 22926,1861 22945,1861 C 22973,1861 22995,1868 23012,1883 C 23028,1898 23037,1917 23037,1938 C 23037,1963 23032,1980 23022,1989 C 23004,2005 22983,2013 22960,2013 C 22946,2013 22931,2010 22916,2005 C 22885,1994 22865,1989 22854,1989 C 22838,1989 22820,1998 22798,2016 C 22758,2050 22710,2116 22654,2213 L 22734,2549 C 22746,2600 22757,2631 22765,2641 C 22774,2651 22782,2656 22791,2656 C 22804,2656 22820,2648 22838,2633 C 22874,2604 22905,2564 22930,2516 L 22964,2534 C 22923,2611 22871,2674 22808,2725 C 22772,2754 22742,2768 22717,2768 C 22681,2768 22652,2748 22630,2707 C 22617,2681 22588,2572 22546,2379 C 22444,2555 22363,2669 22301,2719 C 22262,2752 22223,2768 22186,2768 C 22160,2768 22136,2759 22115,2740 C 22099,2726 22091,2706 22091,2682 C 22091,2661 22099,2643 22113,2629 C 22127,2614 22145,2607 22166,2607 C 22186,2607 22209,2618 22232,2638 C 22249,2653 22262,2661 22271,2661 C 22279,2661 22289,2656 22301,2645 C 22332,2620 22374,2567 22426,2485 C 22479,2403 22514,2344 22530,2307 C 22490,2149 22468,2065 22464,2056 C 22450,2014 22430,1984 22406,1966 C 22382,1949 22346,1940 22299,1940 C 22284,1940 22267,1941 22248,1942 L 22248,1907 L 22508,1861 Z "  />
<path style="fill:#000000;fill-opacity:1.00;fill-rule:nonzero;stroke:none"  d="M 15885,1861 L 15825,2161 L 15789,2161 C 15786,2074 15767,2010 15734,1970 C 15700,1931 15658,1911 15608,1911 C 15567,1911 15535,1922 15511,1944 C 15488,1966 15476,1993 15476,2024 C 15476,2046 15481,2066 15490,2086 C 15499,2105 15520,2132 15552,2168 C 15637,2260 15691,2330 15716,2377 C 15741,2424 15753,2468 15753,2509 C 15753,2577 15725,2637 15669,2690 C 15612,2742 15541,2768 15455,2768 C 15408,2768 15354,2757 15293,2735 C 15272,2727 15255,2723 15243,2723 C 15214,2723 15192,2738 15177,2768 L 15141,2768 L 15200,2452 L 15237,2452 C 15240,2551 15261,2621 15298,2662 C 15335,2703 15386,2723 15450,2723 C 15500,2723 15539,2709 15568,2682 C 15597,2654 15612,2620 15612,2580 C 15612,2554 15606,2530 15596,2507 C 15578,2468 15539,2414 15481,2345 C 15423,2276 15386,2225 15369,2190 C 15352,2156 15344,2121 15344,2087 C 15344,2023 15367,1970 15413,1926 C 15459,1883 15518,1861 15590,1861 C 15611,1861 15630,1863 15647,1866 C 15656,1868 15677,1875 15711,1888 C 15744,1901 15767,1907 15778,1907 C 15806,1907 15829,1892 15848,1861 L 15885,1861 Z "  />
<path style="fill:#000000;fill-opacity:1.00;fill-rule:nonzero;stroke:none"  d="M 6694,3616 L 6634,3916 L 6598,3916 C 6595,3829 6576,3765 6542,3726 C 6509,3686 6467,3666 6416,3666 C 6376,3666 6344,3677 6320,3699 C 6297,3721 6285,3748 6285,3779 C 6285,3801 6289,3821 6299,3841 C 6308,3860 6329,3888 6361,3923 C 6445,4015 6500,4085 6525,4132 C 6550,4179 6562,4223 6562,4265 C 6562,4332 6534,4392 6478,4445 C 6421,4497 6350,4523 6264,4523 C 6217,4523 6163,4512 6102,4490 C 6081,4482 6064,4479 6052,4479 C 6023,4479 6001,4493 5986,4523 L 5950,4523 L 6009,4207 L 6045,4207 C 6049,4306 6070,4376 6107,4417 C 6144,4458 6195,4479 6259,4479 C 6309,4479 6348,4465 6377,4437 C 6406,4409 6420,4375 6420,4335 C 6420,4309 6415,4285 6405,4263 C 6387,4224 6348,4170 6290,4101 C 6232,4032 6194,3980 6178,3945 C 6161,3911 6153,3876 6153,3842 C 6153,3779 6176,3725 6222,3682 C 6268,3638 6327,3616 6399,3616 C 6420,3616 6439,3618 6456,3621 C 6465,3623 6486,3630 6520,3643 C 6553,3656 6575,3662 6586,3662 C 6614,3662 6638,3647 6657,3616 L 6694,3616 Z "  />
<path style="fill:#000000;fill-opacity:1.00;fill-rule:nonzero;stroke:none"  d="M 4797,3111 L 4605,3786 C 4668,3721 4722,3676 4769,3652 C 4815,3628 4864,3616 4915,3616 C 4986,3616 5045,3640 5090,3688 C 5136,3735 5159,3799 5159,3881 C 5159,3986 5129,4090 5069,4194 C 5009,4298 4934,4379 4843,4437 C 4753,4494 4664,4523 4576,4523 C 4477,4523 4377,4487 4273,4413 L 4570,3391 C 4593,3312 4604,3266 4604,3252 C 4604,3235 4599,3222 4588,3214 C 4573,3202 4551,3196 4522,3196 C 4508,3196 4488,3199 4460,3203 L 4460,3166 L 4797,3111 Z M 4420,4424 C 4485,4460 4542,4478 4591,4478 C 4649,4478 4708,4457 4770,4415 C 4831,4373 4885,4302 4930,4202 C 4975,4103 4998,4002 4998,3900 C 4998,3841 4983,3794 4953,3760 C 4924,3726 4889,3709 4848,3709 C 4788,3709 4728,3733 4670,3782 C 4613,3830 4571,3898 4546,3984 L 4420,4424 Z "  />
<path style="fill:#000000;fill-opacity:1.00;fill-rule:nonzero;stroke:none"  d="M 3479,3616 L 3289,4278 L 3267,4367 C 3265,4376 3264,4383 3264,4389 C 3264,4399 3267,4408 3274,4416 C 3279,4422 3286,4425 3293,4425 C 3302,4425 3313,4420 3327,4409 C 3352,4390 3386,4351 3428,4292 L 3461,4315 C 3417,4383 3370,4435 3323,4470 C 3275,4506 3231,4523 3191,4523 C 3163,4523 3142,4516 3128,4502 C 3114,4488 3107,4468 3107,4441 C 3107,4410 3114,4368 3128,4315 L 3149,4242 C 3064,4354 2985,4431 2914,4476 C 2862,4507 2812,4523 2762,4523 C 2715,4523 2674,4504 2639,4464 C 2605,4425 2587,4371 2587,4302 C 2587,4198 2619,4089 2681,3974 C 2743,3859 2822,3767 2918,3698 C 2992,3644 3063,3616 3129,3616 C 3169,3616 3202,3627 3229,3647 C 3255,3668 3275,3703 3289,3751 L 3324,3640 L 3479,3616 Z M 3131,3667 C 3090,3667 3045,3687 2999,3726 C 2932,3781 2873,3863 2821,3972 C 2770,4080 2744,4179 2744,4267 C 2744,4311 2755,4346 2777,4372 C 2799,4397 2824,4410 2853,4410 C 2924,4410 3001,4358 3085,4253 C 3196,4114 3252,3971 3252,3824 C 3252,3769 3241,3729 3219,3704 C 3198,3679 3168,3667 3131,3667 "  />
<path style="fill:#000000;fill-opacity:1.00;fill-rule:nonzero;stroke:none"  d="M 1018,3246 L 862,3771 L 1035,3771 C 1114,3771 1172,3758 1211,3734 C 1249,3710 1289,3659 1330,3580 L 1367,3580 L 1230,4063 L 1191,4063 C 1200,4023 1205,3991 1205,3966 C 1205,3926 1192,3895 1166,3874 C 1139,3852 1090,3841 1018,3841 L 842,3841 L 727,4240 C 706,4311 696,4358 696,4382 C 696,4406 705,4424 722,4438 C 740,4451 784,4459 854,4464 L 842,4500 L 319,4500 L 331,4464 C 382,4463 416,4458 433,4450 C 459,4439 478,4424 490,4405 C 508,4379 529,4324 553,4240 L 786,3442 C 805,3378 815,3327 815,3291 C 815,3274 810,3260 802,3248 C 794,3236 781,3227 764,3221 C 748,3215 715,3212 665,3212 L 677,3176 L 1704,3176 L 1607,3511 L 1570,3511 C 1577,3470 1580,3437 1580,3411 C 1580,3368 1568,3334 1545,3309 C 1521,3284 1490,3266 1453,3256 C 1427,3249 1369,3246 1279,3246 L 1018,3246 Z "  />
<path style="fill:#000000;fill-opacity:1.00;fill-rule:nonzero;stroke:none"  d="M 12251,6600 L 12251,6575 C 12290,6563 12320,6542 12342,6515 C 12363,6488 12374,6459 12374,6429 C 12374,6422 12372,6416 12369,6411 C 12366,6407 12364,6406 12361,6406 C 12357,6406 12348,6409 12334,6417 C 12327,6420 12320,6422 12312,6422 C 12293,6422 12279,6417 12268,6406 C 12257,6395 12251,6379 12251,6360 C 12251,6342 12258,6326 12272,6312 C 12287,6299 12304,6292 12325,6292 C 12350,6292 12372,6303 12391,6325 C 12411,6347 12421,6376 12421,6412 C 12421,6451 12407,6487 12380,6521 C 12353,6555 12310,6581 12251,6600 "  />
<path style="fill:#000000;fill-opacity:1.00;fill-rule:nonzero;stroke:none"  d="M 44276,5242 L 44222,5391 L 43766,5391 L 43766,5370 C 43900,5247 43994,5147 44049,5070 C 44104,4992 44131,4922 44131,4857 C 44131,4808 44116,4768 44086,4737 C 44056,4705 44020,4689 43978,4689 C 43940,4689 43906,4701 43876,4723 C 43846,4745 43824,4778 43809,4820 L 43788,4820 C 43798,4750 43822,4696 43861,4659 C 43901,4621 43950,4602 44009,4602 C 44071,4602 44124,4622 44165,4663 C 44207,4703 44228,4750 44228,4805 C 44228,4844 44219,4883 44201,4922 C 44173,4984 44127,5049 44064,5118 C 43970,5221 43911,5283 43887,5305 L 44089,5305 C 44130,5305 44159,5303 44175,5300 C 44192,5297 44207,5291 44220,5282 C 44233,5272 44245,5259 44255,5242 L 44276,5242 Z "  />
<path style="fill:#000000;fill-opacity:1.00;fill-rule:nonzero;stroke:none"  d="M 42202,5643 L 42148,5792 L 41692,5792 L 41692,5771 C 41827,5648 41921,5548 41976,5471 C 42030,5394 42058,5323 42058,5259 C 42058,5210 42043,5169 42013,5138 C 41983,5106 41947,5090 41905,5090 C 41867,5090 41833,5102 41803,5124 C 41773,5146 41750,5179 41736,5221 L 41715,5221 C 41724,5151 41749,5097 41788,5060 C 41827,5022 41876,5003 41935,5003 C 41998,5003 42050,5023 42092,5064 C 42134,5104 42155,5151 42155,5206 C 42155,5245 42146,5284 42128,5323 C 42100,5385 42054,5450 41991,5519 C 41896,5622 41837,5684 41814,5706 L 42015,5706 C 42056,5706 42085,5704 42102,5701 C 42118,5698 42133,5692 42146,5683 C 42160,5673 42171,5660 42181,5643 L 42202,5643 Z "  />
<path style="fill:#000000;fill-opacity:1.00;fill-rule:nonzero;stroke:none"  d="M 41993,7382 L 41993,7357 C 42032,7344 42062,7324 42083,7297 C 42105,7269 42116,7241 42116,7210 C 42116,7203 42114,7197 42110,7192 C 42108,7189 42105,7187 42102,7187 C 42098,7187 42089,7191 42075,7198 C 42068,7202 42061,7203 42054,7203 C 42035,7203 42020,7198 42009,7187 C 41998,7176 41993,7161 41993,7141 C 41993,7123 42000,7107 42014,7094 C 42028,7080 42046,7074 42066,7074 C 42091,7074 42113,7084 42133,7106 C 42153,7128 42162,7157 42162,7193 C 42162,7232 42149,7269 42122,7302 C 42094,7336 42051,7362 41993,7382 "  />
<path style="fill:#000000;fill-opacity:1.00;fill-rule:nonzero;stroke:none"  d="M 34408,5095 L 34596,5003 L 34615,5003 L 34615,5656 C 34615,5699 34617,5726 34620,5736 C 34624,5747 34631,5755 34643,5761 C 34654,5767 34677,5770 34712,5771 L 34712,5792 L 34422,5792 L 34422,5771 C 34458,5770 34482,5767 34492,5761 C 34503,5756 34510,5748 34515,5739 C 34519,5730 34521,5702 34521,5656 L 34521,5239 C 34521,5182 34519,5146 34515,5130 C 34513,5118 34508,5109 34501,5104 C 34494,5098 34485,5095 34475,5095 C 34461,5095 34442,5101 34417,5113 L 34408,5095 Z "  />
<path style="fill:#000000;fill-opacity:1.00;fill-rule:nonzero;stroke:none"  d="M 34728,7382 L 34728,7357 C 34767,7344 34797,7324 34819,7297 C 34840,7269 34851,7241 34851,7210 C 34851,7203 34849,7197 34846,7192 C 34843,7189 34840,7187 34838,7187 C 34834,7187 34824,7191 34810,7198 C 34804,7202 34796,7203 34789,7203 C 34770,7203 34755,7198 34744,7187 C 34733,7176 34728,7161 34728,7141 C 34728,7123 34735,7107 34749,7094 C 34763,7080 34781,7074 34801,7074 C 34826,7074 34849,7084 34868,7106 C 34888,7128 34898,7157 34898,7193 C 34898,7232 34884,7269 34857,7302 C 34830,7336 34787,7362 34728,7382 "  />
<path style="fill:#000000;fill-opacity:1.00;fill-rule:nonzero;stroke:none"  d="M 22944,5095 L 23132,5003 L 23151,5003 L 23151,5656 C 23151,5699 23153,5726 23156,5736 C 23160,5747 23167,5755 23179,5761 C 23190,5767 23213,5770 23248,5771 L 23248,5792 L 22958,5792 L 22958,5771 C 22994,5770 23018,5767 23028,5761 C 23039,5756 23046,5748 23051,5739 C 23055,5730 23057,5702 23057,5656 L 23057,5239 C 23057,5182 23055,5146 23051,5130 C 23049,5118 23044,5109 23037,5104 C 23030,5098 23021,5095 23011,5095 C 22997,5095 22978,5101 22953,5113 L 22944,5095 Z "  />
<path style="fill:#000000;fill-opacity:1.00;fill-rule:nonzero;stroke:none"  d="M 23264,7382 L 23264,7357 C 23303,7344 23333,7324 23355,7297 C 23376,7269 23387,7241 23387,7210 C 23387,7203 23385,7197 23382,7192 C 23379,7189 23376,7187 23374,7187 C 23369,7187 23360,7191 23346,7198 C 23339,7202 23332,7203 23325,7203 C 23306,7203 23291,7198 23280,7187 C 23269,7176 23264,7161 23264,7141 C 23264,7123 23271,7107 23285,7094 C 23299,7080 23317,7074 23337,7074 C 23362,7074 23385,7084 23404,7106 C 23424,7128 23433,7157 23433,7193 C 23433,7232 23420,7269 23393,7302 C 23366,7336 23323,7362 23264,7382 "  />
<path style="fill:#000000;fill-opacity:1.00;fill-rule:nonzero;stroke:none"  d="M 44207,1299 L 44153,1448 L 43698,1448 L 43698,1427 C 43832,1305 43926,1205 43981,1127 C 44035,1050 44063,979 44063,915 C 44063,866 44048,826 44018,794 C 43988,762 43952,747 43910,747 C 43872,747 43838,758 43808,780 C 43778,802 43755,835 43741,878 L 43720,878 C 43729,807 43754,754 43793,716 C 43832,678 43881,660 43940,660 C 44003,660 44055,680 44097,720 C 44139,760 44160,808 44160,862 C 44160,901 44151,941 44133,980 C 44105,1041 44059,1106 43996,1175 C 43902,1278 43843,1341 43819,1362 L 44021,1362 C 44062,1362 44090,1360 44107,1357 C 44123,1354 44138,1348 44152,1339 C 44165,1330 44177,1316 44186,1299 L 44207,1299 Z "  />
<path style="fill:#000000;fill-opacity:1.00;fill-rule:nonzero;stroke:none"  d="M 42134,1700 L 42080,1849 L 41624,1849 L 41624,1828 C 41758,1706 41853,1606 41907,1528 C 41962,1451 41989,1380 41989,1316 C 41989,1267 41974,1227 41944,1195 C 41914,1164 41878,1148 41837,1148 C 41799,1148 41765,1159 41734,1181 C 41704,1203 41682,1236 41668,1279 L 41646,1279 C 41656,1209 41680,1155 41720,1117 C 41759,1079 41808,1061 41867,1061 C 41930,1061 41982,1081 42024,1121 C 42066,1161 42087,1209 42087,1263 C 42087,1303 42078,1342 42059,1381 C 42031,1442 41986,1507 41923,1576 C 41828,1679 41769,1742 41746,1763 L 41947,1763 C 41988,1763 42017,1761 42034,1758 C 42050,1755 42065,1749 42078,1740 C 42092,1731 42103,1717 42113,1700 L 42134,1700 Z "  />
<path style="fill:#000000;fill-opacity:1.00;fill-rule:nonzero;stroke:none"  d="M 41924,3439 L 41924,3414 C 41963,3401 41994,3381 42015,3354 C 42037,3327 42047,3298 42047,3268 C 42047,3260 42046,3254 42042,3249 C 42040,3246 42037,3244 42034,3244 C 42030,3244 42021,3248 42007,3256 C 42000,3259 41993,3261 41985,3261 C 41967,3261 41952,3255 41941,3244 C 41930,3233 41924,3218 41924,3199 C 41924,3180 41931,3164 41946,3151 C 41960,3138 41977,3131 41998,3131 C 42023,3131 42045,3142 42065,3164 C 42084,3185 42094,3214 42094,3250 C 42094,3290 42080,3326 42053,3360 C 42026,3393 41983,3420 41924,3439 "  />
<path style="fill:#000000;fill-opacity:1.00;fill-rule:nonzero;stroke:none"  d="M 34377,1152 L 34565,1061 L 34583,1061 L 34583,1713 C 34583,1756 34585,1783 34589,1794 C 34592,1804 34600,1813 34611,1818 C 34623,1824 34646,1827 34681,1828 L 34681,1849 L 34390,1849 L 34390,1828 C 34427,1827 34450,1824 34461,1818 C 34472,1813 34479,1806 34483,1796 C 34487,1787 34489,1759 34489,1713 L 34489,1296 C 34489,1240 34488,1204 34484,1188 C 34481,1175 34476,1167 34469,1161 C 34462,1155 34454,1152 34444,1152 C 34430,1152 34410,1158 34385,1170 L 34377,1152 Z "  />
<path style="fill:#000000;fill-opacity:1.00;fill-rule:nonzero;stroke:none"  d="M 34696,3439 L 34696,3414 C 34735,3401 34766,3381 34787,3354 C 34809,3327 34819,3298 34819,3268 C 34819,3260 34818,3254 34814,3249 C 34812,3246 34809,3244 34806,3244 C 34802,3244 34793,3248 34779,3256 C 34772,3259 34765,3261 34757,3261 C 34739,3261 34724,3255 34713,3244 C 34702,3233 34696,3218 34696,3199 C 34696,3180 34703,3164 34718,3151 C 34732,3138 34749,3131 34770,3131 C 34795,3131 34817,3142 34837,3164 C 34856,3185 34866,3214 34866,3250 C 34866,3290 34852,3326 34825,3360 C 34798,3393 34755,3420 34696,3439 "  />
<path style="fill:#000000;fill-opacity:1.00;fill-rule:nonzero;stroke:none"  d="M 23222,1152 L 23410,1061 L 23429,1061 L 23429,1713 C 23429,1756 23431,1783 23434,1794 C 23438,1804 23446,1813 23457,1818 C 23468,1824 23492,1827 23526,1828 L 23526,1849 L 23236,1849 L 23236,1828 C 23272,1827 23296,1824 23307,1818 C 23317,1813 23325,1806 23329,1796 C 23333,1787 23335,1759 23335,1713 L 23335,1296 C 23335,1240 23333,1204 23329,1188 C 23327,1175 23322,1167 23315,1161 C 23308,1155 23299,1152 23290,1152 C 23275,1152 23256,1158 23231,1170 L 23222,1152 Z "  />
<path style="fill:#000000;fill-opacity:1.00;fill-rule:nonzero;stroke:none"  d="M 23542,3439 L 23542,3414 C 23581,3401 23611,3381 23633,3354 C 23654,3327 23665,3298 23665,3268 C 23665,3260 23663,3254 23660,3249 C 23657,3246 23655,3244 23652,3244 C 23648,3244 23639,3248 23625,3256 C 23618,3259 23610,3261 23603,3261 C 23584,3261 23569,3255 23558,3244 C 23547,3233 23542,3218 23542,3199 C 23542,3180 23549,3164 23563,3151 C 23578,3138 23595,3131 23615,3131 C 23640,3131 23663,3142 23682,3164 C 23702,3185 23712,3214 23712,3250 C 23712,3290 23698,3326 23671,3360 C 23644,3393 23601,3420 23542,3439 "  />
<path style="fill:#000000;fill-opacity:1.00;fill-rule:nonzero;stroke:none"  d="M 28837,6348 C 28813,6465 28765,6556 28695,6620 C 28625,6683 28547,6715 28462,6715 C 28360,6715 28272,6672 28196,6587 C 28121,6502 28083,6386 28083,6241 C 28083,6101 28125,5986 28208,5898 C 28292,5811 28392,5767 28510,5767 C 28598,5767 28670,5790 28726,5836 C 28783,5883 28811,5931 28811,5981 C 28811,6006 28803,6026 28787,6042 C 28771,6057 28749,6064 28721,6064 C 28682,6064 28653,6052 28634,6027 C 28623,6014 28615,5988 28612,5949 C 28608,5911 28595,5882 28572,5861 C 28549,5842 28518,5832 28477,5832 C 28412,5832 28360,5856 28320,5904 C 28267,5968 28241,6052 28241,6157 C 28241,6264 28267,6358 28320,6440 C 28372,6522 28443,6563 28532,6563 C 28596,6563 28653,6541 28704,6497 C 28740,6467 28775,6413 28808,6334 L 28837,6348 Z M 29402,5767 C 29538,5767 29646,5818 29728,5921 C 29798,6009 29833,6110 29833,6224 C 29833,6304 29814,6385 29775,6467 C 29737,6549 29684,6611 29617,6652 C 29549,6694 29474,6715 29391,6715 C 29257,6715 29150,6661 29070,6554 C 29003,6463 28970,6362 28970,6249 C 28970,6167 28990,6085 29031,6004 C 29071,5923 29125,5863 29191,5825 C 29258,5786 29328,5767 29402,5767 M 29372,5830 C 29337,5830 29303,5840 29268,5861 C 29233,5881 29205,5917 29183,5969 C 29162,6020 29151,6086 29151,6167 C 29151,6297 29177,6410 29229,6504 C 29281,6598 29349,6646 29433,6646 C 29497,6646 29549,6619 29590,6567 C 29631,6515 29651,6426 29651,6299 C 29651,6140 29617,6015 29549,5924 C 29502,5861 29444,5830 29372,5830 M 30543,5767 L 30543,6071 L 30511,6071 C 30486,5976 30454,5910 30415,5876 C 30377,5841 30327,5824 30267,5824 C 30222,5824 30185,5836 30157,5860 C 30129,5884 30115,5911 30115,5940 C 30115,5977 30126,6008 30146,6034 C 30167,6061 30208,6089 30269,6119 L 30412,6188 C 30544,6253 30610,6338 30610,6443 C 30610,6525 30579,6590 30518,6640 C 30456,6690 30388,6715 30311,6715 C 30257,6715 30194,6705 30124,6686 C 30102,6679 30085,6676 30071,6676 C 30056,6676 30044,6684 30036,6701 L 30004,6701 L 30004,6382 L 30036,6382 C 30054,6473 30089,6542 30140,6588 C 30192,6634 30250,6657 30313,6657 C 30358,6657 30395,6644 30423,6618 C 30452,6591 30466,6560 30466,6522 C 30466,6478 30450,6440 30418,6409 C 30387,6379 30324,6340 30229,6293 C 30135,6246 30073,6204 30044,6166 C 30015,6129 30000,6082 30000,6025 C 30000,5952 30025,5890 30076,5841 C 30126,5791 30191,5767 30271,5767 C 30306,5767 30349,5774 30399,5789 C 30432,5799 30455,5804 30466,5804 C 30476,5804 30484,5801 30490,5797 C 30496,5792 30503,5782 30511,5767 L 30543,5767 Z "  />
<path style="fill:#000000;fill-opacity:1.00;fill-rule:nonzero;stroke:none"  d="M 17564,5767 L 17564,6071 L 17532,6071 C 17507,5976 17475,5910 17436,5876 C 17398,5841 17348,5824 17288,5824 C 17243,5824 17206,5836 17178,5860 C 17150,5884 17136,5911 17136,5940 C 17136,5977 17146,6008 17167,6034 C 17187,6061 17228,6089 17290,6119 L 17433,6188 C 17565,6253 17631,6338 17631,6443 C 17631,6525 17600,6590 17539,6640 C 17477,6690 17408,6715 17332,6715 C 17278,6715 17215,6705 17145,6686 C 17123,6679 17106,6676 17092,6676 C 17077,6676 17065,6684 17057,6701 L 17025,6701 L 17025,6382 L 17057,6382 C 17075,6473 17110,6542 17161,6588 C 17213,6634 17270,6657 17334,6657 C 17379,6657 17416,6644 17444,6618 C 17472,6591 17487,6560 17487,6522 C 17487,6478 17471,6440 17439,6409 C 17408,6379 17345,6340 17250,6293 C 17156,6246 17094,6204 17065,6166 C 17035,6129 17021,6082 17021,6025 C 17021,5952 17046,5890 17096,5841 C 17147,5791 17212,5767 17292,5767 C 17327,5767 17370,5774 17420,5789 C 17453,5799 17476,5804 17487,5804 C 17497,5804 17505,5801 17511,5797 C 17517,5792 17524,5782 17532,5767 L 17564,5767 Z M 17991,5299 C 18019,5299 18042,5308 18061,5328 C 18081,5347 18090,5370 18090,5397 C 18090,5425 18081,5448 18061,5468 C 18042,5487 18019,5497 17991,5497 C 17964,5497 17941,5487 17921,5468 C 17902,5448 17892,5425 17892,5397 C 17892,5370 17901,5347 17921,5328 C 17940,5308 17963,5299 17991,5299 M 18073,5767 L 18073,6485 C 18073,6541 18077,6579 18085,6597 C 18093,6616 18105,6630 18121,6639 C 18137,6648 18166,6652 18208,6652 L 18208,6688 L 17774,6688 L 17774,6652 C 17817,6652 17847,6648 17862,6640 C 17877,6631 17888,6617 17897,6598 C 17906,6578 17910,6541 17910,6485 L 17910,6141 C 17910,6044 17908,5981 17902,5952 C 17897,5931 17890,5917 17880,5909 C 17870,5901 17857,5896 17840,5896 C 17822,5896 17800,5901 17774,5911 L 17760,5876 L 18030,5767 L 18073,5767 Z M 18580,5956 C 18685,5830 18785,5767 18880,5767 C 18929,5767 18971,5779 19006,5803 C 19041,5828 19069,5868 19090,5924 C 19104,5963 19112,6023 19112,6104 L 19112,6485 C 19112,6542 19116,6580 19125,6601 C 19132,6617 19144,6630 19160,6639 C 19176,6648 19205,6652 19248,6652 L 19248,6688 L 18806,6688 L 18806,6652 L 18824,6652 C 18866,6652 18895,6646 18912,6633 C 18928,6621 18940,6602 18947,6577 C 18949,6567 18950,6537 18950,6485 L 18950,6119 C 18950,6038 18940,5979 18919,5942 C 18898,5905 18862,5887 18812,5887 C 18734,5887 18657,5929 18580,6014 L 18580,6485 C 18580,6546 18584,6583 18591,6598 C 18600,6617 18613,6630 18629,6639 C 18645,6648 18677,6652 18726,6652 L 18726,6688 L 18283,6688 L 18283,6652 L 18303,6652 C 18349,6652 18379,6641 18395,6618 C 18411,6595 18419,6550 18419,6485 L 18419,6153 C 18419,6046 18417,5980 18412,5957 C 18407,5934 18400,5918 18389,5909 C 18379,5901 18366,5896 18349,5896 C 18331,5896 18309,5901 18283,5911 L 18269,5876 L 18538,5767 L 18580,5767 L 18580,5956 Z "  />
<path style="fill:#000000;fill-opacity:1.00;fill-rule:nonzero;stroke:none"  d="M 28870,1824 L 28870,2129 L 28838,2129 C 28813,2033 28782,1968 28743,1933 C 28704,1899 28655,1882 28595,1882 C 28549,1882 28513,1894 28485,1918 C 28457,1942 28443,1968 28443,1998 C 28443,2034 28453,2065 28474,2091 C 28494,2118 28535,2146 28597,2176 L 28739,2246 C 28872,2310 28938,2395 28938,2501 C 28938,2582 28907,2648 28845,2697 C 28784,2747 28715,2772 28639,2772 C 28584,2772 28522,2762 28451,2743 C 28430,2736 28412,2733 28399,2733 C 28384,2733 28372,2742 28364,2758 L 28331,2758 L 28331,2439 L 28364,2439 C 28382,2530 28417,2599 28468,2645 C 28519,2691 28577,2715 28641,2715 C 28686,2715 28722,2701 28751,2675 C 28779,2649 28793,2617 28793,2580 C 28793,2535 28777,2497 28746,2466 C 28714,2436 28651,2397 28557,2350 C 28462,2303 28401,2261 28371,2223 C 28342,2186 28327,2139 28327,2083 C 28327,2009 28353,1948 28403,1898 C 28454,1849 28519,1824 28599,1824 C 28634,1824 28677,1831 28727,1846 C 28760,1856 28782,1861 28793,1861 C 28804,1861 28812,1859 28818,1854 C 28823,1850 28830,1840 28838,1824 L 28870,1824 Z M 29298,1356 C 29325,1356 29349,1366 29368,1385 C 29387,1404 29397,1427 29397,1455 C 29397,1482 29387,1506 29368,1525 C 29349,1545 29325,1554 29298,1554 C 29271,1554 29247,1545 29228,1525 C 29208,1506 29198,1482 29198,1455 C 29198,1427 29208,1404 29227,1385 C 29246,1366 29270,1356 29298,1356 M 29379,1824 L 29379,2543 C 29379,2599 29383,2636 29391,2654 C 29399,2673 29412,2687 29427,2696 C 29443,2705 29473,2710 29515,2710 L 29515,2745 L 29080,2745 L 29080,2710 C 29124,2710 29153,2705 29168,2697 C 29183,2688 29195,2674 29204,2655 C 29213,2635 29217,2598 29217,2543 L 29217,2198 C 29217,2101 29214,2038 29208,2009 C 29204,1989 29197,1974 29187,1966 C 29177,1958 29164,1954 29147,1954 C 29128,1954 29106,1959 29080,1968 L 29067,1933 L 29336,1824 L 29379,1824 Z M 29887,2013 C 29992,1887 30092,1824 30187,1824 C 30236,1824 30278,1836 30313,1861 C 30348,1885 30376,1925 30397,1981 C 30411,2020 30418,2080 30418,2161 L 30418,2543 C 30418,2599 30423,2638 30432,2658 C 30439,2674 30451,2687 30467,2696 C 30482,2705 30512,2710 30555,2710 L 30555,2745 L 30113,2745 L 30113,2710 L 30131,2710 C 30173,2710 30202,2703 30218,2691 C 30235,2678 30247,2659 30253,2634 C 30256,2625 30257,2594 30257,2543 L 30257,2176 C 30257,2095 30246,2036 30225,1999 C 30204,1962 30169,1944 30118,1944 C 30041,1944 29964,1986 29887,2071 L 29887,2543 C 29887,2603 29891,2641 29898,2655 C 29907,2674 29919,2688 29935,2696 C 29951,2705 29984,2710 30032,2710 L 30032,2745 L 29590,2745 L 29590,2710 L 29610,2710 C 29655,2710 29686,2698 29702,2675 C 29718,2652 29726,2608 29726,2543 L 29726,2211 C 29726,2103 29723,2038 29718,2014 C 29714,1991 29706,1975 29696,1966 C 29686,1958 29672,1954 29655,1954 C 29637,1954 29615,1959 29590,1968 L 29575,1933 L 29845,1824 L 29887,1824 L 29887,2013 Z "  />
<path style="fill:#000000;fill-opacity:1.00;fill-rule:nonzero;stroke:none"  d="M 17777,2405 C 17753,2523 17706,2613 17635,2677 C 17565,2740 17487,2772 17402,2772 C 17300,2772 17212,2729 17136,2644 C 17061,2559 17023,2444 17023,2299 C 17023,2158 17065,2044 17148,1956 C 17232,1868 17333,1824 17450,1824 C 17538,1824 17610,1847 17667,1894 C 17723,1940 17751,1989 17751,2039 C 17751,2063 17744,2084 17728,2099 C 17712,2114 17689,2122 17661,2122 C 17622,2122 17593,2109 17574,2085 C 17563,2071 17555,2045 17552,2007 C 17548,1968 17535,1939 17512,1919 C 17489,1899 17458,1889 17418,1889 C 17352,1889 17300,1913 17260,1962 C 17208,2025 17181,2110 17181,2215 C 17181,2321 17207,2416 17260,2497 C 17312,2579 17383,2620 17472,2620 C 17536,2620 17593,2598 17644,2554 C 17680,2524 17715,2470 17749,2391 L 17777,2405 Z M 18342,1824 C 18478,1824 18586,1875 18668,1978 C 18738,2066 18773,2167 18773,2281 C 18773,2361 18754,2442 18715,2524 C 18677,2606 18624,2668 18557,2710 C 18489,2751 18414,2772 18332,2772 C 18197,2772 18090,2718 18010,2611 C 17943,2521 17910,2419 17910,2306 C 17910,2224 17930,2143 17971,2062 C 18011,1981 18065,1921 18131,1882 C 18198,1843 18268,1824 18342,1824 M 18312,1887 C 18278,1887 18243,1898 18208,1918 C 18173,1939 18145,1975 18124,2026 C 18102,2077 18091,2144 18091,2224 C 18091,2354 18117,2467 18169,2561 C 18221,2656 18289,2703 18374,2703 C 18437,2703 18489,2677 18530,2625 C 18571,2573 18591,2483 18591,2356 C 18591,2197 18557,2072 18489,1981 C 18443,1919 18384,1887 18312,1887 M 19483,1824 L 19483,2129 L 19451,2129 C 19426,2033 19394,1968 19356,1933 C 19317,1899 19267,1882 19208,1882 C 19162,1882 19125,1894 19097,1918 C 19069,1942 19055,1968 19055,1998 C 19055,2034 19066,2065 19086,2091 C 19107,2118 19148,2146 19210,2176 L 19352,2246 C 19484,2310 19550,2395 19550,2501 C 19550,2582 19520,2648 19458,2697 C 19397,2747 19328,2772 19252,2772 C 19197,2772 19134,2762 19064,2743 C 19043,2736 19025,2733 19011,2733 C 18996,2733 18985,2742 18976,2758 L 18944,2758 L 18944,2439 L 18976,2439 C 18994,2530 19029,2599 19081,2645 C 19132,2691 19190,2715 19253,2715 C 19298,2715 19335,2701 19363,2675 C 19392,2649 19406,2617 19406,2580 C 19406,2535 19390,2497 19358,2466 C 19327,2436 19264,2397 19169,2350 C 19075,2303 19013,2261 18984,2223 C 18955,2186 18940,2139 18940,2083 C 18940,2009 18965,1948 19016,1898 C 19066,1849 19131,1824 19211,1824 C 19247,1824 19289,1831 19339,1846 C 19373,1856 19395,1861 19406,1861 C 19416,1861 19424,1859 19430,1854 C 19436,1850 19443,1840 19451,1824 L 19483,1824 Z "  />
<path style="fill:#000000;fill-opacity:1.00;fill-rule:nonzero;stroke:none"  d="M 8769,3152 L 8769,3111 C 8868,3160 8950,3218 9016,3284 C 9109,3379 9181,3491 9232,3619 C 9283,3747 9308,3880 9308,4019 C 9308,4220 9258,4404 9159,4571 C 9060,4737 8930,4856 8769,4928 L 8769,4892 C 8849,4847 8915,4786 8967,4709 C 9018,4633 9057,4536 9082,4417 C 9107,4299 9120,4176 9120,4048 C 9120,3909 9109,3783 9087,3668 C 9071,3578 9051,3506 9026,3452 C 9002,3398 8969,3346 8929,3296 C 8889,3246 8835,3198 8769,3152 "  />
<path style="fill:#000000;fill-opacity:1.00;fill-rule:nonzero;stroke:none"  d="M 6895,4833 L 6895,4790 C 6962,4768 7013,4734 7050,4687 C 7087,4640 7105,4591 7105,4539 C 7105,4527 7103,4516 7097,4508 C 7092,4502 7088,4499 7083,4499 C 7076,4499 7060,4506 7036,4519 C 7024,4524 7012,4527 6999,4527 C 6967,4527 6942,4518 6923,4499 C 6904,4480 6895,4454 6895,4421 C 6895,4389 6907,4362 6931,4339 C 6956,4316 6985,4305 7020,4305 C 7063,4305 7102,4323 7135,4361 C 7169,4398 7186,4448 7186,4510 C 7186,4577 7162,4639 7116,4697 C 7069,4754 6995,4800 6895,4833 "  />
<path style="fill:#000000;fill-opacity:1.00;fill-rule:nonzero;stroke:none"  d="M 5336,4833 L 5336,4790 C 5403,4768 5455,4734 5491,4687 C 5528,4640 5546,4591 5546,4539 C 5546,4527 5544,4516 5538,4508 C 5533,4502 5529,4499 5524,4499 C 5517,4499 5501,4506 5477,4519 C 5465,4524 5453,4527 5440,4527 C 5408,4527 5383,4518 5364,4499 C 5345,4480 5336,4454 5336,4421 C 5336,4389 5348,4362 5372,4339 C 5397,4316 5426,4305 5462,4305 C 5504,4305 5543,4323 5576,4361 C 5610,4398 5627,4448 5627,4510 C 5627,4577 5603,4639 5557,4697 C 5510,4754 5436,4800 5336,4833 "  />
<path style="fill:#000000;fill-opacity:1.00;fill-rule:nonzero;stroke:none"  d="M 3682,4833 L 3682,4790 C 3749,4768 3801,4734 3838,4687 C 3875,4640 3893,4591 3893,4539 C 3893,4527 3890,4516 3884,4508 C 3880,4502 3875,4499 3871,4499 C 3863,4499 3848,4506 3824,4519 C 3812,4524 3800,4527 3787,4527 C 3755,4527 3729,4518 3710,4499 C 3692,4480 3682,4454 3682,4421 C 3682,4389 3694,4362 3719,4339 C 3743,4316 3773,4305 3808,4305 C 3851,4305 3889,4323 3923,4361 C 3956,4398 3973,4448 3973,4510 C 3973,4577 3950,4639 3903,4697 C 3857,4754 3783,4800 3682,4833 "  />
<path style="fill:#000000;fill-opacity:1.00;fill-rule:nonzero;stroke:none"  d="M 2437,4892 L 2437,4928 C 2339,4878 2257,4820 2191,4754 C 2097,4660 2025,4548 1974,4420 C 1924,4292 1898,4159 1898,4021 C 1898,3819 1948,3635 2048,3468 C 2147,3302 2277,3183 2437,3111 L 2437,3152 C 2357,3197 2291,3257 2240,3334 C 2189,3411 2150,3508 2125,3626 C 2099,3744 2087,3867 2087,3995 C 2087,4134 2097,4261 2119,4375 C 2136,4465 2156,4537 2180,4591 C 2205,4646 2237,4698 2278,4748 C 2318,4798 2372,4846 2437,4892 "  />
<path style="fill:#000000;fill-opacity:1.00;fill-rule:nonzero;stroke:none"  d="M 31316,6660 L 31507,6043 C 31538,5943 31579,5872 31630,5830 C 31681,5788 31741,5767 31809,5767 C 31908,5767 31983,5809 32034,5895 C 32085,5981 32090,6087 32051,6215 C 32024,6300 31978,6383 31911,6464 C 31844,6545 31771,6605 31692,6644 C 31613,6683 31517,6706 31406,6715 L 31281,7119 L 31175,7119 L 31300,6715 C 31203,6706 31127,6683 31072,6644 C 31017,6604 30981,6545 30964,6465 C 30947,6385 30952,6302 30978,6217 C 31000,6145 31035,6077 31082,6016 C 31128,5954 31176,5905 31226,5869 C 31275,5833 31323,5808 31368,5792 C 31414,5777 31466,5769 31526,5767 L 31515,5804 C 31455,5808 31393,5841 31329,5903 C 31265,5965 31212,6064 31170,6199 C 31139,6298 31129,6381 31138,6451 C 31147,6520 31170,6572 31205,6606 C 31228,6629 31265,6646 31316,6660 M 31423,6658 C 31491,6651 31549,6636 31597,6612 C 31663,6580 31720,6534 31767,6474 C 31815,6414 31852,6342 31878,6259 C 31914,6141 31915,6043 31880,5966 C 31854,5910 31813,5882 31758,5882 C 31730,5882 31704,5894 31678,5918 C 31653,5943 31628,5995 31604,6074 L 31423,6658 Z "  />
<path style="fill:#000000;fill-opacity:1.00;fill-rule:nonzero;stroke:none"  d="M 19978,6660 L 20169,6043 C 20200,5943 20241,5872 20292,5830 C 20343,5788 20403,5767 20471,5767 C 20570,5767 20645,5809 20696,5895 C 20746,5981 20752,6087 20713,6215 C 20686,6300 20640,6383 20573,6464 C 20506,6545 20432,6605 20353,6644 C 20274,6683 20179,6706 20068,6715 L 19943,7119 L 19837,7119 L 19961,6715 C 19864,6706 19789,6683 19734,6644 C 19679,6604 19643,6545 19626,6465 C 19609,6385 19613,6302 19640,6217 C 19662,6145 19697,6077 19743,6016 C 19790,5954 19838,5905 19888,5869 C 19937,5833 19985,5808 20030,5792 C 20076,5777 20128,5769 20188,5767 L 20177,5804 C 20117,5808 20055,5841 19991,5903 C 19927,5965 19874,6064 19832,6199 C 19801,6298 19791,6381 19800,6451 C 19809,6520 19831,6572 19867,6606 C 19890,6629 19927,6646 19978,6660 M 20085,6658 C 20153,6651 20211,6636 20259,6612 C 20325,6580 20382,6534 20429,6474 C 20477,6414 20514,6342 20540,6259 C 20576,6141 20577,6043 20542,5966 C 20516,5910 20475,5882 20420,5882 C 20392,5882 20365,5894 20340,5918 C 20315,5943 20290,5995 20266,6074 L 20085,6658 Z "  />
<path style="fill:#000000;fill-opacity:1.00;fill-rule:nonzero;stroke:none"  d="M 31285,2717 L 31476,2100 C 31506,2001 31547,1930 31599,1887 C 31650,1845 31710,1824 31778,1824 C 31877,1824 31952,1867 32002,1952 C 32053,2038 32059,2145 32019,2272 C 31993,2357 31946,2441 31879,2522 C 31812,2603 31739,2663 31660,2701 C 31581,2740 31486,2764 31374,2772 L 31250,3176 L 31143,3176 L 31268,2772 C 31171,2764 31095,2740 31041,2701 C 30986,2662 30950,2602 30933,2522 C 30915,2442 30920,2359 30946,2274 C 30969,2202 31003,2135 31050,2073 C 31097,2011 31145,1962 31194,1926 C 31244,1891 31291,1865 31337,1850 C 31382,1834 31435,1826 31495,1824 L 31483,1861 C 31423,1866 31361,1899 31297,1961 C 31233,2022 31180,2121 31138,2257 C 31108,2355 31097,2439 31107,2508 C 31116,2577 31138,2629 31174,2664 C 31197,2686 31234,2704 31285,2717 M 31392,2715 C 31460,2708 31518,2693 31565,2670 C 31631,2638 31688,2592 31736,2531 C 31784,2471 31821,2399 31846,2316 C 31883,2198 31883,2101 31848,2023 C 31822,1967 31782,1939 31727,1939 C 31699,1939 31672,1951 31647,1976 C 31622,2000 31597,2052 31572,2132 L 31392,2715 Z "  />
<path style="fill:#000000;fill-opacity:1.00;fill-rule:nonzero;stroke:none"  d="M 20257,2717 L 20447,2100 C 20478,2001 20519,1930 20570,1887 C 20621,1845 20681,1824 20749,1824 C 20848,1824 20923,1867 20974,1952 C 21025,2038 21030,2145 20991,2272 C 20964,2357 20918,2441 20851,2522 C 20784,2603 20711,2663 20632,2701 C 20553,2740 20457,2764 20346,2772 L 20221,3176 L 20115,3176 L 20240,2772 C 20143,2764 20067,2740 20012,2701 C 19958,2662 19922,2602 19904,2522 C 19887,2442 19892,2359 19918,2274 C 19940,2202 19975,2135 20022,2073 C 20068,2011 20117,1962 20166,1926 C 20216,1891 20263,1865 20308,1850 C 20354,1834 20406,1826 20466,1824 L 20455,1861 C 20395,1866 20333,1899 20269,1961 C 20205,2022 20152,2121 20110,2257 C 20080,2355 20069,2439 20078,2508 C 20087,2577 20110,2629 20145,2664 C 20168,2686 20205,2704 20257,2717 M 20364,2715 C 20432,2708 20489,2693 20537,2670 C 20603,2638 20660,2592 20708,2531 C 20756,2471 20792,2399 20818,2316 C 20855,2198 20855,2101 20820,2023 C 20794,1967 20754,1939 20698,1939 C 20670,1939 20644,1951 20619,1976 C 20593,2000 20569,2052 20544,2132 L 20364,2715 Z "  />
<path style="fill:#000000;fill-opacity:1.00;fill-rule:nonzero;stroke:none"  d="M 7890,4473 L 8080,3855 C 8111,3756 8152,3685 8203,3643 C 8254,3600 8314,3579 8383,3579 C 8482,3579 8556,3622 8607,3708 C 8658,3793 8663,3900 8624,4027 C 8598,4113 8551,4196 8484,4277 C 8417,4358 8344,4418 8265,4457 C 8186,4495 8091,4519 7979,4527 L 7854,4932 L 7748,4932 L 7873,4527 C 7776,4519 7700,4495 7645,4456 C 7591,4417 7555,4357 7537,4277 C 7520,4197 7525,4115 7551,4029 C 7573,3957 7608,3890 7655,3828 C 7702,3766 7750,3717 7799,3682 C 7849,3646 7896,3620 7941,3605 C 7987,3590 8040,3581 8099,3579 L 8088,3616 C 8028,3621 7966,3654 7902,3716 C 7838,3778 7785,3876 7743,4012 C 7713,4110 7702,4194 7711,4263 C 7720,4333 7743,4384 7778,4419 C 7801,4441 7839,4459 7890,4473 M 7997,4471 C 8065,4464 8122,4448 8170,4425 C 8236,4393 8293,4347 8341,4287 C 8389,4226 8425,4155 8451,4071 C 8488,3953 8488,3856 8453,3778 C 8427,3722 8387,3694 8331,3694 C 8303,3694 8277,3707 8252,3731 C 8227,3755 8202,3807 8177,3887 L 7997,4471 Z "  />
</svg>