<svg width="64px" height="96px" viewBox="0 0 6400 9600" version="1.1" xmlns="http://www.w3.org/2000/svg" xmlns:xlink="http://www.w3.org/1999/xlink">
<path style="fill:#000000;fill-opacity:1.00;fill-rule:nonzero;stroke:none"  d="M 5436,8826 L 5594,8800 L 5528,9022 C 5581,8931 5629,8867 5673,8831 C 5697,8810 5717,8800 5733,8800 C 5743,8800 5751,8803 5757,8809 C 5762,8815 5765,8823 5765,8835 C 5765,8855 5760,8874 5750,8892 C 5743,8906 5732,8913 5718,8913 C 5711,8913 5705,8910 5700,8906 C 5695,8901 5692,8894 5691,8885 C 5690,8879 5689,8875 5687,8873 C 5685,8871 5682,8870 5678,8870 C 5673,8870 5668,8871 5664,8873 C 5656,8878 5644,8889 5628,8909 C 5602,8939 5575,8977 5546,9025 C 5533,9045 5522,9067 5513,9093 C 5500,9127 5493,9148 5491,9155 L 5476,9213 L 5407,9213 L 5491,8929 C 5501,8897 5506,8873 5506,8859 C 5506,8854 5503,8849 5499,8846 C 5493,8841 5485,8838 5475,8838 C 5468,8838 5456,8840 5439,8842 L 5436,8826 Z "  />
<path style="fill:#000000;fill-opacity:1.00;fill-rule:nonzero;stroke:none"  d="M 1382,8826 L 1539,8800 L 1474,9022 C 1527,8931 1575,8867 1619,8831 C 1643,8810 1663,8800 1679,8800 C 1689,8800 1697,8803 1703,8809 C 1708,8815 1711,8823 1711,8835 C 1711,8855 1706,8874 1696,8892 C 1688,8906 1678,8913 1664,8913 C 1657,8913 1651,8910 1646,8906 C 1641,8901 1638,8894 1637,8885 C 1636,8879 1635,8875 1633,8873 C 1630,8871 1627,8870 1624,8870 C 1619,8870 1614,8871 1610,8873 C 1602,8878 1590,8889 1574,8909 C 1548,8939 1521,8977 1491,9025 C 1479,9045 1468,9067 1459,9093 C 1446,9127 1439,9148 1437,9155 L 1422,9213 L 1352,9213 L 1437,8929 C 1447,8897 1451,8873 1451,8859 C 1451,8854 1449,8849 1445,8846 C 1438,8841 1430,8838 1420,8838 C 1414,8838 1402,8840 1385,8842 L 1382,8826 Z "  />
<path style="fill:#000000;fill-opacity:1.00;fill-rule:nonzero;stroke:none"  d="M 4624,7782 L 4635,7753 L 5013,7753 C 5077,7753 5133,7763 5183,7783 C 5233,7803 5270,7830 5295,7866 C 5320,7901 5332,7939 5332,7978 C 5332,8039 5310,8094 5266,8143 C 5222,8193 5150,8229 5051,8252 C 5115,8276 5162,8308 5192,8348 C 5222,8387 5237,8431 5237,8478 C 5237,8531 5224,8581 5197,8629 C 5170,8677 5135,8714 5093,8741 C 5050,8767 4999,8787 4939,8799 C 4896,8808 4830,8813 4739,8813 L 4351,8813 L 4361,8784 C 4402,8783 4429,8779 4444,8772 C 4465,8763 4479,8751 4488,8737 C 4501,8717 4517,8672 4538,8601 L 4728,7959 C 4744,7905 4752,7867 4752,7845 C 4752,7826 4745,7811 4731,7800 C 4717,7788 4689,7783 4649,7783 C 4640,7783 4632,7783 4624,7782 M 4783,8222 C 4817,8223 4841,8223 4856,8223 C 4965,8223 5045,8200 5098,8153 C 5151,8106 5177,8047 5177,7976 C 5177,7922 5161,7880 5129,7850 C 5097,7820 5045,7806 4974,7806 C 4955,7806 4931,7809 4902,7815 L 4783,8222 Z M 4629,8744 C 4685,8751 4729,8755 4761,8755 C 4842,8755 4914,8730 4977,8681 C 5040,8632 5071,8566 5071,8482 C 5071,8418 5052,8368 5013,8332 C 4974,8296 4911,8278 4825,8278 C 4808,8278 4788,8279 4764,8280 L 4629,8744 Z "  />
<path style="fill:#000000;fill-opacity:1.00;fill-rule:nonzero;stroke:none"  d="M 1233,7729 L 1152,8610 C 1148,8651 1146,8678 1146,8691 C 1146,8712 1150,8728 1158,8739 C 1167,8754 1181,8765 1198,8773 C 1215,8780 1243,8784 1283,8784 L 1275,8813 L 858,8813 L 866,8784 L 884,8784 C 918,8784 946,8776 967,8762 C 982,8752 994,8735 1002,8713 C 1008,8696 1013,8658 1018,8598 L 1031,8464 L 728,8464 L 620,8610 C 596,8643 580,8667 574,8681 C 568,8695 565,8709 565,8721 C 565,8738 571,8752 585,8764 C 598,8776 621,8783 652,8784 L 643,8813 L 330,8813 L 339,8784 C 377,8782 411,8769 441,8745 C 470,8721 514,8669 572,8590 L 1205,7729 L 1233,7729 Z M 1078,7989 L 771,8407 L 1037,8407 L 1078,7989 Z "  />
<path style="fill:#000000;fill-opacity:1.00;fill-rule:nonzero;stroke:none"  d="M 4624,2982 L 4635,2953 L 5013,2953 C 5077,2953 5133,2963 5183,2983 C 5233,3003 5270,3030 5295,3066 C 5320,3101 5332,3139 5332,3178 C 5332,3239 5310,3294 5266,3343 C 5222,3393 5150,3429 5051,3452 C 5115,3476 5162,3508 5192,3548 C 5222,3587 5237,3631 5237,3678 C 5237,3731 5224,3781 5197,3829 C 5170,3877 5135,3914 5093,3941 C 5050,3967 4999,3987 4939,3999 C 4896,4008 4830,4013 4739,4013 L 4351,4013 L 4361,3984 C 4402,3983 4429,3979 4444,3972 C 4465,3963 4479,3951 4488,3937 C 4501,3917 4517,3872 4538,3801 L 4728,3159 C 4744,3105 4752,3067 4752,3045 C 4752,3026 4745,3011 4731,3000 C 4717,2988 4689,2983 4649,2983 C 4640,2983 4632,2983 4624,2982 M 4783,3422 C 4817,3423 4841,3423 4856,3423 C 4965,3423 5045,3400 5098,3353 C 5151,3306 5177,3247 5177,3176 C 5177,3122 5161,3080 5129,3050 C 5097,3020 5045,3006 4974,3006 C 4955,3006 4931,3009 4902,3015 L 4783,3422 Z M 4629,3944 C 4685,3951 4729,3955 4761,3955 C 4842,3955 4914,3930 4977,3881 C 5040,3832 5071,3766 5071,3682 C 5071,3618 5052,3568 5013,3532 C 4974,3496 4911,3478 4825,3478 C 4808,3478 4788,3479 4764,3480 L 4629,3944 Z "  />
<path style="fill:#000000;fill-opacity:1.00;fill-rule:nonzero;stroke:none"  d="M 1191,2929 L 1110,3810 C 1106,3851 1104,3878 1104,3891 C 1104,3912 1108,3928 1116,3939 C 1126,3954 1139,3965 1156,3973 C 1173,3980 1202,3984 1242,3984 L 1233,4013 L 816,4013 L 824,3984 L 842,3984 C 876,3984 904,3976 925,3962 C 940,3952 952,3935 960,3913 C 966,3896 972,3858 977,3798 L 989,3664 L 686,3664 L 578,3810 C 554,3843 539,3867 532,3881 C 526,3895 523,3909 523,3921 C 523,3938 530,3952 543,3964 C 557,3976 579,3983 610,3984 L 602,4013 L 289,4013 L 297,3984 C 336,3982 370,3969 399,3945 C 429,3921 472,3869 531,3790 L 1164,2929 L 1191,2929 Z M 1036,3189 L 729,3607 L 996,3607 L 1036,3189 Z "  />
<path style="fill:#000000;fill-opacity:1.00;fill-rule:nonzero;stroke:none"  d="M 4624,582 L 4635,553 L 5013,553 C 5077,553 5133,563 5183,583 C 5233,603 5270,630 5295,666 C 5320,701 5332,739 5332,778 C 5332,839 5310,894 5266,943 C 5222,993 5150,1029 5051,1052 C 5115,1076 5162,1108 5192,1148 C 5222,1187 5237,1231 5237,1278 C 5237,1331 5224,1381 5197,1429 C 5170,1477 5135,1514 5093,1541 C 5050,1567 4999,1587 4939,1599 C 4896,1608 4830,1613 4739,1613 L 4351,1613 L 4361,1584 C 4402,1583 4429,1579 4444,1572 C 4465,1563 4479,1551 4488,1537 C 4501,1517 4517,1472 4538,1401 L 4728,759 C 4744,705 4752,667 4752,645 C 4752,626 4745,611 4731,600 C 4717,588 4689,583 4649,583 C 4640,583 4632,583 4624,582 M 4783,1022 C 4817,1023 4841,1023 4856,1023 C 4965,1023 5045,1000 5098,953 C 5151,906 5177,847 5177,776 C 5177,722 5161,680 5129,650 C 5097,620 5045,606 4974,606 C 4955,606 4931,609 4902,615 L 4783,1022 Z M 4629,1544 C 4685,1551 4729,1555 4761,1555 C 4842,1555 4914,1530 4977,1481 C 5040,1432 5071,1366 5071,1282 C 5071,1218 5052,1168 5013,1132 C 4974,1096 4911,1078 4825,1078 C 4808,1078 4788,1079 4764,1080 L 4629,1544 Z "  />
<path style="fill:#000000;fill-opacity:1.00;fill-rule:nonzero;stroke:none"  d="M 1366,529 L 1285,1410 C 1281,1451 1279,1478 1279,1491 C 1279,1512 1283,1528 1291,1539 C 1301,1554 1314,1565 1331,1573 C 1348,1580 1377,1584 1417,1584 L 1408,1613 L 991,1613 L 999,1584 L 1017,1584 C 1051,1584 1079,1576 1100,1562 C 1115,1552 1127,1535 1135,1513 C 1141,1496 1147,1458 1152,1398 L 1164,1264 L 861,1264 L 753,1410 C 729,1443 714,1467 707,1481 C 701,1495 698,1509 698,1521 C 698,1538 705,1552 718,1564 C 732,1576 754,1583 785,1584 L 777,1613 L 464,1613 L 472,1584 C 511,1582 545,1569 574,1545 C 604,1521 647,1469 706,1390 L 1339,529 L 1366,529 Z M 1211,789 L 904,1207 L 1171,1207 L 1211,789 Z "  />
<path style="fill:#000000;fill-opacity:1.00;fill-rule:nonzero;stroke:none"  d="M 3619,8463 L 2421,8463 L 2421,8387 L 3619,8387 C 3546,8301 3494,8235 3464,8189 C 3434,8142 3405,8084 3377,8015 L 3440,8015 C 3501,8090 3577,8166 3667,8243 C 3758,8320 3830,8374 3883,8404 L 3883,8448 C 3813,8486 3738,8541 3656,8613 C 3574,8685 3502,8759 3440,8834 L 3377,8834 C 3407,8764 3437,8704 3469,8655 C 3500,8607 3550,8542 3619,8463 "  />
<path style="fill:#000000;fill-opacity:1.00;fill-rule:nonzero;stroke:none"  d="M 3619,3663 L 2421,3663 L 2421,3587 L 3619,3587 C 3546,3501 3494,3435 3464,3389 C 3434,3342 3405,3284 3377,3215 L 3440,3215 C 3501,3290 3577,3366 3667,3443 C 3758,3520 3830,3574 3883,3604 L 3883,3648 C 3813,3686 3738,3741 3656,3813 C 3574,3885 3502,3959 3440,4034 L 3377,4034 C 3407,3964 3437,3904 3469,3855 C 3500,3807 3550,3742 3619,3663 "  />
<path style="fill:#000000;fill-opacity:1.00;fill-rule:nonzero;stroke:none"  d="M 3619,1263 L 2421,1263 L 2421,1187 L 3619,1187 C 3546,1101 3494,1035 3464,989 C 3434,942 3405,884 3377,815 L 3440,815 C 3501,890 3577,966 3667,1043 C 3758,1120 3830,1174 3883,1204 L 3883,1248 C 3813,1286 3738,1341 3656,1413 C 3574,1485 3502,1559 3440,1634 L 3377,1634 C 3407,1564 3437,1504 3469,1455 C 3500,1407 3550,1342 3619,1263 "  />
<path style="fill:#000000;fill-opacity:1.00;fill-rule:nonzero;stroke:none"  d="M 3144,5195 C 3169,5195 3191,5203 3208,5221 C 3225,5238 3233,5259 3233,5285 C 3233,5308 3225,5329 3208,5347 C 3191,5365 3169,5374 3144,5374 C 3120,5374 3099,5365 3081,5347 C 3063,5329 3054,5308 3054,5285 C 3054,5259 3063,5238 3081,5221 C 3099,5203 3120,5195 3144,5195 M 3144,5727 C 3169,5727 3191,5736 3208,5753 C 3225,5770 3233,5792 3233,5817 C 3233,5841 3225,5861 3208,5880 C 3191,5898 3169,5907 3144,5907 C 3120,5907 3099,5898 3081,5880 C 3063,5861 3054,5841 3054,5817 C 3054,5792 3063,5770 3081,5753 C 3099,5736 3120,5727 3144,5727 M 3144,6260 C 3169,6260 3191,6269 3208,6286 C 3225,6303 3233,6324 3233,6350 C 3233,6374 3225,6394 3208,6413 C 3191,6431 3169,6440 3144,6440 C 3120,6440 3099,6431 3081,6413 C 3063,6394 3054,6374 3054,6350 C 3054,6324 3063,6303 3081,6286 C 3099,6269 3120,6260 3144,6260 "  />
<path style="fill:#000000;fill-opacity:1.00;fill-rule:nonzero;stroke:none"  d="M 5815,4294 L 5772,4413 L 5408,4413 L 5408,4396 C 5515,4298 5590,4218 5634,4156 C 5678,4094 5700,4037 5700,3986 C 5700,3947 5688,3914 5664,3889 C 5640,3864 5611,3851 5578,3851 C 5547,3851 5520,3860 5496,3878 C 5472,3896 5454,3922 5442,3956 L 5425,3956 C 5433,3900 5452,3857 5484,3827 C 5515,3797 5555,3782 5602,3782 C 5652,3782 5694,3798 5727,3830 C 5761,3862 5778,3900 5778,3944 C 5778,3975 5770,4007 5756,4038 C 5733,4087 5697,4139 5646,4194 C 5571,4277 5523,4327 5505,4344 L 5666,4344 C 5699,4344 5722,4342 5735,4340 C 5748,4338 5760,4333 5771,4325 C 5781,4318 5791,4307 5799,4294 L 5815,4294 Z "  />
<path style="fill:#000000;fill-opacity:1.00;fill-rule:nonzero;stroke:none"  d="M 1720,4294 L 1676,4413 L 1312,4413 L 1312,4396 C 1419,4298 1494,4218 1538,4156 C 1582,4094 1604,4037 1604,3986 C 1604,3947 1592,3914 1568,3889 C 1544,3864 1515,3851 1482,3851 C 1451,3851 1424,3860 1400,3878 C 1376,3896 1358,3922 1346,3956 L 1329,3956 C 1337,3900 1357,3857 1388,3827 C 1420,3797 1459,3782 1506,3782 C 1556,3782 1598,3798 1631,3830 C 1665,3862 1682,3900 1682,3944 C 1682,3975 1675,4007 1660,4038 C 1637,4087 1601,4139 1551,4194 C 1475,4277 1428,4327 1409,4344 L 1570,4344 C 1603,4344 1626,4342 1639,4340 C 1652,4338 1664,4333 1675,4325 C 1686,4318 1695,4307 1703,4294 L 1720,4294 Z "  />
<path style="fill:#000000;fill-opacity:1.00;fill-rule:nonzero;stroke:none"  d="M 5393,1455 L 5543,1382 L 5558,1382 L 5558,1904 C 5558,1938 5560,1960 5563,1968 C 5565,1977 5571,1983 5581,1988 C 5590,1992 5608,1995 5636,1996 L 5636,2013 L 5404,2013 L 5404,1996 C 5433,1995 5452,1993 5460,1988 C 5469,1984 5475,1978 5478,1970 C 5481,1963 5483,1941 5483,1904 L 5483,1570 C 5483,1525 5481,1496 5478,1483 C 5476,1474 5472,1466 5467,1462 C 5461,1457 5454,1455 5447,1455 C 5435,1455 5420,1460 5400,1469 L 5393,1455 Z "  />
<path style="fill:#000000;fill-opacity:1.00;fill-rule:nonzero;stroke:none"  d="M 1472,1455 L 1622,1382 L 1637,1382 L 1637,1904 C 1637,1938 1639,1960 1642,1968 C 1645,1977 1651,1983 1660,1988 C 1669,1992 1687,1995 1715,1996 L 1715,2013 L 1483,2013 L 1483,1996 C 1512,1995 1531,1993 1539,1988 C 1548,1984 1554,1978 1557,1970 C 1560,1963 1562,1941 1562,1904 L 1562,1570 C 1562,1525 1561,1496 1558,1483 C 1555,1474 1552,1466 1546,1462 C 1540,1457 1534,1455 1526,1455 C 1514,1455 1499,1460 1479,1469 L 1472,1455 Z "  />
</svg>