<svg width="172px" height="48px" viewBox="0 0 17200 4800" version="1.1" xmlns="http://www.w3.org/2000/svg" xmlns:xlink="http://www.w3.org/1999/xlink">
<path style="fill:none;stroke:#000000;stroke-width:66px;stroke-opacity:1.00;"  d="M 11817,2400 L 16058,2400 "  />
<path style="fill:#000000;fill-opacity:1.00;fill-rule:nonzero;stroke:none"  d="M 16807,3513 L 16731,3513 L 16731,1901 L 16807,1901 L 16807,3513 Z "  />
<path style="fill:#000000;fill-opacity:1.00;fill-rule:nonzero;stroke:none"  d="M 16807,2896 L 16731,2896 L 16731,1285 L 16807,1285 L 16807,2896 Z "  />
<path style="fill:#000000;fill-opacity:1.00;fill-rule:nonzero;stroke:none"  d="M 16808,2926 L 16808,3338 C 16808,3498 16788,3656 16749,3810 C 16716,3943 16669,4060 16608,4161 C 16547,4261 16476,4346 16394,4415 C 16335,4465 16268,4506 16191,4538 L 16173,4522 C 16320,4421 16437,4303 16523,4167 C 16592,4058 16644,3928 16679,3776 C 16714,3623 16731,3483 16731,3354 L 16731,2926 L 16808,2926 Z "  />
<path style="fill:#000000;fill-opacity:1.00;fill-rule:nonzero;stroke:none"  d="M 16808,1871 L 16731,1871 L 16731,1445 C 16731,1280 16709,1120 16665,964 C 16622,809 16556,672 16468,554 C 16393,452 16295,359 16173,276 L 16191,260 C 16317,312 16428,399 16526,519 C 16624,639 16695,785 16740,956 C 16785,1127 16808,1295 16808,1460 L 16808,1871 Z "  />
<path style="fill:#000000;fill-opacity:1.00;fill-rule:nonzero;stroke:none"  d="M 11132,3513 L 11057,3513 L 11057,1901 L 11132,1901 L 11132,3513 Z "  />
<path style="fill:#000000;fill-opacity:1.00;fill-rule:nonzero;stroke:none"  d="M 11132,2896 L 11057,2896 L 11057,1285 L 11132,1285 L 11132,2896 Z "  />
<path style="fill:#000000;fill-opacity:1.00;fill-rule:nonzero;stroke:none"  d="M 11057,2926 L 11132,2926 L 11132,3354 C 11132,3518 11154,3678 11198,3834 C 11242,3990 11308,4127 11396,4244 C 11471,4346 11570,4439 11691,4522 L 11673,4538 C 11547,4485 11436,4399 11338,4279 C 11240,4159 11169,4013 11124,3842 C 11079,3671 11057,3503 11057,3338 L 11057,2926 Z "  />
<path style="fill:#000000;fill-opacity:1.00;fill-rule:nonzero;stroke:none"  d="M 11057,1871 L 11057,1460 C 11057,1300 11076,1142 11115,988 C 11148,855 11195,738 11256,638 C 11317,537 11388,453 11469,384 C 11528,333 11596,292 11673,260 L 11691,276 C 11544,377 11427,496 11341,632 C 11272,740 11220,871 11185,1023 C 11150,1175 11132,1316 11132,1445 L 11132,1871 L 11057,1871 Z "  />
<path style="fill:#000000;fill-opacity:1.00;fill-rule:nonzero;stroke:none"  d="M 5346,2207 L 6166,2207 L 6166,2283 L 5346,2283 L 5346,2207 Z M 5346,2498 L 6166,2498 L 6166,2576 L 5346,2576 L 5346,2498 Z "  />
<path style="fill:#000000;fill-opacity:1.00;fill-rule:nonzero;stroke:none"  d="M 15509,2966 L 15852,2966 L 15852,4368 L 15509,4368 L 15509,4306 L 15735,4306 L 15735,3028 L 15509,3028 L 15509,2966 Z "  />
<path style="fill:#000000;fill-opacity:1.00;fill-rule:nonzero;stroke:none"  d="M 14211,4316 L 14211,4282 C 14265,4264 14306,4237 14336,4200 C 14365,4162 14380,4123 14380,4081 C 14380,4071 14377,4063 14373,4056 C 14369,4052 14365,4049 14362,4049 C 14356,4049 14343,4054 14324,4065 C 14315,4070 14305,4072 14295,4072 C 14269,4072 14249,4064 14234,4049 C 14218,4034 14211,4013 14211,3987 C 14211,3961 14221,3939 14240,3921 C 14260,3903 14284,3894 14312,3894 C 14346,3894 14377,3909 14404,3939 C 14430,3969 14444,4008 14444,4058 C 14444,4111 14425,4161 14388,4207 C 14351,4254 14292,4290 14211,4316 "  />
<path style="fill:#000000;fill-opacity:1.00;fill-rule:nonzero;stroke:none"  d="M 13225,4367 L 12881,4367 L 12881,2966 L 13225,2966 L 13225,3028 L 12998,3028 L 12998,4306 L 13225,4306 L 13225,4367 Z "  />
<path style="fill:#000000;fill-opacity:1.00;fill-rule:nonzero;stroke:none"  d="M 15584,708 L 15927,708 L 15927,2110 L 15584,2110 L 15584,2048 L 15810,2048 L 15810,770 L 15584,770 L 15584,708 Z "  />
<path style="fill:#000000;fill-opacity:1.00;fill-rule:nonzero;stroke:none"  d="M 14286,2058 L 14286,2024 C 14340,2006 14381,1979 14411,1941 C 14440,1904 14455,1865 14455,1823 C 14455,1813 14452,1805 14448,1798 C 14444,1793 14440,1791 14437,1791 C 14431,1791 14418,1796 14399,1807 C 14390,1811 14380,1814 14370,1814 C 14344,1814 14324,1806 14309,1791 C 14293,1776 14286,1755 14286,1728 C 14286,1703 14296,1681 14315,1663 C 14335,1645 14359,1635 14387,1635 C 14421,1635 14452,1650 14479,1680 C 14505,1710 14519,1750 14519,1799 C 14519,1853 14500,1903 14463,1949 C 14426,1995 14367,2032 14286,2058 "  />
<path style="fill:#000000;fill-opacity:1.00;fill-rule:nonzero;stroke:none"  d="M 13300,2109 L 12956,2109 L 12956,708 L 13300,708 L 13300,770 L 13073,770 L 13073,2048 L 13300,2048 L 13300,2109 Z "  />
<path style="fill:#000000;fill-opacity:1.00;fill-rule:nonzero;stroke:none"  d="M 4500,1716 L 4844,1716 L 4844,3118 L 4500,3118 L 4500,3056 L 4727,3056 L 4727,1778 L 4500,1778 L 4500,1716 Z "  />
<path style="fill:#000000;fill-opacity:1.00;fill-rule:nonzero;stroke:none"  d="M 3203,3066 L 3203,3032 C 3256,3014 3298,2987 3327,2950 C 3357,2912 3371,2873 3371,2831 C 3371,2821 3369,2813 3364,2806 C 3361,2802 3357,2799 3353,2799 C 3348,2799 3335,2804 3316,2815 C 3307,2820 3297,2822 3286,2822 C 3261,2822 3240,2814 3225,2799 C 3210,2784 3203,2763 3203,2737 C 3203,2711 3212,2689 3232,2671 C 3251,2653 3275,2644 3303,2644 C 3338,2644 3368,2659 3395,2689 C 3422,2719 3435,2758 3435,2808 C 3435,2861 3417,2911 3380,2957 C 3342,3004 3283,3040 3203,3066 "  />
<path style="fill:#000000;fill-opacity:1.00;fill-rule:nonzero;stroke:none"  d="M 2217,3117 L 1873,3117 L 1873,1716 L 2217,1716 L 2217,1778 L 1990,1778 L 1990,3056 L 2217,3056 L 2217,3117 Z "  />
<path style="fill:#000000;fill-opacity:1.00;fill-rule:nonzero;stroke:none"  d="M 14734,3391 L 14960,3343 C 14976,3382 14989,3421 14999,3461 C 15013,3520 15025,3590 15034,3670 C 15038,3711 15043,3797 15051,3928 C 15116,3856 15155,3812 15167,3795 C 15236,3701 15275,3647 15286,3630 C 15303,3603 15315,3579 15322,3558 C 15328,3542 15330,3527 15330,3513 C 15330,3500 15318,3484 15294,3466 C 15270,3449 15258,3429 15258,3407 C 15258,3390 15264,3376 15278,3363 C 15291,3350 15307,3343 15325,3343 C 15347,3343 15366,3352 15383,3370 C 15399,3388 15408,3410 15408,3437 C 15408,3463 15404,3489 15395,3513 C 15382,3553 15356,3601 15320,3658 C 15283,3715 15223,3792 15141,3888 C 15130,3899 15072,3960 14967,4069 L 14938,4069 C 14926,3739 14900,3533 14860,3452 C 14847,3425 14826,3412 14795,3412 C 14782,3412 14764,3414 14740,3419 L 14734,3391 Z "  />
<path style="fill:#000000;fill-opacity:1.00;fill-rule:nonzero;stroke:none"  d="M 14028,3362 L 13892,3827 C 13872,3897 13862,3940 13862,3959 C 13862,3968 13863,3975 13867,3979 C 13870,3984 13875,3986 13880,3986 C 13889,3986 13899,3982 13910,3974 C 13920,3966 13947,3934 13991,3877 L 14014,3895 C 13973,3960 13931,4008 13887,4039 C 13859,4059 13831,4069 13805,4069 C 13784,4069 13768,4063 13757,4052 C 13746,4040 13740,4025 13740,4007 C 13740,3989 13743,3966 13750,3937 C 13758,3898 13782,3814 13821,3685 C 13733,3830 13658,3931 13599,3986 C 13539,4041 13484,4069 13433,4069 C 13409,4069 13389,4060 13372,4044 C 13355,4027 13347,4006 13347,3980 C 13347,3941 13358,3882 13381,3801 L 13449,3559 C 13466,3502 13474,3466 13474,3452 C 13474,3445 13472,3440 13468,3436 C 13463,3431 13458,3429 13453,3429 C 13442,3429 13431,3433 13420,3441 C 13409,3448 13385,3477 13346,3527 L 13322,3510 C 13361,3450 13402,3405 13446,3377 C 13479,3354 13510,3343 13538,3343 C 13558,3343 13573,3349 13586,3361 C 13598,3374 13604,3389 13604,3409 C 13604,3437 13593,3487 13573,3559 L 13499,3812 C 13479,3880 13469,3924 13469,3942 C 13469,3952 13472,3960 13479,3966 C 13485,3972 13494,3975 13505,3975 C 13522,3975 13544,3966 13572,3949 C 13599,3932 13636,3894 13682,3835 C 13728,3776 13767,3720 13796,3668 C 13826,3617 13858,3534 13892,3421 L 13909,3362 L 14028,3362 Z "  />
<path style="fill:#000000;fill-opacity:1.00;fill-rule:nonzero;stroke:none"  d="M 12759,3343 L 12503,4226 C 12492,4266 12486,4292 12486,4304 C 12486,4316 12489,4326 12495,4335 C 12501,4343 12509,4350 12520,4354 C 12536,4360 12557,4363 12583,4363 L 12575,4392 L 12201,4392 L 12209,4363 C 12260,4359 12291,4355 12304,4350 C 12324,4342 12340,4329 12353,4312 C 12365,4294 12380,4257 12395,4200 L 12503,3815 C 12434,3915 12370,3986 12311,4027 C 12269,4055 12229,4070 12193,4070 C 12141,4070 12102,4048 12075,4006 C 12048,3963 12035,3917 12035,3868 C 12035,3789 12059,3707 12108,3620 C 12156,3534 12220,3463 12299,3408 C 12361,3365 12416,3343 12466,3343 C 12503,3343 12534,3352 12558,3370 C 12582,3388 12600,3417 12612,3456 L 12636,3369 L 12759,3343 Z M 12580,3495 C 12580,3462 12570,3435 12550,3413 C 12530,3392 12505,3381 12475,3381 C 12411,3381 12345,3436 12274,3545 C 12204,3655 12169,3758 12169,3855 C 12169,3894 12177,3923 12195,3944 C 12212,3964 12234,3974 12259,3974 C 12290,3974 12326,3957 12366,3921 C 12427,3867 12478,3799 12519,3714 C 12560,3630 12580,3557 12580,3495 "  />
<path style="fill:#000000;fill-opacity:1.00;fill-rule:nonzero;stroke:none"  d="M 14809,1133 L 15035,1085 C 15051,1123 15064,1163 15074,1203 C 15088,1261 15100,1331 15109,1412 C 15113,1453 15118,1539 15126,1670 C 15191,1598 15230,1553 15242,1536 C 15311,1443 15350,1388 15361,1372 C 15378,1345 15390,1320 15397,1300 C 15403,1284 15405,1269 15405,1255 C 15405,1241 15393,1226 15369,1208 C 15345,1190 15333,1171 15333,1149 C 15333,1132 15339,1117 15353,1104 C 15366,1091 15382,1085 15400,1085 C 15422,1085 15441,1094 15458,1112 C 15474,1130 15483,1152 15483,1178 C 15483,1205 15479,1230 15470,1255 C 15457,1295 15431,1343 15395,1400 C 15358,1457 15298,1533 15216,1629 C 15205,1641 15147,1702 15042,1810 L 15013,1810 C 15001,1481 14975,1275 14935,1193 C 14922,1167 14901,1153 14870,1153 C 14857,1153 14839,1156 14815,1160 L 14809,1133 Z "  />
<path style="fill:#000000;fill-opacity:1.00;fill-rule:nonzero;stroke:none"  d="M 14103,1103 L 13967,1569 C 13947,1638 13937,1682 13937,1700 C 13937,1710 13938,1717 13942,1721 C 13945,1725 13950,1728 13955,1728 C 13964,1728 13974,1724 13985,1715 C 13995,1707 14022,1675 14066,1619 L 14089,1637 C 14048,1702 14006,1750 13962,1781 C 13934,1801 13906,1810 13880,1810 C 13859,1810 13843,1805 13832,1793 C 13821,1782 13815,1767 13815,1749 C 13815,1731 13818,1708 13825,1678 C 13833,1640 13857,1556 13896,1427 C 13808,1572 13733,1672 13674,1728 C 13614,1783 13559,1810 13508,1810 C 13484,1810 13464,1802 13447,1785 C 13430,1769 13422,1748 13422,1722 C 13422,1683 13433,1623 13456,1542 L 13524,1301 C 13541,1243 13549,1207 13549,1193 C 13549,1187 13547,1182 13543,1177 C 13538,1173 13533,1171 13528,1171 C 13517,1171 13506,1175 13495,1182 C 13484,1190 13460,1219 13421,1269 L 13397,1252 C 13436,1191 13477,1147 13521,1118 C 13554,1096 13585,1085 13613,1085 C 13633,1085 13648,1091 13661,1103 C 13673,1115 13679,1131 13679,1150 C 13679,1178 13668,1229 13648,1301 L 13574,1553 C 13554,1622 13544,1666 13544,1684 C 13544,1694 13547,1702 13554,1708 C 13560,1714 13569,1717 13580,1717 C 13597,1717 13619,1708 13647,1691 C 13674,1674 13711,1636 13757,1576 C 13803,1517 13842,1462 13871,1410 C 13901,1358 13933,1276 13967,1163 L 13984,1103 L 14103,1103 Z "  />
<path style="fill:#000000;fill-opacity:1.00;fill-rule:nonzero;stroke:none"  d="M 12384,1228 L 12586,946 C 12638,873 12664,826 12664,806 C 12664,794 12658,785 12647,777 C 12636,770 12604,764 12552,761 L 12559,732 L 12892,732 L 12886,761 C 12854,765 12831,770 12819,775 C 12801,782 12782,795 12764,811 C 12740,833 12704,876 12658,940 L 12398,1298 L 12320,1560 C 12301,1625 12291,1671 12291,1696 C 12291,1712 12294,1724 12300,1732 C 12306,1741 12317,1747 12332,1753 C 12352,1759 12382,1762 12423,1763 L 12415,1792 L 11969,1792 L 11978,1763 C 12022,1762 12052,1758 12066,1752 C 12090,1742 12107,1730 12119,1714 C 12136,1690 12155,1647 12173,1585 L 12266,1276 L 12153,910 C 12133,846 12114,806 12097,790 C 12080,775 12051,765 12009,761 L 12016,732 L 12408,732 L 12398,761 C 12349,765 12322,768 12315,771 C 12303,774 12294,782 12287,792 C 12279,803 12276,816 12276,831 C 12276,852 12283,889 12298,940 L 12384,1228 Z "  />
<path style="fill:#000000;fill-opacity:1.00;fill-rule:nonzero;stroke:none"  d="M 7331,2800 L 7162,2285 C 7122,2286 7082,2282 7040,2273 L 6949,2594 C 6937,2635 6931,2671 6931,2699 C 6931,2721 6938,2738 6953,2751 C 6965,2760 6996,2767 7047,2771 L 7040,2800 L 6630,2800 L 6639,2771 C 6677,2770 6703,2766 6717,2759 C 6738,2751 6754,2739 6764,2723 C 6780,2699 6798,2656 6816,2594 L 7001,1954 C 7014,1911 7020,1878 7020,1855 C 7020,1831 7010,1810 6990,1794 C 6971,1777 6943,1769 6906,1770 L 6916,1741 L 7261,1741 C 7377,1741 7460,1763 7511,1806 C 7562,1850 7588,1908 7588,1979 C 7588,2047 7562,2110 7509,2166 C 7457,2223 7385,2258 7294,2273 L 7397,2584 C 7422,2660 7447,2709 7472,2732 C 7497,2755 7537,2768 7593,2771 L 7585,2800 L 7331,2800 Z M 7053,2229 C 7087,2234 7116,2236 7142,2236 C 7232,2236 7303,2211 7355,2161 C 7407,2112 7433,2050 7433,1976 C 7433,1918 7417,1874 7384,1843 C 7352,1812 7303,1797 7238,1797 C 7221,1797 7201,1799 7178,1803 L 7053,2229 Z M 8384,2338 C 8384,2416 8363,2493 8322,2570 C 8280,2646 8223,2707 8149,2752 C 8075,2796 8003,2819 7933,2819 C 7862,2819 7804,2796 7758,2750 C 7713,2705 7691,2646 7691,2573 C 7691,2497 7713,2420 7757,2343 C 7801,2266 7860,2205 7933,2160 C 8007,2115 8078,2093 8147,2093 C 8216,2093 8273,2116 8317,2161 C 8362,2206 8384,2265 8384,2338 M 8254,2284 C 8254,2235 8242,2198 8219,2172 C 8195,2147 8164,2134 8127,2134 C 8050,2134 7980,2188 7915,2298 C 7851,2408 7819,2517 7819,2625 C 7819,2674 7832,2713 7856,2739 C 7882,2766 7913,2780 7951,2780 C 8024,2780 8093,2725 8158,2616 C 8222,2507 8254,2396 8254,2284 M 9197,2112 L 9061,2577 C 9041,2647 9031,2690 9031,2709 C 9031,2718 9032,2725 9036,2729 C 9039,2734 9044,2736 9049,2736 C 9058,2736 9068,2732 9079,2724 C 9089,2716 9116,2684 9160,2627 L 9183,2645 C 9142,2710 9100,2758 9056,2789 C 9028,2809 9000,2819 8974,2819 C 8953,2819 8937,2813 8926,2802 C 8915,2790 8909,2775 8909,2757 C 8909,2739 8912,2716 8919,2687 C 8927,2648 8951,2564 8990,2435 C 8902,2580 8827,2681 8768,2736 C 8708,2791 8653,2819 8602,2819 C 8578,2819 8558,2810 8541,2794 C 8524,2777 8516,2756 8516,2730 C 8516,2691 8527,2632 8550,2551 L 8618,2309 C 8635,2252 8643,2216 8643,2202 C 8643,2195 8641,2190 8637,2186 C 8632,2181 8627,2179 8622,2179 C 8611,2179 8600,2183 8589,2191 C 8578,2198 8554,2227 8515,2277 L 8491,2260 C 8530,2200 8571,2155 8615,2127 C 8648,2104 8679,2093 8707,2093 C 8727,2093 8742,2099 8755,2111 C 8767,2124 8773,2139 8773,2159 C 8773,2187 8762,2237 8742,2309 L 8668,2562 C 8648,2630 8638,2674 8638,2692 C 8638,2702 8641,2710 8648,2716 C 8654,2722 8663,2725 8674,2725 C 8691,2725 8713,2716 8741,2699 C 8768,2682 8805,2644 8851,2585 C 8898,2526 8936,2470 8965,2418 C 8995,2367 9027,2284 9061,2171 L 9078,2112 L 9197,2112 Z M 9597,2093 L 9493,2448 C 9591,2303 9665,2208 9717,2162 C 9769,2116 9819,2093 9867,2093 C 9893,2093 9914,2102 9931,2119 C 9948,2136 9956,2158 9956,2186 C 9956,2217 9949,2259 9934,2311 L 9839,2640 C 9828,2678 9822,2701 9822,2709 C 9822,2717 9824,2723 9828,2728 C 9833,2733 9837,2735 9842,2735 C 9848,2735 9855,2732 9864,2725 C 9892,2703 9922,2670 9955,2625 L 9979,2640 C 9931,2709 9885,2759 9842,2788 C 9811,2809 9784,2819 9760,2819 C 9741,2819 9726,2813 9714,2801 C 9703,2789 9697,2774 9697,2754 C 9697,2729 9706,2686 9724,2625 L 9814,2311 C 9826,2272 9831,2241 9831,2220 C 9831,2209 9828,2201 9821,2194 C 9815,2188 9806,2184 9796,2184 C 9782,2184 9764,2191 9744,2203 C 9705,2227 9665,2265 9624,2319 C 9582,2373 9538,2442 9492,2526 C 9467,2570 9447,2618 9431,2671 L 9392,2800 L 9274,2800 L 9417,2311 C 9433,2252 9442,2217 9442,2205 C 9442,2193 9437,2183 9428,2175 C 9419,2166 9408,2162 9394,2162 C 9388,2162 9377,2163 9361,2165 L 9332,2170 L 9327,2141 L 9597,2093 Z M 10910,1689 L 10641,2611 C 10626,2661 10619,2694 10619,2709 C 10619,2715 10621,2720 10626,2724 C 10630,2729 10635,2731 10639,2731 C 10646,2731 10654,2728 10664,2721 C 10681,2709 10711,2677 10753,2627 L 10779,2644 C 10742,2696 10704,2738 10665,2770 C 10627,2803 10591,2819 10558,2819 C 10540,2819 10526,2812 10514,2800 C 10503,2788 10497,2770 10497,2747 C 10497,2717 10505,2677 10521,2627 L 10551,2530 C 10476,2647 10407,2728 10345,2773 C 10302,2803 10261,2819 10222,2819 C 10183,2819 10148,2801 10119,2766 C 10089,2731 10074,2683 10074,2623 C 10074,2545 10099,2462 10149,2374 C 10198,2286 10264,2215 10345,2159 C 10409,2115 10468,2093 10521,2093 C 10549,2093 10574,2099 10594,2110 C 10614,2122 10634,2141 10654,2167 L 10731,1895 C 10736,1876 10741,1861 10745,1849 C 10751,1828 10754,1811 10754,1798 C 10754,1787 10750,1778 10742,1770 C 10731,1762 10717,1757 10700,1757 C 10688,1757 10668,1759 10641,1763 L 10641,1734 L 10910,1689 Z M 10620,2244 C 10620,2210 10610,2184 10591,2163 C 10572,2143 10547,2133 10517,2133 C 10452,2133 10383,2187 10312,2295 C 10241,2404 10206,2507 10206,2606 C 10206,2645 10214,2675 10232,2696 C 10249,2716 10269,2727 10293,2727 C 10347,2727 10415,2668 10497,2551 C 10579,2434 10620,2331 10620,2244 "  />
<path style="fill:#000000;fill-opacity:1.00;fill-rule:nonzero;stroke:none"  d="M 3726,2141 L 3952,2093 C 3968,2132 3981,2171 3991,2211 C 4005,2270 4016,2340 4025,2420 C 4029,2461 4035,2547 4042,2678 C 4108,2606 4146,2562 4159,2545 C 4228,2451 4267,2397 4278,2380 C 4295,2353 4307,2329 4314,2308 C 4319,2292 4322,2277 4322,2263 C 4322,2250 4310,2234 4286,2216 C 4262,2199 4249,2179 4249,2157 C 4249,2140 4256,2126 4269,2113 C 4283,2100 4298,2093 4317,2093 C 4339,2093 4358,2102 4374,2120 C 4391,2138 4399,2160 4399,2187 C 4399,2213 4395,2239 4387,2263 C 4373,2303 4348,2351 4311,2408 C 4274,2465 4215,2542 4132,2638 C 4122,2649 4064,2710 3959,2819 L 3930,2819 C 3917,2489 3891,2283 3852,2202 C 3839,2175 3817,2162 3787,2162 C 3774,2162 3755,2164 3732,2169 L 3726,2141 Z "  />
<path style="fill:#000000;fill-opacity:1.00;fill-rule:nonzero;stroke:none"  d="M 3020,2112 L 2884,2577 C 2864,2647 2853,2690 2853,2709 C 2853,2718 2855,2725 2858,2729 C 2862,2734 2866,2736 2872,2736 C 2881,2736 2891,2732 2901,2724 C 2912,2716 2939,2684 2982,2627 L 3006,2645 C 2965,2710 2922,2758 2879,2789 C 2850,2809 2823,2819 2796,2819 C 2776,2819 2760,2813 2749,2802 C 2737,2790 2731,2775 2731,2757 C 2731,2739 2735,2716 2742,2687 C 2750,2648 2774,2564 2813,2435 C 2724,2580 2650,2681 2590,2736 C 2531,2791 2476,2819 2424,2819 C 2401,2819 2380,2810 2364,2794 C 2347,2777 2339,2756 2339,2730 C 2339,2691 2350,2632 2373,2551 L 2441,2309 C 2458,2252 2466,2216 2466,2202 C 2466,2195 2464,2190 2459,2186 C 2455,2181 2450,2179 2445,2179 C 2434,2179 2423,2183 2412,2191 C 2401,2198 2376,2227 2338,2277 L 2314,2260 C 2353,2200 2394,2155 2438,2127 C 2471,2104 2502,2093 2530,2093 C 2549,2093 2565,2099 2577,2111 C 2589,2124 2596,2139 2596,2159 C 2596,2187 2585,2237 2564,2309 L 2491,2562 C 2471,2630 2460,2674 2460,2692 C 2460,2702 2464,2710 2470,2716 C 2477,2722 2485,2725 2496,2725 C 2514,2725 2536,2716 2564,2699 C 2591,2682 2628,2644 2674,2585 C 2720,2526 2758,2470 2788,2418 C 2818,2367 2850,2284 2884,2171 L 2901,2112 L 3020,2112 Z "  />
<path style="fill:#000000;fill-opacity:1.00;fill-rule:nonzero;stroke:none"  d="M 701,2237 L 903,1955 C 955,1881 981,1834 981,1814 C 981,1803 975,1793 964,1786 C 953,1778 921,1773 868,1770 L 876,1741 L 1209,1741 L 1203,1770 C 1170,1774 1148,1778 1136,1783 C 1117,1791 1099,1803 1081,1820 C 1056,1841 1021,1884 974,1948 L 715,2306 L 637,2568 C 618,2634 608,2679 608,2704 C 608,2720 611,2732 617,2741 C 623,2749 634,2756 649,2761 C 668,2767 699,2771 739,2771 L 731,2800 L 285,2800 L 295,2771 C 339,2770 368,2766 383,2760 C 406,2751 424,2738 435,2723 C 453,2699 471,2656 490,2594 L 583,2284 L 470,1919 C 449,1854 431,1814 414,1798 C 397,1783 367,1773 325,1770 L 333,1741 L 724,1741 L 715,1770 C 666,1773 638,1776 631,1779 C 620,1783 611,1790 603,1801 C 596,1812 592,1825 592,1839 C 592,1860 600,1897 615,1948 L 701,2237 Z M 1613,2093 L 1357,2976 C 1346,3016 1340,3042 1340,3054 C 1340,3066 1343,3076 1349,3085 C 1355,3093 1363,3100 1374,3104 C 1390,3110 1411,3113 1437,3113 L 1429,3142 L 1055,3142 L 1063,3113 C 1114,3109 1146,3105 1158,3100 C 1178,3092 1194,3079 1207,3062 C 1220,3044 1234,3007 1250,2950 L 1357,2565 C 1289,2665 1225,2736 1165,2777 C 1123,2805 1084,2820 1047,2820 C 995,2820 956,2798 929,2756 C 903,2713 889,2667 889,2618 C 889,2539 914,2457 962,2370 C 1010,2284 1074,2213 1153,2158 C 1215,2115 1271,2093 1321,2093 C 1358,2093 1388,2102 1412,2120 C 1436,2138 1454,2167 1466,2206 L 1490,2119 L 1613,2093 Z M 1435,2245 C 1435,2212 1425,2185 1404,2163 C 1384,2142 1359,2131 1329,2131 C 1266,2131 1199,2186 1128,2295 C 1058,2405 1023,2508 1023,2605 C 1023,2644 1032,2673 1049,2694 C 1067,2714 1088,2724 1113,2724 C 1145,2724 1181,2707 1221,2671 C 1282,2617 1332,2549 1373,2464 C 1414,2380 1435,2307 1435,2245 "  />
</svg>