<svg width="19px" height="23px" viewBox="0 0 1900 2300" version="1.1" xmlns="http://www.w3.org/2000/svg" xmlns:xlink="http://www.w3.org/1999/xlink">
<path style="fill:#000000;fill-opacity:1.00;fill-rule:nonzero;stroke:none"  d="M 1182,1637 L 1341,1611 L 1275,1836 C 1329,1744 1378,1679 1422,1642 C 1447,1621 1467,1611 1483,1611 C 1493,1611 1501,1614 1507,1620 C 1513,1626 1516,1635 1516,1646 C 1516,1666 1510,1686 1500,1704 C 1493,1718 1482,1725 1468,1725 C 1461,1725 1455,1723 1450,1718 C 1445,1714 1442,1707 1440,1697 C 1440,1691 1438,1687 1436,1685 C 1434,1683 1431,1682 1427,1682 C 1422,1682 1417,1683 1413,1685 C 1405,1690 1392,1702 1376,1721 C 1350,1752 1323,1791 1293,1839 C 1280,1859 1269,1882 1260,1908 C 1247,1943 1239,1964 1237,1971 L 1223,2029 L 1152,2029 L 1237,1742 C 1247,1709 1252,1685 1252,1671 C 1252,1666 1250,1661 1245,1657 C 1239,1652 1231,1650 1221,1650 C 1214,1650 1202,1651 1185,1654 L 1182,1637 Z "  />
<path style="fill:#000000;fill-opacity:1.00;fill-rule:nonzero;stroke:none"  d="M 1008,906 L 853,1444 L 836,1516 C 834,1523 833,1528 833,1533 C 833,1542 836,1549 841,1555 C 846,1560 851,1562 857,1562 C 864,1562 873,1558 884,1550 C 905,1534 932,1503 967,1455 L 994,1474 C 957,1529 920,1571 881,1599 C 842,1628 807,1643 774,1643 C 751,1643 734,1637 723,1626 C 711,1614 706,1598 706,1576 C 706,1550 712,1516 723,1474 L 740,1414 C 671,1505 607,1568 549,1604 C 507,1630 466,1643 426,1643 C 387,1643 354,1627 326,1595 C 298,1563 284,1519 284,1463 C 284,1379 309,1290 360,1197 C 410,1103 474,1029 552,973 C 613,928 670,906 724,906 C 756,906 783,915 804,931 C 826,948 842,976 853,1016 L 882,925 L 1008,906 Z M 726,947 C 692,947 656,963 618,995 C 564,1040 516,1106 474,1195 C 432,1283 411,1363 411,1434 C 411,1470 420,1498 438,1519 C 456,1540 476,1551 500,1551 C 557,1551 620,1508 688,1423 C 778,1310 823,1194 823,1075 C 823,1030 814,998 797,977 C 779,957 756,947 726,947 "  />
</svg>