<svg width="491px" height="40px" viewBox="0 0 49100 4000" version="1.1" xmlns="http://www.w3.org/2000/svg" xmlns:xlink="http://www.w3.org/1999/xlink">
<path style="fill:none;stroke:#000000;stroke-width:86px;stroke-opacity:1.00;"  d="M 24755,2630 L 33223,2630 "  />
<path style="fill:#000000;fill-opacity:1.00;fill-rule:nonzero;stroke:none"  d="M 12972,3922 L 12972,4008 C 12627,3836 12358,3583 12165,3250 C 11973,2917 11876,2553 11876,2158 C 11876,1746 11978,1371 12180,1033 C 12383,695 12647,453 12972,308 L 12972,391 C 12809,481 12676,604 12571,760 C 12467,916 12389,1114 12337,1355 C 12285,1595 12260,1845 12260,2106 C 12260,2401 12283,2668 12331,2906 C 12379,3144 12451,3342 12549,3498 C 12647,3655 12788,3797 12972,3922 "  />
<path style="fill:#000000;fill-opacity:1.00;fill-rule:nonzero;stroke:none"  d="M 46880,391 L 46880,308 C 47225,478 47494,730 47687,1063 C 47879,1396 47975,1760 47975,2156 C 47975,2567 47874,2942 47672,3281 C 47469,3620 47205,3862 46880,4008 L 46880,3922 C 47044,3832 47178,3709 47283,3553 C 47387,3397 47465,3199 47516,2960 C 47567,2720 47592,2469 47592,2207 C 47592,1913 47569,1647 47522,1408 C 47475,1169 47402,972 47303,815 C 47205,658 47064,517 46880,391 "  />
<path style="fill:#000000;fill-opacity:1.00;fill-rule:nonzero;stroke:none"  d="M 48128,1273 L 48324,1177 L 48344,1177 L 48344,1858 C 48344,1903 48346,1931 48350,1942 C 48353,1953 48361,1962 48373,1968 C 48385,1974 48409,1977 48446,1978 L 48446,2000 L 48142,2000 L 48142,1978 C 48181,1977 48205,1974 48216,1968 C 48227,1962 48235,1955 48239,1945 C 48244,1935 48246,1906 48246,1858 L 48246,1423 C 48246,1364 48244,1326 48240,1310 C 48237,1297 48232,1288 48225,1282 C 48217,1276 48209,1273 48198,1273 C 48184,1273 48163,1279 48137,1291 L 48128,1273 Z "  />
<path style="fill:#000000;fill-opacity:1.00;fill-rule:nonzero;stroke:none"  d="M 32723,3212 L 32723,3187 C 32783,3217 32833,3252 32873,3292 C 32930,3350 32974,3418 33005,3496 C 33036,3574 33051,3655 33051,3739 C 33051,3862 33021,3974 32960,4075 C 32900,4177 32821,4249 32723,4293 L 32723,4271 C 32772,4243 32812,4206 32843,4160 C 32875,4113 32898,4054 32913,3982 C 32929,3910 32936,3835 32936,3757 C 32936,3673 32930,3596 32917,3526 C 32907,3471 32894,3427 32880,3395 C 32865,3362 32845,3330 32820,3299 C 32796,3269 32763,3240 32723,3212 "  />
<path style="fill:#000000;fill-opacity:1.00;fill-rule:nonzero;stroke:none"  d="M 31647,4235 L 31647,4209 C 31687,4195 31719,4175 31741,4146 C 31764,4118 31775,4088 31775,4056 C 31775,4049 31773,4042 31770,4037 C 31767,4034 31764,4032 31761,4032 C 31757,4032 31747,4036 31733,4044 C 31726,4047 31718,4049 31710,4049 C 31691,4049 31675,4043 31664,4032 C 31652,4020 31647,4004 31647,3984 C 31647,3965 31654,3948 31669,3934 C 31684,3920 31702,3914 31723,3914 C 31749,3914 31773,3925 31793,3948 C 31814,3970 31824,4001 31824,4038 C 31824,4079 31810,4117 31781,4152 C 31753,4187 31708,4215 31647,4235 "  />
<path style="fill:#000000;fill-opacity:1.00;fill-rule:nonzero;stroke:none"  d="M 30791,4271 L 30791,4293 C 30731,4263 30681,4227 30641,4187 C 30584,4129 30540,4062 30509,3984 C 30478,3906 30463,3825 30463,3741 C 30463,3618 30493,3506 30554,3404 C 30614,3303 30693,3231 30791,3187 L 30791,3212 C 30742,3239 30702,3276 30671,3323 C 30640,3369 30616,3429 30601,3500 C 30585,3572 30578,3647 30578,3725 C 30578,3810 30584,3887 30597,3956 C 30607,4011 30620,4055 30635,4088 C 30649,4121 30669,4153 30694,4183 C 30719,4214 30751,4243 30791,4271 "  />
<path style="fill:#000000;fill-opacity:1.00;fill-rule:nonzero;stroke:none"  d="M 46062,1746 L 46062,1703 C 46165,1754 46251,1814 46320,1883 C 46417,1982 46492,2099 46545,2232 C 46598,2366 46624,2505 46624,2650 C 46624,2860 46573,3052 46469,3226 C 46365,3399 46230,3524 46062,3598 L 46062,3561 C 46146,3514 46214,3450 46268,3371 C 46322,3291 46362,3189 46389,3066 C 46415,2943 46428,2814 46428,2680 C 46428,2535 46417,2403 46394,2284 C 46377,2190 46356,2115 46330,2059 C 46305,2002 46271,1948 46229,1895 C 46187,1843 46131,1793 46062,1746 "  />
<path style="fill:#000000;fill-opacity:1.00;fill-rule:nonzero;stroke:none"  d="M 44157,3499 L 44157,3455 C 44227,3432 44281,3396 44319,3347 C 44358,3299 44377,3247 44377,3193 C 44377,3180 44374,3169 44368,3160 C 44363,3154 44358,3151 44353,3151 C 44346,3151 44330,3158 44304,3171 C 44292,3177 44279,3180 44266,3180 C 44232,3180 44206,3171 44186,3151 C 44167,3131 44157,3104 44157,3069 C 44157,3036 44169,3008 44195,2984 C 44220,2960 44252,2948 44288,2948 C 44333,2948 44373,2968 44408,3007 C 44443,3046 44460,3098 44460,3162 C 44460,3232 44436,3297 44388,3357 C 44339,3417 44262,3465 44157,3499 "  />
<path style="fill:#000000;fill-opacity:1.00;fill-rule:nonzero;stroke:none"  d="M 42916,3561 L 42916,3598 C 42814,3547 42728,3486 42659,3417 C 42561,3318 42486,3202 42433,3068 C 42380,2935 42354,2796 42354,2652 C 42354,2441 42406,2249 42510,2075 C 42613,1902 42749,1778 42916,1703 L 42916,1746 C 42833,1792 42764,1855 42710,1935 C 42657,2015 42617,2117 42590,2240 C 42564,2363 42550,2491 42550,2625 C 42550,2770 42561,2903 42584,3022 C 42602,3115 42623,3191 42648,3247 C 42673,3304 42707,3358 42749,3411 C 42792,3463 42847,3513 42916,3561 "  />
<path style="fill:#000000;fill-opacity:1.00;fill-rule:nonzero;stroke:none"  d="M 22088,1746 L 22088,1703 C 22191,1754 22277,1814 22346,1883 C 22443,1982 22518,2099 22571,2232 C 22624,2366 22651,2505 22651,2650 C 22651,2860 22599,3052 22495,3226 C 22392,3399 22256,3524 22088,3598 L 22088,3561 C 22172,3514 22240,3450 22294,3371 C 22348,3291 22388,3189 22415,3066 C 22441,2943 22454,2814 22454,2680 C 22454,2535 22443,2403 22420,2284 C 22403,2190 22382,2115 22357,2059 C 22331,2002 22297,1948 22255,1895 C 22213,1843 22157,1793 22088,1746 "  />
<path style="fill:#000000;fill-opacity:1.00;fill-rule:nonzero;stroke:none"  d="M 20183,3499 L 20183,3455 C 20253,3432 20307,3396 20345,3347 C 20384,3299 20403,3247 20403,3193 C 20403,3180 20400,3169 20394,3160 C 20389,3154 20384,3151 20379,3151 C 20372,3151 20356,3158 20331,3171 C 20318,3177 20305,3180 20292,3180 C 20259,3180 20232,3171 20212,3151 C 20193,3131 20183,3104 20183,3069 C 20183,3036 20196,3008 20221,2984 C 20246,2960 20278,2948 20314,2948 C 20359,2948 20399,2968 20434,3007 C 20469,3046 20486,3098 20486,3162 C 20486,3232 20462,3297 20414,3357 C 20365,3417 20288,3465 20183,3499 "  />
<path style="fill:#000000;fill-opacity:1.00;fill-rule:nonzero;stroke:none"  d="M 18942,3561 L 18942,3598 C 18840,3547 18754,3486 18685,3417 C 18588,3318 18512,3202 18459,3068 C 18406,2935 18380,2796 18380,2652 C 18380,2441 18432,2249 18536,2075 C 18640,1902 18775,1778 18942,1703 L 18942,1746 C 18859,1792 18790,1855 18736,1935 C 18683,2015 18643,2117 18616,2240 C 18590,2363 18576,2491 18576,2625 C 18576,2770 18588,2903 18610,3022 C 18628,3115 18649,3191 18674,3247 C 18699,3304 18733,3358 18776,3411 C 18818,3463 18874,3513 18942,3561 "  />
<path style="fill:#000000;fill-opacity:1.00;fill-rule:nonzero;stroke:none"  d="M 8865,1746 L 8865,1703 C 8969,1754 9055,1814 9123,1883 C 9220,1982 9296,2099 9349,2232 C 9402,2366 9428,2505 9428,2650 C 9428,2860 9376,3052 9273,3226 C 9169,3399 9033,3524 8865,3598 L 8865,3561 C 8949,3514 9018,3450 9072,3371 C 9126,3291 9166,3189 9192,3066 C 9218,2943 9231,2814 9231,2680 C 9231,2535 9220,2403 9198,2284 C 9181,2190 9159,2115 9134,2059 C 9109,2002 9075,1948 9033,1895 C 8990,1843 8935,1793 8865,1746 "  />
<path style="fill:#000000;fill-opacity:1.00;fill-rule:nonzero;stroke:none"  d="M 6960,3499 L 6960,3455 C 7030,3432 7084,3396 7123,3347 C 7161,3299 7180,3247 7180,3193 C 7180,3180 7177,3169 7171,3160 C 7166,3154 7162,3151 7157,3151 C 7149,3151 7133,3158 7108,3171 C 7096,3177 7083,3180 7069,3180 C 7036,3180 7010,3171 6990,3151 C 6970,3131 6960,3104 6960,3069 C 6960,3036 6973,3008 6998,2984 C 7024,2960 7055,2948 7092,2948 C 7137,2948 7176,2968 7211,3007 C 7246,3046 7264,3098 7264,3162 C 7264,3232 7240,3297 7191,3357 C 7142,3417 7066,3465 6960,3499 "  />
<path style="fill:#000000;fill-opacity:1.00;fill-rule:nonzero;stroke:none"  d="M 5720,3561 L 5720,3598 C 5617,3547 5531,3486 5463,3417 C 5365,3318 5290,3202 5237,3068 C 5184,2935 5157,2796 5157,2652 C 5157,2441 5209,2249 5313,2075 C 5417,1902 5553,1778 5720,1703 L 5720,1746 C 5636,1792 5567,1855 5514,1935 C 5460,2015 5420,2117 5394,2240 C 5367,2363 5354,2491 5354,2625 C 5354,2770 5365,2903 5387,3022 C 5405,3115 5426,3191 5452,3247 C 5477,3304 5511,3358 5553,3411 C 5595,3463 5651,3513 5720,3561 "  />
<path style="fill:#000000;fill-opacity:1.00;fill-rule:nonzero;stroke:none"  d="M 30171,3378 L 30131,3489 L 29791,3489 L 29791,3473 C 29891,3382 29961,3308 30002,3250 C 30043,3192 30063,3139 30063,3091 C 30063,3055 30052,3025 30030,3001 C 30007,2978 29980,2966 29949,2966 C 29921,2966 29896,2974 29873,2991 C 29851,3008 29834,3032 29823,3064 L 29808,3064 C 29815,3011 29833,2971 29862,2943 C 29891,2915 29928,2901 29972,2901 C 30019,2901 30058,2916 30089,2946 C 30120,2976 30136,3012 30136,3052 C 30136,3082 30129,3111 30115,3140 C 30094,3186 30060,3234 30013,3286 C 29943,3363 29899,3409 29881,3425 L 30032,3425 C 30062,3425 30084,3424 30096,3421 C 30108,3419 30119,3415 30129,3408 C 30139,3401 30148,3391 30155,3378 L 30171,3378 Z "  />
<path style="fill:#000000;fill-opacity:1.00;fill-rule:nonzero;stroke:none"  d="M 47351,1657 L 47975,1657 L 47975,1716 L 47351,1716 L 47351,1657 Z "  />
<path style="fill:#000000;fill-opacity:1.00;fill-rule:nonzero;stroke:none"  d="M 36891,2618 C 36891,2649 36880,2676 36858,2698 C 36836,2720 36810,2731 36779,2731 C 36748,2731 36721,2720 36699,2698 C 36677,2676 36666,2649 36666,2618 C 36666,2587 36677,2560 36699,2538 C 36721,2516 36748,2505 36779,2505 C 36810,2505 36836,2516 36858,2538 C 36880,2560 36891,2587 36891,2618 "  />
<path style="fill:#000000;fill-opacity:1.00;fill-rule:nonzero;stroke:none"  d="M 34232,2082 L 34331,2082 L 34331,2569 L 34816,2569 L 34816,2668 L 34331,2668 L 34331,3152 L 34232,3152 L 34232,2668 L 33746,2668 L 33746,2569 L 34232,2569 L 34232,2082 Z "  />
<path style="fill:#000000;fill-opacity:1.00;fill-rule:nonzero;stroke:none"  d="M 23663,2082 L 23763,2082 L 23763,2569 L 24247,2569 L 24247,2668 L 23763,2668 L 23763,3152 L 23663,3152 L 23663,2668 L 23177,2668 L 23177,2569 L 23663,2569 L 23663,2082 Z "  />
<path style="fill:#000000;fill-opacity:1.00;fill-rule:nonzero;stroke:none"  d="M 13951,2618 C 13951,2649 13940,2676 13918,2698 C 13896,2720 13869,2731 13839,2731 C 13808,2731 13781,2720 13759,2698 C 13737,2676 13726,2649 13726,2618 C 13726,2587 13737,2560 13759,2538 C 13781,2516 13808,2505 13839,2505 C 13869,2505 13896,2516 13918,2538 C 13940,2560 13951,2587 13951,2618 "  />
<path style="fill:#000000;fill-opacity:1.00;fill-rule:nonzero;stroke:none"  d="M 10084,2378 L 11154,2378 L 11154,2477 L 10084,2477 L 10084,2378 Z M 10084,2759 L 11154,2759 L 11154,2859 L 10084,2859 L 10084,2759 Z "  />
<path style="fill:#000000;fill-opacity:1.00;fill-rule:nonzero;stroke:none"  d="M 45347,2230 C 45370,2269 45386,2306 45395,2340 C 45404,2375 45413,2442 45421,2543 L 45466,3044 C 45507,2995 45566,2918 45643,2812 C 45681,2760 45727,2690 45782,2601 C 45815,2546 45836,2508 45843,2487 C 45847,2476 45849,2464 45849,2453 C 45849,2445 45847,2439 45842,2435 C 45837,2430 45825,2424 45805,2418 C 45785,2411 45768,2399 45755,2382 C 45742,2365 45735,2345 45735,2322 C 45735,2295 45743,2272 45760,2255 C 45776,2238 45796,2230 45821,2230 C 45851,2230 45876,2242 45897,2267 C 45918,2292 45929,2326 45929,2369 C 45929,2423 45910,2484 45874,2553 C 45837,2622 45766,2728 45662,2871 C 45557,3013 45431,3169 45282,3337 C 45179,3454 45103,3527 45053,3557 C 45004,3587 44961,3602 44926,3602 C 44905,3602 44887,3594 44871,3578 C 44855,3562 44847,3544 44847,3523 C 44847,3496 44858,3472 44880,3451 C 44902,3429 44926,3418 44952,3418 C 44965,3418 44976,3421 44985,3427 C 44991,3431 44997,3440 45003,3456 C 45009,3472 45015,3483 45021,3488 C 45024,3492 45028,3493 45033,3493 C 45037,3493 45044,3490 45054,3483 C 45092,3460 45135,3423 45185,3373 C 45250,3307 45298,3252 45330,3210 L 45273,2564 C 45263,2457 45249,2392 45230,2369 C 45211,2346 45179,2335 45134,2335 C 45120,2335 45094,2337 45058,2341 L 45048,2303 L 45347,2230 Z "  />
<path style="fill:#000000;fill-opacity:1.00;fill-rule:nonzero;stroke:none"  d="M 43470,2230 C 43503,2265 43528,2300 43545,2336 C 43557,2360 43577,2424 43605,2528 L 43695,2394 C 43719,2361 43747,2330 43781,2301 C 43815,2271 43845,2251 43871,2240 C 43887,2233 43905,2230 43925,2230 C 43954,2230 43978,2238 43995,2253 C 44012,2269 44021,2288 44021,2310 C 44021,2336 44016,2354 44006,2363 C 43987,2380 43965,2389 43940,2389 C 43926,2389 43911,2386 43895,2380 C 43863,2369 43841,2363 43830,2363 C 43814,2363 43795,2373 43772,2392 C 43730,2427 43680,2495 43621,2597 L 43705,2947 C 43718,3001 43729,3033 43738,3043 C 43746,3054 43755,3059 43764,3059 C 43778,3059 43795,3051 43814,3036 C 43851,3005 43883,2964 43910,2913 L 43946,2932 C 43903,3012 43848,3079 43782,3132 C 43745,3161 43714,3176 43688,3176 C 43650,3176 43619,3155 43597,3112 C 43583,3086 43553,2972 43508,2770 C 43402,2954 43317,3072 43254,3125 C 43212,3159 43172,3176 43133,3176 C 43106,3176 43081,3167 43059,3147 C 43043,3132 43034,3112 43034,3087 C 43034,3064 43042,3046 43057,3031 C 43072,3016 43090,3008 43112,3008 C 43134,3008 43157,3019 43181,3041 C 43199,3057 43212,3064 43222,3064 C 43230,3064 43241,3059 43254,3048 C 43286,3022 43329,2966 43384,2881 C 43439,2795 43475,2733 43492,2695 C 43450,2530 43427,2443 43424,2434 C 43408,2389 43388,2358 43363,2340 C 43337,2321 43300,2312 43252,2312 C 43236,2312 43218,2313 43198,2314 L 43198,2278 L 43470,2230 Z "  />
<path style="fill:#000000;fill-opacity:1.00;fill-rule:nonzero;stroke:none"  d="M 38098,1845 L 37940,2391 L 38070,2391 C 38162,2391 38229,2377 38270,2348 C 38312,2320 38348,2268 38377,2192 L 38415,2192 L 38274,2693 L 38233,2693 C 38245,2651 38251,2615 38251,2585 C 38251,2556 38245,2533 38233,2515 C 38221,2497 38205,2484 38184,2476 C 38164,2467 38120,2463 38053,2463 L 37922,2463 L 37788,2921 C 37776,2965 37769,2998 37769,3022 C 37769,3039 37778,3055 37795,3068 C 37806,3078 37835,3083 37881,3083 L 38003,3083 C 38136,3083 38242,3059 38322,3012 C 38402,2965 38473,2884 38536,2768 L 38574,2768 L 38444,3152 L 37376,3152 L 37389,3114 C 37442,3113 37478,3108 37496,3100 C 37523,3088 37543,3072 37555,3053 C 37573,3025 37595,2967 37620,2878 L 37863,2044 C 37882,1977 37891,1926 37891,1890 C 37891,1865 37882,1844 37864,1830 C 37846,1815 37811,1808 37759,1808 L 37737,1808 L 37750,1770 L 38742,1770 L 38657,2103 L 38619,2103 C 38624,2072 38626,2046 38626,2025 C 38626,1989 38617,1959 38600,1934 C 38577,1903 38543,1879 38499,1863 C 38466,1851 38391,1845 38274,1845 L 38098,1845 Z M 38806,2287 L 39158,2230 L 39011,2725 C 39130,2522 39238,2380 39335,2299 C 39390,2253 39435,2230 39470,2230 C 39492,2230 39510,2236 39523,2250 C 39536,2263 39542,2282 39542,2307 C 39542,2352 39531,2395 39508,2436 C 39491,2466 39468,2481 39437,2481 C 39422,2481 39408,2476 39397,2466 C 39386,2456 39379,2440 39376,2419 C 39375,2406 39372,2398 39367,2394 C 39361,2388 39355,2386 39348,2386 C 39336,2386 39325,2388 39315,2394 C 39297,2403 39270,2430 39234,2473 C 39178,2540 39117,2626 39051,2732 C 39022,2777 38998,2828 38978,2884 C 38949,2961 38933,3008 38929,3024 L 38896,3152 L 38740,3152 L 38929,2519 C 38950,2446 38961,2393 38961,2362 C 38961,2350 38956,2340 38946,2332 C 38932,2321 38914,2315 38892,2315 C 38878,2315 38852,2318 38814,2324 L 38806,2287 Z M 39619,2287 L 39970,2230 L 39823,2725 C 39942,2522 40050,2380 40147,2299 C 40203,2253 40247,2230 40282,2230 C 40304,2230 40322,2236 40335,2250 C 40348,2263 40354,2282 40354,2307 C 40354,2352 40343,2395 40320,2436 C 40303,2466 40280,2481 40249,2481 C 40234,2481 40220,2476 40209,2466 C 40198,2456 40191,2440 40188,2419 C 40187,2406 40184,2398 40179,2394 C 40174,2388 40167,2386 40160,2386 C 40148,2386 40137,2388 40127,2394 C 40109,2403 40083,2430 40047,2473 C 39990,2540 39929,2626 39863,2732 C 39835,2777 39810,2828 39790,2884 C 39761,2961 39745,3008 39741,3024 L 39708,3152 L 39552,3152 L 39741,2519 C 39763,2446 39773,2393 39773,2362 C 39773,2350 39768,2340 39758,2332 C 39745,2321 39727,2315 39704,2315 C 39690,2315 39664,2318 39626,2324 L 39619,2287 Z M 41209,2549 C 41209,2651 41182,2751 41128,2851 C 41074,2951 40999,3030 40903,3089 C 40806,3147 40712,3176 40621,3176 C 40528,3176 40452,3147 40393,3087 C 40335,3028 40305,2951 40305,2856 C 40305,2757 40334,2656 40391,2556 C 40449,2455 40526,2376 40622,2317 C 40718,2259 40811,2230 40900,2230 C 40990,2230 41064,2259 41122,2318 C 41180,2377 41209,2454 41209,2549 M 41040,2478 C 41040,2415 41025,2367 40994,2333 C 40963,2300 40923,2283 40874,2283 C 40774,2283 40682,2354 40598,2497 C 40514,2640 40472,2782 40472,2924 C 40472,2988 40489,3038 40521,3073 C 40554,3108 40595,3125 40645,3125 C 40740,3125 40830,3054 40914,2912 C 40998,2770 41040,2625 41040,2478 M 41397,2287 L 41748,2230 L 41602,2725 C 41720,2522 41828,2380 41926,2299 C 41981,2253 42025,2230 42060,2230 C 42083,2230 42100,2236 42113,2250 C 42126,2263 42132,2282 42132,2307 C 42132,2352 42121,2395 42098,2436 C 42082,2466 42058,2481 42028,2481 C 42012,2481 41998,2476 41987,2466 C 41976,2456 41969,2440 41966,2419 C 41965,2406 41962,2398 41957,2394 C 41952,2388 41945,2386 41938,2386 C 41926,2386 41915,2388 41905,2394 C 41888,2403 41861,2430 41825,2473 C 41768,2540 41707,2626 41641,2732 C 41613,2777 41588,2828 41568,2884 C 41539,2961 41523,3008 41519,3024 L 41486,3152 L 41330,3152 L 41519,2519 C 41541,2446 41552,2393 41552,2362 C 41552,2350 41547,2340 41536,2332 C 41523,2321 41505,2315 41482,2315 C 41468,2315 41442,2318 41404,2324 L 41397,2287 Z "  />
<path style="fill:#000000;fill-opacity:1.00;fill-rule:nonzero;stroke:none"  d="M 36064,2930 C 35994,3015 35922,3077 35850,3117 C 35778,3157 35702,3176 35622,3176 C 35526,3176 35450,3149 35396,3095 C 35342,3041 35315,2968 35315,2876 C 35315,2772 35344,2670 35403,2569 C 35461,2469 35539,2387 35637,2324 C 35735,2261 35831,2230 35926,2230 C 36000,2230 36055,2245 36092,2276 C 36129,2307 36147,2345 36147,2390 C 36147,2432 36134,2468 36108,2498 C 36089,2521 36066,2532 36038,2532 C 36017,2532 35999,2526 35985,2512 C 35971,2498 35965,2481 35965,2461 C 35965,2448 35967,2436 35972,2425 C 35977,2414 35988,2401 36004,2386 C 36020,2371 36029,2360 36033,2353 C 36036,2346 36038,2339 36038,2332 C 36038,2317 36031,2305 36019,2296 C 35999,2282 35971,2276 35935,2276 C 35868,2276 35803,2299 35737,2346 C 35672,2393 35616,2459 35570,2546 C 35514,2650 35487,2755 35487,2859 C 35487,2929 35506,2984 35546,3024 C 35585,3064 35639,3085 35707,3085 C 35759,3085 35811,3072 35862,3045 C 35913,3019 35971,2972 36035,2903 L 36064,2930 Z "  />
<path style="fill:#000000;fill-opacity:1.00;fill-rule:nonzero;stroke:none"  d="M 21373,2230 C 21396,2269 21412,2306 21421,2340 C 21430,2375 21439,2442 21447,2543 L 21492,3044 C 21533,2995 21592,2918 21670,2812 C 21707,2760 21753,2690 21808,2601 C 21841,2546 21862,2508 21869,2487 C 21873,2476 21875,2464 21875,2453 C 21875,2445 21873,2439 21868,2435 C 21864,2430 21851,2424 21831,2418 C 21811,2411 21794,2399 21781,2382 C 21768,2365 21761,2345 21761,2322 C 21761,2295 21769,2272 21786,2255 C 21802,2238 21822,2230 21847,2230 C 21877,2230 21902,2242 21923,2267 C 21944,2292 21955,2326 21955,2369 C 21955,2423 21937,2484 21900,2553 C 21863,2622 21793,2728 21688,2871 C 21583,3013 21457,3169 21308,3337 C 21205,3454 21129,3527 21080,3557 C 21030,3587 20987,3602 20952,3602 C 20931,3602 20913,3594 20897,3578 C 20881,3562 20873,3544 20873,3523 C 20873,3496 20884,3472 20906,3451 C 20928,3429 20952,3418 20978,3418 C 20991,3418 21002,3421 21011,3427 C 21017,3431 21023,3440 21029,3456 C 21036,3472 21041,3483 21047,3488 C 21050,3492 21054,3493 21059,3493 C 21063,3493 21070,3490 21081,3483 C 21118,3460 21161,3423 21211,3373 C 21276,3307 21324,3252 21356,3210 L 21299,2564 C 21289,2457 21275,2392 21256,2369 C 21237,2346 21205,2335 21160,2335 C 21146,2335 21120,2337 21084,2341 L 21074,2303 L 21373,2230 Z "  />
<path style="fill:#000000;fill-opacity:1.00;fill-rule:nonzero;stroke:none"  d="M 19496,2230 C 19529,2265 19554,2300 19571,2336 C 19583,2360 19603,2424 19631,2528 L 19721,2394 C 19745,2361 19774,2330 19808,2301 C 19841,2271 19871,2251 19897,2240 C 19914,2233 19932,2230 19951,2230 C 19980,2230 20004,2238 20021,2253 C 20038,2269 20047,2288 20047,2310 C 20047,2336 20042,2354 20032,2363 C 20013,2380 19991,2389 19966,2389 C 19952,2389 19937,2386 19921,2380 C 19889,2369 19867,2363 19856,2363 C 19840,2363 19821,2373 19798,2392 C 19756,2427 19706,2495 19648,2597 L 19731,2947 C 19744,3001 19755,3033 19764,3043 C 19773,3054 19781,3059 19790,3059 C 19804,3059 19821,3051 19840,3036 C 19878,3005 19909,2964 19936,2913 L 19972,2932 C 19929,3012 19874,3079 19809,3132 C 19771,3161 19740,3176 19714,3176 C 19676,3176 19645,3155 19623,3112 C 19609,3086 19579,2972 19534,2770 C 19428,2954 19344,3072 19280,3125 C 19238,3159 19198,3176 19159,3176 C 19132,3176 19107,3167 19085,3147 C 19069,3132 19061,3112 19061,3087 C 19061,3064 19068,3046 19083,3031 C 19098,3016 19116,3008 19138,3008 C 19160,3008 19183,3019 19207,3041 C 19225,3057 19239,3064 19248,3064 C 19256,3064 19267,3059 19280,3048 C 19312,3022 19355,2966 19410,2881 C 19465,2795 19501,2733 19518,2695 C 19476,2530 19453,2443 19450,2434 C 19434,2389 19414,2358 19389,2340 C 19364,2321 19327,2312 19278,2312 C 19262,2312 19244,2313 19224,2314 L 19224,2278 L 19496,2230 Z "  />
<path style="fill:#000000;fill-opacity:1.00;fill-rule:nonzero;stroke:none"  d="M 14464,3184 L 14578,2671 L 14613,2671 C 14608,2721 14606,2762 14606,2794 C 14606,2887 14636,2963 14695,3022 C 14755,3080 14832,3109 14928,3109 C 15017,3109 15085,3082 15131,3027 C 15177,2972 15200,2909 15200,2838 C 15200,2792 15190,2750 15168,2712 C 15137,2655 15051,2556 14913,2414 C 14845,2346 14802,2296 14783,2262 C 14752,2207 14736,2150 14736,2089 C 14736,1993 14772,1910 14844,1841 C 14916,1773 15009,1739 15122,1739 C 15160,1739 15196,1742 15230,1750 C 15251,1754 15289,1767 15345,1790 C 15384,1806 15406,1815 15410,1816 C 15420,1818 15430,1819 15442,1819 C 15461,1819 15478,1814 15493,1804 C 15507,1794 15523,1772 15542,1739 L 15581,1739 L 15475,2197 L 15441,2197 C 15443,2156 15445,2123 15445,2098 C 15445,2016 15417,1949 15363,1896 C 15309,1844 15237,1818 15148,1818 C 15077,1818 15020,1839 14976,1880 C 14932,1922 14910,1970 14910,2024 C 14910,2071 14924,2117 14952,2160 C 14980,2203 15045,2273 15147,2371 C 15248,2468 15314,2544 15344,2599 C 15374,2654 15389,2712 15389,2774 C 15389,2844 15370,2912 15333,2977 C 15296,3043 15243,3094 15174,3130 C 15104,3166 15029,3184 14946,3184 C 14906,3184 14868,3180 14832,3172 C 14797,3165 14740,3147 14663,3117 C 14637,3107 14614,3102 14597,3102 C 14557,3102 14525,3129 14503,3184 L 14464,3184 Z M 16569,1739 L 16464,2888 C 16458,2942 16456,2977 16456,2994 C 16456,3021 16461,3042 16471,3056 C 16484,3076 16501,3090 16523,3100 C 16545,3109 16583,3114 16635,3114 L 16624,3152 L 16079,3152 L 16091,3114 L 16114,3114 C 16158,3114 16194,3105 16222,3086 C 16242,3073 16257,3051 16268,3022 C 16275,3000 16283,2951 16289,2873 L 16306,2697 L 15910,2697 L 15770,2888 C 15738,2931 15718,2962 15710,2980 C 15701,2999 15697,3016 15697,3033 C 15697,3054 15706,3073 15724,3089 C 15741,3104 15771,3113 15811,3114 L 15800,3152 L 15392,3152 L 15403,3114 C 15453,3112 15497,3095 15536,3064 C 15574,3032 15631,2965 15708,2862 L 16533,1739 L 16569,1739 Z M 16367,2078 L 15966,2623 L 16314,2623 L 16367,2078 Z M 17074,1808 L 17086,1770 L 17528,1770 C 17714,1770 17853,1792 17943,1834 C 18033,1877 18105,1945 18158,2037 C 18212,2129 18239,2227 18239,2333 C 18239,2423 18223,2511 18192,2596 C 18162,2681 18127,2750 18087,2801 C 18048,2852 17988,2909 17908,2971 C 17827,3032 17739,3078 17645,3108 C 17550,3137 17432,3152 17291,3152 L 16706,3152 L 16719,3114 C 16773,3113 16809,3108 16827,3100 C 16855,3088 16875,3073 16888,3053 C 16907,3025 16929,2967 16954,2881 L 17198,2045 C 17217,1979 17227,1928 17227,1890 C 17227,1864 17218,1843 17200,1829 C 17183,1815 17148,1808 17096,1808 L 17074,1808 Z M 17436,1847 L 17136,2881 C 17114,2958 17103,3006 17103,3025 C 17103,3035 17106,3046 17113,3056 C 17120,3066 17130,3073 17142,3077 C 17160,3083 17189,3086 17228,3086 C 17335,3086 17434,3075 17525,3053 C 17616,3031 17691,2998 17750,2954 C 17833,2891 17899,2804 17948,2693 C 17998,2583 18023,2457 18023,2315 C 18023,2156 17985,2037 17909,1959 C 17833,1881 17721,1842 17575,1842 C 17539,1842 17493,1844 17436,1847 "  />
<path style="fill:#000000;fill-opacity:1.00;fill-rule:nonzero;stroke:none"  d="M 13168,2230 L 12969,2921 L 12947,3013 C 12945,3022 12944,3030 12944,3036 C 12944,3047 12947,3056 12954,3064 C 12960,3070 12966,3073 12975,3073 C 12983,3073 12995,3068 13009,3057 C 13036,3037 13071,2997 13115,2935 L 13150,2959 C 13103,3030 13055,3084 13005,3121 C 12956,3158 12910,3176 12868,3176 C 12838,3176 12816,3169 12802,3155 C 12787,3140 12780,3119 12780,3091 C 12780,3058 12787,3014 12802,2959 L 12824,2883 C 12735,2999 12653,3080 12578,3126 C 12524,3160 12472,3176 12420,3176 C 12371,3176 12328,3156 12292,3115 C 12256,3074 12238,3017 12238,2945 C 12238,2837 12270,2723 12335,2603 C 12400,2483 12482,2387 12582,2315 C 12660,2258 12734,2230 12803,2230 C 12845,2230 12879,2241 12907,2262 C 12934,2284 12955,2320 12969,2370 L 13006,2254 L 13168,2230 Z M 12805,2283 C 12762,2283 12716,2303 12667,2344 C 12598,2402 12536,2487 12482,2601 C 12428,2714 12401,2817 12401,2908 C 12401,2955 12412,2991 12435,3018 C 12459,3045 12485,3058 12515,3058 C 12589,3058 12670,3004 12756,2894 C 12873,2749 12931,2600 12931,2447 C 12931,2389 12920,2347 12897,2321 C 12875,2296 12844,2283 12805,2283 "  />
<path style="fill:#000000;fill-opacity:1.00;fill-rule:nonzero;stroke:none"  d="M 8150,2230 C 8174,2269 8190,2306 8198,2340 C 8207,2375 8216,2442 8225,2543 L 8270,3044 C 8310,2995 8370,2918 8447,2812 C 8484,2760 8531,2690 8586,2601 C 8619,2546 8639,2508 8647,2487 C 8651,2476 8653,2464 8653,2453 C 8653,2445 8650,2439 8646,2435 C 8641,2430 8629,2424 8609,2418 C 8588,2411 8572,2399 8559,2382 C 8545,2365 8539,2345 8539,2322 C 8539,2295 8547,2272 8563,2255 C 8579,2238 8600,2230 8624,2230 C 8654,2230 8680,2242 8701,2267 C 8722,2292 8732,2326 8732,2369 C 8732,2423 8714,2484 8677,2553 C 8641,2622 8570,2728 8465,2871 C 8361,3013 8234,3169 8085,3337 C 7983,3454 7907,3527 7857,3557 C 7807,3587 7765,3602 7730,3602 C 7709,3602 7690,3594 7674,3578 C 7658,3562 7650,3544 7650,3523 C 7650,3496 7661,3472 7683,3451 C 7705,3429 7729,3418 7755,3418 C 7769,3418 7780,3421 7789,3427 C 7794,3431 7800,3440 7807,3456 C 7813,3472 7819,3483 7824,3488 C 7828,3492 7832,3493 7837,3493 C 7841,3493 7848,3490 7858,3483 C 7895,3460 7939,3423 7988,3373 C 8054,3307 8102,3252 8133,3210 L 8076,2564 C 8067,2457 8052,2392 8033,2369 C 8014,2346 7982,2335 7937,2335 C 7923,2335 7898,2337 7861,2341 L 7852,2303 L 8150,2230 Z "  />
<path style="fill:#000000;fill-opacity:1.00;fill-rule:nonzero;stroke:none"  d="M 6273,2230 C 6306,2265 6332,2300 6349,2336 C 6361,2360 6381,2424 6409,2528 L 6498,2394 C 6522,2361 6551,2330 6585,2301 C 6619,2271 6649,2251 6675,2240 C 6691,2233 6709,2230 6729,2230 C 6758,2230 6781,2238 6798,2253 C 6816,2269 6824,2288 6824,2310 C 6824,2336 6819,2354 6809,2363 C 6790,2380 6768,2389 6744,2389 C 6730,2389 6714,2386 6698,2380 C 6666,2369 6645,2363 6634,2363 C 6618,2363 6598,2373 6576,2392 C 6534,2427 6483,2495 6425,2597 L 6509,2947 C 6521,3001 6532,3033 6541,3043 C 6550,3054 6559,3059 6568,3059 C 6582,3059 6599,3051 6618,3036 C 6655,3005 6687,2964 6713,2913 L 6749,2932 C 6706,3012 6652,3079 6586,3132 C 6549,3161 6517,3176 6491,3176 C 6453,3176 6423,3155 6401,3112 C 6386,3086 6357,2972 6312,2770 C 6206,2954 6121,3072 6057,3125 C 6016,3159 5976,3176 5937,3176 C 5910,3176 5885,3167 5862,3147 C 5846,3132 5838,3112 5838,3087 C 5838,3064 5845,3046 5860,3031 C 5875,3016 5894,3008 5915,3008 C 5937,3008 5960,3019 5985,3041 C 6002,3057 6016,3064 6026,3064 C 6034,3064 6044,3059 6057,3048 C 6089,3022 6133,2966 6188,2881 C 6243,2795 6279,2733 6296,2695 C 6253,2530 6231,2443 6227,2434 C 6212,2389 6191,2358 6166,2340 C 6141,2321 6104,2312 6055,2312 C 6039,2312 6021,2313 6001,2314 L 6001,2278 L 6273,2230 Z "  />
<path style="fill:#000000;fill-opacity:1.00;fill-rule:nonzero;stroke:none"  d="M 602,1703 L 402,2407 C 467,2339 524,2293 572,2267 C 621,2242 672,2230 725,2230 C 799,2230 860,2255 908,2304 C 956,2354 979,2421 979,2506 C 979,2615 948,2724 886,2832 C 823,2941 745,3025 650,3086 C 556,3146 463,3176 371,3176 C 268,3176 163,3138 55,3061 L 365,1994 C 389,1912 400,1864 400,1850 C 400,1832 395,1819 384,1810 C 369,1798 345,1792 315,1792 C 301,1792 279,1794 250,1799 L 250,1760 L 602,1703 Z M 208,3072 C 276,3110 336,3129 387,3129 C 447,3129 509,3107 573,3063 C 637,3019 693,2945 740,2841 C 788,2737 811,2632 811,2526 C 811,2464 796,2415 765,2380 C 734,2344 697,2327 655,2327 C 592,2327 530,2352 470,2402 C 409,2453 366,2524 340,2614 L 208,3072 Z M 1292,2768 C 1287,2802 1285,2830 1285,2852 C 1285,2913 1306,2964 1349,3007 C 1392,3049 1444,3070 1505,3070 C 1554,3070 1601,3060 1646,3040 C 1691,3020 1759,2976 1848,2907 L 1869,2937 C 1708,3097 1554,3176 1408,3176 C 1309,3176 1234,3145 1184,3083 C 1134,3020 1109,2951 1109,2876 C 1109,2775 1140,2671 1202,2565 C 1265,2459 1343,2377 1438,2318 C 1532,2259 1629,2230 1729,2230 C 1801,2230 1855,2244 1889,2274 C 1924,2303 1941,2337 1941,2377 C 1941,2434 1919,2488 1874,2539 C 1815,2607 1728,2661 1613,2703 C 1537,2730 1430,2752 1292,2768 M 1299,2718 C 1400,2706 1482,2687 1545,2659 C 1628,2621 1691,2577 1733,2525 C 1775,2473 1796,2423 1796,2376 C 1796,2348 1787,2325 1769,2307 C 1751,2289 1725,2281 1692,2281 C 1622,2281 1549,2318 1471,2391 C 1393,2465 1336,2574 1299,2718 M 2590,1703 L 2242,2916 C 2225,2976 2216,3013 2216,3027 C 2216,3037 2220,3045 2226,3052 C 2233,3059 2241,3062 2250,3062 C 2263,3062 2277,3057 2292,3045 C 2327,3017 2364,2974 2403,2916 L 2433,2947 C 2369,3038 2309,3102 2255,3138 C 2215,3164 2177,3176 2141,3176 C 2115,3176 2094,3168 2076,3150 C 2059,3132 2050,3112 2050,3089 C 2050,3064 2061,3014 2083,2938 L 2359,1982 C 2381,1904 2393,1859 2393,1848 C 2393,1831 2386,1818 2373,1807 C 2360,1797 2340,1792 2313,1792 C 2298,1792 2274,1794 2242,1799 L 2242,1761 L 2590,1703 Z M 3016,1825 C 3045,1825 3069,1835 3089,1855 C 3108,1874 3118,1899 3118,1927 C 3118,1955 3108,1979 3088,1999 C 3068,2019 3044,2029 3016,2029 C 2988,2029 2965,2019 2944,1999 C 2924,1979 2914,1955 2914,1927 C 2914,1899 2924,1874 2944,1855 C 2964,1835 2988,1825 3016,1825 M 3030,2230 L 2828,2944 C 2814,2992 2807,3021 2807,3031 C 2807,3042 2811,3050 2817,3057 C 2824,3064 2831,3067 2840,3067 C 2850,3067 2862,3062 2877,3051 C 2915,3020 2954,2977 2994,2921 L 3030,2944 C 2983,3015 2929,3074 2867,3122 C 2820,3158 2776,3176 2734,3176 C 2706,3176 2683,3168 2666,3151 C 2648,3135 2639,3114 2639,3089 C 2639,3064 2648,3022 2665,2963 L 2797,2507 C 2819,2432 2830,2385 2830,2366 C 2830,2351 2825,2339 2814,2330 C 2804,2320 2789,2315 2771,2315 C 2756,2315 2725,2319 2678,2327 L 2678,2287 L 3030,2230 Z M 3378,2768 C 3373,2802 3371,2830 3371,2852 C 3371,2913 3392,2964 3435,3007 C 3478,3049 3530,3070 3591,3070 C 3640,3070 3687,3060 3732,3040 C 3777,3020 3844,2976 3933,2907 L 3955,2937 C 3794,3097 3640,3176 3494,3176 C 3395,3176 3320,3145 3270,3083 C 3220,3020 3195,2951 3195,2876 C 3195,2775 3226,2671 3288,2565 C 3351,2459 3429,2377 3524,2318 C 3618,2259 3715,2230 3815,2230 C 3887,2230 3941,2244 3975,2274 C 4010,2303 4027,2337 4027,2377 C 4027,2434 4005,2488 3960,2539 C 3901,2607 3814,2661 3699,2703 C 3623,2730 3516,2752 3378,2768 M 3385,2718 C 3486,2706 3568,2687 3631,2659 C 3714,2621 3777,2577 3819,2525 C 3861,2473 3881,2423 3881,2376 C 3881,2348 3872,2325 3854,2307 C 3836,2289 3811,2281 3778,2281 C 3708,2281 3635,2318 3557,2391 C 3479,2465 3422,2574 3385,2718 M 4674,2254 L 4656,2321 L 4507,2321 L 4395,2767 C 4345,2963 4296,3115 4245,3222 C 4174,3374 4097,3478 4015,3536 C 3952,3580 3890,3602 3827,3602 C 3787,3602 3752,3590 3723,3566 C 3702,3549 3692,3527 3692,3499 C 3692,3478 3701,3459 3718,3443 C 3735,3427 3756,3419 3782,3419 C 3800,3419 3815,3425 3828,3436 C 3841,3448 3847,3461 3847,3476 C 3847,3491 3840,3505 3825,3518 C 3815,3527 3809,3534 3809,3539 C 3809,3545 3811,3550 3816,3553 C 3822,3558 3832,3561 3845,3561 C 3874,3561 3905,3551 3937,3533 C 3969,3515 3998,3487 4023,3451 C 4048,3415 4072,3362 4094,3294 C 4104,3265 4129,3171 4171,3011 L 4348,2321 L 4171,2321 L 4185,2254 C 4242,2254 4281,2250 4303,2242 C 4326,2235 4346,2220 4365,2198 C 4384,2176 4408,2134 4438,2074 C 4478,1992 4516,1929 4553,1884 C 4603,1824 4656,1778 4711,1748 C 4767,1718 4819,1703 4868,1703 C 4920,1703 4961,1716 4992,1742 C 5023,1768 5039,1797 5039,1827 C 5039,1851 5031,1871 5016,1887 C 5000,1904 4980,1912 4956,1912 C 4934,1912 4917,1906 4904,1893 C 4891,1881 4884,1867 4884,1850 C 4884,1839 4889,1825 4897,1809 C 4906,1793 4911,1783 4911,1777 C 4911,1768 4908,1761 4902,1756 C 4893,1749 4880,1746 4863,1746 C 4820,1746 4782,1759 4748,1786 C 4702,1822 4661,1879 4625,1956 C 4607,1996 4573,2095 4524,2254 L 4674,2254 Z "  />
<path style="fill:#000000;fill-opacity:1.00;fill-rule:nonzero;stroke:none"  d="M 32239,3494 C 32252,3517 32261,3539 32267,3559 C 32272,3579 32277,3618 32282,3677 L 32308,3969 C 32332,3941 32366,3896 32412,3834 C 32433,3804 32460,3763 32492,3711 C 32512,3679 32524,3657 32528,3644 C 32530,3638 32532,3631 32532,3625 C 32532,3620 32530,3617 32527,3614 C 32525,3611 32517,3608 32506,3604 C 32494,3600 32484,3593 32477,3583 C 32469,3573 32465,3562 32465,3549 C 32465,3532 32470,3519 32479,3509 C 32489,3499 32501,3494 32515,3494 C 32532,3494 32547,3502 32560,3516 C 32572,3531 32578,3551 32578,3576 C 32578,3607 32567,3643 32546,3683 C 32524,3723 32483,3785 32422,3868 C 32361,3952 32287,4042 32201,4141 C 32141,4208 32096,4251 32067,4269 C 32038,4286 32014,4295 31993,4295 C 31981,4295 31970,4290 31961,4281 C 31951,4272 31947,4261 31947,4249 C 31947,4233 31953,4219 31966,4207 C 31979,4194 31993,4188 32008,4188 C 32016,4188 32022,4189 32028,4193 C 32031,4195 32034,4201 32038,4210 C 32042,4219 32045,4225 32048,4229 C 32050,4231 32053,4232 32056,4232 C 32058,4232 32062,4230 32068,4226 C 32090,4212 32115,4191 32144,4161 C 32182,4123 32210,4091 32228,4066 L 32195,3689 C 32190,3627 32181,3589 32170,3576 C 32159,3562 32141,3556 32114,3556 C 32106,3556 32091,3557 32070,3559 L 32064,3537 L 32239,3494 Z "  />
<path style="fill:#000000;fill-opacity:1.00;fill-rule:nonzero;stroke:none"  d="M 31178,3494 C 31198,3515 31213,3536 31222,3556 C 31230,3571 31241,3608 31258,3669 L 31310,3590 C 31324,3571 31341,3553 31360,3536 C 31380,3519 31398,3507 31413,3500 C 31422,3496 31433,3494 31444,3494 C 31461,3494 31475,3499 31485,3508 C 31495,3517 31500,3528 31500,3541 C 31500,3556 31497,3567 31491,3572 C 31480,3582 31467,3587 31453,3587 C 31445,3587 31436,3585 31426,3582 C 31408,3575 31395,3572 31389,3572 C 31379,3572 31368,3578 31355,3589 C 31330,3610 31301,3649 31267,3708 L 31316,3913 C 31323,3944 31330,3963 31335,3969 C 31340,3975 31345,3978 31350,3978 C 31359,3978 31368,3974 31379,3965 C 31401,3946 31420,3923 31435,3893 L 31456,3904 C 31431,3951 31399,3990 31361,4021 C 31339,4038 31321,4047 31306,4047 C 31283,4047 31266,4034 31253,4009 C 31244,3994 31227,3927 31201,3809 C 31139,3917 31090,3986 31052,4017 C 31028,4037 31005,4047 30982,4047 C 30966,4047 30952,4041 30939,4029 C 30929,4021 30925,4009 30925,3994 C 30925,3981 30929,3970 30938,3962 C 30946,3953 30957,3949 30970,3949 C 30983,3949 30996,3955 31010,3968 C 31021,3977 31028,3981 31034,3981 C 31039,3981 31045,3978 31052,3972 C 31071,3957 31096,3924 31129,3874 C 31161,3824 31182,3788 31192,3766 C 31167,3670 31154,3619 31152,3613 C 31143,3588 31131,3569 31116,3559 C 31101,3548 31080,3543 31051,3543 C 31042,3543 31032,3543 31020,3544 L 31020,3522 L 31178,3494 Z "  />
<path style="fill:#000000;fill-opacity:1.00;fill-rule:nonzero;stroke:none"  d="M 25121,3248 L 25128,3226 L 25386,3226 C 25495,3226 25576,3239 25628,3264 C 25681,3289 25722,3328 25754,3382 C 25785,3436 25801,3493 25801,3554 C 25801,3607 25792,3658 25774,3708 C 25756,3758 25735,3798 25712,3828 C 25690,3858 25655,3891 25608,3927 C 25560,3963 25509,3989 25454,4007 C 25399,4024 25330,4032 25248,4032 L 24907,4032 L 24914,4010 C 24946,4010 24967,4007 24977,4002 C 24993,3995 25005,3986 25013,3975 C 25024,3958 25037,3925 25051,3874 L 25194,3387 C 25205,3348 25211,3318 25211,3297 C 25211,3281 25205,3269 25195,3261 C 25185,3253 25165,3248 25134,3248 L 25121,3248 Z M 25332,3271 L 25158,3874 C 25145,3919 25138,3947 25138,3958 C 25138,3964 25140,3971 25144,3977 C 25148,3982 25154,3986 25161,3988 C 25171,3992 25188,3994 25211,3994 C 25273,3994 25331,3987 25384,3974 C 25438,3962 25481,3942 25515,3917 C 25564,3880 25602,3830 25631,3765 C 25660,3700 25675,3627 25675,3544 C 25675,3451 25653,3382 25608,3337 C 25564,3291 25499,3269 25414,3269 C 25393,3269 25366,3269 25332,3271 M 25967,3808 C 25964,3828 25963,3845 25963,3858 C 25963,3893 25976,3923 26000,3948 C 26025,3972 26056,3985 26091,3985 C 26120,3985 26147,3979 26174,3967 C 26200,3956 26239,3930 26291,3890 L 26304,3907 C 26210,4000 26120,4047 26035,4047 C 25977,4047 25934,4028 25904,3992 C 25875,3956 25860,3915 25860,3871 C 25860,3812 25878,3752 25915,3690 C 25951,3628 25997,3580 26052,3546 C 26107,3512 26164,3494 26222,3494 C 26264,3494 26295,3503 26316,3520 C 26336,3537 26346,3557 26346,3581 C 26346,3614 26333,3645 26307,3675 C 26272,3714 26221,3746 26154,3770 C 26110,3787 26048,3799 25967,3808 M 25971,3779 C 26030,3772 26078,3761 26115,3745 C 26163,3723 26200,3697 26224,3667 C 26249,3636 26261,3607 26261,3580 C 26261,3563 26256,3550 26245,3540 C 26235,3529 26220,3524 26200,3524 C 26160,3524 26117,3546 26072,3589 C 26026,3632 25993,3695 25971,3779 M 26389,3531 L 26560,3494 C 26573,3524 26583,3554 26590,3584 C 26601,3629 26610,3682 26616,3744 C 26619,3774 26624,3840 26629,3940 C 26679,3885 26708,3851 26718,3838 C 26770,3767 26800,3725 26808,3713 C 26821,3692 26831,3674 26836,3658 C 26840,3646 26842,3635 26842,3624 C 26842,3614 26833,3602 26815,3588 C 26796,3575 26787,3560 26787,3543 C 26787,3531 26792,3519 26802,3509 C 26812,3499 26824,3494 26838,3494 C 26855,3494 26869,3501 26882,3515 C 26895,3529 26901,3546 26901,3566 C 26901,3586 26898,3605 26892,3624 C 26881,3654 26862,3691 26834,3734 C 26806,3778 26760,3836 26698,3909 C 26690,3918 26646,3964 26566,4047 L 26544,4047 C 26534,3796 26514,3639 26484,3577 C 26474,3557 26458,3547 26435,3547 C 26425,3547 26411,3549 26393,3552 L 26389,3531 Z M 27175,3258 C 27192,3258 27206,3264 27217,3276 C 27229,3287 27235,3301 27235,3318 C 27235,3334 27229,3348 27217,3360 C 27205,3372 27191,3377 27175,3377 C 27159,3377 27145,3372 27133,3360 C 27121,3348 27116,3334 27116,3318 C 27116,3301 27121,3287 27133,3276 C 27144,3264 27158,3258 27175,3258 M 27183,3494 L 27065,3911 C 27057,3939 27053,3956 27053,3962 C 27053,3968 27055,3973 27059,3977 C 27063,3981 27067,3983 27072,3983 C 27078,3983 27085,3980 27094,3974 C 27116,3956 27139,3930 27162,3897 L 27183,3911 C 27156,3952 27124,3987 27088,4015 C 27061,4036 27035,4047 27010,4047 C 26994,4047 26981,4042 26971,4032 C 26960,4022 26955,4010 26955,3996 C 26955,3981 26960,3957 26970,3922 L 27047,3656 C 27060,3613 27066,3585 27066,3574 C 27066,3565 27063,3558 27057,3553 C 27051,3547 27043,3544 27032,3544 C 27023,3544 27005,3547 26978,3551 L 26978,3528 L 27183,3494 Z M 27812,3494 L 27696,3897 L 27683,3952 C 27682,3957 27682,3961 27682,3965 C 27682,3971 27684,3977 27687,3981 C 27691,3985 27695,3987 27699,3987 C 27705,3987 27711,3983 27720,3977 C 27735,3966 27756,3942 27781,3906 L 27802,3920 C 27774,3961 27746,3993 27717,4014 C 27688,4036 27662,4047 27637,4047 C 27620,4047 27607,4042 27599,4034 C 27590,4025 27586,4013 27586,3997 C 27586,3977 27590,3952 27599,3920 L 27611,3875 C 27559,3943 27512,3991 27468,4018 C 27437,4037 27406,4047 27376,4047 C 27347,4047 27322,4035 27301,4011 C 27280,3987 27270,3954 27270,3912 C 27270,3849 27289,3782 27326,3712 C 27364,3642 27412,3586 27471,3544 C 27516,3511 27559,3494 27600,3494 C 27624,3494 27644,3501 27660,3513 C 27676,3526 27688,3547 27696,3576 L 27718,3509 L 27812,3494 Z M 27601,3525 C 27575,3525 27548,3537 27520,3561 C 27479,3595 27443,3645 27412,3711 C 27380,3777 27365,3837 27365,3890 C 27365,3917 27371,3939 27385,3954 C 27398,3970 27414,3978 27431,3978 C 27474,3978 27521,3946 27572,3882 C 27640,3797 27674,3710 27674,3621 C 27674,3587 27667,3563 27654,3548 C 27641,3533 27623,3525 27601,3525 M 28166,3347 L 28120,3509 L 28213,3509 L 28203,3546 L 28110,3546 L 28008,3897 C 27997,3935 27991,3959 27991,3970 C 27991,3977 27993,3982 27996,3985 C 27999,3989 28003,3991 28007,3991 C 28017,3991 28030,3984 28047,3970 C 28056,3962 28077,3938 28110,3897 L 28130,3912 C 28093,3965 28059,4002 28026,4024 C 28004,4039 27982,4047 27959,4047 C 27942,4047 27927,4041 27916,4030 C 27905,4019 27900,4005 27900,3988 C 27900,3967 27906,3934 27919,3890 L 28018,3546 L 27928,3546 L 27934,3523 C 27978,3511 28014,3493 28043,3470 C 28072,3446 28104,3405 28140,3347 L 28166,3347 Z M 28460,3258 C 28477,3258 28491,3264 28502,3276 C 28514,3287 28520,3301 28520,3318 C 28520,3334 28514,3348 28502,3360 C 28490,3372 28476,3377 28460,3377 C 28444,3377 28430,3372 28418,3360 C 28407,3348 28401,3334 28401,3318 C 28401,3301 28407,3287 28418,3276 C 28430,3264 28444,3258 28460,3258 M 28468,3494 L 28350,3911 C 28342,3939 28338,3956 28338,3962 C 28338,3968 28340,3973 28344,3977 C 28348,3981 28352,3983 28357,3983 C 28363,3983 28370,3980 28379,3974 C 28401,3956 28424,3930 28447,3897 L 28468,3911 C 28441,3952 28409,3987 28373,4015 C 28346,4036 28320,4047 28296,4047 C 28279,4047 28266,4042 28256,4032 C 28245,4022 28240,4010 28240,3996 C 28240,3981 28245,3957 28255,3922 L 28332,3656 C 28345,3613 28351,3585 28351,3574 C 28351,3565 28348,3558 28342,3553 C 28336,3547 28328,3544 28317,3544 C 28308,3544 28290,3547 28263,3551 L 28263,3528 L 28468,3494 Z M 29089,3680 C 29089,3740 29073,3799 29042,3857 C 29010,3915 28966,3961 28910,3996 C 28854,4030 28799,4047 28746,4047 C 28692,4047 28648,4029 28613,3995 C 28579,3960 28562,3915 28562,3860 C 28562,3802 28579,3743 28612,3685 C 28646,3626 28690,3580 28746,3546 C 28803,3511 28857,3494 28909,3494 C 28961,3494 29004,3512 29038,3546 C 29072,3581 29089,3625 29089,3680 M 28990,3639 C 28990,3603 28981,3574 28963,3555 C 28945,3535 28922,3525 28894,3525 C 28835,3525 28782,3567 28733,3650 C 28684,3734 28659,3817 28659,3899 C 28659,3937 28669,3966 28688,3986 C 28707,4007 28731,4017 28760,4017 C 28816,4017 28868,3975 28917,3892 C 28966,3809 28990,3725 28990,3639 M 29404,3494 L 29325,3765 C 29399,3654 29455,3582 29495,3547 C 29534,3512 29572,3494 29609,3494 C 29628,3494 29645,3501 29658,3514 C 29671,3527 29677,3544 29677,3565 C 29677,3589 29671,3621 29660,3660 L 29587,3911 C 29579,3939 29575,3957 29575,3963 C 29575,3969 29576,3974 29580,3977 C 29583,3981 29586,3983 29590,3983 C 29594,3983 29600,3980 29607,3975 C 29628,3959 29651,3933 29676,3899 L 29694,3911 C 29657,3963 29623,4001 29590,4023 C 29567,4039 29546,4047 29528,4047 C 29513,4047 29501,4042 29493,4033 C 29484,4024 29480,4012 29480,3997 C 29480,3978 29486,3946 29500,3899 L 29569,3660 C 29578,3631 29582,3607 29582,3591 C 29582,3583 29579,3576 29574,3571 C 29569,3566 29563,3564 29555,3564 C 29544,3564 29531,3569 29515,3578 C 29486,3596 29456,3626 29424,3667 C 29392,3708 29359,3760 29323,3824 C 29305,3857 29289,3894 29277,3934 L 29247,4032 L 29158,4032 L 29266,3660 C 29279,3616 29285,3589 29285,3579 C 29285,3571 29282,3563 29275,3557 C 29268,3550 29259,3547 29249,3547 C 29244,3547 29236,3548 29224,3549 L 29202,3553 L 29198,3531 L 29404,3494 Z "  />
<path style="fill:#000000;fill-opacity:1.00;fill-rule:nonzero;stroke:none"  d="M 29031,1573 L 28914,1984 C 28952,1944 28985,1917 29013,1902 C 29041,1888 29071,1880 29102,1880 C 29146,1880 29181,1895 29209,1924 C 29237,1953 29251,1992 29251,2041 C 29251,2105 29232,2169 29196,2232 C 29159,2295 29114,2344 29059,2380 C 29004,2415 28949,2433 28896,2433 C 28836,2433 28774,2410 28711,2365 L 28892,1743 C 28906,1695 28913,1667 28913,1659 C 28913,1648 28910,1641 28903,1635 C 28894,1628 28881,1625 28863,1625 C 28855,1625 28842,1626 28825,1629 L 28825,1606 L 29031,1573 Z M 28801,2372 C 28840,2394 28875,2405 28905,2405 C 28940,2405 28976,2392 29014,2366 C 29051,2341 29084,2298 29111,2237 C 29139,2176 29153,2115 29153,2053 C 29153,2017 29143,1988 29125,1968 C 29107,1947 29086,1937 29062,1937 C 29025,1937 28989,1952 28953,1981 C 28918,2011 28893,2052 28878,2104 L 28801,2372 Z "  />
</svg>