<svg width="193px" height="45px" viewBox="0 0 19300 4500" version="1.1" xmlns="http://www.w3.org/2000/svg" xmlns:xlink="http://www.w3.org/1999/xlink">
<path style="fill:none;stroke:#000000;stroke-width:66px;stroke-opacity:1.00;"  d="M 11771,2250 L 18227,2250 "  />
<path style="fill:#000000;fill-opacity:1.00;fill-rule:nonzero;stroke:none"  d="M 18971,2908 L 18896,2908 L 18896,1308 L 18971,1308 L 18971,2908 Z "  />
<path style="fill:#000000;fill-opacity:1.00;fill-rule:nonzero;stroke:none"  d="M 18972,2607 L 18972,3016 C 18972,3175 18952,3331 18914,3484 C 18880,3616 18834,3732 18774,3832 C 18713,3932 18643,4016 18561,4084 C 18503,4134 18436,4175 18360,4207 L 18342,4191 C 18488,4091 18604,3973 18689,3838 C 18758,3730 18809,3601 18844,3450 C 18878,3299 18896,3159 18896,3031 L 18896,2607 L 18972,2607 Z "  />
<path style="fill:#000000;fill-opacity:1.00;fill-rule:nonzero;stroke:none"  d="M 18972,1891 L 18896,1891 L 18896,1467 C 18896,1304 18874,1145 18831,990 C 18787,836 18722,700 18635,583 C 18560,482 18462,390 18342,307 L 18360,291 C 18484,343 18595,429 18692,548 C 18789,668 18860,812 18905,982 C 18949,1152 18972,1319 18972,1483 L 18972,1891 Z "  />
<path style="fill:#000000;fill-opacity:1.00;fill-rule:nonzero;stroke:none"  d="M 11087,2908 L 11012,2908 L 11012,1308 L 11087,1308 L 11087,2908 Z "  />
<path style="fill:#000000;fill-opacity:1.00;fill-rule:nonzero;stroke:none"  d="M 11012,2607 L 11087,2607 L 11087,3031 C 11087,3195 11109,3354 11153,3508 C 11197,3663 11262,3798 11349,3915 C 11424,4016 11521,4108 11642,4191 L 11624,4207 C 11499,4155 11389,4069 11292,3950 C 11195,3831 11124,3686 11079,3516 C 11034,3346 11012,3179 11012,3016 L 11012,2607 Z "  />
<path style="fill:#000000;fill-opacity:1.00;fill-rule:nonzero;stroke:none"  d="M 11012,1891 L 11012,1483 C 11012,1324 11032,1167 11070,1014 C 11103,882 11150,766 11210,666 C 11271,566 11341,482 11422,414 C 11481,364 11548,323 11624,291 L 11642,307 C 11496,407 11380,525 11294,660 C 11226,768 11175,897 11140,1048 C 11105,1199 11087,1339 11087,1467 L 11087,1891 L 11012,1891 Z "  />
<path style="fill:#000000;fill-opacity:1.00;fill-rule:nonzero;stroke:none"  d="M 14399,832 L 14475,832 L 14475,1203 L 14844,1203 L 14844,1278 L 14475,1278 L 14475,1646 L 14399,1646 L 14399,1278 L 14030,1278 L 14030,1203 L 14399,1203 L 14399,832 Z "  />
<path style="fill:#000000;fill-opacity:1.00;fill-rule:nonzero;stroke:none"  d="M 4363,2058 L 5177,2058 L 5177,2134 L 4363,2134 L 4363,2058 Z M 4363,2348 L 5177,2348 L 5177,2424 L 4363,2424 L 4363,2348 Z "  />
<path style="fill:#000000;fill-opacity:1.00;fill-rule:nonzero;stroke:none"  d="M 15375,3186 L 15271,3539 C 15368,3395 15442,3300 15494,3254 C 15545,3209 15595,3186 15642,3186 C 15668,3186 15689,3195 15706,3212 C 15723,3229 15731,3251 15731,3278 C 15731,3309 15724,3351 15709,3402 L 15614,3729 C 15603,3767 15598,3790 15598,3798 C 15598,3805 15600,3811 15604,3816 C 15608,3821 15613,3823 15617,3823 C 15624,3823 15631,3820 15640,3813 C 15667,3792 15697,3759 15730,3714 L 15754,3729 C 15706,3798 15660,3847 15617,3876 C 15587,3896 15560,3906 15537,3906 C 15518,3906 15502,3901 15491,3889 C 15480,3877 15474,3862 15474,3842 C 15474,3817 15483,3775 15500,3714 L 15590,3402 C 15602,3364 15607,3333 15607,3312 C 15607,3301 15604,3293 15597,3286 C 15590,3280 15582,3277 15572,3277 C 15558,3277 15541,3283 15520,3295 C 15482,3319 15442,3357 15401,3411 C 15360,3464 15316,3532 15270,3616 C 15246,3660 15225,3708 15209,3760 L 15171,3888 L 15054,3888 L 15195,3402 C 15212,3344 15220,3309 15220,3297 C 15220,3286 15216,3276 15207,3267 C 15198,3259 15186,3254 15173,3254 C 15167,3254 15156,3255 15140,3257 L 15111,3262 L 15106,3234 L 15375,3186 Z "  />
<path style="fill:#000000;fill-opacity:1.00;fill-rule:nonzero;stroke:none"  d="M 16995,963 L 16860,1425 C 16839,1494 16829,1537 16829,1555 C 16829,1565 16831,1572 16834,1576 C 16838,1580 16842,1583 16848,1583 C 16857,1583 16866,1579 16877,1571 C 16888,1563 16914,1531 16957,1475 L 16981,1493 C 16940,1557 16898,1605 16855,1635 C 16827,1655 16799,1665 16773,1665 C 16753,1665 16737,1659 16725,1648 C 16714,1636 16708,1622 16708,1603 C 16708,1586 16712,1563 16718,1534 C 16727,1495 16750,1412 16789,1284 C 16701,1428 16628,1528 16568,1583 C 16509,1637 16454,1665 16404,1665 C 16380,1665 16360,1656 16343,1640 C 16327,1623 16318,1602 16318,1577 C 16318,1538 16330,1479 16352,1399 L 16420,1159 C 16436,1102 16445,1066 16445,1052 C 16445,1046 16443,1041 16438,1036 C 16434,1032 16429,1030 16424,1030 C 16413,1030 16402,1033 16391,1041 C 16380,1049 16356,1078 16318,1127 L 16293,1110 C 16332,1050 16373,1006 16417,978 C 16450,955 16480,944 16508,944 C 16527,944 16543,950 16555,963 C 16567,975 16573,990 16573,1009 C 16573,1037 16563,1087 16542,1159 L 16470,1410 C 16449,1478 16439,1521 16439,1539 C 16439,1549 16443,1557 16449,1563 C 16455,1569 16464,1572 16475,1572 C 16492,1572 16514,1563 16542,1546 C 16569,1529 16606,1491 16651,1432 C 16697,1374 16735,1319 16765,1267 C 16794,1216 16826,1134 16860,1022 L 16877,963 L 16995,963 Z "  />
<path style="fill:#000000;fill-opacity:1.00;fill-rule:nonzero;stroke:none"  d="M 13557,636 C 13579,636 13597,644 13612,659 C 13627,674 13635,692 13635,714 C 13635,735 13627,753 13612,769 C 13597,784 13579,792 13557,792 C 13536,792 13518,784 13503,769 C 13487,753 13480,735 13480,714 C 13480,692 13487,674 13502,659 C 13517,644 13536,636 13557,636 M 13567,944 L 13414,1488 C 13404,1525 13398,1547 13398,1554 C 13398,1562 13401,1569 13406,1574 C 13411,1579 13417,1582 13423,1582 C 13431,1582 13440,1578 13451,1569 C 13481,1546 13510,1513 13540,1470 L 13567,1488 C 13532,1542 13491,1587 13443,1624 C 13408,1651 13375,1665 13343,1665 C 13321,1665 13304,1658 13291,1646 C 13277,1633 13270,1617 13270,1598 C 13270,1579 13277,1547 13290,1503 L 13391,1155 C 13407,1098 13415,1063 13415,1048 C 13415,1037 13411,1028 13403,1020 C 13395,1013 13384,1009 13370,1009 C 13359,1009 13336,1012 13300,1018 L 13300,988 L 13567,944 Z "  />
<path style="fill:#000000;fill-opacity:1.00;fill-rule:nonzero;stroke:none"  d="M 7977,1964 L 7842,2426 C 7822,2495 7812,2538 7812,2556 C 7812,2566 7813,2572 7817,2577 C 7820,2581 7825,2583 7830,2583 C 7839,2583 7849,2579 7859,2571 C 7870,2563 7897,2532 7940,2476 L 7963,2494 C 7922,2558 7880,2606 7837,2636 C 7809,2656 7781,2666 7755,2666 C 7735,2666 7719,2660 7708,2649 C 7696,2637 7691,2622 7691,2604 C 7691,2587 7694,2564 7701,2535 C 7709,2496 7733,2413 7771,2285 C 7683,2429 7610,2529 7551,2583 C 7491,2638 7437,2666 7386,2666 C 7362,2666 7342,2657 7325,2641 C 7309,2624 7301,2603 7301,2578 C 7301,2539 7312,2480 7335,2400 L 7402,2160 C 7419,2103 7427,2067 7427,2053 C 7427,2047 7425,2041 7420,2037 C 7416,2033 7411,2031 7406,2031 C 7395,2031 7384,2034 7373,2042 C 7363,2050 7338,2079 7300,2128 L 7276,2111 C 7314,2051 7356,2007 7399,1979 C 7432,1956 7463,1945 7491,1945 C 7510,1945 7525,1951 7537,1963 C 7550,1976 7556,1991 7556,2010 C 7556,2038 7545,2088 7525,2160 L 7452,2411 C 7432,2479 7422,2522 7422,2540 C 7422,2550 7425,2558 7431,2564 C 7438,2570 7446,2573 7457,2573 C 7474,2573 7496,2564 7524,2547 C 7551,2530 7588,2492 7634,2433 C 7679,2375 7717,2320 7747,2268 C 7777,2217 7808,2135 7842,2023 L 7859,1964 L 7977,1964 Z "  />
<path style="fill:#000000;fill-opacity:1.00;fill-rule:nonzero;stroke:none"  d="M 6575,1571 L 6495,2446 C 6491,2487 6489,2514 6489,2527 C 6489,2548 6493,2563 6500,2574 C 6510,2589 6524,2600 6540,2608 C 6557,2615 6586,2618 6625,2618 L 6617,2647 L 6203,2647 L 6211,2618 L 6229,2618 C 6263,2618 6290,2611 6311,2597 C 6326,2587 6338,2571 6346,2548 C 6352,2532 6357,2494 6362,2435 L 6375,2301 L 6074,2301 L 5967,2446 C 5943,2479 5927,2502 5921,2516 C 5915,2531 5912,2544 5912,2556 C 5912,2573 5919,2587 5932,2599 C 5945,2611 5968,2617 5999,2618 L 5990,2647 L 5679,2647 L 5688,2618 C 5726,2617 5760,2604 5789,2580 C 5818,2556 5862,2505 5920,2426 L 6548,1571 L 6575,1571 Z M 6421,1830 L 6117,2245 L 6381,2245 L 6421,1830 Z "  />
<path style="fill:#000000;fill-opacity:1.00;fill-rule:nonzero;stroke:none"  d="M 3260,1964 L 3125,2426 C 3105,2495 3095,2538 3095,2556 C 3095,2566 3096,2572 3100,2577 C 3103,2581 3108,2583 3113,2583 C 3122,2583 3132,2579 3142,2571 C 3153,2563 3180,2532 3223,2476 L 3246,2494 C 3205,2558 3163,2606 3120,2636 C 3092,2656 3065,2666 3038,2666 C 3018,2666 3002,2660 2991,2649 C 2979,2637 2974,2622 2974,2604 C 2974,2587 2977,2564 2984,2535 C 2992,2496 3016,2413 3054,2285 C 2967,2429 2893,2529 2834,2583 C 2775,2638 2720,2666 2669,2666 C 2645,2666 2625,2657 2608,2641 C 2592,2624 2584,2603 2584,2578 C 2584,2539 2595,2480 2618,2400 L 2685,2160 C 2702,2103 2710,2067 2710,2053 C 2710,2047 2708,2041 2703,2037 C 2699,2033 2694,2031 2689,2031 C 2678,2031 2667,2034 2657,2042 C 2646,2050 2621,2079 2583,2128 L 2559,2111 C 2598,2051 2639,2007 2682,1979 C 2715,1956 2746,1945 2774,1945 C 2793,1945 2808,1951 2821,1963 C 2833,1976 2839,1991 2839,2010 C 2839,2038 2828,2088 2808,2160 L 2735,2411 C 2715,2479 2705,2522 2705,2540 C 2705,2550 2708,2558 2714,2564 C 2721,2570 2729,2573 2740,2573 C 2757,2573 2780,2564 2807,2547 C 2834,2530 2871,2492 2917,2433 C 2963,2375 3000,2320 3030,2268 C 3060,2217 3091,2135 3125,2023 L 3142,1964 L 3260,1964 Z "  />
<path style="fill:#000000;fill-opacity:1.00;fill-rule:nonzero;stroke:none"  d="M 1844,1637 C 1866,1637 1884,1645 1899,1660 C 1914,1675 1922,1693 1922,1715 C 1922,1736 1914,1754 1899,1770 C 1884,1785 1865,1792 1844,1792 C 1823,1792 1805,1785 1790,1770 C 1774,1754 1767,1736 1767,1715 C 1767,1693 1774,1675 1789,1660 C 1804,1645 1823,1637 1844,1637 M 1854,1945 L 1701,2489 C 1690,2526 1685,2548 1685,2555 C 1685,2563 1688,2570 1693,2575 C 1698,2580 1703,2583 1710,2583 C 1718,2583 1727,2579 1738,2570 C 1768,2547 1797,2514 1827,2471 L 1854,2489 C 1819,2543 1778,2588 1730,2625 C 1695,2652 1662,2666 1629,2666 C 1608,2666 1591,2659 1578,2647 C 1564,2634 1557,2618 1557,2599 C 1557,2580 1564,2548 1577,2504 L 1678,2156 C 1694,2099 1702,2064 1702,2049 C 1702,2038 1698,2028 1690,2021 C 1682,2014 1671,2010 1657,2010 C 1646,2010 1622,2013 1587,2019 L 1587,1989 L 1854,1945 Z "  />
<path style="fill:#000000;fill-opacity:1.00;fill-rule:nonzero;stroke:none"  d="M 830,2478 C 776,2543 722,2590 667,2620 C 612,2651 554,2666 493,2666 C 420,2666 362,2645 321,2604 C 280,2562 260,2507 260,2437 C 260,2358 282,2280 326,2203 C 370,2127 430,2065 504,2017 C 579,1969 652,1945 724,1945 C 781,1945 823,1957 851,1980 C 879,2004 893,2033 893,2067 C 893,2099 883,2126 863,2149 C 849,2167 831,2176 810,2176 C 794,2176 780,2170 770,2160 C 759,2150 754,2137 754,2121 C 754,2111 756,2102 760,2094 C 763,2086 771,2076 784,2064 C 796,2053 803,2044 806,2039 C 808,2034 810,2028 810,2023 C 810,2012 805,2003 795,1996 C 780,1985 759,1980 731,1980 C 681,1980 630,1998 581,2034 C 531,2069 489,2120 454,2186 C 411,2265 390,2345 390,2424 C 390,2477 405,2519 435,2550 C 465,2580 506,2596 558,2596 C 597,2596 637,2586 676,2566 C 715,2546 759,2510 807,2458 L 830,2478 Z "  />
<path style="fill:#000000;fill-opacity:1.00;fill-rule:nonzero;stroke:none"  d="M 14929,3685 L 14855,3888 L 14235,3888 L 14235,3859 C 14417,3693 14546,3557 14620,3451 C 14694,3346 14732,3249 14732,3162 C 14732,3095 14711,3040 14670,2998 C 14630,2955 14581,2933 14524,2933 C 14472,2933 14426,2948 14385,2979 C 14344,3009 14313,3053 14294,3112 L 14265,3112 C 14278,3016 14311,2942 14364,2891 C 14418,2840 14485,2815 14565,2815 C 14650,2815 14722,2842 14779,2897 C 14836,2952 14864,3016 14864,3091 C 14864,3144 14852,3197 14827,3250 C 14789,3334 14727,3423 14641,3516 C 14512,3657 14432,3742 14400,3771 L 14674,3771 C 14730,3771 14769,3769 14792,3765 C 14814,3760 14835,3752 14853,3739 C 14871,3727 14887,3709 14900,3685 L 14929,3685 Z "  />
<path style="fill:#000000;fill-opacity:1.00;fill-rule:nonzero;stroke:none"  d="M 15759,576 L 15759,543 C 15837,582 15903,628 15955,681 C 16029,756 16086,845 16126,946 C 16166,1048 16187,1154 16187,1264 C 16187,1424 16147,1570 16068,1702 C 15989,1834 15886,1929 15759,1986 L 15759,1957 C 15822,1921 15874,1873 15916,1812 C 15957,1752 15987,1674 16007,1581 C 16027,1487 16037,1389 16037,1287 C 16037,1177 16028,1076 16011,985 C 15998,914 15982,857 15963,814 C 15943,771 15918,730 15886,690 C 15854,650 15811,612 15759,576 "  />
<path style="fill:#000000;fill-opacity:1.00;fill-rule:nonzero;stroke:none"  d="M 15235,698 L 15491,573 L 15517,573 L 15517,1461 C 15517,1520 15519,1556 15524,1571 C 15529,1585 15539,1597 15555,1604 C 15570,1612 15602,1616 15649,1617 L 15649,1646 L 15254,1646 L 15254,1617 C 15303,1616 15335,1612 15350,1605 C 15364,1597 15374,1587 15380,1574 C 15386,1562 15389,1524 15389,1461 L 15389,893 C 15389,817 15386,767 15381,746 C 15377,729 15371,717 15361,709 C 15352,702 15340,698 15327,698 C 15308,698 15281,706 15247,722 L 15235,698 Z "  />
<path style="fill:#000000;fill-opacity:1.00;fill-rule:nonzero;stroke:none"  d="M 13157,1444 L 13083,1646 L 12463,1646 L 12463,1617 C 12645,1451 12774,1315 12848,1210 C 12923,1104 12960,1008 12960,920 C 12960,854 12939,799 12899,756 C 12858,713 12809,691 12752,691 C 12700,691 12654,707 12613,737 C 12572,767 12541,811 12522,870 L 12493,870 C 12506,774 12539,701 12593,650 C 12646,598 12713,573 12793,573 C 12878,573 12950,600 13007,655 C 13064,710 13092,774 13092,849 C 13092,902 13080,955 13055,1009 C 13017,1092 12955,1181 12869,1275 C 12740,1415 12660,1500 12628,1529 L 12902,1529 C 12958,1529 12997,1527 13020,1523 C 13042,1519 13063,1510 13081,1498 C 13099,1485 13115,1467 13128,1444 L 13157,1444 Z "  />
<path style="fill:#000000;fill-opacity:1.00;fill-rule:nonzero;stroke:none"  d="M 12348,1957 L 12348,1986 C 12270,1947 12205,1901 12152,1848 C 12078,1773 12020,1684 11980,1583 C 11940,1481 11920,1375 11920,1265 C 11920,1105 11959,959 12038,827 C 12117,695 12221,600 12348,543 L 12348,576 C 12284,611 12232,659 12191,720 C 12150,781 12120,858 12100,952 C 12079,1046 12069,1143 12069,1245 C 12069,1356 12078,1456 12095,1547 C 12108,1618 12125,1675 12144,1719 C 12163,1762 12189,1803 12221,1843 C 12253,1883 12296,1921 12348,1957 "  />
<path style="fill:#000000;fill-opacity:1.00;fill-rule:nonzero;stroke:none"  d="M 9479,2377 C 9460,2471 9423,2543 9367,2593 C 9311,2644 9249,2669 9182,2669 C 9101,2669 9031,2635 8971,2567 C 8911,2499 8881,2408 8881,2293 C 8881,2181 8914,2090 8980,2020 C 9047,1951 9127,1916 9220,1916 C 9289,1916 9347,1934 9392,1971 C 9437,2008 9459,2047 9459,2086 C 9459,2106 9453,2122 9440,2134 C 9428,2146 9410,2152 9387,2152 C 9357,2152 9334,2142 9318,2123 C 9309,2112 9304,2091 9301,2061 C 9298,2030 9287,2007 9269,1991 C 9251,1975 9226,1968 9194,1968 C 9142,1968 9101,1987 9069,2025 C 9027,2076 9006,2143 9006,2226 C 9006,2311 9027,2386 9069,2450 C 9110,2515 9167,2548 9237,2548 C 9288,2548 9334,2530 9374,2496 C 9402,2472 9430,2429 9457,2366 L 9479,2377 Z M 9928,1916 C 10036,1916 10122,1957 10187,2038 C 10243,2108 10270,2188 10270,2279 C 10270,2342 10255,2407 10225,2472 C 10194,2537 10152,2586 10099,2619 C 10045,2652 9986,2669 9920,2669 C 9813,2669 9728,2626 9665,2541 C 9611,2469 9585,2388 9585,2299 C 9585,2234 9601,2169 9633,2105 C 9666,2040 9708,1993 9761,1962 C 9814,1931 9869,1916 9928,1916 M 9904,1966 C 9877,1966 9849,1974 9822,1991 C 9794,2007 9772,2035 9755,2076 C 9738,2117 9729,2170 9729,2234 C 9729,2337 9750,2426 9791,2501 C 9832,2576 9886,2614 9953,2614 C 10003,2614 10045,2593 10077,2552 C 10110,2510 10126,2439 10126,2338 C 10126,2212 10099,2113 10045,2041 C 10008,1991 9961,1966 9904,1966 M 10834,1916 L 10834,2158 L 10809,2158 C 10789,2082 10764,2030 10733,2003 C 10702,1975 10663,1961 10616,1961 C 10579,1961 10550,1971 10528,1990 C 10506,2009 10495,2031 10495,2054 C 10495,2083 10503,2108 10519,2128 C 10535,2149 10568,2172 10617,2196 L 10730,2251 C 10835,2302 10888,2369 10888,2453 C 10888,2518 10863,2570 10814,2609 C 10766,2649 10711,2669 10650,2669 C 10607,2669 10557,2661 10502,2646 C 10484,2640 10470,2638 10460,2638 C 10448,2638 10438,2644 10432,2658 L 10406,2658 L 10406,2404 L 10432,2404 C 10446,2477 10474,2531 10515,2568 C 10556,2605 10601,2623 10652,2623 C 10688,2623 10717,2613 10739,2592 C 10762,2571 10773,2545 10773,2516 C 10773,2480 10760,2450 10735,2426 C 10710,2402 10660,2371 10585,2334 C 10510,2297 10461,2263 10438,2233 C 10415,2203 10403,2166 10403,2121 C 10403,2063 10423,2014 10463,1975 C 10503,1935 10555,1916 10619,1916 C 10647,1916 10680,1922 10720,1934 C 10747,1941 10764,1945 10773,1945 C 10781,1945 10788,1943 10792,1940 C 10797,1936 10802,1928 10809,1916 L 10834,1916 Z "  />
<path style="fill:#000000;fill-opacity:1.00;fill-rule:nonzero;stroke:none"  d="M 8138,1577 L 8138,1544 C 8217,1583 8282,1629 8335,1682 C 8408,1757 8466,1846 8506,1947 C 8546,2049 8566,2155 8566,2265 C 8566,2425 8527,2571 8448,2703 C 8369,2835 8266,2930 8138,2987 L 8138,2958 C 8202,2922 8254,2874 8295,2813 C 8336,2753 8367,2675 8387,2582 C 8407,2488 8417,2390 8417,2288 C 8417,2178 8408,2077 8391,1986 C 8378,1915 8362,1858 8343,1815 C 8323,1772 8298,1731 8266,1691 C 8233,1651 8191,1613 8138,1577 "  />
<path style="fill:#000000;fill-opacity:1.00;fill-rule:nonzero;stroke:none"  d="M 7198,2958 L 7198,2987 C 7120,2947 7055,2901 7003,2849 C 6928,2774 6871,2685 6831,2583 C 6790,2482 6770,2376 6770,2266 C 6770,2106 6810,1960 6889,1828 C 6968,1696 7071,1601 7198,1544 L 7198,1577 C 7135,1612 7083,1660 7042,1721 C 7001,1782 6970,1859 6950,1953 C 6930,2047 6920,2144 6920,2246 C 6920,2357 6928,2457 6946,2548 C 6959,2619 6975,2676 6994,2720 C 7013,2763 7039,2804 7072,2844 C 7104,2884 7146,2922 7198,2958 "  />
<path style="fill:#000000;fill-opacity:1.00;fill-rule:nonzero;stroke:none"  d="M 3421,1577 L 3421,1544 C 3500,1583 3565,1629 3618,1682 C 3692,1757 3749,1846 3789,1947 C 3829,2049 3850,2155 3850,2265 C 3850,2425 3810,2571 3731,2703 C 3652,2835 3549,2930 3421,2987 L 3421,2958 C 3485,2922 3537,2874 3579,2813 C 3620,2753 3650,2675 3670,2582 C 3690,2488 3700,2390 3700,2288 C 3700,2178 3691,2077 3674,1986 C 3661,1915 3645,1858 3626,1815 C 3606,1772 3581,1731 3549,1691 C 3517,1651 3474,1613 3421,1577 "  />
<path style="fill:#000000;fill-opacity:1.00;fill-rule:nonzero;stroke:none"  d="M 2049,2912 L 2049,2877 C 2102,2860 2143,2833 2172,2796 C 2201,2759 2216,2719 2216,2678 C 2216,2668 2214,2660 2209,2653 C 2206,2649 2202,2646 2198,2646 C 2193,2646 2180,2651 2161,2662 C 2152,2666 2142,2669 2132,2669 C 2106,2669 2086,2661 2071,2646 C 2056,2631 2049,2611 2049,2584 C 2049,2559 2058,2537 2078,2519 C 2097,2501 2121,2492 2149,2492 C 2183,2492 2213,2507 2240,2537 C 2266,2566 2280,2606 2280,2655 C 2280,2708 2261,2758 2224,2803 C 2187,2849 2129,2885 2049,2912 "  />
<path style="fill:#000000;fill-opacity:1.00;fill-rule:nonzero;stroke:none"  d="M 1458,2958 L 1458,2987 C 1380,2947 1315,2901 1263,2849 C 1188,2774 1131,2685 1091,2583 C 1050,2482 1030,2376 1030,2266 C 1030,2106 1070,1960 1149,1828 C 1228,1696 1331,1601 1458,1544 L 1458,1577 C 1395,1612 1342,1660 1302,1721 C 1261,1782 1230,1859 1210,1953 C 1190,2047 1180,2144 1180,2246 C 1180,2357 1188,2457 1205,2548 C 1219,2619 1235,2676 1254,2720 C 1273,2763 1299,2804 1331,2844 C 1364,2884 1406,2922 1458,2958 "  />
<path style="fill:#000000;fill-opacity:1.00;fill-rule:nonzero;stroke:none"  d="M 18079,936 L 18044,1048 L 17856,1048 C 17802,1167 17757,1280 17724,1389 C 17707,1442 17705,1480 17716,1503 C 17728,1526 17748,1538 17776,1538 C 17798,1538 17820,1530 17841,1514 C 17862,1499 17880,1476 17894,1447 L 17921,1447 C 17887,1529 17849,1586 17809,1620 C 17768,1653 17729,1670 17691,1670 C 17651,1670 17623,1652 17607,1615 C 17592,1578 17600,1510 17631,1410 C 17650,1347 17697,1226 17772,1048 L 17570,1048 C 17470,1319 17398,1491 17353,1562 C 17308,1634 17266,1670 17226,1670 C 17207,1670 17194,1664 17185,1652 C 17177,1639 17176,1624 17182,1605 C 17186,1592 17191,1580 17199,1570 C 17208,1557 17226,1538 17253,1514 C 17297,1472 17333,1428 17359,1382 C 17406,1303 17455,1192 17506,1048 L 17470,1048 C 17432,1048 17402,1054 17380,1067 C 17344,1085 17307,1116 17269,1160 L 17238,1160 C 17295,1070 17348,1009 17397,975 C 17435,949 17480,936 17533,936 L 18079,936 Z "  />
</svg>