<svg width="63px" height="21px" viewBox="0 0 6300 2100" version="1.1" xmlns="http://www.w3.org/2000/svg" xmlns:xlink="http://www.w3.org/1999/xlink">
<path style="fill:#000000;fill-opacity:1.00;fill-rule:nonzero;stroke:none"  d="M 5556,382 L 5556,350 C 5634,389 5699,434 5751,486 C 5824,561 5881,649 5921,750 C 5961,850 5981,955 5981,1065 C 5981,1224 5942,1369 5864,1500 C 5785,1631 5683,1724 5556,1781 L 5556,1752 C 5619,1717 5671,1669 5712,1609 C 5753,1548 5783,1472 5803,1379 C 5822,1286 5832,1189 5832,1088 C 5832,978 5824,879 5807,788 C 5794,718 5778,661 5759,619 C 5740,576 5714,535 5682,495 C 5651,456 5609,418 5556,382 "  />
<path style="fill:#000000;fill-opacity:1.00;fill-rule:nonzero;stroke:none"  d="M 4427,1752 L 4427,1781 C 4349,1742 4285,1696 4233,1644 C 4159,1569 4102,1482 4062,1381 C 4022,1280 4002,1175 4002,1066 C 4002,907 4041,762 4120,631 C 4198,500 4301,407 4427,350 L 4427,382 C 4364,417 4312,465 4271,525 C 4231,586 4201,663 4181,755 C 4161,848 4151,945 4151,1046 C 4151,1156 4159,1256 4176,1345 C 4189,1416 4205,1473 4224,1516 C 4243,1558 4269,1600 4301,1639 C 4333,1679 4375,1716 4427,1752 "  />
<path style="fill:#000000;fill-opacity:1.00;fill-rule:nonzero;stroke:none"  d="M 4966,889 L 5164,612 C 5215,539 5241,493 5241,473 C 5241,462 5236,453 5224,445 C 5213,438 5182,432 5130,429 L 5138,401 L 5466,401 L 5459,429 C 5428,433 5406,438 5394,442 C 5376,450 5357,462 5339,479 C 5315,500 5280,542 5235,605 L 4980,958 L 4903,1215 C 4884,1280 4874,1325 4874,1349 C 4874,1365 4877,1377 4883,1385 C 4889,1394 4899,1400 4914,1405 C 4934,1411 4963,1415 5003,1415 L 4996,1444 L 4557,1444 L 4566,1415 C 4609,1414 4638,1411 4653,1405 C 4676,1395 4693,1383 4704,1368 C 4722,1344 4740,1302 4758,1241 L 4850,936 L 4738,576 C 4718,513 4700,473 4683,458 C 4666,442 4637,433 4596,429 L 4603,401 L 4989,401 L 4980,429 C 4931,433 4904,436 4897,439 C 4886,442 4877,449 4870,460 C 4862,471 4859,483 4859,498 C 4859,519 4866,555 4881,605 L 4966,889 Z "  />
<path style="fill:#000000;fill-opacity:1.00;fill-rule:nonzero;stroke:none"  d="M 2993,1468 L 3079,1081 L 3105,1081 C 3102,1118 3100,1149 3100,1174 C 3100,1244 3123,1301 3167,1345 C 3212,1389 3271,1411 3343,1411 C 3410,1411 3461,1391 3496,1350 C 3531,1308 3548,1261 3548,1207 C 3548,1172 3541,1140 3525,1112 C 3501,1069 3436,994 3332,887 C 3281,836 3248,797 3234,772 C 3210,731 3199,687 3199,642 C 3199,569 3226,507 3280,455 C 3334,403 3404,377 3489,377 C 3518,377 3545,380 3571,386 C 3587,389 3616,399 3658,416 C 3687,428 3704,434 3707,435 C 3714,437 3722,438 3731,438 C 3746,438 3758,434 3769,426 C 3780,419 3793,402 3807,377 L 3836,377 L 3756,723 L 3730,723 C 3732,692 3733,667 3733,649 C 3733,586 3713,536 3672,496 C 3631,457 3576,437 3509,437 C 3456,437 3413,453 3379,484 C 3346,515 3329,551 3329,592 C 3329,628 3340,663 3361,695 C 3382,728 3431,781 3508,854 C 3585,928 3634,985 3657,1027 C 3679,1068 3691,1112 3691,1158 C 3691,1211 3677,1262 3649,1312 C 3621,1361 3581,1400 3528,1427 C 3476,1454 3419,1468 3357,1468 C 3326,1468 3298,1465 3271,1459 C 3244,1453 3202,1440 3143,1418 C 3123,1410 3107,1406 3093,1406 C 3063,1406 3039,1427 3022,1468 L 2993,1468 Z "  />
<path style="fill:#000000;fill-opacity:1.00;fill-rule:nonzero;stroke:none"  d="M 1180,377 L 1101,1245 C 1097,1285 1095,1312 1095,1325 C 1095,1345 1098,1361 1106,1371 C 1116,1386 1129,1397 1146,1405 C 1162,1412 1191,1415 1230,1415 L 1222,1444 L 811,1444 L 819,1415 L 837,1415 C 870,1415 897,1408 919,1394 C 933,1384 945,1368 953,1345 C 959,1329 964,1292 969,1233 L 982,1101 L 683,1101 L 577,1245 C 553,1277 538,1300 532,1314 C 526,1328 522,1341 522,1354 C 522,1370 529,1384 542,1396 C 556,1408 578,1414 609,1415 L 600,1444 L 292,1444 L 300,1415 C 338,1414 372,1401 401,1377 C 430,1353 473,1302 530,1225 L 1153,377 L 1180,377 Z M 1028,633 L 725,1045 L 988,1045 L 1028,633 Z "  />
<path style="fill:#000000;fill-opacity:1.00;fill-rule:nonzero;stroke:none"  d="M 2470,739 L 2470,813 L 2153,813 C 2085,813 2028,824 1981,846 C 1935,868 1899,898 1873,937 C 1855,965 1841,1004 1831,1054 L 2470,1054 L 2470,1131 L 1831,1131 C 1852,1213 1888,1273 1938,1311 C 1988,1350 2061,1369 2154,1369 L 2470,1369 L 2470,1444 L 2164,1444 C 2074,1444 2001,1430 1945,1404 C 1889,1377 1843,1335 1808,1276 C 1772,1218 1754,1156 1754,1091 C 1754,992 1790,908 1861,841 C 1931,773 2032,739 2162,739 L 2470,739 Z "  />
</svg>