<svg width="75px" height="27px" viewBox="0 0 7500 2700" version="1.1" xmlns="http://www.w3.org/2000/svg" xmlns:xlink="http://www.w3.org/1999/xlink">
<path style="fill:#000000;fill-opacity:1.00;fill-rule:nonzero;stroke:none"  d="M 6418,1044 L 6470,812 L 6486,812 C 6484,834 6482,853 6482,867 C 6482,910 6496,944 6523,970 C 6550,997 6585,1010 6628,1010 C 6669,1010 6699,998 6720,973 C 6741,948 6751,920 6751,887 C 6751,866 6747,847 6737,830 C 6723,804 6684,760 6621,695 C 6591,665 6571,642 6563,627 C 6549,602 6542,575 6542,548 C 6542,504 6558,467 6590,436 C 6623,405 6665,389 6716,389 C 6733,389 6749,391 6765,394 C 6774,396 6792,402 6817,413 C 6835,420 6845,424 6847,424 C 6851,425 6856,426 6861,426 C 6870,426 6877,423 6884,419 C 6890,414 6898,404 6907,389 L 6924,389 L 6876,597 L 6860,597 C 6862,579 6862,564 6862,552 C 6862,515 6850,485 6825,461 C 6801,437 6768,425 6728,425 C 6696,425 6670,435 6650,453 C 6630,472 6620,494 6620,519 C 6620,540 6626,561 6639,580 C 6652,600 6681,632 6727,676 C 6773,720 6803,754 6817,779 C 6830,804 6837,830 6837,858 C 6837,890 6828,921 6812,950 C 6795,980 6771,1003 6739,1019 C 6708,1036 6674,1044 6637,1044 C 6618,1044 6601,1042 6585,1039 C 6569,1035 6543,1027 6508,1014 C 6496,1009 6486,1007 6478,1007 C 6460,1007 6446,1019 6436,1044 L 6418,1044 Z "  />
<path style="fill:#000000;fill-opacity:1.00;fill-rule:nonzero;stroke:none"  d="M 6605,2059 C 6573,2098 6541,2126 6508,2144 C 6476,2162 6441,2171 6405,2171 C 6361,2171 6327,2159 6303,2134 C 6278,2110 6266,2076 6266,2035 C 6266,1988 6279,1942 6306,1896 C 6332,1851 6367,1814 6412,1785 C 6456,1757 6500,1742 6542,1742 C 6576,1742 6601,1749 6618,1763 C 6634,1777 6643,1795 6643,1815 C 6643,1834 6637,1850 6625,1864 C 6616,1874 6606,1879 6593,1879 C 6584,1879 6576,1876 6569,1870 C 6563,1864 6560,1856 6560,1847 C 6560,1841 6561,1836 6563,1831 C 6566,1826 6571,1820 6578,1813 C 6585,1806 6589,1801 6591,1798 C 6592,1795 6593,1792 6593,1789 C 6593,1782 6590,1777 6584,1772 C 6576,1766 6563,1763 6547,1763 C 6516,1763 6487,1774 6457,1795 C 6428,1816 6402,1846 6381,1885 C 6356,1933 6344,1980 6344,2028 C 6344,2059 6353,2084 6370,2102 C 6388,2120 6413,2130 6443,2130 C 6467,2130 6490,2124 6514,2112 C 6537,2100 6563,2078 6592,2047 L 6605,2059 Z M 6869,1742 L 6837,1849 C 6870,1809 6900,1782 6927,1766 C 6953,1750 6980,1742 7007,1742 C 7035,1742 7058,1753 7077,1775 C 7097,1797 7106,1825 7106,1860 C 7106,1927 7079,1996 7024,2066 C 6969,2136 6905,2171 6831,2171 C 6816,2171 6802,2169 6790,2166 C 6779,2163 6765,2157 6751,2148 L 6717,2267 C 6710,2290 6707,2306 6707,2313 C 6707,2320 6709,2325 6712,2330 C 6716,2335 6721,2339 6729,2341 C 6737,2344 6753,2345 6777,2345 L 6773,2362 L 6555,2362 L 6560,2345 C 6589,2344 6608,2339 6618,2330 C 6628,2322 6638,2298 6650,2259 L 6766,1855 C 6773,1829 6777,1813 6777,1807 C 6777,1799 6774,1792 6770,1788 C 6765,1783 6758,1781 6748,1781 C 6739,1781 6726,1782 6710,1784 L 6710,1766 L 6869,1742 Z M 6761,2112 C 6780,2134 6806,2146 6838,2146 C 6854,2146 6871,2141 6887,2132 C 6904,2123 6920,2110 6936,2093 C 6952,2075 6966,2055 6979,2032 C 6991,2009 7002,1982 7012,1951 C 7022,1920 7027,1889 7027,1859 C 7027,1834 7022,1815 7011,1802 C 6999,1789 6986,1783 6971,1783 C 6938,1783 6905,1802 6873,1840 C 6840,1878 6816,1922 6801,1974 L 6761,2112 Z "  />
<path style="fill:#000000;fill-opacity:1.00;fill-rule:nonzero;stroke:none"  d="M 6216,630 L 5945,1571 C 5932,1618 5925,1647 5925,1658 C 5925,1666 5928,1672 5933,1677 C 5938,1683 5944,1685 5951,1685 C 5961,1685 5972,1681 5984,1672 C 6011,1650 6040,1617 6070,1571 L 6094,1596 C 6044,1667 5997,1716 5955,1744 C 5924,1764 5895,1774 5867,1774 C 5847,1774 5830,1767 5816,1753 C 5803,1740 5796,1724 5796,1706 C 5796,1687 5805,1648 5822,1589 L 6036,847 C 6053,786 6062,751 6062,742 C 6062,730 6057,719 6047,711 C 6037,703 6021,699 6000,699 C 5988,699 5970,701 5945,705 L 5945,675 L 6216,630 Z "  />
<path style="fill:#000000;fill-opacity:1.00;fill-rule:nonzero;stroke:none"  d="M 674,630 L 404,1571 C 391,1618 384,1647 384,1658 C 384,1666 386,1672 391,1677 C 396,1683 403,1685 410,1685 C 420,1685 431,1681 442,1672 C 470,1650 499,1617 529,1571 L 552,1596 C 502,1667 456,1716 414,1744 C 383,1764 353,1774 325,1774 C 305,1774 289,1767 275,1753 C 262,1740 255,1724 255,1706 C 255,1687 263,1648 280,1589 L 495,847 C 512,786 521,751 521,742 C 521,730 516,719 506,711 C 496,703 480,699 459,699 C 447,699 429,701 404,705 L 404,675 L 674,630 Z "  />
<path style="fill:#000000;fill-opacity:1.00;fill-rule:nonzero;stroke:none"  d="M 3288,1163 C 3340,1111 3371,1080 3381,1072 C 3405,1052 3430,1037 3458,1026 C 3485,1015 3512,1009 3539,1009 C 3584,1009 3623,1022 3656,1049 C 3689,1075 3711,1113 3722,1163 C 3776,1100 3822,1058 3859,1039 C 3897,1019 3935,1009 3975,1009 C 4013,1009 4048,1019 4077,1039 C 4107,1058 4131,1091 4148,1136 C 4160,1166 4166,1214 4166,1280 L 4166,1591 C 4166,1637 4169,1668 4176,1685 C 4181,1696 4191,1706 4205,1714 C 4219,1722 4243,1727 4275,1727 L 4275,1755 L 3917,1755 L 3917,1727 L 3932,1727 C 3963,1727 3988,1720 4005,1708 C 4017,1700 4026,1686 4031,1668 C 4033,1659 4034,1633 4034,1591 L 4034,1280 C 4034,1221 4027,1179 4013,1155 C 3992,1121 3959,1104 3914,1104 C 3886,1104 3858,1111 3830,1125 C 3802,1139 3767,1165 3727,1203 L 3726,1212 L 3727,1246 L 3727,1591 C 3727,1641 3730,1672 3736,1684 C 3741,1696 3752,1706 3767,1714 C 3782,1722 3808,1727 3845,1727 L 3845,1755 L 3479,1755 L 3479,1727 C 3519,1727 3547,1722 3562,1712 C 3577,1703 3587,1689 3593,1670 C 3596,1661 3597,1634 3597,1591 L 3597,1280 C 3597,1221 3588,1178 3571,1152 C 3548,1118 3515,1102 3473,1102 C 3445,1102 3417,1109 3389,1125 C 3345,1148 3311,1174 3288,1203 L 3288,1591 C 3288,1639 3291,1670 3297,1684 C 3304,1698 3314,1709 3327,1716 C 3340,1723 3366,1727 3405,1727 L 3405,1755 L 3047,1755 L 3047,1727 C 3080,1727 3104,1723 3117,1716 C 3130,1709 3140,1697 3147,1682 C 3154,1666 3157,1636 3157,1591 L 3157,1314 C 3157,1235 3155,1183 3150,1160 C 3146,1143 3140,1131 3133,1124 C 3125,1118 3114,1114 3100,1114 C 3085,1114 3068,1118 3047,1126 L 3035,1098 L 3254,1009 L 3288,1009 L 3288,1163 Z M 4517,630 C 4539,630 4558,638 4573,653 C 4589,669 4597,688 4597,710 C 4597,732 4589,751 4573,767 C 4558,783 4539,791 4517,791 C 4495,791 4476,783 4460,767 C 4444,751 4436,732 4436,710 C 4436,688 4444,669 4459,653 C 4475,638 4494,630 4517,630 M 4582,1009 L 4582,1591 C 4582,1637 4586,1667 4592,1682 C 4599,1697 4609,1708 4622,1715 C 4635,1723 4658,1727 4692,1727 L 4692,1755 L 4340,1755 L 4340,1727 C 4376,1727 4399,1723 4412,1716 C 4424,1709 4433,1698 4440,1682 C 4448,1666 4451,1636 4451,1591 L 4451,1312 C 4451,1233 4449,1183 4444,1159 C 4440,1142 4435,1131 4427,1124 C 4419,1118 4408,1114 4394,1114 C 4379,1114 4361,1118 4340,1126 L 4329,1098 L 4548,1009 L 4582,1009 Z M 4994,1163 C 5079,1060 5160,1009 5237,1009 C 5276,1009 5310,1019 5339,1039 C 5367,1058 5390,1091 5407,1136 C 5418,1168 5424,1217 5424,1282 L 5424,1591 C 5424,1637 5428,1668 5435,1685 C 5441,1698 5450,1708 5463,1715 C 5476,1723 5500,1727 5535,1727 L 5535,1755 L 5177,1755 L 5177,1727 L 5192,1727 C 5225,1727 5249,1721 5262,1711 C 5276,1701 5285,1686 5290,1666 C 5293,1658 5294,1633 5294,1591 L 5294,1295 C 5294,1229 5285,1181 5268,1151 C 5251,1121 5222,1106 5181,1106 C 5118,1106 5056,1141 4994,1209 L 4994,1591 C 4994,1640 4997,1671 5002,1682 C 5010,1698 5020,1709 5033,1716 C 5046,1723 5072,1727 5112,1727 L 5112,1755 L 4753,1755 L 4753,1727 L 4769,1727 C 4806,1727 4831,1717 4844,1698 C 4857,1680 4863,1644 4863,1591 L 4863,1322 C 4863,1235 4861,1182 4857,1163 C 4853,1144 4847,1131 4839,1125 C 4831,1118 4820,1114 4806,1114 C 4792,1114 4774,1118 4753,1126 L 4741,1098 L 4960,1009 L 4994,1009 L 4994,1163 Z "  />
<path style="fill:#000000;fill-opacity:1.00;fill-rule:nonzero;stroke:none"  d="M 885,1678 C 884,1657 880,1636 872,1615 C 862,1585 856,1564 856,1553 C 856,1537 860,1525 868,1516 C 875,1508 885,1504 896,1504 C 905,1504 914,1508 921,1516 C 928,1525 931,1536 931,1552 C 931,1566 927,1585 919,1610 C 911,1634 906,1657 904,1678 C 921,1667 936,1654 950,1639 C 971,1615 986,1600 996,1594 C 1006,1588 1017,1585 1027,1585 C 1037,1585 1046,1588 1053,1595 C 1060,1602 1063,1611 1063,1620 C 1063,1631 1058,1642 1048,1651 C 1038,1659 1012,1668 972,1677 C 948,1683 928,1689 913,1695 C 929,1704 948,1710 971,1714 C 1009,1721 1033,1729 1044,1740 C 1056,1750 1062,1761 1062,1773 C 1062,1782 1058,1790 1051,1797 C 1044,1804 1036,1807 1027,1807 C 1018,1807 1008,1804 996,1797 C 985,1791 970,1776 951,1754 C 938,1739 923,1725 904,1711 C 905,1729 908,1748 915,1769 C 926,1805 931,1830 931,1843 C 931,1855 928,1866 920,1874 C 913,1883 905,1887 897,1887 C 885,1887 875,1882 866,1873 C 859,1867 856,1857 856,1843 C 856,1828 860,1810 867,1789 C 874,1768 878,1754 880,1746 C 882,1738 884,1727 885,1711 C 867,1723 851,1737 838,1752 C 815,1777 798,1793 787,1800 C 779,1805 770,1807 762,1807 C 751,1807 742,1803 735,1796 C 728,1789 724,1781 724,1773 C 724,1765 727,1757 733,1749 C 740,1740 749,1733 762,1728 C 770,1724 789,1719 819,1713 C 838,1709 856,1703 874,1695 C 858,1687 838,1681 815,1676 C 777,1668 754,1661 745,1654 C 731,1644 724,1632 724,1617 C 724,1609 727,1601 734,1594 C 741,1588 749,1584 759,1584 C 769,1584 780,1587 791,1594 C 802,1600 816,1613 833,1633 C 850,1652 868,1667 885,1678 "  />
<path style="fill:#000000;fill-opacity:1.00;fill-rule:nonzero;stroke:none"  d="M 1745,1155 L 2576,1155 L 2576,1231 L 1745,1231 L 1745,1155 Z M 1745,1450 L 2576,1450 L 2576,1528 L 1745,1528 L 1745,1450 Z "  />
</svg>