<svg width="19px" height="24px" viewBox="0 0 1900 2400" version="1.1" xmlns="http://www.w3.org/2000/svg" xmlns:xlink="http://www.w3.org/1999/xlink">
<path style="fill:#000000;fill-opacity:1.00;fill-rule:nonzero;stroke:none"  d="M 1490,1407 C 1502,1407 1513,1411 1522,1420 C 1531,1429 1535,1439 1535,1452 C 1535,1465 1531,1475 1522,1484 C 1513,1493 1502,1498 1490,1498 C 1477,1498 1466,1493 1457,1484 C 1448,1475 1444,1465 1444,1452 C 1444,1439 1448,1429 1457,1420 C 1466,1411 1477,1407 1490,1407 M 1495,1588 L 1405,1907 C 1399,1929 1396,1942 1396,1946 C 1396,1951 1398,1955 1400,1958 C 1403,1961 1407,1962 1411,1962 C 1415,1962 1421,1960 1427,1955 C 1444,1941 1462,1922 1480,1897 L 1495,1907 C 1475,1939 1451,1965 1423,1987 C 1402,2003 1382,2011 1363,2011 C 1351,2011 1341,2007 1333,2000 C 1325,1992 1321,1983 1321,1972 C 1321,1960 1325,1942 1332,1916 L 1392,1711 C 1401,1678 1406,1657 1406,1649 C 1406,1642 1404,1636 1399,1632 C 1394,1628 1388,1626 1380,1626 C 1373,1626 1359,1627 1338,1631 L 1338,1613 L 1495,1588 Z "  />
<path style="fill:#000000;fill-opacity:1.00;fill-rule:nonzero;stroke:none"  d="M 534,570 L 545,541 L 923,541 C 986,541 1043,551 1093,570 C 1142,590 1180,618 1204,653 C 1229,689 1241,726 1241,766 C 1241,827 1219,882 1175,931 C 1131,980 1060,1016 960,1040 C 1024,1064 1071,1096 1102,1135 C 1132,1175 1147,1218 1147,1266 C 1147,1318 1133,1368 1106,1416 C 1079,1464 1044,1502 1002,1528 C 959,1555 908,1574 848,1587 C 806,1596 739,1600 648,1600 L 260,1600 L 270,1571 C 311,1570 339,1566 353,1559 C 374,1551 389,1539 398,1524 C 410,1504 427,1459 448,1388 L 637,747 C 654,693 662,655 662,633 C 662,614 655,598 640,587 C 626,576 599,570 559,570 C 550,570 541,570 534,570 M 692,1009 C 726,1010 751,1011 766,1011 C 874,1011 955,987 1007,940 C 1060,893 1087,834 1087,763 C 1087,710 1071,668 1038,638 C 1006,608 954,593 884,593 C 865,593 841,596 812,602 L 692,1009 Z M 538,1531 C 595,1539 639,1542 670,1542 C 752,1542 824,1518 886,1469 C 949,1420 980,1353 980,1270 C 980,1205 961,1155 922,1120 C 883,1084 821,1066 734,1066 C 718,1066 697,1066 673,1068 L 538,1531 Z "  />
</svg>