<svg width="244px" height="47px" viewBox="0 0 24400 4700" version="1.1" xmlns="http://www.w3.org/2000/svg" xmlns:xlink="http://www.w3.org/1999/xlink">
<path style="fill:none;stroke:#000000;stroke-width:66px;stroke-opacity:1.00;"  d="M 6108,2283 L 7075,2283 "  />
<path style="fill:#000000;fill-opacity:1.00;fill-rule:nonzero;stroke:none"  d="M 8913,3300 L 7363,3300 L 7363,3257 L 8153,2277 L 7363,1312 L 7363,1269 L 8872,1269 L 8904,1666 L 8856,1666 C 8844,1558 8813,1480 8765,1434 C 8716,1388 8649,1364 8562,1364 L 7689,1364 L 8352,2175 L 7610,3092 L 8575,3092 C 8630,3092 8691,3082 8756,3060 C 8801,3045 8838,3019 8868,2981 C 8897,2943 8922,2883 8941,2802 L 8989,2810 L 8913,3300 Z "  />
<path style="fill:#000000;fill-opacity:1.00;fill-rule:nonzero;stroke:none"  d="M 10796,3300 L 9247,3300 L 9247,3257 L 10036,2277 L 9247,1312 L 9247,1269 L 10755,1269 L 10787,1666 L 10740,1666 C 10727,1558 10697,1480 10648,1434 C 10600,1388 10532,1364 10446,1364 L 9572,1364 L 10236,2175 L 9493,3092 L 10459,3092 C 10514,3092 10574,3082 10639,3060 C 10684,3045 10721,3019 10751,2981 C 10780,2943 10805,2883 10825,2802 L 10872,2810 L 10796,3300 Z "  />
<path style="fill:#000000;fill-opacity:1.00;fill-rule:nonzero;stroke:none"  d="M 8021,785 L 8503,785 L 8503,830 L 8021,830 L 8021,785 Z "  />
<path style="fill:#000000;fill-opacity:1.00;fill-rule:nonzero;stroke:none"  d="M 7834,3877 L 8316,3877 L 8316,3922 L 7834,3922 L 7834,3877 Z M 7834,4049 L 8316,4049 L 8316,4094 L 7834,4094 L 7834,4049 Z "  />
<path style="fill:#000000;fill-opacity:1.00;fill-rule:nonzero;stroke:none"  d="M 9904,785 L 10386,785 L 10386,830 L 9904,830 L 9904,785 Z "  />
<path style="fill:#000000;fill-opacity:1.00;fill-rule:nonzero;stroke:none"  d="M 9825,3877 L 10307,3877 L 10307,3922 L 9825,3922 L 9825,3877 Z M 9825,4049 L 10307,4049 L 10307,4094 L 9825,4094 L 9825,4049 Z "  />
<path style="fill:#000000;fill-opacity:1.00;fill-rule:nonzero;stroke:none"  d="M 20005,2273 C 20005,2298 19996,2318 19979,2335 C 19962,2352 19942,2361 19918,2361 C 19894,2361 19873,2352 19856,2335 C 19839,2318 19831,2298 19831,2273 C 19831,2249 19839,2229 19856,2212 C 19873,2195 19894,2186 19918,2186 C 19942,2186 19962,2195 19979,2212 C 19996,2229 20005,2249 20005,2273 "  />
<path style="fill:#000000;fill-opacity:1.00;fill-rule:nonzero;stroke:none"  d="M 15246,2273 C 15246,2298 15238,2318 15221,2335 C 15204,2352 15183,2361 15160,2361 C 15136,2361 15115,2352 15098,2335 C 15081,2318 15072,2298 15072,2273 C 15072,2249 15081,2229 15098,2212 C 15115,2195 15136,2186 15160,2186 C 15183,2186 15204,2195 15221,2212 C 15238,2229 15246,2249 15246,2273 "  />
<path style="fill:#000000;fill-opacity:1.00;fill-rule:nonzero;stroke:none"  d="M 4854,2089 L 5680,2089 L 5680,2165 L 4854,2165 L 4854,2089 Z M 4854,2382 L 5680,2382 L 5680,2460 L 4854,2460 L 4854,2382 Z "  />
<path style="fill:#000000;fill-opacity:1.00;fill-rule:nonzero;stroke:none"  d="M 8568,488 L 8720,414 L 8735,414 L 8735,939 C 8735,974 8737,996 8739,1005 C 8742,1013 8748,1020 8758,1024 C 8767,1029 8785,1032 8814,1032 L 8814,1049 L 8580,1049 L 8580,1032 C 8609,1032 8628,1029 8636,1025 C 8645,1020 8651,1014 8654,1007 C 8658,999 8659,977 8659,939 L 8659,603 C 8659,558 8658,529 8655,516 C 8653,506 8649,499 8643,495 C 8637,490 8631,488 8623,488 C 8611,488 8596,492 8575,502 L 8568,488 Z "  />
<path style="fill:#000000;fill-opacity:1.00;fill-rule:nonzero;stroke:none"  d="M 8392,3918 C 8392,3847 8403,3786 8424,3735 C 8446,3684 8474,3645 8510,3620 C 8537,3600 8566,3591 8595,3591 C 8643,3591 8686,3615 8724,3664 C 8771,3724 8795,3805 8795,3909 C 8795,3981 8784,4042 8764,4093 C 8743,4143 8716,4180 8684,4203 C 8652,4225 8621,4237 8591,4237 C 8531,4237 8482,4202 8442,4132 C 8409,4073 8392,4001 8392,3918 M 8482,3930 C 8482,4015 8493,4085 8514,4140 C 8531,4185 8557,4208 8592,4208 C 8608,4208 8626,4200 8643,4186 C 8661,4171 8675,4146 8684,4111 C 8698,4058 8705,3984 8705,3888 C 8705,3817 8698,3758 8683,3711 C 8672,3676 8658,3651 8640,3636 C 8628,3626 8612,3621 8595,3621 C 8574,3621 8555,3630 8539,3649 C 8517,3674 8502,3714 8494,3769 C 8486,3823 8482,3877 8482,3930 "  />
<path style="fill:#000000;fill-opacity:1.00;fill-rule:nonzero;stroke:none"  d="M 10452,488 L 10603,414 L 10618,414 L 10618,939 C 10618,974 10620,996 10623,1005 C 10626,1013 10632,1020 10641,1024 C 10650,1029 10669,1032 10697,1032 L 10697,1049 L 10463,1049 L 10463,1032 C 10492,1032 10511,1029 10520,1025 C 10528,1020 10534,1014 10538,1007 C 10541,999 10543,977 10543,939 L 10543,603 C 10543,558 10541,529 10538,516 C 10536,506 10532,499 10526,495 C 10521,490 10514,488 10506,488 C 10495,488 10479,492 10459,502 L 10452,488 Z "  />
<path style="fill:#000000;fill-opacity:1.00;fill-rule:nonzero;stroke:none"  d="M 10384,3918 C 10384,3847 10395,3786 10416,3735 C 10438,3684 10466,3645 10501,3620 C 10529,3600 10557,3591 10587,3591 C 10635,3591 10677,3615 10715,3664 C 10763,3724 10787,3805 10787,3909 C 10787,3981 10776,4042 10755,4093 C 10735,4143 10708,4180 10676,4203 C 10643,4225 10612,4237 10582,4237 C 10523,4237 10473,4202 10434,4132 C 10401,4073 10384,4001 10384,3918 M 10474,3930 C 10474,4015 10484,4085 10506,4140 C 10523,4185 10549,4208 10584,4208 C 10600,4208 10617,4200 10635,4186 C 10653,4171 10666,4146 10675,4111 C 10690,4058 10697,3984 10697,3888 C 10697,3817 10689,3758 10675,3711 C 10664,3676 10649,3651 10632,3636 C 10619,3626 10604,3621 10586,3621 C 10566,3621 10547,3630 10531,3649 C 10509,3674 10494,3714 10486,3769 C 10478,3823 10474,3877 10474,3930 "  />
<path style="fill:#000000;fill-opacity:1.00;fill-rule:nonzero;stroke:none"  d="M 23690,1600 L 23690,1567 C 23770,1606 23836,1653 23889,1706 C 23964,1783 24022,1873 24063,1976 C 24104,2079 24125,2186 24125,2298 C 24125,2460 24085,2609 24005,2743 C 23925,2877 23820,2973 23690,3030 L 23690,3001 C 23755,2965 23808,2916 23850,2854 C 23891,2793 23922,2714 23943,2619 C 23963,2524 23973,2425 23973,2321 C 23973,2210 23964,2108 23947,2015 C 23934,1943 23917,1885 23898,1842 C 23878,1798 23852,1756 23819,1716 C 23787,1675 23744,1637 23690,1600 "  />
<path style="fill:#000000;fill-opacity:1.00;fill-rule:nonzero;stroke:none"  d="M 22341,2954 L 22341,2919 C 22395,2902 22437,2874 22466,2836 C 22496,2799 22511,2759 22511,2717 C 22511,2707 22508,2699 22504,2692 C 22500,2687 22496,2685 22493,2685 C 22487,2685 22474,2690 22455,2701 C 22445,2705 22435,2708 22425,2708 C 22399,2708 22379,2700 22364,2685 C 22348,2670 22341,2649 22341,2622 C 22341,2596 22351,2574 22370,2556 C 22390,2538 22414,2528 22442,2528 C 22477,2528 22508,2543 22535,2574 C 22562,2604 22575,2644 22575,2694 C 22575,2748 22556,2798 22519,2844 C 22481,2891 22422,2927 22341,2954 "  />
<path style="fill:#000000;fill-opacity:1.00;fill-rule:nonzero;stroke:none"  d="M 21755,3001 L 21755,3030 C 21675,2990 21609,2944 21556,2890 C 21481,2814 21423,2725 21382,2621 C 21341,2518 21320,2411 21320,2299 C 21320,2137 21360,1989 21441,1854 C 21521,1720 21626,1625 21755,1567 L 21755,1600 C 21690,1636 21637,1684 21596,1746 C 21554,1808 21523,1887 21503,1982 C 21482,2076 21472,2176 21472,2279 C 21472,2391 21481,2493 21498,2585 C 21512,2657 21528,2715 21548,2759 C 21567,2803 21593,2845 21626,2886 C 21659,2926 21702,2964 21755,3001 "  />
<path style="fill:#000000;fill-opacity:1.00;fill-rule:nonzero;stroke:none"  d="M 19011,1600 L 19011,1567 C 19091,1606 19157,1653 19210,1706 C 19285,1783 19343,1873 19384,1976 C 19425,2079 19445,2186 19445,2298 C 19445,2460 19405,2609 19326,2743 C 19246,2877 19141,2973 19011,3030 L 19011,3001 C 19076,2965 19129,2916 19171,2854 C 19212,2793 19243,2714 19263,2619 C 19284,2524 19294,2425 19294,2321 C 19294,2210 19285,2108 19268,2015 C 19255,1943 19238,1885 19219,1842 C 19199,1798 19173,1756 19140,1716 C 19108,1675 19065,1637 19011,1600 "  />
<path style="fill:#000000;fill-opacity:1.00;fill-rule:nonzero;stroke:none"  d="M 17762,2954 L 17762,2919 C 17816,2902 17857,2874 17887,2836 C 17917,2799 17931,2759 17931,2717 C 17931,2707 17929,2699 17924,2692 C 17921,2687 17917,2685 17913,2685 C 17908,2685 17895,2690 17876,2701 C 17866,2705 17856,2708 17846,2708 C 17820,2708 17800,2700 17784,2685 C 17769,2670 17762,2649 17762,2622 C 17762,2596 17771,2574 17791,2556 C 17811,2538 17835,2528 17863,2528 C 17898,2528 17928,2543 17955,2574 C 17982,2604 17996,2644 17996,2694 C 17996,2748 17977,2798 17940,2844 C 17902,2891 17843,2927 17762,2954 "  />
<path style="fill:#000000;fill-opacity:1.00;fill-rule:nonzero;stroke:none"  d="M 16800,3001 L 16800,3030 C 16721,2990 16655,2944 16602,2890 C 16527,2814 16468,2725 16427,2621 C 16387,2518 16366,2411 16366,2299 C 16366,2137 16406,1989 16486,1854 C 16567,1720 16671,1625 16800,1567 L 16800,1600 C 16736,1636 16683,1684 16641,1746 C 16600,1808 16569,1887 16549,1982 C 16528,2076 16518,2176 16518,2279 C 16518,2391 16527,2493 16544,2585 C 16558,2657 16574,2715 16593,2759 C 16613,2803 16639,2845 16672,2886 C 16705,2926 16747,2964 16800,3001 "  />
<path style="fill:#000000;fill-opacity:1.00;fill-rule:nonzero;stroke:none"  d="M 14253,1600 L 14253,1567 C 14333,1606 14399,1653 14452,1706 C 14527,1783 14585,1873 14626,1976 C 14667,2079 14687,2186 14687,2298 C 14687,2460 14647,2609 14567,2743 C 14487,2877 14382,2973 14253,3030 L 14253,3001 C 14317,2965 14370,2916 14412,2854 C 14454,2793 14485,2714 14505,2619 C 14525,2524 14535,2425 14535,2321 C 14535,2210 14527,2108 14509,2015 C 14496,1943 14480,1885 14460,1842 C 14441,1798 14414,1756 14382,1716 C 14349,1675 14306,1637 14253,1600 "  />
<path style="fill:#000000;fill-opacity:1.00;fill-rule:nonzero;stroke:none"  d="M 12903,2954 L 12903,2919 C 12957,2902 12999,2874 13029,2836 C 13058,2799 13073,2759 13073,2717 C 13073,2707 13071,2699 13066,2692 C 13062,2687 13059,2685 13055,2685 C 13049,2685 13037,2690 13017,2701 C 13008,2705 12998,2708 12987,2708 C 12962,2708 12941,2700 12926,2685 C 12911,2670 12903,2649 12903,2622 C 12903,2596 12913,2574 12933,2556 C 12952,2538 12976,2528 13005,2528 C 13039,2528 13070,2543 13097,2574 C 13124,2604 13138,2644 13138,2694 C 13138,2748 13119,2798 13081,2844 C 13044,2891 12985,2927 12903,2954 "  />
<path style="fill:#000000;fill-opacity:1.00;fill-rule:nonzero;stroke:none"  d="M 12317,3001 L 12317,3030 C 12238,2990 12172,2944 12119,2890 C 12043,2814 11985,2725 11944,2621 C 11903,2518 11883,2411 11883,2299 C 11883,2137 11923,1989 12003,1854 C 12083,1720 12188,1625 12317,1567 L 12317,1600 C 12253,1636 12200,1684 12158,1746 C 12117,1808 12086,1887 12065,1982 C 12045,2076 12035,2176 12035,2279 C 12035,2391 12043,2493 12061,2585 C 12074,2657 12091,2715 12110,2759 C 12130,2803 12156,2845 12188,2886 C 12221,2926 12264,2964 12317,3001 "  />
<path style="fill:#000000;fill-opacity:1.00;fill-rule:nonzero;stroke:none"  d="M 6966,3547 L 6966,3659 L 6823,3659 L 6823,3940 L 6693,3940 L 6693,3659 L 6242,3659 L 6242,3558 L 6737,2852 L 6823,2852 L 6823,3547 L 6966,3547 Z M 6693,3547 L 6693,3018 L 6319,3547 L 6693,3547 Z "  />
<path style="fill:#000000;fill-opacity:1.00;fill-rule:nonzero;stroke:none"  d="M 6380,712 L 6640,585 L 6666,585 L 6666,1486 C 6666,1546 6669,1583 6674,1598 C 6679,1613 6689,1624 6705,1632 C 6720,1640 6752,1644 6801,1645 L 6801,1674 L 6399,1674 L 6399,1645 C 6450,1644 6482,1640 6497,1632 C 6512,1625 6522,1614 6528,1602 C 6533,1589 6536,1550 6536,1486 L 6536,910 C 6536,833 6534,783 6528,761 C 6525,744 6518,732 6508,724 C 6499,716 6487,712 6473,712 C 6454,712 6427,720 6392,737 L 6380,712 Z "  />
<path style="fill:#000000;fill-opacity:1.00;fill-rule:nonzero;stroke:none"  d="M 3953,1600 L 3953,1567 C 4033,1606 4099,1653 4152,1706 C 4227,1783 4285,1873 4326,1976 C 4367,2079 4387,2186 4387,2298 C 4387,2460 4347,2609 4267,2743 C 4187,2877 4082,2973 3953,3030 L 3953,3001 C 4017,2965 4070,2916 4112,2854 C 4154,2793 4185,2714 4205,2619 C 4225,2524 4235,2425 4235,2321 C 4235,2210 4227,2108 4209,2015 C 4196,1943 4180,1885 4160,1842 C 4141,1798 4114,1756 4082,1716 C 4049,1675 4006,1637 3953,1600 "  />
<path style="fill:#000000;fill-opacity:1.00;fill-rule:nonzero;stroke:none"  d="M 2703,2954 L 2703,2919 C 2757,2902 2799,2874 2829,2836 C 2858,2799 2873,2759 2873,2717 C 2873,2707 2871,2699 2866,2692 C 2862,2687 2859,2685 2855,2685 C 2849,2685 2837,2690 2817,2701 C 2808,2705 2798,2708 2787,2708 C 2762,2708 2741,2700 2726,2685 C 2711,2670 2703,2649 2703,2622 C 2703,2596 2713,2574 2733,2556 C 2752,2538 2776,2528 2805,2528 C 2839,2528 2870,2543 2897,2574 C 2924,2604 2938,2644 2938,2694 C 2938,2748 2919,2798 2881,2844 C 2844,2891 2785,2927 2703,2954 "  />
<path style="fill:#000000;fill-opacity:1.00;fill-rule:nonzero;stroke:none"  d="M 1742,3001 L 1742,3030 C 1663,2990 1597,2944 1544,2890 C 1468,2814 1410,2725 1369,2621 C 1328,2518 1308,2411 1308,2299 C 1308,2137 1348,1989 1428,1854 C 1508,1720 1613,1625 1742,1567 L 1742,1600 C 1678,1636 1625,1684 1583,1746 C 1542,1808 1511,1887 1490,1982 C 1470,2076 1460,2176 1460,2279 C 1460,2391 1468,2493 1486,2585 C 1499,2657 1516,2715 1535,2759 C 1555,2803 1581,2845 1613,2886 C 1646,2926 1689,2964 1742,3001 "  />
<path style="fill:#000000;fill-opacity:1.00;fill-rule:nonzero;stroke:none"  d="M 7699,634 L 7638,843 C 7695,757 7739,701 7770,674 C 7800,647 7829,634 7858,634 C 7873,634 7885,639 7895,649 C 7905,659 7910,672 7910,688 C 7910,707 7906,731 7897,762 L 7841,955 C 7835,977 7831,991 7831,996 C 7831,1000 7833,1004 7835,1007 C 7837,1010 7840,1011 7843,1011 C 7846,1011 7851,1009 7856,1005 C 7872,992 7890,973 7909,946 L 7924,955 C 7895,996 7868,1025 7843,1042 C 7825,1054 7809,1060 7795,1060 C 7784,1060 7775,1057 7768,1050 C 7761,1043 7758,1034 7758,1022 C 7758,1007 7763,982 7774,946 L 7827,762 C 7833,739 7837,721 7837,708 C 7837,702 7835,697 7831,693 C 7827,689 7822,687 7816,687 C 7808,687 7797,691 7785,698 C 7763,712 7739,735 7715,767 C 7690,798 7664,839 7637,888 C 7623,914 7611,942 7601,973 L 7578,1049 L 7510,1049 L 7593,762 C 7603,727 7608,706 7608,699 C 7608,693 7605,687 7600,682 C 7594,677 7588,674 7580,674 C 7576,674 7570,675 7561,676 L 7543,679 L 7540,662 L 7699,634 Z "  />
<path style="fill:#000000;fill-opacity:1.00;fill-rule:nonzero;stroke:none"  d="M 7702,3628 C 7715,3628 7726,3633 7734,3641 C 7743,3650 7748,3661 7748,3674 C 7748,3687 7743,3697 7734,3706 C 7725,3715 7714,3720 7702,3720 C 7689,3720 7679,3715 7670,3706 C 7661,3697 7656,3687 7656,3674 C 7656,3661 7660,3650 7669,3641 C 7678,3633 7689,3628 7702,3628 M 7708,3810 L 7617,4132 C 7611,4154 7608,4167 7608,4171 C 7608,4176 7609,4180 7612,4183 C 7615,4186 7619,4188 7622,4188 C 7627,4188 7633,4185 7639,4180 C 7656,4167 7674,4147 7692,4122 L 7708,4132 C 7687,4164 7663,4191 7634,4212 C 7614,4229 7594,4237 7575,4237 C 7562,4237 7552,4233 7544,4226 C 7536,4218 7532,4209 7532,4197 C 7532,4186 7536,4167 7544,4141 L 7603,3935 C 7613,3902 7618,3880 7618,3872 C 7618,3865 7616,3860 7611,3855 C 7606,3851 7600,3849 7591,3849 C 7585,3849 7571,3851 7550,3854 L 7550,3836 L 7708,3810 Z "  />
<path style="fill:#000000;fill-opacity:1.00;fill-rule:nonzero;stroke:none"  d="M 9582,634 L 9521,843 C 9579,757 9622,701 9653,674 C 9683,647 9713,634 9741,634 C 9756,634 9769,639 9779,649 C 9789,659 9794,672 9794,688 C 9794,707 9789,731 9780,762 L 9724,955 C 9718,977 9715,991 9715,996 C 9715,1000 9716,1004 9718,1007 C 9721,1010 9723,1011 9726,1011 C 9730,1011 9734,1009 9739,1005 C 9756,992 9773,973 9793,946 L 9807,955 C 9778,996 9752,1025 9726,1042 C 9708,1054 9692,1060 9678,1060 C 9667,1060 9658,1057 9651,1050 C 9645,1043 9641,1034 9641,1022 C 9641,1007 9646,982 9657,946 L 9710,762 C 9717,739 9720,721 9720,708 C 9720,702 9718,697 9714,693 C 9710,689 9705,687 9700,687 C 9691,687 9681,691 9669,698 C 9646,712 9623,735 9598,767 C 9574,798 9548,839 9521,888 C 9506,914 9494,942 9485,973 L 9462,1049 L 9393,1049 L 9476,762 C 9486,727 9491,706 9491,699 C 9491,693 9488,687 9483,682 C 9478,677 9471,674 9463,674 C 9459,674 9453,675 9444,676 L 9426,679 L 9424,662 L 9582,634 Z "  />
<path style="fill:#000000;fill-opacity:1.00;fill-rule:nonzero;stroke:none"  d="M 9682,3629 C 9695,3629 9706,3633 9715,3642 C 9724,3651 9728,3662 9728,3675 C 9728,3688 9724,3699 9715,3708 C 9706,3717 9695,3721 9682,3721 C 9669,3721 9658,3717 9649,3708 C 9640,3699 9636,3688 9636,3675 C 9636,3662 9640,3651 9649,3642 C 9658,3633 9669,3629 9682,3629 M 9689,3810 L 9570,4221 C 9549,4295 9520,4348 9483,4380 C 9447,4412 9407,4429 9364,4429 C 9345,4429 9330,4424 9320,4415 C 9310,4407 9305,4396 9305,4384 C 9305,4374 9309,4366 9316,4359 C 9324,4351 9332,4348 9342,4348 C 9351,4348 9359,4351 9366,4357 C 9371,4361 9374,4366 9374,4372 C 9374,4380 9370,4387 9362,4393 C 9358,4396 9356,4399 9356,4401 L 9357,4403 C 9358,4405 9359,4406 9361,4406 C 9363,4407 9366,4407 9369,4407 C 9394,4407 9415,4399 9433,4383 C 9451,4368 9466,4336 9480,4289 L 9583,3937 C 9593,3902 9598,3883 9598,3879 C 9598,3872 9595,3865 9588,3860 C 9581,3854 9573,3851 9563,3851 C 9559,3851 9554,3851 9549,3852 C 9545,3853 9539,3854 9532,3855 L 9532,3839 L 9689,3810 Z "  />
<path style="fill:#000000;fill-opacity:1.00;fill-rule:nonzero;stroke:none"  d="M 23498,1662 C 23520,1662 23539,1670 23554,1685 C 23570,1701 23578,1720 23578,1742 C 23578,1764 23570,1782 23554,1798 C 23539,1813 23520,1821 23498,1821 C 23476,1821 23457,1813 23442,1798 C 23426,1782 23419,1764 23419,1742 C 23419,1720 23426,1701 23442,1685 C 23457,1670 23476,1662 23498,1662 M 23511,1974 L 23307,2678 C 23271,2804 23221,2894 23158,2950 C 23095,3006 23026,3033 22953,3033 C 22920,3033 22895,3026 22878,3011 C 22861,2995 22852,2977 22852,2956 C 22852,2940 22859,2926 22871,2913 C 22884,2901 22899,2895 22916,2895 C 22931,2895 22945,2900 22956,2910 C 22966,2918 22970,2927 22970,2937 C 22970,2950 22964,2962 22951,2972 C 22943,2978 22940,2983 22940,2986 L 22941,2990 C 22943,2992 22945,2994 22948,2995 C 22951,2996 22956,2996 22962,2996 C 23005,2996 23041,2983 23071,2956 C 23101,2929 23128,2875 23152,2794 L 23328,2190 C 23346,2131 23354,2098 23354,2092 C 23354,2079 23349,2068 23337,2058 C 23326,2048 23312,2043 23294,2043 C 23288,2043 23280,2044 23271,2045 C 23264,2046 23254,2048 23241,2050 L 23241,2022 L 23511,1974 Z "  />
<path style="fill:#000000;fill-opacity:1.00;fill-rule:nonzero;stroke:none"  d="M 22140,1661 C 22162,1661 22180,1669 22195,1684 C 22211,1699 22218,1718 22218,1740 C 22218,1762 22210,1780 22195,1795 C 22180,1811 22161,1819 22140,1819 C 22118,1819 22100,1811 22084,1795 C 22069,1780 22061,1762 22061,1740 C 22061,1718 22068,1699 22084,1684 C 22099,1669 22117,1661 22140,1661 M 22150,1974 L 21994,2525 C 21983,2562 21978,2585 21978,2592 C 21978,2600 21981,2607 21986,2613 C 21991,2618 21997,2620 22003,2620 C 22011,2620 22021,2616 22032,2608 C 22062,2584 22092,2551 22122,2507 L 22150,2525 C 22114,2580 22072,2626 22024,2663 C 21988,2691 21954,2705 21922,2705 C 21900,2705 21882,2698 21869,2685 C 21855,2672 21848,2656 21848,2637 C 21848,2618 21855,2585 21868,2540 L 21970,2188 C 21987,2130 21996,2094 21996,2079 C 21996,2068 21991,2058 21983,2051 C 21975,2043 21964,2040 21950,2040 C 21938,2040 21914,2043 21878,2048 L 21878,2018 L 22150,1974 Z "  />
<path style="fill:#000000;fill-opacity:1.00;fill-rule:nonzero;stroke:none"  d="M 20741,1974 C 20758,2004 20771,2033 20778,2059 C 20784,2086 20791,2138 20798,2215 L 20833,2602 C 20864,2565 20910,2505 20970,2423 C 20998,2383 21034,2329 21077,2260 C 21102,2218 21118,2189 21124,2172 C 21127,2164 21128,2155 21128,2146 C 21128,2140 21127,2135 21123,2132 C 21119,2128 21110,2124 21094,2119 C 21079,2114 21066,2105 21056,2091 C 21045,2078 21040,2063 21040,2045 C 21040,2024 21047,2006 21059,1993 C 21072,1980 21088,1974 21106,1974 C 21130,1974 21149,1983 21165,2002 C 21182,2022 21190,2048 21190,2081 C 21190,2123 21176,2170 21147,2223 C 21119,2277 21064,2358 20984,2469 C 20903,2579 20805,2699 20690,2829 C 20611,2919 20552,2975 20514,2998 C 20476,3022 20443,3033 20416,3033 C 20399,3033 20385,3027 20373,3015 C 20360,3003 20354,2988 20354,2972 C 20354,2952 20363,2933 20380,2916 C 20397,2899 20415,2891 20435,2891 C 20446,2891 20454,2893 20461,2898 C 20466,2901 20470,2908 20475,2921 C 20480,2933 20485,2941 20489,2945 C 20491,2948 20495,2949 20498,2949 C 20501,2949 20507,2947 20515,2941 C 20544,2924 20577,2895 20616,2856 C 20666,2805 20703,2763 20727,2731 L 20683,2232 C 20676,2149 20665,2099 20650,2081 C 20635,2064 20611,2055 20576,2055 C 20565,2055 20545,2056 20517,2059 L 20510,2030 L 20741,1974 Z "  />
<path style="fill:#000000;fill-opacity:1.00;fill-rule:nonzero;stroke:none"  d="M 18260,2022 L 18487,1974 C 18503,2012 18516,2052 18526,2092 C 18540,2152 18552,2222 18561,2303 C 18565,2344 18571,2431 18578,2563 C 18644,2491 18683,2446 18695,2428 C 18765,2335 18805,2279 18815,2263 C 18832,2235 18844,2211 18851,2190 C 18857,2174 18860,2159 18860,2145 C 18860,2132 18848,2116 18823,2098 C 18799,2080 18787,2060 18787,2038 C 18787,2021 18793,2006 18807,1993 C 18820,1980 18836,1974 18854,1974 C 18876,1974 18896,1983 18913,2001 C 18929,2019 18938,2041 18938,2068 C 18938,2095 18934,2121 18925,2145 C 18912,2185 18886,2234 18849,2291 C 18812,2349 18752,2426 18669,2522 C 18658,2534 18600,2595 18494,2705 L 18465,2705 C 18452,2373 18426,2165 18386,2083 C 18373,2056 18351,2043 18321,2043 C 18308,2043 18289,2045 18265,2050 L 18260,2022 Z "  />
<path style="fill:#000000;fill-opacity:1.00;fill-rule:nonzero;stroke:none"  d="M 17544,1662 C 17566,1662 17585,1670 17600,1685 C 17616,1701 17623,1720 17623,1742 C 17623,1764 17616,1782 17600,1798 C 17585,1813 17566,1821 17544,1821 C 17522,1821 17503,1813 17488,1798 C 17472,1782 17465,1764 17465,1742 C 17465,1720 17472,1701 17488,1685 C 17503,1670 17522,1662 17544,1662 M 17557,1974 L 17353,2678 C 17317,2804 17267,2894 17204,2950 C 17141,3006 17072,3033 16999,3033 C 16966,3033 16941,3026 16924,3011 C 16907,2995 16898,2977 16898,2956 C 16898,2940 16904,2926 16917,2913 C 16930,2901 16945,2895 16962,2895 C 16977,2895 16990,2900 17002,2910 C 17011,2918 17016,2927 17016,2937 C 17016,2950 17010,2962 16996,2972 C 16989,2978 16985,2983 16985,2986 L 16987,2990 C 16989,2992 16991,2994 16994,2995 C 16997,2996 17002,2996 17008,2996 C 17051,2996 17087,2983 17117,2956 C 17147,2929 17174,2875 17198,2794 L 17374,2190 C 17391,2131 17400,2098 17400,2092 C 17400,2079 17394,2068 17383,2058 C 17372,2048 17358,2043 17340,2043 C 17333,2043 17326,2044 17317,2045 C 17310,2046 17300,2048 17287,2050 L 17287,2022 L 17557,1974 Z "  />
<path style="fill:#000000;fill-opacity:1.00;fill-rule:nonzero;stroke:none"  d="M 16172,2514 C 16118,2580 16063,2628 16007,2659 C 15952,2689 15893,2705 15831,2705 C 15756,2705 15698,2684 15657,2642 C 15615,2600 15594,2543 15594,2472 C 15594,2392 15616,2313 15661,2236 C 15706,2158 15766,2095 15842,2046 C 15918,1998 15992,1974 16065,1974 C 16123,1974 16165,1986 16194,2009 C 16222,2033 16236,2063 16236,2097 C 16236,2130 16226,2158 16206,2181 C 16191,2198 16173,2207 16152,2207 C 16136,2207 16122,2202 16111,2192 C 16101,2181 16095,2168 16095,2152 C 16095,2142 16097,2133 16101,2125 C 16105,2116 16113,2106 16126,2094 C 16138,2083 16145,2074 16148,2069 C 16151,2064 16152,2058 16152,2052 C 16152,2041 16147,2032 16137,2025 C 16122,2014 16100,2009 16072,2009 C 16021,2009 15970,2027 15920,2063 C 15869,2100 15826,2151 15791,2218 C 15748,2298 15726,2379 15726,2460 C 15726,2513 15741,2556 15772,2587 C 15802,2618 15844,2634 15896,2634 C 15937,2634 15977,2624 16016,2603 C 16056,2583 16100,2547 16150,2494 L 16172,2514 Z "  />
<path style="fill:#000000;fill-opacity:1.00;fill-rule:nonzero;stroke:none"  d="M 14100,1993 L 13963,2461 C 13943,2531 13933,2575 13933,2594 C 13933,2603 13934,2610 13938,2615 C 13941,2619 13946,2621 13951,2621 C 13960,2621 13970,2617 13981,2609 C 13992,2601 14019,2568 14062,2512 L 14086,2530 C 14045,2595 14002,2644 13958,2675 C 13930,2695 13902,2705 13875,2705 C 13855,2705 13839,2699 13827,2687 C 13816,2676 13810,2661 13810,2642 C 13810,2625 13813,2601 13820,2572 C 13828,2533 13852,2448 13892,2318 C 13802,2465 13728,2566 13668,2621 C 13608,2677 13552,2705 13501,2705 C 13476,2705 13456,2696 13439,2679 C 13422,2663 13414,2641 13414,2616 C 13414,2576 13426,2516 13449,2435 L 13517,2192 C 13534,2133 13542,2097 13542,2083 C 13542,2077 13540,2071 13536,2067 C 13531,2062 13526,2060 13521,2060 C 13510,2060 13499,2064 13488,2072 C 13477,2080 13452,2109 13413,2159 L 13389,2142 C 13428,2081 13470,2036 13514,2008 C 13548,1985 13578,1974 13607,1974 C 13626,1974 13642,1980 13654,1992 C 13667,2005 13673,2020 13673,2040 C 13673,2068 13662,2119 13641,2192 L 13567,2446 C 13547,2515 13537,2559 13537,2577 C 13537,2587 13540,2595 13547,2601 C 13553,2607 13562,2610 13573,2610 C 13590,2610 13613,2602 13641,2584 C 13668,2567 13706,2528 13752,2469 C 13798,2409 13837,2354 13867,2301 C 13897,2249 13929,2166 13963,2052 L 13981,1993 L 14100,1993 Z "  />
<path style="fill:#000000;fill-opacity:1.00;fill-rule:nonzero;stroke:none"  d="M 12702,1661 C 12724,1661 12743,1669 12758,1684 C 12773,1699 12781,1718 12781,1740 C 12781,1762 12773,1780 12757,1795 C 12742,1811 12724,1819 12702,1819 C 12681,1819 12662,1811 12647,1795 C 12631,1780 12623,1762 12623,1740 C 12623,1718 12631,1699 12646,1684 C 12661,1669 12680,1661 12702,1661 M 12712,1974 L 12556,2525 C 12546,2562 12541,2585 12541,2592 C 12541,2600 12543,2607 12548,2613 C 12553,2618 12559,2620 12566,2620 C 12574,2620 12583,2616 12594,2608 C 12624,2584 12654,2551 12685,2507 L 12712,2525 C 12677,2580 12635,2626 12586,2663 C 12551,2691 12517,2705 12484,2705 C 12463,2705 12445,2698 12431,2685 C 12418,2672 12411,2656 12411,2637 C 12411,2618 12417,2585 12431,2540 L 12533,2188 C 12550,2130 12558,2094 12558,2079 C 12558,2068 12554,2058 12546,2051 C 12538,2043 12527,2040 12512,2040 C 12501,2040 12477,2043 12441,2048 L 12441,2018 L 12712,1974 Z "  />
<path style="fill:#000000;fill-opacity:1.00;fill-rule:nonzero;stroke:none"  d="M 11689,2514 C 11634,2580 11579,2628 11524,2659 C 11468,2689 11409,2705 11348,2705 C 11273,2705 11215,2684 11173,2642 C 11132,2600 11111,2543 11111,2472 C 11111,2392 11133,2313 11178,2236 C 11223,2158 11283,2095 11359,2046 C 11435,1998 11509,1974 11582,1974 C 11639,1974 11682,1986 11710,2009 C 11739,2033 11753,2063 11753,2097 C 11753,2130 11743,2158 11723,2181 C 11708,2198 11690,2207 11669,2207 C 11652,2207 11639,2202 11628,2192 C 11617,2181 11612,2168 11612,2152 C 11612,2142 11614,2133 11618,2125 C 11622,2116 11630,2106 11642,2094 C 11655,2083 11662,2074 11665,2069 C 11667,2064 11669,2058 11669,2052 C 11669,2041 11664,2032 11654,2025 C 11638,2014 11617,2009 11589,2009 C 11538,2009 11487,2027 11436,2063 C 11386,2100 11343,2151 11307,2218 C 11264,2298 11243,2379 11243,2460 C 11243,2513 11258,2556 11289,2587 C 11319,2618 11360,2634 11413,2634 C 11453,2634 11493,2624 11533,2603 C 11572,2583 11617,2547 11666,2494 L 11689,2514 Z "  />
<path style="fill:#000000;fill-opacity:1.00;fill-rule:nonzero;stroke:none"  d="M 3201,2022 L 3429,1974 C 3445,2012 3458,2052 3468,2092 C 3482,2152 3494,2222 3503,2303 C 3507,2344 3513,2431 3520,2563 C 3585,2491 3625,2446 3637,2428 C 3706,2335 3746,2279 3757,2263 C 3774,2235 3786,2211 3793,2190 C 3799,2174 3802,2159 3802,2145 C 3802,2132 3789,2116 3765,2098 C 3741,2080 3728,2060 3728,2038 C 3728,2021 3735,2006 3748,1993 C 3762,1980 3778,1974 3796,1974 C 3818,1974 3838,1983 3854,2001 C 3871,2019 3879,2041 3879,2068 C 3879,2095 3875,2121 3867,2145 C 3853,2185 3828,2234 3791,2291 C 3753,2349 3693,2426 3610,2522 C 3600,2534 3542,2595 3436,2705 L 3407,2705 C 3394,2373 3368,2165 3328,2083 C 3315,2056 3293,2043 3263,2043 C 3250,2043 3231,2045 3207,2050 L 3201,2022 Z "  />
<path style="fill:#000000;fill-opacity:1.00;fill-rule:nonzero;stroke:none"  d="M 2525,1993 L 2388,2461 C 2368,2531 2358,2575 2358,2594 C 2358,2603 2359,2610 2363,2615 C 2366,2619 2371,2621 2376,2621 C 2385,2621 2395,2617 2406,2609 C 2417,2601 2444,2568 2487,2512 L 2511,2530 C 2470,2595 2427,2644 2383,2675 C 2355,2695 2327,2705 2300,2705 C 2280,2705 2264,2699 2252,2687 C 2241,2676 2235,2661 2235,2642 C 2235,2625 2238,2601 2245,2572 C 2253,2533 2277,2448 2317,2318 C 2227,2465 2153,2566 2093,2621 C 2033,2677 1977,2705 1926,2705 C 1901,2705 1881,2696 1864,2679 C 1847,2663 1839,2641 1839,2616 C 1839,2576 1851,2516 1874,2435 L 1942,2192 C 1959,2133 1967,2097 1967,2083 C 1967,2077 1965,2071 1961,2067 C 1956,2062 1951,2060 1946,2060 C 1935,2060 1924,2064 1913,2072 C 1902,2080 1877,2109 1838,2159 L 1814,2142 C 1853,2081 1895,2036 1939,2008 C 1973,1985 2003,1974 2032,1974 C 2051,1974 2067,1980 2079,1992 C 2092,2005 2098,2020 2098,2040 C 2098,2068 2087,2119 2066,2192 L 1992,2446 C 1972,2515 1962,2559 1962,2577 C 1962,2587 1965,2595 1972,2601 C 1978,2607 1987,2610 1998,2610 C 2015,2610 2038,2602 2066,2584 C 2093,2567 2131,2528 2177,2469 C 2223,2409 2262,2354 2292,2301 C 2322,2249 2354,2166 2388,2052 L 2406,1993 L 2525,1993 Z "  />
<path style="fill:#000000;fill-opacity:1.00;fill-rule:nonzero;stroke:none"  d="M 705,2118 L 908,1834 C 960,1760 987,1713 987,1693 C 987,1681 981,1672 970,1664 C 958,1656 926,1651 873,1648 L 881,1619 L 1216,1619 L 1210,1648 C 1178,1652 1155,1657 1143,1661 C 1124,1669 1106,1682 1087,1698 C 1063,1720 1027,1764 980,1828 L 719,2188 L 640,2452 C 621,2518 611,2564 611,2589 C 611,2605 614,2618 620,2626 C 626,2634 637,2641 652,2646 C 672,2653 703,2656 744,2657 L 736,2686 L 286,2686 L 296,2657 C 340,2656 370,2652 385,2646 C 408,2636 426,2624 437,2608 C 455,2584 474,2540 493,2478 L 586,2166 L 472,1798 C 452,1733 433,1693 416,1677 C 399,1661 369,1652 327,1648 L 334,1619 L 729,1619 L 719,1648 C 670,1652 642,1655 635,1657 C 623,1661 614,1668 607,1679 C 599,1690 596,1703 596,1718 C 596,1739 603,1776 618,1828 L 705,2118 Z "  />
</svg>