<svg width="173px" height="72px" viewBox="0 0 17300 7200" version="1.1" xmlns="http://www.w3.org/2000/svg" xmlns:xlink="http://www.w3.org/1999/xlink">
<path style="fill:none;stroke:#000000;stroke-width:66px;stroke-opacity:1.00;"  d="M 6546,3300 L 6749,3183 "  />
<path style="fill:none;stroke:#000000;stroke-width:133px;stroke-opacity:1.00;"  d="M 6749,3217 L 7045,4883 "  />
<path style="fill:none;stroke:#000000;stroke-width:66px;stroke-opacity:1.00;"  d="M 7078,4883 L 7469,421 "  />
<path style="fill:none;stroke:#000000;stroke-width:66px;stroke-opacity:1.00;"  d="M 7469,421 L 16855,421 "  />
<path style="fill:none;stroke:#000000;stroke-width:66px;stroke-opacity:1.00;"  d="M 6379,5200 L 16988,5200 "  />
<path style="fill:#000000;fill-opacity:1.00;fill-rule:nonzero;stroke:none"  d="M 11648,6143 L 11544,6498 C 11642,6353 11716,6258 11768,6212 C 11820,6166 11870,6143 11918,6143 C 11944,6143 11965,6152 11982,6169 C 11999,6186 12007,6208 12007,6236 C 12007,6267 12000,6309 11985,6361 L 11889,6690 C 11878,6728 11873,6751 11873,6759 C 11873,6767 11875,6773 11879,6778 C 11883,6783 11888,6785 11893,6785 C 11899,6785 11906,6782 11915,6775 C 11943,6753 11973,6720 12006,6675 L 12030,6690 C 11982,6759 11936,6809 11893,6838 C 11862,6859 11835,6869 11811,6869 C 11792,6869 11777,6863 11765,6851 C 11754,6839 11748,6824 11748,6804 C 11748,6779 11757,6736 11775,6675 L 11865,6361 C 11877,6322 11882,6291 11882,6270 C 11882,6259 11879,6251 11872,6244 C 11865,6238 11857,6234 11847,6234 C 11833,6234 11815,6241 11795,6253 C 11756,6277 11716,6315 11675,6369 C 11633,6423 11589,6492 11543,6576 C 11518,6620 11498,6668 11482,6721 L 11443,6850 L 11325,6850 L 11468,6361 C 11484,6302 11493,6267 11493,6255 C 11493,6243 11488,6233 11479,6225 C 11470,6216 11458,6212 11445,6212 C 11439,6212 11428,6213 11412,6215 L 11382,6220 L 11378,6191 L 11648,6143 Z "  />
<path style="fill:#000000;fill-opacity:1.00;fill-rule:nonzero;stroke:none"  d="M 14133,2376 C 14151,2407 14163,2435 14170,2461 C 14176,2487 14183,2539 14190,2616 L 14224,3001 C 14256,2963 14301,2904 14360,2822 C 14389,2783 14424,2729 14466,2661 C 14492,2619 14508,2590 14513,2573 C 14516,2565 14518,2556 14518,2547 C 14518,2542 14516,2537 14513,2533 C 14509,2530 14499,2525 14484,2520 C 14469,2516 14456,2506 14446,2493 C 14436,2480 14431,2465 14431,2447 C 14431,2426 14437,2409 14449,2396 C 14462,2383 14477,2376 14496,2376 C 14519,2376 14539,2386 14555,2405 C 14571,2424 14579,2450 14579,2483 C 14579,2525 14565,2572 14537,2624 C 14509,2677 14454,2758 14374,2868 C 14294,2977 14197,3096 14083,3226 C 14004,3315 13946,3371 13908,3394 C 13870,3417 13837,3429 13810,3429 C 13794,3429 13780,3423 13768,3410 C 13755,3398 13749,3384 13749,3368 C 13749,3347 13758,3329 13775,3312 C 13792,3296 13810,3287 13830,3287 C 13840,3287 13849,3290 13856,3294 C 13860,3297 13864,3304 13869,3317 C 13874,3329 13879,3337 13883,3341 C 13886,3344 13889,3345 13892,3345 C 13895,3345 13901,3342 13909,3337 C 13937,3320 13971,3291 14009,3253 C 14059,3202 14096,3160 14120,3128 L 14076,2633 C 14069,2551 14058,2501 14043,2483 C 14028,2466 14004,2457 13970,2457 C 13959,2457 13939,2458 13911,2461 L 13904,2433 L 14133,2376 Z "  />
<path style="fill:#000000;fill-opacity:1.00;fill-rule:nonzero;stroke:none"  d="M 10969,2376 C 10995,2403 11014,2430 11027,2458 C 11036,2476 11052,2526 11073,2605 L 11142,2502 C 11160,2477 11182,2453 11208,2431 C 11234,2408 11257,2392 11277,2384 C 11290,2379 11303,2376 11318,2376 C 11341,2376 11359,2382 11372,2394 C 11385,2406 11392,2421 11392,2438 C 11392,2458 11388,2471 11380,2479 C 11366,2492 11349,2498 11330,2498 C 11319,2498 11307,2496 11295,2491 C 11271,2483 11254,2479 11246,2479 C 11233,2479 11218,2486 11201,2501 C 11169,2528 11130,2580 11086,2658 L 11150,2926 C 11160,2967 11168,2992 11175,3000 C 11181,3008 11188,3012 11195,3012 C 11206,3012 11219,3006 11233,2994 C 11262,2970 11286,2939 11307,2901 L 11334,2915 C 11301,2976 11260,3027 11209,3068 C 11180,3091 11156,3102 11136,3102 C 11107,3102 11084,3086 11067,3053 C 11056,3033 11033,2945 10999,2790 C 10918,2932 10853,3022 10804,3063 C 10772,3089 10741,3102 10711,3102 C 10691,3102 10672,3095 10654,3079 C 10642,3068 10636,3053 10636,3033 C 10636,3016 10641,3002 10653,2990 C 10664,2979 10678,2973 10695,2973 C 10712,2973 10729,2982 10748,2998 C 10762,3010 10772,3016 10779,3016 C 10786,3016 10794,3012 10804,3004 C 10828,2984 10861,2941 10904,2876 C 10946,2810 10973,2763 10986,2733 C 10954,2607 10937,2540 10934,2533 C 10922,2499 10906,2475 10887,2461 C 10868,2447 10840,2440 10802,2440 C 10790,2440 10776,2440 10761,2441 L 10761,2413 L 10969,2376 Z "  />
<path style="fill:#000000;fill-opacity:1.00;fill-rule:nonzero;stroke:none"  d="M 3591,4893 C 3608,4923 3621,4951 3627,4978 C 3634,5004 3641,5056 3648,5133 L 3682,5517 C 3713,5480 3759,5420 3818,5339 C 3847,5299 3882,5246 3924,5177 C 3950,5136 3965,5107 3971,5090 C 3974,5082 3976,5073 3976,5064 C 3976,5058 3974,5054 3970,5050 C 3967,5046 3957,5042 3942,5037 C 3926,5032 3914,5023 3904,5010 C 3893,4997 3888,4981 3888,4964 C 3888,4943 3895,4926 3907,4913 C 3920,4900 3935,4893 3954,4893 C 3977,4893 3996,4903 4013,4922 C 4029,4941 4037,4967 4037,5000 C 4037,5041 4023,5088 3995,5141 C 3966,5194 3912,5275 3832,5384 C 3752,5494 3655,5613 3541,5742 C 3462,5831 3404,5887 3366,5911 C 3328,5934 3295,5945 3268,5945 C 3252,5945 3238,5939 3225,5927 C 3213,5915 3207,5901 3207,5884 C 3207,5864 3216,5846 3233,5829 C 3249,5812 3268,5804 3288,5804 C 3298,5804 3307,5806 3313,5811 C 3318,5814 3322,5821 3327,5833 C 3332,5845 3337,5854 3341,5858 C 3343,5860 3346,5862 3350,5862 C 3353,5862 3359,5859 3366,5854 C 3395,5836 3428,5808 3466,5770 C 3516,5718 3553,5677 3577,5645 L 3534,5149 C 3526,5067 3515,5018 3501,5000 C 3486,4982 3462,4973 3427,4973 C 3416,4973 3397,4975 3369,4978 L 3362,4949 L 3591,4893 Z "  />
<path style="fill:#000000;fill-opacity:1.00;fill-rule:nonzero;stroke:none"  d="M 2140,4893 C 2166,4920 2185,4947 2198,4974 C 2208,4993 2223,5042 2244,5122 L 2313,5019 C 2331,4994 2353,4970 2379,4947 C 2406,4925 2428,4909 2448,4901 C 2461,4896 2475,4893 2490,4893 C 2512,4893 2530,4899 2543,4911 C 2556,4923 2563,4938 2563,4955 C 2563,4975 2559,4988 2551,4995 C 2537,5008 2520,5015 2501,5015 C 2490,5015 2479,5013 2466,5008 C 2442,5000 2425,4995 2417,4995 C 2404,4995 2390,5003 2372,5017 C 2340,5044 2302,5097 2257,5174 L 2321,5443 C 2331,5484 2339,5509 2346,5517 C 2353,5525 2359,5529 2366,5529 C 2377,5529 2390,5523 2404,5511 C 2433,5487 2458,5456 2478,5417 L 2505,5431 C 2472,5493 2431,5544 2380,5584 C 2352,5607 2327,5619 2308,5619 C 2278,5619 2255,5602 2238,5570 C 2227,5549 2204,5462 2170,5307 C 2089,5448 2024,5539 1975,5580 C 1943,5606 1912,5619 1883,5619 C 1862,5619 1843,5611 1826,5596 C 1813,5585 1807,5569 1807,5550 C 1807,5533 1813,5518 1824,5507 C 1835,5496 1850,5490 1866,5490 C 1883,5490 1901,5498 1919,5515 C 1933,5527 1943,5533 1951,5533 C 1957,5533 1965,5529 1975,5520 C 1999,5501 2033,5458 2075,5392 C 2117,5327 2145,5279 2158,5250 C 2125,5123 2108,5057 2105,5049 C 2093,5015 2078,4991 2058,4977 C 2039,4963 2011,4956 1973,4956 C 1961,4956 1947,4957 1932,4958 L 1932,4930 L 2140,4893 Z "  />
<path style="fill:#000000;fill-opacity:1.00;fill-rule:nonzero;stroke:none"  d="M 1107,4489 L 838,5411 C 823,5461 816,5494 816,5509 C 816,5515 818,5520 823,5524 C 827,5529 832,5531 836,5531 C 843,5531 851,5528 861,5521 C 878,5509 908,5477 950,5427 L 976,5444 C 939,5496 901,5538 863,5570 C 824,5603 789,5619 755,5619 C 738,5619 723,5612 711,5600 C 700,5588 694,5570 694,5547 C 694,5517 702,5477 718,5427 L 748,5330 C 673,5447 604,5528 542,5573 C 499,5603 458,5619 419,5619 C 380,5619 345,5601 316,5566 C 286,5531 272,5483 272,5423 C 272,5345 296,5262 346,5174 C 395,5086 461,5015 542,4959 C 606,4915 665,4893 719,4893 C 747,4893 771,4899 791,4910 C 811,4922 832,4941 851,4967 L 928,4695 C 934,4676 938,4661 942,4649 C 948,4628 951,4611 951,4598 C 951,4587 947,4578 940,4570 C 929,4562 915,4557 897,4557 C 885,4557 866,4559 838,4563 L 838,4534 L 1107,4489 Z M 817,5044 C 817,5010 807,4984 788,4963 C 769,4943 744,4933 715,4933 C 649,4933 581,4987 510,5095 C 438,5204 403,5307 403,5406 C 403,5445 412,5475 429,5496 C 446,5516 466,5527 490,5527 C 545,5527 613,5468 694,5351 C 776,5234 817,5131 817,5044 "  />
<path style="fill:#000000;fill-opacity:1.00;fill-rule:nonzero;stroke:none"  d="M 9368,1021 L 9307,1228 C 9364,1143 9407,1088 9437,1061 C 9468,1034 9497,1021 9525,1021 C 9540,1021 9553,1026 9562,1036 C 9572,1046 9577,1059 9577,1075 C 9577,1093 9573,1118 9564,1148 L 9508,1340 C 9502,1362 9499,1376 9499,1380 C 9499,1385 9500,1388 9502,1391 C 9505,1394 9507,1396 9510,1396 C 9514,1396 9518,1394 9523,1390 C 9540,1377 9557,1357 9576,1331 L 9590,1340 C 9562,1380 9535,1409 9510,1426 C 9493,1438 9477,1444 9463,1444 C 9452,1444 9443,1441 9436,1434 C 9429,1427 9426,1418 9426,1406 C 9426,1392 9431,1367 9441,1331 L 9494,1148 C 9501,1125 9504,1107 9504,1095 C 9504,1089 9502,1084 9498,1080 C 9494,1076 9490,1074 9484,1074 C 9475,1074 9465,1078 9453,1085 C 9431,1099 9407,1121 9383,1153 C 9359,1184 9333,1224 9306,1273 C 9292,1299 9280,1327 9270,1358 L 9248,1433 L 9179,1433 L 9262,1148 C 9272,1114 9277,1093 9277,1086 C 9277,1079 9274,1073 9269,1068 C 9264,1063 9257,1061 9249,1061 C 9245,1061 9239,1062 9230,1063 L 9213,1066 L 9210,1049 L 9368,1021 Z "  />
<path style="fill:#000000;fill-opacity:1.00;fill-rule:nonzero;stroke:none"  d="M 8573,1021 L 8513,1228 C 8569,1143 8613,1088 8643,1061 C 8673,1034 8703,1021 8730,1021 C 8746,1021 8758,1026 8768,1036 C 8778,1046 8783,1059 8783,1075 C 8783,1093 8778,1118 8770,1148 L 8714,1340 C 8708,1362 8704,1376 8704,1380 C 8704,1385 8706,1388 8708,1391 C 8711,1394 8713,1396 8716,1396 C 8720,1396 8724,1394 8729,1390 C 8745,1377 8763,1357 8782,1331 L 8796,1340 C 8768,1380 8741,1409 8716,1426 C 8698,1438 8682,1444 8668,1444 C 8657,1444 8648,1441 8642,1434 C 8635,1427 8632,1418 8632,1406 C 8632,1392 8637,1367 8647,1331 L 8700,1148 C 8707,1125 8710,1107 8710,1095 C 8710,1089 8708,1084 8704,1080 C 8700,1076 8695,1074 8689,1074 C 8681,1074 8671,1078 8659,1085 C 8636,1099 8613,1121 8589,1153 C 8564,1184 8539,1224 8512,1273 C 8497,1299 8486,1327 8476,1358 L 8453,1433 L 8385,1433 L 8468,1148 C 8478,1114 8483,1093 8483,1086 C 8483,1079 8480,1073 8475,1068 C 8469,1063 8463,1061 8455,1061 C 8451,1061 8445,1062 8436,1063 L 8418,1066 L 8416,1049 L 8573,1021 Z "  />
<path style="fill:#000000;fill-opacity:1.00;fill-rule:nonzero;stroke:none"  d="M 9438,4020 C 9450,4020 9461,4024 9470,4033 C 9479,4042 9484,4053 9484,4066 C 9484,4078 9479,4089 9470,4098 C 9461,4107 9450,4112 9438,4112 C 9425,4112 9414,4107 9405,4098 C 9396,4089 9392,4078 9392,4066 C 9392,4053 9396,4042 9405,4033 C 9414,4024 9425,4020 9438,4020 M 9445,4200 L 9327,4608 C 9306,4681 9277,4733 9241,4766 C 9204,4798 9164,4814 9122,4814 C 9103,4814 9088,4810 9078,4801 C 9068,4792 9063,4781 9063,4769 C 9063,4760 9067,4752 9075,4744 C 9082,4737 9091,4734 9100,4734 C 9109,4734 9117,4737 9124,4742 C 9129,4747 9132,4752 9132,4758 C 9132,4766 9128,4773 9120,4778 C 9116,4782 9114,4784 9114,4787 L 9115,4789 C 9116,4790 9117,4791 9119,4792 C 9121,4792 9124,4793 9127,4793 C 9152,4793 9173,4785 9190,4769 C 9208,4753 9223,4722 9237,4675 L 9339,4325 C 9349,4291 9354,4272 9354,4268 C 9354,4261 9351,4255 9344,4249 C 9338,4243 9330,4240 9320,4240 C 9316,4240 9311,4241 9306,4241 C 9302,4242 9296,4243 9289,4244 L 9289,4228 L 9445,4200 Z "  />
<path style="fill:#000000;fill-opacity:1.00;fill-rule:nonzero;stroke:none"  d="M 7761,4019 C 7774,4019 7784,4023 7793,4032 C 7802,4041 7806,4052 7806,4065 C 7806,4077 7802,4088 7793,4097 C 7784,4106 7773,4110 7761,4110 C 7748,4110 7738,4106 7729,4097 C 7720,4088 7715,4077 7715,4065 C 7715,4052 7720,4041 7729,4032 C 7737,4023 7748,4019 7761,4019 M 7767,4200 L 7677,4520 C 7670,4541 7667,4554 7667,4558 C 7667,4563 7669,4567 7672,4570 C 7675,4573 7678,4575 7682,4575 C 7687,4575 7692,4572 7698,4567 C 7716,4554 7733,4534 7751,4509 L 7767,4520 C 7746,4551 7722,4578 7694,4599 C 7673,4615 7653,4623 7635,4623 C 7622,4623 7612,4620 7604,4612 C 7596,4605 7592,4595 7592,4584 C 7592,4573 7596,4554 7604,4528 L 7663,4324 C 7673,4291 7677,4270 7677,4261 C 7677,4254 7675,4249 7670,4245 C 7666,4240 7659,4238 7651,4238 C 7644,4238 7631,4240 7610,4243 L 7610,4226 L 7767,4200 Z "  />
<path style="fill:#000000;fill-opacity:1.00;fill-rule:nonzero;stroke:none"  d="M 14851,2890 C 14864,2890 14875,2894 14884,2903 C 14893,2912 14897,2923 14897,2935 C 14897,2948 14892,2959 14884,2968 C 14875,2977 14864,2981 14851,2981 C 14839,2981 14828,2977 14819,2968 C 14810,2959 14806,2948 14806,2935 C 14806,2923 14810,2912 14819,2903 C 14828,2894 14839,2890 14851,2890 M 14857,3071 L 14767,3390 C 14761,3412 14758,3425 14758,3429 C 14758,3434 14759,3438 14762,3441 C 14765,3444 14769,3446 14773,3446 C 14777,3446 14783,3443 14789,3438 C 14806,3425 14824,3405 14841,3380 L 14857,3390 C 14837,3422 14812,3449 14784,3470 C 14764,3486 14744,3494 14725,3494 C 14713,3494 14702,3491 14695,3483 C 14687,3476 14683,3466 14683,3455 C 14683,3444 14687,3425 14694,3399 L 14753,3195 C 14763,3161 14768,3140 14768,3132 C 14768,3125 14766,3120 14761,3116 C 14756,3111 14750,3109 14742,3109 C 14735,3109 14721,3111 14700,3114 L 14700,3096 L 14857,3071 Z M 15116,2890 C 15128,2890 15139,2895 15148,2904 C 15157,2913 15162,2924 15162,2936 C 15162,2949 15157,2960 15148,2969 C 15139,2978 15128,2982 15116,2982 C 15103,2982 15092,2978 15083,2969 C 15074,2960 15070,2949 15070,2936 C 15070,2924 15074,2913 15083,2904 C 15092,2895 15103,2890 15116,2890 M 15123,3071 L 15005,3479 C 14984,3552 14955,3604 14919,3636 C 14882,3669 14842,3685 14800,3685 C 14781,3685 14766,3680 14756,3672 C 14746,3663 14741,3652 14741,3640 C 14741,3631 14745,3622 14753,3615 C 14760,3608 14769,3605 14778,3605 C 14787,3605 14795,3607 14802,3613 C 14807,3618 14810,3623 14810,3629 C 14810,3637 14806,3643 14798,3649 C 14794,3653 14792,3655 14792,3657 L 14793,3660 C 14794,3661 14795,3662 14797,3662 C 14799,3663 14802,3663 14805,3663 C 14830,3663 14851,3656 14868,3640 C 14886,3624 14901,3593 14915,3546 L 15017,3196 C 15027,3162 15032,3143 15032,3139 C 15032,3132 15029,3125 15022,3120 C 15016,3114 15008,3111 14998,3111 C 14994,3111 14989,3111 14984,3112 C 14980,3113 14974,3114 14967,3115 L 14967,3099 L 15123,3071 Z "  />
<path style="fill:#000000;fill-opacity:1.00;fill-rule:nonzero;stroke:none"  d="M 11641,2890 C 11654,2890 11664,2894 11673,2903 C 11682,2912 11686,2923 11686,2935 C 11686,2948 11682,2959 11673,2968 C 11664,2977 11653,2981 11641,2981 C 11628,2981 11618,2977 11609,2968 C 11600,2959 11595,2948 11595,2935 C 11595,2923 11600,2912 11609,2903 C 11617,2894 11628,2890 11641,2890 M 11647,3071 L 11557,3390 C 11550,3412 11547,3425 11547,3429 C 11547,3434 11549,3438 11552,3441 C 11555,3444 11558,3446 11562,3446 C 11567,3446 11572,3443 11578,3438 C 11596,3425 11613,3405 11631,3380 L 11647,3390 C 11626,3422 11602,3449 11574,3470 C 11553,3486 11533,3494 11515,3494 C 11502,3494 11492,3491 11484,3483 C 11476,3476 11472,3466 11472,3455 C 11472,3444 11476,3425 11484,3399 L 11543,3195 C 11553,3161 11557,3140 11557,3132 C 11557,3125 11555,3120 11550,3116 C 11546,3111 11539,3109 11531,3109 C 11524,3109 11511,3111 11490,3114 L 11490,3096 L 11647,3071 Z M 11905,2890 C 11918,2890 11929,2895 11938,2904 C 11947,2913 11951,2924 11951,2936 C 11951,2949 11947,2960 11938,2969 C 11929,2978 11918,2982 11905,2982 C 11892,2982 11882,2978 11873,2969 C 11864,2960 11859,2949 11859,2936 C 11859,2924 11864,2913 11873,2904 C 11882,2895 11892,2890 11905,2890 M 11913,3071 L 11794,3479 C 11773,3552 11745,3604 11708,3636 C 11671,3669 11632,3685 11589,3685 C 11570,3685 11556,3680 11546,3672 C 11536,3663 11531,3652 11531,3640 C 11531,3631 11535,3622 11542,3615 C 11550,3608 11558,3605 11568,3605 C 11577,3605 11584,3607 11591,3613 C 11597,3618 11599,3623 11599,3629 C 11599,3637 11596,3643 11588,3649 C 11584,3653 11582,3655 11582,3657 L 11583,3660 C 11583,3661 11585,3662 11587,3662 C 11588,3663 11591,3663 11595,3663 C 11619,3663 11640,3656 11658,3640 C 11675,3624 11691,3593 11705,3546 L 11807,3196 C 11817,3162 11822,3143 11822,3139 C 11822,3132 11819,3125 11812,3120 C 11805,3114 11797,3111 11787,3111 C 11783,3111 11779,3111 11773,3112 C 11770,3113 11764,3114 11756,3115 L 11756,3099 L 11913,3071 Z "  />
<path style="fill:#000000;fill-opacity:1.00;fill-rule:nonzero;stroke:none"  d="M 9736,3693 L 8197,3693 L 8197,3651 L 8981,2677 L 8197,1720 L 8197,1676 L 9695,1676 L 9727,2071 L 9680,2071 C 9667,1964 9637,1887 9589,1840 C 9541,1794 9474,1771 9388,1771 L 8521,1771 L 9179,2576 L 8442,3487 L 9401,3487 C 9455,3487 9515,3476 9580,3455 C 9625,3440 9661,3414 9691,3376 C 9720,3338 9744,3279 9764,3199 L 9811,3207 L 9736,3693 Z "  />
<path style="fill:#000000;fill-opacity:1.00;fill-rule:nonzero;stroke:none"  d="M 9590,4267 L 10069,4267 L 10069,4311 L 9590,4311 L 9590,4267 Z M 9590,4437 L 10069,4437 L 10069,4482 L 9590,4482 L 9590,4437 Z "  />
<path style="fill:#000000;fill-opacity:1.00;fill-rule:nonzero;stroke:none"  d="M 7902,4267 L 8380,4267 L 8380,4311 L 7902,4311 L 7902,4267 Z M 7902,4437 L 8380,4437 L 8380,4482 L 7902,4482 L 7902,4437 Z "  />
<path style="fill:#000000;fill-opacity:1.00;fill-rule:nonzero;stroke:none"  d="M 12559,2633 L 13379,2633 L 13379,2711 L 12559,2711 L 12559,2633 Z "  />
<path style="fill:#000000;fill-opacity:1.00;fill-rule:nonzero;stroke:none"  d="M 5086,5007 L 5906,5007 L 5906,5083 L 5086,5083 L 5086,5007 Z M 5086,5298 L 5906,5298 L 5906,5376 L 5086,5376 L 5086,5298 Z "  />
<path style="fill:#000000;fill-opacity:1.00;fill-rule:nonzero;stroke:none"  d="M 8937,1589 L 8937,1569 C 8968,1558 8993,1542 9010,1521 C 9027,1499 9036,1476 9036,1452 C 9036,1446 9034,1441 9032,1437 C 9029,1434 9027,1433 9025,1433 C 9022,1433 9015,1436 9003,1442 C 8998,1445 8992,1446 8986,1446 C 8971,1446 8959,1442 8950,1433 C 8942,1424 8937,1412 8937,1396 C 8937,1382 8943,1369 8954,1358 C 8966,1347 8980,1342 8996,1342 C 9016,1342 9034,1351 9050,1368 C 9065,1386 9073,1409 9073,1438 C 9073,1469 9062,1498 9040,1525 C 9019,1552 8984,1573 8937,1589 "  />
<path style="fill:#000000;fill-opacity:1.00;fill-rule:nonzero;stroke:none"  d="M 10144,4055 L 10295,3982 L 10310,3982 L 10310,4504 C 10310,4538 10311,4560 10314,4568 C 10317,4577 10323,4583 10332,4588 C 10341,4592 10360,4595 10388,4596 L 10388,4613 L 10155,4613 L 10155,4596 C 10184,4595 10203,4593 10212,4588 C 10220,4584 10226,4578 10229,4570 C 10233,4563 10234,4541 10234,4504 L 10234,4170 C 10234,4125 10233,4096 10230,4083 C 10228,4074 10224,4066 10218,4062 C 10213,4057 10206,4055 10198,4055 C 10187,4055 10171,4060 10151,4069 L 10144,4055 Z "  />
<path style="fill:#000000;fill-opacity:1.00;fill-rule:nonzero;stroke:none"  d="M 8829,4768 L 8829,4748 C 8860,4738 8885,4722 8902,4700 C 8919,4678 8928,4655 8928,4631 C 8928,4625 8926,4620 8923,4616 C 8921,4613 8919,4612 8917,4612 C 8914,4612 8906,4615 8895,4621 C 8890,4624 8884,4625 8878,4625 C 8863,4625 8851,4621 8842,4612 C 8833,4603 8829,4591 8829,4576 C 8829,4561 8835,4548 8846,4537 C 8858,4527 8871,4521 8888,4521 C 8908,4521 8926,4530 8941,4548 C 8957,4565 8965,4588 8965,4617 C 8965,4648 8954,4677 8932,4704 C 8911,4731 8876,4752 8829,4768 "  />
<path style="fill:#000000;fill-opacity:1.00;fill-rule:nonzero;stroke:none"  d="M 8456,4055 L 8606,3982 L 8621,3982 L 8621,4504 C 8621,4538 8623,4560 8626,4568 C 8628,4577 8634,4583 8644,4588 C 8653,4592 8671,4595 8699,4596 L 8699,4613 L 8467,4613 L 8467,4596 C 8496,4595 8515,4593 8523,4588 C 8532,4584 8538,4578 8541,4570 C 8544,4563 8546,4541 8546,4504 L 8546,4170 C 8546,4125 8545,4096 8541,4083 C 8539,4074 8535,4066 8530,4062 C 8524,4057 8517,4055 8510,4055 C 8498,4055 8483,4060 8463,4069 L 8456,4055 Z "  />
<path style="fill:#000000;fill-opacity:1.00;fill-rule:nonzero;stroke:none"  d="M 16530,2248 L 16487,2367 L 16122,2367 L 16122,2350 C 16230,2252 16305,2172 16349,2110 C 16393,2048 16415,1991 16415,1940 C 16415,1901 16403,1869 16379,1843 C 16355,1818 16326,1806 16292,1806 C 16262,1806 16235,1814 16211,1832 C 16186,1850 16169,1876 16157,1910 L 16140,1910 C 16148,1854 16167,1811 16199,1781 C 16230,1751 16269,1736 16317,1736 C 16367,1736 16409,1752 16442,1784 C 16476,1816 16492,1854 16492,1898 C 16492,1929 16485,1961 16471,1992 C 16448,2041 16412,2093 16361,2148 C 16286,2231 16238,2281 16219,2298 L 16381,2298 C 16414,2298 16437,2297 16450,2294 C 16463,2292 16475,2287 16486,2279 C 16496,2272 16506,2261 16513,2248 L 16530,2248 Z "  />
<path style="fill:#000000;fill-opacity:1.00;fill-rule:nonzero;stroke:none"  d="M 15477,2005 L 15477,1972 C 15556,2012 15622,2058 15675,2111 C 15749,2187 15807,2276 15847,2378 C 15888,2481 15908,2587 15908,2698 C 15908,2860 15869,3007 15789,3140 C 15710,3273 15606,3368 15477,3426 L 15477,3397 C 15541,3361 15594,3312 15635,3251 C 15677,3190 15707,3112 15727,3017 C 15747,2923 15757,2824 15757,2722 C 15757,2611 15749,2509 15732,2418 C 15719,2346 15702,2288 15683,2245 C 15663,2202 15637,2160 15605,2120 C 15573,2080 15530,2042 15477,2005 "  />
<path style="fill:#000000;fill-opacity:1.00;fill-rule:nonzero;stroke:none"  d="M 10540,3397 L 10540,3426 C 10461,3386 10396,3340 10343,3286 C 10268,3211 10210,3122 10170,3019 C 10129,2917 10109,2810 10109,2700 C 10109,2538 10149,2391 10228,2258 C 10308,2125 10412,2030 10540,1972 L 10540,2005 C 10476,2041 10423,2089 10382,2151 C 10341,2212 10310,2290 10290,2384 C 10270,2478 10260,2577 10260,2679 C 10260,2791 10268,2892 10285,2983 C 10299,3055 10315,3113 10335,3156 C 10354,3200 10380,3242 10412,3282 C 10445,3322 10487,3360 10540,3397 "  />
<path style="fill:#000000;fill-opacity:1.00;fill-rule:nonzero;stroke:none"  d="M 4145,4522 L 4145,4489 C 4224,4528 4290,4574 4342,4627 C 4417,4703 4474,4793 4515,4895 C 4556,4997 4576,5104 4576,5215 C 4576,5376 4536,5524 4457,5657 C 4377,5790 4273,5885 4145,5942 L 4145,5913 C 4209,5877 4261,5829 4303,5768 C 4344,5706 4375,5629 4395,5534 C 4415,5439 4425,5341 4425,5238 C 4425,5127 4417,5026 4399,4934 C 4386,4863 4370,4805 4351,4762 C 4331,4719 4305,4677 4273,4637 C 4241,4597 4198,4558 4145,4522 "  />
<path style="fill:#000000;fill-opacity:1.00;fill-rule:nonzero;stroke:none"  d="M 2673,5866 L 2673,5832 C 2726,5814 2768,5787 2797,5750 C 2827,5712 2841,5673 2841,5631 C 2841,5621 2839,5613 2834,5606 C 2831,5602 2827,5599 2823,5599 C 2818,5599 2805,5604 2786,5615 C 2777,5620 2767,5622 2756,5622 C 2731,5622 2710,5614 2695,5599 C 2680,5584 2673,5563 2673,5537 C 2673,5511 2682,5489 2702,5471 C 2721,5453 2745,5444 2773,5444 C 2808,5444 2838,5459 2865,5489 C 2892,5519 2905,5558 2905,5608 C 2905,5661 2887,5711 2850,5757 C 2812,5804 2753,5840 2673,5866 "  />
<path style="fill:#000000;fill-opacity:1.00;fill-rule:nonzero;stroke:none"  d="M 1711,5913 L 1711,5942 C 1633,5903 1567,5856 1514,5803 C 1439,5728 1382,5639 1341,5536 C 1300,5433 1280,5327 1280,5216 C 1280,5055 1320,4908 1399,4775 C 1479,4642 1583,4546 1711,4489 L 1711,4522 C 1647,4557 1595,4606 1553,4667 C 1512,4729 1482,4807 1461,4901 C 1441,4995 1431,5094 1431,5196 C 1431,5308 1439,5409 1457,5500 C 1470,5572 1486,5630 1506,5673 C 1525,5717 1551,5758 1583,5798 C 1616,5839 1659,5877 1711,5913 "  />
</svg>