<svg width="63px" height="24px" viewBox="0 0 6300 2400" version="1.1" xmlns="http://www.w3.org/2000/svg" xmlns:xlink="http://www.w3.org/1999/xlink">
<path style="fill:#000000;fill-opacity:1.00;fill-rule:nonzero;stroke:none"  d="M 5586,522 L 5586,489 C 5665,528 5731,574 5784,627 C 5858,703 5916,793 5956,895 C 5997,997 6017,1104 6017,1215 C 6017,1376 5978,1524 5898,1657 C 5819,1790 5715,1885 5586,1942 L 5586,1913 C 5650,1877 5703,1829 5744,1768 C 5786,1706 5816,1629 5837,1534 C 5857,1439 5867,1341 5867,1238 C 5867,1127 5858,1026 5841,934 C 5828,863 5812,805 5792,762 C 5772,719 5747,677 5714,637 C 5682,597 5639,558 5586,522 "  />
<path style="fill:#000000;fill-opacity:1.00;fill-rule:nonzero;stroke:none"  d="M 3919,1913 L 3919,1942 C 3840,1903 3775,1856 3722,1803 C 3647,1728 3589,1639 3549,1536 C 3508,1433 3488,1327 3488,1216 C 3488,1055 3528,908 3607,775 C 3687,642 3791,546 3919,489 L 3919,522 C 3855,557 3802,606 3761,667 C 3720,729 3689,807 3669,901 C 3649,995 3639,1094 3639,1196 C 3639,1308 3647,1409 3664,1500 C 3678,1572 3694,1630 3714,1673 C 3733,1717 3759,1758 3791,1798 C 3824,1839 3867,1877 3919,1913 "  />
<path style="fill:#000000;fill-opacity:1.00;fill-rule:nonzero;stroke:none"  d="M 5235,1407 C 5248,1407 5259,1411 5268,1420 C 5277,1429 5281,1439 5281,1452 C 5281,1465 5276,1475 5267,1484 C 5259,1493 5248,1498 5235,1498 C 5223,1498 5212,1493 5203,1484 C 5194,1475 5190,1465 5190,1452 C 5190,1439 5194,1429 5203,1420 C 5212,1411 5223,1407 5235,1407 M 5241,1588 L 5151,1907 C 5145,1929 5142,1942 5142,1946 C 5142,1951 5143,1955 5146,1958 C 5149,1961 5153,1962 5156,1962 C 5161,1962 5167,1960 5173,1955 C 5190,1941 5208,1922 5225,1897 L 5241,1907 C 5221,1939 5196,1965 5168,1987 C 5148,2003 5128,2011 5109,2011 C 5097,2011 5086,2007 5079,2000 C 5071,1992 5067,1983 5067,1972 C 5067,1960 5071,1942 5078,1916 L 5137,1711 C 5147,1678 5152,1657 5152,1649 C 5152,1642 5150,1636 5145,1632 C 5140,1628 5134,1626 5126,1626 C 5119,1626 5105,1627 5084,1631 L 5084,1613 L 5241,1588 Z "  />
<path style="fill:#000000;fill-opacity:1.00;fill-rule:nonzero;stroke:none"  d="M 896,1407 C 908,1407 919,1411 928,1420 C 937,1429 941,1439 941,1452 C 941,1465 937,1475 928,1484 C 919,1493 908,1498 896,1498 C 883,1498 873,1493 864,1484 C 855,1475 850,1465 850,1452 C 850,1439 855,1429 863,1420 C 872,1411 883,1407 896,1407 M 902,1588 L 811,1907 C 805,1929 802,1942 802,1946 C 802,1951 804,1955 807,1958 C 809,1961 813,1962 817,1962 C 821,1962 827,1960 833,1955 C 851,1941 868,1922 886,1897 L 902,1907 C 881,1939 857,1965 829,1987 C 808,2003 788,2011 769,2011 C 757,2011 747,2007 739,2000 C 731,1992 727,1983 727,1972 C 727,1960 731,1942 738,1916 L 798,1711 C 807,1678 812,1657 812,1649 C 812,1642 810,1636 805,1632 C 801,1628 794,1626 786,1626 C 779,1626 765,1627 744,1631 L 744,1613 L 902,1588 Z "  />
<path style="fill:#000000;fill-opacity:1.00;fill-rule:nonzero;stroke:none"  d="M 4287,570 L 4298,541 L 4676,541 C 4740,541 4797,551 4846,570 C 4896,590 4933,618 4958,653 C 4983,689 4995,726 4995,766 C 4995,827 4973,882 4929,931 C 4885,980 4813,1016 4714,1040 C 4778,1064 4825,1096 4855,1135 C 4885,1175 4901,1218 4901,1266 C 4901,1318 4887,1368 4860,1416 C 4833,1464 4798,1502 4756,1528 C 4713,1555 4662,1574 4602,1587 C 4559,1596 4493,1600 4402,1600 L 4014,1600 L 4024,1571 C 4065,1570 4092,1566 4107,1559 C 4128,1551 4143,1539 4151,1524 C 4164,1504 4181,1459 4201,1388 L 4391,747 C 4407,693 4415,655 4415,633 C 4415,614 4408,598 4394,587 C 4380,576 4352,570 4312,570 C 4303,570 4295,570 4287,570 M 4446,1009 C 4480,1010 4504,1011 4519,1011 C 4628,1011 4708,987 4761,940 C 4814,893 4840,834 4840,763 C 4840,710 4824,668 4792,638 C 4760,608 4708,593 4637,593 C 4619,593 4595,596 4565,602 L 4446,1009 Z M 4292,1531 C 4348,1539 4392,1542 4424,1542 C 4505,1542 4577,1518 4640,1469 C 4703,1420 4734,1353 4734,1270 C 4734,1205 4715,1155 4676,1120 C 4637,1084 4575,1066 4488,1066 C 4471,1066 4451,1066 4427,1068 L 4292,1531 Z "  />
<path style="fill:#000000;fill-opacity:1.00;fill-rule:nonzero;stroke:none"  d="M 3345,489 L 3078,1419 C 3065,1465 3058,1493 3058,1504 C 3058,1512 3061,1518 3066,1523 C 3071,1529 3077,1531 3084,1531 C 3094,1531 3105,1527 3116,1518 C 3143,1497 3172,1464 3201,1419 L 3225,1443 C 3175,1513 3130,1561 3088,1589 C 3057,1609 3028,1619 3001,1619 C 2981,1619 2964,1612 2951,1598 C 2938,1585 2931,1569 2931,1552 C 2931,1533 2939,1494 2956,1436 L 3168,703 C 3185,643 3194,609 3194,600 C 3194,588 3189,577 3179,569 C 3169,561 3153,557 3133,557 C 3121,557 3102,559 3078,563 L 3078,534 L 3345,489 Z "  />
<path style="fill:#000000;fill-opacity:1.00;fill-rule:nonzero;stroke:none"  d="M 668,489 L 401,1419 C 388,1465 382,1493 382,1504 C 382,1512 384,1518 389,1523 C 394,1529 400,1531 408,1531 C 417,1531 428,1527 440,1518 C 467,1497 495,1464 525,1419 L 548,1443 C 499,1513 453,1561 411,1589 C 381,1609 352,1619 324,1619 C 304,1619 288,1612 274,1598 C 261,1585 254,1569 254,1552 C 254,1533 263,1494 279,1436 L 491,703 C 508,643 517,609 517,600 C 517,588 512,577 502,569 C 492,561 477,557 456,557 C 444,557 426,559 401,563 L 401,534 L 668,489 Z "  />
<path style="fill:#000000;fill-opacity:1.00;fill-rule:nonzero;stroke:none"  d="M 1642,1007 L 2462,1007 L 2462,1083 L 1642,1083 L 1642,1007 Z M 1642,1298 L 2462,1298 L 2462,1376 L 1642,1376 L 1642,1298 Z "  />
</svg>