<svg width="63px" height="17px" viewBox="0 0 6300 1700" version="1.1" xmlns="http://www.w3.org/2000/svg" xmlns:xlink="http://www.w3.org/1999/xlink">
<path style="fill:#000000;fill-opacity:1.00;fill-rule:nonzero;stroke:none"  d="M 4697,428 L 4708,399 L 5079,399 C 5141,399 5197,409 5246,429 C 5294,448 5331,475 5355,510 C 5380,545 5392,581 5392,620 C 5392,680 5370,734 5327,782 C 5284,830 5213,866 5116,889 C 5179,913 5225,944 5255,983 C 5284,1021 5299,1064 5299,1111 C 5299,1162 5286,1211 5259,1258 C 5233,1305 5198,1342 5157,1368 C 5115,1394 5065,1413 5006,1425 C 4964,1434 4899,1438 4810,1438 L 4429,1438 L 4439,1410 C 4479,1409 4506,1405 4520,1399 C 4541,1390 4555,1378 4564,1364 C 4576,1345 4593,1300 4613,1231 L 4799,602 C 4815,549 4823,511 4823,490 C 4823,471 4816,456 4802,445 C 4788,434 4761,429 4722,429 C 4713,429 4705,428 4697,428 M 4853,859 C 4886,860 4910,861 4925,861 C 5031,861 5110,838 5162,791 C 5214,745 5240,687 5240,618 C 5240,565 5224,524 5192,495 C 5161,465 5110,451 5041,451 C 5022,451 4999,454 4970,460 L 4853,859 Z M 4702,1371 C 4757,1378 4800,1382 4832,1382 C 4911,1382 4982,1358 5043,1310 C 5105,1262 5136,1197 5136,1114 C 5136,1052 5117,1002 5079,967 C 5041,932 4979,914 4894,914 C 4878,914 4858,915 4835,917 L 4702,1371 Z "  />
<path style="fill:#000000;fill-opacity:1.00;fill-rule:nonzero;stroke:none"  d="M 3315,428 L 3326,399 L 3697,399 C 3759,399 3815,409 3863,429 C 3912,448 3949,475 3973,510 C 3997,545 4009,581 4009,620 C 4009,680 3988,734 3945,782 C 3901,830 3831,866 3734,889 C 3796,913 3843,944 3872,983 C 3902,1021 3917,1064 3917,1111 C 3917,1162 3903,1211 3877,1258 C 3850,1305 3816,1342 3775,1368 C 3733,1394 3683,1413 3624,1425 C 3582,1434 3517,1438 3428,1438 L 3047,1438 L 3057,1410 C 3097,1409 3124,1405 3138,1399 C 3159,1390 3173,1378 3182,1364 C 3194,1345 3210,1300 3231,1231 L 3417,602 C 3433,549 3441,511 3441,490 C 3441,471 3434,456 3420,445 C 3406,434 3379,429 3340,429 C 3331,429 3323,428 3315,428 M 3471,859 C 3504,860 3528,861 3543,861 C 3649,861 3728,838 3780,791 C 3832,745 3858,687 3858,618 C 3858,565 3842,524 3810,495 C 3778,465 3728,451 3658,451 C 3640,451 3617,454 3588,460 L 3471,859 Z M 3320,1371 C 3375,1378 3418,1382 3449,1382 C 3529,1382 3600,1358 3661,1310 C 3723,1262 3753,1197 3753,1114 C 3753,1052 3734,1002 3696,967 C 3658,932 3597,914 3512,914 C 3496,914 3476,915 3452,917 L 3320,1371 Z "  />
<path style="fill:#000000;fill-opacity:1.00;fill-rule:nonzero;stroke:none"  d="M 525,428 L 536,399 L 907,399 C 969,399 1025,409 1074,429 C 1122,448 1159,475 1183,510 C 1207,545 1220,581 1220,620 C 1220,680 1198,734 1155,782 C 1112,830 1041,866 944,889 C 1007,913 1053,944 1082,983 C 1112,1021 1127,1064 1127,1111 C 1127,1162 1114,1211 1087,1258 C 1060,1305 1026,1342 985,1368 C 943,1394 893,1413 834,1425 C 792,1434 727,1438 638,1438 L 257,1438 L 267,1410 C 307,1409 334,1405 348,1399 C 369,1390 383,1378 392,1364 C 404,1345 421,1300 441,1231 L 627,602 C 643,549 651,511 651,490 C 651,471 644,456 630,445 C 616,434 589,429 550,429 C 541,429 533,428 525,428 M 681,859 C 714,860 738,861 753,861 C 859,861 938,838 990,791 C 1042,745 1068,687 1068,618 C 1068,565 1052,524 1020,495 C 989,465 938,451 869,451 C 850,451 827,454 798,460 L 681,859 Z M 530,1371 C 585,1378 628,1382 659,1382 C 739,1382 810,1358 871,1310 C 933,1262 964,1197 964,1114 C 964,1052 945,1002 907,967 C 869,932 807,914 722,914 C 706,914 686,915 663,917 L 530,1371 Z "  />
<path style="fill:#000000;fill-opacity:1.00;fill-rule:nonzero;stroke:none"  d="M 5815,733 L 5838,506 C 5845,442 5852,399 5858,376 C 5868,344 5882,321 5899,307 C 5917,293 5937,286 5959,286 C 5977,286 5992,291 6002,301 C 6013,311 6018,324 6018,340 C 6018,352 6016,365 6011,379 C 6004,399 5985,441 5954,507 L 5848,733 L 5815,733 Z "  />
<path style="fill:#000000;fill-opacity:1.00;fill-rule:nonzero;stroke:none"  d="M 5614,733 L 5637,506 C 5644,442 5651,399 5657,376 C 5667,344 5681,321 5698,307 C 5716,293 5736,286 5758,286 C 5776,286 5791,291 5801,301 C 5812,311 5817,324 5817,340 C 5817,352 5815,365 5810,379 C 5803,399 5784,441 5753,507 L 5647,733 L 5614,733 Z "  />
<path style="fill:#000000;fill-opacity:1.00;fill-rule:nonzero;stroke:none"  d="M 4231,733 L 4255,506 C 4262,442 4268,399 4275,376 C 4285,344 4298,321 4316,307 C 4334,293 4353,286 4375,286 C 4394,286 4408,291 4419,301 C 4430,311 4435,324 4435,340 C 4435,352 4433,365 4427,379 C 4421,399 4402,441 4371,507 L 4265,733 L 4231,733 Z "  />
<path style="fill:#000000;fill-opacity:1.00;fill-rule:nonzero;stroke:none"  d="M 1754,857 L 2559,857 L 2559,931 L 1754,931 L 1754,857 Z M 1754,1143 L 2559,1143 L 2559,1219 L 1754,1219 L 1754,1143 Z "  />
</svg>