<svg width="20px" height="25px" viewBox="0 0 2000 2500" version="1.1" xmlns="http://www.w3.org/2000/svg" xmlns:xlink="http://www.w3.org/1999/xlink">
<path style="fill:#000000;fill-opacity:1.00;fill-rule:nonzero;stroke:none"  d="M 1673,1389 C 1686,1389 1697,1393 1706,1402 C 1714,1411 1719,1421 1719,1434 C 1719,1447 1714,1457 1706,1466 C 1697,1475 1686,1479 1673,1479 C 1661,1479 1650,1475 1641,1466 C 1632,1457 1628,1447 1628,1434 C 1628,1421 1632,1411 1641,1402 C 1650,1393 1661,1389 1673,1389 M 1681,1567 L 1564,1969 C 1543,2041 1515,2093 1479,2125 C 1443,2157 1404,2172 1362,2172 C 1343,2172 1329,2168 1319,2159 C 1309,2151 1304,2140 1304,2128 C 1304,2119 1308,2111 1315,2104 C 1323,2097 1331,2093 1341,2093 C 1349,2093 1357,2096 1364,2102 C 1369,2106 1372,2111 1372,2117 C 1372,2125 1368,2132 1360,2137 C 1356,2141 1354,2143 1354,2145 L 1355,2148 C 1356,2149 1357,2150 1359,2150 C 1361,2151 1364,2151 1367,2151 C 1391,2151 1412,2144 1429,2128 C 1447,2113 1462,2082 1476,2036 L 1576,1690 C 1586,1656 1591,1638 1591,1634 C 1591,1627 1588,1621 1581,1615 C 1575,1609 1567,1606 1557,1606 C 1553,1606 1549,1607 1543,1608 C 1540,1608 1534,1609 1526,1610 L 1526,1595 L 1681,1567 Z "  />
<path style="fill:#000000;fill-opacity:1.00;fill-rule:nonzero;stroke:none"  d="M 525,562 L 536,533 L 909,533 C 972,533 1028,543 1077,563 C 1126,582 1163,610 1187,644 C 1212,679 1224,716 1224,756 C 1224,816 1202,870 1159,919 C 1115,967 1044,1003 946,1026 C 1009,1050 1056,1081 1086,1120 C 1116,1159 1131,1202 1131,1249 C 1131,1301 1117,1350 1090,1398 C 1064,1445 1029,1482 988,1508 C 946,1534 895,1554 836,1566 C 794,1575 728,1579 639,1579 L 255,1579 L 265,1550 C 306,1549 333,1546 347,1539 C 368,1530 382,1519 391,1504 C 403,1485 420,1440 440,1370 L 628,737 C 644,684 652,646 652,624 C 652,605 645,590 631,579 C 616,568 590,563 550,563 C 541,563 533,562 525,562 M 682,996 C 715,997 739,998 754,998 C 861,998 941,974 993,928 C 1045,881 1071,823 1071,753 C 1071,700 1055,659 1023,629 C 991,600 941,585 871,585 C 852,585 829,588 800,594 L 682,996 Z M 530,1511 C 585,1518 629,1522 660,1522 C 740,1522 811,1498 873,1449 C 935,1401 966,1336 966,1253 C 966,1190 947,1140 909,1105 C 871,1069 809,1052 723,1052 C 707,1052 687,1052 663,1054 L 530,1511 Z "  />
</svg>