<svg width="27px" height="25px" viewBox="0 0 2700 2500" version="1.1" xmlns="http://www.w3.org/2000/svg" xmlns:xlink="http://www.w3.org/1999/xlink">
<path style="fill:#000000;fill-opacity:1.00;fill-rule:nonzero;stroke:none"  d="M 1980,1567 L 1922,1770 C 1948,1722 1970,1686 1988,1662 C 2017,1625 2044,1598 2071,1581 C 2087,1571 2104,1567 2121,1567 C 2136,1567 2149,1571 2159,1581 C 2168,1591 2173,1603 2173,1618 C 2173,1633 2170,1652 2163,1676 L 2131,1790 C 2180,1698 2226,1634 2270,1597 C 2294,1577 2318,1567 2342,1567 C 2356,1567 2367,1571 2376,1581 C 2385,1590 2389,1605 2389,1625 C 2389,1642 2387,1661 2381,1680 L 2332,1855 C 2321,1893 2315,1914 2315,1918 C 2315,1923 2317,1926 2320,1929 C 2321,1931 2324,1932 2327,1932 C 2330,1932 2335,1929 2342,1924 C 2360,1911 2376,1893 2391,1872 L 2405,1881 C 2398,1893 2385,1910 2366,1931 C 2347,1951 2330,1966 2317,1973 C 2303,1981 2291,1984 2279,1984 C 2269,1984 2260,1981 2253,1974 C 2246,1966 2243,1958 2243,1947 C 2243,1933 2249,1904 2261,1860 L 2302,1716 C 2311,1683 2316,1664 2317,1661 C 2318,1655 2318,1649 2318,1644 C 2318,1637 2317,1631 2313,1627 C 2310,1622 2306,1620 2301,1620 C 2288,1620 2275,1627 2261,1640 C 2220,1678 2181,1731 2145,1800 C 2121,1845 2099,1903 2078,1974 L 2011,1974 L 2087,1702 C 2096,1672 2100,1653 2100,1643 C 2100,1635 2098,1629 2095,1625 C 2092,1621 2088,1619 2083,1619 C 2073,1619 2063,1622 2051,1630 C 2034,1641 2010,1666 1982,1705 C 1954,1743 1932,1780 1916,1815 C 1909,1831 1891,1884 1863,1974 L 1796,1974 L 1879,1682 L 1890,1644 C 1892,1639 1893,1635 1893,1632 C 1893,1625 1890,1619 1884,1614 C 1878,1609 1871,1606 1861,1606 C 1857,1606 1847,1608 1829,1612 L 1825,1595 L 1980,1567 Z "  />
<path style="fill:#000000;fill-opacity:1.00;fill-rule:nonzero;stroke:none"  d="M 1178,1567 L 1118,1771 C 1174,1688 1217,1633 1247,1606 C 1277,1580 1305,1567 1333,1567 C 1348,1567 1360,1572 1370,1582 C 1380,1591 1385,1604 1385,1620 C 1385,1638 1380,1662 1372,1692 L 1317,1881 C 1310,1903 1307,1917 1307,1922 C 1307,1926 1309,1929 1311,1932 C 1313,1935 1316,1936 1319,1936 C 1322,1936 1327,1934 1332,1931 C 1347,1918 1365,1899 1384,1873 L 1398,1881 C 1370,1921 1343,1950 1319,1967 C 1301,1979 1286,1984 1272,1984 C 1261,1984 1252,1981 1245,1974 C 1239,1968 1235,1959 1235,1947 C 1235,1933 1240,1908 1251,1873 L 1303,1692 C 1309,1670 1313,1652 1313,1640 C 1313,1634 1311,1629 1307,1625 C 1303,1621 1298,1619 1292,1619 C 1284,1619 1274,1623 1262,1630 C 1240,1644 1217,1666 1193,1697 C 1169,1728 1144,1768 1117,1816 C 1103,1841 1091,1869 1082,1899 L 1060,1974 L 992,1974 L 1074,1692 C 1084,1658 1088,1638 1088,1631 C 1088,1624 1086,1619 1080,1614 C 1075,1609 1069,1606 1061,1606 C 1057,1606 1051,1607 1042,1608 L 1025,1611 L 1022,1595 L 1178,1567 Z "  />
<path style="fill:#000000;fill-opacity:1.00;fill-rule:nonzero;stroke:none"  d="M 843,881 L 796,1118 L 767,1118 C 765,1049 750,999 723,968 C 697,936 663,921 624,921 C 592,921 567,929 548,947 C 529,964 520,985 520,1010 C 520,1027 524,1043 531,1059 C 538,1074 555,1096 580,1123 C 647,1196 690,1251 709,1288 C 729,1325 739,1360 739,1393 C 739,1447 717,1494 672,1535 C 628,1577 571,1597 504,1597 C 467,1597 424,1589 376,1571 C 359,1565 346,1562 336,1562 C 313,1562 296,1574 284,1597 L 255,1597 L 302,1348 L 331,1348 C 334,1426 350,1481 379,1513 C 409,1546 449,1562 500,1562 C 539,1562 570,1551 593,1529 C 616,1507 627,1481 627,1449 C 627,1428 623,1409 615,1392 C 600,1361 570,1318 524,1264 C 478,1209 448,1168 435,1141 C 422,1114 416,1087 416,1059 C 416,1009 434,967 470,933 C 506,898 553,881 610,881 C 626,881 641,882 655,885 C 662,887 679,892 705,902 C 732,912 749,917 758,917 C 780,917 799,905 814,881 L 843,881 Z "  />
<path style="fill:#000000;fill-opacity:1.00;fill-rule:nonzero;stroke:none"  d="M 1551,2127 L 1551,2107 C 1582,2097 1606,2081 1623,2060 C 1640,2038 1648,2016 1648,1992 C 1648,1986 1647,1981 1644,1977 C 1642,1975 1640,1973 1638,1973 C 1635,1973 1628,1976 1617,1982 C 1611,1985 1605,1986 1599,1986 C 1585,1986 1573,1982 1564,1973 C 1556,1965 1551,1953 1551,1937 C 1551,1923 1557,1910 1568,1899 C 1579,1889 1593,1884 1609,1884 C 1629,1884 1647,1892 1662,1910 C 1678,1927 1685,1950 1685,1978 C 1685,2009 1675,2038 1653,2064 C 1632,2091 1598,2112 1551,2127 "  />
</svg>