<svg width="16px" height="17px" viewBox="0 0 1600 1700" version="1.1" xmlns="http://www.w3.org/2000/svg" xmlns:xlink="http://www.w3.org/1999/xlink">
<path style="fill:#000000;fill-opacity:1.00;fill-rule:nonzero;stroke:none"  d="M 524,428 L 535,399 L 905,399 C 968,399 1023,409 1072,429 C 1121,448 1157,475 1182,510 C 1206,545 1218,581 1218,620 C 1218,680 1196,734 1153,782 C 1110,830 1040,866 942,889 C 1005,913 1051,944 1081,983 C 1111,1021 1125,1064 1125,1111 C 1125,1162 1112,1211 1085,1258 C 1059,1305 1025,1342 983,1368 C 942,1394 891,1413 833,1425 C 791,1434 725,1438 636,1438 L 256,1438 L 266,1410 C 305,1409 333,1405 347,1399 C 367,1390 382,1378 391,1364 C 403,1345 419,1300 440,1231 L 626,602 C 642,549 649,511 649,490 C 649,471 642,456 628,445 C 614,434 588,429 548,429 C 540,429 531,428 524,428 M 679,859 C 713,860 737,861 751,861 C 858,861 937,838 989,791 C 1040,745 1066,687 1066,618 C 1066,565 1050,524 1019,495 C 987,465 937,451 867,451 C 849,451 825,454 797,460 L 679,859 Z M 528,1371 C 584,1378 627,1382 658,1382 C 738,1382 808,1358 870,1310 C 931,1262 962,1197 962,1114 C 962,1052 943,1002 905,967 C 867,932 806,914 721,914 C 704,914 684,915 661,917 L 528,1371 Z "  />
</svg>