<svg width="35px" height="17px" viewBox="0 0 3500 1700" version="1.1" xmlns="http://www.w3.org/2000/svg" xmlns:xlink="http://www.w3.org/1999/xlink">
<path style="fill:#000000;fill-opacity:1.00;fill-rule:nonzero;stroke:none"  d="M 2700,501 L 2952,378 L 2978,378 L 2978,1255 C 2978,1314 2980,1350 2985,1364 C 2990,1378 3000,1389 3015,1397 C 3031,1405 3062,1409 3109,1410 L 3109,1438 L 2718,1438 L 2718,1410 C 2767,1409 2799,1405 2813,1397 C 2827,1390 2837,1380 2843,1368 C 2848,1355 2851,1318 2851,1255 L 2851,694 C 2851,619 2849,570 2844,549 C 2840,533 2833,521 2824,513 C 2815,505 2803,501 2790,501 C 2771,501 2745,509 2711,525 L 2700,501 Z "  />
<path style="fill:#000000;fill-opacity:1.00;fill-rule:nonzero;stroke:none"  d="M 1426,1438 L 1426,1354 L 2071,1036 L 1426,716 L 1426,634 L 2197,1016 L 2197,1055 L 1426,1438 Z "  />
<path style="fill:#000000;fill-opacity:1.00;fill-rule:nonzero;stroke:none"  d="M 326,788 L 590,745 L 480,1117 C 569,965 651,858 724,797 C 765,762 799,745 825,745 C 842,745 855,750 865,760 C 874,770 879,784 879,803 C 879,837 871,869 853,900 C 841,923 823,934 800,934 C 789,934 778,930 770,923 C 762,915 756,903 754,888 C 753,878 751,871 747,868 C 743,864 738,862 733,862 C 724,862 716,864 708,868 C 695,876 675,895 648,928 C 605,978 559,1043 510,1123 C 488,1156 470,1195 455,1237 C 433,1295 421,1330 418,1342 L 393,1438 L 276,1438 L 418,963 C 434,907 442,868 442,845 C 442,835 439,828 431,822 C 421,813 407,809 390,809 C 380,809 360,812 331,816 L 326,788 Z "  />
</svg>