<svg width="172px" height="48px" viewBox="0 0 17200 4800" version="1.1" xmlns="http://www.w3.org/2000/svg" xmlns:xlink="http://www.w3.org/1999/xlink">
<path style="fill:#000000;fill-opacity:1.00;fill-rule:nonzero;stroke:none"  d="M 16844,2955 L 16768,2955 L 16768,1343 L 16844,1343 L 16844,2955 Z "  />
<path style="fill:#000000;fill-opacity:1.00;fill-rule:nonzero;stroke:none"  d="M 16845,2868 L 16845,3280 C 16845,3440 16825,3597 16786,3752 C 16753,3885 16706,4002 16645,4102 C 16585,4203 16514,4288 16432,4356 C 16373,4407 16305,4448 16229,4480 L 16211,4464 C 16358,4363 16474,4245 16561,4109 C 16629,4000 16681,3869 16716,3717 C 16751,3565 16768,3425 16768,3295 L 16768,2868 L 16845,2868 Z "  />
<path style="fill:#000000;fill-opacity:1.00;fill-rule:nonzero;stroke:none"  d="M 16845,1930 L 16768,1930 L 16768,1503 C 16768,1339 16747,1178 16703,1023 C 16659,867 16593,730 16506,613 C 16430,510 16332,418 16211,334 L 16229,318 C 16354,371 16466,457 16563,577 C 16661,698 16732,843 16777,1014 C 16823,1186 16845,1354 16845,1519 L 16845,1930 Z "  />
<path style="fill:#000000;fill-opacity:1.00;fill-rule:nonzero;stroke:none"  d="M 9836,2955 L 9761,2955 L 9761,1343 L 9836,1343 L 9836,2955 Z "  />
<path style="fill:#000000;fill-opacity:1.00;fill-rule:nonzero;stroke:none"  d="M 9761,2868 L 9836,2868 L 9836,3295 C 9836,3460 9858,3620 9902,3776 C 9946,3932 10012,4068 10100,4186 C 10175,4288 10274,4380 10395,4464 L 10377,4480 C 10252,4427 10140,4341 10042,4221 C 9945,4101 9873,3955 9828,3784 C 9783,3612 9761,3444 9761,3280 L 9761,2868 Z "  />
<path style="fill:#000000;fill-opacity:1.00;fill-rule:nonzero;stroke:none"  d="M 9761,1930 L 9761,1519 C 9761,1358 9780,1201 9819,1046 C 9853,913 9900,797 9960,696 C 10021,596 10092,511 10173,442 C 10233,392 10300,350 10377,318 L 10395,334 C 10248,435 10131,554 10045,690 C 9976,799 9924,929 9889,1081 C 9854,1233 9836,1374 9836,1503 L 9836,1930 L 9761,1930 Z "  />
<path style="fill:#000000;fill-opacity:1.00;fill-rule:nonzero;stroke:none"  d="M 14400,2207 L 15220,2207 L 15220,2283 L 14400,2283 L 14400,2207 Z M 14400,2498 L 15220,2498 L 15220,2576 L 14400,2576 L 14400,2498 Z "  />
<path style="fill:#000000;fill-opacity:1.00;fill-rule:nonzero;stroke:none"  d="M 12072,3410 L 10534,3410 L 10534,3368 L 11318,2394 L 10534,1436 L 10534,1393 L 12031,1393 L 12063,1788 L 12016,1788 C 12004,1680 11973,1603 11925,1557 C 11877,1511 11810,1488 11724,1488 L 10857,1488 L 11516,2293 L 10779,3204 L 11737,3204 C 11792,3204 11852,3193 11917,3172 C 11961,3157 11998,3131 12027,3093 C 12057,3055 12081,2996 12101,2915 L 12147,2924 L 12072,3410 Z "  />
<path style="fill:#000000;fill-opacity:1.00;fill-rule:nonzero;stroke:none"  d="M 11084,3983 L 11562,3983 L 11562,4027 L 11084,4027 L 11084,3983 Z M 11084,4153 L 11562,4153 L 11562,4198 L 11084,4198 L 11084,4153 Z "  />
<path style="fill:#000000;fill-opacity:1.00;fill-rule:nonzero;stroke:none"  d="M 15683,1845 L 15941,1719 L 15967,1719 L 15967,2613 C 15967,2673 15969,2710 15974,2724 C 15979,2739 15990,2750 16005,2758 C 16021,2766 16053,2770 16100,2771 L 16100,2800 L 15702,2800 L 15702,2771 C 15752,2770 15784,2766 15799,2758 C 15814,2751 15824,2740 15829,2728 C 15835,2715 15838,2677 15838,2613 L 15838,2041 C 15838,1964 15835,1915 15830,1893 C 15827,1876 15820,1864 15810,1856 C 15801,1848 15789,1845 15776,1845 C 15756,1845 15729,1853 15695,1869 L 15683,1845 Z "  />
<path style="fill:#000000;fill-opacity:1.00;fill-rule:nonzero;stroke:none"  d="M 6819,1722 L 6819,1689 C 6898,1728 6964,1774 7017,1827 C 7091,1903 7149,1993 7190,2095 C 7230,2197 7251,2304 7251,2415 C 7251,2576 7211,2724 7131,2857 C 7052,2990 6948,3085 6819,3142 L 6819,3113 C 6883,3077 6936,3029 6977,2968 C 7019,2906 7050,2829 7070,2734 C 7090,2639 7100,2541 7100,2438 C 7100,2327 7091,2226 7074,2134 C 7061,2063 7045,2005 7025,1962 C 7006,1919 6980,1877 6947,1837 C 6915,1797 6872,1758 6819,1722 "  />
<path style="fill:#000000;fill-opacity:1.00;fill-rule:nonzero;stroke:none"  d="M 4544,3066 L 4544,3032 C 4598,3014 4639,2987 4669,2950 C 4698,2912 4713,2873 4713,2831 C 4713,2821 4711,2813 4706,2806 C 4702,2802 4699,2799 4695,2799 C 4689,2799 4677,2804 4658,2815 C 4648,2820 4638,2822 4628,2822 C 4602,2822 4582,2814 4567,2799 C 4552,2784 4544,2763 4544,2737 C 4544,2711 4554,2689 4574,2671 C 4593,2653 4617,2644 4645,2644 C 4679,2644 4710,2659 4737,2689 C 4764,2719 4777,2758 4777,2808 C 4777,2861 4758,2911 4721,2957 C 4684,3004 4625,3040 4544,3066 "  />
<path style="fill:#000000;fill-opacity:1.00;fill-rule:nonzero;stroke:none"  d="M 2444,3066 L 2444,3032 C 2498,3014 2539,2987 2569,2950 C 2598,2912 2613,2873 2613,2831 C 2613,2821 2611,2813 2606,2806 C 2602,2802 2599,2799 2595,2799 C 2589,2799 2577,2804 2558,2815 C 2548,2820 2538,2822 2528,2822 C 2502,2822 2482,2814 2467,2799 C 2452,2784 2444,2763 2444,2737 C 2444,2711 2454,2689 2474,2671 C 2493,2653 2517,2644 2545,2644 C 2579,2644 2610,2659 2637,2689 C 2664,2719 2677,2758 2677,2808 C 2677,2861 2658,2911 2621,2957 C 2584,3004 2525,3040 2444,3066 "  />
<path style="fill:#000000;fill-opacity:1.00;fill-rule:nonzero;stroke:none"  d="M 714,3113 L 714,3142 C 635,3103 569,3056 517,3003 C 442,2928 384,2839 343,2736 C 303,2633 282,2527 282,2416 C 282,2255 322,2108 402,1975 C 481,1842 585,1746 714,1689 L 714,1722 C 649,1757 597,1806 556,1867 C 515,1929 484,2007 464,2101 C 443,2195 433,2294 433,2396 C 433,2508 442,2609 459,2700 C 472,2772 489,2830 508,2873 C 527,2917 553,2958 586,2998 C 618,3039 661,3077 714,3113 "  />
<path style="fill:#000000;fill-opacity:1.00;fill-rule:nonzero;stroke:none"  d="M 11639,3772 L 11789,3698 L 11804,3698 L 11804,4220 C 11804,4255 11805,4276 11808,4285 C 11811,4293 11817,4300 11826,4305 C 11835,4309 11854,4312 11882,4312 L 11882,4329 L 11649,4329 L 11649,4312 C 11679,4312 11698,4309 11706,4305 C 11715,4300 11720,4294 11724,4287 C 11727,4280 11729,4257 11729,4220 L 11729,3887 C 11729,3842 11727,3813 11724,3800 C 11722,3790 11718,3783 11713,3779 C 11707,3774 11700,3772 11692,3772 C 11681,3772 11665,3776 11645,3786 L 11639,3772 Z "  />
<path style="fill:#000000;fill-opacity:1.00;fill-rule:nonzero;stroke:none"  d="M 1868,2643 L 2018,2569 L 2033,2569 L 2033,3091 C 2033,3126 2035,3147 2038,3156 C 2040,3164 2046,3171 2056,3175 C 2065,3180 2083,3183 2111,3183 L 2111,3200 L 1879,3200 L 1879,3183 C 1908,3183 1927,3180 1935,3176 C 1944,3171 1950,3165 1953,3158 C 1956,3150 1958,3128 1958,3091 L 1958,2757 C 1958,2712 1956,2684 1953,2671 C 1951,2661 1947,2654 1942,2649 C 1936,2645 1929,2643 1922,2643 C 1910,2643 1895,2647 1875,2657 L 1868,2643 Z "  />
<path style="fill:#000000;fill-opacity:1.00;fill-rule:nonzero;stroke:none"  d="M 11178,788 L 11335,763 L 11270,984 C 11323,893 11371,830 11414,794 C 11439,773 11459,763 11475,763 C 11485,763 11493,765 11498,771 C 11504,777 11507,786 11507,797 C 11507,817 11502,836 11492,855 C 11484,868 11474,875 11460,875 C 11453,875 11447,873 11442,868 C 11437,864 11434,857 11433,847 C 11432,842 11431,838 11429,836 C 11426,833 11423,832 11420,832 C 11415,832 11410,833 11405,836 C 11397,840 11385,852 11369,871 C 11344,901 11317,940 11287,987 C 11275,1007 11264,1030 11255,1055 C 11242,1090 11234,1111 11233,1118 L 11218,1175 L 11148,1175 L 11233,892 C 11242,859 11247,836 11247,822 C 11247,816 11245,812 11240,808 C 11234,803 11226,801 11216,801 C 11210,801 11198,802 11181,805 L 11178,788 Z "  />
<path style="fill:#000000;fill-opacity:1.00;fill-rule:nonzero;stroke:none"  d="M 10942,3736 C 10955,3736 10966,3740 10974,3749 C 10983,3758 10988,3769 10988,3781 C 10988,3794 10983,3804 10974,3813 C 10965,3822 10955,3827 10942,3827 C 10930,3827 10919,3822 10910,3813 C 10901,3804 10897,3794 10897,3781 C 10897,3769 10901,3758 10910,3749 C 10919,3740 10929,3736 10942,3736 M 10948,3917 L 10858,4236 C 10852,4258 10849,4271 10849,4275 C 10849,4280 10850,4284 10853,4287 C 10856,4290 10859,4291 10863,4291 C 10868,4291 10873,4289 10880,4284 C 10897,4270 10914,4251 10932,4226 L 10948,4236 C 10927,4268 10903,4294 10875,4316 C 10854,4332 10835,4340 10816,4340 C 10803,4340 10793,4336 10785,4329 C 10777,4321 10773,4312 10773,4301 C 10773,4290 10777,4271 10785,4245 L 10844,4041 C 10854,4007 10859,3986 10859,3978 C 10859,3971 10856,3966 10852,3961 C 10847,3957 10840,3955 10832,3955 C 10826,3955 10812,3957 10791,3960 L 10791,3942 L 10948,3917 Z "  />
<path style="fill:#000000;fill-opacity:1.00;fill-rule:nonzero;stroke:none"  d="M 13659,2607 C 13672,2607 13682,2611 13691,2620 C 13700,2629 13704,2639 13704,2652 C 13704,2665 13700,2675 13691,2684 C 13682,2693 13671,2698 13659,2698 C 13646,2698 13636,2693 13627,2684 C 13618,2675 13613,2665 13613,2652 C 13613,2639 13618,2629 13626,2620 C 13635,2611 13646,2607 13659,2607 M 13665,2788 L 13574,3107 C 13568,3129 13565,3142 13565,3146 C 13565,3151 13567,3155 13570,3158 C 13573,3161 13576,3162 13580,3162 C 13584,3162 13590,3160 13596,3155 C 13614,3141 13631,3122 13649,3097 L 13665,3107 C 13644,3139 13620,3165 13592,3187 C 13571,3203 13551,3211 13532,3211 C 13520,3211 13510,3207 13502,3200 C 13494,3192 13490,3183 13490,3172 C 13490,3160 13494,3142 13502,3116 L 13561,2911 C 13570,2878 13575,2857 13575,2849 C 13575,2842 13573,2836 13568,2832 C 13564,2828 13557,2826 13549,2826 C 13542,2826 13528,2827 13507,2831 L 13507,2813 L 13665,2788 Z "  />
<path style="fill:#000000;fill-opacity:1.00;fill-rule:nonzero;stroke:none"  d="M 6178,2813 L 6335,2788 L 6270,3009 C 6323,2918 6371,2855 6414,2819 C 6439,2798 6459,2788 6475,2788 C 6485,2788 6493,2790 6498,2796 C 6504,2802 6507,2811 6507,2822 C 6507,2842 6502,2861 6492,2880 C 6484,2893 6474,2900 6460,2900 C 6453,2900 6447,2898 6442,2893 C 6437,2889 6434,2882 6433,2872 C 6432,2867 6431,2863 6429,2861 C 6426,2858 6423,2857 6420,2857 C 6415,2857 6410,2858 6405,2861 C 6397,2865 6385,2877 6369,2896 C 6344,2926 6317,2965 6287,3012 C 6275,3032 6264,3055 6255,3080 C 6242,3115 6234,3136 6233,3143 L 6218,3200 L 6148,3200 L 6233,2917 C 6242,2884 6247,2861 6247,2847 C 6247,2841 6245,2837 6240,2833 C 6234,2828 6226,2826 6216,2826 C 6210,2826 6198,2827 6181,2830 L 6178,2813 Z "  />
<path style="fill:#000000;fill-opacity:1.00;fill-rule:nonzero;stroke:none"  d="M 12962,2093 L 12908,2273 C 12965,2206 13016,2159 13060,2133 C 13105,2106 13150,2093 13197,2093 C 13243,2093 13283,2111 13315,2148 C 13348,2185 13365,2233 13365,2291 C 13365,2406 13318,2523 13225,2641 C 13131,2760 13023,2819 12899,2819 C 12873,2819 12850,2816 12830,2810 C 12810,2804 12787,2794 12762,2780 L 12705,2981 C 12694,3021 12688,3047 12688,3059 C 12688,3070 12691,3080 12697,3088 C 12703,3096 12713,3102 12726,3107 C 12740,3111 12767,3113 12807,3113 L 12800,3142 L 12432,3142 L 12440,3113 C 12488,3111 12521,3103 12538,3088 C 12555,3074 12572,3033 12591,2967 L 12789,2283 C 12801,2240 12807,2213 12807,2202 C 12807,2188 12803,2177 12795,2170 C 12787,2162 12774,2158 12758,2158 C 12742,2158 12721,2160 12694,2163 L 12694,2133 L 12962,2093 Z M 12780,2718 C 12812,2757 12856,2776 12911,2776 C 12938,2776 12965,2768 12993,2753 C 13022,2738 13049,2716 13076,2686 C 13103,2656 13127,2622 13148,2583 C 13170,2544 13189,2499 13206,2446 C 13222,2394 13231,2341 13231,2290 C 13231,2248 13221,2216 13202,2194 C 13183,2172 13161,2161 13136,2161 C 13079,2161 13024,2193 12969,2258 C 12914,2322 12874,2398 12848,2484 L 12780,2718 Z "  />
<path style="fill:#000000;fill-opacity:1.00;fill-rule:nonzero;stroke:none"  d="M 5612,2093 L 5558,2273 C 5615,2206 5666,2159 5710,2133 C 5755,2106 5800,2093 5847,2093 C 5893,2093 5933,2111 5965,2148 C 5998,2185 6015,2233 6015,2291 C 6015,2406 5968,2523 5875,2641 C 5781,2760 5673,2819 5549,2819 C 5523,2819 5500,2816 5480,2810 C 5460,2804 5437,2794 5412,2780 L 5355,2981 C 5344,3021 5338,3047 5338,3059 C 5338,3070 5341,3080 5347,3088 C 5353,3096 5363,3102 5376,3107 C 5390,3111 5417,3113 5457,3113 L 5450,3142 L 5082,3142 L 5090,3113 C 5138,3111 5171,3103 5188,3088 C 5205,3074 5222,3033 5241,2967 L 5439,2283 C 5451,2240 5457,2213 5457,2202 C 5457,2188 5453,2177 5445,2170 C 5437,2162 5424,2158 5408,2158 C 5392,2158 5371,2160 5344,2163 L 5344,2133 L 5612,2093 Z M 5430,2718 C 5462,2757 5506,2776 5561,2776 C 5588,2776 5615,2768 5643,2753 C 5672,2738 5699,2716 5726,2686 C 5753,2656 5777,2622 5798,2583 C 5820,2544 5839,2499 5856,2446 C 5873,2394 5881,2341 5881,2290 C 5881,2248 5871,2216 5852,2194 C 5833,2172 5811,2161 5786,2161 C 5729,2161 5674,2193 5619,2258 C 5564,2322 5524,2398 5498,2484 L 5430,2718 Z "  />
<path style="fill:#000000;fill-opacity:1.00;fill-rule:nonzero;stroke:none"  d="M 1346,2093 L 1292,2273 C 1348,2206 1399,2159 1444,2133 C 1488,2106 1534,2093 1580,2093 C 1626,2093 1666,2111 1699,2148 C 1731,2185 1748,2233 1748,2291 C 1748,2406 1701,2523 1608,2641 C 1515,2760 1406,2819 1282,2819 C 1256,2819 1233,2816 1213,2810 C 1193,2804 1171,2794 1146,2780 L 1089,2981 C 1077,3021 1071,3047 1071,3059 C 1071,3070 1074,3080 1080,3088 C 1086,3096 1096,3102 1110,3107 C 1123,3111 1150,3113 1190,3113 L 1183,3142 L 815,3142 L 823,3113 C 871,3111 904,3103 921,3088 C 938,3074 956,3033 974,2967 L 1172,2283 C 1184,2240 1190,2213 1190,2202 C 1190,2188 1186,2177 1178,2170 C 1170,2162 1158,2158 1141,2158 C 1126,2158 1105,2160 1078,2163 L 1078,2133 L 1346,2093 Z M 1164,2718 C 1196,2757 1239,2776 1294,2776 C 1321,2776 1349,2768 1377,2753 C 1405,2738 1432,2716 1459,2686 C 1486,2656 1510,2622 1531,2583 C 1553,2544 1572,2499 1589,2446 C 1606,2394 1614,2341 1614,2290 C 1614,2248 1605,2216 1586,2194 C 1567,2172 1545,2161 1519,2161 C 1463,2161 1407,2193 1352,2258 C 1297,2322 1257,2398 1231,2484 L 1164,2718 Z "  />
<path style="fill:#000000;fill-opacity:1.00;fill-rule:nonzero;stroke:none"  d="M 3077,2648 C 3103,2648 3124,2656 3141,2673 C 3158,2691 3167,2712 3167,2738 C 3167,2761 3158,2782 3141,2800 C 3124,2818 3103,2827 3077,2827 C 3054,2827 3033,2818 3015,2800 C 2997,2782 2987,2761 2987,2738 C 2987,2712 2997,2691 3015,2673 C 3033,2656 3054,2648 3077,2648 M 3610,2648 C 3635,2648 3657,2656 3674,2673 C 3691,2691 3699,2712 3699,2738 C 3699,2761 3691,2782 3674,2800 C 3657,2818 3635,2827 3610,2827 C 3586,2827 3566,2818 3548,2800 C 3529,2782 3520,2761 3520,2738 C 3520,2712 3529,2691 3548,2673 C 3566,2656 3586,2648 3610,2648 M 4143,2648 C 4168,2648 4190,2656 4207,2673 C 4224,2691 4232,2712 4232,2738 C 4232,2761 4224,2782 4207,2800 C 4190,2818 4168,2827 4143,2827 C 4119,2827 4099,2818 4080,2800 C 4062,2782 4053,2761 4053,2738 C 4053,2712 4062,2691 4080,2673 C 4099,2656 4119,2648 4143,2648 "  />
</svg>