<svg width="29px" height="23px" viewBox="0 0 2900 2300" version="1.1" xmlns="http://www.w3.org/2000/svg" xmlns:xlink="http://www.w3.org/1999/xlink">
<path style="fill:#000000;fill-opacity:1.00;fill-rule:nonzero;stroke:none"  d="M 2307,1464 L 2459,1389 L 2474,1389 L 2474,1919 C 2474,1954 2476,1976 2479,1985 C 2482,1993 2488,2000 2497,2004 C 2506,2009 2525,2012 2553,2012 L 2553,2029 L 2318,2029 L 2318,2012 C 2347,2012 2366,2009 2375,2005 C 2384,2000 2390,1994 2393,1987 C 2396,1979 2398,1957 2398,1919 L 2398,1580 C 2398,1535 2397,1506 2393,1493 C 2391,1483 2387,1475 2382,1471 C 2376,1466 2369,1464 2361,1464 C 2350,1464 2334,1469 2314,1478 L 2307,1464 Z "  />
<path style="fill:#000000;fill-opacity:1.00;fill-rule:nonzero;stroke:none"  d="M 1755,1763 L 2241,1763 L 2241,1809 L 1755,1809 L 1755,1763 Z "  />
<path style="fill:#000000;fill-opacity:1.00;fill-rule:nonzero;stroke:none"  d="M 1326,1637 L 1486,1611 L 1419,1836 C 1473,1744 1522,1679 1566,1642 C 1591,1621 1612,1611 1627,1611 C 1638,1611 1646,1614 1652,1620 C 1657,1626 1660,1635 1660,1646 C 1660,1666 1655,1686 1645,1704 C 1637,1718 1627,1725 1613,1725 C 1606,1725 1599,1723 1594,1718 C 1589,1714 1586,1707 1585,1697 C 1584,1691 1583,1687 1581,1685 C 1578,1683 1575,1682 1572,1682 C 1567,1682 1562,1683 1557,1685 C 1549,1690 1537,1702 1521,1721 C 1495,1752 1467,1791 1437,1839 C 1424,1859 1413,1882 1404,1908 C 1391,1943 1384,1964 1382,1971 L 1367,2029 L 1296,2029 L 1382,1742 C 1392,1709 1397,1685 1397,1671 C 1397,1666 1394,1661 1390,1657 C 1384,1652 1375,1650 1365,1650 C 1359,1650 1347,1651 1330,1654 L 1326,1637 Z "  />
<path style="fill:#000000;fill-opacity:1.00;fill-rule:nonzero;stroke:none"  d="M 529,578 L 540,549 L 923,549 C 988,549 1045,559 1096,579 C 1146,599 1184,627 1209,663 C 1234,699 1247,737 1247,777 C 1247,839 1224,895 1180,945 C 1135,995 1062,1031 961,1055 C 1026,1079 1074,1112 1105,1152 C 1136,1192 1151,1236 1151,1284 C 1151,1338 1137,1389 1110,1437 C 1082,1486 1047,1524 1004,1551 C 961,1578 909,1597 848,1610 C 805,1619 737,1624 645,1624 L 251,1624 L 261,1594 C 303,1593 331,1589 345,1582 C 367,1573 382,1561 391,1547 C 403,1527 420,1481 441,1409 L 634,758 C 650,703 659,664 659,642 C 659,623 651,607 637,596 C 622,584 595,579 554,579 C 545,579 536,578 529,578 M 689,1024 C 724,1025 749,1026 764,1026 C 874,1026 956,1002 1009,954 C 1063,906 1090,846 1090,775 C 1090,720 1073,678 1041,647 C 1008,617 956,602 884,602 C 865,602 840,605 811,611 L 689,1024 Z M 533,1554 C 590,1561 635,1565 667,1565 C 750,1565 823,1540 886,1490 C 950,1441 982,1373 982,1288 C 982,1223 962,1172 923,1136 C 884,1100 820,1081 732,1081 C 715,1081 695,1082 670,1084 L 533,1554 Z "  />
</svg>