<svg width="16px" height="23px" viewBox="0 0 1600 2300" version="1.1" xmlns="http://www.w3.org/2000/svg" xmlns:xlink="http://www.w3.org/1999/xlink">
<path style="fill:#000000;fill-opacity:1.00;fill-rule:nonzero;stroke:none"  d="M 994,1464 L 1147,1389 L 1162,1389 L 1162,1919 C 1162,1954 1164,1976 1167,1985 C 1169,1993 1176,2000 1185,2004 C 1194,2009 1213,2012 1241,2012 L 1241,2029 L 1005,2029 L 1005,2012 C 1035,2012 1054,2009 1063,2005 C 1071,2000 1077,1994 1081,1987 C 1084,1979 1086,1957 1086,1919 L 1086,1580 C 1086,1535 1084,1506 1081,1493 C 1079,1483 1075,1475 1069,1471 C 1064,1466 1057,1464 1049,1464 C 1037,1464 1022,1469 1001,1478 L 994,1464 Z "  />
<path style="fill:#000000;fill-opacity:1.00;fill-rule:nonzero;stroke:none"  d="M 660,496 L 504,1044 C 555,991 599,955 637,935 C 675,916 714,906 755,906 C 813,906 861,925 898,964 C 935,1003 953,1055 953,1121 C 953,1206 929,1291 881,1375 C 832,1459 771,1525 697,1572 C 624,1619 552,1643 480,1643 C 400,1643 319,1613 234,1553 L 475,723 C 494,659 503,622 503,610 C 503,597 499,586 491,580 C 478,570 460,565 437,565 C 426,565 409,567 386,571 L 386,541 L 660,496 Z M 353,1562 C 406,1591 453,1605 493,1605 C 539,1605 588,1588 638,1554 C 688,1520 731,1463 768,1382 C 804,1301 823,1219 823,1137 C 823,1088 811,1050 787,1023 C 763,995 734,981 701,981 C 652,981 604,1001 557,1040 C 510,1080 477,1135 456,1205 L 353,1562 Z "  />
</svg>