<svg width="20px" height="23px" viewBox="0 0 2000 2300" version="1.1" xmlns="http://www.w3.org/2000/svg" xmlns:xlink="http://www.w3.org/1999/xlink">
<path style="fill:#000000;fill-opacity:1.00;fill-rule:nonzero;stroke:none"  d="M 1341,1637 L 1501,1611 L 1434,1836 C 1488,1744 1537,1679 1581,1642 C 1606,1621 1626,1611 1642,1611 C 1652,1611 1660,1614 1666,1620 C 1672,1626 1675,1635 1675,1646 C 1675,1666 1670,1686 1659,1704 C 1652,1718 1641,1725 1627,1725 C 1620,1725 1614,1723 1609,1718 C 1604,1714 1601,1707 1600,1697 C 1599,1691 1598,1687 1595,1685 C 1593,1683 1590,1682 1587,1682 C 1581,1682 1576,1683 1572,1685 C 1564,1690 1552,1702 1535,1721 C 1510,1752 1482,1791 1452,1839 C 1439,1859 1428,1882 1419,1908 C 1406,1943 1398,1964 1397,1971 L 1382,2029 L 1311,2029 L 1397,1742 C 1406,1709 1411,1685 1411,1671 C 1411,1666 1409,1661 1404,1657 C 1398,1652 1390,1650 1380,1650 C 1374,1650 1362,1651 1344,1654 L 1341,1637 Z "  />
<path style="fill:#000000;fill-opacity:1.00;fill-rule:nonzero;stroke:none"  d="M 532,578 L 543,549 L 927,549 C 991,549 1049,559 1099,579 C 1150,599 1187,627 1212,663 C 1238,699 1250,737 1250,777 C 1250,839 1228,895 1183,945 C 1138,995 1066,1031 965,1055 C 1030,1079 1078,1112 1108,1152 C 1139,1192 1154,1236 1154,1284 C 1154,1338 1140,1389 1113,1437 C 1085,1486 1050,1524 1007,1551 C 964,1578 912,1597 851,1610 C 808,1619 740,1624 648,1624 L 254,1624 L 265,1594 C 306,1593 334,1589 349,1582 C 370,1573 385,1561 394,1547 C 407,1527 424,1481 445,1409 L 637,758 C 654,703 662,664 662,642 C 662,623 655,607 640,596 C 626,584 598,579 557,579 C 548,579 540,578 532,578 M 693,1024 C 727,1025 752,1026 767,1026 C 877,1026 959,1002 1013,954 C 1066,906 1093,846 1093,775 C 1093,720 1077,678 1044,647 C 1011,617 959,602 887,602 C 868,602 844,605 814,611 L 693,1024 Z M 537,1554 C 594,1561 638,1565 671,1565 C 753,1565 826,1540 890,1490 C 953,1441 985,1373 985,1288 C 985,1223 966,1172 926,1136 C 887,1100 823,1081 736,1081 C 719,1081 698,1082 674,1084 L 537,1554 Z "  />
</svg>