<svg width="85px" height="45px" viewBox="0 0 8500 4500" version="1.1" xmlns="http://www.w3.org/2000/svg" xmlns:xlink="http://www.w3.org/1999/xlink">
<path style="fill:#000000;fill-opacity:1.00;fill-rule:nonzero;stroke:none"  d="M 7896,2912 L 7896,2877 C 7950,2860 7991,2833 8020,2796 C 8049,2759 8064,2719 8064,2678 C 8064,2668 8062,2660 8057,2653 C 8053,2649 8050,2646 8046,2646 C 8040,2646 8028,2651 8009,2662 C 7999,2666 7990,2669 7979,2669 C 7954,2669 7934,2661 7919,2646 C 7904,2631 7896,2611 7896,2584 C 7896,2559 7906,2537 7925,2519 C 7945,2501 7968,2492 7996,2492 C 8031,2492 8061,2507 8088,2537 C 8114,2566 8127,2606 8127,2655 C 8127,2708 8109,2758 8072,2803 C 8035,2849 7976,2885 7896,2912 "  />
<path style="fill:#000000;fill-opacity:1.00;fill-rule:nonzero;stroke:none"  d="M 4653,3612 L 4803,3539 L 4817,3539 L 4817,4057 C 4817,4091 4819,4113 4822,4121 C 4825,4130 4831,4136 4840,4141 C 4849,4145 4867,4148 4895,4148 L 4895,4165 L 4664,4165 L 4664,4148 C 4693,4148 4712,4145 4720,4141 C 4729,4136 4735,4131 4738,4123 C 4741,4116 4743,4094 4743,4057 L 4743,3726 C 4743,3681 4741,3652 4738,3640 C 4736,3630 4732,3623 4727,3618 C 4721,3614 4714,3612 4707,3612 C 4695,3612 4680,3616 4660,3626 L 4653,3612 Z "  />
<path style="fill:#000000;fill-opacity:1.00;fill-rule:nonzero;stroke:none"  d="M 5080,3252 L 3553,3252 L 3553,3211 L 4331,2244 L 3553,1294 L 3553,1251 L 5040,1251 L 5071,1643 L 5024,1643 C 5012,1536 4982,1459 4934,1413 C 4887,1368 4820,1345 4735,1345 L 3874,1345 L 4528,2144 L 3796,3048 L 4748,3048 C 4802,3048 4861,3037 4926,3016 C 4970,3002 5006,2975 5035,2938 C 5065,2900 5089,2841 5108,2762 L 5155,2770 L 5080,3252 Z "  />
<path style="fill:#000000;fill-opacity:1.00;fill-rule:nonzero;stroke:none"  d="M 4101,3822 L 4576,3822 L 4576,3865 L 4101,3865 L 4101,3822 Z M 4101,3990 L 4576,3990 L 4576,4035 L 4101,4035 L 4101,3990 Z "  />
<path style="fill:#000000;fill-opacity:1.00;fill-rule:nonzero;stroke:none"  d="M 2249,2058 L 3063,2058 L 3063,2134 L 2249,2134 L 2249,2058 Z M 2249,2348 L 3063,2348 L 3063,2424 L 2249,2424 L 2249,2348 Z "  />
<path style="fill:#000000;fill-opacity:1.00;fill-rule:nonzero;stroke:none"  d="M 4195,650 L 4351,625 L 4286,844 C 4338,754 4386,691 4429,655 C 4454,635 4474,625 4489,625 C 4499,625 4507,628 4513,633 C 4518,639 4521,648 4521,659 C 4521,679 4516,698 4506,716 C 4499,730 4488,736 4475,736 C 4468,736 4462,734 4457,730 C 4452,725 4449,718 4448,709 C 4447,703 4446,699 4443,697 C 4441,695 4438,694 4435,694 C 4430,694 4425,695 4420,697 C 4413,702 4401,713 4385,733 C 4360,762 4332,801 4303,848 C 4291,868 4280,890 4271,915 C 4258,949 4251,970 4249,977 L 4234,1034 L 4165,1034 L 4249,753 C 4259,720 4263,697 4263,683 C 4263,678 4261,673 4257,670 C 4251,665 4243,663 4233,663 C 4226,663 4215,664 4198,667 L 4195,650 Z "  />
<path style="fill:#000000;fill-opacity:1.00;fill-rule:nonzero;stroke:none"  d="M 3959,3576 C 3972,3576 3983,3580 3991,3589 C 4000,3598 4004,3608 4004,3621 C 4004,3634 4000,3644 3991,3653 C 3982,3662 3972,3666 3959,3666 C 3947,3666 3936,3662 3927,3653 C 3918,3644 3914,3634 3914,3621 C 3914,3608 3918,3598 3927,3589 C 3936,3580 3946,3576 3959,3576 M 3965,3756 L 3875,4073 C 3869,4094 3866,4107 3866,4111 C 3866,4116 3868,4120 3871,4123 C 3874,4126 3877,4127 3881,4127 C 3885,4127 3891,4125 3897,4120 C 3914,4107 3932,4087 3949,4062 L 3965,4073 C 3945,4104 3920,4130 3893,4152 C 3872,4168 3853,4176 3834,4176 C 3821,4176 3811,4172 3804,4165 C 3796,4157 3792,4148 3792,4137 C 3792,4126 3796,4107 3803,4081 L 3862,3879 C 3872,3845 3876,3825 3876,3816 C 3876,3810 3874,3804 3869,3800 C 3865,3796 3858,3794 3850,3794 C 3843,3794 3830,3795 3809,3799 L 3809,3781 L 3965,3756 Z "  />
<path style="fill:#000000;fill-opacity:1.00;fill-rule:nonzero;stroke:none"  d="M 7524,2455 C 7537,2455 7548,2459 7556,2468 C 7565,2477 7570,2488 7570,2500 C 7570,2513 7565,2523 7556,2532 C 7547,2541 7537,2546 7524,2546 C 7512,2546 7501,2541 7492,2532 C 7484,2523 7479,2513 7479,2500 C 7479,2488 7483,2477 7492,2468 C 7501,2459 7512,2455 7524,2455 M 7530,2635 L 7441,2952 C 7435,2973 7432,2986 7432,2990 C 7432,2995 7433,2999 7436,3002 C 7439,3005 7442,3007 7446,3007 C 7451,3007 7456,3004 7462,2999 C 7480,2986 7497,2966 7514,2941 L 7530,2952 C 7510,2983 7486,3010 7458,3031 C 7437,3047 7418,3055 7399,3055 C 7387,3055 7377,3051 7369,3044 C 7361,3037 7357,3027 7357,3016 C 7357,3005 7361,2986 7368,2960 L 7427,2758 C 7437,2725 7442,2704 7442,2695 C 7442,2689 7439,2683 7435,2679 C 7430,2675 7423,2673 7415,2673 C 7409,2673 7395,2674 7374,2678 L 7374,2660 L 7530,2635 Z "  />
<path style="fill:#000000;fill-opacity:1.00;fill-rule:nonzero;stroke:none"  d="M 6665,2455 C 6678,2455 6689,2459 6697,2468 C 6706,2477 6710,2488 6710,2500 C 6710,2513 6706,2523 6697,2532 C 6688,2541 6678,2546 6665,2546 C 6653,2546 6642,2541 6633,2532 C 6624,2523 6620,2513 6620,2500 C 6620,2488 6624,2477 6633,2468 C 6642,2459 6653,2455 6665,2455 M 6671,2635 L 6582,2952 C 6575,2973 6572,2986 6572,2990 C 6572,2995 6574,2999 6577,3002 C 6580,3005 6583,3007 6587,3007 C 6591,3007 6597,3004 6603,2999 C 6620,2986 6638,2966 6655,2941 L 6671,2952 C 6651,2983 6626,3010 6599,3031 C 6578,3047 6559,3055 6540,3055 C 6528,3055 6517,3051 6510,3044 C 6502,3037 6498,3027 6498,3016 C 6498,3005 6502,2986 6509,2960 L 6568,2758 C 6578,2725 6582,2704 6582,2695 C 6582,2689 6580,2683 6575,2679 C 6571,2675 6564,2673 6556,2673 C 6550,2673 6536,2674 6515,2678 L 6515,2660 L 6671,2635 Z "  />
<path style="fill:#000000;fill-opacity:1.00;fill-rule:nonzero;stroke:none"  d="M 1051,2945 C 1020,2983 988,3011 956,3029 C 924,3046 890,3055 855,3055 C 812,3055 778,3043 754,3019 C 730,2995 718,2962 718,2922 C 718,2875 731,2830 757,2785 C 783,2741 818,2704 861,2677 C 905,2649 948,2635 989,2635 C 1022,2635 1047,2642 1063,2655 C 1079,2669 1088,2686 1088,2706 C 1088,2724 1082,2740 1070,2754 C 1062,2764 1052,2769 1039,2769 C 1030,2769 1022,2766 1016,2760 C 1010,2754 1007,2746 1007,2737 C 1007,2732 1008,2726 1010,2722 C 1012,2717 1017,2711 1024,2704 C 1031,2697 1035,2692 1037,2689 C 1038,2686 1039,2683 1039,2680 C 1039,2674 1036,2668 1031,2664 C 1022,2658 1010,2655 994,2655 C 964,2655 935,2665 906,2686 C 877,2707 852,2737 832,2775 C 807,2821 794,2868 794,2914 C 794,2945 803,2969 821,2987 C 838,3005 862,3014 892,3014 C 915,3014 938,3008 961,2997 C 984,2985 1010,2964 1038,2934 L 1051,2945 Z M 1309,2635 L 1278,2739 C 1311,2700 1340,2673 1366,2658 C 1392,2642 1418,2635 1445,2635 C 1472,2635 1495,2645 1514,2667 C 1533,2688 1542,2716 1542,2750 C 1542,2816 1515,2883 1461,2952 C 1407,3021 1344,3055 1273,3055 C 1258,3055 1244,3053 1233,3050 C 1221,3047 1208,3041 1193,3032 L 1160,3149 C 1154,3172 1150,3187 1150,3194 C 1150,3201 1152,3206 1156,3211 C 1159,3216 1165,3219 1173,3222 C 1180,3224 1196,3226 1219,3226 L 1215,3242 L 1002,3242 L 1007,3226 C 1035,3224 1054,3220 1063,3211 C 1073,3203 1084,3179 1094,3141 L 1209,2745 C 1216,2720 1219,2704 1219,2698 C 1219,2690 1217,2684 1212,2679 C 1208,2674 1200,2672 1191,2672 C 1182,2672 1170,2673 1154,2675 L 1154,2658 L 1309,2635 Z M 1204,2997 C 1223,3019 1248,3030 1279,3030 C 1295,3030 1311,3026 1327,3017 C 1344,3008 1360,2995 1375,2978 C 1391,2961 1405,2941 1417,2919 C 1429,2896 1440,2870 1450,2839 C 1460,2809 1465,2779 1465,2749 C 1465,2725 1459,2706 1448,2693 C 1437,2680 1424,2674 1410,2674 C 1377,2674 1345,2693 1313,2730 C 1281,2768 1258,2811 1243,2861 L 1204,2997 Z "  />
<path style="fill:#000000;fill-opacity:1.00;fill-rule:nonzero;stroke:none"  d="M 7300,1544 L 7034,2467 C 7022,2513 7015,2541 7015,2552 C 7015,2559 7018,2566 7022,2571 C 7027,2576 7033,2579 7041,2579 C 7050,2579 7061,2574 7072,2566 C 7099,2544 7128,2512 7157,2467 L 7180,2491 C 7131,2560 7086,2609 7045,2636 C 7014,2656 6985,2666 6958,2666 C 6938,2666 6922,2659 6908,2646 C 6895,2632 6889,2617 6889,2599 C 6889,2580 6897,2542 6913,2484 L 7124,1757 C 7141,1697 7149,1663 7149,1654 C 7149,1642 7144,1632 7135,1624 C 7125,1616 7109,1612 7089,1612 C 7077,1612 7059,1614 7034,1617 L 7034,1588 L 7300,1544 Z "  />
<path style="fill:#000000;fill-opacity:1.00;fill-rule:nonzero;stroke:none"  d="M 5971,1945 L 5917,2124 C 5974,2057 6024,2011 6068,1985 C 6112,1958 6158,1945 6204,1945 C 6250,1945 6289,1963 6321,2000 C 6354,2036 6370,2084 6370,2142 C 6370,2256 6324,2372 6232,2489 C 6139,2607 6031,2666 5908,2666 C 5882,2666 5859,2663 5839,2657 C 5820,2651 5797,2641 5772,2627 L 5716,2827 C 5704,2866 5699,2892 5699,2904 C 5699,2915 5702,2925 5708,2933 C 5714,2941 5723,2947 5737,2951 C 5750,2956 5777,2958 5817,2958 L 5810,2987 L 5444,2987 L 5452,2958 C 5500,2956 5533,2948 5549,2933 C 5566,2919 5584,2879 5603,2813 L 5799,2134 C 5811,2091 5817,2064 5817,2054 C 5817,2040 5813,2029 5805,2021 C 5797,2013 5784,2010 5768,2010 C 5753,2010 5732,2011 5705,2015 L 5705,1985 L 5971,1945 Z M 5790,2566 C 5822,2604 5865,2623 5920,2623 C 5947,2623 5974,2616 6002,2601 C 6030,2586 6057,2563 6084,2534 C 6110,2504 6134,2470 6156,2432 C 6177,2393 6196,2348 6213,2296 C 6229,2244 6238,2192 6238,2141 C 6238,2099 6228,2068 6209,2046 C 6191,2024 6168,2013 6143,2013 C 6087,2013 6032,2045 5978,2109 C 5923,2173 5883,2248 5858,2334 L 5790,2566 Z "  />
<path style="fill:#000000;fill-opacity:1.00;fill-rule:nonzero;stroke:none"  d="M 663,1544 L 398,2467 C 385,2513 379,2541 379,2552 C 379,2559 381,2566 386,2571 C 391,2576 397,2579 404,2579 C 414,2579 425,2574 436,2566 C 463,2544 491,2512 521,2467 L 544,2491 C 495,2560 449,2609 408,2636 C 378,2656 349,2666 321,2666 C 302,2666 285,2659 272,2646 C 259,2632 252,2617 252,2599 C 252,2580 260,2542 277,2484 L 487,1757 C 504,1697 513,1663 513,1654 C 513,1642 508,1632 498,1624 C 488,1616 473,1612 452,1612 C 440,1612 422,1614 398,1617 L 398,1588 L 663,1544 Z "  />
</svg>