<svg width="57px" height="25px" viewBox="0 0 5700 2500" version="1.1" xmlns="http://www.w3.org/2000/svg" xmlns:xlink="http://www.w3.org/1999/xlink">
<path style="fill:#000000;fill-opacity:1.00;fill-rule:nonzero;stroke:none"  d="M 5430,886 L 5388,1003 L 5028,1003 L 5028,987 C 5134,890 5208,811 5252,750 C 5295,689 5316,633 5316,582 C 5316,544 5304,512 5281,487 C 5257,462 5229,450 5196,450 C 5166,450 5139,458 5115,476 C 5091,494 5074,519 5062,553 L 5046,553 C 5053,498 5072,455 5103,425 C 5134,396 5173,381 5220,381 C 5269,381 5310,397 5343,429 C 5377,460 5393,498 5393,541 C 5393,572 5386,603 5372,634 C 5349,682 5313,734 5264,788 C 5189,869 5142,919 5124,935 L 5283,935 C 5315,935 5338,934 5351,932 C 5364,929 5376,925 5386,917 C 5397,910 5406,899 5414,886 L 5430,886 Z "  />
<path style="fill:#000000;fill-opacity:1.00;fill-rule:nonzero;stroke:none"  d="M 2386,886 L 2343,1003 L 1983,1003 L 1983,987 C 2089,890 2164,811 2207,750 C 2250,689 2272,633 2272,582 C 2272,544 2260,512 2236,487 C 2212,462 2184,450 2151,450 C 2121,450 2094,458 2070,476 C 2046,494 2029,519 2017,553 L 2001,553 C 2008,498 2028,455 2059,425 C 2090,396 2128,381 2175,381 C 2224,381 2266,397 2299,429 C 2332,460 2348,498 2348,541 C 2348,572 2341,603 2327,634 C 2305,682 2269,734 2219,788 C 2144,869 2098,919 2079,935 L 2238,935 C 2271,935 2293,934 2306,932 C 2319,929 2331,925 2342,917 C 2352,910 2361,899 2369,886 L 2386,886 Z "  />
<path style="fill:#000000;fill-opacity:1.00;fill-rule:nonzero;stroke:none"  d="M 2715,1973 L 2715,1940 C 2768,1922 2809,1895 2838,1858 C 2867,1821 2882,1782 2882,1741 C 2882,1732 2879,1723 2875,1717 C 2871,1712 2868,1710 2864,1710 C 2858,1710 2846,1715 2827,1725 C 2818,1730 2808,1732 2798,1732 C 2773,1732 2753,1725 2738,1710 C 2723,1695 2715,1674 2715,1648 C 2715,1623 2725,1601 2744,1583 C 2763,1565 2787,1556 2815,1556 C 2849,1556 2879,1571 2905,1601 C 2932,1630 2945,1669 2945,1718 C 2945,1771 2927,1820 2890,1866 C 2853,1911 2795,1947 2715,1973 "  />
<path style="fill:#000000;fill-opacity:1.00;fill-rule:nonzero;stroke:none"  d="M 4637,596 C 4648,614 4655,630 4659,645 C 4662,660 4666,690 4670,734 L 4690,956 C 4708,934 4734,900 4768,853 C 4785,830 4805,799 4829,760 C 4844,736 4853,719 4856,710 C 4858,705 4859,700 4859,695 C 4859,691 4858,689 4856,687 C 4854,685 4848,682 4840,679 C 4831,676 4823,671 4818,664 C 4812,656 4809,647 4809,637 C 4809,625 4812,615 4820,608 C 4827,600 4836,596 4847,596 C 4860,596 4871,602 4880,613 C 4890,624 4894,639 4894,658 C 4894,682 4886,709 4870,739 C 4854,770 4823,816 4776,879 C 4730,942 4674,1011 4609,1085 C 4563,1136 4530,1169 4508,1182 C 4486,1195 4467,1202 4452,1202 C 4442,1202 4434,1199 4427,1191 C 4420,1184 4417,1176 4417,1167 C 4417,1155 4422,1145 4431,1135 C 4441,1125 4452,1121 4463,1121 C 4469,1121 4474,1122 4478,1125 C 4480,1126 4483,1130 4486,1138 C 4489,1145 4491,1149 4494,1152 C 4495,1153 4497,1154 4499,1154 C 4501,1154 4504,1152 4508,1149 C 4525,1139 4544,1123 4566,1101 C 4595,1071 4616,1048 4630,1029 L 4605,744 C 4600,697 4594,668 4586,658 C 4577,648 4563,643 4543,643 C 4537,643 4526,644 4510,645 L 4506,629 L 4637,596 Z "  />
<path style="fill:#000000;fill-opacity:1.00;fill-rule:nonzero;stroke:none"  d="M 4336,1466 L 4208,1908 L 4259,1864 C 4315,1817 4352,1782 4368,1759 C 4374,1751 4376,1746 4376,1742 C 4376,1739 4376,1737 4374,1734 C 4372,1732 4368,1730 4363,1728 C 4358,1727 4349,1726 4336,1726 L 4320,1726 L 4325,1709 L 4521,1709 L 4517,1726 C 4494,1727 4475,1731 4459,1737 C 4442,1743 4426,1751 4411,1763 C 4381,1785 4361,1801 4351,1809 L 4313,1844 C 4319,1865 4327,1895 4337,1934 C 4353,1998 4364,2036 4370,2048 C 4375,2060 4381,2066 4387,2066 C 4392,2066 4398,2064 4405,2058 C 4421,2047 4437,2029 4455,2004 L 4471,2015 C 4438,2056 4413,2083 4396,2096 C 4378,2110 4363,2116 4348,2116 C 4336,2116 4326,2111 4319,2101 C 4307,2084 4287,2014 4259,1892 L 4197,1946 L 4151,2105 L 4081,2105 L 4230,1592 L 4243,1549 C 4244,1541 4245,1534 4245,1529 C 4245,1522 4242,1516 4237,1511 C 4231,1506 4223,1504 4213,1504 C 4206,1504 4195,1505 4180,1508 L 4180,1492 L 4336,1466 Z "  />
<path style="fill:#000000;fill-opacity:1.00;fill-rule:nonzero;stroke:none"  d="M 1622,596 C 1637,612 1648,627 1655,643 C 1661,654 1669,682 1682,728 L 1721,669 C 1732,654 1745,641 1760,628 C 1775,615 1788,606 1799,601 C 1806,598 1814,596 1823,596 C 1836,596 1846,600 1854,607 C 1861,614 1865,622 1865,632 C 1865,643 1863,651 1858,655 C 1850,663 1840,666 1830,666 C 1823,666 1817,665 1809,662 C 1795,658 1786,655 1781,655 C 1774,655 1765,659 1755,668 C 1737,683 1715,714 1689,758 L 1726,913 C 1732,937 1736,951 1740,955 C 1744,960 1748,962 1752,962 C 1758,962 1766,959 1774,952 C 1790,938 1805,920 1816,898 L 1832,906 C 1813,942 1789,971 1760,994 C 1744,1007 1730,1014 1718,1014 C 1701,1014 1688,1005 1678,986 C 1672,974 1659,924 1639,835 C 1592,916 1555,968 1527,992 C 1508,1007 1491,1014 1474,1014 C 1462,1014 1451,1010 1441,1001 C 1434,994 1430,986 1430,975 C 1430,965 1433,956 1440,950 C 1446,943 1454,940 1464,940 C 1474,940 1484,945 1495,954 C 1502,961 1508,965 1513,965 C 1516,965 1521,962 1527,957 C 1541,946 1560,921 1584,884 C 1608,846 1624,819 1632,802 C 1613,729 1603,690 1602,686 C 1595,667 1586,653 1575,645 C 1564,637 1547,633 1526,633 C 1519,633 1511,633 1502,634 L 1502,617 L 1622,596 Z "  />
<path style="fill:#000000;fill-opacity:1.00;fill-rule:nonzero;stroke:none"  d="M 1349,1466 L 1221,1908 L 1272,1864 C 1328,1817 1365,1782 1382,1759 C 1387,1751 1390,1746 1390,1742 C 1390,1739 1389,1737 1387,1734 C 1385,1732 1382,1730 1377,1728 C 1371,1727 1362,1726 1349,1726 L 1333,1726 L 1338,1709 L 1535,1709 L 1530,1726 C 1508,1727 1488,1731 1472,1737 C 1456,1743 1440,1751 1424,1763 C 1394,1785 1374,1801 1365,1809 L 1326,1844 C 1333,1865 1341,1895 1350,1934 C 1366,1998 1377,2036 1383,2048 C 1389,2060 1395,2066 1401,2066 C 1406,2066 1412,2064 1419,2058 C 1434,2047 1451,2029 1468,2004 L 1484,2015 C 1452,2056 1427,2083 1409,2096 C 1392,2110 1376,2116 1361,2116 C 1349,2116 1339,2111 1332,2101 C 1320,2084 1300,2014 1272,1892 L 1211,1946 L 1164,2105 L 1094,2105 L 1244,1592 L 1256,1549 C 1258,1541 1258,1534 1258,1529 C 1258,1522 1256,1516 1250,1511 C 1245,1506 1237,1504 1226,1504 C 1219,1504 1208,1505 1193,1508 L 1193,1492 L 1349,1466 Z "  />
<path style="fill:#000000;fill-opacity:1.00;fill-rule:nonzero;stroke:none"  d="M 3318,1734 L 3404,864 C 3408,820 3410,790 3410,775 C 3410,751 3402,732 3384,717 C 3367,701 3340,694 3303,694 L 3275,694 L 3283,665 L 3695,665 L 3687,694 C 3642,694 3612,699 3595,707 C 3578,716 3565,731 3555,752 C 3550,763 3545,796 3539,849 L 3477,1472 L 3885,916 C 3929,855 3957,814 3968,790 C 3976,774 3980,760 3980,748 C 3980,734 3974,722 3962,712 C 3950,702 3928,696 3896,694 L 3905,665 L 4220,665 L 4212,694 C 4187,696 4167,700 4152,708 C 4124,722 4095,742 4067,769 C 4039,796 3995,851 3934,934 L 3345,1734 L 3318,1734 Z "  />
<path style="fill:#000000;fill-opacity:1.00;fill-rule:nonzero;stroke:none"  d="M 331,1734 L 417,864 C 421,820 423,790 423,775 C 423,751 415,732 398,717 C 380,701 353,694 316,694 L 289,694 L 296,665 L 709,665 L 700,694 C 656,694 625,699 608,707 C 591,716 578,731 568,752 C 563,763 558,796 552,849 L 491,1472 L 898,916 C 943,855 970,814 982,790 C 989,774 993,760 993,748 C 993,734 987,722 975,712 C 964,702 942,696 909,694 L 918,665 L 1233,665 L 1225,694 C 1200,696 1180,700 1165,708 C 1137,722 1109,742 1081,769 C 1053,796 1008,851 948,934 L 359,1734 L 331,1734 Z "  />
</svg>