<svg width="27px" height="23px" viewBox="0 0 2700 2300" version="1.1" xmlns="http://www.w3.org/2000/svg" xmlns:xlink="http://www.w3.org/1999/xlink">
<path style="fill:#000000;fill-opacity:1.00;fill-rule:nonzero;stroke:none"  d="M 2178,1464 L 2331,1389 L 2346,1389 L 2346,1919 C 2346,1954 2347,1976 2350,1985 C 2353,1993 2359,2000 2369,2004 C 2378,2009 2397,2012 2425,2012 L 2425,2029 L 2189,2029 L 2189,2012 C 2219,2012 2238,2009 2247,2005 C 2255,2000 2261,1994 2265,1987 C 2268,1979 2270,1957 2270,1919 L 2270,1580 C 2270,1535 2268,1506 2265,1493 C 2263,1483 2259,1475 2253,1471 C 2248,1466 2241,1464 2233,1464 C 2221,1464 2205,1469 2185,1478 L 2178,1464 Z "  />
<path style="fill:#000000;fill-opacity:1.00;fill-rule:nonzero;stroke:none"  d="M 1616,1763 L 2102,1763 L 2102,1809 L 1616,1809 L 1616,1763 Z "  />
<path style="fill:#000000;fill-opacity:1.00;fill-rule:nonzero;stroke:none"  d="M 1176,1637 L 1335,1611 L 1269,1836 C 1323,1744 1372,1679 1416,1642 C 1441,1621 1461,1611 1477,1611 C 1487,1611 1495,1614 1501,1620 C 1507,1626 1510,1635 1510,1646 C 1510,1666 1504,1686 1494,1704 C 1487,1718 1476,1725 1462,1725 C 1455,1725 1449,1723 1444,1718 C 1439,1714 1436,1707 1434,1697 C 1434,1691 1432,1687 1430,1685 C 1428,1683 1425,1682 1421,1682 C 1416,1682 1411,1683 1407,1685 C 1399,1690 1386,1702 1370,1721 C 1344,1752 1317,1791 1287,1839 C 1274,1859 1263,1882 1254,1908 C 1241,1943 1233,1964 1231,1971 L 1217,2029 L 1146,2029 L 1231,1742 C 1241,1709 1246,1685 1246,1671 C 1246,1666 1244,1661 1239,1657 C 1233,1652 1225,1650 1215,1650 C 1208,1650 1196,1651 1179,1654 L 1176,1637 Z "  />
<path style="fill:#000000;fill-opacity:1.00;fill-rule:nonzero;stroke:none"  d="M 1006,906 L 852,1444 L 834,1516 C 833,1523 832,1528 832,1533 C 832,1542 835,1549 840,1555 C 844,1560 850,1562 856,1562 C 863,1562 872,1558 883,1550 C 903,1534 931,1503 965,1455 L 992,1474 C 956,1529 918,1571 880,1599 C 841,1628 805,1643 773,1643 C 750,1643 733,1637 722,1626 C 710,1614 704,1598 704,1576 C 704,1550 710,1516 722,1474 L 739,1414 C 669,1505 606,1568 548,1604 C 506,1630 465,1643 425,1643 C 386,1643 353,1627 325,1595 C 297,1563 283,1519 283,1463 C 283,1379 308,1290 358,1197 C 409,1103 473,1029 551,973 C 611,928 669,906 723,906 C 755,906 782,915 803,931 C 825,948 841,976 852,1016 L 880,925 L 1006,906 Z M 724,947 C 690,947 655,963 616,995 C 563,1040 515,1106 473,1195 C 431,1283 410,1363 410,1434 C 410,1470 419,1498 437,1519 C 454,1540 475,1551 498,1551 C 556,1551 619,1508 686,1423 C 777,1310 822,1194 822,1075 C 822,1030 813,998 796,977 C 778,957 754,947 724,947 "  />
</svg>