<svg width="267px" height="41px" viewBox="0 0 26700 4100" version="1.1" xmlns="http://www.w3.org/2000/svg" xmlns:xlink="http://www.w3.org/1999/xlink">
<path style="fill:#000000;fill-opacity:1.00;fill-rule:nonzero;stroke:none"  d="M 8306,2075 L 8306,2119 C 8128,2030 7989,1900 7890,1729 C 7791,1557 7741,1369 7741,1165 C 7741,953 7794,760 7898,586 C 8002,411 8138,287 8306,212 L 8306,255 C 8222,301 8153,364 8099,445 C 8046,525 8005,628 7979,751 C 7952,875 7939,1004 7939,1139 C 7939,1291 7951,1428 7976,1551 C 8000,1674 8038,1776 8088,1856 C 8139,1937 8211,2010 8306,2075 "  />
<path style="fill:#000000;fill-opacity:1.00;fill-rule:nonzero;stroke:none"  d="M 25369,255 L 25369,212 C 25547,300 25686,429 25785,601 C 25885,773 25934,960 25934,1164 C 25934,1376 25882,1570 25778,1744 C 25673,1919 25537,2044 25369,2119 L 25369,2075 C 25454,2029 25523,1965 25577,1885 C 25631,1804 25671,1702 25697,1579 C 25724,1455 25737,1326 25737,1191 C 25737,1039 25725,902 25700,779 C 25676,656 25639,554 25588,473 C 25537,392 25464,319 25369,255 "  />
<path style="fill:#000000;fill-opacity:1.00;fill-rule:nonzero;stroke:none"  d="M 718,2101 L 252,2101 L 252,201 L 718,201 L 718,292 L 422,292 L 422,2010 L 718,2010 L 718,2101 Z "  />
<path style="fill:#000000;fill-opacity:1.00;fill-rule:nonzero;stroke:none"  d="M 25831,201 L 26298,201 L 26298,2101 L 25831,2101 L 25831,2010 L 26129,2010 L 26129,292 L 25831,292 L 25831,201 Z "  />
<path style="fill:none;stroke:#000000;stroke-width:66px;stroke-opacity:1.00;"  d="M 33,2278 L 26179,2278 "  />
<path style="fill:#000000;fill-opacity:1.00;fill-rule:nonzero;stroke:none"  d="M 13035,3318 L 13295,3720 C 13342,3791 13380,3837 13411,3857 C 13441,3876 13481,3886 13531,3886 L 13522,3915 L 13074,3915 L 13081,3886 C 13117,3883 13142,3874 13157,3861 C 13172,3847 13179,3832 13179,3815 C 13179,3800 13176,3785 13171,3770 C 13167,3760 13152,3734 13126,3694 L 12913,3360 L 12810,3708 C 12793,3764 12785,3801 12785,3821 C 12785,3840 12792,3855 12806,3865 C 12821,3876 12856,3883 12913,3886 L 12901,3915 L 12486,3915 L 12496,3886 C 12536,3885 12563,3882 12577,3876 C 12598,3866 12613,3854 12623,3840 C 12636,3819 12653,3775 12672,3708 L 12857,3074 C 12871,3025 12878,2986 12878,2957 C 12878,2936 12872,2920 12859,2909 C 12845,2898 12820,2893 12782,2893 L 12766,2893 L 12775,2864 L 13170,2864 L 13162,2893 C 13129,2892 13105,2896 13089,2904 C 13067,2915 13051,2929 13040,2946 C 13030,2963 13015,3005 12995,3074 L 12913,3343 L 13287,3062 C 13336,3025 13369,2995 13384,2974 C 13394,2960 13398,2948 13398,2937 C 13398,2928 13394,2919 13384,2910 C 13374,2901 13360,2896 13340,2893 L 13348,2864 L 13684,2864 L 13677,2893 C 13641,2899 13610,2907 13585,2917 C 13560,2927 13534,2941 13508,2959 C 13500,2964 13449,3002 13356,3074 L 13035,3318 Z "  />
<path style="fill:#000000;fill-opacity:1.00;fill-rule:nonzero;stroke:none"  d="M 20045,974 C 20062,1004 20074,1032 20081,1058 C 20088,1084 20095,1135 20101,1212 L 20135,1593 C 20166,1556 20211,1497 20270,1416 C 20299,1377 20334,1323 20376,1256 C 20401,1214 20416,1185 20422,1169 C 20425,1161 20427,1152 20427,1143 C 20427,1138 20425,1133 20421,1129 C 20418,1126 20408,1122 20393,1117 C 20378,1112 20365,1103 20355,1089 C 20345,1076 20340,1061 20340,1044 C 20340,1023 20346,1006 20359,993 C 20371,980 20386,974 20405,974 C 20428,974 20447,983 20463,1002 C 20479,1021 20487,1047 20487,1080 C 20487,1121 20473,1167 20445,1220 C 20417,1272 20364,1353 20284,1461 C 20205,1570 20108,1688 19995,1816 C 19917,1904 19859,1960 19822,1983 C 19784,2006 19752,2017 19725,2017 C 19709,2017 19695,2011 19683,1999 C 19670,1987 19664,1973 19664,1957 C 19664,1937 19673,1918 19689,1902 C 19706,1885 19724,1877 19744,1877 C 19754,1877 19763,1879 19770,1884 C 19774,1887 19778,1894 19783,1906 C 19788,1918 19793,1927 19797,1931 C 19799,1933 19802,1935 19806,1935 C 19809,1935 19815,1932 19822,1927 C 19851,1909 19884,1881 19922,1843 C 19971,1792 20008,1751 20032,1719 L 19988,1228 C 19981,1147 19970,1097 19956,1080 C 19941,1062 19917,1053 19883,1053 C 19872,1053 19853,1055 19825,1058 L 19818,1029 L 20045,974 Z "  />
<path style="fill:#000000;fill-opacity:1.00;fill-rule:nonzero;stroke:none"  d="M 18172,573 L 17905,1487 C 17891,1537 17884,1570 17884,1585 C 17884,1590 17886,1595 17890,1600 C 17895,1604 17899,1607 17904,1607 C 17910,1607 17918,1603 17928,1597 C 17945,1584 17975,1553 18016,1504 L 18042,1520 C 18005,1572 17968,1613 17930,1645 C 17892,1678 17856,1694 17823,1694 C 17806,1694 17791,1687 17780,1675 C 17768,1663 17763,1645 17763,1622 C 17763,1593 17770,1553 17786,1504 L 17816,1408 C 17741,1523 17673,1603 17612,1648 C 17569,1678 17529,1694 17490,1694 C 17451,1694 17416,1676 17387,1641 C 17358,1606 17344,1559 17344,1499 C 17344,1422 17368,1340 17417,1253 C 17466,1165 17531,1094 17612,1040 C 17675,996 17734,974 17787,974 C 17815,974 17839,979 17859,991 C 17879,1002 17899,1021 17918,1047 L 17994,778 C 18000,758 18005,743 18008,732 C 18015,711 18018,694 18018,681 C 18018,670 18014,661 18006,654 C 17995,645 17981,640 17964,640 C 17952,640 17933,642 17905,646 L 17905,617 L 18172,573 Z M 17884,1123 C 17884,1090 17875,1064 17856,1043 C 17837,1023 17812,1013 17783,1013 C 17718,1013 17650,1067 17579,1174 C 17509,1282 17474,1385 17474,1483 C 17474,1521 17482,1551 17499,1571 C 17516,1592 17537,1602 17560,1602 C 17614,1602 17682,1544 17763,1428 C 17844,1312 17884,1210 17884,1123 "  />
<path style="fill:#000000;fill-opacity:1.00;fill-rule:nonzero;stroke:none"  d="M 10834,974 C 10859,1001 10879,1027 10891,1054 C 10901,1073 10916,1122 10937,1201 L 11005,1098 C 11023,1074 11045,1050 11071,1028 C 11097,1005 11120,990 11139,981 C 11152,976 11165,974 11180,974 C 11203,974 11220,980 11234,991 C 11247,1003 11253,1018 11253,1035 C 11253,1054 11249,1068 11242,1075 C 11227,1088 11211,1095 11192,1095 C 11181,1095 11170,1092 11157,1088 C 11133,1079 11117,1075 11108,1075 C 11096,1075 11081,1082 11064,1097 C 11032,1124 10994,1176 10950,1253 L 11013,1519 C 11023,1560 11031,1584 11038,1592 C 11045,1600 11051,1604 11058,1604 C 11069,1604 11082,1598 11096,1587 C 11124,1563 11149,1532 11169,1494 L 11196,1508 C 11163,1569 11122,1619 11072,1659 C 11044,1682 11020,1694 11000,1694 C 10971,1694 10948,1677 10931,1645 C 10920,1625 10898,1538 10864,1384 C 10783,1524 10718,1614 10670,1655 C 10638,1681 10608,1694 10578,1694 C 10558,1694 10539,1686 10522,1671 C 10509,1660 10503,1644 10503,1625 C 10503,1608 10509,1594 10520,1583 C 10532,1571 10546,1566 10562,1566 C 10579,1566 10596,1574 10615,1590 C 10628,1602 10639,1608 10646,1608 C 10652,1608 10660,1604 10670,1596 C 10694,1576 10727,1534 10769,1469 C 10811,1404 10838,1357 10851,1328 C 10819,1202 10802,1136 10799,1129 C 10787,1095 10772,1071 10753,1057 C 10734,1043 10705,1036 10668,1036 C 10656,1036 10643,1037 10627,1038 L 10627,1010 L 10834,974 Z "  />
<path style="fill:#000000;fill-opacity:1.00;fill-rule:nonzero;stroke:none"  d="M 9015,573 L 8748,1487 C 8734,1537 8726,1570 8726,1585 C 8726,1590 8729,1595 8733,1600 C 8737,1604 8742,1607 8746,1607 C 8753,1607 8761,1603 8771,1597 C 8788,1584 8818,1553 8859,1504 L 8885,1520 C 8848,1572 8810,1613 8772,1645 C 8734,1678 8699,1694 8666,1694 C 8648,1694 8634,1687 8622,1675 C 8611,1663 8605,1645 8605,1622 C 8605,1593 8613,1553 8629,1504 L 8659,1408 C 8584,1523 8516,1603 8454,1648 C 8412,1678 8371,1694 8333,1694 C 8293,1694 8259,1676 8230,1641 C 8201,1606 8186,1559 8186,1499 C 8186,1422 8211,1340 8260,1253 C 8309,1165 8374,1094 8454,1040 C 8518,996 8576,974 8629,974 C 8657,974 8681,979 8702,991 C 8722,1002 8742,1021 8761,1047 L 8837,778 C 8843,758 8847,743 8851,732 C 8857,711 8860,694 8860,681 C 8860,670 8857,661 8849,654 C 8838,645 8824,640 8807,640 C 8795,640 8775,642 8748,646 L 8748,617 L 9015,573 Z M 8727,1123 C 8727,1090 8718,1064 8698,1043 C 8679,1023 8655,1013 8626,1013 C 8561,1013 8493,1067 8422,1174 C 8352,1282 8316,1385 8316,1483 C 8316,1521 8325,1551 8342,1571 C 8359,1592 8379,1602 8403,1602 C 8457,1602 8524,1544 8605,1428 C 8687,1312 8727,1210 8727,1123 "  />
<path style="fill:#000000;fill-opacity:1.00;fill-rule:nonzero;stroke:none"  d="M 6708,974 L 6661,1212 L 6632,1212 C 6630,1142 6615,1092 6588,1060 C 6561,1029 6528,1013 6488,1013 C 6456,1013 6431,1022 6412,1040 C 6393,1057 6384,1078 6384,1103 C 6384,1120 6387,1136 6395,1152 C 6402,1167 6419,1189 6444,1217 C 6511,1290 6555,1346 6574,1383 C 6594,1420 6604,1455 6604,1488 C 6604,1542 6581,1590 6537,1631 C 6492,1673 6436,1694 6367,1694 C 6330,1694 6287,1685 6239,1667 C 6222,1661 6209,1658 6199,1658 C 6176,1658 6158,1670 6147,1694 L 6118,1694 L 6165,1442 L 6194,1442 C 6197,1521 6213,1577 6243,1609 C 6272,1642 6312,1658 6364,1658 C 6403,1658 6434,1647 6457,1625 C 6480,1603 6491,1576 6491,1544 C 6491,1523 6487,1504 6479,1487 C 6465,1456 6434,1413 6388,1358 C 6342,1303 6312,1262 6299,1235 C 6286,1207 6279,1180 6279,1153 C 6279,1103 6297,1060 6334,1026 C 6370,991 6417,974 6474,974 C 6491,974 6506,975 6519,978 C 6527,979 6543,985 6570,995 C 6597,1005 6614,1010 6623,1010 C 6645,1010 6664,998 6679,974 L 6708,974 Z "  />
<path style="fill:#000000;fill-opacity:1.00;fill-rule:nonzero;stroke:none"  d="M 3257,974 C 3275,1004 3287,1032 3294,1058 C 3300,1084 3307,1135 3314,1212 L 3348,1593 C 3379,1556 3424,1497 3483,1416 C 3511,1377 3546,1323 3588,1256 C 3613,1214 3629,1185 3635,1169 C 3638,1161 3639,1152 3639,1143 C 3639,1138 3637,1133 3634,1129 C 3630,1126 3621,1122 3605,1117 C 3590,1112 3578,1103 3567,1089 C 3557,1076 3552,1061 3552,1044 C 3552,1023 3559,1006 3571,993 C 3583,980 3599,974 3617,974 C 3640,974 3660,983 3676,1002 C 3692,1021 3700,1047 3700,1080 C 3700,1121 3686,1167 3658,1220 C 3630,1272 3576,1353 3497,1461 C 3417,1570 3321,1688 3208,1816 C 3130,1904 3072,1960 3034,1983 C 2996,2006 2964,2017 2937,2017 C 2921,2017 2907,2011 2895,1999 C 2883,1987 2877,1973 2877,1957 C 2877,1937 2885,1918 2902,1902 C 2919,1885 2937,1877 2956,1877 C 2967,1877 2975,1879 2982,1884 C 2986,1887 2991,1894 2996,1906 C 3001,1918 3005,1927 3009,1931 C 3012,1933 3015,1935 3018,1935 C 3022,1935 3027,1932 3035,1927 C 3063,1909 3096,1881 3134,1843 C 3184,1792 3220,1751 3244,1719 L 3201,1228 C 3193,1147 3182,1097 3168,1080 C 3154,1062 3129,1053 3095,1053 C 3084,1053 3065,1055 3037,1058 L 3030,1029 L 3257,974 Z "  />
<path style="fill:#000000;fill-opacity:1.00;fill-rule:nonzero;stroke:none"  d="M 1384,573 L 1118,1487 C 1103,1537 1096,1570 1096,1585 C 1096,1590 1098,1595 1103,1600 C 1107,1604 1111,1607 1116,1607 C 1123,1607 1131,1603 1140,1597 C 1158,1584 1187,1553 1228,1504 L 1255,1520 C 1218,1572 1180,1613 1142,1645 C 1104,1678 1069,1694 1036,1694 C 1018,1694 1004,1687 992,1675 C 981,1663 975,1645 975,1622 C 975,1593 983,1553 998,1504 L 1029,1408 C 954,1523 885,1603 824,1648 C 782,1678 741,1694 702,1694 C 663,1694 629,1676 600,1641 C 570,1606 556,1559 556,1499 C 556,1422 580,1340 629,1253 C 679,1165 743,1094 824,1040 C 888,996 946,974 999,974 C 1027,974 1051,979 1071,991 C 1091,1002 1111,1021 1131,1047 L 1207,778 C 1212,758 1217,743 1221,732 C 1227,711 1230,694 1230,681 C 1230,670 1226,661 1218,654 C 1208,645 1194,640 1177,640 C 1165,640 1145,642 1118,646 L 1118,617 L 1384,573 Z M 1097,1123 C 1097,1090 1087,1064 1068,1043 C 1049,1023 1025,1013 995,1013 C 930,1013 862,1067 792,1174 C 721,1282 686,1385 686,1483 C 686,1521 695,1551 712,1571 C 729,1592 749,1602 773,1602 C 827,1602 894,1544 975,1428 C 1056,1312 1097,1210 1097,1123 "  />
<path style="fill:#000000;fill-opacity:1.00;fill-rule:nonzero;stroke:none"  d="M 24609,1653 L 24761,1163 C 24785,1084 24818,1028 24858,995 C 24899,961 24946,944 25001,944 C 25079,944 25138,978 25179,1046 C 25219,1114 25223,1199 25192,1300 C 25171,1368 25134,1434 25081,1498 C 25028,1562 24970,1610 24907,1640 C 24844,1671 24769,1690 24680,1697 L 24581,2017 L 24497,2017 L 24596,1697 C 24519,1690 24459,1671 24415,1640 C 24372,1609 24344,1562 24330,1498 C 24316,1435 24320,1369 24341,1301 C 24358,1244 24386,1191 24423,1142 C 24460,1093 24498,1054 24538,1026 C 24577,997 24614,977 24650,965 C 24687,953 24728,946 24776,944 L 24767,974 C 24719,977 24670,1004 24619,1053 C 24568,1102 24526,1180 24493,1287 C 24469,1365 24461,1432 24468,1487 C 24475,1542 24493,1583 24521,1611 C 24539,1628 24569,1642 24609,1653 M 24694,1652 C 24748,1646 24794,1634 24832,1615 C 24884,1590 24929,1553 24967,1506 C 25005,1458 25035,1401 25055,1335 C 25084,1241 25084,1164 25056,1102 C 25036,1058 25004,1036 24960,1036 C 24938,1036 24917,1045 24897,1065 C 24877,1084 24857,1125 24838,1188 L 24694,1652 Z "  />
<path style="fill:#000000;fill-opacity:1.00;fill-rule:nonzero;stroke:none"  d="M 15127,1653 L 15278,1163 C 15302,1084 15335,1028 15376,995 C 15416,961 15464,944 15518,944 C 15596,944 15656,978 15696,1046 C 15736,1114 15741,1199 15709,1300 C 15688,1368 15651,1434 15598,1498 C 15545,1562 15487,1610 15424,1640 C 15362,1671 15286,1690 15198,1697 L 15099,2017 L 15014,2017 L 15113,1697 C 15036,1690 14976,1671 14933,1640 C 14889,1609 14861,1562 14847,1498 C 14834,1435 14837,1369 14858,1301 C 14876,1244 14903,1191 14940,1142 C 14977,1093 15016,1054 15055,1026 C 15094,997 15132,977 15168,965 C 15204,953 15246,946 15293,944 L 15284,974 C 15236,977 15187,1004 15136,1053 C 15086,1102 15044,1180 15010,1287 C 14986,1365 14978,1432 14985,1487 C 14992,1542 15010,1583 15038,1611 C 15057,1628 15086,1642 15127,1653 M 15212,1652 C 15266,1646 15311,1634 15349,1615 C 15401,1590 15447,1553 15485,1506 C 15523,1458 15552,1401 15572,1335 C 15601,1241 15602,1164 15574,1102 C 15553,1058 15521,1036 15477,1036 C 15455,1036 15434,1045 15414,1065 C 15394,1084 15374,1125 15355,1188 L 15212,1652 Z "  />
<path style="fill:#000000;fill-opacity:1.00;fill-rule:nonzero;stroke:none"  d="M 22597,1405 C 22577,1499 22540,1571 22484,1621 C 22428,1671 22367,1697 22299,1697 C 22218,1697 22148,1663 22088,1595 C 22028,1527 21998,1436 21998,1321 C 21998,1209 22031,1119 22098,1049 C 22164,979 22244,944 22337,944 C 22407,944 22464,963 22509,1000 C 22554,1037 22576,1075 22576,1115 C 22576,1134 22570,1150 22557,1162 C 22545,1174 22527,1181 22504,1181 C 22474,1181 22451,1171 22435,1151 C 22427,1140 22421,1120 22418,1089 C 22415,1059 22405,1035 22387,1019 C 22368,1004 22343,996 22311,996 C 22260,996 22218,1015 22187,1053 C 22145,1104 22124,1171 22124,1254 C 22124,1339 22145,1414 22186,1478 C 22228,1543 22284,1576 22355,1576 C 22405,1576 22451,1558 22491,1524 C 22520,1500 22547,1457 22574,1394 L 22597,1405 Z M 23045,944 C 23153,944 23239,985 23304,1067 C 23359,1136 23387,1216 23387,1307 C 23387,1370 23372,1435 23341,1500 C 23311,1565 23269,1614 23215,1647 C 23162,1680 23102,1697 23037,1697 C 22930,1697 22845,1654 22782,1569 C 22729,1497 22702,1416 22702,1327 C 22702,1262 22718,1197 22750,1133 C 22783,1069 22825,1021 22878,990 C 22931,960 22986,944 23045,944 M 23021,995 C 22994,995 22966,1003 22939,1019 C 22911,1035 22889,1064 22872,1105 C 22855,1145 22846,1198 22846,1262 C 22846,1365 22867,1454 22908,1529 C 22949,1604 23003,1642 23070,1642 C 23120,1642 23161,1621 23194,1580 C 23227,1538 23243,1467 23243,1367 C 23243,1240 23216,1141 23161,1069 C 23125,1019 23078,995 23021,995 M 23950,944 L 23950,1186 L 23925,1186 C 23905,1110 23880,1058 23849,1031 C 23819,1004 23779,990 23732,990 C 23696,990 23666,999 23644,1019 C 23622,1038 23611,1059 23611,1082 C 23611,1111 23619,1136 23636,1157 C 23652,1178 23684,1200 23733,1224 L 23847,1279 C 23951,1330 24004,1398 24004,1481 C 24004,1546 23979,1598 23931,1637 C 23882,1677 23827,1697 23767,1697 C 23723,1697 23674,1689 23618,1673 C 23601,1668 23587,1666 23576,1666 C 23564,1666 23555,1672 23548,1686 L 23523,1686 L 23523,1432 L 23548,1432 C 23563,1505 23590,1559 23631,1596 C 23672,1633 23718,1651 23768,1651 C 23804,1651 23833,1640 23855,1620 C 23878,1599 23889,1573 23889,1544 C 23889,1508 23877,1478 23852,1454 C 23827,1430 23777,1399 23702,1362 C 23627,1325 23578,1291 23554,1261 C 23531,1232 23520,1194 23520,1150 C 23520,1091 23540,1042 23580,1003 C 23620,964 23671,944 23735,944 C 23763,944 23797,950 23836,962 C 23863,970 23880,974 23889,974 C 23897,974 23904,972 23909,968 C 23913,965 23919,957 23925,944 L 23950,944 Z "  />
<path style="fill:#000000;fill-opacity:1.00;fill-rule:nonzero;stroke:none"  d="M 20603,727 L 20859,602 L 20884,602 L 20884,1490 C 20884,1549 20887,1585 20892,1600 C 20897,1614 20907,1625 20922,1633 C 20938,1641 20969,1645 21017,1646 L 21017,1675 L 20622,1675 L 20622,1646 C 20671,1645 20703,1641 20718,1633 C 20732,1626 20742,1616 20748,1603 C 20754,1591 20757,1553 20757,1490 L 20757,923 C 20757,846 20754,797 20749,775 C 20745,759 20739,747 20729,739 C 20719,731 20708,727 20695,727 C 20675,727 20649,735 20615,751 L 20603,727 Z "  />
<path style="fill:#000000;fill-opacity:1.00;fill-rule:nonzero;stroke:none"  d="M 19347,2017 L 18527,2017 L 18527,1952 L 19347,1952 L 19347,2017 Z "  />
<path style="fill:#000000;fill-opacity:1.00;fill-rule:nonzero;stroke:none"  d="M 13170,944 L 13170,1186 L 13144,1186 C 13125,1110 13100,1058 13069,1031 C 13038,1004 12999,990 12951,990 C 12915,990 12886,999 12864,1019 C 12842,1038 12831,1059 12831,1082 C 12831,1111 12839,1136 12855,1157 C 12871,1178 12904,1200 12953,1224 L 13066,1279 C 13171,1330 13223,1398 13223,1481 C 13223,1546 13199,1598 13150,1637 C 13101,1677 13047,1697 12986,1697 C 12943,1697 12893,1689 12838,1673 C 12820,1668 12807,1666 12796,1666 C 12784,1666 12775,1672 12768,1686 L 12742,1686 L 12742,1432 L 12768,1432 C 12782,1505 12810,1559 12851,1596 C 12892,1633 12937,1651 12988,1651 C 13024,1651 13053,1640 13075,1620 C 13098,1599 13109,1573 13109,1544 C 13109,1508 13096,1478 13071,1454 C 13046,1430 12996,1399 12921,1362 C 12846,1325 12797,1291 12774,1261 C 12751,1232 12739,1194 12739,1150 C 12739,1091 12759,1042 12799,1003 C 12839,964 12891,944 12955,944 C 12982,944 13016,950 13056,962 C 13082,970 13100,974 13109,974 C 13117,974 13123,972 13128,968 C 13133,965 13138,957 13144,944 L 13170,944 Z M 13509,573 C 13531,573 13550,581 13565,596 C 13580,611 13588,630 13588,651 C 13588,673 13580,692 13565,707 C 13550,723 13531,730 13509,730 C 13488,730 13469,723 13454,707 C 13438,692 13430,673 13430,651 C 13430,630 13438,611 13453,596 C 13468,581 13487,573 13509,573 M 13574,944 L 13574,1515 C 13574,1559 13577,1589 13583,1603 C 13590,1618 13599,1629 13612,1636 C 13625,1643 13648,1647 13681,1647 L 13681,1675 L 13337,1675 L 13337,1647 C 13371,1647 13394,1644 13406,1637 C 13418,1630 13428,1619 13435,1604 C 13442,1588 13445,1558 13445,1515 L 13445,1241 C 13445,1164 13443,1114 13438,1091 C 13435,1075 13429,1063 13421,1057 C 13413,1050 13403,1047 13389,1047 C 13375,1047 13357,1051 13337,1059 L 13326,1031 L 13540,944 L 13574,944 Z M 13977,1095 C 14060,994 14139,944 14215,944 C 14253,944 14287,954 14315,973 C 14342,993 14365,1025 14381,1069 C 14393,1100 14398,1147 14398,1212 L 14398,1515 C 14398,1559 14402,1590 14409,1606 C 14415,1619 14424,1629 14437,1636 C 14449,1643 14473,1647 14507,1647 L 14507,1675 L 14156,1675 L 14156,1647 L 14170,1647 C 14203,1647 14227,1642 14240,1632 C 14253,1622 14262,1607 14267,1587 C 14269,1580 14270,1555 14270,1515 L 14270,1224 C 14270,1159 14262,1112 14245,1083 C 14228,1054 14200,1040 14160,1040 C 14099,1040 14038,1073 13977,1140 L 13977,1515 C 13977,1563 13980,1592 13985,1604 C 13992,1619 14002,1630 14015,1637 C 14028,1644 14053,1647 14092,1647 L 14092,1675 L 13741,1675 L 13741,1647 L 13757,1647 C 13793,1647 13817,1638 13830,1620 C 13843,1601 13849,1566 13849,1515 L 13849,1251 C 13849,1166 13847,1114 13843,1095 C 13839,1077 13833,1064 13825,1057 C 13817,1051 13806,1047 13793,1047 C 13779,1047 13761,1051 13741,1059 L 13730,1031 L 13943,944 L 13977,944 L 13977,1095 Z "  />
<path style="fill:#000000;fill-opacity:1.00;fill-rule:nonzero;stroke:none"  d="M 11346,727 L 11601,602 L 11627,602 L 11627,1490 C 11627,1549 11629,1585 11634,1600 C 11639,1614 11649,1625 11665,1633 C 11680,1641 11712,1645 11760,1646 L 11760,1675 L 11364,1675 L 11364,1646 C 11414,1645 11446,1641 11460,1633 C 11475,1626 11485,1616 11491,1603 C 11496,1591 11499,1553 11499,1490 L 11499,923 C 11499,846 11497,797 11491,775 C 11488,759 11481,747 11472,739 C 11462,731 11451,727 11437,727 C 11418,727 11391,735 11357,751 L 11346,727 Z "  />
<path style="fill:#000000;fill-opacity:1.00;fill-rule:nonzero;stroke:none"  d="M 10190,2017 L 9369,2017 L 9369,1952 L 10190,1952 L 10190,2017 Z "  />
<path style="fill:#000000;fill-opacity:1.00;fill-rule:nonzero;stroke:none"  d="M 4532,1473 L 4459,1675 L 3839,1675 L 3839,1646 C 4021,1480 4150,1344 4224,1239 C 4298,1133 4336,1037 4336,950 C 4336,883 4315,828 4274,785 C 4234,742 4185,721 4128,721 C 4076,721 4030,736 3989,766 C 3948,797 3917,841 3898,899 L 3869,899 C 3882,804 3915,730 3969,679 C 4022,628 4089,602 4169,602 C 4254,602 4325,630 4382,685 C 4440,739 4468,804 4468,878 C 4468,932 4456,985 4431,1038 C 4393,1122 4331,1210 4245,1304 C 4116,1444 4036,1529 4004,1558 L 4278,1558 C 4334,1558 4373,1556 4396,1552 C 4418,1548 4438,1539 4456,1527 C 4475,1514 4490,1496 4504,1473 L 4532,1473 Z "  />
<path style="fill:#000000;fill-opacity:1.00;fill-rule:nonzero;stroke:none"  d="M 2560,2017 L 1739,2017 L 1739,1952 L 2560,1952 L 2560,2017 Z "  />
<path style="fill:#000000;fill-opacity:1.00;fill-rule:nonzero;stroke:none"  d="M 21602,1269 C 21602,1293 21593,1313 21577,1330 C 21560,1347 21540,1355 21517,1355 C 21493,1355 21473,1347 21456,1330 C 21439,1313 21431,1293 21431,1269 C 21431,1245 21439,1225 21456,1208 C 21473,1191 21493,1183 21517,1183 C 21540,1183 21560,1191 21577,1208 C 21593,1225 21602,1245 21602,1269 "  />
<path style="fill:#000000;fill-opacity:1.00;fill-rule:nonzero;stroke:none"  d="M 16489,861 L 16565,861 L 16565,1232 L 16933,1232 L 16933,1307 L 16565,1307 L 16565,1675 L 16489,1675 L 16489,1307 L 16120,1307 L 16120,1232 L 16489,1232 L 16489,861 Z "  />
<path style="fill:#000000;fill-opacity:1.00;fill-rule:nonzero;stroke:none"  d="M 12344,1269 C 12344,1293 12336,1313 12319,1330 C 12303,1347 12283,1355 12259,1355 C 12235,1355 12215,1347 12198,1330 C 12182,1313 12173,1293 12173,1269 C 12173,1245 12182,1225 12198,1208 C 12215,1191 12235,1183 12259,1183 C 12283,1183 12303,1191 12319,1208 C 12336,1225 12344,1245 12344,1269 "  />
<path style="fill:#000000;fill-opacity:1.00;fill-rule:nonzero;stroke:none"  d="M 7317,1269 C 7317,1293 7309,1313 7292,1330 C 7275,1347 7255,1355 7232,1355 C 7208,1355 7188,1347 7171,1330 C 7155,1313 7146,1293 7146,1269 C 7146,1245 7155,1225 7171,1208 C 7188,1191 7208,1183 7232,1183 C 7255,1183 7275,1191 7292,1208 C 7309,1225 7317,1245 7317,1269 "  />
<path style="fill:#000000;fill-opacity:1.00;fill-rule:nonzero;stroke:none"  d="M 4935,1229 L 5748,1229 L 5748,1305 L 4935,1305 L 4935,1229 Z "  />
</svg>