<svg width="135px" height="21px" viewBox="0 0 13500 2100" version="1.1" xmlns="http://www.w3.org/2000/svg" xmlns:xlink="http://www.w3.org/1999/xlink">
<path style="fill:#000000;fill-opacity:1.00;fill-rule:nonzero;stroke:none"  d="M 12733,382 L 12733,350 C 12811,389 12876,434 12928,486 C 13001,561 13058,649 13098,750 C 13138,850 13158,955 13158,1065 C 13158,1224 13119,1369 13041,1500 C 12962,1631 12860,1724 12733,1781 L 12733,1752 C 12796,1717 12848,1669 12889,1609 C 12930,1548 12960,1472 12980,1379 C 13000,1286 13009,1189 13009,1088 C 13009,978 13001,879 12984,788 C 12971,718 12955,661 12936,619 C 12917,576 12891,535 12860,495 C 12828,456 12786,418 12733,382 "  />
<path style="fill:#000000;fill-opacity:1.00;fill-rule:nonzero;stroke:none"  d="M 11182,1752 L 11182,1781 C 11105,1742 11040,1696 10988,1644 C 10915,1569 10858,1482 10818,1381 C 10778,1280 10758,1175 10758,1066 C 10758,907 10797,762 10875,631 C 10954,500 11056,407 11182,350 L 11182,382 C 11119,417 11067,465 11027,525 C 10986,586 10956,663 10936,755 C 10916,848 10906,945 10906,1046 C 10906,1156 10915,1256 10931,1345 C 10945,1416 10961,1473 10980,1516 C 10999,1558 11024,1600 11056,1639 C 11089,1679 11130,1716 11182,1752 "  />
<path style="fill:#000000;fill-opacity:1.00;fill-rule:nonzero;stroke:none"  d="M 5917,382 L 5917,350 C 5994,389 6059,434 6111,486 C 6184,561 6241,649 6281,750 C 6321,850 6341,955 6341,1065 C 6341,1224 6302,1369 6224,1500 C 6146,1631 6043,1724 5917,1781 L 5917,1752 C 5980,1717 6032,1669 6072,1609 C 6113,1548 6143,1472 6163,1379 C 6183,1286 6193,1189 6193,1088 C 6193,978 6184,879 6167,788 C 6154,718 6138,661 6119,619 C 6100,576 6074,535 6043,495 C 6011,456 5969,418 5917,382 M 6490,1706 L 6490,1672 C 6543,1655 6584,1628 6613,1591 C 6642,1554 6656,1516 6656,1475 C 6656,1465 6654,1457 6649,1450 C 6646,1445 6642,1443 6639,1443 C 6633,1443 6621,1448 6602,1458 C 6593,1463 6583,1465 6573,1465 C 6547,1465 6527,1458 6513,1443 C 6498,1428 6490,1408 6490,1381 C 6490,1356 6500,1335 6519,1317 C 6538,1299 6562,1290 6589,1290 C 6623,1290 6653,1305 6680,1334 C 6706,1364 6719,1403 6719,1451 C 6719,1504 6701,1553 6664,1599 C 6628,1644 6570,1680 6490,1706 "  />
<path style="fill:#000000;fill-opacity:1.00;fill-rule:nonzero;stroke:none"  d="M 4716,1752 L 4716,1781 C 4639,1742 4574,1696 4522,1644 C 4449,1569 4392,1482 4352,1381 C 4312,1280 4292,1175 4292,1066 C 4292,907 4331,762 4409,631 C 4488,500 4590,407 4716,350 L 4716,382 C 4653,417 4601,465 4561,525 C 4520,586 4490,663 4470,755 C 4450,848 4440,945 4440,1046 C 4440,1156 4449,1256 4466,1345 C 4479,1416 4495,1473 4514,1516 C 4533,1558 4558,1600 4590,1639 C 4623,1679 4664,1716 4716,1752 "  />
<path style="fill:#000000;fill-opacity:1.00;fill-rule:nonzero;stroke:none"  d="M 11332,1468 L 11422,599 C 11426,565 11428,540 11428,522 C 11428,492 11419,469 11402,454 C 11385,439 11355,430 11311,429 L 11319,401 L 11710,401 L 11701,429 C 11649,429 11613,438 11594,457 C 11575,477 11562,524 11554,599 L 11497,1162 L 11893,550 C 11893,540 11894,531 11894,524 C 11894,495 11885,473 11868,458 C 11851,442 11815,433 11759,429 L 11765,401 L 12187,401 L 12179,429 C 12130,430 12097,434 12080,442 C 12068,447 12058,456 12049,469 C 12041,482 12034,503 12029,533 C 12027,542 12021,601 12010,712 C 11999,822 11983,972 11960,1162 L 12290,660 C 12326,605 12349,567 12358,545 C 12367,523 12372,504 12372,489 C 12372,474 12366,462 12353,450 C 12341,439 12320,432 12290,429 L 12297,401 L 12606,401 L 12598,429 C 12571,431 12547,438 12526,449 C 12505,461 12480,482 12451,514 C 12435,532 12401,581 12350,660 L 11826,1468 L 11797,1468 L 11882,660 L 11358,1468 L 11332,1468 Z "  />
<path style="fill:#000000;fill-opacity:1.00;fill-rule:nonzero;stroke:none"  d="M 9751,1468 L 9838,1081 L 9864,1081 C 9860,1118 9858,1149 9858,1174 C 9858,1244 9881,1301 9926,1345 C 9971,1389 10029,1411 10101,1411 C 10169,1411 10220,1391 10254,1350 C 10289,1308 10307,1261 10307,1207 C 10307,1172 10299,1140 10283,1112 C 10259,1069 10194,994 10090,887 C 10039,836 10007,797 9992,772 C 9969,731 9957,687 9957,642 C 9957,569 9984,507 10038,455 C 10093,403 10162,377 10248,377 C 10276,377 10303,380 10329,386 C 10345,389 10374,399 10416,416 C 10446,428 10462,434 10465,435 C 10472,437 10480,438 10489,438 C 10504,438 10517,434 10527,426 C 10538,419 10551,402 10565,377 L 10594,377 L 10514,723 L 10488,723 C 10490,692 10491,667 10491,649 C 10491,586 10471,536 10430,496 C 10389,457 10335,437 10268,437 C 10214,437 10171,453 10138,484 C 10104,515 10088,551 10088,592 C 10088,628 10098,663 10119,695 C 10141,728 10190,781 10266,854 C 10343,928 10393,985 10415,1027 C 10438,1068 10449,1112 10449,1158 C 10449,1211 10435,1262 10407,1312 C 10379,1361 10339,1400 10287,1427 C 10234,1454 10177,1468 10115,1468 C 10084,1468 10056,1465 10029,1459 C 10002,1453 9960,1440 9901,1418 C 9881,1410 9865,1406 9851,1406 C 9821,1406 9798,1427 9781,1468 L 9751,1468 Z "  />
<path style="fill:#000000;fill-opacity:1.00;fill-rule:nonzero;stroke:none"  d="M 7292,429 L 7303,401 L 7675,401 C 7738,401 7793,411 7842,430 C 7891,450 7928,477 7952,512 C 7977,546 7989,583 7989,622 C 7989,682 7967,737 7924,785 C 7881,833 7810,869 7712,892 C 7775,916 7822,947 7851,986 C 7881,1025 7896,1068 7896,1115 C 7896,1166 7883,1216 7856,1263 C 7829,1310 7795,1347 7753,1373 C 7711,1399 7661,1418 7602,1431 C 7560,1439 7494,1444 7405,1444 L 7023,1444 L 7033,1415 C 7073,1414 7100,1410 7114,1404 C 7135,1395 7150,1384 7158,1369 C 7171,1350 7187,1305 7208,1235 L 7394,604 C 7410,551 7418,513 7418,492 C 7418,473 7411,458 7397,447 C 7383,436 7356,430 7317,430 C 7308,430 7300,430 7292,429 M 7448,862 C 7482,863 7506,864 7521,864 C 7627,864 7707,841 7759,794 C 7811,748 7837,690 7837,620 C 7837,567 7821,526 7789,497 C 7757,467 7706,452 7637,452 C 7618,452 7595,455 7566,462 L 7448,862 Z M 7297,1376 C 7352,1383 7395,1387 7427,1387 C 7507,1387 7578,1363 7639,1315 C 7701,1266 7732,1201 7732,1118 C 7732,1055 7713,1006 7675,971 C 7637,935 7575,918 7490,918 C 7473,918 7453,918 7430,920 L 7297,1376 Z "  />
<path style="fill:#000000;fill-opacity:1.00;fill-rule:nonzero;stroke:none"  d="M 5740,377 L 5661,1245 C 5657,1285 5655,1312 5655,1325 C 5655,1345 5659,1361 5666,1371 C 5676,1386 5689,1397 5706,1405 C 5723,1412 5751,1415 5790,1415 L 5782,1444 L 5371,1444 L 5380,1415 L 5397,1415 C 5431,1415 5458,1408 5479,1394 C 5494,1384 5505,1368 5513,1345 C 5519,1329 5524,1292 5529,1233 L 5542,1101 L 5243,1101 L 5137,1245 C 5113,1277 5098,1300 5092,1314 C 5086,1328 5083,1341 5083,1354 C 5083,1370 5089,1384 5103,1396 C 5116,1408 5138,1414 5169,1415 L 5160,1444 L 4852,1444 L 4860,1415 C 4898,1414 4932,1401 4961,1377 C 4990,1353 5033,1302 5090,1225 L 5713,377 L 5740,377 Z M 5588,633 L 5286,1045 L 5548,1045 L 5588,633 Z "  />
<path style="fill:#000000;fill-opacity:1.00;fill-rule:nonzero;stroke:none"  d="M 3586,456 L 3463,869 L 3600,869 C 3662,869 3708,860 3738,841 C 3769,822 3800,781 3833,719 L 3862,719 L 3753,1099 L 3723,1099 C 3730,1068 3734,1043 3734,1023 C 3734,992 3724,968 3703,950 C 3682,933 3643,925 3586,925 L 3448,925 L 3357,1239 C 3341,1295 3333,1332 3333,1351 C 3333,1370 3340,1384 3354,1395 C 3368,1405 3402,1412 3457,1415 L 3448,1444 L 3036,1444 L 3046,1415 C 3086,1414 3112,1411 3126,1405 C 3146,1396 3161,1384 3171,1369 C 3185,1348 3201,1305 3220,1239 L 3404,611 C 3419,560 3426,520 3426,492 C 3426,478 3423,467 3416,457 C 3410,448 3400,441 3387,436 C 3374,432 3348,429 3309,429 L 3318,401 L 4127,401 L 4050,665 L 4021,665 C 4027,633 4029,607 4029,586 C 4029,552 4020,526 4001,506 C 3983,486 3959,472 3929,464 C 3909,459 3863,456 3792,456 L 3586,456 Z "  />
<path style="fill:#000000;fill-opacity:1.00;fill-rule:nonzero;stroke:none"  d="M 525,429 L 536,401 L 908,401 C 971,401 1027,411 1076,430 C 1125,450 1161,477 1186,512 C 1210,546 1222,583 1222,622 C 1222,682 1201,737 1157,785 C 1114,833 1043,869 945,892 C 1008,916 1055,947 1085,986 C 1114,1025 1129,1068 1129,1115 C 1129,1166 1116,1216 1089,1263 C 1062,1310 1028,1347 986,1373 C 945,1399 894,1418 835,1431 C 793,1439 728,1444 638,1444 L 256,1444 L 266,1415 C 306,1414 333,1410 348,1404 C 368,1395 383,1384 392,1369 C 404,1350 420,1305 441,1235 L 628,604 C 644,551 652,513 652,492 C 652,473 644,458 630,447 C 616,436 590,430 550,430 C 541,430 533,430 525,429 M 682,862 C 715,863 739,864 754,864 C 860,864 940,841 992,794 C 1044,748 1070,690 1070,620 C 1070,567 1054,526 1022,497 C 990,467 940,452 870,452 C 852,452 828,455 799,462 L 682,862 Z M 530,1376 C 585,1383 629,1387 660,1387 C 740,1387 811,1363 873,1315 C 934,1266 965,1201 965,1118 C 965,1055 946,1006 908,971 C 870,935 808,918 723,918 C 707,918 687,918 663,920 L 530,1376 Z "  />
<path style="fill:#000000;fill-opacity:1.00;fill-rule:nonzero;stroke:none"  d="M 9233,739 L 9233,813 L 8915,813 C 8847,813 8790,824 8744,846 C 8697,868 8661,898 8635,937 C 8617,965 8603,1004 8593,1054 L 9233,1054 L 9233,1131 L 8594,1131 C 8615,1213 8650,1273 8701,1311 C 8751,1350 8823,1369 8917,1369 L 9233,1369 L 9233,1444 L 8927,1444 C 8836,1444 8763,1430 8707,1404 C 8651,1377 8605,1335 8570,1276 C 8534,1218 8517,1156 8517,1091 C 8517,992 8552,908 8623,841 C 8694,773 8794,739 8924,739 L 9233,739 Z "  />
<path style="fill:#000000;fill-opacity:1.00;fill-rule:nonzero;stroke:none"  d="M 1749,860 L 2557,860 L 2557,935 L 1749,935 L 1749,860 Z M 1749,1147 L 2557,1147 L 2557,1223 L 1749,1223 L 1749,1147 Z "  />
</svg>