<svg width="432px" height="74px" viewBox="0 0 43200 7400" version="1.1" xmlns="http://www.w3.org/2000/svg" xmlns:xlink="http://www.w3.org/1999/xlink">
<path style="fill:#000000;fill-opacity:1.00;fill-rule:nonzero;stroke:none"  d="M 13964,3317 L 13964,3382 C 13701,3251 13497,3059 13350,2806 C 13204,2553 13131,2276 13131,1975 C 13131,1662 13208,1377 13362,1120 C 13516,863 13716,679 13964,568 L 13964,631 C 13840,700 13739,793 13659,912 C 13580,1031 13520,1182 13481,1364 C 13442,1547 13422,1737 13422,1936 C 13422,2160 13440,2363 13476,2544 C 13513,2725 13568,2875 13642,2995 C 13717,3114 13824,3221 13964,3317 "  />
<path style="fill:#000000;fill-opacity:1.00;fill-rule:nonzero;stroke:none"  d="M 39609,631 L 39609,568 C 39872,698 40076,889 40223,1142 C 40369,1396 40442,1673 40442,1973 C 40442,2286 40365,2572 40211,2829 C 40057,3087 39857,3271 39609,3382 L 39609,3317 C 39734,3249 39836,3155 39916,3036 C 39995,2917 40054,2767 40093,2585 C 40132,2403 40151,2212 40151,2013 C 40151,1789 40133,1587 40097,1405 C 40062,1223 40006,1073 39931,954 C 39856,834 39749,727 39609,631 "  />
<path style="fill:#000000;fill-opacity:1.00;fill-rule:nonzero;stroke:none"  d="M 13964,6891 L 13964,6956 C 13701,6825 13497,6633 13350,6380 C 13204,6127 13131,5850 13131,5549 C 13131,5236 13208,4951 13362,4694 C 13516,4437 13716,4253 13964,4142 L 13964,4206 C 13840,4274 13739,4368 13659,4487 C 13580,4605 13520,4756 13481,4939 C 13442,5121 13422,5312 13422,5510 C 13422,5734 13440,5937 13476,6118 C 13513,6300 13568,6450 13642,6569 C 13717,6688 13824,6796 13964,6891 "  />
<path style="fill:#000000;fill-opacity:1.00;fill-rule:nonzero;stroke:none"  d="M 39623,4206 L 39623,4142 C 39886,4272 40091,4464 40237,4717 C 40383,4970 40457,5247 40457,5548 C 40457,5861 40380,6146 40226,6404 C 40072,6661 39871,6846 39623,6956 L 39623,6891 C 39748,6823 39850,6729 39930,6611 C 40009,6492 40068,6341 40107,6159 C 40146,5977 40165,5786 40165,5587 C 40165,5364 40147,5161 40112,4979 C 40076,4798 40021,4647 39946,4528 C 39871,4409 39763,4301 39623,4206 "  />
<path style="fill:#000000;fill-opacity:1.00;fill-rule:nonzero;stroke:none"  d="M 11429,4913 L 9573,4913 L 9573,4863 L 10519,3688 L 9573,2532 L 9573,2480 L 11380,2480 L 11418,2957 L 11361,2957 C 11346,2827 11310,2734 11252,2678 C 11194,2622 11113,2595 11009,2595 L 9963,2595 L 10758,3566 L 9868,4665 L 11025,4665 C 11091,4665 11163,4652 11241,4626 C 11295,4609 11339,4577 11375,4531 C 11410,4485 11440,4414 11463,4317 L 11520,4327 L 11429,4913 Z "  />
<path style="fill:#000000;fill-opacity:1.00;fill-rule:nonzero;stroke:none"  d="M 9580,5605 L 10157,5605 L 10157,5659 L 9580,5659 L 9580,5605 Z M 9580,5810 L 10157,5810 L 10157,5865 L 9580,5865 L 9580,5810 Z "  />
<path style="fill:#000000;fill-opacity:1.00;fill-rule:nonzero;stroke:none"  d="M 42793,4139 L 42884,4139 L 42884,6084 L 42793,6084 L 42793,4139 Z "  />
<path style="fill:#000000;fill-opacity:1.00;fill-rule:nonzero;stroke:none"  d="M 42793,2289 L 42884,2289 L 42884,4234 L 42793,4234 L 42793,2289 Z "  />
<path style="fill:#000000;fill-opacity:1.00;fill-rule:nonzero;stroke:none"  d="M 42792,5014 L 42884,5014 L 42884,6958 L 42222,6958 L 42222,6867 L 42792,6867 L 42792,5014 Z "  />
<path style="fill:#000000;fill-opacity:1.00;fill-rule:nonzero;stroke:none"  d="M 42222,439 L 42884,439 L 42884,2384 L 42792,2384 L 42792,531 L 42222,531 L 42222,439 Z "  />
<path style="fill:#000000;fill-opacity:1.00;fill-rule:nonzero;stroke:none"  d="M 12375,6084 L 12284,6084 L 12284,4139 L 12375,4139 L 12375,6084 Z "  />
<path style="fill:#000000;fill-opacity:1.00;fill-rule:nonzero;stroke:none"  d="M 12375,4234 L 12284,4234 L 12284,2289 L 12375,2289 L 12375,4234 Z "  />
<path style="fill:#000000;fill-opacity:1.00;fill-rule:nonzero;stroke:none"  d="M 12946,6958 L 12284,6958 L 12284,5014 L 12375,5014 L 12375,6867 L 12946,6867 L 12946,6958 Z "  />
<path style="fill:#000000;fill-opacity:1.00;fill-rule:nonzero;stroke:none"  d="M 12375,2384 L 12284,2384 L 12284,439 L 12946,439 L 12946,531 L 12375,531 L 12375,2384 Z "  />
<path style="fill:#000000;fill-opacity:1.00;fill-rule:nonzero;stroke:none"  d="M 35431,5751 L 36420,5751 L 36420,5844 L 35431,5844 L 35431,5751 Z "  />
<path style="fill:#000000;fill-opacity:1.00;fill-rule:nonzero;stroke:none"  d="M 33362,5304 L 33454,5304 L 33454,5755 L 33902,5755 L 33902,5846 L 33454,5846 L 33454,6294 L 33362,6294 L 33362,5846 L 32912,5846 L 32912,5755 L 33362,5755 L 33362,5304 Z "  />
<path style="fill:#000000;fill-opacity:1.00;fill-rule:nonzero;stroke:none"  d="M 29663,5800 C 29663,5829 29653,5854 29633,5874 C 29612,5895 29588,5905 29560,5905 C 29531,5905 29506,5895 29486,5874 C 29465,5854 29455,5829 29455,5800 C 29455,5771 29465,5747 29486,5726 C 29506,5706 29531,5695 29560,5695 C 29588,5695 29612,5706 29633,5726 C 29653,5747 29663,5771 29663,5800 "  />
<path style="fill:#000000;fill-opacity:1.00;fill-rule:nonzero;stroke:none"  d="M 25046,5800 C 25046,5829 25035,5854 25015,5874 C 24995,5895 24970,5905 24942,5905 C 24913,5905 24888,5895 24868,5874 C 24848,5854 24837,5829 24837,5800 C 24837,5771 24848,5747 24868,5726 C 24888,5706 24913,5695 24942,5695 C 24970,5695 24995,5706 25015,5726 C 25035,5747 25046,5771 25046,5800 "  />
<path style="fill:#000000;fill-opacity:1.00;fill-rule:nonzero;stroke:none"  d="M 22838,5304 L 22931,5304 L 22931,5755 L 23378,5755 L 23378,5846 L 22931,5846 L 22931,6294 L 22838,6294 L 22838,5846 L 22389,5846 L 22389,5755 L 22838,5755 L 22838,5304 Z "  />
<path style="fill:#000000;fill-opacity:1.00;fill-rule:nonzero;stroke:none"  d="M 19207,5800 C 19207,5829 19197,5854 19176,5874 C 19156,5895 19131,5905 19103,5905 C 19074,5905 19050,5895 19029,5874 C 19009,5854 18999,5829 18999,5800 C 18999,5771 19009,5747 19029,5726 C 19050,5706 19074,5695 19103,5695 C 19131,5695 19156,5706 19176,5726 C 19197,5747 19207,5771 19207,5800 "  />
<path style="fill:#000000;fill-opacity:1.00;fill-rule:nonzero;stroke:none"  d="M 14842,5800 C 14842,5829 14832,5854 14811,5874 C 14791,5895 14767,5905 14738,5905 C 14709,5905 14685,5895 14664,5874 C 14644,5854 14634,5829 14634,5800 C 14634,5771 14644,5747 14664,5726 C 14685,5706 14709,5695 14738,5695 C 14767,5695 14791,5706 14811,5726 C 14832,5747 14842,5771 14842,5800 "  />
<path style="fill:#000000;fill-opacity:1.00;fill-rule:nonzero;stroke:none"  d="M 41586,1730 L 41678,1730 L 41678,2181 L 42126,2181 L 42126,2272 L 41678,2272 L 41678,2720 L 41586,2720 L 41586,2272 L 41136,2272 L 41136,2181 L 41586,2181 L 41586,1730 Z "  />
<path style="fill:#000000;fill-opacity:1.00;fill-rule:nonzero;stroke:none"  d="M 35483,2177 L 36473,2177 L 36473,2270 L 35483,2270 L 35483,2177 Z "  />
<path style="fill:#000000;fill-opacity:1.00;fill-rule:nonzero;stroke:none"  d="M 33333,1730 L 33425,1730 L 33425,2181 L 33873,2181 L 33873,2272 L 33425,2272 L 33425,2720 L 33333,2720 L 33333,2272 L 32883,2272 L 32883,2181 L 33333,2181 L 33333,1730 Z "  />
<path style="fill:#000000;fill-opacity:1.00;fill-rule:nonzero;stroke:none"  d="M 29635,2226 C 29635,2255 29625,2279 29604,2300 C 29584,2320 29559,2330 29531,2330 C 29502,2330 29477,2320 29457,2300 C 29437,2279 29426,2255 29426,2226 C 29426,2197 29437,2172 29457,2152 C 29477,2131 29502,2121 29531,2121 C 29559,2121 29584,2131 29604,2152 C 29625,2172 29635,2197 29635,2226 "  />
<path style="fill:#000000;fill-opacity:1.00;fill-rule:nonzero;stroke:none"  d="M 25270,2226 C 25270,2255 25260,2279 25239,2300 C 25219,2320 25194,2330 25166,2330 C 25137,2330 25113,2320 25092,2300 C 25072,2279 25062,2255 25062,2226 C 25062,2197 25072,2172 25092,2152 C 25113,2131 25137,2121 25166,2121 C 25194,2121 25219,2131 25239,2152 C 25260,2172 25270,2197 25270,2226 "  />
<path style="fill:#000000;fill-opacity:1.00;fill-rule:nonzero;stroke:none"  d="M 22641,2177 L 23631,2177 L 23631,2270 L 22641,2270 L 22641,2177 Z "  />
<path style="fill:#000000;fill-opacity:1.00;fill-rule:nonzero;stroke:none"  d="M 19460,2226 C 19460,2255 19449,2279 19429,2300 C 19409,2320 19384,2330 19356,2330 C 19327,2330 19302,2320 19282,2300 C 19262,2279 19251,2255 19251,2226 C 19251,2197 19262,2172 19282,2152 C 19302,2131 19327,2121 19356,2121 C 19384,2121 19409,2131 19429,2152 C 19449,2172 19460,2197 19460,2226 "  />
<path style="fill:#000000;fill-opacity:1.00;fill-rule:nonzero;stroke:none"  d="M 14842,2226 C 14842,2255 14832,2279 14811,2300 C 14791,2320 14767,2330 14738,2330 C 14709,2330 14685,2320 14664,2300 C 14644,2279 14634,2255 14634,2226 C 14634,2197 14644,2172 14664,2152 C 14685,2131 14709,2121 14738,2121 C 14767,2121 14791,2131 14811,2152 C 14832,2172 14842,2197 14842,2226 "  />
<path style="fill:#000000;fill-opacity:1.00;fill-rule:nonzero;stroke:none"  d="M 7562,3467 L 8552,3467 L 8552,3559 L 7562,3559 L 7562,3467 Z M 7562,3819 L 8552,3819 L 8552,3912 L 7562,3912 L 7562,3819 Z "  />
<path style="fill:#000000;fill-opacity:1.00;fill-rule:nonzero;stroke:none"  d="M 11560,5599 L 11745,5884 C 11778,5935 11805,5967 11827,5981 C 11849,5995 11877,6002 11912,6002 L 11906,6023 L 11588,6023 L 11593,6002 C 11619,6000 11636,5994 11647,5984 C 11657,5975 11663,5964 11663,5952 C 11663,5941 11661,5930 11657,5920 C 11654,5912 11644,5894 11625,5866 L 11474,5629 L 11401,5876 C 11389,5915 11383,5942 11383,5955 C 11383,5969 11388,5980 11398,5987 C 11408,5995 11434,6000 11474,6002 L 11465,6023 L 11170,6023 L 11178,6002 C 11206,6001 11225,5999 11235,5995 C 11250,5988 11261,5979 11268,5969 C 11277,5954 11289,5923 11303,5876 L 11434,5425 C 11444,5391 11449,5363 11449,5342 C 11449,5328 11445,5317 11435,5309 C 11426,5301 11408,5297 11381,5297 L 11370,5297 L 11376,5277 L 11656,5277 L 11650,5297 C 11627,5297 11610,5300 11599,5305 C 11583,5313 11571,5323 11564,5335 C 11557,5347 11546,5377 11532,5425 L 11474,5617 L 11739,5417 C 11774,5391 11797,5370 11808,5355 C 11815,5345 11818,5336 11818,5329 C 11818,5322 11815,5316 11808,5309 C 11801,5303 11791,5299 11777,5297 L 11782,5277 L 12021,5277 L 12016,5297 C 11990,5302 11968,5307 11950,5315 C 11933,5322 11914,5332 11896,5344 C 11890,5348 11854,5375 11788,5425 L 11560,5599 Z "  />
<path style="fill:#000000;fill-opacity:1.00;fill-rule:nonzero;stroke:none"  d="M 9281,5241 L 9125,5781 L 9187,5728 C 9256,5670 9300,5627 9321,5599 C 9328,5590 9331,5583 9331,5578 C 9331,5575 9330,5572 9328,5569 C 9325,5566 9321,5564 9315,5562 C 9308,5560 9297,5559 9281,5559 L 9262,5559 L 9268,5538 L 9508,5538 L 9502,5559 C 9475,5561 9451,5565 9431,5572 C 9411,5579 9392,5590 9373,5604 C 9336,5631 9312,5650 9300,5661 L 9253,5703 C 9261,5729 9271,5766 9283,5813 C 9302,5892 9316,5938 9323,5953 C 9330,5967 9337,5975 9344,5975 C 9350,5975 9358,5972 9366,5965 C 9385,5951 9405,5929 9427,5899 L 9446,5913 C 9406,5963 9376,5996 9355,6012 C 9333,6028 9314,6036 9296,6036 C 9281,6036 9269,6030 9261,6018 C 9246,5996 9221,5911 9187,5762 L 9112,5827 L 9055,6023 L 8970,6023 L 9152,5395 L 9168,5342 C 9169,5333 9170,5325 9170,5318 C 9170,5309 9167,5302 9160,5296 C 9153,5290 9144,5287 9131,5287 C 9122,5287 9109,5289 9091,5292 L 9091,5273 L 9281,5241 Z "  />
<path style="fill:#000000;fill-opacity:1.00;fill-rule:nonzero;stroke:none"  d="M 38314,4932 C 38326,4953 38335,4973 38340,4991 C 38344,5010 38349,5046 38354,5101 L 38378,5371 C 38400,5345 38432,5303 38474,5246 C 38494,5218 38519,5180 38548,5132 C 38566,5103 38577,5082 38581,5070 C 38584,5064 38585,5058 38585,5052 C 38585,5048 38584,5045 38581,5042 C 38578,5040 38572,5037 38561,5033 C 38550,5030 38541,5023 38534,5014 C 38527,5005 38523,4994 38523,4982 C 38523,4967 38528,4955 38536,4945 C 38545,4936 38556,4932 38569,4932 C 38586,4932 38599,4938 38611,4952 C 38622,4965 38628,4984 38628,5007 C 38628,5036 38618,5069 38598,5106 C 38578,5144 38540,5201 38484,5278 C 38427,5355 38359,5439 38279,5529 C 38223,5592 38182,5632 38155,5648 C 38129,5664 38106,5672 38087,5672 C 38075,5672 38065,5668 38057,5659 C 38048,5651 38044,5641 38044,5629 C 38044,5615 38050,5602 38062,5590 C 38074,5579 38086,5573 38100,5573 C 38108,5573 38114,5575 38119,5578 C 38121,5580 38125,5585 38128,5593 C 38132,5602 38135,5608 38138,5611 C 38140,5613 38142,5614 38144,5614 C 38147,5614 38150,5612 38156,5608 C 38176,5596 38200,5576 38226,5549 C 38261,5513 38288,5483 38304,5461 L 38274,5112 C 38268,5055 38261,5020 38250,5007 C 38240,4995 38223,4988 38199,4988 C 38191,4988 38177,4989 38158,4992 L 38153,4971 L 38314,4932 Z "  />
<path style="fill:#000000;fill-opacity:1.00;fill-rule:nonzero;stroke:none"  d="M 37974,5995 L 37818,6535 L 37881,6482 C 37949,6424 37994,6381 38014,6353 C 38021,6344 38024,6337 38024,6332 C 38024,6329 38023,6326 38021,6323 C 38019,6320 38015,6318 38008,6316 C 38002,6314 37990,6313 37974,6313 L 37955,6313 L 37961,6292 L 38201,6292 L 38196,6313 C 38168,6315 38145,6319 38125,6326 C 38105,6333 38085,6344 38067,6358 C 38030,6385 38005,6404 37994,6415 L 37946,6457 C 37954,6483 37964,6520 37976,6567 C 37996,6646 38009,6692 38016,6707 C 38023,6721 38030,6729 38038,6729 C 38044,6729 38051,6726 38060,6719 C 38079,6706 38099,6683 38121,6653 L 38140,6667 C 38100,6717 38069,6750 38048,6766 C 38027,6782 38007,6790 37990,6790 C 37974,6790 37962,6784 37954,6772 C 37939,6750 37915,6665 37881,6516 L 37806,6581 L 37749,6777 L 37663,6777 L 37846,6149 L 37861,6096 C 37863,6087 37864,6079 37864,6072 C 37864,6063 37860,6056 37854,6050 C 37847,6044 37837,6041 37824,6041 C 37816,6041 37802,6043 37784,6046 L 37784,6027 L 37974,5995 Z "  />
<path style="fill:#000000;fill-opacity:1.00;fill-rule:nonzero;stroke:none"  d="M 31607,4932 C 31619,4953 31628,4973 31632,4991 C 31637,5010 31642,5046 31647,5101 L 31671,5371 C 31693,5345 31725,5303 31767,5246 C 31787,5218 31812,5180 31841,5132 C 31859,5103 31870,5082 31874,5070 C 31877,5064 31878,5058 31878,5052 C 31878,5048 31876,5045 31874,5042 C 31871,5040 31865,5037 31854,5033 C 31843,5030 31834,5023 31827,5014 C 31820,5005 31816,4994 31816,4982 C 31816,4967 31821,4955 31829,4945 C 31838,4936 31849,4932 31862,4932 C 31878,4932 31892,4938 31904,4952 C 31915,4965 31921,4984 31921,5007 C 31921,5036 31911,5069 31891,5106 C 31871,5144 31833,5201 31777,5278 C 31720,5355 31652,5439 31571,5529 C 31516,5592 31475,5632 31448,5648 C 31422,5664 31399,5672 31380,5672 C 31368,5672 31358,5668 31350,5659 C 31341,5651 31337,5641 31337,5629 C 31337,5615 31343,5602 31355,5590 C 31366,5579 31379,5573 31393,5573 C 31401,5573 31407,5575 31411,5578 C 31414,5580 31418,5585 31421,5593 C 31425,5602 31428,5608 31431,5611 C 31433,5613 31435,5614 31437,5614 C 31440,5614 31443,5612 31449,5608 C 31469,5596 31492,5576 31519,5549 C 31554,5513 31580,5483 31597,5461 L 31567,5112 C 31561,5055 31554,5020 31543,5007 C 31533,4995 31516,4988 31492,4988 C 31484,4988 31470,4989 31450,4992 L 31446,4971 L 31607,4932 Z "  />
<path style="fill:#000000;fill-opacity:1.00;fill-rule:nonzero;stroke:none"  d="M 31267,5995 L 31111,6535 L 31174,6482 C 31242,6424 31287,6381 31307,6353 C 31314,6344 31317,6337 31317,6332 C 31317,6329 31316,6326 31314,6323 C 31312,6320 31307,6318 31301,6316 C 31295,6314 31283,6313 31267,6313 L 31248,6313 L 31254,6292 L 31494,6292 L 31489,6313 C 31461,6315 31438,6319 31418,6326 C 31398,6333 31378,6344 31360,6358 C 31323,6385 31298,6404 31287,6415 L 31239,6457 C 31247,6483 31257,6520 31269,6567 C 31289,6646 31302,6692 31309,6707 C 31316,6721 31323,6729 31330,6729 C 31337,6729 31344,6726 31352,6719 C 31372,6706 31392,6683 31414,6653 L 31433,6667 C 31393,6717 31362,6750 31341,6766 C 31320,6782 31300,6790 31283,6790 C 31267,6790 31255,6784 31247,6772 C 31232,6750 31208,6665 31174,6516 L 31098,6581 L 31042,6777 L 30956,6777 L 31139,6149 L 31154,6096 C 31156,6087 31157,6079 31157,6072 C 31157,6063 31153,6056 31147,6050 C 31140,6044 31130,6041 31117,6041 C 31109,6041 31095,6043 31077,6046 L 31077,6027 L 31267,5995 Z "  />
<path style="fill:#000000;fill-opacity:1.00;fill-rule:nonzero;stroke:none"  d="M 21118,4932 C 21136,4951 21149,4970 21158,4989 C 21165,5002 21176,5037 21191,5093 L 21239,5020 C 21252,5003 21268,4986 21286,4970 C 21304,4954 21321,4943 21334,4937 C 21343,4934 21353,4932 21364,4932 C 21379,4932 21392,4936 21401,4944 C 21411,4953 21415,4963 21415,4975 C 21415,4989 21413,4999 21407,5004 C 21397,5013 21385,5018 21372,5018 C 21364,5018 21356,5016 21347,5013 C 21330,5007 21318,5004 21312,5004 C 21304,5004 21293,5009 21281,5019 C 21258,5038 21231,5075 21200,5130 L 21245,5319 C 21252,5348 21258,5365 21262,5371 C 21267,5376 21272,5379 21277,5379 C 21284,5379 21293,5375 21304,5367 C 21324,5350 21341,5328 21355,5301 L 21375,5311 C 21351,5354 21322,5390 21287,5418 C 21266,5434 21249,5443 21235,5443 C 21215,5443 21199,5431 21187,5408 C 21179,5394 21163,5332 21139,5223 C 21082,5322 21036,5386 21001,5415 C 20979,5433 20957,5443 20936,5443 C 20922,5443 20908,5437 20896,5427 C 20887,5419 20883,5408 20883,5394 C 20883,5382 20887,5372 20895,5364 C 20903,5356 20913,5352 20925,5352 C 20937,5352 20949,5358 20962,5369 C 20972,5378 20979,5382 20984,5382 C 20989,5382 20994,5379 21001,5373 C 21018,5359 21042,5329 21072,5283 C 21101,5237 21121,5204 21130,5183 C 21107,5094 21095,5047 21093,5042 C 21085,5018 21074,5001 21060,4991 C 21047,4981 21027,4976 21000,4976 C 20992,4976 20982,4977 20971,4977 L 20971,4958 L 21118,4932 Z "  />
<path style="fill:#000000;fill-opacity:1.00;fill-rule:nonzero;stroke:none"  d="M 20811,5995 L 20655,6535 L 20717,6482 C 20786,6424 20830,6381 20851,6353 C 20857,6344 20861,6337 20861,6332 C 20861,6329 20860,6326 20857,6323 C 20855,6320 20851,6318 20845,6316 C 20838,6314 20827,6313 20811,6313 L 20791,6313 L 20798,6292 L 21038,6292 L 21032,6313 C 21005,6315 20981,6319 20961,6326 C 20941,6333 20922,6344 20903,6358 C 20866,6385 20842,6404 20830,6415 L 20783,6457 C 20791,6483 20801,6520 20812,6567 C 20832,6646 20846,6692 20853,6707 C 20859,6721 20867,6729 20874,6729 C 20880,6729 20888,6726 20896,6719 C 20915,6706 20935,6683 20957,6653 L 20976,6667 C 20936,6717 20906,6750 20884,6766 C 20863,6782 20844,6790 20826,6790 C 20811,6790 20799,6784 20790,6772 C 20776,6750 20751,6665 20717,6516 L 20642,6581 L 20585,6777 L 20500,6777 L 20682,6149 L 20697,6096 C 20699,6087 20700,6079 20700,6072 C 20700,6063 20697,6056 20690,6050 C 20683,6044 20673,6041 20661,6041 C 20652,6041 20639,6043 20620,6046 L 20620,6027 L 20811,5995 Z "  />
<path style="fill:#000000;fill-opacity:1.00;fill-rule:nonzero;stroke:none"  d="M 38334,1357 C 38352,1376 38365,1396 38375,1415 C 38381,1428 38392,1462 38407,1519 L 38455,1446 C 38468,1428 38484,1412 38502,1396 C 38520,1380 38537,1369 38551,1363 C 38559,1359 38569,1357 38580,1357 C 38595,1357 38608,1362 38617,1370 C 38627,1379 38631,1389 38631,1401 C 38631,1415 38629,1424 38623,1429 C 38613,1439 38601,1443 38588,1443 C 38580,1443 38572,1442 38563,1438 C 38546,1432 38534,1429 38529,1429 C 38520,1429 38509,1435 38497,1445 C 38474,1464 38447,1501 38416,1555 L 38461,1745 C 38468,1773 38474,1791 38478,1796 C 38483,1802 38488,1805 38493,1805 C 38500,1805 38509,1801 38520,1792 C 38540,1775 38557,1753 38571,1726 L 38591,1736 C 38568,1780 38538,1815 38503,1844 C 38483,1860 38465,1868 38452,1868 C 38431,1868 38415,1857 38403,1834 C 38395,1819 38379,1758 38355,1649 C 38298,1748 38252,1812 38217,1841 C 38195,1859 38173,1868 38152,1868 C 38138,1868 38124,1863 38112,1852 C 38104,1844 38099,1833 38099,1820 C 38099,1808 38103,1798 38111,1790 C 38119,1782 38129,1778 38141,1778 C 38153,1778 38165,1783 38178,1795 C 38188,1804 38195,1808 38200,1808 C 38205,1808 38210,1805 38217,1799 C 38235,1785 38258,1755 38288,1709 C 38317,1663 38337,1629 38346,1609 C 38323,1520 38311,1473 38309,1467 C 38301,1444 38290,1427 38276,1417 C 38263,1407 38243,1402 38216,1402 C 38208,1402 38198,1402 38187,1403 L 38187,1383 L 38334,1357 Z "  />
<path style="fill:#000000;fill-opacity:1.00;fill-rule:nonzero;stroke:none"  d="M 38027,2420 L 37871,2961 L 37933,2908 C 38002,2850 38046,2807 38067,2779 C 38074,2770 38077,2763 38077,2758 C 38077,2755 38076,2752 38074,2749 C 38071,2746 38067,2743 38061,2742 C 38054,2740 38043,2739 38027,2739 L 38008,2739 L 38014,2718 L 38254,2718 L 38248,2739 C 38221,2740 38197,2745 38177,2752 C 38157,2759 38138,2769 38119,2783 C 38082,2811 38058,2830 38046,2841 L 37999,2882 C 38007,2909 38017,2946 38028,2993 C 38048,3071 38062,3118 38069,3132 C 38076,3147 38083,3154 38090,3154 C 38096,3154 38104,3151 38112,3145 C 38131,3131 38151,3109 38173,3079 L 38192,3092 C 38152,3143 38122,3176 38100,3192 C 38079,3208 38060,3216 38042,3216 C 38027,3216 38015,3209 38006,3197 C 37992,3176 37967,3091 37933,2942 L 37858,3007 L 37801,3202 L 37716,3202 L 37898,2575 L 37914,2522 C 37915,2512 37916,2504 37916,2497 C 37916,2489 37913,2481 37906,2475 C 37899,2470 37890,2467 37877,2467 C 37868,2467 37855,2468 37837,2472 L 37837,2453 L 38027,2420 Z "  />
<path style="fill:#000000;fill-opacity:1.00;fill-rule:nonzero;stroke:none"  d="M 31578,1357 C 31590,1379 31599,1399 31604,1417 C 31609,1436 31613,1472 31618,1526 L 31642,1797 C 31664,1770 31696,1729 31738,1671 C 31758,1644 31783,1606 31813,1558 C 31831,1528 31842,1508 31846,1496 C 31848,1490 31849,1484 31849,1478 C 31849,1474 31848,1471 31845,1468 C 31843,1465 31836,1462 31825,1459 C 31814,1455 31805,1449 31798,1440 C 31791,1430 31788,1420 31788,1407 C 31788,1392 31792,1380 31801,1371 C 31810,1362 31821,1357 31834,1357 C 31850,1357 31864,1364 31875,1377 C 31886,1391 31892,1409 31892,1433 C 31892,1462 31882,1495 31862,1532 C 31843,1569 31804,1626 31748,1703 C 31691,1780 31623,1864 31543,1955 C 31487,2018 31446,2057 31420,2074 C 31393,2090 31370,2098 31351,2098 C 31340,2098 31330,2094 31321,2085 C 31312,2077 31308,2067 31308,2055 C 31308,2041 31314,2028 31326,2016 C 31338,2004 31351,1999 31365,1999 C 31372,1999 31378,2000 31383,2003 C 31386,2005 31389,2011 31392,2019 C 31396,2028 31399,2034 31402,2036 C 31404,2038 31406,2039 31409,2039 C 31411,2039 31415,2037 31420,2034 C 31440,2021 31464,2001 31491,1974 C 31526,1938 31552,1909 31569,1886 L 31538,1538 C 31533,1480 31525,1445 31515,1433 C 31505,1420 31487,1414 31463,1414 C 31455,1414 31442,1415 31422,1417 L 31417,1397 L 31578,1357 Z "  />
<path style="fill:#000000;fill-opacity:1.00;fill-rule:nonzero;stroke:none"  d="M 31239,2420 L 31082,2961 L 31145,2908 C 31214,2850 31258,2807 31279,2779 C 31285,2770 31289,2763 31289,2758 C 31289,2755 31288,2752 31285,2749 C 31283,2746 31279,2743 31272,2742 C 31266,2740 31255,2739 31239,2739 L 31219,2739 L 31225,2718 L 31466,2718 L 31460,2739 C 31433,2740 31409,2745 31389,2752 C 31369,2759 31350,2769 31331,2783 C 31294,2811 31270,2830 31258,2841 L 31211,2882 C 31219,2909 31229,2946 31240,2993 C 31260,3071 31273,3118 31280,3132 C 31287,3147 31295,3154 31302,3154 C 31308,3154 31315,3151 31324,3145 C 31343,3131 31363,3109 31385,3079 L 31404,3092 C 31364,3143 31334,3176 31312,3192 C 31291,3208 31272,3216 31254,3216 C 31239,3216 31227,3209 31218,3197 C 31204,3176 31179,3091 31145,2942 L 31070,3007 L 31013,3202 L 30927,3202 L 31110,2575 L 31125,2522 C 31127,2512 31128,2504 31128,2497 C 31128,2489 31125,2481 31118,2475 C 31111,2470 31101,2467 31089,2467 C 31080,2467 31067,2468 31048,2472 L 31048,2453 L 31239,2420 Z "  />
<path style="fill:#000000;fill-opacity:1.00;fill-rule:nonzero;stroke:none"  d="M 21371,1357 C 21389,1376 21402,1396 21411,1415 C 21418,1428 21429,1462 21444,1519 L 21492,1446 C 21505,1428 21521,1412 21539,1396 C 21557,1380 21573,1369 21587,1363 C 21596,1359 21606,1357 21616,1357 C 21632,1357 21645,1362 21654,1370 C 21663,1379 21668,1389 21668,1401 C 21668,1415 21665,1424 21660,1429 C 21650,1439 21638,1443 21625,1443 C 21617,1443 21609,1442 21600,1438 C 21583,1432 21571,1429 21565,1429 C 21556,1429 21546,1435 21534,1445 C 21511,1464 21484,1501 21453,1555 L 21498,1745 C 21505,1773 21510,1791 21515,1796 C 21520,1802 21525,1805 21530,1805 C 21537,1805 21546,1801 21556,1792 C 21577,1775 21594,1753 21608,1726 L 21627,1736 C 21604,1780 21575,1815 21539,1844 C 21519,1860 21502,1868 21488,1868 C 21468,1868 21451,1857 21439,1834 C 21432,1819 21416,1758 21392,1649 C 21334,1748 21289,1812 21254,1841 C 21232,1859 21210,1868 21189,1868 C 21175,1868 21161,1863 21149,1852 C 21140,1844 21136,1833 21136,1820 C 21136,1808 21140,1798 21148,1790 C 21156,1782 21166,1778 21178,1778 C 21189,1778 21202,1783 21215,1795 C 21225,1804 21232,1808 21237,1808 C 21241,1808 21247,1805 21254,1799 C 21271,1785 21295,1755 21324,1709 C 21354,1663 21374,1629 21383,1609 C 21360,1520 21348,1473 21346,1467 C 21337,1444 21326,1427 21313,1417 C 21299,1407 21279,1402 21253,1402 C 21245,1402 21235,1402 21224,1403 L 21224,1383 L 21371,1357 Z "  />
<path style="fill:#000000;fill-opacity:1.00;fill-rule:nonzero;stroke:none"  d="M 21064,2420 L 20907,2961 L 20970,2908 C 21039,2850 21083,2807 21104,2779 C 21110,2770 21114,2763 21114,2758 C 21114,2755 21112,2752 21110,2749 C 21108,2746 21104,2743 21097,2742 C 21091,2740 21080,2739 21064,2739 L 21044,2739 L 21050,2718 L 21291,2718 L 21285,2739 C 21258,2740 21234,2745 21214,2752 C 21194,2759 21175,2769 21156,2783 C 21119,2811 21095,2830 21083,2841 L 21036,2882 C 21044,2909 21053,2946 21065,2993 C 21085,3071 21098,3118 21105,3132 C 21112,3147 21119,3154 21127,3154 C 21133,3154 21140,3151 21149,3145 C 21168,3131 21188,3109 21210,3079 L 21229,3092 C 21189,3143 21158,3176 21137,3192 C 21116,3208 21097,3216 21079,3216 C 21064,3216 21052,3209 21043,3197 C 21029,3176 21004,3091 20970,2942 L 20895,3007 L 20838,3202 L 20752,3202 L 20935,2575 L 20950,2522 C 20952,2512 20953,2504 20953,2497 C 20953,2489 20950,2481 20943,2475 C 20936,2470 20926,2467 20913,2467 C 20905,2467 20892,2468 20873,2472 L 20873,2453 L 21064,2420 Z "  />
<path style="fill:#000000;fill-opacity:1.00;fill-rule:nonzero;stroke:none"  d="M 36834,6323 L 36939,5259 C 36944,5205 36947,5169 36947,5150 C 36947,5121 36936,5098 36915,5079 C 36894,5060 36861,5051 36816,5051 L 36782,5051 L 36791,5016 L 37296,5016 L 37285,5051 C 37231,5051 37193,5057 37173,5068 C 37152,5078 37136,5097 37124,5122 C 37118,5136 37111,5175 37104,5240 L 37029,6003 L 37528,5322 C 37582,5249 37615,5197 37629,5169 C 37639,5149 37643,5132 37643,5118 C 37643,5101 37636,5086 37622,5073 C 37607,5061 37580,5053 37541,5051 L 37552,5016 L 37937,5016 L 37927,5051 C 37896,5053 37872,5059 37854,5069 C 37819,5085 37785,5110 37750,5143 C 37716,5176 37662,5244 37588,5345 L 36868,6323 L 36834,6323 Z "  />
<path style="fill:#000000;fill-opacity:1.00;fill-rule:nonzero;stroke:none"  d="M 34722,4954 L 34536,5605 C 34597,5542 34649,5499 34694,5476 C 34739,5453 34786,5441 34835,5441 C 34904,5441 34961,5464 35005,5510 C 35049,5556 35071,5618 35071,5696 C 35071,5798 35042,5898 34984,5999 C 34926,6099 34854,6177 34766,6233 C 34679,6289 34593,6317 34508,6317 C 34413,6317 34316,6281 34216,6210 L 34502,5223 C 34524,5147 34535,5103 34535,5089 C 34535,5073 34530,5061 34520,5053 C 34506,5041 34485,5036 34456,5036 C 34443,5036 34423,5038 34396,5042 L 34396,5006 L 34722,4954 Z M 34357,6221 C 34420,6255 34475,6272 34523,6272 C 34578,6272 34636,6252 34695,6212 C 34755,6171 34806,6103 34850,6007 C 34893,5910 34915,5813 34915,5715 C 34915,5657 34901,5612 34872,5580 C 34844,5547 34810,5531 34771,5531 C 34713,5531 34655,5554 34600,5601 C 34544,5648 34504,5713 34480,5796 L 34357,6221 Z "  />
<path style="fill:#000000;fill-opacity:1.00;fill-rule:nonzero;stroke:none"  d="M 30127,6323 L 30232,5259 C 30237,5205 30240,5169 30240,5150 C 30240,5121 30229,5098 30208,5079 C 30187,5060 30154,5051 30109,5051 L 30075,5051 L 30084,5016 L 30589,5016 L 30578,5051 C 30524,5051 30486,5057 30466,5068 C 30445,5078 30429,5097 30417,5122 C 30411,5136 30404,5175 30397,5240 L 30322,6003 L 30820,5322 C 30874,5249 30908,5197 30922,5169 C 30932,5149 30936,5132 30936,5118 C 30936,5101 30929,5086 30915,5073 C 30900,5061 30873,5053 30834,5051 L 30845,5016 L 31230,5016 L 31220,5051 C 31189,5053 31165,5059 31147,5069 C 31112,5085 31078,5110 31043,5143 C 31009,5176 30955,5244 30881,5345 L 30161,6323 L 30127,6323 Z "  />
<path style="fill:#000000;fill-opacity:1.00;fill-rule:nonzero;stroke:none"  d="M 24428,5441 L 24370,5730 L 24336,5730 C 24332,5646 24314,5585 24282,5547 C 24249,5508 24209,5489 24160,5489 C 24121,5489 24090,5500 24067,5521 C 24044,5542 24033,5568 24033,5598 C 24033,5619 24038,5639 24047,5658 C 24056,5677 24076,5703 24106,5737 C 24188,5826 24241,5893 24265,5939 C 24289,5984 24301,6027 24301,6067 C 24301,6132 24273,6190 24219,6241 C 24165,6291 24096,6317 24013,6317 C 23968,6317 23916,6306 23857,6285 C 23836,6277 23820,6273 23809,6273 C 23780,6273 23759,6288 23745,6317 L 23710,6317 L 23767,6011 L 23802,6011 C 23806,6107 23826,6174 23861,6214 C 23897,6253 23946,6273 24008,6273 C 24056,6273 24094,6260 24122,6233 C 24150,6207 24164,6174 24164,6135 C 24164,6110 24159,6086 24149,6065 C 24131,6027 24094,5975 24038,5909 C 23982,5842 23946,5792 23930,5759 C 23914,5725 23906,5692 23906,5659 C 23906,5598 23928,5546 23972,5504 C 24016,5462 24073,5441 24143,5441 C 24163,5441 24182,5443 24198,5446 C 24207,5448 24227,5455 24260,5467 C 24292,5479 24314,5485 24324,5485 C 24351,5485 24374,5471 24392,5441 L 24428,5441 Z "  />
<path style="fill:#000000;fill-opacity:1.00;fill-rule:nonzero;stroke:none"  d="M 19670,6323 L 19776,5259 C 19781,5205 19783,5169 19783,5150 C 19783,5121 19773,5098 19752,5079 C 19731,5060 19698,5051 19652,5051 L 19618,5051 L 19628,5016 L 20132,5016 L 20122,5051 C 20067,5051 20029,5057 20009,5068 C 19989,5078 19972,5097 19960,5122 C 19954,5136 19948,5175 19941,5240 L 19865,6003 L 20364,5322 C 20418,5249 20452,5197 20466,5169 C 20475,5149 20480,5132 20480,5118 C 20480,5101 20473,5086 20458,5073 C 20444,5061 20417,5053 20377,5051 L 20388,5016 L 20773,5016 L 20764,5051 C 20733,5053 20708,5059 20690,5069 C 20655,5085 20621,5110 20587,5143 C 20553,5176 20498,5244 20424,5345 L 19704,6323 L 19670,6323 Z "  />
<path style="fill:#000000;fill-opacity:1.00;fill-rule:nonzero;stroke:none"  d="M 14224,5441 L 14167,5730 L 14132,5730 C 14129,5646 14111,5585 14078,5547 C 14045,5508 14005,5489 13956,5489 C 13918,5489 13887,5500 13864,5521 C 13841,5542 13829,5568 13829,5598 C 13829,5619 13834,5639 13843,5658 C 13852,5677 13872,5703 13903,5737 C 13984,5826 14037,5893 14061,5939 C 14085,5984 14097,6027 14097,6067 C 14097,6132 14070,6190 14015,6241 C 13961,6291 13892,6317 13809,6317 C 13764,6317 13712,6306 13653,6285 C 13632,6277 13616,6273 13605,6273 C 13577,6273 13555,6288 13541,6317 L 13506,6317 L 13563,6011 L 13598,6011 C 13602,6107 13622,6174 13658,6214 C 13694,6253 13743,6273 13805,6273 C 13852,6273 13890,6260 13918,6233 C 13946,6207 13960,6174 13960,6135 C 13960,6110 13955,6086 13945,6065 C 13928,6027 13891,5975 13834,5909 C 13778,5842 13742,5792 13726,5759 C 13710,5725 13702,5692 13702,5659 C 13702,5598 13724,5546 13768,5504 C 13813,5462 13870,5441 13940,5441 C 13960,5441 13978,5443 13994,5446 C 14003,5448 14024,5455 14056,5467 C 14088,5479 14110,5485 14121,5485 C 14148,5485 14170,5471 14188,5441 L 14224,5441 Z "  />
<path style="fill:#000000;fill-opacity:1.00;fill-rule:nonzero;stroke:none"  d="M 36886,2749 L 36992,1685 C 36997,1631 36999,1594 36999,1575 C 36999,1547 36989,1524 36968,1505 C 36947,1486 36914,1476 36868,1476 L 36834,1476 L 36844,1442 L 37348,1442 L 37338,1476 C 37283,1477 37246,1483 37225,1493 C 37205,1504 37189,1522 37177,1548 C 37170,1562 37164,1601 37157,1666 L 37081,2428 L 37580,1748 C 37634,1674 37668,1623 37682,1594 C 37691,1575 37696,1558 37696,1543 C 37696,1526 37689,1512 37674,1499 C 37660,1486 37633,1479 37593,1476 L 37604,1442 L 37989,1442 L 37980,1476 C 37949,1479 37924,1485 37906,1494 C 37872,1511 37837,1536 37803,1569 C 37769,1602 37714,1669 37640,1771 L 36920,2749 L 36886,2749 Z "  />
<path style="fill:#000000;fill-opacity:1.00;fill-rule:nonzero;stroke:none"  d="M 35099,1867 L 34916,2506 L 34895,2592 C 34893,2600 34892,2607 34892,2612 C 34892,2622 34895,2631 34902,2639 C 34907,2644 34913,2647 34920,2647 C 34929,2647 34939,2642 34952,2632 C 34977,2614 35010,2576 35050,2519 L 35082,2542 C 35039,2607 34995,2657 34949,2691 C 34903,2725 34860,2742 34821,2742 C 34794,2742 34774,2736 34761,2722 C 34747,2709 34740,2689 34740,2663 C 34740,2632 34747,2592 34761,2542 L 34781,2471 C 34699,2578 34623,2653 34554,2696 C 34504,2727 34455,2742 34408,2742 C 34362,2742 34322,2723 34289,2685 C 34256,2647 34239,2595 34239,2528 C 34239,2428 34269,2323 34329,2212 C 34389,2101 34465,2012 34557,1946 C 34630,1893 34698,1867 34762,1867 C 34800,1867 34832,1877 34858,1897 C 34883,1917 34902,1950 34916,1997 L 34950,1889 L 35099,1867 Z M 34764,1916 C 34724,1916 34681,1935 34636,1972 C 34572,2026 34515,2105 34465,2210 C 34415,2315 34390,2410 34390,2494 C 34390,2537 34400,2571 34422,2596 C 34443,2621 34468,2633 34495,2633 C 34564,2633 34638,2582 34719,2481 C 34826,2347 34880,2209 34880,2067 C 34880,2014 34869,1975 34849,1952 C 34828,1928 34800,1916 34764,1916 "  />
<path style="fill:#000000;fill-opacity:1.00;fill-rule:nonzero;stroke:none"  d="M 30098,2749 L 30204,1685 C 30209,1631 30211,1594 30211,1575 C 30211,1547 30201,1524 30180,1505 C 30159,1486 30125,1476 30080,1476 L 30046,1476 L 30056,1442 L 30560,1442 L 30550,1476 C 30495,1477 30457,1483 30437,1493 C 30417,1504 30400,1522 30388,1548 C 30382,1562 30376,1601 30369,1666 L 30293,2428 L 30792,1748 C 30846,1674 30880,1623 30894,1594 C 30903,1575 30908,1558 30908,1543 C 30908,1526 30901,1512 30886,1499 C 30872,1486 30845,1479 30805,1476 L 30816,1442 L 31201,1442 L 31191,1476 C 31161,1479 31136,1485 31118,1494 C 31083,1511 31049,1536 31015,1569 C 30980,1602 30926,1669 30852,1771 L 30132,2749 L 30098,2749 Z "  />
<path style="fill:#000000;fill-opacity:1.00;fill-rule:nonzero;stroke:none"  d="M 24652,1867 L 24595,2156 L 24560,2156 C 24557,2072 24539,2011 24506,1972 C 24473,1934 24433,1915 24384,1915 C 24345,1915 24315,1925 24292,1947 C 24269,1968 24257,1994 24257,2024 C 24257,2045 24262,2065 24271,2083 C 24280,2102 24300,2129 24331,2163 C 24412,2252 24465,2319 24489,2364 C 24513,2410 24525,2452 24525,2493 C 24525,2558 24498,2616 24443,2666 C 24389,2717 24320,2742 24237,2742 C 24192,2742 24140,2732 24081,2710 C 24060,2703 24044,2699 24033,2699 C 24005,2699 23983,2713 23969,2742 L 23934,2742 L 23991,2437 L 24026,2437 C 24030,2532 24050,2600 24086,2640 C 24121,2679 24170,2699 24233,2699 C 24280,2699 24318,2686 24346,2659 C 24374,2632 24388,2599 24388,2560 C 24388,2535 24383,2512 24373,2491 C 24356,2453 24319,2401 24262,2334 C 24206,2268 24170,2218 24154,2184 C 24138,2151 24130,2118 24130,2084 C 24130,2023 24152,1972 24196,1930 C 24241,1888 24298,1867 24367,1867 C 24388,1867 24406,1868 24422,1871 C 24431,1873 24451,1880 24484,1893 C 24516,1905 24538,1911 24548,1911 C 24575,1911 24598,1896 24616,1867 L 24652,1867 Z "  />
<path style="fill:#000000;fill-opacity:1.00;fill-rule:nonzero;stroke:none"  d="M 19923,2749 L 20029,1685 C 20034,1631 20036,1594 20036,1575 C 20036,1547 20026,1524 20005,1505 C 19983,1486 19950,1476 19905,1476 L 19871,1476 L 19881,1442 L 20385,1442 L 20374,1476 C 20320,1477 20282,1483 20262,1493 C 20241,1504 20225,1522 20213,1548 C 20207,1562 20200,1601 20194,1666 L 20118,2428 L 20617,1748 C 20671,1674 20705,1623 20719,1594 C 20728,1575 20733,1558 20733,1543 C 20733,1526 20725,1512 20711,1499 C 20697,1486 20670,1479 20630,1476 L 20641,1442 L 21026,1442 L 21016,1476 C 20986,1479 20961,1485 20943,1494 C 20908,1511 20874,1536 20840,1569 C 20805,1602 20751,1669 20677,1771 L 19957,2749 L 19923,2749 Z "  />
<path style="fill:#000000;fill-opacity:1.00;fill-rule:nonzero;stroke:none"  d="M 14224,1867 L 14167,2156 L 14132,2156 C 14129,2072 14111,2011 14078,1972 C 14045,1934 14005,1915 13956,1915 C 13918,1915 13887,1925 13864,1947 C 13841,1968 13829,1994 13829,2024 C 13829,2045 13834,2065 13843,2083 C 13852,2102 13872,2129 13903,2163 C 13984,2252 14037,2319 14061,2364 C 14085,2410 14097,2452 14097,2493 C 14097,2558 14070,2616 14015,2666 C 13961,2717 13892,2742 13809,2742 C 13764,2742 13712,2732 13653,2710 C 13632,2703 13616,2699 13605,2699 C 13577,2699 13555,2713 13541,2742 L 13506,2742 L 13563,2437 L 13598,2437 C 13602,2532 13622,2600 13658,2640 C 13694,2679 13743,2699 13805,2699 C 13852,2699 13890,2686 13918,2659 C 13946,2632 13960,2599 13960,2560 C 13960,2535 13955,2512 13945,2491 C 13928,2453 13891,2401 13834,2334 C 13778,2268 13742,2218 13726,2184 C 13710,2151 13702,2118 13702,2084 C 13702,2023 13724,1972 13768,1930 C 13813,1888 13870,1867 13940,1867 C 13960,1867 13978,1868 13994,1871 C 14003,1873 14024,1880 14056,1893 C 14088,1905 14110,1911 14121,1911 C 14148,1911 14170,1896 14188,1867 L 14224,1867 Z "  />
<path style="fill:#000000;fill-opacity:1.00;fill-rule:nonzero;stroke:none"  d="M 4392,2842 L 4207,3494 C 4267,3431 4320,3388 4365,3364 C 4410,3341 4456,3330 4506,3330 C 4575,3330 4631,3353 4675,3398 C 4719,3444 4741,3506 4741,3585 C 4741,3686 4712,3787 4654,3887 C 4597,3987 4524,4065 4437,4121 C 4349,4177 4263,4205 4178,4205 C 4084,4205 3986,4170 3886,4099 L 4173,3112 C 4195,3036 4206,2991 4206,2978 C 4206,2962 4201,2949 4191,2941 C 4176,2930 4155,2924 4127,2924 C 4113,2924 4093,2926 4066,2931 L 4066,2895 L 4392,2842 Z M 4028,4109 C 4090,4144 4146,4161 4194,4161 C 4249,4161 4306,4141 4366,4100 C 4425,4060 4476,3991 4520,3895 C 4564,3799 4586,3702 4586,3604 C 4586,3546 4571,3501 4543,3468 C 4514,3435 4480,3419 4441,3419 C 4383,3419 4326,3443 4270,3489 C 4214,3536 4174,3601 4150,3685 L 4028,4109 Z "  />
<path style="fill:#000000;fill-opacity:1.00;fill-rule:nonzero;stroke:none"  d="M 3215,3330 L 3031,3969 L 3010,4054 C 3008,4063 3007,4069 3007,4075 C 3007,4085 3010,4094 3017,4102 C 3022,4107 3028,4110 3036,4110 C 3044,4110 3054,4105 3068,4095 C 3092,4077 3125,4039 3166,3982 L 3198,4004 C 3154,4070 3110,4120 3064,4154 C 3018,4188 2976,4205 2937,4205 C 2910,4205 2889,4198 2876,4185 C 2862,4171 2856,4152 2856,4126 C 2856,4095 2862,4055 2876,4004 L 2896,3934 C 2814,4041 2738,4116 2669,4159 C 2619,4190 2571,4205 2523,4205 C 2477,4205 2437,4186 2404,4148 C 2371,4110 2354,4058 2354,3991 C 2354,3891 2384,3786 2444,3675 C 2504,3564 2580,3475 2673,3409 C 2745,3356 2813,3330 2877,3330 C 2916,3330 2947,3340 2973,3360 C 2998,3380 3018,3413 3031,3460 L 3065,3352 L 3215,3330 Z M 2879,3379 C 2839,3379 2796,3397 2751,3435 C 2687,3489 2630,3568 2580,3673 C 2530,3778 2505,3873 2505,3957 C 2505,4000 2516,4034 2537,4059 C 2558,4083 2583,4096 2610,4096 C 2679,4096 2753,4045 2834,3944 C 2941,3810 2995,3672 2995,3530 C 2995,3477 2985,3438 2964,3414 C 2943,3391 2915,3379 2879,3379 "  />
<path style="fill:#000000;fill-opacity:1.00;fill-rule:nonzero;stroke:none"  d="M 962,2972 L 811,3479 L 979,3479 C 1054,3479 1110,3467 1148,3444 C 1185,3420 1224,3371 1263,3295 L 1299,3295 L 1166,3760 L 1129,3760 C 1138,3723 1143,3692 1143,3667 C 1143,3629 1130,3599 1104,3578 C 1079,3557 1031,3546 962,3546 L 792,3546 L 681,3932 C 661,4000 651,4046 651,4069 C 651,4092 659,4110 677,4122 C 694,4135 736,4143 803,4148 L 792,4183 L 287,4183 L 299,4148 C 348,4146 381,4142 397,4135 C 422,4124 441,4109 453,4091 C 470,4065 490,4012 513,3932 L 738,3162 C 757,3100 766,3051 766,3016 C 766,2999 762,2985 753,2974 C 745,2962 733,2953 717,2948 C 701,2942 669,2939 621,2939 L 633,2904 L 1624,2904 L 1530,3228 L 1494,3228 C 1501,3189 1505,3157 1505,3132 C 1505,3090 1493,3057 1470,3033 C 1447,3009 1418,2992 1382,2982 C 1357,2975 1301,2972 1213,2972 L 962,2972 Z "  />
<path style="fill:#000000;fill-opacity:1.00;fill-rule:nonzero;stroke:none"  d="M 10750,5916 C 10767,5916 10782,5922 10793,5934 C 10805,5946 10811,5960 10811,5977 C 10811,5994 10805,6008 10793,6020 C 10781,6032 10767,6038 10750,6038 C 10733,6038 10719,6032 10707,6020 C 10695,6008 10689,5994 10689,5977 C 10689,5960 10695,5945 10707,5933 C 10719,5922 10733,5916 10750,5916 M 11031,5916 C 11049,5916 11063,5922 11075,5934 C 11087,5946 11092,5960 11092,5977 C 11092,5994 11087,6008 11075,6020 C 11063,6032 11048,6038 11031,6038 C 11015,6038 11000,6032 10988,6020 C 10976,6008 10970,5994 10970,5977 C 10970,5960 10976,5945 10988,5933 C 11000,5922 11015,5916 11031,5916 "  />
<path style="fill:#000000;fill-opacity:1.00;fill-rule:nonzero;stroke:none"  d="M 10207,5350 L 10388,5262 L 10406,5262 L 10406,5891 C 10406,5933 10408,5959 10412,5969 C 10415,5979 10422,5987 10433,5993 C 10444,5998 10467,6001 10500,6002 L 10500,6023 L 10220,6023 L 10220,6002 C 10255,6001 10278,5998 10288,5993 C 10299,5988 10306,5981 10310,5972 C 10314,5963 10316,5936 10316,5891 L 10316,5489 C 10316,5434 10314,5400 10310,5384 C 10308,5372 10303,5364 10296,5358 C 10289,5353 10281,5350 10272,5350 C 10258,5350 10239,5356 10215,5367 L 10207,5350 Z "  />
<path style="fill:#000000;fill-opacity:1.00;fill-rule:nonzero;stroke:none"  d="M 40577,4899 L 40525,5042 L 40085,5042 L 40085,5022 C 40215,4904 40306,4807 40359,4733 C 40411,4658 40438,4590 40438,4528 C 40438,4480 40423,4441 40394,4411 C 40365,4381 40331,4365 40290,4365 C 40254,4365 40221,4376 40192,4398 C 40163,4419 40141,4450 40127,4492 L 40107,4492 C 40116,4424 40139,4372 40177,4336 C 40215,4299 40263,4281 40320,4281 C 40380,4281 40431,4301 40471,4340 C 40512,4378 40532,4424 40532,4477 C 40532,4515 40523,4553 40505,4590 C 40478,4650 40434,4713 40373,4779 C 40282,4879 40225,4939 40202,4959 L 40397,4959 C 40437,4959 40464,4958 40480,4955 C 40496,4952 40511,4946 40524,4937 C 40536,4928 40548,4915 40557,4899 L 40577,4899 Z "  />
<path style="fill:#000000;fill-opacity:1.00;fill-rule:nonzero;stroke:none"  d="M 39247,5286 L 39194,5429 L 38754,5429 L 38754,5409 C 38884,5291 38975,5195 39028,5120 C 39080,5045 39107,4977 39107,4915 C 39107,4867 39092,4829 39063,4798 C 39034,4768 39000,4752 38959,4752 C 38923,4752 38890,4763 38861,4785 C 38832,4806 38810,4838 38796,4879 L 38776,4879 C 38785,4811 38809,4759 38846,4723 C 38884,4687 38932,4668 38989,4668 C 39049,4668 39100,4688 39140,4727 C 39181,4766 39201,4811 39201,4864 C 39201,4902 39192,4940 39174,4977 C 39147,5037 39103,5100 39043,5166 C 38951,5266 38894,5326 38872,5346 L 39066,5346 C 39106,5346 39134,5345 39149,5342 C 39165,5339 39180,5333 39193,5324 C 39205,5315 39217,5302 39226,5286 L 39247,5286 Z "  />
<path style="fill:#000000;fill-opacity:1.00;fill-rule:nonzero;stroke:none"  d="M 32036,4757 L 32217,4668 L 32235,4668 L 32235,5298 C 32235,5340 32237,5366 32241,5376 C 32244,5386 32251,5394 32262,5400 C 32273,5405 32296,5408 32329,5409 L 32329,5429 L 32049,5429 L 32049,5409 C 32084,5408 32107,5405 32117,5400 C 32127,5395 32135,5387 32139,5378 C 32143,5370 32145,5343 32145,5298 L 32145,4895 C 32145,4841 32143,4806 32139,4791 C 32137,4779 32132,4771 32125,4765 C 32118,4760 32110,4757 32101,4757 C 32087,4757 32068,4763 32044,4774 L 32036,4757 Z "  />
<path style="fill:#000000;fill-opacity:1.00;fill-rule:nonzero;stroke:none"  d="M 21513,4757 L 21694,4668 L 21712,4668 L 21712,5298 C 21712,5340 21714,5366 21717,5376 C 21721,5386 21728,5394 21739,5400 C 21750,5405 21772,5408 21806,5409 L 21806,5429 L 21526,5429 L 21526,5409 C 21561,5408 21584,5405 21594,5400 C 21604,5395 21611,5387 21615,5378 C 21619,5370 21621,5343 21621,5298 L 21621,4895 C 21621,4841 21620,4806 21616,4791 C 21613,4779 21609,4771 21602,4765 C 21595,4760 21587,4757 21577,4757 C 21564,4757 21545,4763 21521,4774 L 21513,4757 Z "  />
<path style="fill:#000000;fill-opacity:1.00;fill-rule:nonzero;stroke:none"  d="M 40563,1324 L 40511,1468 L 40071,1468 L 40071,1448 C 40200,1330 40291,1233 40344,1158 C 40397,1084 40423,1015 40423,953 C 40423,906 40409,867 40380,837 C 40351,806 40316,791 40276,791 C 40239,791 40207,802 40177,823 C 40148,845 40127,876 40113,918 L 40092,918 C 40102,850 40125,798 40163,761 C 40201,725 40248,707 40305,707 C 40366,707 40416,726 40457,765 C 40497,804 40517,850 40517,903 C 40517,940 40509,978 40491,1016 C 40464,1075 40420,1138 40359,1205 C 40268,1304 40211,1364 40188,1385 L 40383,1385 C 40422,1385 40450,1383 40466,1381 C 40482,1378 40496,1372 40509,1363 C 40522,1354 40533,1341 40543,1324 L 40563,1324 Z "  />
<path style="fill:#000000;fill-opacity:1.00;fill-rule:nonzero;stroke:none"  d="M 39232,1712 L 39180,1855 L 38740,1855 L 38740,1835 C 38869,1717 38961,1620 39013,1545 C 39066,1471 39093,1402 39093,1340 C 39093,1293 39078,1254 39049,1224 C 39020,1193 38986,1178 38945,1178 C 38909,1178 38876,1189 38846,1210 C 38817,1232 38796,1263 38782,1305 L 38762,1305 C 38771,1237 38794,1185 38832,1148 C 38870,1112 38918,1094 38974,1094 C 39035,1094 39085,1113 39126,1152 C 39166,1191 39187,1237 39187,1290 C 39187,1328 39178,1365 39160,1403 C 39133,1462 39089,1525 39028,1592 C 38937,1691 38880,1751 38857,1772 L 39052,1772 C 39091,1772 39119,1771 39135,1768 C 39151,1765 39165,1759 39178,1750 C 39191,1741 39202,1728 39212,1712 L 39232,1712 Z "  />
<path style="fill:#000000;fill-opacity:1.00;fill-rule:nonzero;stroke:none"  d="M 32007,1183 L 32189,1094 L 32207,1094 L 32207,1724 C 32207,1765 32209,1791 32212,1802 C 32216,1812 32223,1820 32234,1825 C 32245,1831 32267,1834 32301,1835 L 32301,1855 L 32020,1855 L 32020,1835 C 32056,1834 32078,1831 32089,1826 C 32099,1820 32106,1813 32110,1804 C 32114,1795 32116,1768 32116,1724 L 32116,1321 C 32116,1267 32114,1232 32111,1217 C 32108,1205 32103,1196 32097,1191 C 32090,1185 32082,1183 32072,1183 C 32059,1183 32040,1188 32015,1200 L 32007,1183 Z "  />
<path style="fill:#000000;fill-opacity:1.00;fill-rule:nonzero;stroke:none"  d="M 21765,1183 L 21947,1094 L 21965,1094 L 21965,1724 C 21965,1765 21967,1791 21970,1802 C 21974,1812 21981,1820 21992,1825 C 22003,1831 22025,1834 22059,1835 L 22059,1855 L 21779,1855 L 21779,1835 C 21814,1834 21836,1831 21847,1826 C 21857,1820 21864,1813 21868,1804 C 21872,1795 21874,1768 21874,1724 L 21874,1321 C 21874,1267 21872,1232 21869,1217 C 21866,1205 21861,1196 21855,1191 C 21848,1185 21840,1183 21830,1183 C 21817,1183 21798,1188 21774,1200 L 21765,1183 Z "  />
<path style="fill:#000000;fill-opacity:1.00;fill-rule:nonzero;stroke:none"  d="M 26153,5966 C 26129,6080 26084,6167 26016,6229 C 25948,6290 25873,6320 25791,6320 C 25693,6320 25607,6279 25534,6197 C 25461,6115 25425,6003 25425,5863 C 25425,5728 25465,5617 25546,5532 C 25627,5448 25724,5405 25837,5405 C 25922,5405 25991,5428 26046,5473 C 26101,5517 26128,5564 26128,5613 C 26128,5636 26120,5656 26105,5671 C 26090,5685 26068,5693 26040,5693 C 26003,5693 25975,5681 25957,5657 C 25946,5644 25939,5619 25935,5581 C 25932,5544 25919,5516 25897,5497 C 25875,5478 25845,5468 25806,5468 C 25743,5468 25692,5492 25654,5538 C 25603,5600 25578,5681 25578,5782 C 25578,5885 25603,5976 25654,6055 C 25704,6134 25772,6173 25859,6173 C 25920,6173 25975,6152 26024,6110 C 26059,6081 26093,6029 26125,5953 L 26153,5966 Z M 26698,5405 C 26829,5405 26934,5455 27013,5554 C 27080,5639 27114,5736 27114,5846 C 27114,5924 27096,6002 27058,6081 C 27021,6160 26970,6220 26905,6260 C 26840,6300 26768,6320 26688,6320 C 26558,6320 26455,6269 26378,6165 C 26313,6078 26281,5980 26281,5871 C 26281,5792 26301,5713 26340,5635 C 26379,5556 26431,5499 26495,5461 C 26559,5424 26627,5405 26698,5405 M 26669,5466 C 26636,5466 26602,5476 26569,5496 C 26535,5516 26508,5551 26487,5600 C 26467,5650 26456,5714 26456,5792 C 26456,5917 26481,6026 26531,6117 C 26581,6208 26647,6253 26729,6253 C 26790,6253 26840,6228 26879,6178 C 26919,6128 26939,6041 26939,5919 C 26939,5766 26906,5645 26840,5557 C 26795,5497 26738,5466 26669,5466 M 27799,5405 L 27799,5699 L 27768,5699 C 27744,5607 27714,5544 27676,5511 C 27639,5477 27591,5461 27534,5461 C 27490,5461 27454,5472 27427,5496 C 27400,5519 27387,5545 27387,5573 C 27387,5608 27397,5638 27417,5663 C 27436,5689 27476,5717 27535,5745 L 27673,5812 C 27801,5875 27864,5957 27864,6058 C 27864,6137 27835,6200 27775,6248 C 27716,6296 27650,6320 27576,6320 C 27523,6320 27463,6311 27395,6292 C 27374,6286 27357,6283 27344,6283 C 27330,6283 27318,6291 27310,6307 L 27279,6307 L 27279,5999 L 27310,5999 C 27328,6087 27361,6153 27411,6198 C 27461,6242 27516,6265 27578,6265 C 27621,6265 27657,6252 27684,6227 C 27711,6201 27725,6171 27725,6135 C 27725,6091 27710,6055 27679,6025 C 27649,5996 27588,5958 27497,5913 C 27406,5868 27346,5827 27318,5791 C 27289,5755 27275,5710 27275,5655 C 27275,5584 27300,5525 27348,5477 C 27397,5429 27460,5405 27537,5405 C 27571,5405 27612,5412 27661,5427 C 27693,5436 27714,5441 27725,5441 C 27735,5441 27743,5439 27748,5434 C 27754,5430 27761,5420 27768,5405 L 27799,5405 Z "  />
<path style="fill:#000000;fill-opacity:1.00;fill-rule:nonzero;stroke:none"  d="M 15745,5405 L 15745,5699 L 15714,5699 C 15690,5607 15659,5544 15622,5511 C 15585,5477 15537,5461 15479,5461 C 15435,5461 15400,5472 15373,5496 C 15346,5519 15332,5545 15332,5573 C 15332,5608 15342,5638 15362,5663 C 15382,5689 15421,5717 15481,5745 L 15619,5812 C 15746,5875 15810,5957 15810,6058 C 15810,6137 15780,6200 15721,6248 C 15662,6296 15595,6320 15522,6320 C 15469,6320 15409,6311 15341,6292 C 15320,6286 15303,6283 15290,6283 C 15275,6283 15264,6291 15256,6307 L 15225,6307 L 15225,5999 L 15256,5999 C 15273,6087 15307,6153 15357,6198 C 15406,6242 15462,6265 15524,6265 C 15567,6265 15602,6252 15630,6227 C 15657,6201 15671,6171 15671,6135 C 15671,6091 15655,6055 15625,6025 C 15594,5996 15534,5958 15442,5913 C 15351,5868 15292,5827 15263,5791 C 15235,5755 15221,5710 15221,5655 C 15221,5584 15245,5525 15294,5477 C 15343,5429 15406,5405 15483,5405 C 15517,5405 15558,5412 15606,5427 C 15638,5436 15660,5441 15671,5441 C 15681,5441 15688,5439 15694,5434 C 15700,5430 15706,5420 15714,5405 L 15745,5405 Z M 16158,4954 C 16184,4954 16207,4963 16225,4981 C 16244,5000 16253,5022 16253,5049 C 16253,5075 16244,5098 16225,5117 C 16207,5136 16184,5145 16158,5145 C 16131,5145 16109,5136 16090,5117 C 16071,5098 16062,5075 16062,5049 C 16062,5022 16071,5000 16090,4981 C 16108,4963 16131,4954 16158,4954 M 16236,5405 L 16236,6099 C 16236,6153 16240,6189 16248,6207 C 16256,6225 16267,6238 16283,6247 C 16298,6256 16326,6260 16367,6260 L 16367,6294 L 15948,6294 L 15948,6260 C 15990,6260 16018,6256 16033,6248 C 16047,6240 16058,6226 16067,6207 C 16075,6188 16080,6152 16080,6099 L 16080,5766 C 16080,5673 16077,5612 16071,5584 C 16067,5564 16060,5550 16050,5542 C 16041,5534 16028,5531 16012,5531 C 15994,5531 15973,5535 15948,5545 L 15934,5511 L 16195,5405 L 16236,5405 Z M 16726,5588 C 16827,5466 16924,5405 17016,5405 C 17063,5405 17103,5417 17137,5441 C 17171,5464 17198,5503 17218,5557 C 17232,5595 17239,5652 17239,5730 L 17239,6099 C 17239,6154 17243,6191 17252,6210 C 17259,6226 17270,6238 17286,6247 C 17301,6256 17330,6260 17371,6260 L 17371,6294 L 16944,6294 L 16944,6260 L 16962,6260 C 17002,6260 17030,6254 17046,6242 C 17062,6229 17073,6211 17080,6188 C 17082,6178 17083,6149 17083,6099 L 17083,5745 C 17083,5667 17073,5610 17053,5574 C 17032,5539 16998,5521 16950,5521 C 16875,5521 16800,5562 16726,5644 L 16726,6099 C 16726,6157 16730,6193 16737,6207 C 16745,6226 16758,6239 16773,6247 C 16788,6256 16820,6260 16867,6260 L 16867,6294 L 16440,6294 L 16440,6260 L 16459,6260 C 16503,6260 16532,6249 16548,6227 C 16563,6204 16571,6162 16571,6099 L 16571,5778 C 16571,5675 16568,5612 16564,5589 C 16559,5566 16552,5551 16542,5543 C 16532,5535 16519,5531 16503,5531 C 16485,5531 16464,5535 16440,5545 L 16426,5511 L 16686,5405 L 16726,5405 L 16726,5588 Z "  />
<path style="fill:#000000;fill-opacity:1.00;fill-rule:nonzero;stroke:none"  d="M 26173,1831 L 26173,2125 L 26142,2125 C 26118,2033 26087,1970 26050,1936 C 26013,1903 25965,1886 25907,1886 C 25863,1886 25828,1898 25801,1921 C 25774,1945 25760,1970 25760,1999 C 25760,2034 25770,2064 25790,2089 C 25810,2115 25849,2142 25909,2171 L 26047,2238 C 26174,2300 26238,2382 26238,2484 C 26238,2563 26208,2626 26149,2674 C 26090,2722 26023,2746 25950,2746 C 25897,2746 25836,2737 25769,2718 C 25748,2712 25731,2708 25718,2708 C 25703,2708 25692,2717 25684,2733 L 25653,2733 L 25653,2425 L 25684,2425 C 25701,2513 25735,2579 25785,2624 C 25834,2668 25890,2690 25951,2690 C 25995,2690 26030,2678 26057,2652 C 26085,2627 26098,2596 26098,2560 C 26098,2517 26083,2481 26053,2451 C 26022,2422 25961,2384 25870,2339 C 25779,2294 25720,2253 25691,2216 C 25663,2181 25649,2135 25649,2081 C 25649,2010 25673,1950 25722,1902 C 25771,1855 25834,1831 25911,1831 C 25945,1831 25986,1838 26034,1853 C 26066,1862 26088,1867 26098,1867 C 26109,1867 26116,1864 26122,1860 C 26128,1856 26134,1846 26142,1831 L 26173,1831 Z M 26586,1379 C 26612,1379 26635,1389 26653,1407 C 26672,1426 26681,1448 26681,1475 C 26681,1501 26672,1524 26653,1542 C 26635,1561 26612,1571 26586,1571 C 26559,1571 26537,1561 26518,1542 C 26499,1524 26490,1501 26490,1475 C 26490,1448 26499,1426 26517,1407 C 26536,1389 26559,1379 26586,1379 M 26664,1831 L 26664,2525 C 26664,2579 26668,2615 26676,2633 C 26684,2650 26695,2664 26711,2673 C 26726,2681 26754,2686 26795,2686 L 26795,2720 L 26376,2720 L 26376,2686 C 26418,2686 26446,2682 26460,2674 C 26475,2665 26486,2652 26495,2633 C 26503,2614 26508,2578 26508,2525 L 26508,2192 C 26508,2098 26505,2038 26499,2010 C 26495,1990 26488,1976 26478,1968 C 26469,1960 26456,1956 26440,1956 C 26422,1956 26401,1961 26376,1970 L 26362,1936 L 26623,1831 L 26664,1831 Z M 27154,2014 C 27255,1892 27352,1831 27444,1831 C 27491,1831 27531,1843 27565,1866 C 27599,1890 27626,1929 27646,1983 C 27660,2020 27667,2078 27667,2156 L 27667,2525 C 27667,2579 27671,2616 27680,2636 C 27687,2652 27698,2664 27714,2673 C 27729,2681 27757,2686 27799,2686 L 27799,2720 L 27372,2720 L 27372,2686 L 27390,2686 C 27430,2686 27458,2680 27474,2667 C 27490,2655 27501,2637 27508,2613 C 27510,2604 27511,2574 27511,2525 L 27511,2171 C 27511,2093 27501,2036 27481,2000 C 27460,1965 27426,1947 27378,1947 C 27303,1947 27228,1988 27154,2069 L 27154,2525 C 27154,2583 27158,2619 27165,2633 C 27173,2651 27185,2665 27201,2673 C 27216,2682 27247,2686 27295,2686 L 27295,2720 L 26868,2720 L 26868,2686 L 26886,2686 C 26930,2686 26960,2675 26976,2652 C 26991,2630 26999,2587 26999,2525 L 26999,2204 C 26999,2100 26996,2037 26992,2015 C 26987,1992 26980,1977 26970,1968 C 26960,1960 26947,1956 26931,1956 C 26913,1956 26892,1961 26868,1970 L 26853,1936 L 27114,1831 L 27154,1831 L 27154,2014 Z "  />
<path style="fill:#000000;fill-opacity:1.00;fill-rule:nonzero;stroke:none"  d="M 15949,2392 C 15926,2505 15880,2593 15812,2654 C 15744,2715 15669,2746 15587,2746 C 15489,2746 15404,2705 15331,2623 C 15258,2540 15221,2429 15221,2289 C 15221,2153 15262,2043 15342,1958 C 15423,1873 15520,1831 15633,1831 C 15718,1831 15788,1853 15842,1898 C 15897,1943 15924,1990 15924,2038 C 15924,2062 15917,2081 15901,2096 C 15886,2111 15864,2118 15837,2118 C 15800,2118 15772,2106 15753,2083 C 15742,2069 15735,2044 15732,2007 C 15728,1970 15716,1942 15694,1922 C 15672,1903 15641,1894 15602,1894 C 15539,1894 15489,1917 15450,1964 C 15399,2025 15374,2107 15374,2208 C 15374,2311 15399,2402 15450,2481 C 15500,2560 15569,2599 15655,2599 C 15716,2599 15772,2578 15821,2536 C 15855,2507 15889,2455 15922,2378 L 15949,2392 Z M 16495,1831 C 16625,1831 16730,1880 16810,1980 C 16877,2065 16910,2162 16910,2272 C 16910,2349 16892,2428 16855,2507 C 16818,2586 16767,2646 16702,2686 C 16637,2726 16564,2746 16484,2746 C 16354,2746 16251,2694 16174,2591 C 16110,2503 16077,2405 16077,2296 C 16077,2217 16097,2139 16136,2060 C 16175,1982 16227,1924 16291,1887 C 16355,1850 16423,1831 16495,1831 M 16465,1892 C 16432,1892 16399,1902 16365,1922 C 16331,1942 16304,1976 16284,2026 C 16263,2076 16252,2139 16252,2217 C 16252,2343 16277,2451 16327,2542 C 16377,2634 16443,2679 16525,2679 C 16586,2679 16636,2654 16676,2604 C 16715,2553 16735,2467 16735,2345 C 16735,2191 16702,2071 16636,1983 C 16591,1922 16535,1892 16465,1892 M 17596,1831 L 17596,2125 L 17565,2125 C 17541,2033 17510,1970 17473,1936 C 17435,1903 17388,1886 17330,1886 C 17286,1886 17250,1898 17223,1921 C 17196,1945 17183,1970 17183,1999 C 17183,2034 17193,2064 17213,2089 C 17232,2115 17272,2142 17332,2171 L 17469,2238 C 17597,2300 17661,2382 17661,2484 C 17661,2563 17631,2626 17572,2674 C 17512,2722 17446,2746 17372,2746 C 17319,2746 17259,2737 17191,2718 C 17171,2712 17154,2708 17140,2708 C 17126,2708 17115,2717 17106,2733 L 17075,2733 L 17075,2425 L 17106,2425 C 17124,2513 17158,2579 17207,2624 C 17257,2668 17313,2690 17374,2690 C 17418,2690 17453,2678 17480,2652 C 17508,2627 17521,2596 17521,2560 C 17521,2517 17506,2481 17475,2451 C 17445,2422 17384,2384 17293,2339 C 17202,2294 17142,2253 17114,2216 C 17086,2181 17072,2135 17072,2081 C 17072,2010 17096,1950 17145,1902 C 17193,1855 17256,1831 17334,1831 C 17368,1831 17409,1838 17457,1853 C 17489,1862 17511,1867 17521,1867 C 17531,1867 17539,1864 17545,1860 C 17550,1856 17557,1846 17565,1831 L 17596,1831 Z "  />
<path style="fill:#000000;fill-opacity:1.00;fill-rule:nonzero;stroke:none"  d="M 6555,2882 L 6555,2842 C 6650,2889 6730,2945 6793,3009 C 6883,3101 6953,3208 7002,3332 C 7051,3455 7075,3584 7075,3718 C 7075,3913 7027,4090 6931,4251 C 6836,4411 6710,4526 6555,4595 L 6555,4561 C 6632,4517 6696,4459 6746,4385 C 6796,4311 6833,4217 6857,4103 C 6881,3989 6893,3870 6893,3746 C 6893,3612 6883,3490 6862,3380 C 6846,3293 6827,3223 6803,3171 C 6780,3119 6748,3069 6709,3020 C 6670,2972 6619,2926 6555,2882 "  />
<path style="fill:#000000;fill-opacity:1.00;fill-rule:nonzero;stroke:none"  d="M 4855,4504 L 4855,4463 C 4920,4441 4970,4408 5005,4363 C 5041,4318 5059,4271 5059,4220 C 5059,4208 5056,4198 5050,4190 C 5046,4184 5041,4182 5037,4182 C 5030,4182 5015,4188 4992,4201 C 4980,4206 4968,4209 4956,4209 C 4925,4209 4900,4200 4882,4182 C 4864,4163 4855,4138 4855,4106 C 4855,4075 4867,4049 4890,4027 C 4914,4005 4943,3994 4977,3994 C 5018,3994 5055,4012 5087,4048 C 5120,4084 5136,4132 5136,4192 C 5136,4257 5113,4317 5068,4373 C 5023,4428 4952,4472 4855,4504 "  />
<path style="fill:#000000;fill-opacity:1.00;fill-rule:nonzero;stroke:none"  d="M 3352,4504 L 3352,4463 C 3417,4441 3467,4408 3503,4363 C 3538,4318 3556,4271 3556,4220 C 3556,4208 3553,4198 3547,4190 C 3543,4184 3539,4182 3534,4182 C 3527,4182 3512,4188 3489,4201 C 3478,4206 3466,4209 3453,4209 C 3422,4209 3398,4200 3380,4182 C 3361,4163 3352,4138 3352,4106 C 3352,4075 3364,4049 3388,4027 C 3411,4005 3440,3994 3474,3994 C 3515,3994 3552,4012 3585,4048 C 3617,4084 3633,4132 3633,4192 C 3633,4257 3611,4317 3566,4373 C 3521,4428 3450,4472 3352,4504 "  />
<path style="fill:#000000;fill-opacity:1.00;fill-rule:nonzero;stroke:none"  d="M 2250,4561 L 2250,4595 C 2155,4548 2076,4492 2012,4428 C 1922,4337 1852,4229 1803,4105 C 1754,3982 1730,3853 1730,3720 C 1730,3525 1778,3347 1874,3187 C 1970,3026 2095,2911 2250,2842 L 2250,2882 C 2173,2925 2109,2983 2060,3057 C 2010,3131 1973,3225 1948,3339 C 1924,3453 1912,3572 1912,3695 C 1912,3830 1922,3952 1943,4062 C 1959,4149 1979,4218 2002,4271 C 2025,4323 2057,4374 2096,4422 C 2135,4470 2187,4517 2250,4561 "  />
<path style="fill:#000000;fill-opacity:1.00;fill-rule:nonzero;stroke:none"  d="M 28391,6268 L 28575,5672 C 28605,5576 28644,5507 28694,5466 C 28743,5426 28801,5405 28867,5405 C 28962,5405 29034,5446 29083,5529 C 29132,5612 29138,5715 29100,5838 C 29074,5920 29029,6000 28964,6079 C 28900,6157 28829,6215 28753,6252 C 28677,6289 28585,6312 28477,6320 L 28357,6711 L 28254,6711 L 28375,6320 C 28281,6312 28208,6289 28155,6252 C 28102,6214 28068,6156 28051,6079 C 28034,6002 28039,5922 28064,5840 C 28086,5770 28119,5705 28164,5646 C 28209,5586 28256,5539 28304,5504 C 28351,5470 28397,5445 28441,5430 C 28485,5415 28536,5407 28593,5405 L 28582,5441 C 28524,5445 28464,5477 28403,5537 C 28341,5597 28290,5692 28249,5823 C 28220,5918 28210,5999 28219,6065 C 28228,6132 28249,6182 28283,6216 C 28306,6237 28342,6254 28391,6268 M 28494,6266 C 28560,6259 28616,6244 28662,6221 C 28725,6191 28780,6146 28826,6088 C 28872,6030 28908,5961 28933,5880 C 28968,5766 28969,5672 28934,5597 C 28910,5543 28871,5516 28817,5516 C 28790,5516 28765,5528 28740,5552 C 28716,5575 28692,5625 28668,5702 L 28494,6266 Z "  />
<path style="fill:#000000;fill-opacity:1.00;fill-rule:nonzero;stroke:none"  d="M 17934,6268 L 18118,5672 C 18148,5576 18188,5507 18237,5466 C 18286,5426 18344,5405 18410,5405 C 18506,5405 18578,5446 18627,5529 C 18676,5612 18681,5715 18643,5838 C 18618,5920 18573,6000 18508,6079 C 18443,6157 18373,6215 18296,6252 C 18220,6289 18128,6312 18021,6320 L 17900,6711 L 17797,6711 L 17918,6320 C 17824,6312 17751,6289 17698,6252 C 17646,6214 17611,6156 17594,6079 C 17578,6002 17582,5922 17608,5840 C 17629,5770 17662,5705 17708,5646 C 17753,5586 17799,5539 17847,5504 C 17895,5470 17941,5445 17984,5430 C 18028,5415 18079,5407 18137,5405 L 18126,5441 C 18068,5445 18008,5477 17946,5537 C 17884,5597 17833,5692 17793,5823 C 17764,5918 17753,5999 17762,6065 C 17771,6132 17793,6182 17827,6216 C 17849,6237 17885,6254 17934,6268 M 18038,6266 C 18103,6259 18159,6244 18205,6221 C 18269,6191 18323,6146 18370,6088 C 18416,6030 18451,5961 18476,5880 C 18511,5766 18512,5672 18478,5597 C 18453,5543 18414,5516 18361,5516 C 18334,5516 18308,5528 18284,5552 C 18260,5575 18236,5625 18212,5702 L 18038,6266 Z "  />
<path style="fill:#000000;fill-opacity:1.00;fill-rule:nonzero;stroke:none"  d="M 28362,2693 L 28546,2098 C 28576,2001 28616,1933 28665,1892 C 28714,1851 28772,1831 28838,1831 C 28934,1831 29006,1872 29055,1955 C 29104,2037 29109,2140 29071,2263 C 29046,2346 29000,2426 28936,2504 C 28871,2583 28801,2640 28724,2678 C 28648,2715 28556,2738 28449,2746 L 28328,3136 L 28225,3136 L 28346,2746 C 28252,2738 28179,2715 28126,2677 C 28074,2640 28039,2582 28022,2505 C 28006,2428 28010,2348 28035,2265 C 28057,2196 28090,2131 28136,2071 C 28181,2012 28227,1964 28275,1930 C 28323,1895 28368,1871 28412,1856 C 28456,1841 28507,1833 28565,1831 L 28554,1867 C 28496,1871 28436,1903 28374,1963 C 28312,2023 28261,2118 28221,2248 C 28191,2343 28181,2424 28190,2491 C 28199,2558 28220,2608 28255,2641 C 28277,2663 28313,2680 28362,2693 M 28466,2691 C 28531,2685 28587,2670 28633,2647 C 28696,2616 28751,2572 28798,2514 C 28844,2456 28879,2386 28904,2306 C 28939,2192 28940,2098 28906,2023 C 28881,1969 28842,1942 28789,1942 C 28762,1942 28736,1954 28712,1977 C 28687,2001 28663,2051 28640,2128 L 28466,2691 Z "  />
<path style="fill:#000000;fill-opacity:1.00;fill-rule:nonzero;stroke:none"  d="M 18187,2693 L 18371,2098 C 18401,2001 18441,1933 18490,1892 C 18539,1851 18597,1831 18663,1831 C 18758,1831 18831,1872 18880,1955 C 18929,2037 18934,2140 18896,2263 C 18870,2346 18825,2426 18761,2504 C 18696,2583 18625,2640 18549,2678 C 18473,2715 18381,2738 18274,2746 L 18153,3136 L 18050,3136 L 18171,2746 C 18077,2738 18004,2715 17951,2677 C 17899,2640 17864,2582 17847,2505 C 17831,2428 17835,2348 17860,2265 C 17882,2196 17915,2131 17960,2071 C 18006,2012 18052,1964 18100,1930 C 18148,1895 18193,1871 18237,1856 C 18281,1841 18332,1833 18390,1831 L 18379,1867 C 18321,1871 18261,1903 18199,1963 C 18137,2023 18086,2118 18046,2248 C 18016,2343 18006,2424 18015,2491 C 18024,2558 18045,2608 18080,2641 C 18102,2663 18138,2680 18187,2693 M 18291,2691 C 18356,2685 18412,2670 18458,2647 C 18521,2616 18576,2572 18623,2514 C 18669,2456 18704,2386 18729,2306 C 18764,2192 18765,2098 18731,2023 C 18706,1969 18667,1942 18613,1942 C 18586,1942 18561,1954 18537,1977 C 18512,2001 18488,2051 18465,2128 L 18291,2691 Z "  />
<path style="fill:#000000;fill-opacity:1.00;fill-rule:nonzero;stroke:none"  d="M 5784,4156 L 5968,3561 C 5998,3464 6038,3396 6087,3355 C 6136,3314 6194,3294 6260,3294 C 6356,3294 6428,3335 6477,3418 C 6526,3500 6531,3603 6493,3726 C 6468,3809 6423,3889 6358,3967 C 6293,4045 6223,4103 6146,4141 C 6070,4178 5978,4201 5871,4209 L 5750,4599 L 5647,4599 L 5768,4209 C 5674,4201 5601,4178 5548,4140 C 5496,4102 5461,4045 5444,3968 C 5428,3890 5432,3811 5458,3728 C 5479,3659 5512,3594 5558,3534 C 5603,3474 5649,3427 5697,3393 C 5745,3358 5791,3334 5834,3319 C 5878,3304 5929,3296 5987,3294 L 5976,3330 C 5918,3334 5858,3366 5796,3426 C 5734,3485 5683,3581 5643,3711 C 5614,3806 5603,3887 5612,3954 C 5621,4021 5643,4071 5677,4104 C 5699,4126 5735,4143 5784,4156 M 5888,4154 C 5953,4147 6009,4133 6055,4110 C 6119,4079 6173,4035 6220,3977 C 6266,3919 6301,3849 6326,3769 C 6361,3655 6362,3561 6328,3486 C 6303,3432 6264,3405 6211,3405 C 6184,3405 6158,3417 6134,3440 C 6110,3464 6086,3514 6062,3591 L 5888,4154 Z "  />
</svg>