<svg width="232px" height="65px" viewBox="0 0 23200 6500" version="1.1" xmlns="http://www.w3.org/2000/svg" xmlns:xlink="http://www.w3.org/1999/xlink">
<path style="fill:#000000;fill-opacity:1.00;fill-rule:nonzero;stroke:none"  d="M 6864,3036 L 6864,3089 C 6651,2982 6485,2826 6366,2621 C 6247,2415 6187,2190 6187,1946 C 6187,1691 6250,1460 6375,1251 C 6500,1042 6663,892 6864,803 L 6864,854 C 6764,910 6681,986 6616,1082 C 6552,1179 6504,1301 6472,1449 C 6440,1598 6424,1753 6424,1914 C 6424,2096 6439,2261 6468,2408 C 6497,2555 6542,2677 6603,2774 C 6663,2871 6750,2958 6864,3036 "  />
<path style="fill:#000000;fill-opacity:1.00;fill-rule:nonzero;stroke:none"  d="M 11969,854 L 11969,803 C 12182,908 12348,1064 12467,1269 C 12586,1475 12646,1700 12646,1944 C 12646,2199 12583,2430 12458,2640 C 12333,2849 12170,2999 11969,3089 L 11969,3036 C 12070,2980 12153,2904 12218,2808 C 12282,2711 12330,2589 12362,2441 C 12393,2293 12409,2138 12409,1976 C 12409,1795 12394,1630 12365,1483 C 12336,1335 12291,1213 12231,1116 C 12170,1019 12082,932 11969,854 "  />
<path style="fill:#000000;fill-opacity:1.00;fill-rule:nonzero;stroke:none"  d="M 15892,3036 L 15892,3089 C 15679,2982 15513,2826 15394,2621 C 15275,2415 15215,2190 15215,1946 C 15215,1691 15278,1460 15403,1251 C 15528,1042 15691,892 15892,803 L 15892,854 C 15792,910 15709,986 15645,1082 C 15580,1179 15532,1301 15500,1449 C 15468,1598 15452,1753 15452,1914 C 15452,2096 15467,2261 15496,2408 C 15526,2555 15571,2677 15631,2774 C 15692,2871 15779,2958 15892,3036 "  />
<path style="fill:#000000;fill-opacity:1.00;fill-rule:nonzero;stroke:none"  d="M 21232,854 L 21232,803 C 21445,908 21612,1064 21731,1269 C 21850,1475 21909,1700 21909,1944 C 21909,2199 21846,2430 21721,2640 C 21596,2849 21433,2999 21232,3089 L 21232,3036 C 21333,2980 21416,2904 21481,2808 C 21546,2711 21594,2589 21625,2441 C 21657,2293 21672,2138 21672,1976 C 21672,1795 21658,1630 21629,1483 C 21600,1335 21555,1213 21494,1116 C 21433,1019 21346,932 21232,854 "  />
<path style="fill:#000000;fill-opacity:1.00;fill-rule:nonzero;stroke:none"  d="M 6864,5944 L 6864,5997 C 6651,5890 6485,5734 6366,5529 C 6247,5323 6187,5098 6187,4854 C 6187,4599 6250,4368 6375,4159 C 6500,3950 6663,3801 6864,3711 L 6864,3762 C 6764,3818 6681,3894 6616,3990 C 6552,4087 6504,4209 6472,4358 C 6440,4506 6424,4661 6424,4822 C 6424,5004 6439,5169 6468,5316 C 6497,5463 6542,5585 6603,5682 C 6663,5779 6750,5866 6864,5944 "  />
<path style="fill:#000000;fill-opacity:1.00;fill-rule:nonzero;stroke:none"  d="M 11969,3762 L 11969,3711 C 12182,3816 12348,3972 12467,4177 C 12586,4383 12646,4608 12646,4852 C 12646,5107 12583,5339 12458,5548 C 12333,5757 12170,5907 11969,5997 L 11969,5944 C 12070,5888 12153,5812 12218,5716 C 12282,5619 12330,5497 12362,5349 C 12393,5201 12409,5046 12409,4884 C 12409,4703 12394,4538 12365,4391 C 12336,4243 12291,4121 12231,4024 C 12170,3927 12082,3840 11969,3762 "  />
<path style="fill:#000000;fill-opacity:1.00;fill-rule:nonzero;stroke:none"  d="M 15892,5944 L 15892,5997 C 15679,5890 15513,5734 15394,5529 C 15275,5323 15215,5098 15215,4854 C 15215,4599 15278,4368 15403,4159 C 15528,3950 15691,3801 15892,3711 L 15892,3762 C 15792,3818 15709,3894 15645,3990 C 15580,4087 15532,4209 15500,4358 C 15468,4506 15452,4661 15452,4822 C 15452,5004 15467,5169 15496,5316 C 15526,5463 15571,5585 15631,5682 C 15692,5779 15779,5866 15892,5944 "  />
<path style="fill:#000000;fill-opacity:1.00;fill-rule:nonzero;stroke:none"  d="M 21232,3762 L 21232,3711 C 21445,3816 21612,3972 21731,4177 C 21850,4383 21909,4608 21909,4852 C 21909,5107 21846,5339 21721,5548 C 21596,5757 21433,5907 21232,5997 L 21232,5944 C 21333,5888 21416,5812 21481,5716 C 21546,5619 21594,5497 21625,5349 C 21657,5201 21672,5046 21672,4884 C 21672,4703 21658,4538 21629,4391 C 21600,4243 21555,4121 21494,4024 C 21433,3927 21346,3840 21232,3762 "  />
<path style="fill:none;stroke:#000000;stroke-width:78px;stroke-opacity:1.00;"  d="M 5991,3329 L 22686,3329 "  />
<path style="fill:none;stroke:#000000;stroke-width:78px;stroke-opacity:1.00;"  d="M 4757,3998 L 4997,3859 "  />
<path style="fill:none;stroke:#000000;stroke-width:156px;stroke-opacity:1.00;"  d="M 4997,3899 L 5344,6019 "  />
<path style="fill:none;stroke:#000000;stroke-width:78px;stroke-opacity:1.00;"  d="M 5384,6019 L 5844,362 "  />
<path style="fill:none;stroke:#000000;stroke-width:78px;stroke-opacity:1.00;"  d="M 5844,362 L 22842,362 "  />
<path style="fill:#000000;fill-opacity:1.00;fill-rule:nonzero;stroke:none"  d="M 22308,4332 L 22256,4474 L 21823,4474 L 21823,4454 C 21950,4337 22040,4242 22092,4169 C 22144,4095 22170,4028 22170,3967 C 22170,3920 22156,3882 22127,3852 C 22099,3822 22065,3807 22025,3807 C 21989,3807 21956,3817 21928,3838 C 21899,3860 21878,3891 21864,3931 L 21844,3931 C 21853,3865 21876,3813 21914,3777 C 21951,3742 21998,3724 22054,3724 C 22113,3724 22163,3743 22203,3781 C 22243,3820 22263,3865 22263,3917 C 22263,3954 22254,3991 22237,4028 C 22210,4087 22167,4149 22107,4214 C 22017,4312 21961,4372 21938,4392 L 22130,4392 C 22169,4392 22196,4390 22212,4388 C 22228,4385 22242,4379 22255,4370 C 22267,4361 22278,4349 22288,4332 L 22308,4332 Z "  />
<path style="fill:#000000;fill-opacity:1.00;fill-rule:nonzero;stroke:none"  d="M 20513,5278 L 20692,5190 L 20710,5190 L 20710,5811 C 20710,5852 20712,5877 20715,5888 C 20719,5898 20726,5905 20737,5911 C 20747,5916 20769,5919 20803,5920 L 20803,5940 L 20526,5940 L 20526,5920 C 20561,5919 20583,5916 20594,5911 C 20604,5906 20611,5899 20615,5890 C 20619,5881 20621,5855 20621,5811 L 20621,5414 C 20621,5361 20619,5326 20615,5311 C 20613,5300 20608,5291 20601,5286 C 20595,5280 20587,5278 20577,5278 C 20564,5278 20545,5283 20521,5294 L 20513,5278 Z "  />
<path style="fill:#000000;fill-opacity:1.00;fill-rule:nonzero;stroke:none"  d="M 17321,5799 L 17269,5940 L 16836,5940 L 16836,5920 C 16964,5804 17053,5709 17105,5635 C 17157,5561 17183,5494 17183,5433 C 17183,5386 17169,5348 17141,5318 C 17112,5288 17078,5273 17038,5273 C 17002,5273 16970,5284 16941,5305 C 16912,5326 16891,5357 16877,5398 L 16857,5398 C 16866,5331 16889,5280 16927,5244 C 16964,5208 17011,5190 17067,5190 C 17126,5190 17176,5209 17216,5248 C 17256,5286 17276,5331 17276,5383 C 17276,5420 17267,5458 17250,5495 C 17223,5553 17180,5615 17120,5681 C 17030,5779 16974,5838 16951,5858 L 17143,5858 C 17182,5858 17210,5857 17225,5854 C 17241,5851 17255,5845 17268,5836 C 17280,5828 17291,5815 17301,5799 L 17321,5799 Z "  />
<path style="fill:#000000;fill-opacity:1.00;fill-rule:nonzero;stroke:none"  d="M 13044,4332 L 12993,4474 L 12559,4474 L 12559,4454 C 12687,4337 12777,4242 12829,4169 C 12881,4095 12907,4028 12907,3967 C 12907,3920 12893,3882 12864,3852 C 12835,3822 12801,3807 12762,3807 C 12725,3807 12693,3817 12664,3838 C 12636,3860 12614,3891 12601,3931 L 12581,3931 C 12590,3865 12613,3813 12650,3777 C 12688,3742 12734,3724 12790,3724 C 12850,3724 12900,3743 12940,3781 C 12979,3820 12999,3865 12999,3917 C 12999,3954 12991,3991 12973,4028 C 12947,4087 12903,4149 12843,4214 C 12753,4312 12697,4372 12675,4392 L 12867,4392 C 12906,4392 12933,4390 12949,4388 C 12964,4385 12979,4379 12991,4370 C 13004,4361 13015,4349 13024,4332 L 13044,4332 Z "  />
<path style="fill:#000000;fill-opacity:1.00;fill-rule:nonzero;stroke:none"  d="M 11250,5278 L 11429,5190 L 11447,5190 L 11447,5811 C 11447,5852 11448,5877 11452,5888 C 11455,5898 11462,5905 11473,5911 C 11484,5916 11506,5919 11539,5920 L 11539,5940 L 11263,5940 L 11263,5920 C 11298,5919 11320,5916 11330,5911 C 11340,5906 11347,5899 11351,5890 C 11355,5881 11357,5855 11357,5811 L 11357,5414 C 11357,5361 11355,5326 11352,5311 C 11349,5300 11345,5291 11338,5286 C 11331,5280 11323,5278 11314,5278 C 11301,5278 11282,5283 11258,5294 L 11250,5278 Z "  />
<path style="fill:#000000;fill-opacity:1.00;fill-rule:nonzero;stroke:none"  d="M 8175,5799 L 8124,5940 L 7690,5940 L 7690,5920 C 7818,5804 7907,5709 7960,5635 C 8012,5561 8038,5494 8038,5433 C 8038,5386 8023,5348 7995,5318 C 7966,5288 7932,5273 7892,5273 C 7856,5273 7824,5284 7795,5305 C 7766,5326 7745,5357 7731,5398 L 7711,5398 C 7720,5331 7744,5280 7781,5244 C 7818,5208 7865,5190 7921,5190 C 7981,5190 8030,5209 8070,5248 C 8110,5286 8130,5331 8130,5383 C 8130,5420 8122,5458 8104,5495 C 8077,5553 8034,5615 7974,5681 C 7884,5779 7828,5838 7806,5858 L 7997,5858 C 8036,5858 8064,5857 8080,5854 C 8095,5851 8109,5845 8122,5836 C 8135,5828 8146,5815 8155,5799 L 8175,5799 Z "  />
<path style="fill:#000000;fill-opacity:1.00;fill-rule:nonzero;stroke:none"  d="M 22308,1424 L 22256,1566 L 21823,1566 L 21823,1546 C 21950,1429 22040,1334 22092,1261 C 22144,1187 22170,1119 22170,1058 C 22170,1012 22156,974 22127,944 C 22099,914 22065,899 22025,899 C 21989,899 21956,909 21928,930 C 21899,951 21878,982 21864,1023 L 21844,1023 C 21853,956 21876,905 21914,869 C 21951,834 21998,816 22054,816 C 22113,816 22163,835 22203,873 C 22243,911 22263,957 22263,1009 C 22263,1046 22254,1083 22237,1120 C 22210,1179 22167,1241 22107,1306 C 22017,1404 21961,1464 21938,1484 L 22130,1484 C 22169,1484 22196,1482 22212,1479 C 22228,1477 22242,1471 22255,1462 C 22267,1453 22278,1440 22288,1424 L 22308,1424 Z "  />
<path style="fill:#000000;fill-opacity:1.00;fill-rule:nonzero;stroke:none"  d="M 20513,2369 L 20692,2282 L 20710,2282 L 20710,2903 C 20710,2944 20712,2969 20715,2979 C 20719,2990 20726,2997 20737,3003 C 20747,3008 20769,3011 20803,3012 L 20803,3032 L 20526,3032 L 20526,3012 C 20561,3011 20583,3008 20594,3003 C 20604,2998 20611,2991 20615,2982 C 20619,2973 20621,2947 20621,2903 L 20621,2506 C 20621,2452 20619,2418 20615,2403 C 20613,2391 20608,2383 20601,2377 C 20595,2372 20587,2369 20577,2369 C 20564,2369 20545,2375 20521,2386 L 20513,2369 Z "  />
<path style="fill:#000000;fill-opacity:1.00;fill-rule:nonzero;stroke:none"  d="M 17321,2891 L 17269,3032 L 16836,3032 L 16836,3012 C 16964,2896 17053,2801 17105,2727 C 17157,2653 17183,2586 17183,2525 C 17183,2478 17169,2440 17141,2410 C 17112,2380 17078,2365 17038,2365 C 17002,2365 16970,2376 16941,2397 C 16912,2418 16891,2449 16877,2490 L 16857,2490 C 16866,2423 16889,2372 16927,2336 C 16964,2300 17011,2282 17067,2282 C 17126,2282 17176,2301 17216,2340 C 17256,2378 17276,2423 17276,2475 C 17276,2512 17267,2549 17250,2587 C 17223,2645 17180,2707 17120,2772 C 17030,2871 16974,2930 16951,2950 L 17143,2950 C 17182,2950 17210,2949 17225,2946 C 17241,2943 17255,2937 17268,2928 C 17280,2919 17291,2907 17301,2891 L 17321,2891 Z "  />
<path style="fill:#000000;fill-opacity:1.00;fill-rule:nonzero;stroke:none"  d="M 13044,1424 L 12993,1566 L 12559,1566 L 12559,1546 C 12687,1429 12777,1334 12829,1261 C 12881,1187 12907,1119 12907,1058 C 12907,1012 12893,974 12864,944 C 12835,914 12801,899 12762,899 C 12725,899 12693,909 12664,930 C 12636,951 12614,982 12601,1023 L 12581,1023 C 12590,956 12613,905 12650,869 C 12688,834 12734,816 12790,816 C 12850,816 12900,835 12940,873 C 12979,911 12999,957 12999,1009 C 12999,1046 12991,1083 12973,1120 C 12947,1179 12903,1241 12843,1306 C 12753,1404 12697,1464 12675,1484 L 12867,1484 C 12906,1484 12933,1482 12949,1479 C 12964,1477 12979,1471 12991,1462 C 13004,1453 13015,1440 13024,1424 L 13044,1424 Z "  />
<path style="fill:#000000;fill-opacity:1.00;fill-rule:nonzero;stroke:none"  d="M 11250,2369 L 11429,2282 L 11447,2282 L 11447,2903 C 11447,2944 11448,2969 11452,2979 C 11455,2990 11462,2997 11473,3003 C 11484,3008 11506,3011 11539,3012 L 11539,3032 L 11263,3032 L 11263,3012 C 11298,3011 11320,3008 11330,3003 C 11340,2998 11347,2991 11351,2982 C 11355,2973 11357,2947 11357,2903 L 11357,2506 C 11357,2452 11355,2418 11352,2403 C 11349,2391 11345,2383 11338,2377 C 11331,2372 11323,2369 11314,2369 C 11301,2369 11282,2375 11258,2386 L 11250,2369 Z "  />
<path style="fill:#000000;fill-opacity:1.00;fill-rule:nonzero;stroke:none"  d="M 8175,2891 L 8124,3032 L 7690,3032 L 7690,3012 C 7818,2896 7907,2801 7960,2727 C 8012,2653 8038,2586 8038,2525 C 8038,2478 8023,2440 7995,2410 C 7966,2380 7932,2365 7892,2365 C 7856,2365 7824,2376 7795,2397 C 7766,2418 7745,2449 7731,2490 L 7711,2490 C 7720,2423 7744,2372 7781,2336 C 7818,2300 7865,2282 7921,2282 C 7981,2282 8030,2301 8070,2340 C 8110,2378 8130,2423 8130,2475 C 8130,2512 8122,2549 8104,2587 C 8077,2645 8034,2707 7974,2772 C 7884,2871 7828,2930 7806,2950 L 7997,2950 C 8036,2950 8064,2949 8080,2946 C 8095,2943 8109,2937 8122,2928 C 8135,2919 8146,2907 8155,2891 L 8175,2891 Z "  />
<path style="fill:#000000;fill-opacity:1.00;fill-rule:nonzero;stroke:none"  d="M 2380,4139 L 2329,4280 L 1895,4280 L 1895,4260 C 2023,4144 2112,4049 2164,3975 C 2216,3902 2242,3834 2242,3773 C 2242,3727 2228,3688 2200,3658 C 2171,3628 2137,3613 2097,3613 C 2061,3613 2029,3624 2000,3645 C 1971,3666 1950,3697 1936,3738 L 1916,3738 C 1925,3671 1948,3620 1986,3584 C 2023,3548 2070,3531 2126,3531 C 2186,3531 2235,3550 2275,3588 C 2315,3626 2335,3671 2335,3723 C 2335,3761 2326,3798 2309,3835 C 2282,3894 2239,3956 2179,4021 C 2089,4119 2033,4178 2011,4199 L 2202,4199 C 2241,4199 2269,4197 2284,4194 C 2300,4191 2314,4186 2327,4177 C 2340,4168 2351,4155 2360,4139 L 2380,4139 Z "  />
<path style="fill:#000000;fill-opacity:1.00;fill-rule:nonzero;stroke:none"  d="M 1578,4465 L 1578,4441 C 1615,4429 1644,4410 1665,4384 C 1685,4358 1695,4331 1695,4302 C 1695,4295 1694,4290 1690,4285 C 1688,4282 1685,4280 1683,4280 C 1679,4280 1670,4284 1657,4291 C 1650,4294 1643,4296 1636,4296 C 1618,4296 1604,4290 1594,4280 C 1583,4269 1578,4255 1578,4237 C 1578,4219 1585,4204 1599,4191 C 1612,4178 1629,4172 1648,4172 C 1672,4172 1693,4183 1712,4203 C 1730,4224 1740,4252 1740,4286 C 1740,4323 1727,4358 1701,4390 C 1675,4422 1634,4447 1578,4465 "  />
<path style="fill:#000000;fill-opacity:1.00;fill-rule:nonzero;stroke:none"  d="M 1139,3618 L 1318,3531 L 1336,3531 L 1336,4151 C 1336,4192 1338,4218 1341,4228 C 1344,4238 1352,4246 1362,4251 C 1373,4257 1395,4260 1428,4260 L 1428,4280 L 1152,4280 L 1152,4260 C 1187,4260 1209,4257 1219,4252 C 1229,4246 1237,4239 1240,4230 C 1244,4222 1246,4195 1246,4151 L 1246,3754 C 1246,3701 1245,3667 1241,3651 C 1238,3640 1234,3631 1227,3626 C 1221,3621 1212,3618 1203,3618 C 1190,3618 1171,3623 1147,3635 L 1139,3618 Z "  />
<path style="fill:#000000;fill-opacity:1.00;fill-rule:nonzero;stroke:none"  d="M 19874,4624 C 19895,4660 19909,4693 19918,4725 C 19926,4756 19934,4817 19942,4909 L 19983,5366 C 20020,5322 20074,5251 20144,5154 C 20178,5107 20220,5043 20270,4962 C 20301,4912 20319,4878 20326,4858 C 20330,4848 20332,4838 20332,4827 C 20332,4821 20330,4815 20325,4811 C 20321,4806 20310,4801 20291,4795 C 20273,4789 20258,4779 20246,4763 C 20234,4747 20228,4729 20228,4708 C 20228,4683 20235,4663 20250,4647 C 20265,4632 20283,4624 20306,4624 C 20333,4624 20356,4635 20375,4658 C 20395,4680 20404,4712 20404,4751 C 20404,4800 20388,4856 20354,4919 C 20321,4982 20256,5078 20161,5208 C 20066,5338 19950,5480 19814,5634 C 19721,5740 19652,5806 19606,5834 C 19561,5861 19522,5875 19490,5875 C 19471,5875 19454,5868 19440,5853 C 19425,5839 19418,5822 19418,5803 C 19418,5779 19428,5757 19448,5737 C 19468,5717 19490,5707 19513,5707 C 19526,5707 19536,5710 19544,5715 C 19549,5718 19554,5727 19560,5742 C 19566,5756 19572,5766 19577,5771 C 19580,5774 19583,5776 19588,5776 C 19591,5776 19598,5773 19607,5766 C 19641,5745 19681,5712 19726,5666 C 19786,5605 19830,5556 19858,5518 L 19806,4929 C 19797,4831 19784,4772 19767,4751 C 19750,4730 19721,4720 19680,4720 C 19667,4720 19643,4721 19610,4725 L 19602,4691 L 19874,4624 Z "  />
<path style="fill:#000000;fill-opacity:1.00;fill-rule:nonzero;stroke:none"  d="M 16180,4624 C 16201,4660 16216,4693 16224,4725 C 16232,4756 16240,4817 16248,4909 L 16289,5366 C 16326,5322 16380,5251 16451,5154 C 16485,5107 16527,5043 16577,4962 C 16607,4912 16626,4878 16633,4858 C 16636,4848 16638,4838 16638,4827 C 16638,4821 16636,4815 16632,4811 C 16627,4806 16616,4801 16598,4795 C 16580,4789 16564,4779 16552,4763 C 16540,4747 16534,4729 16534,4708 C 16534,4683 16542,4663 16556,4647 C 16571,4632 16590,4624 16612,4624 C 16639,4624 16663,4635 16682,4658 C 16701,4680 16711,4712 16711,4751 C 16711,4800 16694,4856 16660,4919 C 16627,4982 16563,5078 16467,5208 C 16372,5338 16256,5480 16121,5634 C 16027,5740 15958,5806 15913,5834 C 15868,5861 15829,5875 15797,5875 C 15777,5875 15761,5868 15746,5853 C 15731,5839 15724,5822 15724,5803 C 15724,5779 15734,5757 15754,5737 C 15774,5717 15796,5707 15820,5707 C 15832,5707 15842,5710 15851,5715 C 15855,5718 15861,5727 15867,5742 C 15873,5756 15878,5766 15883,5771 C 15886,5774 15890,5776 15894,5776 C 15898,5776 15904,5773 15914,5766 C 15948,5745 15987,5712 16033,5666 C 16092,5605 16136,5556 16164,5518 L 16112,4929 C 16104,4831 16091,4772 16073,4751 C 16056,4730 16027,4720 15986,4720 C 15973,4720 15950,4721 15916,4725 L 15908,4691 L 16180,4624 Z "  />
<path style="fill:#000000;fill-opacity:1.00;fill-rule:nonzero;stroke:none"  d="M 10666,4624 C 10696,4656 10719,4688 10735,4721 C 10746,4743 10764,4801 10789,4896 L 10871,4773 C 10893,4744 10919,4715 10950,4688 C 10981,4662 11008,4643 11032,4633 C 11047,4627 11063,4624 11081,4624 C 11108,4624 11129,4631 11145,4645 C 11161,4660 11168,4677 11168,4697 C 11168,4721 11164,4737 11154,4746 C 11137,4761 11117,4769 11095,4769 C 11082,4769 11068,4766 11053,4760 C 11024,4751 11005,4746 10995,4746 C 10980,4746 10962,4754 10942,4772 C 10903,4804 10858,4866 10804,4958 L 10880,5278 C 10892,5327 10902,5356 10910,5366 C 10918,5375 10926,5380 10934,5380 C 10947,5380 10963,5373 10980,5359 C 11014,5330 11043,5293 11067,5247 L 11100,5264 C 11061,5337 11011,5398 10951,5446 C 10917,5473 10888,5487 10865,5487 C 10830,5487 10802,5467 10782,5428 C 10769,5404 10742,5300 10701,5116 C 10605,5284 10527,5392 10469,5440 C 10431,5471 10395,5487 10359,5487 C 10335,5487 10312,5478 10292,5460 C 10277,5446 10269,5428 10269,5405 C 10269,5385 10276,5368 10290,5354 C 10303,5340 10320,5334 10340,5334 C 10360,5334 10381,5343 10403,5363 C 10419,5378 10432,5385 10440,5385 C 10448,5385 10457,5380 10469,5370 C 10498,5346 10538,5296 10588,5217 C 10638,5139 10671,5083 10686,5048 C 10648,4898 10627,4818 10624,4810 C 10610,4769 10591,4741 10568,4724 C 10545,4708 10512,4699 10467,4699 C 10453,4699 10436,4700 10418,4701 L 10418,4668 L 10666,4624 Z "  />
<path style="fill:#000000;fill-opacity:1.00;fill-rule:nonzero;stroke:none"  d="M 7090,4624 C 7120,4656 7143,4688 7159,4721 C 7170,4743 7188,4801 7213,4896 L 7295,4773 C 7317,4744 7343,4715 7374,4688 C 7405,4662 7432,4643 7456,4633 C 7471,4627 7487,4624 7505,4624 C 7532,4624 7553,4631 7569,4645 C 7585,4660 7592,4677 7592,4697 C 7592,4721 7588,4737 7578,4746 C 7561,4761 7541,4769 7519,4769 C 7506,4769 7492,4766 7477,4760 C 7448,4751 7429,4746 7419,4746 C 7404,4746 7386,4754 7366,4772 C 7327,4804 7282,4866 7228,4958 L 7304,5278 C 7316,5327 7326,5356 7334,5366 C 7342,5375 7350,5380 7358,5380 C 7371,5380 7387,5373 7404,5359 C 7438,5330 7467,5293 7491,5247 L 7524,5264 C 7485,5337 7435,5398 7375,5446 C 7341,5473 7312,5487 7289,5487 C 7254,5487 7226,5467 7206,5428 C 7193,5404 7166,5300 7125,5116 C 7029,5284 6951,5392 6893,5440 C 6855,5471 6819,5487 6783,5487 C 6759,5487 6736,5478 6716,5460 C 6701,5446 6693,5428 6693,5405 C 6693,5385 6700,5368 6714,5354 C 6727,5340 6744,5334 6764,5334 C 6784,5334 6805,5343 6827,5363 C 6843,5378 6855,5385 6864,5385 C 6872,5385 6881,5380 6893,5370 C 6922,5346 6962,5296 7012,5217 C 7062,5139 7095,5083 7110,5048 C 7072,4898 7051,4818 7048,4810 C 7034,4769 7015,4741 6992,4724 C 6969,4708 6936,4699 6891,4699 C 6877,4699 6860,4700 6842,4701 L 6842,4668 L 7090,4624 Z "  />
<path style="fill:#000000;fill-opacity:1.00;fill-rule:nonzero;stroke:none"  d="M 19874,1716 C 19895,1752 19909,1785 19918,1817 C 19926,1848 19934,1909 19942,2001 L 19983,2458 C 20020,2413 20074,2343 20144,2246 C 20178,2199 20220,2135 20270,2054 C 20301,2004 20319,1970 20326,1950 C 20330,1940 20332,1930 20332,1919 C 20332,1912 20330,1907 20325,1902 C 20321,1898 20310,1893 20291,1887 C 20273,1881 20258,1870 20246,1855 C 20234,1839 20228,1821 20228,1800 C 20228,1775 20235,1754 20250,1739 C 20265,1724 20283,1716 20306,1716 C 20333,1716 20356,1727 20375,1750 C 20395,1772 20404,1803 20404,1843 C 20404,1892 20388,1948 20354,2011 C 20321,2074 20256,2170 20161,2300 C 20066,2430 19950,2572 19814,2725 C 19721,2831 19652,2898 19606,2926 C 19561,2953 19522,2967 19490,2967 C 19471,2967 19454,2960 19440,2945 C 19425,2931 19418,2914 19418,2895 C 19418,2870 19428,2848 19448,2829 C 19468,2809 19490,2799 19513,2799 C 19526,2799 19536,2802 19544,2807 C 19549,2810 19554,2819 19560,2834 C 19566,2848 19572,2858 19577,2863 C 19580,2866 19583,2868 19588,2868 C 19591,2868 19598,2864 19607,2858 C 19641,2837 19681,2804 19726,2758 C 19786,2697 19830,2648 19858,2609 L 19806,2020 C 19797,1923 19784,1864 19767,1843 C 19750,1822 19721,1811 19680,1811 C 19667,1811 19643,1813 19610,1817 L 19602,1783 L 19874,1716 Z "  />
<path style="fill:#000000;fill-opacity:1.00;fill-rule:nonzero;stroke:none"  d="M 16180,1716 C 16201,1752 16216,1785 16224,1817 C 16232,1848 16240,1909 16248,2001 L 16289,2458 C 16326,2413 16380,2343 16451,2246 C 16485,2199 16527,2135 16577,2054 C 16607,2004 16626,1970 16633,1950 C 16636,1940 16638,1930 16638,1919 C 16638,1912 16636,1907 16632,1902 C 16627,1898 16616,1893 16598,1887 C 16580,1881 16564,1870 16552,1855 C 16540,1839 16534,1821 16534,1800 C 16534,1775 16542,1754 16556,1739 C 16571,1724 16590,1716 16612,1716 C 16639,1716 16663,1727 16682,1750 C 16701,1772 16711,1803 16711,1843 C 16711,1892 16694,1948 16660,2011 C 16627,2074 16563,2170 16467,2300 C 16372,2430 16256,2572 16121,2725 C 16027,2831 15958,2898 15913,2926 C 15868,2953 15829,2967 15797,2967 C 15777,2967 15761,2960 15746,2945 C 15731,2931 15724,2914 15724,2895 C 15724,2870 15734,2848 15754,2829 C 15774,2809 15796,2799 15820,2799 C 15832,2799 15842,2802 15851,2807 C 15855,2810 15861,2819 15867,2834 C 15873,2848 15878,2858 15883,2863 C 15886,2866 15890,2868 15894,2868 C 15898,2868 15904,2864 15914,2858 C 15948,2837 15987,2804 16033,2758 C 16092,2697 16136,2648 16164,2609 L 16112,2020 C 16104,1923 16091,1864 16073,1843 C 16056,1822 16027,1811 15986,1811 C 15973,1811 15950,1813 15916,1817 L 15908,1783 L 16180,1716 Z "  />
<path style="fill:#000000;fill-opacity:1.00;fill-rule:nonzero;stroke:none"  d="M 10666,1716 C 10696,1748 10719,1780 10735,1812 C 10746,1835 10764,1893 10789,1988 L 10871,1865 C 10893,1836 10919,1807 10950,1780 C 10981,1753 11008,1735 11032,1725 C 11047,1719 11063,1716 11081,1716 C 11108,1716 11129,1723 11145,1737 C 11161,1751 11168,1769 11168,1789 C 11168,1813 11164,1829 11154,1837 C 11137,1853 11117,1861 11095,1861 C 11082,1861 11068,1858 11053,1852 C 11024,1842 11005,1837 10995,1837 C 10980,1837 10962,1846 10942,1863 C 10903,1896 10858,1958 10804,2050 L 10880,2370 C 10892,2419 10902,2448 10910,2457 C 10918,2467 10926,2472 10934,2472 C 10947,2472 10963,2465 10980,2451 C 11014,2422 11043,2385 11067,2339 L 11100,2356 C 11061,2429 11011,2490 10951,2538 C 10917,2565 10888,2579 10865,2579 C 10830,2579 10802,2559 10782,2520 C 10769,2496 10742,2392 10701,2208 C 10605,2376 10527,2484 10469,2532 C 10431,2563 10395,2579 10359,2579 C 10335,2579 10312,2570 10292,2552 C 10277,2538 10269,2520 10269,2497 C 10269,2477 10276,2459 10290,2446 C 10303,2432 10320,2425 10340,2425 C 10360,2425 10381,2435 10403,2455 C 10419,2469 10432,2477 10440,2477 C 10448,2477 10457,2472 10469,2462 C 10498,2438 10538,2387 10588,2309 C 10638,2231 10671,2175 10686,2140 C 10648,1990 10627,1910 10624,1902 C 10610,1861 10591,1833 10568,1816 C 10545,1799 10512,1791 10467,1791 C 10453,1791 10436,1792 10418,1793 L 10418,1759 L 10666,1716 Z "  />
<path style="fill:#000000;fill-opacity:1.00;fill-rule:nonzero;stroke:none"  d="M 7090,1716 C 7120,1748 7143,1780 7159,1812 C 7170,1835 7188,1893 7213,1988 L 7295,1865 C 7317,1836 7343,1807 7374,1780 C 7405,1753 7432,1735 7456,1725 C 7471,1719 7487,1716 7505,1716 C 7532,1716 7553,1723 7569,1737 C 7585,1751 7592,1769 7592,1789 C 7592,1813 7588,1829 7578,1837 C 7561,1853 7541,1861 7519,1861 C 7506,1861 7492,1858 7477,1852 C 7448,1842 7429,1837 7419,1837 C 7404,1837 7386,1846 7366,1863 C 7327,1896 7282,1958 7228,2050 L 7304,2370 C 7316,2419 7326,2448 7334,2457 C 7342,2467 7350,2472 7358,2472 C 7371,2472 7387,2465 7404,2451 C 7438,2422 7467,2385 7491,2339 L 7524,2356 C 7485,2429 7435,2490 7375,2538 C 7341,2565 7312,2579 7289,2579 C 7254,2579 7226,2559 7206,2520 C 7193,2496 7166,2392 7125,2208 C 7029,2376 6951,2484 6893,2532 C 6855,2563 6819,2579 6783,2579 C 6759,2579 6736,2570 6716,2552 C 6701,2538 6693,2520 6693,2497 C 6693,2477 6700,2459 6714,2446 C 6727,2432 6744,2425 6764,2425 C 6784,2425 6805,2435 6827,2455 C 6843,2469 6855,2477 6864,2477 C 6872,2477 6881,2472 6893,2462 C 6922,2438 6962,2387 7012,2309 C 7062,2231 7095,2175 7110,2140 C 7072,1990 7051,1910 7048,1902 C 7034,1861 7015,1833 6992,1816 C 6969,1799 6936,1791 6891,1791 C 6877,1791 6860,1792 6842,1793 L 6842,1759 L 7090,1716 Z "  />
<path style="fill:#000000;fill-opacity:1.00;fill-rule:nonzero;stroke:none"  d="M 1004,2964 L 947,3249 L 913,3249 C 910,3166 892,3106 860,3068 C 827,3030 788,3012 740,3012 C 701,3012 671,3022 648,3043 C 626,3064 614,3090 614,3119 C 614,3140 619,3159 628,3178 C 637,3196 657,3222 687,3256 C 767,3344 819,3410 843,3455 C 867,3499 878,3541 878,3581 C 878,3645 851,3703 798,3752 C 744,3802 677,3827 595,3827 C 550,3827 499,3817 441,3796 C 420,3788 405,3784 393,3784 C 366,3784 344,3799 330,3827 L 296,3827 L 353,3526 L 387,3526 C 391,3620 410,3687 445,3726 C 481,3765 529,3784 590,3784 C 637,3784 675,3771 702,3745 C 730,3719 744,3686 744,3648 C 744,3623 739,3600 729,3579 C 711,3542 675,3491 620,3425 C 564,3359 529,3310 513,3277 C 497,3244 489,3212 489,3179 C 489,3119 511,3068 555,3026 C 598,2985 654,2964 723,2964 C 743,2964 761,2966 777,2969 C 786,2971 806,2978 838,2990 C 870,3002 891,3008 901,3008 C 928,3008 950,2993 968,2964 L 1004,2964 Z "  />
<path style="fill:#000000;fill-opacity:1.00;fill-rule:nonzero;stroke:none"  d="M 18017,4930 L 18993,4930 L 18993,5021 L 18017,5021 L 18017,4930 Z "  />
<path style="fill:#000000;fill-opacity:1.00;fill-rule:nonzero;stroke:none"  d="M 14184,4489 L 14275,4489 L 14275,4933 L 14716,4933 L 14716,5023 L 14275,5023 L 14275,5465 L 14184,5465 L 14184,5023 L 13741,5023 L 13741,4933 L 14184,4933 L 14184,4489 Z "  />
<path style="fill:#000000;fill-opacity:1.00;fill-rule:nonzero;stroke:none"  d="M 8872,4930 L 9847,4930 L 9847,5021 L 8872,5021 L 8872,4930 Z "  />
<path style="fill:#000000;fill-opacity:1.00;fill-rule:nonzero;stroke:none"  d="M 20623,1702 L 20652,1427 C 20660,1349 20668,1296 20676,1269 C 20688,1230 20704,1202 20726,1185 C 20747,1168 20771,1159 20798,1159 C 20820,1159 20838,1165 20851,1178 C 20864,1190 20870,1206 20870,1225 C 20870,1240 20867,1256 20861,1272 C 20853,1296 20830,1348 20792,1427 L 20664,1702 L 20623,1702 Z "  />
<path style="fill:#000000;fill-opacity:1.00;fill-rule:nonzero;stroke:none"  d="M 18017,2021 L 18993,2021 L 18993,2113 L 18017,2113 L 18017,2021 Z "  />
<path style="fill:#000000;fill-opacity:1.00;fill-rule:nonzero;stroke:none"  d="M 16929,1702 L 16958,1427 C 16966,1349 16974,1296 16982,1269 C 16994,1230 17011,1202 17032,1185 C 17053,1168 17077,1159 17104,1159 C 17126,1159 17144,1165 17157,1178 C 17170,1190 17177,1206 17177,1225 C 17177,1240 17173,1256 17167,1272 C 17159,1296 17136,1348 17099,1427 L 16970,1702 L 16929,1702 Z "  />
<path style="fill:#000000;fill-opacity:1.00;fill-rule:nonzero;stroke:none"  d="M 14184,1581 L 14275,1581 L 14275,2025 L 14716,2025 L 14716,2115 L 14275,2115 L 14275,2556 L 14184,2556 L 14184,2115 L 13741,2115 L 13741,2025 L 14184,2025 L 14184,1581 Z "  />
<path style="fill:#000000;fill-opacity:1.00;fill-rule:nonzero;stroke:none"  d="M 11360,1702 L 11388,1427 C 11397,1349 11405,1296 11413,1269 C 11424,1230 11441,1202 11462,1185 C 11484,1168 11508,1159 11534,1159 C 11557,1159 11574,1165 11587,1178 C 11600,1190 11607,1206 11607,1225 C 11607,1240 11604,1256 11597,1272 C 11589,1296 11567,1348 11529,1427 L 11401,1702 L 11360,1702 Z "  />
<path style="fill:#000000;fill-opacity:1.00;fill-rule:nonzero;stroke:none"  d="M 8872,2021 L 9847,2021 L 9847,2113 L 8872,2113 L 8872,2021 Z "  />
<path style="fill:#000000;fill-opacity:1.00;fill-rule:nonzero;stroke:none"  d="M 7784,1702 L 7812,1427 C 7821,1349 7829,1296 7837,1269 C 7848,1230 7865,1202 7886,1185 C 7908,1168 7932,1159 7958,1159 C 7981,1159 7998,1165 8011,1178 C 8024,1190 8031,1206 8031,1225 C 8031,1240 8028,1256 8021,1272 C 8013,1296 7991,1348 7953,1427 L 7825,1702 L 7784,1702 Z "  />
<path style="fill:#000000;fill-opacity:1.00;fill-rule:nonzero;stroke:none"  d="M 3194,3100 L 4169,3100 L 4169,3190 L 3194,3190 L 3194,3100 Z M 3194,3446 L 4169,3446 L 4169,3538 L 3194,3538 L 3194,3446 Z "  />
</svg>