<svg width="308px" height="59px" viewBox="0 0 30800 5900" version="1.1" xmlns="http://www.w3.org/2000/svg" xmlns:xlink="http://www.w3.org/1999/xlink">
<path style="fill:#000000;fill-opacity:1.00;fill-rule:nonzero;stroke:none"  d="M 30404,4246 L 30316,4246 L 30316,2369 L 30404,2369 L 30404,4246 Z "  />
<path style="fill:#000000;fill-opacity:1.00;fill-rule:nonzero;stroke:none"  d="M 30404,3528 L 30316,3528 L 30316,1651 L 30404,1651 L 30404,3528 Z "  />
<path style="fill:#000000;fill-opacity:1.00;fill-rule:nonzero;stroke:none"  d="M 30405,3563 L 30405,4042 C 30405,4229 30382,4412 30337,4592 C 30298,4747 30243,4883 30173,5000 C 30102,5117 30019,5216 29924,5296 C 29855,5355 29777,5403 29687,5440 L 29667,5421 C 29838,5304 29973,5166 30074,5008 C 30154,4881 30214,4729 30255,4552 C 30296,4375 30316,4211 30316,4060 L 30316,3563 L 30405,3563 Z "  />
<path style="fill:#000000;fill-opacity:1.00;fill-rule:nonzero;stroke:none"  d="M 30405,2334 L 30316,2334 L 30316,1838 C 30316,1646 30291,1460 30240,1278 C 30189,1097 30112,938 30010,801 C 29922,682 29808,574 29667,477 L 29687,458 C 29834,519 29964,620 30077,760 C 30191,900 30274,1069 30327,1269 C 30379,1468 30405,1664 30405,1856 L 30405,2334 Z "  />
<path style="fill:#000000;fill-opacity:1.00;fill-rule:nonzero;stroke:none"  d="M 27890,4246 L 27801,4246 L 27801,2369 L 27890,2369 L 27890,4246 Z "  />
<path style="fill:#000000;fill-opacity:1.00;fill-rule:nonzero;stroke:none"  d="M 27890,3528 L 27801,3528 L 27801,1651 L 27890,1651 L 27890,3528 Z "  />
<path style="fill:#000000;fill-opacity:1.00;fill-rule:nonzero;stroke:none"  d="M 27801,3563 L 27890,3563 L 27890,4060 C 27890,4252 27915,4439 27966,4620 C 28018,4801 28094,4961 28196,5098 C 28284,5216 28399,5324 28540,5421 L 28519,5440 C 28373,5378 28243,5278 28129,5138 C 28016,4998 27932,4829 27880,4629 C 27827,4430 27801,4234 27801,4042 L 27801,3563 Z "  />
<path style="fill:#000000;fill-opacity:1.00;fill-rule:nonzero;stroke:none"  d="M 27801,2334 L 27801,1856 C 27801,1669 27824,1486 27869,1305 C 27908,1151 27963,1015 28034,898 C 28104,781 28187,682 28282,602 C 28351,543 28430,495 28519,458 L 28540,477 C 28369,594 28233,732 28132,891 C 28052,1017 27992,1169 27951,1346 C 27910,1524 27890,1687 27890,1838 L 27890,2334 L 27801,2334 Z "  />
<path style="fill:#000000;fill-opacity:1.00;fill-rule:nonzero;stroke:none"  d="M 26843,2461 L 26932,2461 L 26932,2895 L 27364,2895 L 27364,2984 L 26932,2984 L 26932,3416 L 26843,3416 L 26843,2984 L 26409,2984 L 26409,2895 L 26843,2895 L 26843,2461 Z "  />
<path style="fill:#000000;fill-opacity:1.00;fill-rule:nonzero;stroke:none"  d="M 25951,4275 L 25863,4275 L 25863,2398 L 25951,2398 L 25951,4275 Z "  />
<path style="fill:#000000;fill-opacity:1.00;fill-rule:nonzero;stroke:none"  d="M 25951,3499 L 25863,3499 L 25863,1622 L 25951,1622 L 25951,3499 Z "  />
<path style="fill:#000000;fill-opacity:1.00;fill-rule:nonzero;stroke:none"  d="M 25952,3592 L 25952,4071 C 25952,4258 25929,4441 25884,4621 C 25845,4776 25790,4912 25719,5029 C 25649,5146 25566,5245 25471,5325 C 25402,5384 25323,5432 25234,5469 L 25213,5451 C 25384,5333 25520,5195 25621,5037 C 25701,4910 25761,4758 25802,4581 C 25842,4404 25863,4240 25863,4090 L 25863,3592 L 25952,3592 Z "  />
<path style="fill:#000000;fill-opacity:1.00;fill-rule:nonzero;stroke:none"  d="M 25952,2305 L 25863,2305 L 25863,1809 C 25863,1617 25837,1430 25786,1249 C 25735,1068 25659,909 25557,771 C 25469,653 25354,545 25213,448 L 25234,428 C 25380,490 25510,590 25624,730 C 25738,871 25821,1040 25873,1240 C 25926,1439 25952,1634 25952,1827 L 25952,2305 Z "  />
<path style="fill:#000000;fill-opacity:1.00;fill-rule:nonzero;stroke:none"  d="M 22727,4275 L 22639,4275 L 22639,2398 L 22727,2398 L 22727,4275 Z "  />
<path style="fill:#000000;fill-opacity:1.00;fill-rule:nonzero;stroke:none"  d="M 22727,3499 L 22639,3499 L 22639,1622 L 22727,1622 L 22727,3499 Z "  />
<path style="fill:#000000;fill-opacity:1.00;fill-rule:nonzero;stroke:none"  d="M 22639,3592 L 22727,3592 L 22727,4090 C 22727,4281 22753,4468 22804,4649 C 22856,4830 22932,4990 23034,5127 C 23122,5245 23237,5353 23378,5451 L 23357,5469 C 23211,5408 23081,5307 22967,5167 C 22853,5027 22770,4858 22718,4658 C 22665,4459 22639,4263 22639,4071 L 22639,3592 Z "  />
<path style="fill:#000000;fill-opacity:1.00;fill-rule:nonzero;stroke:none"  d="M 22639,2305 L 22639,1827 C 22639,1640 22662,1456 22707,1276 C 22746,1122 22801,986 22872,869 C 22942,752 23025,653 23120,573 C 23189,514 23268,466 23357,428 L 23378,448 C 23207,565 23071,703 22970,862 C 22890,988 22830,1140 22789,1317 C 22748,1494 22727,1658 22727,1809 L 22727,2305 L 22639,2305 Z "  />
<path style="fill:#000000;fill-opacity:1.00;fill-rule:nonzero;stroke:none"  d="M 22207,2939 C 22207,2967 22197,2991 22178,3010 C 22158,3030 22134,3040 22107,3040 C 22079,3040 22055,3030 22036,3010 C 22016,2991 22006,2967 22006,2939 C 22006,2911 22016,2887 22036,2868 C 22055,2848 22079,2838 22107,2838 C 22134,2838 22158,2848 22178,2868 C 22197,2887 22207,2911 22207,2939 "  />
<path style="fill:#000000;fill-opacity:1.00;fill-rule:nonzero;stroke:none"  d="M 21536,4246 L 21448,4246 L 21448,2369 L 21536,2369 L 21536,4246 Z "  />
<path style="fill:#000000;fill-opacity:1.00;fill-rule:nonzero;stroke:none"  d="M 21536,3528 L 21448,3528 L 21448,1651 L 21536,1651 L 21536,3528 Z "  />
<path style="fill:#000000;fill-opacity:1.00;fill-rule:nonzero;stroke:none"  d="M 21537,3563 L 21537,4042 C 21537,4229 21514,4412 21469,4592 C 21430,4747 21375,4883 21304,5000 C 21234,5117 21151,5216 21056,5296 C 20987,5355 20908,5403 20819,5440 L 20798,5421 C 20969,5304 21105,5166 21206,5008 C 21286,4881 21346,4729 21387,4552 C 21427,4375 21448,4211 21448,4060 L 21448,3563 L 21537,3563 Z "  />
<path style="fill:#000000;fill-opacity:1.00;fill-rule:nonzero;stroke:none"  d="M 21537,2334 L 21448,2334 L 21448,1838 C 21448,1646 21422,1460 21371,1278 C 21320,1097 21244,938 21142,801 C 21054,682 20939,574 20798,477 L 20819,458 C 20965,519 21095,620 21209,760 C 21323,900 21406,1069 21458,1269 C 21511,1468 21537,1664 21537,1856 L 21537,2334 Z "  />
<path style="fill:#000000;fill-opacity:1.00;fill-rule:nonzero;stroke:none"  d="M 5948,4246 L 5860,4246 L 5860,2369 L 5948,2369 L 5948,4246 Z "  />
<path style="fill:#000000;fill-opacity:1.00;fill-rule:nonzero;stroke:none"  d="M 5948,3528 L 5860,3528 L 5860,1651 L 5948,1651 L 5948,3528 Z "  />
<path style="fill:#000000;fill-opacity:1.00;fill-rule:nonzero;stroke:none"  d="M 5860,3563 L 5948,3563 L 5948,4060 C 5948,4252 5974,4439 6025,4620 C 6076,4801 6153,4961 6255,5098 C 6343,5216 6457,5324 6599,5421 L 6578,5440 C 6432,5378 6302,5278 6188,5138 C 6074,4998 5991,4829 5939,4629 C 5886,4430 5860,4234 5860,4042 L 5860,3563 Z "  />
<path style="fill:#000000;fill-opacity:1.00;fill-rule:nonzero;stroke:none"  d="M 5860,2334 L 5860,1856 C 5860,1669 5883,1486 5928,1305 C 5967,1151 6022,1015 6093,898 C 6163,781 6246,682 6340,602 C 6410,543 6489,495 6578,458 L 6599,477 C 6428,594 6292,732 6191,891 C 6111,1017 6051,1169 6010,1346 C 5969,1524 5948,1687 5948,1838 L 5948,2334 L 5860,2334 Z "  />
<path style="fill:#000000;fill-opacity:1.00;fill-rule:nonzero;stroke:none"  d="M 15987,4366 C 15987,4393 15977,4417 15957,4437 C 15937,4457 15914,4467 15887,4467 C 15859,4467 15835,4457 15815,4437 C 15796,4417 15786,4393 15786,4366 C 15786,4338 15796,4314 15815,4294 C 15835,4274 15859,4265 15887,4265 C 15914,4265 15937,4274 15957,4294 C 15977,4314 15987,4338 15987,4366 "  />
<path style="fill:#000000;fill-opacity:1.00;fill-rule:nonzero;stroke:none"  d="M 8229,4366 C 8229,4393 8219,4417 8200,4437 C 8180,4457 8157,4467 8129,4467 C 8101,4467 8078,4457 8058,4437 C 8038,4417 8028,4393 8028,4366 C 8028,4338 8038,4314 8058,4294 C 8078,4274 8101,4265 8129,4265 C 8157,4265 8180,4274 8200,4294 C 8219,4314 8229,4338 8229,4366 "  />
<path style="fill:#000000;fill-opacity:1.00;fill-rule:nonzero;stroke:none"  d="M 16806,1571 C 16806,1599 16796,1623 16776,1642 C 16756,1662 16733,1672 16706,1672 C 16678,1672 16654,1662 16634,1642 C 16614,1623 16605,1599 16605,1571 C 16605,1543 16614,1519 16634,1499 C 16654,1480 16678,1470 16706,1470 C 16733,1470 16756,1480 16776,1499 C 16796,1519 16806,1543 16806,1571 "  />
<path style="fill:#000000;fill-opacity:1.00;fill-rule:nonzero;stroke:none"  d="M 14064,1524 L 15019,1524 L 15019,1614 L 14064,1614 L 14064,1524 Z "  />
<path style="fill:#000000;fill-opacity:1.00;fill-rule:nonzero;stroke:none"  d="M 8100,1571 C 8100,1599 8090,1623 8070,1642 C 8051,1662 8027,1672 8000,1672 C 7972,1672 7948,1662 7929,1642 C 7909,1623 7899,1599 7899,1571 C 7899,1543 7909,1519 7929,1499 C 7948,1480 7972,1470 8000,1470 C 8027,1470 8051,1480 8070,1499 C 8090,1519 8100,1543 8100,1571 "  />
<path style="fill:#000000;fill-opacity:1.00;fill-rule:nonzero;stroke:none"  d="M 4382,2725 L 5337,2725 L 5337,2814 L 4382,2814 L 4382,2725 Z M 4382,3065 L 5337,3065 L 5337,3155 L 4382,3155 L 4382,3065 Z "  />
<path style="fill:#000000;fill-opacity:1.00;fill-rule:nonzero;stroke:none"  d="M 3809,4275 L 3720,4275 L 3720,2398 L 3809,2398 L 3809,4275 Z "  />
<path style="fill:#000000;fill-opacity:1.00;fill-rule:nonzero;stroke:none"  d="M 3809,3499 L 3720,3499 L 3720,1622 L 3809,1622 L 3809,3499 Z "  />
<path style="fill:#000000;fill-opacity:1.00;fill-rule:nonzero;stroke:none"  d="M 3810,3592 L 3810,4071 C 3810,4258 3787,4441 3741,4621 C 3703,4776 3648,4912 3577,5029 C 3506,5146 3424,5245 3328,5325 C 3260,5384 3181,5432 3092,5469 L 3071,5451 C 3242,5333 3378,5195 3478,5037 C 3558,4910 3619,4758 3659,4581 C 3700,4404 3720,4240 3720,4090 L 3720,3592 L 3810,3592 Z "  />
<path style="fill:#000000;fill-opacity:1.00;fill-rule:nonzero;stroke:none"  d="M 3810,2305 L 3720,2305 L 3720,1809 C 3720,1617 3695,1430 3644,1249 C 3593,1068 3517,909 3415,771 C 3327,653 3212,545 3071,448 L 3092,428 C 3238,490 3368,590 3482,730 C 3595,871 3678,1040 3731,1240 C 3783,1439 3810,1634 3810,1827 L 3810,2305 Z "  />
<path style="fill:#000000;fill-opacity:1.00;fill-rule:nonzero;stroke:none"  d="M 384,4275 L 296,4275 L 296,2398 L 384,2398 L 384,4275 Z "  />
<path style="fill:#000000;fill-opacity:1.00;fill-rule:nonzero;stroke:none"  d="M 384,3499 L 296,3499 L 296,1622 L 384,1622 L 384,3499 Z "  />
<path style="fill:#000000;fill-opacity:1.00;fill-rule:nonzero;stroke:none"  d="M 296,3592 L 384,3592 L 384,4090 C 384,4281 410,4468 461,4649 C 512,4830 589,4990 691,5127 C 779,5245 893,5353 1035,5451 L 1014,5469 C 867,5408 737,5307 624,5167 C 510,5027 427,4858 374,4658 C 322,4459 296,4263 296,4071 L 296,3592 Z "  />
<path style="fill:#000000;fill-opacity:1.00;fill-rule:nonzero;stroke:none"  d="M 296,2305 L 296,1827 C 296,1640 319,1456 364,1276 C 403,1122 458,986 528,869 C 599,752 682,653 776,573 C 845,514 924,466 1014,428 L 1035,448 C 863,565 728,703 627,862 C 547,988 486,1140 445,1317 C 404,1494 384,1658 384,1809 L 384,2305 L 296,2305 Z "  />
<path style="fill:#000000;fill-opacity:1.00;fill-rule:nonzero;stroke:none"  d="M 29125,3549 L 28946,4177 C 29004,4117 29055,4075 29099,4053 C 29142,4030 29187,4019 29235,4019 C 29301,4019 29356,4041 29398,4085 C 29441,4130 29462,4190 29462,4265 C 29462,4363 29434,4460 29378,4557 C 29322,4654 29252,4729 29168,4783 C 29084,4837 29001,4864 28919,4864 C 28827,4864 28733,4830 28637,4761 L 28913,3809 C 28935,3735 28945,3692 28945,3680 C 28945,3664 28940,3652 28931,3644 C 28917,3633 28896,3628 28869,3628 C 28856,3628 28837,3630 28811,3634 L 28811,3600 L 29125,3549 Z M 28773,4771 C 28834,4805 28887,4821 28933,4821 C 28987,4821 29042,4802 29099,4763 C 29157,4724 29206,4658 29249,4565 C 29291,4472 29312,4378 29312,4284 C 29312,4228 29298,4184 29270,4153 C 29243,4121 29210,4105 29173,4105 C 29116,4105 29061,4128 29007,4173 C 28953,4218 28915,4281 28892,4362 L 28773,4771 Z "  />
<path style="fill:#000000;fill-opacity:1.00;fill-rule:nonzero;stroke:none"  d="M 29519,1224 L 29342,1841 L 29322,1924 C 29320,1932 29319,1938 29319,1944 C 29319,1954 29322,1962 29328,1969 C 29333,1975 29339,1977 29347,1977 C 29354,1977 29365,1973 29378,1963 C 29401,1945 29433,1909 29472,1854 L 29503,1876 C 29461,1939 29418,1987 29374,2020 C 29330,2053 29289,2069 29251,2069 C 29225,2069 29205,2063 29192,2050 C 29179,2037 29173,2018 29173,1993 C 29173,1963 29179,1924 29193,1876 L 29212,1807 C 29132,1911 29059,1984 28993,2025 C 28945,2055 28898,2069 28852,2069 C 28807,2069 28769,2051 28737,2014 C 28705,1978 28689,1927 28689,1863 C 28689,1766 28718,1665 28776,1558 C 28834,1451 28907,1365 28996,1301 C 29066,1250 29132,1224 29194,1224 C 29231,1224 29262,1234 29286,1253 C 29311,1273 29329,1305 29342,1350 L 29375,1246 L 29519,1224 Z M 29196,1272 C 29157,1272 29115,1290 29072,1326 C 29010,1378 28955,1454 28907,1555 C 28858,1657 28834,1748 28834,1830 C 28834,1871 28845,1904 28865,1928 C 28886,1952 28910,1964 28936,1964 C 29002,1964 29074,1915 29152,1817 C 29256,1688 29307,1554 29307,1418 C 29307,1366 29297,1329 29277,1306 C 29257,1283 29230,1272 29196,1272 "  />
<path style="fill:#000000;fill-opacity:1.00;fill-rule:nonzero;stroke:none"  d="M 23953,4019 C 23974,4054 23988,4087 23996,4118 C 24004,4148 24011,4208 24019,4298 L 24059,4746 C 24096,4702 24149,4633 24218,4538 C 24251,4492 24292,4430 24341,4350 C 24371,4302 24389,4268 24396,4248 C 24400,4238 24401,4228 24401,4218 C 24401,4211 24399,4206 24395,4202 C 24391,4198 24380,4193 24362,4187 C 24344,4181 24329,4170 24317,4155 C 24306,4139 24300,4122 24300,4102 C 24300,4077 24307,4057 24321,4042 C 24336,4027 24354,4019 24376,4019 C 24403,4019 24425,4030 24444,4052 C 24463,4074 24472,4105 24472,4144 C 24472,4191 24456,4246 24423,4308 C 24391,4369 24327,4464 24234,4591 C 24141,4719 24028,4857 23895,5008 C 23803,5112 23735,5177 23691,5204 C 23647,5231 23609,5244 23577,5244 C 23558,5244 23542,5237 23528,5223 C 23513,5209 23506,5192 23506,5173 C 23506,5150 23516,5128 23536,5109 C 23556,5089 23577,5080 23600,5080 C 23612,5080 23622,5082 23630,5088 C 23635,5091 23640,5100 23646,5114 C 23652,5128 23657,5138 23662,5142 C 23665,5146 23669,5147 23673,5147 C 23676,5147 23683,5144 23692,5138 C 23725,5117 23764,5085 23808,5040 C 23867,4980 23910,4932 23938,4894 L 23887,4317 C 23878,4222 23865,4164 23848,4144 C 23831,4123 23803,4113 23763,4113 C 23750,4113 23727,4114 23695,4118 L 23686,4084 L 23953,4019 Z "  />
<path style="fill:#000000;fill-opacity:1.00;fill-rule:nonzero;stroke:none"  d="M 23892,1195 C 23922,1227 23944,1258 23960,1290 C 23970,1312 23988,1369 24013,1462 L 24093,1342 C 24115,1312 24140,1285 24171,1258 C 24201,1232 24228,1214 24251,1204 C 24265,1198 24281,1195 24299,1195 C 24325,1195 24346,1202 24361,1216 C 24377,1230 24384,1247 24384,1267 C 24384,1290 24380,1306 24371,1314 C 24354,1329 24334,1337 24313,1337 C 24300,1337 24286,1334 24272,1329 C 24243,1319 24224,1314 24214,1314 C 24200,1314 24182,1323 24162,1340 C 24125,1371 24080,1432 24028,1523 L 24102,1836 C 24114,1883 24124,1912 24132,1922 C 24139,1931 24147,1936 24155,1936 C 24168,1936 24183,1929 24200,1915 C 24233,1887 24262,1850 24285,1806 L 24317,1822 C 24279,1893 24230,1953 24172,2000 C 24138,2027 24110,2040 24087,2040 C 24053,2040 24026,2021 24006,1983 C 23993,1959 23967,1857 23927,1677 C 23832,1842 23756,1947 23699,1995 C 23662,2025 23627,2040 23592,2040 C 23568,2040 23546,2031 23526,2014 C 23511,2001 23504,1983 23504,1960 C 23504,1940 23510,1924 23524,1910 C 23537,1897 23554,1890 23573,1890 C 23592,1890 23613,1900 23635,1919 C 23651,1933 23663,1940 23671,1940 C 23678,1940 23688,1935 23699,1926 C 23728,1903 23767,1853 23816,1776 C 23865,1700 23897,1645 23912,1611 C 23875,1463 23854,1386 23851,1377 C 23837,1338 23819,1310 23797,1293 C 23774,1277 23741,1269 23698,1269 C 23684,1269 23668,1269 23649,1271 L 23649,1238 L 23892,1195 Z "  />
<path style="fill:#000000;fill-opacity:1.00;fill-rule:nonzero;stroke:none"  d="M 15295,4019 L 15240,4298 L 15206,4298 C 15203,4217 15186,4158 15154,4121 C 15123,4084 15084,4065 15037,4065 C 14999,4065 14970,4076 14947,4096 C 14925,4117 14914,4142 14914,4171 C 14914,4191 14919,4210 14927,4228 C 14936,4246 14955,4272 14985,4305 C 15064,4391 15115,4456 15138,4499 C 15161,4543 15173,4584 15173,4623 C 15173,4686 15146,4742 15094,4791 C 15041,4840 14975,4864 14895,4864 C 14851,4864 14801,4854 14744,4833 C 14724,4826 14709,4822 14698,4822 C 14670,4822 14650,4836 14636,4864 L 14602,4864 L 14658,4569 L 14691,4569 C 14695,4662 14714,4727 14749,4765 C 14783,4803 14831,4822 14891,4822 C 14937,4822 14973,4809 15000,4784 C 15027,4758 15041,4726 15041,4689 C 15041,4664 15036,4642 15026,4621 C 15009,4585 14974,4534 14919,4470 C 14865,4406 14830,4358 14815,4326 C 14799,4293 14791,4261 14791,4229 C 14791,4170 14813,4121 14856,4080 C 14898,4039 14953,4019 15021,4019 C 15040,4019 15058,4020 15073,4023 C 15082,4025 15102,4032 15133,4044 C 15164,4056 15185,4062 15195,4062 C 15221,4062 15243,4047 15261,4019 L 15295,4019 Z "  />
<path style="fill:#000000;fill-opacity:1.00;fill-rule:nonzero;stroke:none"  d="M 7538,4019 L 7482,4298 L 7449,4298 C 7446,4217 7428,4158 7397,4121 C 7365,4084 7326,4065 7280,4065 C 7242,4065 7212,4076 7190,4096 C 7168,4117 7157,4142 7157,4171 C 7157,4191 7161,4210 7170,4228 C 7179,4246 7198,4272 7228,4305 C 7307,4391 7358,4456 7381,4499 C 7404,4543 7415,4584 7415,4623 C 7415,4686 7389,4742 7336,4791 C 7284,4840 7218,4864 7138,4864 C 7094,4864 7044,4854 6987,4833 C 6967,4826 6951,4822 6940,4822 C 6913,4822 6892,4836 6878,4864 L 6845,4864 L 6900,4569 L 6934,4569 C 6938,4662 6957,4727 6991,4765 C 7026,4803 7073,4822 7133,4822 C 7179,4822 7216,4809 7243,4784 C 7270,4758 7283,4726 7283,4689 C 7283,4664 7278,4642 7269,4621 C 7252,4585 7216,4534 7162,4470 C 7107,4406 7073,4358 7057,4326 C 7042,4293 7034,4261 7034,4229 C 7034,4170 7055,4121 7098,4080 C 7141,4039 7196,4019 7263,4019 C 7283,4019 7300,4020 7316,4023 C 7324,4025 7344,4032 7376,4044 C 7407,4056 7428,4062 7438,4062 C 7464,4062 7486,4047 7503,4019 L 7538,4019 Z "  />
<path style="fill:#000000;fill-opacity:1.00;fill-rule:nonzero;stroke:none"  d="M 16114,1224 L 16059,1503 L 16025,1503 C 16022,1422 16005,1363 15973,1326 C 15942,1289 15903,1271 15856,1271 C 15818,1271 15788,1281 15766,1302 C 15744,1322 15733,1347 15733,1376 C 15733,1396 15737,1415 15746,1433 C 15755,1452 15774,1477 15804,1510 C 15883,1596 15934,1661 15957,1705 C 15980,1748 15991,1789 15991,1828 C 15991,1891 15965,1947 15913,1996 C 15860,2045 15794,2069 15714,2069 C 15670,2069 15620,2059 15563,2038 C 15543,2031 15527,2028 15517,2028 C 15489,2028 15469,2041 15455,2069 L 15421,2069 L 15477,1775 L 15510,1775 C 15514,1867 15533,1932 15567,1970 C 15602,2008 15649,2028 15709,2028 C 15756,2028 15792,2015 15819,1989 C 15846,1963 15860,1931 15860,1894 C 15860,1870 15855,1847 15845,1826 C 15828,1790 15792,1740 15738,1675 C 15684,1611 15649,1563 15633,1531 C 15618,1499 15610,1466 15610,1434 C 15610,1376 15632,1326 15674,1285 C 15717,1245 15772,1224 15840,1224 C 15859,1224 15877,1226 15892,1229 C 15901,1231 15921,1237 15952,1249 C 15983,1261 16004,1267 16014,1267 C 16040,1267 16062,1253 16080,1224 L 16114,1224 Z "  />
<path style="fill:#000000;fill-opacity:1.00;fill-rule:nonzero;stroke:none"  d="M 7409,1224 L 7353,1503 L 7320,1503 C 7316,1422 7299,1363 7268,1326 C 7236,1289 7197,1271 7150,1271 C 7113,1271 7083,1281 7061,1302 C 7039,1322 7027,1347 7027,1376 C 7027,1396 7032,1415 7041,1433 C 7049,1452 7069,1477 7098,1510 C 7177,1596 7228,1661 7251,1705 C 7274,1748 7286,1789 7286,1828 C 7286,1891 7260,1947 7207,1996 C 7155,2045 7088,2069 7008,2069 C 6965,2069 6914,2059 6857,2038 C 6837,2031 6822,2028 6811,2028 C 6784,2028 6763,2041 6749,2069 L 6715,2069 L 6771,1775 L 6805,1775 C 6808,1867 6827,1932 6862,1970 C 6896,2008 6944,2028 7004,2028 C 7050,2028 7086,2015 7113,1989 C 7140,1963 7154,1931 7154,1894 C 7154,1870 7149,1847 7139,1826 C 7122,1790 7087,1740 7032,1675 C 6978,1611 6943,1563 6928,1531 C 6912,1499 6905,1466 6905,1434 C 6905,1376 6926,1326 6969,1285 C 7012,1245 7067,1224 7134,1224 C 7153,1224 7171,1226 7187,1229 C 7195,1231 7215,1237 7246,1249 C 7278,1261 7298,1267 7309,1267 C 7335,1267 7357,1253 7374,1224 L 7409,1224 Z "  />
<path style="fill:#000000;fill-opacity:1.00;fill-rule:nonzero;stroke:none"  d="M 1610,4019 C 1630,4054 1644,4087 1652,4118 C 1660,4148 1668,4208 1676,4298 L 1716,4746 C 1752,4702 1805,4633 1874,4538 C 1908,4492 1949,4430 1998,4350 C 2028,4302 2046,4268 2053,4248 C 2056,4238 2058,4228 2058,4218 C 2058,4211 2056,4206 2052,4202 C 2047,4198 2036,4193 2018,4187 C 2001,4181 1986,4170 1974,4155 C 1962,4139 1956,4122 1956,4102 C 1956,4077 1963,4057 1978,4042 C 1993,4027 2011,4019 2033,4019 C 2059,4019 2082,4030 2101,4052 C 2120,4074 2129,4105 2129,4144 C 2129,4191 2113,4246 2080,4308 C 2047,4369 1984,4464 1891,4591 C 1797,4719 1684,4857 1551,5008 C 1460,5112 1392,5177 1348,5204 C 1303,5231 1265,5244 1234,5244 C 1215,5244 1198,5237 1184,5223 C 1170,5209 1163,5192 1163,5173 C 1163,5150 1173,5128 1192,5109 C 1212,5089 1234,5080 1257,5080 C 1269,5080 1279,5082 1287,5088 C 1291,5091 1297,5100 1303,5114 C 1308,5128 1314,5138 1318,5142 C 1321,5146 1325,5147 1329,5147 C 1333,5147 1339,5144 1348,5138 C 1382,5117 1421,5085 1465,5040 C 1523,4980 1566,4932 1594,4894 L 1543,4317 C 1535,4222 1522,4164 1505,4144 C 1488,4123 1459,4113 1419,4113 C 1407,4113 1384,4114 1351,4118 L 1343,4084 L 1610,4019 Z "  />
<path style="fill:#000000;fill-opacity:1.00;fill-rule:nonzero;stroke:none"  d="M 1549,1195 C 1579,1227 1601,1258 1616,1290 C 1627,1312 1645,1369 1670,1462 L 1750,1342 C 1771,1312 1797,1285 1827,1258 C 1858,1232 1884,1214 1907,1204 C 1922,1198 1938,1195 1956,1195 C 1982,1195 2002,1202 2018,1216 C 2033,1230 2041,1247 2041,1267 C 2041,1290 2036,1306 2027,1314 C 2010,1329 1991,1337 1969,1337 C 1956,1337 1943,1334 1928,1329 C 1900,1319 1881,1314 1871,1314 C 1856,1314 1839,1323 1819,1340 C 1781,1371 1737,1432 1684,1523 L 1759,1836 C 1771,1883 1780,1912 1788,1922 C 1796,1931 1804,1936 1812,1936 C 1824,1936 1839,1929 1856,1915 C 1890,1887 1918,1850 1942,1806 L 1974,1822 C 1935,1893 1887,1953 1828,2000 C 1795,2027 1767,2040 1744,2040 C 1710,2040 1683,2021 1663,1983 C 1650,1959 1623,1857 1583,1677 C 1489,1842 1413,1947 1356,1995 C 1319,2025 1283,2040 1249,2040 C 1224,2040 1202,2031 1182,2014 C 1168,2001 1160,1983 1160,1960 C 1160,1940 1167,1924 1180,1910 C 1194,1897 1210,1890 1230,1890 C 1249,1890 1270,1900 1291,1919 C 1307,1933 1319,1940 1328,1940 C 1335,1940 1344,1935 1356,1926 C 1384,1903 1423,1853 1472,1776 C 1522,1700 1554,1645 1569,1611 C 1531,1463 1511,1386 1508,1377 C 1494,1338 1476,1310 1453,1293 C 1431,1277 1398,1269 1354,1269 C 1340,1269 1324,1269 1306,1271 L 1306,1238 L 1549,1195 Z "  />
<path style="fill:#000000;fill-opacity:1.00;fill-rule:nonzero;stroke:none"  d="M 24578,4659 L 24753,4574 L 24770,4574 L 24770,5181 C 24770,5222 24772,5247 24775,5257 C 24779,5266 24786,5274 24796,5279 C 24807,5285 24829,5288 24861,5288 L 24861,5308 L 24590,5308 L 24590,5288 C 24624,5288 24646,5285 24656,5280 C 24666,5275 24673,5268 24677,5259 C 24681,5250 24683,5224 24683,5181 L 24683,4793 C 24683,4740 24681,4707 24678,4692 C 24675,4681 24671,4672 24664,4667 C 24657,4662 24650,4659 24640,4659 C 24627,4659 24609,4664 24586,4675 L 24578,4659 Z "  />
<path style="fill:#000000;fill-opacity:1.00;fill-rule:nonzero;stroke:none"  d="M 24463,1835 L 24638,1750 L 24655,1750 L 24655,2357 C 24655,2398 24657,2423 24661,2433 C 24664,2443 24671,2450 24681,2456 C 24692,2461 24714,2464 24746,2465 L 24746,2484 L 24476,2484 L 24476,2465 C 24510,2464 24531,2461 24541,2456 C 24551,2451 24558,2444 24562,2435 C 24566,2426 24568,2401 24568,2357 L 24568,1969 C 24568,1917 24566,1883 24563,1868 C 24560,1857 24556,1848 24549,1843 C 24543,1838 24535,1835 24525,1835 C 24512,1835 24494,1841 24471,1852 L 24463,1835 Z "  />
<path style="fill:#000000;fill-opacity:1.00;fill-rule:nonzero;stroke:none"  d="M 2725,5170 L 2675,5308 L 2250,5308 L 2250,5288 C 2375,5174 2463,5081 2514,5009 C 2565,4937 2590,4871 2590,4811 C 2590,4766 2576,4728 2548,4699 C 2520,4669 2487,4655 2448,4655 C 2413,4655 2381,4665 2353,4686 C 2325,4706 2304,4737 2290,4777 L 2271,4777 C 2280,4711 2302,4661 2339,4626 C 2376,4591 2421,4574 2476,4574 C 2534,4574 2583,4592 2622,4630 C 2661,4667 2681,4712 2681,4762 C 2681,4799 2672,4835 2655,4872 C 2629,4929 2587,4990 2528,5054 C 2440,5150 2385,5208 2363,5228 L 2551,5228 C 2589,5228 2616,5227 2631,5224 C 2647,5221 2661,5215 2673,5206 C 2685,5198 2696,5185 2705,5170 L 2725,5170 Z "  />
<path style="fill:#000000;fill-opacity:1.00;fill-rule:nonzero;stroke:none"  d="M 2610,2346 L 2560,2484 L 2135,2484 L 2135,2465 C 2260,2351 2348,2258 2399,2185 C 2450,2113 2475,2047 2475,1987 C 2475,1942 2461,1904 2433,1875 C 2405,1846 2372,1831 2333,1831 C 2298,1831 2266,1841 2238,1862 C 2210,1883 2189,1913 2175,1953 L 2156,1953 C 2165,1888 2187,1837 2224,1802 C 2261,1767 2306,1750 2361,1750 C 2420,1750 2468,1768 2507,1806 C 2546,1843 2566,1888 2566,1939 C 2566,1975 2558,2012 2541,2048 C 2514,2105 2472,2166 2413,2230 C 2325,2326 2270,2384 2248,2404 L 2436,2404 C 2474,2404 2501,2403 2516,2400 C 2532,2397 2546,2391 2558,2383 C 2570,2374 2581,2362 2590,2346 L 2610,2346 Z "  />
<path style="fill:#000000;fill-opacity:1.00;fill-rule:nonzero;stroke:none"  d="M 17138,4526 C 17116,4635 17072,4720 17006,4779 C 16941,4838 16868,4868 16789,4868 C 16694,4868 16612,4828 16541,4749 C 16471,4669 16436,4562 16436,4427 C 16436,4296 16475,4189 16553,4107 C 16631,4025 16724,3984 16833,3984 C 16915,3984 16983,4006 17035,4049 C 17088,4093 17114,4138 17114,4185 C 17114,4208 17107,4226 17092,4240 C 17077,4255 17057,4262 17030,4262 C 16994,4262 16967,4250 16949,4227 C 16939,4215 16932,4190 16928,4154 C 16925,4119 16913,4091 16892,4073 C 16870,4054 16841,4045 16803,4045 C 16743,4045 16694,4068 16657,4113 C 16608,4172 16583,4251 16583,4348 C 16583,4448 16608,4536 16656,4612 C 16705,4688 16771,4726 16854,4726 C 16914,4726 16967,4706 17014,4665 C 17048,4637 17080,4586 17112,4513 L 17138,4526 Z M 17665,3984 C 17791,3984 17892,4032 17969,4128 C 18034,4210 18066,4304 18066,4410 C 18066,4485 18048,4560 18012,4637 C 17977,4713 17927,4771 17865,4810 C 17802,4848 17732,4868 17655,4868 C 17529,4868 17430,4818 17356,4718 C 17293,4633 17262,4539 17262,4434 C 17262,4357 17281,4281 17319,4206 C 17357,4130 17406,4075 17468,4038 C 17530,4002 17596,3984 17665,3984 M 17637,4043 C 17604,4043 17572,4053 17540,4072 C 17507,4091 17481,4125 17461,4173 C 17441,4221 17431,4282 17431,4357 C 17431,4479 17455,4583 17503,4671 C 17552,4759 17615,4803 17694,4803 C 17753,4803 17801,4779 17840,4730 C 17878,4682 17897,4598 17897,4480 C 17897,4332 17865,4216 17801,4131 C 17758,4073 17703,4043 17637,4043 M 18727,3984 L 18727,4268 L 18697,4268 C 18674,4179 18645,4118 18609,4086 C 18573,4054 18527,4038 18471,4038 C 18428,4038 18394,4049 18368,4072 C 18342,4094 18329,4119 18329,4146 C 18329,4180 18339,4209 18358,4234 C 18377,4259 18415,4285 18473,4313 L 18606,4377 C 18729,4437 18790,4517 18790,4615 C 18790,4691 18762,4752 18704,4798 C 18647,4845 18583,4868 18512,4868 C 18461,4868 18403,4859 18337,4840 C 18317,4834 18301,4831 18288,4831 C 18274,4831 18263,4839 18255,4855 L 18225,4855 L 18225,4558 L 18255,4558 C 18272,4642 18305,4706 18353,4749 C 18401,4793 18454,4814 18514,4814 C 18555,4814 18590,4802 18616,4777 C 18642,4753 18656,4723 18656,4689 C 18656,4647 18641,4611 18611,4583 C 18582,4554 18523,4518 18435,4475 C 18347,4431 18290,4392 18263,4356 C 18235,4322 18222,4278 18222,4225 C 18222,4157 18245,4100 18292,4054 C 18339,4007 18400,3984 18475,3984 C 18507,3984 18547,3991 18594,4005 C 18625,4014 18645,4019 18656,4019 C 18665,4019 18673,4017 18678,4013 C 18684,4008 18690,3999 18697,3984 L 18727,3984 Z "  />
<path style="fill:#000000;fill-opacity:1.00;fill-rule:nonzero;stroke:none"  d="M 9183,3984 L 9183,4268 L 9153,4268 C 9130,4179 9100,4118 9064,4086 C 9028,4054 8982,4038 8926,4038 C 8884,4038 8849,4049 8823,4072 C 8797,4094 8784,4119 8784,4146 C 8784,4180 8794,4209 8813,4234 C 8832,4259 8870,4285 8928,4313 L 9061,4377 C 9184,4437 9245,4517 9245,4615 C 9245,4691 9217,4752 9159,4798 C 9102,4845 9038,4868 8967,4868 C 8916,4868 8858,4859 8792,4840 C 8772,4834 8756,4831 8743,4831 C 8729,4831 8718,4839 8711,4855 L 8681,4855 L 8681,4558 L 8711,4558 C 8728,4642 8760,4706 8808,4749 C 8856,4793 8909,4814 8969,4814 C 9011,4814 9045,4802 9071,4777 C 9098,4753 9111,4723 9111,4689 C 9111,4647 9096,4611 9067,4583 C 9037,4554 8979,4518 8891,4475 C 8803,4431 8745,4392 8718,4356 C 8691,4322 8677,4278 8677,4225 C 8677,4157 8700,4100 8747,4054 C 8794,4007 8855,3984 8930,3984 C 8963,3984 9002,3991 9049,4005 C 9080,4014 9101,4019 9111,4019 C 9121,4019 9128,4017 9134,4013 C 9139,4008 9145,3999 9153,3984 L 9183,3984 Z M 9581,3549 C 9607,3549 9628,3558 9646,3575 C 9664,3593 9673,3615 9673,3640 C 9673,3666 9664,3688 9646,3706 C 9628,3724 9607,3733 9581,3733 C 9556,3733 9534,3724 9516,3706 C 9497,3688 9488,3666 9488,3640 C 9488,3615 9497,3593 9515,3575 C 9533,3558 9555,3549 9581,3549 M 9657,3984 L 9657,4654 C 9657,4706 9660,4741 9668,4758 C 9676,4775 9687,4788 9702,4797 C 9717,4805 9744,4810 9783,4810 L 9783,4842 L 9378,4842 L 9378,4810 C 9419,4810 9446,4806 9460,4798 C 9474,4790 9485,4777 9493,4759 C 9502,4740 9506,4706 9506,4654 L 9506,4333 C 9506,4242 9503,4184 9497,4157 C 9493,4138 9487,4124 9477,4117 C 9468,4109 9456,4105 9440,4105 C 9423,4105 9403,4110 9378,4119 L 9366,4086 L 9617,3984 L 9657,3984 Z M 10130,4161 C 10227,4043 10320,3984 10409,3984 C 10455,3984 10494,3996 10526,4018 C 10559,4041 10585,4079 10605,4131 C 10618,4167 10625,4223 10625,4298 L 10625,4654 C 10625,4707 10629,4742 10637,4761 C 10644,4776 10655,4788 10670,4797 C 10685,4805 10712,4810 10752,4810 L 10752,4842 L 10340,4842 L 10340,4810 L 10357,4810 C 10396,4810 10423,4804 10439,4792 C 10454,4780 10465,4763 10471,4739 C 10473,4730 10475,4702 10475,4654 L 10475,4313 C 10475,4237 10465,4182 10445,4148 C 10425,4113 10392,4096 10345,4096 C 10273,4096 10201,4136 10130,4215 L 10130,4654 C 10130,4710 10133,4745 10140,4759 C 10148,4776 10160,4789 10175,4797 C 10190,4805 10220,4810 10265,4810 L 10265,4842 L 9853,4842 L 9853,4810 L 9871,4810 C 9914,4810 9942,4799 9957,4777 C 9972,4756 9980,4715 9980,4654 L 9980,4345 C 9980,4245 9977,4184 9973,4162 C 9968,4140 9961,4125 9952,4117 C 9942,4109 9930,4105 9914,4105 C 9897,4105 9877,4110 9853,4119 L 9840,4086 L 10091,3984 L 10130,3984 L 10130,4161 Z "  />
<path style="fill:#000000;fill-opacity:1.00;fill-rule:nonzero;stroke:none"  d="M 17759,1190 L 17759,1473 L 17729,1473 C 17706,1384 17676,1324 17640,1292 C 17604,1259 17558,1243 17502,1243 C 17460,1243 17426,1255 17400,1277 C 17374,1299 17361,1324 17361,1352 C 17361,1386 17370,1415 17390,1439 C 17408,1464 17447,1490 17504,1518 L 17637,1583 C 17760,1643 17822,1722 17822,1820 C 17822,1896 17793,1957 17736,2003 C 17678,2050 17614,2073 17543,2073 C 17492,2073 17434,2064 17369,2046 C 17349,2040 17332,2037 17320,2037 C 17306,2037 17295,2044 17287,2060 L 17257,2060 L 17257,1763 L 17287,1763 C 17304,1848 17336,1912 17384,1955 C 17432,1998 17486,2019 17545,2019 C 17587,2019 17621,2007 17648,1982 C 17674,1958 17687,1928 17687,1894 C 17687,1852 17672,1817 17643,1788 C 17614,1760 17555,1724 17467,1680 C 17379,1636 17321,1597 17294,1562 C 17267,1527 17253,1483 17253,1431 C 17253,1362 17277,1305 17324,1259 C 17371,1213 17431,1190 17506,1190 C 17539,1190 17579,1197 17625,1211 C 17656,1220 17677,1224 17687,1224 C 17697,1224 17704,1222 17710,1218 C 17715,1214 17722,1204 17729,1190 L 17759,1190 Z M 18157,754 C 18183,754 18205,763 18223,781 C 18240,799 18249,820 18249,846 C 18249,871 18240,893 18223,911 C 18205,929 18183,939 18157,939 C 18132,939 18110,929 18092,911 C 18074,893 18065,871 18065,846 C 18065,820 18074,799 18091,781 C 18109,763 18131,754 18157,754 M 18233,1190 L 18233,1859 C 18233,1911 18237,1946 18244,1963 C 18252,1981 18263,1994 18278,2002 C 18293,2011 18320,2015 18359,2015 L 18359,2048 L 17955,2048 L 17955,2015 C 17995,2015 18023,2011 18036,2003 C 18050,1995 18061,1982 18070,1964 C 18078,1946 18082,1911 18082,1859 L 18082,1538 C 18082,1448 18079,1389 18074,1362 C 18070,1343 18063,1330 18054,1322 C 18045,1314 18032,1311 18016,1311 C 17999,1311 17979,1315 17955,1324 L 17942,1292 L 18193,1190 L 18233,1190 Z M 18706,1366 C 18804,1248 18897,1190 18985,1190 C 19031,1190 19070,1201 19103,1224 C 19135,1246 19162,1284 19181,1336 C 19194,1372 19201,1428 19201,1503 L 19201,1859 C 19201,1912 19205,1948 19214,1967 C 19220,1982 19231,1994 19246,2002 C 19261,2011 19288,2015 19328,2015 L 19328,2048 L 18916,2048 L 18916,2015 L 18933,2015 C 18972,2015 18999,2009 19015,1997 C 19030,1985 19041,1968 19047,1945 C 19050,1936 19051,1907 19051,1859 L 19051,1518 C 19051,1442 19041,1387 19021,1353 C 19002,1319 18968,1302 18922,1302 C 18849,1302 18778,1341 18706,1420 L 18706,1859 C 18706,1916 18709,1950 18716,1964 C 18725,1981 18736,1994 18751,2002 C 18766,2011 18796,2015 18842,2015 L 18842,2048 L 18429,2048 L 18429,2015 L 18448,2015 C 18490,2015 18519,2004 18534,1982 C 18548,1961 18556,1920 18556,1859 L 18556,1550 C 18556,1450 18554,1389 18549,1367 C 18545,1345 18538,1330 18528,1322 C 18519,1315 18506,1311 18490,1311 C 18473,1311 18453,1315 18429,1324 L 18416,1292 L 18667,1190 L 18706,1190 L 18706,1366 Z "  />
<path style="fill:#000000;fill-opacity:1.00;fill-rule:nonzero;stroke:none"  d="M 9251,1731 C 9229,1841 9185,1925 9119,1984 C 9054,2043 8981,2073 8902,2073 C 8807,2073 8725,2033 8655,1954 C 8584,1874 8549,1767 8549,1632 C 8549,1501 8588,1394 8666,1312 C 8744,1231 8837,1190 8947,1190 C 9028,1190 9096,1211 9149,1255 C 9201,1298 9228,1343 9228,1390 C 9228,1413 9220,1431 9205,1446 C 9191,1460 9170,1467 9143,1467 C 9107,1467 9080,1456 9062,1433 C 9052,1420 9045,1396 9042,1360 C 9038,1324 9026,1297 9005,1278 C 8984,1260 8954,1251 8917,1251 C 8856,1251 8807,1273 8770,1318 C 8721,1377 8696,1456 8696,1554 C 8696,1653 8721,1741 8770,1817 C 8818,1893 8884,1931 8967,1931 C 9027,1931 9080,1911 9128,1870 C 9161,1842 9193,1792 9225,1718 L 9251,1731 Z M 9778,1190 C 9904,1190 10006,1238 10082,1333 C 10147,1415 10179,1509 10179,1615 C 10179,1690 10161,1766 10126,1842 C 10090,1918 10041,1976 9978,2015 C 9915,2054 9845,2073 9768,2073 C 9643,2073 9543,2023 9469,1923 C 9406,1839 9375,1744 9375,1639 C 9375,1563 9394,1487 9432,1411 C 9470,1336 9520,1280 9582,1244 C 9643,1208 9709,1190 9778,1190 M 9750,1249 C 9718,1249 9685,1258 9653,1277 C 9621,1297 9594,1330 9574,1378 C 9554,1426 9544,1487 9544,1563 C 9544,1684 9568,1789 9617,1876 C 9665,1964 9728,2008 9807,2008 C 9866,2008 9915,1984 9953,1936 C 9991,1887 10010,1804 10010,1685 C 10010,1537 9978,1421 9915,1336 C 9871,1278 9817,1249 9750,1249 M 10841,1190 L 10841,1473 L 10811,1473 C 10788,1384 10758,1324 10722,1292 C 10686,1259 10640,1243 10584,1243 C 10542,1243 10507,1255 10481,1277 C 10455,1299 10442,1324 10442,1352 C 10442,1386 10452,1415 10471,1439 C 10490,1464 10528,1490 10586,1518 L 10719,1583 C 10842,1643 10903,1722 10903,1820 C 10903,1896 10875,1957 10817,2003 C 10760,2050 10696,2073 10625,2073 C 10574,2073 10516,2064 10450,2046 C 10430,2040 10414,2037 10401,2037 C 10387,2037 10376,2044 10369,2060 L 10338,2060 L 10338,1763 L 10369,1763 C 10385,1848 10418,1912 10466,1955 C 10514,1998 10567,2019 10627,2019 C 10669,2019 10703,2007 10729,1982 C 10756,1958 10769,1928 10769,1894 C 10769,1852 10754,1817 10725,1788 C 10695,1760 10637,1724 10549,1680 C 10461,1636 10403,1597 10376,1562 C 10348,1527 10335,1483 10335,1431 C 10335,1362 10358,1305 10405,1259 C 10452,1213 10513,1190 10588,1190 C 10621,1190 10660,1197 10707,1211 C 10738,1220 10758,1224 10769,1224 C 10778,1224 10786,1222 10792,1218 C 10797,1214 10803,1204 10811,1190 L 10841,1190 Z "  />
<path style="fill:#000000;fill-opacity:1.00;fill-rule:nonzero;stroke:none"  d="M 19443,4817 L 19621,4242 C 19649,4149 19687,4083 19735,4043 C 19783,4004 19838,3984 19902,3984 C 19994,3984 20064,4024 20111,4104 C 20158,4184 20164,4283 20127,4402 C 20102,4481 20059,4559 19996,4634 C 19934,4710 19866,4766 19792,4802 C 19719,4838 19630,4860 19526,4868 L 19410,5244 L 19311,5244 L 19427,4868 C 19337,4860 19266,4838 19215,4801 C 19164,4765 19131,4709 19115,4635 C 19099,4560 19103,4483 19127,4404 C 19148,4336 19180,4274 19224,4216 C 19268,4159 19312,4113 19359,4080 C 19405,4047 19449,4023 19491,4008 C 19533,3994 19582,3986 19638,3984 L 19628,4019 C 19572,4023 19514,4054 19454,4112 C 19395,4169 19345,4261 19306,4387 C 19278,4479 19268,4557 19277,4622 C 19285,4686 19306,4735 19339,4767 C 19361,4787 19395,4804 19443,4817 M 19543,4815 C 19606,4808 19660,4794 19704,4772 C 19765,4742 19818,4700 19863,4643 C 19908,4587 19942,4521 19966,4443 C 20000,4333 20000,4242 19968,4170 C 19944,4118 19906,4092 19854,4092 C 19828,4092 19804,4103 19780,4126 C 19757,4149 19734,4197 19711,4271 L 19543,4815 Z "  />
<path style="fill:#000000;fill-opacity:1.00;fill-rule:nonzero;stroke:none"  d="M 11427,4817 L 11604,4242 C 11633,4149 11671,4083 11719,4043 C 11767,4004 11822,3984 11886,3984 C 11978,3984 12048,4024 12095,4104 C 12142,4184 12148,4283 12111,4402 C 12086,4481 12043,4559 11980,4634 C 11918,4710 11850,4766 11776,4802 C 11703,4838 11614,4860 11510,4868 L 11394,5244 L 11295,5244 L 11411,4868 C 11321,4860 11250,4838 11199,4801 C 11148,4765 11115,4709 11099,4635 C 11083,4560 11087,4483 11111,4404 C 11132,4336 11164,4274 11208,4216 C 11252,4159 11296,4113 11342,4080 C 11389,4047 11433,4023 11475,4008 C 11517,3994 11566,3986 11622,3984 L 11612,4019 C 11556,4023 11498,4054 11438,4112 C 11379,4169 11329,4261 11290,4387 C 11262,4479 11252,4557 11261,4622 C 11269,4686 11290,4735 11323,4767 C 11345,4787 11379,4804 11427,4817 M 11527,4815 C 11590,4808 11644,4794 11688,4772 C 11749,4742 11802,4700 11847,4643 C 11892,4587 11926,4521 11950,4443 C 11984,4333 11984,4242 11951,4170 C 11928,4118 11890,4092 11838,4092 C 11812,4092 11787,4103 11764,4126 C 11741,4149 11718,4197 11695,4271 L 11527,4815 Z "  />
<path style="fill:#000000;fill-opacity:1.00;fill-rule:nonzero;stroke:none"  d="M 20003,2022 L 20181,1447 C 20209,1354 20248,1288 20295,1249 C 20343,1209 20399,1190 20462,1190 C 20555,1190 20624,1230 20671,1309 C 20719,1389 20724,1488 20687,1607 C 20663,1687 20619,1764 20557,1840 C 20494,1915 20426,1971 20353,2007 C 20279,2043 20190,2065 20087,2073 L 19970,2450 L 19871,2450 L 19987,2073 C 19897,2065 19826,2043 19775,2007 C 19725,1970 19691,1915 19675,1840 C 19659,1766 19663,1688 19688,1609 C 19709,1542 19741,1479 19784,1422 C 19828,1364 19873,1319 19919,1285 C 19965,1252 20009,1228 20051,1214 C 20094,1199 20143,1191 20198,1190 L 20188,1224 C 20132,1228 20074,1259 20014,1317 C 19955,1375 19906,1466 19867,1593 C 19838,1684 19828,1762 19837,1827 C 19845,1892 19866,1940 19899,1972 C 19921,1993 19956,2009 20003,2022 M 20103,2020 C 20166,2014 20220,1999 20264,1977 C 20326,1948 20379,1905 20423,1849 C 20468,1793 20502,1726 20526,1648 C 20560,1538 20561,1447 20528,1375 C 20504,1323 20466,1297 20415,1297 C 20389,1297 20364,1308 20340,1331 C 20317,1354 20294,1402 20271,1476 L 20103,2020 Z "  />
<path style="fill:#000000;fill-opacity:1.00;fill-rule:nonzero;stroke:none"  d="M 11556,2022 L 11734,1447 C 11762,1354 11801,1288 11848,1249 C 11896,1209 11952,1190 12015,1190 C 12107,1190 12177,1230 12224,1309 C 12272,1389 12277,1488 12240,1607 C 12216,1687 12172,1764 12110,1840 C 12047,1915 11979,1971 11906,2007 C 11832,2043 11743,2065 11640,2073 L 11523,2450 L 11424,2450 L 11540,2073 C 11450,2065 11379,2043 11328,2007 C 11278,1970 11244,1915 11228,1840 C 11212,1766 11216,1688 11241,1609 C 11261,1542 11294,1479 11337,1422 C 11381,1364 11426,1319 11472,1285 C 11518,1252 11562,1228 11604,1214 C 11647,1199 11696,1191 11751,1190 L 11741,1224 C 11685,1228 11627,1259 11567,1317 C 11508,1375 11458,1466 11420,1593 C 11391,1684 11381,1762 11390,1827 C 11398,1892 11419,1940 11452,1972 C 11474,1993 11508,2009 11556,2022 M 11656,2020 C 11719,2014 11773,1999 11817,1977 C 11879,1948 11932,1905 11976,1849 C 12021,1793 12055,1726 12079,1648 C 12113,1538 12114,1447 12081,1375 C 12057,1323 12019,1297 11968,1297 C 11942,1297 11917,1308 11893,1331 C 11870,1354 11847,1402 11824,1476 L 11656,2020 Z "  />
</svg>