<svg width="55px" height="21px" viewBox="0 0 5500 2100" version="1.1" xmlns="http://www.w3.org/2000/svg" xmlns:xlink="http://www.w3.org/1999/xlink">
<path style="fill:#000000;fill-opacity:1.00;fill-rule:nonzero;stroke:none"  d="M 4626,1422 L 4777,936 C 4801,858 4833,802 4873,769 C 4914,735 4961,719 5015,719 C 5092,719 5151,752 5191,820 C 5231,887 5236,971 5205,1072 C 5184,1139 5147,1204 5094,1268 C 5041,1332 4984,1379 4922,1410 C 4859,1440 4785,1459 4697,1465 L 4598,1784 L 4515,1784 L 4613,1465 C 4537,1459 4477,1440 4434,1409 C 4391,1378 4363,1331 4349,1268 C 4335,1205 4339,1140 4360,1073 C 4377,1016 4404,963 4441,915 C 4478,866 4516,827 4555,799 C 4594,771 4631,751 4667,739 C 4703,727 4744,720 4791,719 L 4782,748 C 4735,751 4686,777 4636,826 C 4586,875 4544,953 4511,1059 C 4487,1137 4479,1203 4486,1257 C 4493,1312 4511,1353 4539,1380 C 4557,1397 4586,1411 4626,1422 M 4711,1421 C 4764,1415 4810,1403 4847,1385 C 4899,1359 4944,1323 4982,1276 C 5019,1228 5048,1172 5069,1106 C 5097,1013 5098,936 5070,875 C 5050,831 5018,809 4974,809 C 4952,809 4931,819 4911,838 C 4892,857 4872,898 4853,961 L 4711,1421 Z "  />
<path style="fill:#000000;fill-opacity:1.00;fill-rule:nonzero;stroke:none"  d="M 3799,1706 L 3799,1672 C 3852,1655 3892,1628 3921,1591 C 3950,1554 3965,1516 3965,1475 C 3965,1465 3963,1457 3958,1450 C 3954,1445 3951,1443 3947,1443 C 3942,1443 3929,1448 3910,1458 C 3901,1463 3891,1465 3881,1465 C 3856,1465 3836,1458 3821,1443 C 3806,1428 3799,1408 3799,1381 C 3799,1356 3808,1335 3828,1317 C 3847,1299 3870,1290 3898,1290 C 3932,1290 3962,1305 3988,1334 C 4015,1364 4028,1403 4028,1451 C 4028,1504 4010,1553 3973,1599 C 3936,1644 3878,1680 3799,1706 "  />
<path style="fill:#000000;fill-opacity:1.00;fill-rule:nonzero;stroke:none"  d="M 2516,1706 L 2516,1672 C 2569,1655 2610,1628 2639,1591 C 2668,1554 2682,1516 2682,1475 C 2682,1465 2680,1457 2675,1450 C 2672,1445 2668,1443 2664,1443 C 2659,1443 2646,1448 2628,1458 C 2618,1463 2609,1465 2598,1465 C 2573,1465 2553,1458 2538,1443 C 2523,1428 2516,1408 2516,1381 C 2516,1356 2526,1335 2545,1317 C 2564,1299 2588,1290 2615,1290 C 2649,1290 2679,1305 2706,1334 C 2732,1364 2745,1403 2745,1451 C 2745,1504 2727,1553 2690,1599 C 2654,1644 2595,1680 2516,1706 "  />
<path style="fill:#000000;fill-opacity:1.00;fill-rule:nonzero;stroke:none"  d="M 1158,1706 L 1158,1672 C 1211,1655 1251,1628 1280,1591 C 1309,1554 1324,1516 1324,1475 C 1324,1465 1322,1457 1317,1450 C 1313,1445 1310,1443 1306,1443 C 1301,1443 1288,1448 1269,1458 C 1260,1463 1250,1465 1240,1465 C 1215,1465 1195,1458 1180,1443 C 1165,1428 1158,1408 1158,1381 C 1158,1356 1167,1335 1187,1317 C 1206,1299 1229,1290 1257,1290 C 1291,1290 1321,1305 1347,1334 C 1374,1364 1387,1403 1387,1451 C 1387,1504 1369,1553 1332,1599 C 1295,1644 1237,1680 1158,1706 "  />
<path style="fill:#000000;fill-opacity:1.00;fill-rule:nonzero;stroke:none"  d="M 3632,748 L 3585,984 L 3556,984 C 3554,915 3539,865 3512,834 C 3486,803 3453,787 3413,787 C 3381,787 3356,796 3337,813 C 3319,831 3309,852 3309,876 C 3309,893 3313,909 3321,925 C 3328,940 3344,962 3369,989 C 3436,1062 3479,1117 3499,1154 C 3518,1191 3528,1226 3528,1258 C 3528,1312 3506,1359 3461,1400 C 3417,1442 3361,1462 3293,1462 C 3256,1462 3214,1453 3166,1436 C 3149,1430 3136,1427 3126,1427 C 3103,1427 3086,1439 3074,1462 L 3046,1462 L 3093,1213 L 3121,1213 C 3124,1291 3140,1346 3169,1378 C 3199,1411 3239,1427 3289,1427 C 3328,1427 3359,1416 3382,1394 C 3405,1372 3416,1346 3416,1314 C 3416,1293 3412,1274 3404,1257 C 3390,1226 3360,1184 3314,1129 C 3268,1075 3238,1034 3225,1007 C 3212,980 3206,953 3206,925 C 3206,876 3224,834 3260,799 C 3296,765 3342,748 3399,748 C 3416,748 3431,749 3444,752 C 3451,753 3468,759 3494,769 C 3521,779 3538,784 3547,784 C 3569,784 3588,772 3602,748 L 3632,748 Z "  />
<path style="fill:#000000;fill-opacity:1.00;fill-rule:nonzero;stroke:none"  d="M 2081,350 L 1930,882 C 1979,830 2022,795 2058,776 C 2095,757 2133,748 2173,748 C 2230,748 2276,766 2312,804 C 2348,841 2366,892 2366,956 C 2366,1039 2342,1121 2295,1203 C 2248,1284 2188,1348 2117,1394 C 2046,1439 1976,1462 1906,1462 C 1829,1462 1750,1433 1668,1375 L 1902,570 C 1920,508 1929,472 1929,461 C 1929,448 1925,438 1916,431 C 1905,422 1887,417 1864,417 C 1853,417 1837,419 1815,422 L 1815,393 L 2081,350 Z M 1783,1384 C 1835,1412 1880,1426 1919,1426 C 1964,1426 2011,1410 2059,1376 C 2108,1343 2150,1288 2185,1209 C 2221,1131 2239,1052 2239,972 C 2239,924 2227,887 2204,861 C 2180,834 2153,821 2121,821 C 2073,821 2027,840 1981,878 C 1935,916 1903,969 1883,1038 L 1783,1384 Z "  />
<path style="fill:#000000;fill-opacity:1.00;fill-rule:nonzero;stroke:none"  d="M 982,748 L 832,1269 L 815,1339 C 814,1346 813,1351 813,1356 C 813,1364 816,1371 821,1378 C 825,1382 830,1385 836,1385 C 843,1385 851,1380 862,1372 C 882,1357 909,1327 942,1280 L 968,1298 C 933,1352 897,1392 859,1420 C 822,1448 787,1462 755,1462 C 733,1462 717,1457 706,1446 C 695,1435 689,1419 689,1398 C 689,1372 695,1339 706,1298 L 722,1241 C 655,1328 593,1390 537,1425 C 496,1450 457,1462 418,1462 C 380,1462 348,1447 321,1416 C 294,1385 280,1342 280,1288 C 280,1206 305,1120 354,1030 C 402,939 465,867 540,812 C 599,769 655,748 707,748 C 738,748 764,756 785,772 C 806,789 821,816 832,854 L 860,766 L 982,748 Z M 708,788 C 676,788 641,803 604,834 C 552,877 505,942 464,1028 C 423,1113 403,1191 403,1260 C 403,1295 412,1322 429,1343 C 447,1363 467,1373 489,1373 C 545,1373 606,1332 672,1249 C 759,1139 803,1027 803,912 C 803,868 795,836 778,817 C 761,797 738,788 708,788 "  />
</svg>