<svg width="20px" height="23px" viewBox="0 0 2000 2300" version="1.1" xmlns="http://www.w3.org/2000/svg" xmlns:xlink="http://www.w3.org/1999/xlink">
<path style="fill:#000000;fill-opacity:1.00;fill-rule:nonzero;stroke:none"  d="M 1362,1637 L 1521,1611 L 1455,1836 C 1509,1744 1558,1679 1602,1642 C 1627,1621 1647,1611 1663,1611 C 1673,1611 1681,1614 1687,1620 C 1693,1626 1696,1635 1696,1646 C 1696,1666 1691,1686 1680,1704 C 1673,1718 1662,1725 1648,1725 C 1641,1725 1635,1723 1630,1718 C 1625,1714 1622,1707 1620,1697 C 1620,1691 1618,1687 1616,1685 C 1614,1683 1611,1682 1607,1682 C 1602,1682 1597,1683 1593,1685 C 1585,1690 1573,1702 1556,1721 C 1531,1752 1503,1791 1473,1839 C 1460,1859 1449,1882 1440,1908 C 1427,1943 1419,1964 1417,1971 L 1403,2029 L 1332,2029 L 1417,1742 C 1427,1709 1432,1685 1432,1671 C 1432,1666 1430,1661 1425,1657 C 1419,1652 1411,1650 1401,1650 C 1394,1650 1382,1651 1365,1654 L 1362,1637 Z "  />
<path style="fill:#000000;fill-opacity:1.00;fill-rule:nonzero;stroke:none"  d="M 801,906 L 746,1088 C 804,1021 855,974 900,947 C 945,920 992,906 1039,906 C 1086,906 1126,925 1159,962 C 1192,999 1209,1048 1209,1107 C 1209,1224 1162,1342 1067,1462 C 973,1582 862,1643 737,1643 C 710,1643 687,1640 666,1634 C 646,1628 623,1618 598,1603 L 540,1807 C 528,1848 523,1874 523,1886 C 523,1898 526,1907 532,1916 C 538,1924 548,1930 561,1935 C 575,1939 602,1941 643,1941 L 636,1971 L 263,1971 L 270,1941 C 320,1939 353,1931 370,1916 C 387,1901 405,1860 424,1793 L 625,1099 C 637,1055 643,1028 643,1017 C 643,1003 639,992 631,984 C 623,976 610,972 593,972 C 578,972 556,974 529,977 L 529,947 L 801,906 Z M 616,1540 C 649,1579 693,1599 748,1599 C 776,1599 804,1591 832,1576 C 861,1561 889,1538 916,1508 C 943,1478 968,1443 989,1404 C 1011,1364 1031,1318 1048,1264 C 1065,1211 1073,1158 1073,1106 C 1073,1064 1064,1031 1045,1009 C 1025,986 1003,975 977,975 C 920,975 863,1008 808,1073 C 752,1139 711,1216 685,1303 L 616,1540 Z "  />
</svg>