<svg width="65px" height="21px" viewBox="0 0 6500 2100" version="1.1" xmlns="http://www.w3.org/2000/svg" xmlns:xlink="http://www.w3.org/1999/xlink">
<path style="fill:#000000;fill-opacity:1.00;fill-rule:nonzero;stroke:none"  d="M 5773,382 L 5773,350 C 5851,389 5915,434 5967,486 C 6041,561 6097,649 6137,750 C 6177,850 6197,955 6197,1065 C 6197,1224 6158,1369 6080,1500 C 6002,1631 5899,1724 5773,1781 L 5773,1752 C 5836,1717 5888,1669 5928,1609 C 5969,1548 5999,1472 6019,1379 C 6039,1286 6049,1189 6049,1088 C 6049,978 6040,879 6023,788 C 6011,718 5995,661 5975,619 C 5956,576 5931,535 5899,495 C 5867,456 5825,418 5773,382 "  />
<path style="fill:#000000;fill-opacity:1.00;fill-rule:nonzero;stroke:none"  d="M 4255,1706 L 4255,1672 C 4308,1655 4349,1628 4378,1591 C 4407,1554 4421,1516 4421,1475 C 4421,1465 4419,1457 4414,1450 C 4410,1445 4407,1443 4403,1443 C 4398,1443 4385,1448 4366,1458 C 4357,1463 4347,1465 4337,1465 C 4312,1465 4292,1458 4277,1443 C 4262,1428 4255,1408 4255,1381 C 4255,1356 4264,1335 4284,1317 C 4303,1299 4326,1290 4354,1290 C 4388,1290 4418,1305 4444,1334 C 4471,1364 4484,1403 4484,1451 C 4484,1504 4466,1553 4429,1599 C 4392,1644 4334,1680 4255,1706 "  />
<path style="fill:#000000;fill-opacity:1.00;fill-rule:nonzero;stroke:none"  d="M 2912,1706 L 2912,1672 C 2965,1655 3005,1628 3034,1591 C 3063,1554 3078,1516 3078,1475 C 3078,1465 3076,1457 3071,1450 C 3067,1445 3064,1443 3060,1443 C 3055,1443 3042,1448 3023,1458 C 3014,1463 3004,1465 2994,1465 C 2969,1465 2949,1458 2934,1443 C 2919,1428 2912,1408 2912,1381 C 2912,1356 2921,1335 2941,1317 C 2960,1299 2983,1290 3011,1290 C 3045,1290 3075,1305 3101,1334 C 3128,1364 3141,1403 3141,1451 C 3141,1504 3123,1553 3086,1599 C 3049,1644 2991,1680 2912,1706 "  />
<path style="fill:#000000;fill-opacity:1.00;fill-rule:nonzero;stroke:none"  d="M 1923,1752 L 1923,1781 C 1846,1742 1781,1696 1730,1644 C 1656,1569 1599,1482 1559,1381 C 1519,1280 1499,1175 1499,1066 C 1499,907 1538,762 1617,631 C 1695,500 1797,407 1923,350 L 1923,382 C 1860,417 1809,465 1768,525 C 1728,586 1697,663 1677,755 C 1657,848 1647,945 1647,1046 C 1647,1156 1656,1256 1673,1345 C 1686,1416 1702,1473 1721,1516 C 1740,1558 1766,1600 1798,1639 C 1830,1679 1872,1716 1923,1752 "  />
<path style="fill:#000000;fill-opacity:1.00;fill-rule:nonzero;stroke:none"  d="M 5077,1422 L 5227,936 C 5252,858 5284,802 5324,769 C 5364,735 5411,719 5465,719 C 5543,719 5602,752 5642,820 C 5682,887 5686,971 5655,1072 C 5635,1139 5598,1204 5545,1268 C 5492,1332 5435,1379 5373,1410 C 5310,1440 5235,1459 5148,1465 L 5049,1784 L 4965,1784 L 5064,1465 C 4987,1459 4928,1440 4885,1409 C 4842,1378 4813,1331 4800,1268 C 4786,1205 4790,1140 4810,1073 C 4828,1016 4855,963 4892,915 C 4929,866 4967,827 5006,799 C 5045,771 5082,751 5118,739 C 5154,727 5195,720 5242,719 L 5233,748 C 5186,751 5137,777 5087,826 C 5036,875 4995,953 4962,1059 C 4938,1137 4929,1203 4937,1257 C 4944,1312 4961,1353 4989,1380 C 5008,1397 5037,1411 5077,1422 M 5161,1421 C 5215,1415 5260,1403 5298,1385 C 5350,1359 5395,1323 5432,1276 C 5470,1228 5499,1172 5519,1106 C 5548,1013 5548,936 5521,875 C 5500,831 5469,809 5425,809 C 5403,809 5382,819 5362,838 C 5342,857 5323,898 5304,961 L 5161,1421 Z "  />
<path style="fill:#000000;fill-opacity:1.00;fill-rule:nonzero;stroke:none"  d="M 3829,350 L 3677,882 C 3727,830 3770,795 3806,776 C 3843,757 3881,748 3921,748 C 3978,748 4024,766 4060,804 C 4095,841 4113,892 4113,956 C 4113,1039 4090,1121 4043,1203 C 3996,1284 3936,1348 3865,1394 C 3794,1439 3724,1462 3654,1462 C 3577,1462 3497,1433 3416,1375 L 3650,570 C 3668,508 3677,472 3677,461 C 3677,448 3673,438 3664,431 C 3653,422 3635,417 3612,417 C 3601,417 3585,419 3563,422 L 3563,393 L 3829,350 Z M 3531,1384 C 3583,1412 3628,1426 3667,1426 C 3712,1426 3759,1410 3807,1376 C 3855,1343 3897,1288 3933,1209 C 3969,1131 3987,1052 3987,972 C 3987,924 3975,887 3952,861 C 3928,834 3901,821 3869,821 C 3821,821 3775,840 3729,878 C 3683,916 3651,969 3631,1038 L 3531,1384 Z "  />
<path style="fill:#000000;fill-opacity:1.00;fill-rule:nonzero;stroke:none"  d="M 2745,748 L 2595,1269 L 2579,1339 C 2577,1346 2576,1351 2576,1356 C 2576,1364 2579,1371 2584,1378 C 2588,1382 2593,1385 2599,1385 C 2606,1385 2615,1380 2625,1372 C 2645,1357 2672,1327 2705,1280 L 2732,1298 C 2696,1352 2660,1392 2622,1420 C 2585,1448 2550,1462 2519,1462 C 2497,1462 2480,1457 2469,1446 C 2458,1435 2452,1419 2452,1398 C 2452,1372 2458,1339 2469,1298 L 2486,1241 C 2418,1328 2357,1390 2300,1425 C 2260,1450 2220,1462 2181,1462 C 2144,1462 2111,1447 2084,1416 C 2057,1385 2043,1342 2043,1288 C 2043,1206 2068,1120 2117,1030 C 2166,939 2228,867 2303,812 C 2362,769 2418,748 2470,748 C 2501,748 2527,756 2548,772 C 2569,789 2585,816 2595,854 L 2623,766 L 2745,748 Z M 2472,788 C 2439,788 2404,803 2367,834 C 2315,877 2268,942 2227,1028 C 2187,1113 2166,1191 2166,1260 C 2166,1295 2175,1322 2192,1343 C 2210,1363 2230,1373 2252,1373 C 2308,1373 2369,1332 2435,1249 C 2522,1139 2566,1027 2566,912 C 2566,868 2558,836 2541,817 C 2524,797 2501,788 2472,788 "  />
<path style="fill:#000000;fill-opacity:1.00;fill-rule:nonzero;stroke:none"  d="M 802,456 L 679,869 L 816,869 C 878,869 924,860 954,841 C 985,822 1016,781 1048,719 L 1078,719 L 969,1099 L 939,1099 C 946,1068 950,1043 950,1023 C 950,992 940,968 919,950 C 898,933 859,925 802,925 L 664,925 L 573,1239 C 557,1295 549,1332 549,1351 C 549,1370 556,1384 570,1395 C 584,1405 618,1412 673,1415 L 664,1444 L 252,1444 L 262,1415 C 302,1414 328,1411 342,1405 C 362,1396 377,1384 387,1369 C 401,1348 417,1305 436,1239 L 620,611 C 635,560 642,520 642,492 C 642,478 639,467 632,457 C 626,448 616,441 603,436 C 590,432 564,429 525,429 L 534,401 L 1343,401 L 1266,665 L 1237,665 C 1243,633 1245,607 1245,586 C 1245,552 1236,526 1217,506 C 1199,486 1175,472 1145,464 C 1125,459 1079,456 1008,456 L 802,456 Z "  />
</svg>