<svg width="19px" height="24px" viewBox="0 0 1900 2400" version="1.1" xmlns="http://www.w3.org/2000/svg" xmlns:xlink="http://www.w3.org/1999/xlink">
<path style="fill:#000000;fill-opacity:1.00;fill-rule:nonzero;stroke:none"  d="M 1378,1352 L 1249,1800 L 1301,1756 C 1358,1708 1395,1672 1412,1649 C 1417,1641 1420,1636 1420,1632 C 1420,1629 1419,1626 1417,1624 C 1415,1622 1412,1620 1406,1618 C 1401,1617 1392,1616 1378,1616 L 1362,1616 L 1367,1598 L 1566,1598 L 1562,1616 C 1539,1617 1519,1621 1503,1626 C 1486,1632 1470,1641 1455,1653 C 1424,1675 1404,1691 1394,1700 L 1355,1735 C 1362,1757 1370,1787 1380,1826 C 1396,1891 1407,1930 1413,1942 C 1419,1954 1425,1960 1431,1960 C 1436,1960 1442,1958 1449,1953 C 1465,1941 1482,1923 1499,1897 L 1515,1909 C 1482,1950 1457,1978 1439,1991 C 1422,2004 1406,2011 1391,2011 C 1378,2011 1368,2006 1361,1996 C 1349,1978 1329,1907 1301,1784 L 1238,1838 L 1191,2000 L 1120,2000 L 1272,1480 L 1284,1436 C 1286,1428 1287,1421 1287,1416 C 1287,1408 1284,1402 1278,1397 C 1273,1393 1264,1390 1254,1390 C 1247,1390 1236,1392 1221,1395 L 1221,1379 L 1378,1352 Z "  />
<path style="fill:#000000;fill-opacity:1.00;fill-rule:nonzero;stroke:none"  d="M 336,1624 L 424,742 C 428,697 430,667 430,652 C 430,628 421,609 404,593 C 386,577 359,570 321,570 L 293,570 L 301,541 L 719,541 L 710,570 C 665,570 634,575 617,584 C 600,592 587,608 577,629 C 572,640 566,673 560,727 L 498,1359 L 911,795 C 956,734 984,691 996,667 C 1003,651 1007,637 1007,625 C 1007,611 1001,599 989,588 C 977,578 955,572 922,570 L 932,541 L 1250,541 L 1242,570 C 1217,572 1197,577 1182,584 C 1153,598 1124,619 1096,646 C 1068,674 1023,729 961,813 L 364,1624 L 336,1624 Z "  />
</svg>