<svg width="19px" height="24px" viewBox="0 0 1900 2400" version="1.1" xmlns="http://www.w3.org/2000/svg" xmlns:xlink="http://www.w3.org/1999/xlink">
<path style="fill:#000000;fill-opacity:1.00;fill-rule:nonzero;stroke:none"  d="M 1266,1588 L 1206,1795 C 1262,1710 1306,1654 1336,1628 C 1366,1601 1396,1588 1424,1588 C 1439,1588 1451,1593 1461,1603 C 1471,1613 1476,1626 1476,1642 C 1476,1660 1472,1684 1463,1715 L 1407,1907 C 1401,1929 1398,1942 1398,1947 C 1398,1951 1399,1955 1401,1958 C 1404,1961 1406,1962 1409,1962 C 1413,1962 1417,1960 1422,1956 C 1438,1943 1456,1924 1475,1898 L 1489,1907 C 1461,1947 1434,1976 1409,1993 C 1391,2005 1376,2011 1362,2011 C 1350,2011 1341,2008 1335,2001 C 1328,1994 1325,1985 1325,1973 C 1325,1959 1330,1933 1340,1898 L 1393,1715 C 1400,1692 1403,1674 1403,1661 C 1403,1655 1401,1650 1397,1647 C 1393,1643 1388,1641 1383,1641 C 1374,1641 1364,1644 1352,1652 C 1329,1665 1306,1688 1282,1719 C 1257,1751 1232,1791 1205,1840 C 1190,1866 1179,1894 1169,1925 L 1146,2000 L 1078,2000 L 1161,1715 C 1171,1680 1176,1660 1176,1653 C 1176,1646 1173,1640 1168,1635 C 1162,1630 1156,1628 1148,1628 C 1144,1628 1138,1628 1129,1629 L 1111,1632 L 1109,1616 L 1266,1588 Z "  />
<path style="fill:#000000;fill-opacity:1.00;fill-rule:nonzero;stroke:none"  d="M 457,912 L 953,912 L 953,931 L 412,1494 L 641,1494 C 695,1494 730,1492 744,1488 C 759,1483 772,1474 784,1461 C 797,1447 810,1423 825,1388 L 854,1388 L 786,1600 L 278,1600 L 278,1577 L 818,1015 L 593,1015 C 546,1015 517,1016 507,1019 C 493,1022 478,1030 464,1043 C 450,1057 435,1079 420,1109 L 390,1109 L 457,912 Z "  />
</svg>