<svg width="13px" height="23px" viewBox="0 0 1300 2300" version="1.1" xmlns="http://www.w3.org/2000/svg" xmlns:xlink="http://www.w3.org/1999/xlink">
<path style="fill:#000000;fill-opacity:1.00;fill-rule:nonzero;stroke:none"  d="M 866,1547 C 865,1525 861,1504 853,1483 C 843,1453 838,1432 838,1421 C 838,1405 841,1393 849,1384 C 856,1376 866,1372 877,1372 C 886,1372 895,1376 902,1384 C 909,1393 912,1405 912,1420 C 912,1434 908,1453 900,1478 C 892,1503 887,1526 885,1547 C 902,1536 917,1523 931,1507 C 952,1483 967,1468 978,1462 C 988,1456 998,1453 1009,1453 C 1019,1453 1027,1457 1034,1464 C 1041,1471 1045,1479 1045,1488 C 1045,1500 1040,1510 1029,1519 C 1019,1528 994,1537 953,1546 C 929,1551 910,1557 894,1564 C 910,1572 930,1578 953,1583 C 990,1590 1014,1598 1026,1608 C 1038,1618 1043,1629 1043,1641 C 1043,1651 1040,1659 1033,1666 C 1026,1672 1018,1676 1009,1676 C 999,1676 989,1672 978,1666 C 967,1660 951,1645 932,1623 C 920,1607 904,1593 885,1580 C 886,1598 889,1617 896,1637 C 907,1674 912,1699 912,1712 C 912,1724 909,1734 901,1743 C 894,1751 886,1756 878,1756 C 866,1756 856,1751 847,1742 C 840,1736 837,1725 837,1711 C 837,1697 841,1679 848,1658 C 855,1637 859,1623 861,1615 C 863,1607 865,1595 866,1580 C 848,1592 832,1605 819,1620 C 796,1645 779,1662 768,1668 C 760,1673 751,1676 743,1676 C 732,1676 723,1672 716,1665 C 709,1658 705,1650 705,1641 C 705,1634 708,1626 714,1617 C 721,1609 730,1602 743,1596 C 751,1592 770,1588 800,1581 C 819,1577 837,1572 856,1564 C 839,1555 819,1549 796,1544 C 758,1536 735,1529 726,1523 C 712,1512 705,1500 705,1486 C 705,1477 708,1470 715,1463 C 722,1456 730,1452 740,1452 C 750,1452 760,1456 772,1462 C 783,1469 797,1482 814,1501 C 831,1521 849,1536 866,1547 "  />
<path style="fill:#000000;fill-opacity:1.00;fill-rule:nonzero;stroke:none"  d="M 670,496 L 399,1440 C 385,1487 379,1515 379,1526 C 379,1534 381,1541 386,1546 C 391,1551 397,1554 405,1554 C 415,1554 426,1549 437,1540 C 465,1519 494,1485 524,1440 L 548,1464 C 497,1535 451,1584 409,1612 C 378,1633 348,1643 320,1643 C 300,1643 283,1636 270,1622 C 256,1608 249,1592 249,1574 C 249,1555 258,1516 275,1457 L 490,713 C 507,653 516,618 516,609 C 516,596 511,586 501,578 C 491,569 475,565 454,565 C 442,565 423,567 399,571 L 399,541 L 670,496 Z "  />
</svg>