<svg width="15px" height="17px" viewBox="0 0 1500 1700" version="1.1" xmlns="http://www.w3.org/2000/svg" xmlns:xlink="http://www.w3.org/1999/xlink">
<path style="fill:#000000;fill-opacity:1.00;fill-rule:nonzero;stroke:none"  d="M 433,1187 L 582,703 C 606,624 639,569 679,536 C 719,502 766,486 819,486 C 897,486 956,519 996,587 C 1035,654 1040,737 1009,837 C 988,904 951,970 899,1033 C 846,1097 789,1144 727,1174 C 665,1205 590,1223 503,1230 L 405,1547 L 321,1547 L 419,1230 C 343,1223 284,1204 241,1174 C 198,1143 170,1096 156,1034 C 143,971 146,906 167,839 C 185,782 212,730 248,681 C 285,633 323,594 362,566 C 400,538 438,518 473,506 C 509,494 550,487 597,486 L 588,515 C 541,518 492,544 442,593 C 392,642 350,719 318,825 C 294,902 285,968 293,1022 C 300,1077 317,1118 345,1145 C 363,1162 393,1176 433,1187 M 517,1185 C 570,1180 615,1168 653,1149 C 704,1124 749,1088 787,1041 C 824,994 853,937 873,872 C 902,779 902,703 875,642 C 854,598 823,576 779,576 C 757,576 736,586 717,605 C 697,624 677,665 658,727 L 517,1185 Z "  />
</svg>