<svg width="17px" height="23px" viewBox="0 0 1700 2300" version="1.1" xmlns="http://www.w3.org/2000/svg" xmlns:xlink="http://www.w3.org/1999/xlink">
<path style="fill:#000000;fill-opacity:1.00;fill-rule:nonzero;stroke:none"  d="M 1100,1464 L 1252,1389 L 1268,1389 L 1268,1919 C 1268,1954 1269,1976 1272,1985 C 1275,1993 1281,2000 1290,2004 C 1300,2009 1318,2012 1347,2012 L 1347,2029 L 1111,2029 L 1111,2012 C 1141,2012 1160,2009 1168,2005 C 1177,2000 1183,1994 1186,1987 C 1190,1979 1191,1957 1191,1919 L 1191,1580 C 1191,1535 1190,1506 1187,1493 C 1185,1483 1181,1475 1175,1471 C 1169,1466 1162,1464 1154,1464 C 1143,1464 1127,1469 1107,1478 L 1100,1464 Z "  />
<path style="fill:#000000;fill-opacity:1.00;fill-rule:nonzero;stroke:none"  d="M 999,906 L 844,1444 L 827,1516 C 825,1523 824,1528 824,1533 C 824,1542 827,1549 832,1555 C 837,1560 842,1562 848,1562 C 855,1562 864,1558 875,1550 C 896,1534 923,1503 958,1455 L 985,1474 C 948,1529 911,1571 872,1599 C 833,1628 798,1643 765,1643 C 742,1643 725,1637 714,1626 C 702,1614 697,1598 697,1576 C 697,1550 703,1516 714,1474 L 731,1414 C 662,1505 598,1568 540,1604 C 498,1630 457,1643 417,1643 C 378,1643 345,1627 317,1595 C 289,1563 275,1519 275,1463 C 275,1379 300,1290 351,1197 C 401,1103 465,1029 543,973 C 604,928 661,906 715,906 C 747,906 774,915 795,931 C 817,948 833,976 844,1016 L 873,925 L 999,906 Z M 717,947 C 683,947 647,963 609,995 C 555,1040 507,1106 465,1195 C 423,1283 402,1363 402,1434 C 402,1470 411,1498 429,1519 C 447,1540 467,1551 491,1551 C 548,1551 611,1508 679,1423 C 769,1310 814,1194 814,1075 C 814,1030 805,998 788,977 C 771,957 747,947 717,947 "  />
</svg>