<svg width="20px" height="24px" viewBox="0 0 2000 2400" version="1.1" xmlns="http://www.w3.org/2000/svg" xmlns:xlink="http://www.w3.org/1999/xlink">
<path style="fill:#000000;fill-opacity:1.00;fill-rule:nonzero;stroke:none"  d="M 1294,1588 L 1235,1793 C 1261,1745 1284,1708 1302,1684 C 1331,1646 1359,1619 1387,1602 C 1403,1592 1420,1588 1437,1588 C 1452,1588 1465,1592 1475,1602 C 1485,1612 1490,1624 1490,1639 C 1490,1654 1487,1674 1480,1698 L 1447,1814 C 1497,1721 1544,1656 1588,1619 C 1613,1598 1637,1588 1661,1588 C 1675,1588 1686,1592 1695,1602 C 1704,1611 1709,1626 1709,1646 C 1709,1664 1706,1683 1701,1702 L 1650,1880 C 1640,1918 1634,1940 1634,1944 C 1634,1948 1635,1952 1638,1955 C 1640,1957 1642,1958 1645,1958 C 1648,1958 1654,1955 1661,1949 C 1679,1936 1695,1918 1710,1897 L 1725,1906 C 1718,1918 1704,1935 1685,1956 C 1666,1978 1649,1992 1635,2000 C 1622,2007 1609,2011 1598,2011 C 1587,2011 1578,2007 1571,2000 C 1564,1993 1560,1984 1560,1973 C 1560,1959 1566,1929 1579,1885 L 1620,1739 C 1630,1705 1635,1686 1635,1683 C 1636,1677 1637,1671 1637,1666 C 1637,1658 1635,1652 1632,1648 C 1628,1644 1624,1642 1619,1642 C 1607,1642 1593,1648 1579,1661 C 1537,1700 1498,1754 1461,1824 C 1437,1869 1415,1928 1394,2000 L 1325,2000 L 1403,1724 C 1411,1694 1416,1675 1416,1665 C 1416,1656 1414,1650 1411,1646 C 1407,1642 1403,1640 1398,1640 C 1388,1640 1378,1644 1367,1651 C 1348,1663 1325,1689 1296,1727 C 1267,1766 1245,1804 1229,1839 C 1222,1856 1204,1909 1175,2000 L 1108,2000 L 1192,1705 L 1203,1666 C 1205,1661 1206,1656 1206,1654 C 1206,1647 1203,1641 1197,1636 C 1191,1630 1183,1628 1174,1628 C 1170,1628 1159,1629 1141,1633 L 1137,1616 L 1294,1588 Z "  />
<path style="fill:#000000;fill-opacity:1.00;fill-rule:nonzero;stroke:none"  d="M 335,1624 L 422,742 C 426,697 428,667 428,652 C 428,628 420,609 402,593 C 385,577 357,570 320,570 L 292,570 L 299,541 L 717,541 L 709,570 C 664,570 632,575 615,584 C 599,592 585,608 575,629 C 570,640 565,673 559,727 L 496,1359 L 910,795 C 954,734 983,691 994,667 C 1002,651 1006,637 1006,625 C 1006,611 1000,599 988,588 C 976,578 953,572 921,570 L 930,541 L 1249,541 L 1241,570 C 1215,572 1195,577 1180,584 C 1151,598 1123,619 1094,646 C 1066,674 1021,729 960,813 L 363,1624 L 335,1624 Z "  />
</svg>