<svg width="19px" height="24px" viewBox="0 0 1900 2400" version="1.1" xmlns="http://www.w3.org/2000/svg" xmlns:xlink="http://www.w3.org/1999/xlink">
<path style="fill:#000000;fill-opacity:1.00;fill-rule:nonzero;stroke:none"  d="M 1494,1407 C 1507,1407 1517,1411 1526,1420 C 1535,1429 1539,1439 1539,1452 C 1539,1465 1535,1475 1526,1484 C 1517,1493 1506,1498 1494,1498 C 1481,1498 1471,1493 1462,1484 C 1453,1475 1448,1465 1448,1452 C 1448,1439 1453,1429 1461,1420 C 1470,1411 1481,1407 1494,1407 M 1500,1588 L 1409,1907 C 1403,1929 1400,1942 1400,1946 C 1400,1951 1402,1955 1405,1958 C 1408,1961 1411,1962 1415,1962 C 1420,1962 1425,1960 1431,1955 C 1449,1941 1466,1922 1484,1897 L 1500,1907 C 1479,1939 1455,1965 1427,1987 C 1406,2003 1386,2011 1368,2011 C 1355,2011 1345,2007 1337,2000 C 1329,1992 1325,1983 1325,1972 C 1325,1960 1329,1942 1337,1916 L 1396,1711 C 1406,1678 1410,1657 1410,1649 C 1410,1642 1408,1636 1403,1632 C 1399,1628 1392,1626 1384,1626 C 1377,1626 1363,1627 1342,1631 L 1342,1613 L 1500,1588 Z "  />
<path style="fill:#000000;fill-opacity:1.00;fill-rule:nonzero;stroke:none"  d="M 534,570 L 545,541 L 923,541 C 986,541 1043,551 1093,570 C 1142,590 1180,618 1204,653 C 1229,689 1241,726 1241,766 C 1241,827 1219,882 1175,931 C 1131,980 1060,1016 960,1040 C 1024,1064 1071,1096 1102,1135 C 1132,1175 1147,1218 1147,1266 C 1147,1318 1133,1368 1106,1416 C 1079,1464 1044,1502 1002,1528 C 959,1555 908,1574 848,1587 C 806,1596 739,1600 648,1600 L 260,1600 L 270,1571 C 311,1570 339,1566 353,1559 C 374,1551 389,1539 398,1524 C 410,1504 427,1459 448,1388 L 637,747 C 654,693 662,655 662,633 C 662,614 655,598 640,587 C 626,576 599,570 559,570 C 550,570 541,570 534,570 M 692,1009 C 726,1010 751,1011 766,1011 C 874,1011 955,987 1007,940 C 1060,893 1087,834 1087,763 C 1087,710 1071,668 1038,638 C 1006,608 954,593 884,593 C 865,593 841,596 812,602 L 692,1009 Z M 538,1531 C 595,1539 639,1542 670,1542 C 752,1542 824,1518 886,1469 C 949,1420 980,1353 980,1270 C 980,1205 961,1155 922,1120 C 883,1084 821,1066 734,1066 C 718,1066 697,1066 673,1068 L 538,1531 Z "  />
</svg>