<svg width="17px" height="23px" viewBox="0 0 1700 2300" version="1.1" xmlns="http://www.w3.org/2000/svg" xmlns:xlink="http://www.w3.org/1999/xlink">
<path style="fill:#000000;fill-opacity:1.00;fill-rule:nonzero;stroke:none"  d="M 1116,1637 L 1276,1611 L 1209,1836 C 1263,1744 1312,1679 1356,1642 C 1381,1621 1401,1611 1417,1611 C 1427,1611 1435,1614 1441,1620 C 1447,1626 1450,1635 1450,1646 C 1450,1666 1445,1686 1434,1704 C 1427,1718 1416,1725 1402,1725 C 1395,1725 1389,1723 1384,1718 C 1379,1714 1376,1707 1375,1697 C 1374,1691 1373,1687 1370,1685 C 1368,1683 1365,1682 1362,1682 C 1356,1682 1351,1683 1347,1685 C 1339,1690 1327,1702 1310,1721 C 1285,1752 1257,1791 1227,1839 C 1214,1859 1203,1882 1194,1908 C 1181,1943 1173,1964 1172,1971 L 1157,2029 L 1086,2029 L 1172,1742 C 1181,1709 1186,1685 1186,1671 C 1186,1666 1184,1661 1179,1657 C 1173,1652 1165,1650 1155,1650 C 1148,1650 1137,1651 1119,1654 L 1116,1637 Z "  />
<path style="fill:#000000;fill-opacity:1.00;fill-rule:nonzero;stroke:none"  d="M 999,906 L 844,1444 L 827,1516 C 825,1523 824,1528 824,1533 C 824,1542 827,1549 832,1555 C 837,1560 842,1562 848,1562 C 855,1562 864,1558 875,1550 C 896,1534 923,1503 958,1455 L 985,1474 C 948,1529 911,1571 872,1599 C 833,1628 798,1643 765,1643 C 742,1643 725,1637 714,1626 C 702,1614 697,1598 697,1576 C 697,1550 703,1516 714,1474 L 731,1414 C 662,1505 598,1568 540,1604 C 498,1630 457,1643 417,1643 C 378,1643 345,1627 317,1595 C 289,1563 275,1519 275,1463 C 275,1379 300,1290 351,1197 C 401,1103 465,1029 543,973 C 604,928 661,906 715,906 C 747,906 774,915 795,931 C 817,948 833,976 844,1016 L 873,925 L 999,906 Z M 717,947 C 683,947 647,963 609,995 C 555,1040 507,1106 465,1195 C 423,1283 402,1363 402,1434 C 402,1470 411,1498 429,1519 C 447,1540 467,1551 491,1551 C 548,1551 611,1508 679,1423 C 769,1310 814,1194 814,1075 C 814,1030 805,998 788,977 C 771,957 747,947 717,947 "  />
</svg>