<svg width="101px" height="24px" viewBox="0 0 10100 2400" version="1.1" xmlns="http://www.w3.org/2000/svg" xmlns:xlink="http://www.w3.org/1999/xlink">
<path style="fill:#000000;fill-opacity:1.00;fill-rule:nonzero;stroke:none"  d="M 9304,1407 C 9316,1407 9327,1411 9336,1420 C 9345,1429 9349,1439 9349,1452 C 9349,1465 9345,1475 9336,1484 C 9327,1493 9316,1498 9304,1498 C 9291,1498 9281,1493 9272,1484 C 9263,1475 9258,1465 9258,1452 C 9258,1439 9263,1429 9271,1420 C 9280,1411 9291,1407 9304,1407 M 9310,1588 L 9219,1907 C 9213,1929 9210,1942 9210,1946 C 9210,1951 9212,1955 9215,1958 C 9218,1961 9221,1962 9225,1962 C 9229,1962 9235,1960 9241,1955 C 9259,1941 9276,1922 9294,1897 L 9310,1907 C 9289,1939 9265,1965 9237,1987 C 9216,2003 9196,2011 9177,2011 C 9165,2011 9155,2007 9147,2000 C 9139,1992 9135,1983 9135,1972 C 9135,1960 9139,1942 9146,1916 L 9206,1711 C 9215,1678 9220,1657 9220,1649 C 9220,1642 9218,1636 9213,1632 C 9209,1628 9202,1626 9194,1626 C 9187,1626 9173,1627 9152,1631 L 9152,1613 L 9310,1588 Z M 9560,1588 L 9500,1795 C 9557,1710 9600,1654 9630,1628 C 9661,1601 9690,1588 9718,1588 C 9733,1588 9745,1593 9755,1603 C 9765,1613 9770,1626 9770,1642 C 9770,1660 9766,1684 9757,1715 L 9701,1907 C 9695,1929 9692,1942 9692,1947 C 9692,1951 9693,1955 9695,1958 C 9698,1961 9700,1962 9703,1962 C 9707,1962 9711,1960 9716,1956 C 9732,1943 9750,1924 9769,1898 L 9783,1907 C 9755,1947 9728,1976 9703,1993 C 9685,2005 9670,2011 9656,2011 C 9644,2011 9635,2008 9629,2001 C 9622,1994 9619,1985 9619,1973 C 9619,1959 9624,1933 9634,1898 L 9687,1715 C 9694,1692 9697,1674 9697,1661 C 9697,1655 9695,1650 9691,1647 C 9687,1643 9682,1641 9677,1641 C 9668,1641 9658,1644 9646,1652 C 9624,1665 9600,1688 9576,1719 C 9551,1751 9526,1791 9499,1840 C 9484,1866 9473,1894 9463,1925 L 9440,2000 L 9372,2000 L 9455,1715 C 9465,1680 9470,1660 9470,1653 C 9470,1646 9467,1640 9462,1635 C 9456,1630 9450,1628 9442,1628 C 9438,1628 9432,1628 9423,1629 L 9405,1632 L 9403,1616 L 9560,1588 Z "  />
<path style="fill:#000000;fill-opacity:1.00;fill-rule:nonzero;stroke:none"  d="M 5670,1407 C 5683,1407 5693,1411 5702,1420 C 5711,1429 5715,1439 5715,1452 C 5715,1465 5711,1475 5702,1484 C 5693,1493 5682,1498 5670,1498 C 5657,1498 5647,1493 5638,1484 C 5629,1475 5624,1465 5624,1452 C 5624,1439 5629,1429 5638,1420 C 5646,1411 5657,1407 5670,1407 M 5676,1588 L 5586,1907 C 5579,1929 5576,1942 5576,1946 C 5576,1951 5578,1955 5581,1958 C 5584,1961 5587,1962 5591,1962 C 5596,1962 5601,1960 5607,1955 C 5625,1941 5642,1922 5660,1897 L 5676,1907 C 5655,1939 5631,1965 5603,1987 C 5582,2003 5562,2011 5544,2011 C 5531,2011 5521,2007 5513,2000 C 5505,1992 5501,1983 5501,1972 C 5501,1960 5505,1942 5513,1916 L 5572,1711 C 5582,1678 5586,1657 5586,1649 C 5586,1642 5584,1636 5579,1632 C 5575,1628 5568,1626 5560,1626 C 5553,1626 5540,1627 5519,1631 L 5519,1613 L 5676,1588 Z "  />
<path style="fill:#000000;fill-opacity:1.00;fill-rule:nonzero;stroke:none"  d="M 4054,1407 C 4067,1407 4078,1411 4087,1420 C 4096,1429 4100,1439 4100,1452 C 4100,1465 4095,1475 4087,1484 C 4078,1493 4067,1498 4054,1498 C 4042,1498 4031,1493 4022,1484 C 4013,1475 4009,1465 4009,1452 C 4009,1439 4013,1429 4022,1420 C 4031,1411 4042,1407 4054,1407 M 4060,1588 L 3970,1907 C 3964,1929 3961,1942 3961,1946 C 3961,1951 3962,1955 3965,1958 C 3968,1961 3972,1962 3976,1962 C 3980,1962 3986,1960 3992,1955 C 4009,1941 4027,1922 4044,1897 L 4060,1907 C 4040,1939 4015,1965 3987,1987 C 3967,2003 3947,2011 3928,2011 C 3916,2011 3906,2007 3898,2000 C 3890,1992 3886,1983 3886,1972 C 3886,1960 3890,1942 3897,1916 L 3956,1711 C 3966,1678 3971,1657 3971,1649 C 3971,1642 3969,1636 3964,1632 C 3959,1628 3953,1626 3945,1626 C 3938,1626 3924,1627 3903,1631 L 3903,1613 L 4060,1588 Z "  />
<path style="fill:#000000;fill-opacity:1.00;fill-rule:nonzero;stroke:none"  d="M 9007,893 L 8854,1423 L 8837,1494 C 8836,1501 8835,1506 8835,1511 C 8835,1519 8838,1527 8843,1533 C 8847,1538 8852,1540 8858,1540 C 8865,1540 8874,1536 8885,1527 C 8905,1512 8932,1481 8966,1434 L 8993,1452 C 8957,1507 8920,1548 8882,1576 C 8844,1605 8809,1619 8776,1619 C 8754,1619 8737,1613 8726,1602 C 8715,1591 8709,1574 8709,1553 C 8709,1528 8715,1494 8726,1452 L 8743,1394 C 8675,1483 8612,1545 8555,1580 C 8513,1606 8473,1619 8433,1619 C 8395,1619 8363,1603 8335,1571 C 8307,1540 8294,1497 8294,1441 C 8294,1359 8318,1271 8368,1179 C 8418,1087 8481,1014 8558,959 C 8618,915 8674,893 8727,893 C 8759,893 8785,901 8806,918 C 8828,935 8844,962 8854,1001 L 8883,912 L 9007,893 Z M 8729,934 C 8695,934 8660,949 8622,980 C 8569,1025 8522,1090 8481,1177 C 8439,1264 8419,1343 8419,1413 C 8419,1449 8427,1477 8445,1497 C 8463,1518 8483,1528 8506,1528 C 8563,1528 8625,1486 8691,1402 C 8780,1291 8825,1177 8825,1059 C 8825,1015 8816,983 8799,963 C 8782,944 8758,934 8729,934 "  />
<path style="fill:#000000;fill-opacity:1.00;fill-rule:nonzero;stroke:none"  d="M 5373,893 L 5221,1423 L 5203,1494 C 5202,1501 5201,1506 5201,1511 C 5201,1519 5204,1527 5209,1533 C 5213,1538 5218,1540 5225,1540 C 5231,1540 5240,1536 5251,1527 C 5271,1512 5299,1481 5332,1434 L 5359,1452 C 5323,1507 5286,1548 5248,1576 C 5210,1605 5175,1619 5143,1619 C 5120,1619 5103,1613 5092,1602 C 5081,1591 5075,1574 5075,1553 C 5075,1528 5081,1494 5093,1452 L 5109,1394 C 5041,1483 4978,1545 4921,1580 C 4880,1606 4839,1619 4800,1619 C 4762,1619 4729,1603 4701,1571 C 4674,1540 4660,1497 4660,1441 C 4660,1359 4685,1271 4734,1179 C 4784,1087 4847,1014 4924,959 C 4984,915 5040,893 5093,893 C 5125,893 5152,901 5173,918 C 5194,935 5210,962 5221,1001 L 5249,912 L 5373,893 Z M 5095,934 C 5062,934 5026,949 4989,980 C 4936,1025 4888,1090 4847,1177 C 4805,1264 4785,1343 4785,1413 C 4785,1449 4794,1477 4811,1497 C 4829,1518 4849,1528 4872,1528 C 4929,1528 4991,1486 5057,1402 C 5146,1291 5191,1177 5191,1059 C 5191,1015 5182,983 5165,963 C 5148,944 5125,934 5095,934 "  />
<path style="fill:#000000;fill-opacity:1.00;fill-rule:nonzero;stroke:none"  d="M 3757,893 L 3605,1423 L 3588,1494 C 3586,1501 3586,1506 3586,1511 C 3586,1519 3588,1527 3593,1533 C 3598,1538 3603,1540 3609,1540 C 3616,1540 3625,1536 3636,1527 C 3656,1512 3683,1481 3717,1434 L 3743,1452 C 3707,1507 3671,1548 3632,1576 C 3594,1605 3559,1619 3527,1619 C 3505,1619 3488,1613 3477,1602 C 3465,1591 3460,1574 3460,1553 C 3460,1528 3466,1494 3477,1452 L 3493,1394 C 3425,1483 3362,1545 3305,1580 C 3264,1606 3224,1619 3184,1619 C 3146,1619 3113,1603 3086,1571 C 3058,1540 3044,1497 3044,1441 C 3044,1359 3069,1271 3119,1179 C 3169,1087 3232,1014 3308,959 C 3368,915 3425,893 3478,893 C 3510,893 3536,901 3557,918 C 3578,935 3594,962 3605,1001 L 3633,912 L 3757,893 Z M 3479,934 C 3446,934 3411,949 3373,980 C 3320,1025 3273,1090 3231,1177 C 3190,1264 3169,1343 3169,1413 C 3169,1449 3178,1477 3196,1497 C 3214,1518 3234,1528 3257,1528 C 3314,1528 3375,1486 3442,1402 C 3531,1291 3575,1177 3575,1059 C 3575,1015 3567,983 3550,963 C 3533,944 3509,934 3479,934 "  />
<path style="fill:#000000;fill-opacity:1.00;fill-rule:nonzero;stroke:none"  d="M 1190,516 L 1109,1398 C 1105,1439 1103,1466 1103,1479 C 1103,1500 1107,1516 1115,1527 C 1125,1542 1138,1553 1155,1560 C 1172,1567 1200,1571 1240,1571 L 1232,1600 L 815,1600 L 823,1571 L 841,1571 C 875,1571 903,1564 924,1549 C 939,1539 951,1523 959,1500 C 965,1484 970,1446 976,1386 L 988,1252 L 685,1252 L 577,1398 C 553,1430 537,1454 531,1468 C 525,1483 522,1496 522,1509 C 522,1525 528,1540 542,1552 C 556,1564 578,1570 609,1571 L 601,1600 L 287,1600 L 296,1571 C 334,1570 368,1557 398,1532 C 427,1508 471,1457 530,1377 L 1162,516 L 1190,516 Z M 1035,777 L 728,1195 L 994,1195 L 1035,777 Z "  />
<path style="fill:#000000;fill-opacity:1.00;fill-rule:nonzero;stroke:none"  d="M 6830,1448 C 6856,1448 6877,1456 6894,1473 C 6911,1491 6920,1512 6920,1538 C 6920,1561 6911,1582 6894,1600 C 6877,1618 6856,1627 6830,1627 C 6807,1627 6786,1618 6768,1600 C 6750,1582 6741,1561 6741,1538 C 6741,1512 6750,1491 6768,1473 C 6786,1456 6807,1448 6830,1448 M 7363,1448 C 7389,1448 7410,1456 7427,1473 C 7444,1491 7453,1512 7453,1538 C 7453,1561 7444,1582 7427,1600 C 7410,1618 7389,1627 7363,1627 C 7340,1627 7319,1618 7301,1600 C 7283,1582 7274,1561 7274,1538 C 7274,1512 7283,1491 7301,1473 C 7319,1456 7340,1448 7363,1448 M 7896,1448 C 7922,1448 7943,1456 7960,1473 C 7977,1491 7986,1512 7986,1538 C 7986,1561 7977,1582 7960,1600 C 7943,1618 7922,1627 7896,1627 C 7873,1627 7852,1618 7834,1600 C 7816,1582 7807,1561 7807,1538 C 7807,1512 7816,1491 7834,1473 C 7852,1456 7873,1448 7896,1448 "  />
<path style="fill:#000000;fill-opacity:1.00;fill-rule:nonzero;stroke:none"  d="M 6246,1881 L 6203,2000 L 5838,2000 L 5838,1983 C 5946,1885 6021,1805 6065,1743 C 6109,1681 6131,1625 6131,1573 C 6131,1534 6119,1502 6095,1477 C 6070,1452 6042,1439 6008,1439 C 5978,1439 5951,1448 5927,1466 C 5902,1483 5885,1509 5873,1544 L 5856,1544 C 5864,1488 5883,1444 5915,1414 C 5946,1384 5985,1369 6033,1369 C 6083,1369 6125,1385 6158,1418 C 6192,1450 6208,1488 6208,1531 C 6208,1563 6201,1594 6187,1625 C 6164,1675 6128,1727 6077,1782 C 6002,1864 5954,1914 5935,1931 L 6097,1931 C 6130,1931 6153,1930 6166,1928 C 6179,1925 6191,1920 6202,1913 C 6212,1905 6222,1895 6229,1881 L 6246,1881 Z "  />
<path style="fill:#000000;fill-opacity:1.00;fill-rule:nonzero;stroke:none"  d="M 4208,1443 L 4359,1369 L 4374,1369 L 4374,1891 C 4374,1926 4375,1947 4378,1956 C 4381,1964 4387,1971 4396,1975 C 4405,1980 4424,1983 4452,1983 L 4452,2000 L 4219,2000 L 4219,1983 C 4248,1983 4267,1980 4276,1976 C 4284,1971 4290,1965 4294,1958 C 4297,1950 4299,1928 4299,1891 L 4299,1557 C 4299,1512 4297,1484 4294,1471 C 4292,1461 4288,1454 4282,1449 C 4277,1445 4270,1443 4262,1443 C 4251,1443 4235,1447 4215,1457 L 4208,1443 Z "  />
<path style="fill:#000000;fill-opacity:1.00;fill-rule:nonzero;stroke:none"  d="M 1740,1007 L 2560,1007 L 2560,1083 L 1740,1083 L 1740,1007 Z M 1740,1298 L 2560,1298 L 2560,1376 L 1740,1376 L 1740,1298 Z "  />
</svg>