<svg width="192px" height="71px" viewBox="0 0 19200 7100" version="1.1" xmlns="http://www.w3.org/2000/svg" xmlns:xlink="http://www.w3.org/1999/xlink">
<path style="fill:none;stroke:#000000;stroke-width:66px;stroke-opacity:1.00;"  d="M 9463,2411 L 18875,2411 "  />
<path style="fill:#000000;fill-opacity:1.00;fill-rule:nonzero;stroke:none"  d="M 11747,5649 L 10201,5649 L 10201,5607 L 10988,4628 L 10201,3666 L 10201,3623 L 11705,3623 L 11737,4019 L 11690,4019 C 11678,3911 11647,3834 11599,3787 C 11551,3741 11483,3718 11397,3718 L 10526,3718 L 11187,4527 L 10447,5442 L 11410,5442 C 11465,5442 11525,5431 11590,5410 C 11635,5395 11672,5368 11701,5330 C 11731,5292 11755,5233 11775,5152 L 11822,5160 L 11747,5649 Z "  />
<path style="fill:#000000;fill-opacity:1.00;fill-rule:nonzero;stroke:none"  d="M 11596,6225 L 12077,6225 L 12077,6269 L 11596,6269 L 11596,6225 Z M 11596,6396 L 12077,6396 L 12077,6441 L 11596,6441 L 11596,6396 Z "  />
<path style="fill:#000000;fill-opacity:1.00;fill-rule:nonzero;stroke:none"  d="M 9904,6225 L 10385,6225 L 10385,6269 L 9904,6269 L 9904,6225 Z M 9904,6396 L 10385,6396 L 10385,6441 L 9904,6441 L 9904,6396 Z "  />
<path style="fill:#000000;fill-opacity:1.00;fill-rule:nonzero;stroke:none"  d="M 14571,4584 L 15395,4584 L 15395,4662 L 14571,4662 L 14571,4584 Z "  />
<path style="fill:#000000;fill-opacity:1.00;fill-rule:nonzero;stroke:none"  d="M 5096,2217 L 5920,2217 L 5920,2294 L 5096,2294 L 5096,2217 Z M 5096,2510 L 5920,2510 L 5920,2588 L 5096,2588 L 5096,2510 Z "  />
<path style="fill:#000000;fill-opacity:1.00;fill-rule:nonzero;stroke:none"  d="M 11374,2964 L 11313,3172 C 11370,3087 11414,3031 11444,3004 C 11474,2977 11503,2964 11532,2964 C 11547,2964 11559,2969 11569,2979 C 11579,2989 11584,3002 11584,3018 C 11584,3037 11580,3061 11571,3092 L 11515,3284 C 11509,3307 11505,3320 11505,3325 C 11505,3330 11507,3333 11509,3336 C 11512,3339 11514,3340 11517,3340 C 11521,3340 11525,3338 11530,3334 C 11546,3322 11564,3302 11583,3276 L 11598,3284 C 11569,3325 11542,3354 11517,3371 C 11499,3383 11483,3389 11469,3389 C 11458,3389 11449,3386 11442,3379 C 11436,3372 11432,3363 11432,3351 C 11432,3337 11437,3312 11448,3276 L 11501,3092 C 11508,3069 11511,3051 11511,3038 C 11511,3032 11509,3027 11505,3023 C 11501,3019 11496,3018 11490,3018 C 11482,3018 11472,3021 11460,3029 C 11437,3042 11414,3065 11389,3097 C 11365,3128 11339,3169 11312,3218 C 11297,3244 11286,3272 11276,3303 L 11253,3378 L 11185,3378 L 11268,3092 C 11278,3057 11283,3036 11283,3029 C 11283,3023 11280,3017 11274,3012 C 11269,3007 11263,3004 11255,3004 C 11251,3004 11245,3005 11235,3006 L 11218,3009 L 11215,2992 L 11374,2964 Z "  />
<path style="fill:#000000;fill-opacity:1.00;fill-rule:nonzero;stroke:none"  d="M 10578,2964 L 10517,3172 C 10574,3087 10618,3031 10648,3004 C 10678,2977 10708,2964 10736,2964 C 10751,2964 10764,2969 10774,2979 C 10783,2989 10788,3002 10788,3018 C 10788,3037 10784,3061 10775,3092 L 10719,3284 C 10713,3307 10710,3320 10710,3325 C 10710,3330 10711,3333 10713,3336 C 10716,3339 10718,3340 10721,3340 C 10725,3340 10729,3338 10734,3334 C 10751,3322 10768,3302 10787,3276 L 10802,3284 C 10773,3325 10746,3354 10721,3371 C 10703,3383 10688,3389 10673,3389 C 10662,3389 10653,3386 10646,3379 C 10640,3372 10636,3363 10636,3351 C 10636,3337 10642,3312 10652,3276 L 10705,3092 C 10712,3069 10715,3051 10715,3038 C 10715,3032 10713,3027 10709,3023 C 10705,3019 10700,3018 10695,3018 C 10686,3018 10676,3021 10664,3029 C 10641,3042 10618,3065 10593,3097 C 10569,3128 10543,3169 10516,3218 C 10502,3244 10490,3272 10480,3303 L 10457,3378 L 10389,3378 L 10472,3092 C 10482,3057 10487,3036 10487,3029 C 10487,3023 10484,3017 10479,3012 C 10473,3007 10467,3004 10459,3004 C 10455,3004 10449,3005 10440,3006 L 10422,3009 L 10419,2992 L 10578,2964 Z "  />
<path style="fill:#000000;fill-opacity:1.00;fill-rule:nonzero;stroke:none"  d="M 11444,5977 C 11457,5977 11468,5981 11477,5990 C 11486,5999 11490,6010 11490,6023 C 11490,6036 11486,6047 11477,6056 C 11468,6065 11457,6069 11444,6069 C 11431,6069 11420,6065 11411,6056 C 11402,6047 11398,6036 11398,6023 C 11398,6010 11402,5999 11411,5990 C 11420,5981 11431,5977 11444,5977 M 11451,6158 L 11333,6568 C 11312,6641 11283,6694 11246,6726 C 11209,6759 11169,6775 11127,6775 C 11107,6775 11093,6770 11083,6762 C 11073,6753 11068,6742 11068,6730 C 11068,6721 11072,6712 11079,6705 C 11087,6698 11095,6694 11105,6694 C 11114,6694 11122,6697 11128,6703 C 11134,6708 11137,6713 11137,6719 C 11137,6727 11133,6733 11125,6739 C 11121,6743 11119,6745 11119,6747 L 11120,6750 C 11121,6751 11122,6752 11124,6752 C 11126,6753 11128,6753 11132,6753 C 11157,6753 11178,6746 11196,6730 C 11213,6714 11229,6683 11242,6636 L 11345,6284 C 11355,6250 11360,6231 11360,6227 C 11360,6220 11357,6213 11350,6207 C 11344,6201 11335,6198 11325,6198 C 11321,6198 11317,6199 11312,6200 C 11308,6200 11302,6201 11294,6203 L 11294,6187 L 11451,6158 Z "  />
<path style="fill:#000000;fill-opacity:1.00;fill-rule:nonzero;stroke:none"  d="M 9764,5976 C 9777,5976 9788,5981 9796,5990 C 9805,5999 9810,6009 9810,6022 C 9810,6035 9805,6045 9796,6054 C 9787,6063 9776,6068 9764,6068 C 9751,6068 9741,6063 9732,6054 C 9723,6045 9718,6035 9718,6022 C 9718,6009 9723,5999 9731,5990 C 9740,5981 9751,5976 9764,5976 M 9770,6158 L 9679,6479 C 9673,6501 9670,6514 9670,6518 C 9670,6523 9671,6527 9674,6530 C 9677,6533 9681,6535 9685,6535 C 9689,6535 9695,6532 9701,6527 C 9719,6513 9736,6494 9754,6469 L 9770,6479 C 9749,6511 9725,6538 9697,6559 C 9676,6575 9656,6584 9637,6584 C 9625,6584 9614,6580 9606,6572 C 9598,6565 9594,6555 9594,6544 C 9594,6533 9598,6514 9606,6488 L 9665,6283 C 9675,6249 9680,6228 9680,6220 C 9680,6213 9678,6207 9673,6203 C 9668,6199 9662,6197 9654,6197 C 9647,6197 9633,6198 9612,6202 L 9612,6184 L 9770,6158 Z "  />
<path style="fill:#000000;fill-opacity:1.00;fill-rule:nonzero;stroke:none"  d="M 16868,4842 C 16881,4842 16892,4846 16901,4855 C 16909,4864 16914,4875 16914,4888 C 16914,4900 16909,4911 16900,4920 C 16891,4929 16881,4933 16868,4933 C 16856,4933 16845,4929 16836,4920 C 16827,4911 16822,4900 16822,4888 C 16822,4875 16827,4864 16836,4855 C 16844,4846 16855,4842 16868,4842 M 16874,5024 L 16783,5345 C 16777,5366 16774,5379 16774,5384 C 16774,5388 16776,5392 16779,5395 C 16781,5399 16785,5400 16789,5400 C 16793,5400 16799,5398 16805,5393 C 16823,5379 16840,5359 16858,5334 L 16874,5345 C 16853,5376 16829,5403 16801,5425 C 16780,5441 16760,5449 16741,5449 C 16729,5449 16718,5445 16711,5438 C 16703,5430 16699,5421 16699,5410 C 16699,5398 16702,5380 16710,5353 L 16770,5148 C 16779,5115 16784,5094 16784,5085 C 16784,5078 16782,5073 16777,5069 C 16772,5064 16766,5062 16758,5062 C 16751,5062 16737,5064 16716,5067 L 16716,5049 L 16874,5024 Z M 17134,4842 C 17146,4842 17157,4847 17166,4856 C 17175,4865 17180,4876 17180,4889 C 17180,4901 17175,4912 17166,4921 C 17157,4930 17146,4935 17134,4935 C 17121,4935 17110,4930 17101,4921 C 17092,4912 17087,4901 17087,4889 C 17087,4876 17092,4865 17101,4856 C 17110,4847 17121,4842 17134,4842 M 17141,5024 L 17022,5433 C 17001,5507 16972,5560 16936,5592 C 16899,5624 16859,5640 16816,5640 C 16797,5640 16783,5636 16773,5627 C 16763,5618 16758,5608 16758,5596 C 16758,5586 16761,5578 16769,5571 C 16776,5563 16785,5560 16795,5560 C 16804,5560 16811,5563 16818,5569 C 16824,5573 16826,5578 16826,5584 C 16826,5592 16823,5599 16815,5605 C 16811,5608 16809,5611 16809,5613 L 16809,5615 C 16810,5616 16812,5617 16814,5618 C 16815,5619 16818,5619 16822,5619 C 16847,5619 16868,5611 16885,5595 C 16903,5580 16918,5548 16932,5501 L 17035,5150 C 17045,5115 17050,5096 17050,5092 C 17050,5085 17047,5078 17040,5073 C 17033,5067 17025,5064 17015,5064 C 17011,5064 17006,5064 17001,5065 C 16997,5066 16992,5067 16984,5068 L 16984,5052 L 17141,5024 Z "  />
<path style="fill:#000000;fill-opacity:1.00;fill-rule:nonzero;stroke:none"  d="M 13651,4842 C 13664,4842 13675,4846 13684,4855 C 13693,4864 13697,4875 13697,4888 C 13697,4900 13693,4911 13684,4920 C 13675,4929 13664,4933 13651,4933 C 13639,4933 13628,4929 13619,4920 C 13610,4911 13606,4900 13606,4888 C 13606,4875 13610,4864 13619,4855 C 13628,4846 13639,4842 13651,4842 M 13657,5024 L 13567,5345 C 13561,5366 13558,5379 13558,5384 C 13558,5388 13559,5392 13562,5395 C 13565,5399 13568,5400 13572,5400 C 13577,5400 13582,5398 13589,5393 C 13606,5379 13624,5359 13641,5334 L 13657,5345 C 13637,5376 13612,5403 13584,5425 C 13563,5441 13543,5449 13525,5449 C 13512,5449 13502,5445 13494,5438 C 13486,5430 13482,5421 13482,5410 C 13482,5398 13486,5380 13493,5353 L 13553,5148 C 13563,5115 13568,5094 13568,5085 C 13568,5078 13565,5073 13560,5069 C 13556,5064 13549,5062 13541,5062 C 13534,5062 13520,5064 13499,5067 L 13499,5049 L 13657,5024 Z M 13917,4842 C 13930,4842 13941,4847 13950,4856 C 13959,4865 13963,4876 13963,4889 C 13963,4901 13959,4912 13950,4921 C 13941,4930 13930,4935 13917,4935 C 13904,4935 13893,4930 13884,4921 C 13875,4912 13871,4901 13871,4889 C 13871,4876 13875,4865 13884,4856 C 13893,4847 13904,4842 13917,4842 M 13924,5024 L 13806,5433 C 13785,5507 13756,5560 13719,5592 C 13682,5624 13642,5640 13600,5640 C 13580,5640 13566,5636 13556,5627 C 13546,5618 13541,5608 13541,5596 C 13541,5586 13545,5578 13552,5571 C 13560,5563 13568,5560 13578,5560 C 13587,5560 13595,5563 13601,5569 C 13607,5573 13610,5578 13610,5584 C 13610,5592 13606,5599 13598,5605 C 13594,5608 13592,5611 13592,5613 L 13593,5615 C 13594,5616 13595,5617 13597,5618 C 13599,5619 13601,5619 13605,5619 C 13630,5619 13651,5611 13669,5595 C 13686,5580 13702,5548 13715,5501 L 13818,5150 C 13828,5115 13833,5096 13833,5092 C 13833,5085 13830,5078 13823,5073 C 13817,5067 13808,5064 13798,5064 C 13794,5064 13790,5064 13785,5065 C 13781,5066 13775,5067 13767,5068 L 13767,5052 L 13924,5024 Z "  />
<path style="fill:#000000;fill-opacity:1.00;fill-rule:nonzero;stroke:none"  d="M 16148,4326 C 16166,4356 16178,4384 16185,4411 C 16192,4437 16199,4489 16206,4567 L 16240,4953 C 16272,4915 16317,4856 16377,4774 C 16406,4734 16441,4680 16484,4611 C 16509,4570 16525,4540 16531,4524 C 16534,4515 16535,4507 16535,4498 C 16535,4492 16534,4487 16530,4484 C 16526,4480 16517,4476 16501,4471 C 16486,4466 16473,4456 16463,4443 C 16453,4430 16447,4414 16447,4397 C 16447,4376 16454,4358 16466,4345 C 16479,4332 16495,4326 16513,4326 C 16536,4326 16556,4335 16572,4354 C 16588,4374 16597,4400 16597,4433 C 16597,4475 16582,4522 16554,4575 C 16526,4628 16471,4710 16391,4819 C 16310,4929 16213,5049 16098,5179 C 16019,5268 15960,5325 15922,5348 C 15884,5371 15851,5383 15824,5383 C 15808,5383 15794,5377 15781,5365 C 15769,5352 15763,5338 15763,5322 C 15763,5301 15771,5283 15788,5266 C 15805,5249 15824,5241 15844,5241 C 15854,5241 15863,5243 15870,5248 C 15874,5251 15878,5258 15883,5270 C 15888,5283 15893,5291 15897,5295 C 15900,5298 15903,5299 15907,5299 C 15910,5299 15915,5296 15923,5291 C 15952,5273 15985,5245 16024,5206 C 16074,5155 16111,5113 16135,5081 L 16091,4583 C 16084,4501 16073,4451 16058,4433 C 16043,4415 16019,4407 15984,4407 C 15973,4407 15954,4408 15925,4411 L 15918,4382 L 16148,4326 Z "  />
<path style="fill:#000000;fill-opacity:1.00;fill-rule:nonzero;stroke:none"  d="M 12979,4326 C 13004,4353 13024,4380 13037,4407 C 13046,4426 13062,4476 13083,4556 L 13152,4452 C 13170,4427 13193,4403 13219,4380 C 13245,4358 13268,4342 13288,4334 C 13300,4328 13314,4326 13330,4326 C 13352,4326 13370,4332 13383,4344 C 13397,4356 13403,4370 13403,4388 C 13403,4408 13399,4421 13392,4429 C 13377,4442 13360,4448 13341,4448 C 13330,4448 13319,4446 13306,4441 C 13281,4433 13265,4429 13257,4429 C 13244,4429 13229,4436 13212,4451 C 13179,4478 13141,4530 13096,4608 L 13160,4878 C 13170,4920 13178,4944 13185,4953 C 13192,4961 13199,4965 13206,4965 C 13217,4965 13229,4959 13244,4947 C 13273,4923 13297,4891 13318,4852 L 13345,4867 C 13312,4928 13270,4980 13220,5020 C 13191,5043 13167,5055 13147,5055 C 13117,5055 13094,5038 13077,5006 C 13066,4985 13043,4897 13008,4742 C 12927,4884 12861,4975 12812,5016 C 12780,5042 12749,5055 12720,5055 C 12699,5055 12680,5047 12662,5032 C 12650,5021 12643,5005 12643,4986 C 12643,4969 12649,4954 12661,4943 C 12672,4931 12686,4925 12703,4925 C 12720,4925 12738,4934 12757,4951 C 12770,4963 12781,4969 12788,4969 C 12794,4969 12802,4964 12812,4956 C 12837,4936 12870,4893 12913,4827 C 12955,4761 12983,4714 12996,4684 C 12963,4557 12946,4490 12943,4483 C 12931,4449 12916,4425 12896,4411 C 12877,4396 12848,4389 12811,4389 C 12799,4389 12785,4390 12769,4391 L 12769,4363 L 12979,4326 Z "  />
<path style="fill:#000000;fill-opacity:1.00;fill-rule:nonzero;stroke:none"  d="M 15334,1090 L 15230,1447 C 15327,1301 15402,1205 15454,1159 C 15507,1113 15557,1090 15605,1090 C 15631,1090 15653,1098 15670,1116 C 15687,1133 15695,1155 15695,1183 C 15695,1215 15687,1256 15672,1309 L 15577,1639 C 15566,1677 15560,1701 15560,1709 C 15560,1716 15562,1723 15566,1728 C 15571,1732 15575,1735 15580,1735 C 15586,1735 15594,1732 15602,1725 C 15630,1703 15661,1669 15693,1624 L 15718,1639 C 15669,1709 15623,1759 15580,1788 C 15549,1809 15522,1819 15498,1819 C 15479,1819 15463,1813 15452,1801 C 15440,1790 15434,1774 15434,1754 C 15434,1729 15443,1686 15461,1624 L 15552,1309 C 15564,1269 15569,1239 15569,1217 C 15569,1206 15566,1198 15559,1191 C 15552,1185 15544,1182 15534,1182 C 15519,1182 15502,1188 15482,1200 C 15443,1224 15403,1263 15361,1317 C 15319,1371 15275,1440 15228,1525 C 15203,1569 15183,1618 15167,1671 L 15128,1800 L 15010,1800 L 15153,1309 C 15169,1250 15178,1214 15178,1202 C 15178,1190 15173,1180 15164,1172 C 15155,1163 15143,1159 15130,1159 C 15124,1159 15113,1160 15097,1162 L 15067,1167 L 15062,1138 L 15334,1090 Z "  />
<path style="fill:#000000;fill-opacity:1.00;fill-rule:nonzero;stroke:none"  d="M 3598,2103 C 3616,2133 3628,2162 3635,2188 C 3642,2214 3649,2266 3656,2344 L 3690,2730 C 3722,2692 3767,2633 3827,2551 C 3856,2511 3891,2457 3934,2389 C 3959,2347 3975,2317 3981,2301 C 3984,2292 3985,2284 3985,2275 C 3985,2269 3984,2264 3980,2261 C 3976,2257 3967,2253 3951,2248 C 3936,2243 3923,2234 3913,2220 C 3903,2207 3897,2192 3897,2174 C 3897,2153 3904,2136 3916,2122 C 3929,2109 3945,2103 3963,2103 C 3986,2103 4006,2112 4022,2131 C 4038,2151 4047,2177 4047,2210 C 4047,2252 4032,2299 4004,2352 C 3976,2405 3921,2487 3841,2597 C 3760,2706 3663,2826 3548,2956 C 3469,3046 3410,3102 3372,3125 C 3334,3149 3301,3160 3274,3160 C 3258,3160 3244,3154 3231,3142 C 3219,3129 3213,3115 3213,3099 C 3213,3079 3221,3060 3238,3043 C 3255,3026 3274,3018 3294,3018 C 3304,3018 3313,3020 3320,3025 C 3324,3028 3328,3035 3333,3048 C 3338,3060 3343,3068 3347,3072 C 3350,3075 3353,3076 3357,3076 C 3360,3076 3365,3074 3373,3068 C 3402,3051 3435,3022 3474,2984 C 3524,2932 3561,2890 3585,2858 L 3541,2360 C 3534,2278 3523,2228 3508,2210 C 3493,2193 3469,2184 3434,2184 C 3423,2184 3404,2185 3375,2188 L 3368,2159 L 3598,2103 Z "  />
<path style="fill:#000000;fill-opacity:1.00;fill-rule:nonzero;stroke:none"  d="M 2145,2103 C 2171,2130 2190,2157 2203,2184 C 2213,2203 2228,2253 2250,2333 L 2319,2229 C 2337,2204 2359,2180 2386,2157 C 2412,2135 2435,2119 2455,2111 C 2467,2105 2481,2103 2496,2103 C 2519,2103 2537,2109 2550,2121 C 2563,2133 2570,2148 2570,2165 C 2570,2185 2566,2198 2558,2206 C 2544,2219 2527,2225 2508,2225 C 2497,2225 2485,2223 2473,2218 C 2448,2210 2432,2206 2423,2206 C 2411,2206 2396,2213 2378,2228 C 2346,2255 2307,2307 2262,2385 L 2327,2655 C 2337,2697 2345,2721 2352,2730 C 2359,2738 2365,2742 2372,2742 C 2383,2742 2396,2736 2411,2724 C 2439,2700 2464,2668 2484,2630 L 2512,2644 C 2479,2705 2437,2757 2386,2798 C 2358,2821 2333,2832 2313,2832 C 2284,2832 2261,2816 2243,2783 C 2232,2762 2210,2674 2175,2519 C 2094,2661 2028,2752 1979,2793 C 1947,2819 1916,2832 1886,2832 C 1865,2832 1846,2824 1829,2809 C 1816,2798 1810,2782 1810,2763 C 1810,2746 1816,2731 1827,2720 C 1839,2708 1853,2703 1870,2703 C 1887,2703 1904,2711 1923,2728 C 1937,2740 1947,2746 1955,2746 C 1961,2746 1969,2742 1979,2733 C 2004,2713 2037,2670 2079,2604 C 2122,2538 2150,2491 2163,2462 C 2130,2334 2113,2267 2110,2260 C 2098,2226 2082,2202 2063,2188 C 2044,2173 2015,2166 1977,2166 C 1965,2166 1951,2167 1936,2168 L 1936,2140 L 2145,2103 Z "  />
<path style="fill:#000000;fill-opacity:1.00;fill-rule:nonzero;stroke:none"  d="M 1111,1697 L 841,2623 C 827,2673 819,2706 819,2722 C 819,2727 822,2732 826,2737 C 831,2742 835,2744 840,2744 C 847,2744 855,2741 864,2734 C 882,2721 912,2690 954,2640 L 980,2656 C 943,2709 905,2751 866,2783 C 828,2816 792,2832 758,2832 C 740,2832 726,2826 714,2813 C 703,2801 697,2783 697,2760 C 697,2730 705,2690 720,2640 L 751,2542 C 675,2660 606,2741 544,2786 C 501,2817 460,2832 421,2832 C 381,2832 346,2814 317,2779 C 287,2744 272,2696 272,2635 C 272,2557 297,2474 347,2385 C 397,2297 462,2225 544,2170 C 608,2125 667,2103 721,2103 C 750,2103 774,2109 794,2120 C 815,2132 835,2151 855,2177 L 932,1904 C 937,1885 942,1869 946,1858 C 952,1837 955,1820 955,1806 C 955,1795 951,1786 943,1779 C 932,1770 918,1765 901,1765 C 889,1765 869,1767 841,1771 L 841,1742 L 1111,1697 Z M 820,2254 C 820,2221 811,2194 791,2173 C 772,2153 747,2143 717,2143 C 651,2143 583,2197 511,2306 C 440,2415 404,2519 404,2619 C 404,2658 413,2688 430,2708 C 447,2729 468,2739 492,2739 C 546,2739 615,2681 697,2563 C 779,2445 820,2342 820,2254 "  />
<path style="fill:#000000;fill-opacity:1.00;fill-rule:nonzero;stroke:none"  d="M 10942,3534 L 10942,3514 C 10973,3504 10998,3488 11015,3466 C 11032,3444 11041,3421 11041,3397 C 11041,3391 11040,3386 11037,3382 C 11035,3379 11033,3378 11030,3378 C 11027,3378 11020,3381 11008,3387 C 11003,3390 10997,3391 10991,3391 C 10976,3391 10964,3387 10955,3378 C 10946,3369 10942,3357 10942,3341 C 10942,3326 10948,3313 10959,3303 C 10971,3292 10985,3287 11001,3287 C 11021,3287 11039,3296 11055,3313 C 11071,3331 11078,3354 11078,3383 C 11078,3414 11068,3444 11046,3471 C 11024,3498 10989,3519 10942,3534 "  />
<path style="fill:#000000;fill-opacity:1.00;fill-rule:nonzero;stroke:none"  d="M 12152,6013 L 12303,5939 L 12318,5939 L 12318,6463 C 12318,6498 12319,6520 12322,6528 C 12325,6537 12331,6543 12340,6548 C 12349,6552 12368,6555 12396,6556 L 12396,6573 L 12163,6573 L 12163,6556 C 12192,6555 12211,6552 12219,6548 C 12228,6544 12234,6538 12237,6530 C 12241,6523 12242,6500 12242,6463 L 12242,6128 C 12242,6083 12241,6054 12238,6041 C 12235,6031 12232,6024 12226,6019 C 12220,6015 12214,6013 12206,6013 C 12194,6013 12179,6017 12158,6027 L 12152,6013 Z "  />
<path style="fill:#000000;fill-opacity:1.00;fill-rule:nonzero;stroke:none"  d="M 10834,6729 L 10834,6709 C 10865,6698 10889,6682 10907,6660 C 10924,6638 10933,6615 10933,6591 C 10933,6585 10931,6580 10928,6576 C 10926,6573 10924,6572 10922,6572 C 10919,6572 10911,6575 10900,6581 C 10895,6584 10889,6585 10883,6585 C 10868,6585 10856,6581 10847,6572 C 10838,6563 10834,6551 10834,6535 C 10834,6520 10839,6508 10851,6497 C 10862,6486 10876,6481 10893,6481 C 10913,6481 10931,6490 10947,6507 C 10962,6525 10970,6548 10970,6577 C 10970,6609 10959,6638 10937,6665 C 10916,6692 10881,6713 10834,6729 "  />
<path style="fill:#000000;fill-opacity:1.00;fill-rule:nonzero;stroke:none"  d="M 10460,6013 L 10611,5939 L 10626,5939 L 10626,6463 C 10626,6498 10628,6520 10630,6528 C 10633,6537 10639,6543 10649,6548 C 10658,6552 10676,6555 10704,6556 L 10704,6573 L 10471,6573 L 10471,6556 C 10500,6555 10519,6552 10528,6548 C 10536,6544 10542,6538 10546,6530 C 10549,6523 10551,6500 10551,6463 L 10551,6128 C 10551,6083 10549,6054 10546,6041 C 10544,6031 10540,6024 10534,6019 C 10529,6015 10522,6013 10514,6013 C 10503,6013 10487,6017 10467,6027 L 10460,6013 Z "  />
<path style="fill:#000000;fill-opacity:1.00;fill-rule:nonzero;stroke:none"  d="M 18551,4197 L 18507,4316 L 18141,4316 L 18141,4299 C 18249,4201 18325,4121 18369,4058 C 18412,3996 18434,3939 18434,3888 C 18434,3848 18422,3816 18398,3790 C 18374,3765 18345,3752 18312,3752 C 18281,3752 18254,3761 18230,3779 C 18205,3797 18187,3823 18176,3858 L 18159,3858 C 18166,3801 18186,3758 18218,3728 C 18249,3698 18289,3682 18336,3682 C 18386,3682 18428,3699 18462,3731 C 18496,3763 18513,3801 18513,3845 C 18513,3877 18505,3908 18491,3940 C 18468,3989 18432,4042 18381,4097 C 18305,4180 18257,4230 18239,4247 L 18401,4247 C 18434,4247 18457,4246 18470,4243 C 18483,4241 18495,4236 18506,4228 C 18517,4221 18526,4210 18534,4197 L 18551,4197 Z "  />
<path style="fill:#000000;fill-opacity:1.00;fill-rule:nonzero;stroke:none"  d="M 16347,961 L 16303,1080 L 15937,1080 L 15937,1063 C 16045,965 16120,885 16164,822 C 16208,760 16230,703 16230,652 C 16230,612 16218,580 16194,554 C 16170,529 16141,516 16108,516 C 16077,516 16050,525 16025,543 C 16001,561 15983,587 15972,622 L 15955,622 C 15962,565 15982,522 16014,492 C 16045,462 16085,446 16132,446 C 16182,446 16224,463 16258,495 C 16292,527 16309,565 16309,609 C 16309,641 16301,672 16287,704 C 16264,753 16227,806 16177,861 C 16101,944 16053,994 16034,1011 L 16196,1011 C 16229,1011 16253,1010 16266,1007 C 16279,1005 16291,1000 16302,992 C 16312,985 16322,974 16330,961 L 16347,961 Z "  />
<path style="fill:#000000;fill-opacity:1.00;fill-rule:nonzero;stroke:none"  d="M 14688,961 L 14645,1080 L 14278,1080 L 14278,1063 C 14386,965 14462,885 14506,822 C 14550,760 14572,703 14572,652 C 14572,612 14560,580 14536,554 C 14512,529 14483,516 14449,516 C 14419,516 14391,525 14367,543 C 14343,561 14325,587 14313,622 L 14296,622 C 14304,565 14324,522 14355,492 C 14387,462 14426,446 14474,446 C 14524,446 14566,463 14600,495 C 14633,527 14650,565 14650,609 C 14650,641 14643,672 14628,704 C 14606,753 14569,806 14518,861 C 14442,944 14395,994 14376,1011 L 14538,1011 C 14571,1011 14594,1010 14607,1007 C 14621,1005 14633,1000 14643,992 C 14654,985 14663,974 14671,961 L 14688,961 Z "  />
<path style="fill:#000000;fill-opacity:1.00;fill-rule:nonzero;stroke:none"  d="M 17494,3953 L 17494,3920 C 17574,3959 17640,4005 17693,4059 C 17768,4135 17826,4225 17867,4328 C 17907,4431 17928,4538 17928,4649 C 17928,4811 17888,4959 17808,5093 C 17728,5227 17624,5322 17494,5380 L 17494,5351 C 17559,5315 17612,5266 17653,5205 C 17695,5143 17726,5065 17746,4970 C 17766,4875 17776,4776 17776,4673 C 17776,4561 17768,4459 17750,4367 C 17737,4295 17721,4237 17701,4194 C 17682,4150 17656,4109 17623,4068 C 17591,4028 17548,3990 17494,3953 "  />
<path style="fill:#000000;fill-opacity:1.00;fill-rule:nonzero;stroke:none"  d="M 12549,5351 L 12549,5380 C 12470,5340 12404,5294 12351,5240 C 12276,5164 12218,5075 12177,4972 C 12136,4869 12116,4762 12116,4651 C 12116,4488 12156,4341 12236,4207 C 12316,4073 12421,3977 12549,3920 L 12549,3953 C 12485,3988 12432,4037 12391,4099 C 12349,4161 12318,4239 12298,4334 C 12278,4428 12267,4527 12267,4630 C 12267,4742 12276,4844 12293,4936 C 12307,5008 12323,5066 12343,5110 C 12362,5153 12388,5195 12421,5236 C 12454,5276 12496,5314 12549,5351 "  />
<path style="fill:#000000;fill-opacity:1.00;fill-rule:nonzero;stroke:none"  d="M 12508,1595 L 12433,1800 L 11805,1800 L 11805,1771 C 11990,1603 12120,1465 12195,1358 C 12271,1251 12309,1154 12309,1065 C 12309,998 12288,942 12247,899 C 12205,856 12156,834 12098,834 C 12046,834 11999,849 11957,880 C 11916,910 11885,955 11865,1014 L 11836,1014 C 11849,918 11883,843 11937,791 C 11991,740 12059,714 12140,714 C 12226,714 12298,741 12356,797 C 12414,852 12443,918 12443,993 C 12443,1047 12430,1101 12405,1155 C 12366,1240 12304,1329 12217,1424 C 12086,1566 12005,1652 11973,1682 L 12250,1682 C 12307,1682 12347,1679 12369,1675 C 12392,1671 12413,1663 12431,1650 C 12449,1637 12465,1619 12479,1595 L 12508,1595 Z M 13272,736 L 13211,869 L 12891,869 L 12821,1012 C 12960,1032 13070,1084 13151,1167 C 13220,1238 13255,1322 13255,1418 C 13255,1474 13244,1526 13221,1573 C 13198,1621 13170,1661 13135,1695 C 13101,1728 13062,1755 13020,1776 C 12960,1805 12898,1819 12834,1819 C 12771,1819 12724,1808 12695,1786 C 12666,1765 12652,1741 12652,1715 C 12652,1700 12658,1687 12670,1676 C 12682,1664 12697,1659 12715,1659 C 12729,1659 12741,1661 12751,1665 C 12761,1669 12778,1680 12803,1697 C 12842,1724 12882,1738 12922,1738 C 12984,1738 13037,1715 13084,1669 C 13130,1622 13153,1566 13153,1499 C 13153,1435 13132,1375 13091,1319 C 13050,1264 12993,1221 12920,1190 C 12863,1167 12785,1153 12687,1149 L 12891,736 L 13272,736 Z M 14076,736 L 14015,869 L 13695,869 L 13625,1012 C 13764,1032 13873,1084 13955,1167 C 14024,1238 14059,1322 14059,1418 C 14059,1474 14048,1526 14025,1573 C 14002,1621 13973,1661 13939,1695 C 13904,1728 13866,1755 13823,1776 C 13763,1805 13702,1819 13638,1819 C 13574,1819 13528,1808 13499,1786 C 13470,1765 13455,1741 13455,1715 C 13455,1700 13461,1687 13473,1676 C 13485,1664 13501,1659 13519,1659 C 13532,1659 13544,1661 13555,1665 C 13565,1669 13582,1680 13607,1697 C 13646,1724 13686,1738 13726,1738 C 13787,1738 13841,1715 13887,1669 C 13934,1622 13957,1566 13957,1499 C 13957,1435 13936,1375 13895,1319 C 13854,1264 13797,1221 13724,1190 C 13667,1167 13589,1153 13491,1149 L 13695,736 L 14076,736 Z "  />
<path style="fill:#000000;fill-opacity:1.00;fill-rule:nonzero;stroke:none"  d="M 8264,1697 L 8264,2651 C 8264,2696 8267,2726 8274,2740 C 8281,2755 8291,2766 8304,2774 C 8318,2781 8343,2785 8380,2785 L 8380,2813 L 8028,2813 L 8028,2785 C 8061,2785 8083,2782 8095,2775 C 8107,2768 8117,2757 8124,2741 C 8130,2725 8134,2695 8134,2651 L 8134,1998 C 8134,1917 8132,1867 8128,1848 C 8125,1830 8119,1817 8111,1810 C 8103,1803 8092,1800 8080,1800 C 8066,1800 8049,1804 8028,1812 L 8015,1785 L 8229,1697 L 8264,1697 Z M 8656,2551 C 8612,2530 8578,2500 8555,2461 C 8531,2423 8519,2380 8519,2334 C 8519,2262 8546,2201 8600,2150 C 8653,2099 8722,2073 8806,2073 C 8874,2073 8934,2090 8984,2123 L 9136,2123 C 9159,2123 9172,2124 9175,2125 C 9179,2126 9182,2129 9183,2132 C 9186,2137 9188,2145 9188,2157 C 9188,2171 9187,2180 9184,2185 C 9183,2188 9180,2190 9176,2192 C 9172,2193 9159,2194 9136,2194 L 9043,2194 C 9072,2232 9087,2280 9087,2338 C 9087,2405 9061,2463 9010,2510 C 8959,2558 8890,2582 8803,2582 C 8768,2582 8731,2576 8694,2566 C 8671,2586 8656,2603 8648,2618 C 8639,2633 8635,2646 8635,2656 C 8635,2665 8640,2674 8648,2682 C 8657,2690 8674,2697 8699,2700 C 8714,2702 8750,2704 8809,2706 C 8917,2708 8987,2712 9019,2717 C 9067,2723 9106,2742 9135,2771 C 9164,2800 9179,2836 9179,2879 C 9179,2938 9151,2994 9095,3046 C 9014,3122 8907,3160 8776,3160 C 8675,3160 8590,3137 8520,3092 C 8481,3066 8461,3038 8461,3010 C 8461,2998 8464,2985 8470,2973 C 8479,2953 8497,2926 8525,2892 C 8528,2887 8555,2859 8605,2807 C 8578,2791 8558,2776 8547,2763 C 8536,2751 8530,2736 8530,2720 C 8530,2701 8538,2680 8553,2655 C 8568,2631 8602,2596 8656,2551 M 8792,2111 C 8754,2111 8721,2126 8695,2157 C 8669,2188 8656,2235 8656,2299 C 8656,2382 8674,2446 8709,2491 C 8736,2526 8771,2543 8813,2543 C 8853,2543 8885,2528 8911,2498 C 8937,2469 8949,2422 8949,2358 C 8949,2275 8931,2210 8895,2162 C 8869,2128 8834,2111 8792,2111 M 8648,2813 C 8623,2840 8605,2865 8592,2888 C 8580,2911 8573,2932 8573,2951 C 8573,2976 8589,2998 8619,3017 C 8671,3050 8747,3066 8846,3066 C 8940,3066 9009,3049 9054,3016 C 9099,2983 9121,2947 9121,2910 C 9121,2883 9108,2863 9081,2852 C 9054,2840 9000,2833 8920,2831 C 8802,2828 8711,2822 8648,2813 "  />
<path style="fill:#000000;fill-opacity:1.00;fill-rule:nonzero;stroke:none"  d="M 6380,1853 L 6639,1727 L 6665,1727 L 6665,2626 C 6665,2685 6667,2722 6672,2737 C 6677,2752 6688,2763 6703,2771 C 6719,2779 6751,2783 6799,2784 L 6799,2813 L 6399,2813 L 6399,2784 C 6449,2783 6482,2779 6496,2771 C 6511,2764 6521,2753 6527,2741 C 6533,2728 6535,2689 6535,2626 L 6535,2051 C 6535,1974 6533,1924 6528,1902 C 6524,1885 6517,1873 6508,1865 C 6498,1857 6486,1853 6473,1853 C 6453,1853 6426,1861 6392,1878 L 6380,1853 Z M 7054,2287 C 7054,2166 7072,2061 7108,1974 C 7145,1886 7194,1821 7254,1778 C 7302,1744 7350,1727 7400,1727 C 7482,1727 7555,1768 7620,1852 C 7701,1955 7742,2094 7742,2271 C 7742,2394 7724,2499 7689,2586 C 7653,2672 7608,2735 7552,2774 C 7497,2813 7444,2832 7393,2832 C 7291,2832 7207,2772 7139,2652 C 7082,2551 7054,2430 7054,2287 M 7207,2307 C 7207,2453 7225,2573 7262,2666 C 7291,2744 7336,2783 7395,2783 C 7423,2783 7453,2770 7483,2745 C 7513,2719 7536,2677 7552,2617 C 7576,2527 7588,2400 7588,2236 C 7588,2115 7576,2014 7550,1932 C 7532,1872 7507,1830 7477,1805 C 7456,1787 7430,1779 7400,1779 C 7364,1779 7332,1795 7305,1827 C 7267,1870 7241,1938 7228,2031 C 7214,2125 7207,2216 7207,2307 "  />
<path style="fill:#000000;fill-opacity:1.00;fill-rule:nonzero;stroke:none"  d="M 4153,1730 L 4153,1697 C 4232,1736 4299,1783 4351,1836 C 4426,1912 4484,2002 4525,2105 C 4566,2208 4586,2315 4586,2426 C 4586,2588 4546,2736 4466,2870 C 4387,3004 4282,3099 4153,3157 L 4153,3128 C 4217,3092 4270,3043 4312,2982 C 4353,2920 4384,2842 4404,2747 C 4425,2652 4435,2553 4435,2450 C 4435,2338 4426,2237 4409,2144 C 4396,2072 4379,2014 4360,1971 C 4340,1928 4314,1886 4282,1845 C 4249,1805 4206,1767 4153,1730 "  />
<path style="fill:#000000;fill-opacity:1.00;fill-rule:nonzero;stroke:none"  d="M 2678,3081 L 2678,3046 C 2732,3029 2774,3001 2803,2964 C 2833,2926 2848,2886 2848,2845 C 2848,2835 2845,2826 2840,2819 C 2837,2815 2833,2812 2830,2812 C 2824,2812 2811,2818 2792,2828 C 2782,2833 2772,2835 2762,2835 C 2736,2835 2716,2828 2701,2812 C 2686,2797 2678,2776 2678,2750 C 2678,2724 2688,2702 2707,2684 C 2727,2665 2751,2656 2779,2656 C 2814,2656 2845,2671 2872,2701 C 2898,2731 2912,2771 2912,2821 C 2912,2875 2893,2925 2856,2971 C 2818,3018 2759,3054 2678,3081 "  />
<path style="fill:#000000;fill-opacity:1.00;fill-rule:nonzero;stroke:none"  d="M 1716,3128 L 1716,3157 C 1637,3117 1571,3071 1518,3017 C 1443,2941 1385,2852 1344,2749 C 1303,2646 1283,2539 1283,2428 C 1283,2266 1323,2118 1403,1984 C 1483,1850 1587,1755 1716,1697 L 1716,1730 C 1652,1766 1599,1814 1557,1876 C 1516,1938 1485,2016 1465,2111 C 1444,2205 1434,2304 1434,2407 C 1434,2519 1443,2621 1460,2713 C 1474,2785 1490,2843 1509,2887 C 1529,2930 1555,2972 1588,3013 C 1620,3053 1663,3091 1716,3128 "  />
</svg>