<svg width="301px" height="75px" viewBox="0 0 30100 7500" version="1.1" xmlns="http://www.w3.org/2000/svg" xmlns:xlink="http://www.w3.org/1999/xlink">
<path style="fill:none;stroke:#000000;stroke-width:66px;stroke-opacity:1.00;"  d="M 300,377 L 300,7123 "  />
<path style="fill:none;stroke:#000000;stroke-width:66px;stroke-opacity:1.00;"  d="M 2397,377 L 2397,7123 "  />
<path style="fill:none;stroke:#000000;stroke-width:66px;stroke-opacity:1.00;"  d="M 4295,377 L 4295,7123 "  />
<path style="fill:none;stroke:#000000;stroke-width:66px;stroke-opacity:1.00;"  d="M 23049,377 L 23049,7123 "  />
<path style="fill:none;stroke:#000000;stroke-width:66px;stroke-opacity:1.00;"  d="M 24123,377 L 24123,7123 "  />
<path style="fill:none;stroke:#000000;stroke-width:66px;stroke-opacity:1.00;"  d="M 25547,377 L 25547,7123 "  />
<path style="fill:none;stroke:#000000;stroke-width:66px;stroke-opacity:1.00;"  d="M 27270,377 L 27270,7123 "  />
<path style="fill:none;stroke:#000000;stroke-width:66px;stroke-opacity:1.00;"  d="M 29717,377 L 29717,7123 "  />
<path style="fill:#000000;fill-opacity:1.00;fill-rule:nonzero;stroke:none"  d="M 27450,5603 L 27709,5476 L 27735,5476 L 27735,6375 C 27735,6435 27737,6472 27742,6486 C 27747,6501 27757,6512 27773,6520 C 27789,6528 27821,6532 27869,6533 L 27869,6563 L 27469,6563 L 27469,6533 C 27519,6532 27551,6528 27566,6521 C 27581,6513 27591,6503 27597,6490 C 27602,6477 27605,6439 27605,6375 L 27605,5801 C 27605,5723 27603,5673 27597,5651 C 27594,5635 27587,5622 27577,5615 C 27568,5607 27556,5603 27542,5603 C 27523,5603 27496,5611 27462,5627 L 27450,5603 Z M 28802,6358 L 28727,6563 L 28100,6563 L 28100,6533 C 28284,6365 28414,6227 28490,6121 C 28565,6014 28603,5916 28603,5828 C 28603,5761 28582,5705 28541,5662 C 28499,5618 28450,5597 28392,5597 C 28340,5597 28293,5612 28251,5642 C 28210,5673 28179,5718 28159,5777 L 28130,5777 C 28143,5680 28177,5606 28231,5554 C 28285,5502 28353,5476 28434,5476 C 28520,5476 28592,5504 28650,5560 C 28708,5615 28737,5680 28737,5756 C 28737,5810 28724,5864 28699,5917 C 28660,6002 28598,6092 28511,6187 C 28381,6329 28299,6415 28267,6444 L 28545,6444 C 28601,6444 28641,6442 28663,6438 C 28686,6434 28707,6425 28725,6412 C 28743,6399 28759,6381 28773,6358 L 28802,6358 Z M 29177,6027 C 29093,5957 29039,5902 29014,5860 C 28990,5818 28978,5775 28978,5730 C 28978,5661 29004,5601 29058,5551 C 29111,5501 29182,5476 29270,5476 C 29356,5476 29425,5500 29478,5546 C 29530,5593 29556,5646 29556,5706 C 29556,5745 29542,5786 29514,5827 C 29485,5869 29427,5917 29337,5973 C 29429,6044 29490,6100 29520,6141 C 29560,6194 29580,6251 29580,6310 C 29580,6385 29551,6449 29494,6502 C 29437,6555 29362,6581 29270,6581 C 29169,6581 29090,6550 29033,6486 C 28988,6436 28966,6380 28966,6320 C 28966,6273 28982,6226 29013,6180 C 29045,6134 29100,6083 29177,6027 M 29300,5943 C 29363,5886 29403,5841 29419,5809 C 29436,5776 29445,5739 29445,5698 C 29445,5643 29429,5600 29398,5569 C 29367,5538 29325,5522 29272,5522 C 29219,5522 29175,5537 29142,5568 C 29108,5599 29091,5635 29091,5677 C 29091,5704 29098,5731 29112,5758 C 29126,5785 29146,5811 29172,5836 L 29300,5943 Z M 29214,6056 C 29170,6093 29138,6133 29117,6176 C 29096,6219 29086,6266 29086,6316 C 29086,6384 29104,6438 29141,6478 C 29178,6519 29225,6539 29282,6539 C 29339,6539 29384,6523 29418,6491 C 29452,6459 29469,6420 29469,6375 C 29469,6337 29459,6304 29439,6274 C 29402,6218 29327,6146 29214,6056 "  />
<path style="fill:#000000;fill-opacity:1.00;fill-rule:nonzero;stroke:none"  d="M 27450,3192 L 27709,3066 L 27735,3066 L 27735,3964 C 27735,4024 27737,4061 27742,4076 C 27747,4090 27757,4102 27773,4109 C 27789,4117 27821,4122 27869,4123 L 27869,4152 L 27469,4152 L 27469,4123 C 27519,4122 27551,4117 27566,4110 C 27581,4102 27591,4092 27597,4079 C 27602,4066 27605,4028 27605,3964 L 27605,3390 C 27605,3312 27603,3263 27597,3241 C 27594,3224 27587,3212 27577,3204 C 27568,3196 27556,3192 27542,3192 C 27523,3192 27496,3200 27462,3216 L 27450,3192 Z M 28802,3947 L 28727,4152 L 28100,4152 L 28100,4123 C 28284,3954 28414,3817 28490,3710 C 28565,3603 28603,3506 28603,3417 C 28603,3350 28582,3294 28541,3251 C 28499,3208 28450,3186 28392,3186 C 28340,3186 28293,3201 28251,3232 C 28210,3262 28179,3307 28159,3366 L 28130,3366 C 28143,3270 28177,3195 28231,3143 C 28285,3092 28353,3066 28434,3066 C 28520,3066 28592,3093 28650,3149 C 28708,3204 28737,3270 28737,3345 C 28737,3399 28724,3453 28699,3507 C 28660,3592 28598,3681 28511,3776 C 28381,3918 28299,4004 28267,4033 L 28545,4033 C 28601,4033 28641,4031 28663,4027 C 28686,4023 28707,4014 28725,4002 C 28743,3989 28759,3971 28773,3947 L 28802,3947 Z M 29177,3616 C 29093,3547 29039,3491 29014,3449 C 28990,3408 28978,3364 28978,3319 C 28978,3250 29004,3191 29058,3141 C 29111,3091 29182,3066 29270,3066 C 29356,3066 29425,3089 29478,3136 C 29530,3182 29556,3235 29556,3295 C 29556,3335 29542,3375 29514,3417 C 29485,3458 29427,3506 29337,3562 C 29429,3634 29490,3690 29520,3730 C 29560,3784 29580,3840 29580,3899 C 29580,3974 29551,4038 29494,4091 C 29437,4144 29362,4171 29270,4171 C 29169,4171 29090,4139 29033,4076 C 28988,4025 28966,3969 28966,3909 C 28966,3862 28982,3816 29013,3769 C 29045,3723 29100,3672 29177,3616 M 29300,3532 C 29363,3475 29403,3431 29419,3398 C 29436,3365 29445,3328 29445,3287 C 29445,3232 29429,3189 29398,3158 C 29367,3127 29325,3111 29272,3111 C 29219,3111 29175,3127 29142,3158 C 29108,3188 29091,3225 29091,3266 C 29091,3293 29098,3320 29112,3347 C 29126,3375 29146,3401 29172,3425 L 29300,3532 Z M 29214,3646 C 29170,3682 29138,3722 29117,3765 C 29096,3808 29086,3855 29086,3905 C 29086,3973 29104,4027 29141,4067 C 29178,4108 29225,4128 29282,4128 C 29339,4128 29384,4112 29418,4080 C 29452,4048 29469,4010 29469,3964 C 29469,3927 29459,3893 29439,3863 C 29402,3808 29327,3735 29214,3646 "  />
<path style="fill:#000000;fill-opacity:1.00;fill-rule:nonzero;stroke:none"  d="M 28181,1215 C 28181,1094 28199,989 28236,902 C 28273,814 28321,749 28382,706 C 28429,672 28478,655 28528,655 C 28610,655 28683,697 28748,780 C 28829,883 28869,1023 28869,1199 C 28869,1322 28851,1427 28816,1514 C 28780,1600 28735,1662 28680,1701 C 28625,1740 28571,1760 28520,1760 C 28419,1760 28334,1700 28267,1580 C 28210,1479 28181,1358 28181,1215 M 28335,1235 C 28335,1381 28353,1501 28389,1594 C 28419,1671 28463,1710 28522,1710 C 28551,1710 28580,1698 28610,1672 C 28641,1647 28664,1605 28679,1545 C 28703,1455 28715,1328 28715,1164 C 28715,1043 28703,942 28678,861 C 28659,800 28635,758 28605,733 C 28583,715 28557,707 28527,707 C 28492,707 28460,723 28432,755 C 28395,798 28369,866 28355,960 C 28342,1053 28335,1144 28335,1235 "  />
<path style="fill:#000000;fill-opacity:1.00;fill-rule:nonzero;stroke:none"  d="M 21104,5498 L 21043,5632 L 20723,5632 L 20653,5775 C 20792,5795 20901,5847 20983,5929 C 21052,6000 21087,6084 21087,6180 C 21087,6236 21076,6288 21053,6336 C 21030,6383 21001,6424 20967,6457 C 20932,6491 20894,6518 20851,6538 C 20791,6567 20730,6581 20666,6581 C 20602,6581 20556,6570 20527,6549 C 20498,6527 20483,6503 20483,6477 C 20483,6462 20489,6449 20502,6438 C 20514,6427 20529,6421 20547,6421 C 20561,6421 20573,6423 20583,6428 C 20593,6432 20610,6442 20635,6460 C 20674,6487 20714,6501 20754,6501 C 20815,6501 20869,6477 20915,6431 C 20962,6385 20985,6328 20985,6262 C 20985,6198 20964,6138 20923,6082 C 20882,6026 20825,5983 20752,5953 C 20695,5929 20617,5916 20519,5912 L 20723,5498 L 21104,5498 Z "  />
<path style="fill:#000000;fill-opacity:1.00;fill-rule:nonzero;stroke:none"  d="M 20208,6410 C 20232,6410 20253,6419 20270,6436 C 20287,6453 20295,6473 20295,6497 C 20295,6521 20286,6542 20269,6559 C 20252,6576 20232,6584 20208,6584 C 20184,6584 20163,6576 20146,6559 C 20129,6542 20121,6521 20121,6497 C 20121,6473 20129,6452 20146,6435 C 20163,6419 20184,6410 20208,6410 "  />
<path style="fill:#000000;fill-opacity:1.00;fill-rule:nonzero;stroke:none"  d="M 19266,6037 C 19266,5915 19284,5811 19321,5723 C 19358,5636 19406,5570 19467,5527 C 19514,5493 19563,5476 19613,5476 C 19694,5476 19768,5518 19833,5601 C 19914,5704 19954,5844 19954,6020 C 19954,6144 19936,6249 19901,6335 C 19865,6421 19820,6484 19765,6523 C 19709,6562 19656,6581 19605,6581 C 19503,6581 19419,6521 19351,6402 C 19294,6301 19266,6179 19266,6037 M 19420,6056 C 19420,6203 19438,6322 19474,6415 C 19504,6493 19548,6532 19607,6532 C 19636,6532 19665,6519 19695,6494 C 19726,6468 19749,6426 19764,6366 C 19788,6276 19800,6149 19800,5986 C 19800,5864 19788,5763 19763,5682 C 19744,5622 19720,5579 19690,5554 C 19668,5537 19642,5528 19612,5528 C 19576,5528 19545,5544 19517,5576 C 19479,5620 19454,5688 19440,5781 C 19427,5874 19420,5966 19420,6056 "  />
<path style="fill:#000000;fill-opacity:1.00;fill-rule:nonzero;stroke:none"  d="M 12847,5701 C 12877,5629 12915,5574 12962,5535 C 13008,5496 13066,5476 13135,5476 C 13220,5476 13285,5504 13331,5560 C 13365,5601 13383,5645 13383,5692 C 13383,5770 13334,5850 13237,5932 C 13302,5958 13351,5995 13385,6042 C 13418,6090 13435,6146 13435,6210 C 13435,6302 13406,6382 13347,6450 C 13271,6537 13160,6581 13015,6581 C 12944,6581 12895,6572 12869,6555 C 12843,6537 12830,6518 12830,6497 C 12830,6482 12836,6469 12849,6457 C 12861,6446 12876,6440 12893,6440 C 12906,6440 12919,6442 12933,6446 C 12942,6449 12962,6459 12993,6475 C 13025,6491 13046,6501 13059,6504 C 13078,6510 13099,6513 13121,6513 C 13174,6513 13220,6492 13260,6451 C 13299,6410 13319,6361 13319,6304 C 13319,6263 13310,6223 13292,6183 C 13278,6154 13263,6132 13247,6117 C 13224,6096 13193,6077 13154,6060 C 13115,6043 13075,6034 13034,6034 L 13009,6034 L 13009,6011 C 13050,6006 13092,5991 13133,5966 C 13175,5942 13205,5912 13224,5877 C 13243,5843 13252,5805 13252,5764 C 13252,5710 13235,5666 13202,5633 C 13168,5600 13126,5583 13076,5583 C 12995,5583 12927,5627 12873,5713 L 12847,5701 Z M 13650,5701 C 13681,5629 13719,5574 13765,5535 C 13811,5496 13869,5476 13938,5476 C 14023,5476 14089,5504 14134,5560 C 14169,5601 14186,5645 14186,5692 C 14186,5770 14138,5850 14040,5932 C 14106,5958 14155,5995 14189,6042 C 14222,6090 14239,6146 14239,6210 C 14239,6302 14209,6382 14151,6450 C 14074,6537 13964,6581 13819,6581 C 13747,6581 13698,6572 13673,6555 C 13647,6537 13634,6518 13634,6497 C 13634,6482 13640,6469 13652,6457 C 13664,6446 13679,6440 13697,6440 C 13710,6440 13723,6442 13737,6446 C 13745,6449 13766,6459 13797,6475 C 13828,6491 13850,6501 13862,6504 C 13881,6510 13902,6513 13924,6513 C 13977,6513 14024,6492 14063,6451 C 14103,6410 14123,6361 14123,6304 C 14123,6263 14113,6223 14095,6183 C 14082,6154 14067,6132 14050,6117 C 14028,6096 13997,6077 13958,6060 C 13919,6043 13879,6034 13838,6034 L 13813,6034 L 13813,6011 C 13854,6006 13895,5991 13937,5966 C 13979,5942 14009,5912 14028,5877 C 14046,5843 14056,5805 14056,5764 C 14056,5710 14039,5666 14005,5633 C 13972,5600 13930,5583 13879,5583 C 13798,5583 13731,5627 13676,5713 L 13650,5701 Z M 14561,5603 L 14819,5476 L 14845,5476 L 14845,6375 C 14845,6435 14848,6472 14853,6486 C 14858,6501 14868,6512 14884,6520 C 14899,6528 14931,6532 14980,6533 L 14980,6563 L 14579,6563 L 14579,6533 C 14630,6532 14662,6528 14677,6521 C 14691,6513 14701,6503 14707,6490 C 14713,6477 14716,6439 14716,6375 L 14716,5801 C 14716,5723 14713,5673 14708,5651 C 14704,5635 14698,5622 14688,5615 C 14678,5607 14667,5603 14653,5603 C 14634,5603 14607,5611 14572,5627 L 14561,5603 Z M 15257,5701 C 15288,5629 15326,5574 15372,5535 C 15419,5496 15476,5476 15545,5476 C 15631,5476 15696,5504 15742,5560 C 15776,5601 15793,5645 15793,5692 C 15793,5770 15745,5850 15647,5932 C 15713,5958 15762,5995 15796,6042 C 15829,6090 15846,6146 15846,6210 C 15846,6302 15817,6382 15758,6450 C 15682,6537 15571,6581 15426,6581 C 15354,6581 15306,6572 15280,6555 C 15254,6537 15241,6518 15241,6497 C 15241,6482 15247,6469 15259,6457 C 15272,6446 15286,6440 15304,6440 C 15317,6440 15330,6442 15344,6446 C 15353,6449 15373,6459 15404,6475 C 15435,6491 15457,6501 15469,6504 C 15489,6510 15509,6513 15531,6513 C 15585,6513 15631,6492 15671,6451 C 15710,6410 15730,6361 15730,6304 C 15730,6263 15721,6223 15702,6183 C 15689,6154 15674,6132 15658,6117 C 15635,6096 15604,6077 15565,6060 C 15526,6043 15486,6034 15445,6034 L 15420,6034 L 15420,6011 C 15461,6006 15503,5991 15544,5966 C 15586,5942 15616,5912 15635,5877 C 15654,5843 15663,5805 15663,5764 C 15663,5710 15646,5666 15612,5633 C 15579,5600 15537,5583 15486,5583 C 15405,5583 15338,5627 15283,5713 L 15257,5701 Z "  />
<path style="fill:#000000;fill-opacity:1.00;fill-rule:nonzero;stroke:none"  d="M 12566,6410 C 12591,6410 12612,6419 12628,6436 C 12645,6453 12653,6473 12653,6497 C 12653,6521 12645,6542 12628,6559 C 12611,6576 12590,6584 12566,6584 C 12542,6584 12522,6576 12505,6559 C 12488,6542 12479,6521 12479,6497 C 12479,6473 12488,6452 12505,6435 C 12522,6419 12542,6410 12566,6410 "  />
<path style="fill:#000000;fill-opacity:1.00;fill-rule:nonzero;stroke:none"  d="M 11624,6037 C 11624,5915 11643,5811 11679,5723 C 11716,5636 11765,5570 11825,5527 C 11872,5493 11921,5476 11971,5476 C 12053,5476 12126,5518 12191,5601 C 12272,5704 12313,5844 12313,6020 C 12313,6144 12295,6249 12259,6335 C 12224,6421 12178,6484 12123,6523 C 12068,6562 12015,6581 11963,6581 C 11862,6581 11777,6521 11710,6402 C 11653,6301 11624,6179 11624,6037 M 11778,6056 C 11778,6203 11796,6322 11832,6415 C 11862,6493 11907,6532 11966,6532 C 11994,6532 12023,6519 12054,6494 C 12084,6468 12107,6426 12123,6366 C 12147,6276 12159,6149 12159,5986 C 12159,5864 12146,5763 12121,5682 C 12102,5622 12078,5579 12048,5554 C 12027,5537 12001,5528 11970,5528 C 11935,5528 11903,5544 11876,5576 C 11838,5620 11812,5688 11799,5781 C 11785,5874 11778,5966 11778,6056 "  />
<path style="fill:#000000;fill-opacity:1.00;fill-rule:nonzero;stroke:none"  d="M 5824,5603 L 6083,5476 L 6109,5476 L 6109,6375 C 6109,6435 6111,6472 6116,6486 C 6121,6501 6131,6512 6147,6520 C 6163,6528 6195,6532 6243,6533 L 6243,6563 L 5843,6563 L 5843,6533 C 5893,6532 5925,6528 5940,6521 C 5955,6513 5965,6503 5970,6490 C 5976,6477 5979,6439 5979,6375 L 5979,5801 C 5979,5723 5977,5673 5971,5651 C 5968,5635 5961,5622 5951,5615 C 5942,5607 5930,5603 5916,5603 C 5897,5603 5870,5611 5836,5627 L 5824,5603 Z M 7159,5476 L 7159,5506 C 7090,5512 7034,5526 6990,5547 C 6947,5567 6903,5599 6861,5641 C 6818,5684 6783,5731 6755,5783 C 6727,5835 6703,5897 6685,5968 C 6760,5917 6836,5891 6911,5891 C 6984,5891 7047,5920 7101,5979 C 7154,6037 7181,6113 7181,6205 C 7181,6294 7154,6375 7100,6448 C 7035,6537 6949,6581 6842,6581 C 6770,6581 6708,6557 6657,6509 C 6558,6415 6508,6294 6508,6145 C 6508,6050 6527,5959 6565,5874 C 6604,5788 6658,5712 6729,5645 C 6800,5579 6868,5534 6933,5511 C 6997,5488 7058,5476 7114,5476 L 7159,5476 Z M 6671,6026 C 6662,6096 6657,6153 6657,6197 C 6657,6247 6666,6302 6685,6360 C 6704,6419 6731,6466 6768,6501 C 6794,6525 6827,6537 6865,6537 C 6911,6537 6951,6516 6987,6473 C 7023,6430 7041,6369 7041,6289 C 7041,6200 7023,6123 6988,6057 C 6952,5992 6901,5959 6836,5959 C 6816,5959 6795,5963 6772,5972 C 6749,5980 6716,5998 6671,6026 M 7551,6027 C 7467,5957 7412,5902 7388,5860 C 7364,5818 7352,5775 7352,5730 C 7352,5661 7378,5601 7432,5551 C 7485,5501 7556,5476 7644,5476 C 7730,5476 7799,5500 7851,5546 C 7904,5593 7930,5646 7930,5706 C 7930,5745 7916,5786 7888,5827 C 7859,5869 7800,5917 7711,5973 C 7803,6044 7864,6100 7894,6141 C 7934,6194 7954,6251 7954,6310 C 7954,6385 7925,6449 7868,6502 C 7811,6555 7736,6581 7644,6581 C 7543,6581 7464,6550 7407,6486 C 7362,6436 7340,6380 7340,6320 C 7340,6273 7356,6226 7387,6180 C 7419,6134 7474,6083 7551,6027 M 7674,5943 C 7737,5886 7777,5841 7793,5809 C 7810,5776 7819,5739 7819,5698 C 7819,5643 7803,5600 7772,5569 C 7741,5538 7699,5522 7646,5522 C 7593,5522 7549,5537 7516,5568 C 7482,5599 7465,5635 7465,5677 C 7465,5704 7472,5731 7486,5758 C 7500,5785 7520,5811 7545,5836 L 7674,5943 Z M 7588,6056 C 7544,6093 7512,6133 7491,6176 C 7470,6219 7460,6266 7460,6316 C 7460,6384 7478,6438 7515,6478 C 7552,6519 7599,6539 7656,6539 C 7713,6539 7758,6523 7792,6491 C 7826,6459 7843,6420 7843,6375 C 7843,6337 7833,6304 7813,6274 C 7776,6218 7701,6146 7588,6056 M 8208,5498 L 8778,5498 L 8778,5528 L 8424,6584 L 8336,6584 L 8654,5626 L 8361,5626 C 8302,5626 8260,5633 8234,5648 C 8191,5672 8155,5709 8129,5759 L 8106,5750 L 8208,5498 Z "  />
<path style="fill:#000000;fill-opacity:1.00;fill-rule:nonzero;stroke:none"  d="M 5437,6410 C 5461,6410 5482,6419 5499,6436 C 5515,6453 5524,6473 5524,6497 C 5524,6521 5515,6542 5498,6559 C 5481,6576 5461,6584 5437,6584 C 5413,6584 5392,6576 5375,6559 C 5358,6542 5350,6521 5350,6497 C 5350,6473 5358,6452 5375,6435 C 5392,6419 5413,6410 5437,6410 "  />
<path style="fill:#000000;fill-opacity:1.00;fill-rule:nonzero;stroke:none"  d="M 4495,6037 C 4495,5915 4513,5811 4550,5723 C 4586,5636 4635,5570 4696,5527 C 4743,5493 4791,5476 4842,5476 C 4923,5476 4997,5518 5061,5601 C 5142,5704 5183,5844 5183,6020 C 5183,6144 5165,6249 5130,6335 C 5094,6421 5049,6484 4994,6523 C 4938,6562 4885,6581 4834,6581 C 4732,6581 4648,6521 4580,6402 C 4523,6301 4495,6179 4495,6037 M 4649,6056 C 4649,6203 4667,6322 4703,6415 C 4733,6493 4777,6532 4836,6532 C 4864,6532 4894,6519 4924,6494 C 4954,6468 4977,6426 4993,6366 C 5017,6276 5029,6149 5029,5986 C 5029,5864 5017,5763 4992,5682 C 4973,5622 4948,5579 4919,5554 C 4897,5537 4871,5528 4841,5528 C 4805,5528 4774,5544 4746,5576 C 4708,5620 4683,5688 4669,5781 C 4655,5874 4649,5966 4649,6056 "  />
<path style="fill:#000000;fill-opacity:1.00;fill-rule:nonzero;stroke:none"  d="M 19878,3626 C 19878,3505 19896,3400 19933,3313 C 19969,3225 20018,3160 20079,3117 C 20126,3083 20174,3066 20225,3066 C 20306,3066 20379,3107 20444,3191 C 20525,3294 20566,3433 20566,3610 C 20566,3733 20548,3838 20513,3924 C 20477,4011 20432,4073 20376,4112 C 20321,4151 20268,4171 20217,4171 C 20115,4171 20031,4111 19963,3991 C 19906,3890 19878,3768 19878,3626 M 20032,3646 C 20032,3792 20050,3912 20086,4004 C 20116,4082 20160,4121 20219,4121 C 20247,4121 20277,4108 20307,4083 C 20337,4058 20360,4015 20376,3956 C 20400,3866 20412,3739 20412,3575 C 20412,3454 20400,3352 20375,3271 C 20356,3211 20331,3169 20302,3143 C 20280,3126 20254,3118 20224,3118 C 20188,3118 20157,3133 20129,3165 C 20091,3209 20066,3277 20052,3370 C 20038,3463 20032,3555 20032,3646 M 20932,3616 C 20847,3547 20793,3491 20769,3449 C 20745,3408 20732,3364 20732,3319 C 20732,3250 20759,3191 20812,3141 C 20866,3091 20937,3066 21025,3066 C 21111,3066 21180,3089 21232,3136 C 21285,3182 21311,3235 21311,3295 C 21311,3335 21297,3375 21268,3417 C 21240,3458 21181,3506 21092,3562 C 21184,3634 21245,3690 21275,3730 C 21314,3784 21334,3840 21334,3899 C 21334,3974 21306,4038 21249,4091 C 21192,4144 21117,4171 21024,4171 C 20923,4171 20845,4139 20788,4076 C 20743,4025 20721,3969 20721,3909 C 20721,3862 20736,3816 20768,3769 C 20800,3723 20854,3672 20932,3616 M 21055,3532 C 21118,3475 21157,3431 21174,3398 C 21191,3365 21199,3328 21199,3287 C 21199,3232 21184,3189 21153,3158 C 21122,3127 21080,3111 21027,3111 C 20973,3111 20930,3127 20896,3158 C 20863,3188 20846,3225 20846,3266 C 20846,3293 20853,3320 20867,3347 C 20881,3375 20901,3401 20926,3425 L 21055,3532 Z M 20969,3646 C 20925,3682 20893,3722 20872,3765 C 20851,3808 20841,3855 20841,3905 C 20841,3973 20859,4027 20896,4067 C 20933,4108 20980,4128 21037,4128 C 21093,4128 21139,4112 21173,4080 C 21207,4048 21224,4010 21224,3964 C 21224,3927 21214,3893 21194,3863 C 21157,3808 21082,3735 20969,3646 M 21615,3192 L 21874,3066 L 21900,3066 L 21900,3964 C 21900,4024 21903,4061 21907,4076 C 21912,4090 21923,4102 21938,4109 C 21954,4117 21986,4122 22034,4123 L 22034,4152 L 21634,4152 L 21634,4123 C 21684,4122 21717,4117 21731,4110 C 21746,4102 21756,4092 21762,4079 C 21768,4066 21771,4028 21771,3964 L 21771,3390 C 21771,3312 21768,3263 21763,3241 C 21759,3224 21752,3212 21743,3204 C 21733,3196 21721,3192 21708,3192 C 21688,3192 21661,3200 21627,3216 L 21615,3192 Z M 22312,3290 C 22342,3219 22381,3163 22427,3124 C 22473,3085 22531,3066 22600,3066 C 22685,3066 22751,3093 22796,3149 C 22831,3190 22848,3234 22848,3282 C 22848,3359 22799,3439 22702,3522 C 22767,3547 22817,3584 22850,3632 C 22884,3679 22901,3735 22901,3799 C 22901,3892 22871,3971 22813,4039 C 22736,4127 22626,4171 22481,4171 C 22409,4171 22360,4162 22334,4144 C 22309,4126 22296,4107 22296,4087 C 22296,4071 22302,4058 22314,4047 C 22326,4035 22341,4029 22358,4029 C 22371,4029 22385,4031 22398,4036 C 22407,4038 22427,4048 22459,4064 C 22490,4081 22512,4091 22524,4094 C 22543,4099 22564,4102 22586,4102 C 22639,4102 22686,4082 22725,4040 C 22765,3999 22784,3950 22784,3894 C 22784,3852 22775,3812 22757,3773 C 22743,3743 22728,3721 22712,3706 C 22690,3685 22659,3666 22620,3649 C 22580,3632 22540,3624 22500,3624 L 22474,3624 L 22474,3600 C 22516,3595 22557,3580 22599,3555 C 22640,3531 22671,3501 22689,3467 C 22708,3432 22718,3394 22718,3353 C 22718,3299 22701,3256 22667,3222 C 22633,3189 22591,3172 22541,3172 C 22460,3172 22392,3216 22338,3303 L 22312,3290 Z "  />
<path style="fill:#000000;fill-opacity:1.00;fill-rule:nonzero;stroke:none"  d="M 19621,4000 C 19646,4000 19666,4008 19683,4025 C 19700,4042 19708,4063 19708,4087 C 19708,4111 19700,4131 19683,4148 C 19666,4165 19645,4174 19621,4174 C 19597,4174 19576,4165 19559,4148 C 19542,4131 19534,4111 19534,4087 C 19534,4062 19542,4041 19559,4025 C 19576,4008 19597,4000 19621,4000 "  />
<path style="fill:#000000;fill-opacity:1.00;fill-rule:nonzero;stroke:none"  d="M 18679,3626 C 18679,3505 18697,3400 18734,3313 C 18771,3225 18819,3160 18880,3117 C 18927,3083 18976,3066 19026,3066 C 19108,3066 19181,3107 19246,3191 C 19327,3294 19367,3433 19367,3610 C 19367,3733 19350,3838 19314,3924 C 19278,4011 19233,4073 19178,4112 C 19123,4151 19069,4171 19018,4171 C 18917,4171 18832,4111 18765,3991 C 18708,3890 18679,3768 18679,3626 M 18833,3646 C 18833,3792 18851,3912 18887,4004 C 18917,4082 18961,4121 19020,4121 C 19049,4121 19078,4108 19108,4083 C 19139,4058 19162,4015 19177,3956 C 19201,3866 19213,3739 19213,3575 C 19213,3454 19201,3352 19176,3271 C 19157,3211 19133,3169 19103,3143 C 19081,3126 19056,3118 19025,3118 C 18990,3118 18958,3133 18930,3165 C 18893,3209 18867,3277 18853,3370 C 18840,3463 18833,3555 18833,3646 "  />
<path style="fill:#000000;fill-opacity:1.00;fill-rule:nonzero;stroke:none"  d="M 13475,3759 L 13475,3871 L 13333,3871 L 13333,4152 L 13203,4152 L 13203,3871 L 12753,3871 L 12753,3770 L 13246,3066 L 13333,3066 L 13333,3759 L 13475,3759 Z M 13203,3759 L 13203,3231 L 12830,3759 L 13203,3759 Z M 13719,3192 L 13978,3066 L 14004,3066 L 14004,3964 C 14004,4024 14007,4061 14012,4076 C 14017,4090 14027,4102 14043,4109 C 14058,4117 14090,4122 14139,4123 L 14139,4152 L 13738,4152 L 13738,4123 C 13789,4122 13821,4117 13836,4110 C 13850,4102 13860,4092 13866,4079 C 13872,4066 13875,4028 13875,3964 L 13875,3390 C 13875,3312 13872,3263 13867,3241 C 13863,3224 13857,3212 13847,3204 C 13837,3196 13826,3192 13812,3192 C 13793,3192 13766,3200 13731,3216 L 13719,3192 Z M 14643,3616 C 14559,3547 14505,3491 14480,3449 C 14456,3408 14444,3364 14444,3319 C 14444,3250 14470,3191 14524,3141 C 14577,3091 14648,3066 14736,3066 C 14822,3066 14891,3089 14944,3136 C 14996,3182 15022,3235 15022,3295 C 15022,3335 15008,3375 14980,3417 C 14951,3458 14893,3506 14803,3562 C 14895,3634 14956,3690 14986,3730 C 15026,3784 15046,3840 15046,3899 C 15046,3974 15017,4038 14960,4091 C 14903,4144 14828,4171 14736,4171 C 14635,4171 14556,4139 14500,4076 C 14455,4025 14432,3969 14432,3909 C 14432,3862 14448,3816 14479,3769 C 14511,3723 14566,3672 14643,3616 M 14766,3532 C 14829,3475 14869,3431 14886,3398 C 14902,3365 14911,3328 14911,3287 C 14911,3232 14895,3189 14864,3158 C 14834,3127 14791,3111 14738,3111 C 14685,3111 14641,3127 14608,3158 C 14574,3188 14558,3225 14558,3266 C 14558,3293 14565,3320 14578,3347 C 14592,3375 14612,3401 14638,3425 L 14766,3532 Z M 14680,3646 C 14637,3682 14604,3722 14583,3765 C 14563,3808 14552,3855 14552,3905 C 14552,3973 14571,4027 14607,4067 C 14644,4108 14691,4128 14748,4128 C 14805,4128 14850,4112 14884,4080 C 14918,4048 14935,4010 14935,3964 C 14935,3927 14925,3893 14905,3863 C 14868,3808 14793,3735 14680,3646 M 15300,3088 L 15870,3088 L 15870,3118 L 15516,4174 L 15428,4174 L 15746,3216 L 15453,3216 C 15394,3216 15352,3223 15327,3237 C 15283,3261 15247,3298 15221,3348 L 15198,3340 L 15300,3088 Z "  />
<path style="fill:#000000;fill-opacity:1.00;fill-rule:nonzero;stroke:none"  d="M 12529,4000 C 12553,4000 12574,4008 12591,4025 C 12608,4042 12616,4063 12616,4087 C 12616,4111 12608,4131 12590,4148 C 12573,4165 12553,4174 12529,4174 C 12505,4174 12484,4165 12467,4148 C 12450,4131 12442,4111 12442,4087 C 12442,4062 12450,4041 12467,4025 C 12484,4008 12505,4000 12529,4000 "  />
<path style="fill:#000000;fill-opacity:1.00;fill-rule:nonzero;stroke:none"  d="M 11587,3626 C 11587,3505 11605,3400 11642,3313 C 11679,3225 11727,3160 11788,3117 C 11835,3083 11884,3066 11934,3066 C 12015,3066 12089,3107 12154,3191 C 12235,3294 12275,3433 12275,3610 C 12275,3733 12257,3838 12222,3924 C 12186,4011 12141,4073 12086,4112 C 12030,4151 11977,4171 11926,4171 C 11824,4171 11740,4111 11673,3991 C 11615,3890 11587,3768 11587,3626 M 11741,3646 C 11741,3792 11759,3912 11795,4004 C 11825,4082 11869,4121 11928,4121 C 11957,4121 11986,4108 12016,4083 C 12047,4058 12070,4015 12085,3956 C 12109,3866 12121,3739 12121,3575 C 12121,3454 12109,3352 12084,3271 C 12065,3211 12041,3169 12011,3143 C 11989,3126 11963,3118 11933,3118 C 11897,3118 11866,3133 11838,3165 C 11800,3209 11775,3277 11761,3370 C 11748,3463 11741,3555 11741,3646 "  />
<path style="fill:#000000;fill-opacity:1.00;fill-rule:nonzero;stroke:none"  d="M 7557,3088 L 7495,3221 L 7175,3221 L 7105,3364 C 7244,3384 7354,3436 7435,3519 C 7505,3590 7539,3673 7539,3770 C 7539,3826 7528,3877 7505,3925 C 7483,3973 7454,4013 7419,4047 C 7385,4080 7346,4107 7304,4127 C 7244,4156 7182,4171 7119,4171 C 7055,4171 7009,4160 6980,4138 C 6950,4116 6936,4092 6936,4066 C 6936,4052 6942,4039 6954,4027 C 6966,4016 6981,4011 7000,4011 C 7013,4011 7025,4013 7035,4017 C 7045,4021 7063,4032 7087,4049 C 7127,4076 7166,4090 7207,4090 C 7268,4090 7322,4067 7368,4020 C 7414,3974 7437,3918 7437,3851 C 7437,3787 7417,3727 7375,3671 C 7334,3615 7277,3572 7204,3542 C 7147,3519 7070,3505 6971,3501 L 7175,3088 L 7557,3088 Z "  />
<path style="fill:#000000;fill-opacity:1.00;fill-rule:nonzero;stroke:none"  d="M 6660,4000 C 6685,4000 6706,4008 6722,4025 C 6739,4042 6747,4063 6747,4087 C 6747,4111 6739,4131 6722,4148 C 6705,4165 6684,4174 6660,4174 C 6636,4174 6616,4165 6599,4148 C 6582,4131 6573,4111 6573,4087 C 6573,4062 6582,4041 6599,4025 C 6616,4008 6636,4000 6660,4000 "  />
<path style="fill:#000000;fill-opacity:1.00;fill-rule:nonzero;stroke:none"  d="M 5718,3626 C 5718,3505 5737,3400 5773,3313 C 5810,3225 5859,3160 5919,3117 C 5966,3083 6015,3066 6065,3066 C 6147,3066 6220,3107 6285,3191 C 6366,3294 6407,3433 6407,3610 C 6407,3733 6389,3838 6353,3924 C 6318,4011 6272,4073 6217,4112 C 6162,4151 6109,4171 6057,4171 C 5956,4171 5871,4111 5804,3991 C 5747,3890 5718,3768 5718,3626 M 5872,3646 C 5872,3792 5890,3912 5926,4004 C 5956,4082 6001,4121 6060,4121 C 6088,4121 6117,4108 6148,4083 C 6178,4058 6201,4015 6217,3956 C 6241,3866 6253,3739 6253,3575 C 6253,3454 6240,3352 6215,3271 C 6196,3211 6172,3169 6142,3143 C 6121,3126 6095,3118 6065,3118 C 6029,3118 5997,3133 5970,3165 C 5932,3209 5906,3277 5893,3370 C 5879,3463 5872,3555 5872,3646 "  />
<path style="fill:#000000;fill-opacity:1.00;fill-rule:nonzero;stroke:none"  d="M 19783,781 L 20042,655 L 20068,655 L 20068,1554 C 20068,1613 20071,1650 20076,1665 C 20081,1680 20091,1691 20107,1699 C 20122,1707 20154,1711 20202,1712 L 20202,1741 L 19802,1741 L 19802,1712 C 19852,1711 19885,1707 19899,1699 C 19914,1692 19924,1681 19930,1668 C 19936,1656 19939,1617 19939,1554 L 19939,979 C 19939,902 19936,852 19931,830 C 19927,813 19920,801 19911,793 C 19901,785 19889,781 19876,781 C 19857,781 19830,789 19795,806 L 19783,781 Z M 20527,781 L 20786,655 L 20812,655 L 20812,1554 C 20812,1613 20815,1650 20820,1665 C 20825,1680 20835,1691 20851,1699 C 20866,1707 20898,1711 20946,1712 L 20946,1741 L 20546,1741 L 20546,1712 C 20596,1711 20629,1707 20643,1699 C 20658,1692 20668,1681 20674,1668 C 20680,1656 20683,1617 20683,1554 L 20683,979 C 20683,902 20680,852 20675,830 C 20671,813 20665,801 20655,793 C 20645,785 20634,781 20620,781 C 20601,781 20574,789 20539,806 L 20527,781 Z M 21890,1349 L 21890,1460 L 21748,1460 L 21748,1741 L 21618,1741 L 21618,1460 L 21168,1460 L 21168,1360 L 21661,655 L 21748,655 L 21748,1349 L 21890,1349 Z M 21618,1349 L 21618,821 L 21245,1349 L 21618,1349 Z "  />
<path style="fill:#000000;fill-opacity:1.00;fill-rule:nonzero;stroke:none"  d="M 19396,1589 C 19421,1589 19442,1597 19458,1614 C 19475,1631 19483,1652 19483,1676 C 19483,1700 19475,1721 19458,1738 C 19441,1755 19420,1763 19396,1763 C 19372,1763 19352,1755 19335,1738 C 19318,1721 19309,1700 19309,1676 C 19309,1651 19318,1631 19335,1614 C 19352,1597 19372,1589 19396,1589 "  />
<path style="fill:#000000;fill-opacity:1.00;fill-rule:nonzero;stroke:none"  d="M 18454,1215 C 18454,1094 18473,989 18509,902 C 18546,814 18595,749 18655,706 C 18702,672 18751,655 18801,655 C 18883,655 18956,697 19021,780 C 19102,883 19143,1023 19143,1199 C 19143,1322 19125,1427 19089,1514 C 19054,1600 19008,1662 18953,1701 C 18898,1740 18845,1760 18793,1760 C 18692,1760 18607,1700 18540,1580 C 18483,1479 18454,1358 18454,1215 M 18608,1235 C 18608,1381 18626,1501 18662,1594 C 18692,1671 18737,1710 18796,1710 C 18824,1710 18853,1698 18884,1672 C 18914,1647 18937,1605 18953,1545 C 18977,1455 18989,1328 18989,1164 C 18989,1043 18976,942 18951,861 C 18932,800 18908,758 18878,733 C 18857,715 18831,707 18800,707 C 18765,707 18733,723 18705,755 C 18668,798 18642,866 18629,960 C 18615,1053 18608,1144 18608,1235 "  />
<path style="fill:#000000;fill-opacity:1.00;fill-rule:nonzero;stroke:none"  d="M 13225,677 L 13164,810 L 12844,810 L 12774,953 C 12913,974 13023,1025 13104,1108 C 13173,1179 13208,1263 13208,1359 C 13208,1415 13197,1467 13174,1514 C 13151,1562 13123,1602 13088,1636 C 13054,1669 13015,1696 12973,1717 C 12913,1746 12851,1760 12788,1760 C 12724,1760 12677,1749 12648,1727 C 12619,1706 12605,1682 12605,1656 C 12605,1641 12611,1628 12623,1617 C 12635,1605 12650,1600 12668,1600 C 12682,1600 12694,1602 12704,1606 C 12714,1610 12732,1621 12756,1638 C 12795,1665 12835,1679 12875,1679 C 12937,1679 12990,1656 13037,1610 C 13083,1563 13106,1507 13106,1441 C 13106,1376 13085,1316 13044,1260 C 13003,1205 12946,1162 12873,1131 C 12816,1108 12738,1094 12640,1091 L 12844,677 L 13225,677 Z M 13640,1205 C 13556,1136 13501,1081 13477,1039 C 13453,997 13440,953 13440,908 C 13440,839 13467,780 13520,730 C 13574,680 13645,655 13733,655 C 13819,655 13888,678 13940,725 C 13993,771 14019,825 14019,884 C 14019,924 14005,964 13976,1006 C 13948,1047 13889,1096 13800,1152 C 13892,1223 13953,1279 13983,1320 C 14022,1373 14042,1429 14042,1488 C 14042,1563 14014,1627 13957,1680 C 13900,1733 13825,1760 13732,1760 C 13631,1760 13553,1728 13496,1665 C 13451,1614 13429,1559 13429,1499 C 13429,1452 13444,1405 13476,1359 C 13508,1312 13562,1261 13640,1205 M 13763,1121 C 13826,1065 13865,1020 13882,987 C 13899,955 13907,918 13907,876 C 13907,821 13892,778 13861,747 C 13830,716 13788,701 13735,701 C 13681,701 13638,716 13604,747 C 13571,778 13554,814 13554,855 C 13554,882 13561,910 13575,937 C 13589,964 13609,990 13634,1014 L 13763,1121 Z M 13677,1235 C 13633,1272 13601,1311 13580,1355 C 13559,1398 13549,1444 13549,1495 C 13549,1562 13567,1616 13604,1657 C 13641,1697 13688,1718 13745,1718 C 13801,1718 13847,1702 13881,1670 C 13915,1638 13932,1599 13932,1554 C 13932,1516 13922,1482 13902,1452 C 13865,1397 13790,1324 13677,1235 M 14297,677 L 14867,677 L 14867,707 L 14512,1763 L 14424,1763 L 14742,805 L 14450,805 C 14390,805 14348,812 14323,826 C 14279,850 14244,887 14217,938 L 14195,929 L 14297,677 Z "  />
<path style="fill:#000000;fill-opacity:1.00;fill-rule:nonzero;stroke:none"  d="M 12329,1589 C 12354,1589 12374,1597 12391,1614 C 12408,1631 12416,1652 12416,1676 C 12416,1700 12408,1721 12391,1738 C 12374,1755 12353,1763 12329,1763 C 12305,1763 12285,1755 12268,1738 C 12251,1721 12242,1700 12242,1676 C 12242,1651 12251,1631 12268,1614 C 12285,1597 12305,1589 12329,1589 "  />
<path style="fill:#000000;fill-opacity:1.00;fill-rule:nonzero;stroke:none"  d="M 11387,1215 C 11387,1094 11405,989 11442,902 C 11479,814 11527,749 11588,706 C 11635,672 11684,655 11734,655 C 11816,655 11889,697 11954,780 C 12035,883 12075,1023 12075,1199 C 12075,1322 12058,1427 12022,1514 C 11986,1600 11941,1662 11886,1701 C 11831,1740 11777,1760 11726,1760 C 11625,1760 11540,1700 11473,1580 C 11416,1479 11387,1358 11387,1215 M 11541,1235 C 11541,1381 11559,1501 11595,1594 C 11625,1671 11669,1710 11729,1710 C 11757,1710 11786,1698 11816,1672 C 11847,1647 11870,1605 11885,1545 C 11910,1455 11922,1328 11922,1164 C 11922,1043 11909,942 11884,861 C 11865,800 11841,758 11811,733 C 11789,715 11764,707 11733,707 C 11698,707 11666,723 11638,755 C 11601,798 11575,866 11561,960 C 11548,1053 11541,1144 11541,1235 "  />
<path style="fill:#000000;fill-opacity:1.00;fill-rule:nonzero;stroke:none"  d="M 6784,1536 L 6710,1741 L 6082,1741 L 6082,1712 C 6267,1544 6397,1406 6472,1299 C 6547,1193 6585,1095 6585,1007 C 6585,939 6564,884 6523,840 C 6482,797 6432,775 6375,775 C 6322,775 6275,790 6234,821 C 6192,852 6162,896 6142,956 L 6113,956 C 6126,859 6159,785 6213,733 C 6268,681 6335,655 6416,655 C 6503,655 6575,683 6632,738 C 6690,794 6719,859 6719,934 C 6719,988 6707,1042 6682,1096 C 6643,1181 6580,1271 6493,1365 C 6363,1507 6282,1593 6249,1623 L 6527,1623 C 6583,1623 6623,1620 6646,1616 C 6669,1612 6689,1604 6707,1591 C 6726,1578 6742,1560 6755,1536 L 6784,1536 Z M 6936,1763 L 6936,1734 C 7004,1733 7067,1717 7126,1687 C 7184,1656 7241,1602 7296,1526 C 7350,1450 7388,1366 7410,1274 C 7328,1327 7253,1353 7187,1353 C 7112,1353 7048,1325 6995,1267 C 6941,1209 6915,1132 6915,1036 C 6915,943 6941,860 6995,788 C 7059,699 7143,655 7247,655 C 7334,655 7409,691 7471,763 C 7547,853 7586,963 7586,1094 C 7586,1213 7556,1323 7498,1425 C 7440,1528 7360,1612 7256,1680 C 7172,1735 7080,1763 6981,1763 L 6936,1763 Z M 7422,1216 C 7432,1148 7436,1094 7436,1053 C 7436,1002 7428,947 7411,888 C 7393,830 7369,785 7337,753 C 7306,722 7270,706 7229,706 C 7183,706 7142,727 7107,769 C 7072,811 7054,873 7054,956 C 7054,1066 7078,1152 7124,1215 C 7158,1260 7200,1282 7250,1282 C 7274,1282 7302,1276 7335,1265 C 7368,1253 7397,1237 7422,1216 M 7739,1763 L 7739,1734 C 7807,1733 7871,1717 7929,1687 C 7988,1656 8044,1602 8099,1526 C 8154,1450 8192,1366 8213,1274 C 8131,1327 8057,1353 7990,1353 C 7916,1353 7852,1325 7798,1267 C 7745,1209 7718,1132 7718,1036 C 7718,943 7745,860 7798,788 C 7863,699 7947,655 8050,655 C 8137,655 8212,691 8275,763 C 8351,853 8389,963 8389,1094 C 8389,1213 8360,1323 8302,1425 C 8244,1528 8163,1612 8060,1680 C 7975,1735 7883,1763 7784,1763 L 7739,1763 Z M 8226,1216 C 8235,1148 8240,1094 8240,1053 C 8240,1002 8231,947 8214,888 C 8197,830 8172,785 8141,753 C 8109,722 8073,706 8033,706 C 7986,706 7945,727 7910,769 C 7875,811 7858,873 7858,956 C 7858,1066 7881,1152 7928,1215 C 7962,1260 8004,1282 8053,1282 C 8077,1282 8106,1276 8139,1265 C 8172,1253 8201,1237 8226,1216 "  />
<path style="fill:#000000;fill-opacity:1.00;fill-rule:nonzero;stroke:none"  d="M 5849,1589 C 5873,1589 5894,1597 5911,1614 C 5928,1631 5936,1652 5936,1676 C 5936,1700 5927,1721 5910,1738 C 5893,1755 5873,1763 5849,1763 C 5825,1763 5804,1755 5787,1738 C 5770,1721 5762,1700 5762,1676 C 5762,1651 5770,1631 5787,1614 C 5804,1597 5825,1589 5849,1589 "  />
<path style="fill:#000000;fill-opacity:1.00;fill-rule:nonzero;stroke:none"  d="M 4907,1215 C 4907,1094 4925,989 4962,902 C 4998,814 5047,749 5108,706 C 5155,672 5203,655 5254,655 C 5335,655 5409,697 5473,780 C 5555,883 5595,1023 5595,1199 C 5595,1322 5577,1427 5542,1514 C 5506,1600 5461,1662 5406,1701 C 5350,1740 5297,1760 5246,1760 C 5144,1760 5060,1700 4992,1580 C 4935,1479 4907,1358 4907,1215 M 5061,1235 C 5061,1381 5079,1501 5115,1594 C 5145,1671 5189,1710 5248,1710 C 5276,1710 5306,1698 5336,1672 C 5366,1647 5389,1605 5405,1545 C 5429,1455 5441,1328 5441,1164 C 5441,1043 5429,942 5404,861 C 5385,800 5360,758 5331,733 C 5309,715 5283,707 5253,707 C 5217,707 5186,723 5158,755 C 5120,798 5095,866 5081,960 C 5067,1053 5061,1144 5061,1235 "  />
<path style="fill:#000000;fill-opacity:1.00;fill-rule:nonzero;stroke:none"  d="M 26391,3328 L 26468,3328 L 26468,3703 L 26841,3703 L 26841,3779 L 26468,3779 L 26468,4152 L 26391,4152 L 26391,3779 L 26017,3779 L 26017,3703 L 26391,3703 L 26391,3328 Z "  />
<path style="fill:#000000;fill-opacity:1.00;fill-rule:nonzero;stroke:none"  d="M 23703,3741 C 23703,3765 23694,3785 23677,3802 C 23660,3819 23640,3828 23617,3828 C 23593,3828 23572,3819 23555,3802 C 23538,3785 23530,3765 23530,3741 C 23530,3717 23538,3696 23555,3679 C 23572,3662 23593,3653 23617,3653 C 23640,3653 23660,3662 23677,3679 C 23694,3696 23703,3717 23703,3741 "  />
<path style="fill:#000000;fill-opacity:1.00;fill-rule:nonzero;stroke:none"  d="M 10422,6111 L 11246,6111 L 11246,6188 L 10422,6188 L 10422,6111 Z "  />
<path style="fill:#000000;fill-opacity:1.00;fill-rule:nonzero;stroke:none"  d="M 17476,3700 L 18300,3700 L 18300,3777 L 17476,3777 L 17476,3700 Z "  />
<path style="fill:#000000;fill-opacity:1.00;fill-rule:nonzero;stroke:none"  d="M 10384,3700 L 11208,3700 L 11208,3777 L 10384,3777 L 10384,3700 Z "  />
<path style="fill:#000000;fill-opacity:1.00;fill-rule:nonzero;stroke:none"  d="M 2967,3556 L 3791,3556 L 3791,3632 L 2967,3632 L 2967,3556 Z M 2967,3849 L 3791,3849 L 3791,3927 L 2967,3927 L 2967,3849 Z "  />
<path style="fill:#000000;fill-opacity:1.00;fill-rule:nonzero;stroke:none"  d="M 24627,5527 L 24638,5498 L 25018,5498 C 25082,5498 25139,5508 25189,5528 C 25239,5548 25276,5576 25301,5611 C 25326,5647 25338,5685 25338,5724 C 25338,5786 25316,5841 25272,5890 C 25228,5940 25156,5976 25056,6000 C 25120,6024 25168,6056 25198,6096 C 25228,6135 25243,6179 25243,6227 C 25243,6279 25230,6330 25203,6378 C 25175,6426 25140,6464 25098,6490 C 25055,6517 25004,6537 24944,6549 C 24901,6558 24834,6563 24743,6563 L 24353,6563 L 24363,6533 C 24404,6532 24432,6528 24446,6522 C 24467,6513 24482,6501 24491,6486 C 24503,6467 24520,6421 24541,6350 L 24732,5706 C 24748,5651 24756,5613 24756,5591 C 24756,5572 24749,5556 24735,5545 C 24720,5534 24693,5528 24653,5528 C 24644,5528 24635,5528 24627,5527 M 24787,5969 C 24821,5970 24845,5971 24860,5971 C 24969,5971 25050,5947 25103,5900 C 25156,5852 25183,5793 25183,5722 C 25183,5668 25167,5626 25134,5596 C 25102,5566 25050,5551 24979,5551 C 24960,5551 24936,5554 24907,5560 L 24787,5969 Z M 24632,6493 C 24689,6501 24733,6504 24765,6504 C 24846,6504 24919,6480 24982,6431 C 25045,6381 25076,6315 25076,6231 C 25076,6166 25057,6116 25018,6080 C 24979,6044 24916,6026 24829,6026 C 24812,6026 24792,6027 24768,6028 L 24632,6493 Z "  />
<path style="fill:#000000;fill-opacity:1.00;fill-rule:nonzero;stroke:none"  d="M 25396,3063 L 25317,3398 L 25287,3398 C 25292,3359 25294,3330 25294,3311 C 25294,3260 25272,3215 25227,3175 C 25181,3136 25119,3116 25039,3116 C 24877,3116 24744,3192 24641,3345 C 24559,3466 24518,3601 24518,3751 C 24518,3850 24543,3936 24594,4008 C 24644,4080 24723,4116 24828,4116 C 24855,4116 24879,4114 24903,4109 C 24926,4105 24961,4094 25008,4078 L 25086,3804 C 25097,3766 25102,3736 25102,3714 C 25102,3695 25095,3681 25082,3671 C 25060,3656 25024,3648 24975,3648 L 24953,3648 L 24962,3617 L 25404,3617 L 25396,3648 C 25356,3649 25327,3653 25309,3662 C 25290,3671 25275,3686 25262,3708 C 25253,3722 25238,3763 25218,3831 L 25140,4100 C 25068,4131 25010,4151 24966,4162 C 24923,4172 24876,4177 24828,4177 C 24716,4177 24625,4156 24555,4114 C 24486,4072 24434,4016 24401,3947 C 24368,3877 24351,3808 24351,3740 C 24351,3648 24371,3560 24409,3477 C 24448,3394 24496,3324 24554,3267 C 24612,3210 24675,3165 24743,3132 C 24836,3086 24935,3063 25038,3063 C 25114,3063 25182,3076 25243,3101 C 25268,3111 25286,3116 25298,3116 C 25311,3116 25322,3113 25331,3107 C 25340,3101 25352,3086 25367,3063 L 25396,3063 Z "  />
<path style="fill:#000000;fill-opacity:1.00;fill-rule:nonzero;stroke:none"  d="M 25057,1741 L 24887,1224 C 24847,1224 24807,1221 24765,1212 L 24673,1534 C 24661,1576 24655,1611 24655,1640 C 24655,1662 24662,1679 24678,1692 C 24689,1701 24721,1708 24772,1712 L 24765,1741 L 24353,1741 L 24361,1712 C 24400,1710 24426,1707 24440,1700 C 24461,1691 24477,1679 24487,1664 C 24504,1640 24521,1596 24540,1534 L 24726,891 C 24738,848 24744,815 24744,792 C 24744,768 24735,747 24715,730 C 24695,714 24667,706 24631,706 L 24640,677 L 24987,677 C 25103,677 25187,699 25238,743 C 25289,787 25315,845 25315,916 C 25315,985 25289,1048 25236,1104 C 25183,1161 25111,1197 25020,1212 L 25123,1524 C 25148,1600 25174,1650 25199,1673 C 25224,1696 25264,1709 25320,1712 L 25312,1741 L 25057,1741 Z M 24778,1167 C 24812,1172 24841,1175 24868,1175 C 24958,1175 25029,1150 25081,1100 C 25133,1050 25159,987 25159,913 C 25159,855 25143,811 25110,780 C 25078,749 25029,734 24963,734 C 24947,734 24927,736 24904,740 L 24778,1167 Z "  />
<path style="fill:#000000;fill-opacity:1.00;fill-rule:nonzero;stroke:none"  d="M 1547,5474 L 1468,5819 L 1439,5819 L 1436,5732 C 1434,5701 1428,5673 1418,5648 C 1409,5624 1395,5602 1376,5584 C 1357,5566 1333,5552 1304,5542 C 1276,5532 1244,5527 1209,5527 C 1115,5527 1033,5552 963,5604 C 874,5669 804,5761 753,5881 C 711,5979 690,6079 690,6180 C 690,6283 720,6365 780,6426 C 840,6488 919,6519 1015,6519 C 1088,6519 1152,6502 1209,6470 C 1266,6437 1319,6388 1367,6320 L 1404,6320 C 1347,6412 1283,6479 1213,6522 C 1143,6565 1059,6587 961,6587 C 874,6587 797,6569 730,6532 C 663,6496 612,6445 577,6379 C 542,6313 524,6242 524,6166 C 524,6050 556,5937 618,5827 C 680,5717 766,5631 874,5568 C 983,5506 1092,5474 1202,5474 C 1254,5474 1312,5486 1377,5511 C 1405,5521 1425,5527 1438,5527 C 1450,5527 1461,5524 1471,5519 C 1480,5514 1496,5499 1518,5474 L 1547,5474 Z M 1952,5447 L 1797,5989 C 1848,5937 1891,5901 1929,5881 C 1966,5862 2005,5852 2046,5852 C 2104,5852 2151,5871 2187,5910 C 2224,5948 2242,6000 2242,6065 C 2242,6149 2218,6233 2170,6316 C 2122,6400 2062,6465 1989,6511 C 1916,6558 1844,6581 1774,6581 C 1695,6581 1614,6552 1531,6493 L 1769,5671 C 1787,5608 1797,5571 1797,5560 C 1797,5546 1792,5536 1784,5529 C 1772,5520 1754,5515 1731,5515 C 1720,5515 1703,5517 1680,5520 L 1680,5491 L 1952,5447 Z M 1648,6501 C 1701,6530 1747,6544 1786,6544 C 1832,6544 1880,6528 1930,6494 C 1979,6460 2022,6403 2058,6323 C 2095,6243 2113,6162 2113,6081 C 2113,6033 2101,5995 2077,5968 C 2053,5940 2025,5927 1993,5927 C 1944,5927 1896,5946 1850,5985 C 1803,6024 1770,6079 1750,6148 L 1648,6501 Z "  />
<path style="fill:#000000;fill-opacity:1.00;fill-rule:nonzero;stroke:none"  d="M 1597,3063 L 1518,3408 L 1489,3408 L 1486,3322 C 1484,3290 1478,3262 1468,3238 C 1459,3213 1445,3192 1426,3174 C 1407,3156 1383,3141 1354,3131 C 1326,3121 1294,3116 1259,3116 C 1165,3116 1083,3142 1013,3193 C 924,3258 854,3351 803,3470 C 761,3568 740,3668 740,3769 C 740,3872 770,3954 830,4016 C 890,4077 969,4108 1065,4108 C 1138,4108 1202,4092 1259,4059 C 1316,4027 1369,3977 1417,3909 L 1454,3909 C 1397,4001 1333,4068 1263,4111 C 1193,4155 1109,4176 1011,4176 C 924,4176 847,4158 780,4122 C 713,4085 662,4034 627,3968 C 592,3902 574,3831 574,3756 C 574,3639 606,3526 668,3417 C 730,3307 815,3220 924,3158 C 1033,3095 1142,3063 1252,3063 C 1304,3063 1362,3076 1427,3100 C 1455,3111 1475,3116 1488,3116 C 1500,3116 1511,3113 1521,3108 C 1530,3103 1546,3088 1568,3063 L 1597,3063 Z M 1622,3486 L 1893,3442 L 1780,3823 C 1871,3667 1955,3557 2029,3495 C 2072,3459 2106,3442 2133,3442 C 2150,3442 2164,3447 2174,3457 C 2184,3467 2189,3482 2189,3501 C 2189,3536 2180,3569 2162,3600 C 2149,3624 2131,3635 2108,3635 C 2096,3635 2085,3632 2077,3624 C 2068,3616 2063,3604 2061,3588 C 2060,3578 2057,3571 2054,3568 C 2049,3564 2044,3562 2039,3562 C 2030,3562 2021,3564 2014,3568 C 2000,3575 1979,3596 1952,3629 C 1908,3680 1861,3747 1810,3828 C 1788,3863 1770,3902 1754,3945 C 1732,4005 1719,4041 1716,4053 L 1691,4152 L 1571,4152 L 1716,3664 C 1733,3608 1741,3568 1741,3544 C 1741,3534 1737,3526 1730,3520 C 1719,3512 1705,3508 1688,3508 C 1677,3508 1657,3510 1628,3515 L 1622,3486 Z "  />
<path style="fill:#000000;fill-opacity:1.00;fill-rule:nonzero;stroke:none"  d="M 1353,1175 L 1555,892 C 1607,818 1634,771 1634,751 C 1634,739 1628,730 1617,722 C 1605,715 1573,709 1521,706 L 1528,677 L 1863,677 L 1856,706 C 1824,710 1802,715 1790,719 C 1771,727 1752,740 1734,756 C 1709,778 1674,821 1627,886 L 1367,1245 L 1288,1508 C 1269,1574 1259,1619 1259,1645 C 1259,1661 1262,1673 1268,1681 C 1274,1690 1285,1697 1300,1702 C 1320,1708 1350,1712 1391,1712 L 1383,1741 L 935,1741 L 945,1712 C 989,1711 1019,1707 1033,1701 C 1057,1692 1074,1679 1086,1663 C 1104,1639 1122,1596 1141,1534 L 1234,1223 L 1120,856 C 1100,791 1081,751 1064,735 C 1047,719 1018,710 975,706 L 983,677 L 1376,677 L 1367,706 C 1318,710 1290,713 1283,715 C 1271,719 1262,726 1255,737 C 1247,748 1244,761 1244,776 C 1244,797 1251,834 1266,886 L 1353,1175 Z "  />
</svg>